<svg version="1.1" viewBox="0.0 0.0 600.0 371.0" fill="none" stroke="none" stroke-linecap="square" stroke-miterlimit="10" width="600" height="371" xmlns:xlink="http://www.w3.org/1999/xlink" xmlns="http://www.w3.org/2000/svg"><path fill="#ffffff" d="M0 0L600.0 0L600.0 371.0L0 371.0L0 0Z" fill-rule="nonzero"/><path stroke="#333333" stroke-width="1.0" stroke-linecap="butt" d="M77.5 300.5L581.5 300.5" fill-rule="nonzero"/><path stroke="#cccccc" stroke-width="1.0" stroke-linecap="butt" d="M77.5 252.5L581.5 252.5" fill-rule="nonzero"/><path stroke="#cccccc" stroke-width="1.0" stroke-linecap="butt" d="M77.5 205.5L581.5 205.5" fill-rule="nonzero"/><path stroke="#cccccc" stroke-width="1.0" stroke-linecap="butt" d="M77.5 157.5L581.5 157.5" fill-rule="nonzero"/><path stroke="#cccccc" stroke-width="1.0" stroke-linecap="butt" d="M77.5 109.5L581.5 109.5" fill-rule="nonzero"/><path stroke="#cccccc" stroke-width="1.0" stroke-linecap="butt" d="M77.5 61.5L581.5 61.5" fill-rule="nonzero"/><clipPath id="id_0"><path d="M77.55 61.916668L581.45 61.916668L581.45 300.45L77.55 300.45L77.55 61.916668Z" clip-rule="nonzero"/></clipPath><path stroke="#000000" stroke-width="2.0" stroke-linecap="butt" stroke-opacity="0.0" clip-path="url(#id_0)" d="M194.0 300.0L119.0 300.0L119.0 200.0C119.0 198.89543 119.89543 198.0 121.0 198.0L192.0 198.0C193.10457 198.0 194.0 198.89543 194.0 200.0Z" fill-rule="nonzero"/><path fill="#4285f4" clip-path="url(#id_0)" d="M194.0 300.0L119.0 300.0L119.0 200.0C119.0 198.89543 119.89543 198.0 121.0 198.0L192.0 198.0C193.10457 198.0 194.0 198.89543 194.0 200.0Z" fill-rule="nonzero"/><path stroke="#000000" stroke-width="2.0" stroke-linecap="butt" stroke-opacity="0.0" clip-path="url(#id_0)" d="M310.0 300.0L235.0 300.0L235.0 158.0C235.0 156.89543 235.89543 156.0 237.0 156.0L308.0 156.0C309.10458 156.0 310.0 156.89543 310.0 158.0Z" fill-rule="nonzero"/><path fill="#4285f4" clip-path="url(#id_0)" d="M310.0 300.0L235.0 300.0L235.0 158.0C235.0 156.89543 235.89543 156.0 237.0 156.0L308.0 156.0C309.10458 156.0 310.0 156.89543 310.0 158.0Z" fill-rule="nonzero"/><path stroke="#000000" stroke-width="2.0" stroke-linecap="butt" stroke-opacity="0.0" clip-path="url(#id_0)" d="M425.0 300.0L350.0 300.0L350.0 152.0C350.0 150.89543 350.89542 150.0 352.0 150.0L423.0 150.0C424.10458 150.0 425.0 150.89543 425.0 152.0Z" fill-rule="nonzero"/><path fill="#4285f4" clip-path="url(#id_0)" d="M425.0 300.0L350.0 300.0L350.0 152.0C350.0 150.89543 350.89542 150.0 352.0 150.0L423.0 150.0C424.10458 150.0 425.0 150.89543 425.0 152.0Z" fill-rule="nonzero"/><path stroke="#000000" stroke-width="2.0" stroke-linecap="butt" stroke-opacity="0.0" clip-path="url(#id_0)" d="M541.0 300.0L466.0 300.0L466.0 67.0C466.0 65.89543 466.89542 65.0 468.0 65.0L539.0 65.0C540.10455 65.0 541.0 65.89543 541.0 67.0Z" fill-rule="nonzero"/><path fill="#4285f4" clip-path="url(#id_0)" d="M541.0 300.0L466.0 300.0L466.0 67.0C466.0 65.89543 466.89542 65.0 468.0 65.0L539.0 65.0C540.10455 65.0 541.0 65.89543 541.0 67.0Z" fill-rule="nonzero"/><path fill="#000000" d="M301.29688 349.45L301.29688 343.23126L302.23438 343.23126L302.23438 344.10626Q302.53125 343.6375 303.01562 343.3719Q303.5 343.09064 304.125 343.09064Q304.8125 343.09064 305.25 343.3719Q305.70312 343.65314 305.875 344.16876Q306.625 343.09064 307.79688 343.09064Q308.73438 343.09064 309.21875 343.60626Q309.71875 344.10626 309.71875 345.1844L309.71875 349.45L308.67188 349.45L308.67188 345.52814Q308.67188 344.90314 308.5625 344.6219Q308.46875 344.34064 308.20312 344.16876Q307.9375 343.9969 307.5625 343.9969Q306.90625 343.9969 306.46875 344.4344Q306.04688 344.8719 306.04688 345.84064L306.04688 349.45L304.98438 349.45L304.98438 345.40314Q304.98438 344.7 304.71875 344.35626Q304.46875 343.9969 303.89062 343.9969Q303.4375 343.9969 303.0625 344.23126Q302.6875 344.46564 302.51562 344.91876Q302.34375 345.3719 302.34375 346.21564L302.34375 349.45L301.29688 349.45ZM316.35938 348.6844Q315.76562 349.1844 315.21875 349.3875Q314.6875 349.59064 314.0625 349.59064Q313.03125 349.59064 312.48438 349.09064Q311.9375 348.59064 311.9375 347.8094Q311.9375 347.35626 312.14062 346.98126Q312.34375 346.59064 312.6875 346.3719Q313.03125 346.1375 313.45312 346.02814Q313.75 345.9344 314.39062 345.85626Q315.65625 345.71564 316.26562 345.4969Q316.26562 345.27814 316.26562 345.23126Q316.26562 344.575 315.96875 344.3094Q315.5625 343.96564 314.76562 343.96564Q314.03125 343.96564 313.67188 344.23126Q313.3125 344.48126 313.14062 345.1375L312.10938 344.9969Q312.25 344.34064 312.57812 343.9344Q312.90625 343.52814 313.51562 343.3094Q314.125 343.09064 314.92188 343.09064Q315.71875 343.09064 316.21875 343.27814Q316.71875 343.46564 316.95312 343.7469Q317.1875 344.02814 317.28125 344.46564Q317.32812 344.73126 317.32812 345.4344L317.32812 346.84064Q317.32812 348.3094 317.39062 348.7Q317.46875 349.09064 317.67188 349.45L316.5625 349.45Q316.40625 349.1219 316.35938 348.6844ZM316.26562 346.325Q315.6875 346.5594 314.54688 346.73126Q313.89062 346.825 313.625 346.95Q313.35938 347.0594 313.20312 347.27814Q313.0625 347.4969 313.0625 347.77814Q313.0625 348.2 313.375 348.48126Q313.70312 348.7625 314.3125 348.7625Q314.92188 348.7625 315.39062 348.4969Q315.875 348.23126 316.09375 347.7625Q316.26562 347.40314 316.26562 346.71564L316.26562 346.325ZM321.59375 348.5125L321.75 349.4344Q321.29688 349.52814 320.95312 349.52814Q320.375 349.52814 320.0625 349.35626Q319.75 349.16876 319.60938 348.8719Q319.48438 348.575 319.48438 347.6219L319.48438 344.04376L318.71875 344.04376L318.71875 343.23126L319.48438 343.23126L319.48438 341.6844L320.53125 341.0594L320.53125 343.23126L321.59375 343.23126L321.59375 344.04376L320.53125 344.04376L320.53125 347.6844Q320.53125 348.1375 320.57812 348.2625Q320.64062 348.3875 320.76562 348.46564Q320.89062 348.54376 321.125 348.54376Q321.3125 348.54376 321.59375 348.5125ZM322.28125 349.45L322.28125 343.23126L323.23438 343.23126L323.23438 344.16876Q323.59375 343.5125 323.89062 343.3094Q324.20312 343.09064 324.57812 343.09064Q325.10938 343.09064 325.65625 343.41876L325.29688 344.40314Q324.90625 344.16876 324.53125 344.16876Q324.17188 344.16876 323.89062 344.3875Q323.625 344.59064 323.51562 344.96564Q323.32812 345.52814 323.32812 346.1844L323.32812 349.45L322.28125 349.45ZM326.29688 342.075L326.29688 340.85626L327.35938 340.85626L327.35938 342.075L326.29688 342.075ZM326.29688 349.45L326.29688 343.23126L327.35938 343.23126L327.35938 349.45L326.29688 349.45ZM328.59375 349.45L330.85938 346.21564L328.76562 343.23126L330.07812 343.23126L331.03125 344.6844Q331.29688 345.10626 331.46875 345.3875Q331.71875 344.9969 331.9375 344.7L332.98438 343.23126L334.25 343.23126L332.09375 346.15314L334.40625 349.45L333.125 349.45L331.84375 347.5125L331.5 346.9969L329.85938 349.45L328.59375 349.45ZM336.875 347.59064L337.90625 347.4344Q338.0 348.0594 338.39062 348.3875Q338.79688 348.71564 339.53125 348.71564Q340.25 348.71564 340.59375 348.4344Q340.95312 348.1375 340.95312 347.73126Q340.95312 347.3719 340.64062 347.16876Q340.42188 347.02814 339.5625 346.8094Q338.40625 346.5125 337.95312 346.3094Q337.51562 346.09064 337.28125 345.71564Q337.04688 345.34064 337.04688 344.8719Q337.04688 344.46564 337.23438 344.10626Q337.42188 343.7469 337.75 343.5125Q338.0 343.34064 338.42188 343.21564Q338.84375 343.09064 339.34375 343.09064Q340.0625 343.09064 340.60938 343.3094Q341.17188 343.5125 341.4375 343.8719Q341.70312 344.23126 341.79688 344.825L340.76562 344.96564Q340.70312 344.4969 340.35938 344.23126Q340.03125 343.95 339.40625 343.95Q338.6875 343.95 338.375 344.2Q338.0625 344.4344 338.0625 344.7625Q338.0625 344.96564 338.1875 345.1219Q338.32812 345.29376 338.59375 345.40314Q338.75 345.46564 339.53125 345.66876Q340.65625 345.98126 341.09375 346.16876Q341.53125 346.35626 341.78125 346.71564Q342.03125 347.075 342.03125 347.6219Q342.03125 348.15314 341.71875 348.6219Q341.42188 349.075 340.84375 349.34064Q340.26562 349.59064 339.53125 349.59064Q338.3125 349.59064 337.67188 349.09064Q337.04688 348.575 336.875 347.59064ZM344.29688 342.075L344.29688 340.85626L345.35938 340.85626L345.35938 342.075L344.29688 342.075ZM344.29688 349.45L344.29688 343.23126L345.35938 343.23126L345.35938 349.45L344.29688 349.45ZM346.73438 349.45L346.73438 348.59064L350.70312 344.04376Q350.01562 344.075 349.5 344.075L346.96875 344.075L346.96875 343.23126L352.0625 343.23126L352.0625 343.91876L348.6875 347.8719L348.03125 348.59064Q348.75 348.54376 349.35938 348.54376L352.25 348.54376L352.25 349.45L346.73438 349.45ZM356.54688 347.45L357.64062 347.575Q357.39062 348.52814 356.6875 349.0594Q355.98438 349.59064 354.90625 349.59064Q353.54688 349.59064 352.73438 348.7469Q351.9375 347.90314 351.9375 346.3875Q351.9375 344.825 352.75 343.96564Q353.5625 343.09064 354.84375 343.09064Q356.09375 343.09064 356.875 343.9344Q357.67188 344.77814 357.67188 346.325Q357.67188 346.41876 357.67188 346.60626L353.03125 346.60626Q353.09375 347.6375 353.60938 348.1844Q354.125 348.71564 354.90625 348.71564Q355.48438 348.71564 355.89062 348.41876Q356.3125 348.10626 356.54688 347.45ZM353.09375 345.7469L356.5625 345.7469Q356.5 344.95 356.17188 344.5594Q355.65625 343.95 354.85938 343.95Q354.125 343.95 353.625 344.4344Q353.14062 344.91876 353.09375 345.7469Z" fill-rule="nonzero"/><path fill="#000000" d="M28.784388 230.82396Q29.284388 231.41771 29.487513 231.96458Q29.690638 232.49583 29.690638 233.12083Q29.690638 234.15208 29.190638 234.69896Q28.690638 235.24583 27.909388 235.24583Q27.456263 235.24583 27.081263 235.04271Q26.690638 234.83958 26.471888 234.49583Q26.237513 234.15208 26.128138 233.73021Q26.034388 233.43333 25.956263 232.79271Q25.815638 231.52708 25.596888 230.91771Q25.378138 230.91771 25.331263 230.91771Q24.675013 230.91771 24.409388 231.21458Q24.065638 231.62083 24.065638 232.41771Q24.065638 233.15208 24.331263 233.51146Q24.581263 233.87083 25.237513 234.04271L25.096888 235.07396Q24.440638 234.93333 24.034388 234.60521Q23.628138 234.27708 23.409388 233.66771Q23.190638 233.05833 23.190638 232.26146Q23.190638 231.46458 23.378138 230.96458Q23.565638 230.46458 23.846888 230.23021Q24.128138 229.99583 24.565638 229.90208Q24.831263 229.85521 25.534388 229.85521L26.940638 229.85521Q28.409388 229.85521 28.800013 229.79271Q29.190638 229.71458 29.550013 229.51146L29.550013 230.62083Q29.221888 230.77708 28.784388 230.82396ZM26.425013 230.91771Q26.659388 231.49583 26.831263 232.63646Q26.925013 233.29271 27.050013 233.55833Q27.159388 233.82396 27.378138 233.98021Q27.596888 234.12083 27.878138 234.12083Q28.300013 234.12083 28.581263 233.80833Q28.862513 233.48021 28.862513 232.87083Q28.862513 232.26146 28.596888 231.79271Q28.331263 231.30833 27.862513 231.08958Q27.503138 230.91771 26.815638 230.91771L26.425013 230.91771ZM29.550013 226.16771L23.331263 228.52708L23.331263 227.41771L27.050013 226.07396Q27.659388 225.87083 28.300013 225.68333Q27.815638 225.54271 27.128138 225.29271L23.331263 223.90208L23.331263 222.82396L29.550013 225.18333L29.550013 226.16771ZM27.550013 218.63646L27.675013 217.54271Q28.628138 217.79271 29.159388 218.49583Q29.690638 219.19896 29.690638 220.27708Q29.690638 221.63646 28.846888 222.44896Q28.003138 223.24583 26.487513 223.24583Q24.925013 223.24583 24.065638 222.43333Q23.190638 221.62083 23.190638 220.33958Q23.190638 219.08958 24.034388 218.30833Q24.878138 217.51146 26.425013 217.51146Q26.518763 217.51146 26.706263 217.51146L26.706263 222.15208Q27.737513 222.08958 28.284388 221.57396Q28.815638 221.05833 28.815638 220.27708Q28.815638 219.69896 28.518763 219.29271Q28.206263 218.87083 27.550013 218.63646ZM25.846888 222.08958L25.846888 218.62083Q25.050013 218.68333 24.659388 219.01146Q24.050013 219.52708 24.050013 220.32396Q24.050013 221.05833 24.534388 221.55833Q25.018763 222.04271 25.846888 222.08958ZM29.550013 215.90208L23.331263 215.90208L23.331263 214.94896L24.268763 214.94896Q23.612513 214.58958 23.409388 214.29271Q23.190638 213.98021 23.190638 213.60521Q23.190638 213.07396 23.518763 212.52708L24.503138 212.88646Q24.268763 213.27708 24.268763 213.65208Q24.268763 214.01146 24.487513 214.29271Q24.690638 214.55833 25.065638 214.66771Q25.628138 214.85521 26.284388 214.85521L29.550013 214.85521L29.550013 215.90208ZM28.784388 207.82396Q29.284388 208.41771 29.487513 208.96458Q29.690638 209.49583 29.690638 210.12083Q29.690638 211.15208 29.190638 211.69896Q28.690638 212.24583 27.909388 212.24583Q27.456263 212.24583 27.081263 212.04271Q26.690638 211.83958 26.471888 211.49583Q26.237513 211.15208 26.128138 210.73021Q26.034388 210.43333 25.956263 209.79271Q25.815638 208.52708 25.596888 207.91771Q25.378138 207.91771 25.331263 207.91771Q24.675013 207.91771 24.409388 208.21458Q24.065638 208.62083 24.065638 209.41771Q24.065638 210.15208 24.331263 210.51146Q24.581263 210.87083 25.237513 211.04271L25.096888 212.07396Q24.440638 211.93333 24.034388 211.60521Q23.628138 211.27708 23.409388 210.66771Q23.190638 210.05833 23.190638 209.26146Q23.190638 208.46458 23.378138 207.96458Q23.565638 207.46458 23.846888 207.23021Q24.128138 206.99583 24.565638 206.90208Q24.831263 206.85521 25.534388 206.85521L26.940638 206.85521Q28.409388 206.85521 28.800013 206.79271Q29.190638 206.71458 29.550013 206.51146L29.550013 207.62083Q29.221888 207.77708 28.784388 207.82396ZM26.425013 207.91771Q26.659388 208.49583 26.831263 209.63646Q26.925013 210.29271 27.050013 210.55833Q27.159388 210.82396 27.378138 210.98021Q27.596888 211.12083 27.878138 211.12083Q28.300013 211.12083 28.581263 210.80833Q28.862513 210.48021 28.862513 209.87083Q28.862513 209.26146 28.596888 208.79271Q28.331263 208.30833 27.862513 208.08958Q27.503138 207.91771 26.815638 207.91771L26.425013 207.91771ZM30.065638 205.08958L30.221888 204.05833Q30.690638 203.99583 30.909388 203.69896Q31.206263 203.30833 31.206263 202.63646Q31.206263 201.90208 30.909388 201.51146Q30.612513 201.10521 30.096888 200.96458Q29.768763 200.87083 28.737513 200.88646Q29.550013 201.57396 29.550013 202.60521Q29.550013 203.88646 28.628138 204.58958Q27.690638 205.29271 26.409388 205.29271Q25.518763 205.29271 24.768763 204.98021Q24.003138 204.65208 23.596888 204.04271Q23.190638 203.43333 23.190638 202.60521Q23.190638 201.49583 24.081263 200.77708L23.331263 200.77708L23.331263 199.80833L28.706263 199.80833Q30.159388 199.80833 30.768763 200.10521Q31.378138 200.40208 31.721888 201.04271Q32.08126 201.68333 32.08126 202.62083Q32.08126 203.73021 31.581263 204.41771Q31.081263 205.10521 30.065638 205.08958ZM26.331263 204.21458Q27.550013 204.21458 28.112513 203.73021Q28.675013 203.24583 28.675013 202.51146Q28.675013 201.77708 28.112513 201.29271Q27.550013 200.79271 26.362513 200.79271Q25.221888 200.79271 24.643763 201.30833Q24.065638 201.80833 24.065638 202.52708Q24.065638 203.23021 24.643763 203.73021Q25.206263 204.21458 26.331263 204.21458ZM27.550013 193.63646L27.675013 192.54271Q28.628138 192.79271 29.159388 193.49583Q29.690638 194.19896 29.690638 195.27708Q29.690638 196.63646 28.846888 197.44896Q28.003138 198.24583 26.487513 198.24583Q24.925013 198.24583 24.065638 197.43333Q23.190638 196.62083 23.190638 195.33958Q23.190638 194.08958 24.034388 193.30833Q24.878138 192.51146 26.425013 192.51146Q26.518763 192.51146 26.706263 192.51146L26.706263 197.15208Q27.737513 197.08958 28.284388 196.57396Q28.815638 196.05833 28.815638 195.27708Q28.815638 194.69896 28.518763 194.29271Q28.206263 193.87083 27.550013 193.63646ZM25.846888 197.08958L25.846888 193.62083Q25.050013 193.68333 24.659388 194.01146Q24.050013 194.52708 24.050013 195.32396Q24.050013 196.05833 24.534388 196.55833Q25.018763 197.04271 25.846888 197.08958ZM27.690638 188.30833L27.534388 187.27708Q28.159388 187.18333 28.487513 186.79271Q28.815638 186.38646 28.815638 185.65208Q28.815638 184.93333 28.534388 184.58958Q28.237513 184.23021 27.831263 184.23021Q27.471888 184.23021 27.268763 184.54271Q27.128138 184.76146 26.909388 185.62083Q26.612513 186.77708 26.409388 187.23021Q26.190638 187.66771 25.815638 187.90208Q25.440638 188.13646 24.971888 188.13646Q24.565638 188.13646 24.206263 187.94896Q23.846888 187.76146 23.612513 187.43333Q23.440638 187.18333 23.315638 186.76146Q23.190638 186.33958 23.190638 185.83958Q23.190638 185.12083 23.409388 184.57396Q23.612513 184.01146 23.971888 183.74583Q24.331263 183.48021 24.925013 183.38646L25.065638 184.41771Q24.596888 184.48021 24.331263 184.82396Q24.050013 185.15208 24.050013 185.77708Q24.050013 186.49583 24.300013 186.80833Q24.534388 187.12083 24.862513 187.12083Q25.065638 187.12083 25.221888 186.99583Q25.393763 186.85521 25.503138 186.58958Q25.565638 186.43333 25.768763 185.65208Q26.081263 184.52708 26.268763 184.08958Q26.456263 183.65208 26.815638 183.40208Q27.175013 183.15208 27.721888 183.15208Q28.253138 183.15208 28.721888 183.46458Q29.175013 183.76146 29.440638 184.33958Q29.690638 184.91771 29.690638 185.65208Q29.690638 186.87083 29.190638 187.51146Q28.675013 188.13646 27.690638 188.30833ZM31.940638 180.88646L23.331263 180.88646L23.331263 179.93333L24.128138 179.93333Q23.659388 179.58958 23.425013 179.16771Q23.190638 178.73021 23.190638 178.12083Q23.190638 177.32396 23.596888 176.71458Q24.003138 176.10521 24.753138 175.80833Q25.503138 175.49583 26.393763 175.49583Q27.346888 175.49583 28.112513 175.83958Q28.878138 176.16771 29.284388 176.82396Q29.690638 177.48021 29.690638 178.19896Q29.690638 178.73021 29.471888 179.15208Q29.237513 179.57396 28.909388 179.83958L31.940638 179.83958L31.940638 180.88646ZM26.471888 179.93333Q27.675013 179.93333 28.253138 179.44896Q28.815638 178.96458 28.815638 178.27708Q28.815638 177.57396 28.221888 177.07396Q27.628138 176.57396 26.378138 176.57396Q25.190638 176.57396 24.612513 177.05833Q24.018763 177.54271 24.018763 178.23021Q24.018763 178.90208 24.643763 179.41771Q25.268763 179.93333 26.471888 179.93333ZM27.550013 169.63646L27.675013 168.54271Q28.628138 168.79271 29.159388 169.49583Q29.690638 170.19896 29.690638 171.27708Q29.690638 172.63646 28.846888 173.44896Q28.003138 174.24583 26.487513 174.24583Q24.925013 174.24583 24.065638 173.43333Q23.190638 172.62083 23.190638 171.33958Q23.190638 170.08958 24.034388 169.30833Q24.878138 168.51146 26.425013 168.51146Q26.518763 168.51146 26.706263 168.51146L26.706263 173.15208Q27.737513 173.08958 28.284388 172.57396Q28.815638 172.05833 28.815638 171.27708Q28.815638 170.69896 28.518763 170.29271Q28.206263 169.87083 27.550013 169.63646ZM25.846888 173.08958L25.846888 169.62083Q25.050013 169.68333 24.659388 170.01146Q24.050013 170.52708 24.050013 171.32396Q24.050013 172.05833 24.534388 172.55833Q25.018763 173.04271 25.846888 173.08958ZM27.550013 162.63646L27.675013 161.54271Q28.628138 161.79271 29.159388 162.49583Q29.690638 163.19896 29.690638 164.27708Q29.690638 165.63646 28.846888 166.44896Q28.003138 167.24583 26.487513 167.24583Q24.925013 167.24583 24.065638 166.43333Q23.190638 165.62083 23.190638 164.33958Q23.190638 163.08958 24.034388 162.30833Q24.878138 161.51146 26.425013 161.51146Q26.518763 161.51146 26.706263 161.51146L26.706263 166.15208Q27.737513 166.08958 28.284388 165.57396Q28.815638 165.05833 28.815638 164.27708Q28.815638 163.69896 28.518763 163.29271Q28.206263 162.87083 27.550013 162.63646ZM25.846888 166.08958L25.846888 162.62083Q25.050013 162.68333 24.659388 163.01146Q24.050013 163.52708 24.050013 164.32396Q24.050013 165.05833 24.534388 165.55833Q25.018763 166.04271 25.846888 166.08958ZM29.550013 155.85521L28.768763 155.85521Q29.690638 156.44896 29.690638 157.58958Q29.690638 158.33958 29.284388 158.96458Q28.862513 159.58958 28.128138 159.93333Q27.393763 160.27708 26.440638 160.27708Q25.518763 160.27708 24.753138 159.96458Q23.987513 159.65208 23.596888 159.02708Q23.190638 158.40208 23.190638 157.63646Q23.190638 157.07396 23.425013 156.63646Q23.659388 156.19896 24.034388 155.91771L20.956263 155.91771L20.956263 154.87083L29.550013 154.87083L29.550013 155.85521ZM26.440638 159.18333Q27.643763 159.18333 28.237513 158.68333Q28.815638 158.18333 28.815638 157.49583Q28.815638 156.80833 28.253138 156.32396Q27.690638 155.83958 26.534388 155.83958Q25.253138 155.83958 24.659388 156.33958Q24.065638 156.82396 24.065638 157.54271Q24.065638 158.24583 24.643763 158.71458Q25.206263 159.18333 26.440638 159.18333ZM29.550013 148.80833L28.628138 148.80833Q29.690638 149.54271 29.690638 150.79271Q29.690638 151.33958 29.487513 151.82396Q29.268763 152.29271 28.956263 152.52708Q28.628138 152.76146 28.159388 152.85521Q27.862513 152.91771 27.175013 152.91771L23.331263 152.91771L23.331263 151.85521L26.784388 151.85521Q27.596888 151.85521 27.893763 151.79271Q28.300013 151.69896 28.550013 151.38646Q28.784388 151.05833 28.784388 150.57396Q28.784388 150.10521 28.550013 149.69896Q28.300013 149.27708 27.878138 149.10521Q27.456263 148.91771 26.659388 148.91771L23.331263 148.91771L23.331263 147.87083L29.550013 147.87083L29.550013 148.80833ZM31.940638 145.88646L23.331263 145.88646L23.331263 144.93333L24.128138 144.93333Q23.659388 144.58958 23.425013 144.16771Q23.190638 143.73021 23.190638 143.12083Q23.190638 142.32396 23.596888 141.71458Q24.003138 141.10521 24.753138 140.80833Q25.503138 140.49583 26.393763 140.49583Q27.346888 140.49583 28.112513 140.83958Q28.878138 141.16771 29.284388 141.82396Q29.690638 142.48021 29.690638 143.19896Q29.690638 143.73021 29.471888 144.15208Q29.237513 144.57396 28.909388 144.83958L31.940638 144.83958L31.940638 145.88646ZM26.471888 144.93333Q27.675013 144.93333 28.253138 144.44896Q28.815638 143.96458 28.815638 143.27708Q28.815638 142.57396 28.221888 142.07396Q27.628138 141.57396 26.378138 141.57396Q25.190638 141.57396 24.612513 142.05833Q24.018763 142.54271 24.018763 143.23021Q24.018763 143.90208 24.643763 144.41771Q25.268763 144.93333 26.471888 144.93333Z" fill-rule="nonzero"/><path fill="#000000" d="M55.05 300.21564Q55.05 298.6844 55.3625 297.7625Q55.675 296.825 56.284374 296.325Q56.909374 295.825 57.846874 295.825Q58.534374 295.825 59.05 296.10626Q59.58125 296.3875 59.925 296.91876Q60.26875 297.4344 60.45625 298.1844Q60.64375 298.9344 60.64375 300.21564Q60.64375 301.73126 60.33125 302.65314Q60.034374 303.575 59.409374 304.09064Q58.8 304.59064 57.846874 304.59064Q56.6125 304.59064 55.89375 303.7Q55.05 302.6375 55.05 300.21564ZM56.128124 300.21564Q56.128124 302.325 56.628124 303.02814Q57.128124 303.73126 57.846874 303.73126Q58.58125 303.73126 59.065624 303.02814Q59.565624 302.325 59.565624 300.21564Q59.565624 298.09064 59.065624 297.40314Q58.58125 296.7 57.83125 296.7Q57.1125 296.7 56.675 297.3094Q56.128124 298.09064 56.128124 300.21564ZM62.64375 304.45L62.64375 303.2469L63.846874 303.2469L63.846874 304.45L62.64375 304.45ZM65.05 300.21564Q65.05 298.6844 65.3625 297.7625Q65.675 296.825 66.28438 296.325Q66.90938 295.825 67.84688 295.825Q68.53438 295.825 69.05 296.10626Q69.58125 296.3875 69.925 296.91876Q70.26875 297.4344 70.45625 298.1844Q70.64375 298.9344 70.64375 300.21564Q70.64375 301.73126 70.33125 302.65314Q70.03438 303.575 69.40938 304.09064Q68.8 304.59064 67.84688 304.59064Q66.6125 304.59064 65.89375 303.7Q65.05 302.6375 65.05 300.21564ZM66.12813 300.21564Q66.12813 302.325 66.62813 303.02814Q67.12813 303.73126 67.84688 303.73126Q68.58125 303.73126 69.06563 303.02814Q69.56563 302.325 69.56563 300.21564Q69.56563 298.09064 69.06563 297.40314Q68.58125 296.7 67.83125 296.7Q67.1125 296.7 66.675 297.3094Q66.12813 298.09064 66.12813 300.21564Z" fill-rule="nonzero"/><path fill="#000000" d="M55.05 252.50897Q55.05 250.97772 55.3625 250.05585Q55.675 249.11835 56.284374 248.61835Q56.909374 248.11835 57.846874 248.11835Q58.534374 248.11835 59.05 248.3996Q59.58125 248.68085 59.925 249.2121Q60.26875 249.72772 60.45625 250.47772Q60.64375 251.22772 60.64375 252.50897Q60.64375 254.0246 60.33125 254.94647Q60.034374 255.86835 59.409374 256.38397Q58.8 256.88397 57.846874 256.88397Q56.6125 256.88397 55.89375 255.99335Q55.05 254.93085 55.05 252.50897ZM56.128124 252.50897Q56.128124 254.61835 56.628124 255.32147Q57.128124 256.0246 57.846874 256.0246Q58.58125 256.0246 59.065624 255.32147Q59.565624 254.61835 59.565624 252.50897Q59.565624 250.38397 59.065624 249.69647Q58.58125 248.99335 57.83125 248.99335Q57.1125 248.99335 56.675 249.60272Q56.128124 250.38397 56.128124 252.50897ZM62.64375 256.74335L62.64375 255.54022L63.846874 255.54022L63.846874 256.74335L62.64375 256.74335ZM65.05 254.49335L66.15938 254.3996Q66.28438 255.2121 66.72188 255.61835Q67.175 256.0246 67.81563 256.0246Q68.56563 256.0246 69.09688 255.44647Q69.62813 254.86835 69.62813 253.93085Q69.62813 253.0246 69.1125 252.50897Q68.6125 251.97772 67.78438 251.97772Q67.28438 251.97772 66.8625 252.2121Q66.45625 252.44647 66.22188 252.80585L65.2375 252.68085L66.06563 248.2746L70.34688 248.2746L70.34688 249.2746L66.90938 249.2746L66.45625 251.5871Q67.22188 251.04022 68.06563 251.04022Q69.19063 251.04022 69.95625 251.82147Q70.7375 252.60272 70.7375 253.8371Q70.7375 254.99335 70.06563 255.85272Q69.2375 256.88397 67.81563 256.88397Q66.64375 256.88397 65.89375 256.22772Q65.15938 255.57147 65.05 254.49335Z" fill-rule="nonzero"/><path fill="#000000" d="M59.01875 209.03667L57.971874 209.03667L57.971874 202.31792Q57.58125 202.67729 56.95625 203.05229Q56.346874 203.41167 55.8625 203.58354L55.8625 202.56792Q56.7375 202.14604 57.39375 201.56792Q58.065624 200.97417 58.346874 200.41167L59.01875 200.41167L59.01875 209.03667ZM62.64375 209.03667L62.64375 207.83354L63.846874 207.83354L63.846874 209.03667L62.64375 209.03667ZM65.05 204.80229Q65.05 203.27104 65.3625 202.34917Q65.675 201.41167 66.28438 200.91167Q66.90938 200.41167 67.84688 200.41167Q68.53438 200.41167 69.05 200.69292Q69.58125 200.97417 69.925 201.50542Q70.26875 202.02104 70.45625 202.77104Q70.64375 203.52104 70.64375 204.80229Q70.64375 206.31792 70.33125 207.23979Q70.03438 208.16167 69.40938 208.67729Q68.8 209.17729 67.84688 209.17729Q66.6125 209.17729 65.89375 208.28667Q65.05 207.22417 65.05 204.80229ZM66.12813 204.80229Q66.12813 206.91167 66.62813 207.61479Q67.12813 208.31792 67.84688 208.31792Q68.58125 208.31792 69.06563 207.61479Q69.56563 206.91167 69.56563 204.80229Q69.56563 202.67729 69.06563 201.98979Q68.58125 201.28667 67.83125 201.28667Q67.1125 201.28667 66.675 201.89604Q66.12813 202.67729 66.12813 204.80229Z" fill-rule="nonzero"/><path fill="#000000" d="M59.01875 161.33L57.971874 161.33L57.971874 154.61125Q57.58125 154.97063 56.95625 155.34563Q56.346874 155.705 55.8625 155.87688L55.8625 154.86125Q56.7375 154.43938 57.39375 153.86125Q58.065624 153.2675 58.346874 152.705L59.01875 152.705L59.01875 161.33ZM62.64375 161.33L62.64375 160.12688L63.846874 160.12688L63.846874 161.33L62.64375 161.33ZM65.05 159.08L66.15938 158.98625Q66.28438 159.79875 66.72188 160.205Q67.175 160.61125 67.81563 160.61125Q68.56563 160.61125 69.09688 160.03313Q69.62813 159.455 69.62813 158.5175Q69.62813 157.61125 69.1125 157.09563Q68.6125 156.56438 67.78438 156.56438Q67.28438 156.56438 66.8625 156.79875Q66.45625 157.03313 66.22188 157.3925L65.2375 157.2675L66.06563 152.86125L70.34688 152.86125L70.34688 153.86125L66.90938 153.86125L66.45625 156.17375Q67.22188 155.62688 68.06563 155.62688Q69.19063 155.62688 69.95625 156.40813Q70.7375 157.18938 70.7375 158.42375Q70.7375 159.58 70.06563 160.43938Q69.2375 161.47063 67.81563 161.47063Q66.64375 161.47063 65.89375 160.81438Q65.15938 160.15813 65.05 159.08Z" fill-rule="nonzero"/><path fill="#000000" d="M60.596874 112.60771L60.596874 113.62334L54.909374 113.62334Q54.909374 113.24834 55.034374 112.88896Q55.253124 112.31084 55.721874 111.74834Q56.20625 111.18584 57.1125 110.45146Q58.51875 109.29521 59.003124 108.62334Q59.503124 107.95146 59.503124 107.35771Q59.503124 106.73271 59.05 106.31084Q58.596874 105.87334 57.878124 105.87334Q57.1125 105.87334 56.659374 106.32646Q56.20625 106.77959 56.190624 107.59209L55.1125 107.48271Q55.221874 106.26396 55.940624 105.63896Q56.675 104.99834 57.909374 104.99834Q59.14375 104.99834 59.8625 105.68584Q60.58125 106.37334 60.58125 107.38896Q60.58125 107.90459 60.3625 108.40459Q60.159374 108.88896 59.659374 109.45146Q59.175 109.99834 58.05 110.95146Q57.096874 111.74834 56.815624 112.04521Q56.55 112.32646 56.378124 112.60771L60.596874 112.60771ZM62.64375 113.62334L62.64375 112.42021L63.846874 112.42021L63.846874 113.62334L62.64375 113.62334ZM65.05 109.38896Q65.05 107.85771 65.3625 106.93584Q65.675 105.99834 66.28438 105.49834Q66.90938 104.99834 67.84688 104.99834Q68.53438 104.99834 69.05 105.27959Q69.58125 105.56084 69.925 106.09209Q70.26875 106.60771 70.45625 107.35771Q70.64375 108.10771 70.64375 109.38896Q70.64375 110.90459 70.33125 111.82646Q70.03438 112.74834 69.40938 113.26396Q68.8 113.76396 67.84688 113.76396Q66.6125 113.76396 65.89375 112.87334Q65.05 111.81084 65.05 109.38896ZM66.12813 109.38896Q66.12813 111.49834 66.62813 112.20146Q67.12813 112.90459 67.84688 112.90459Q68.58125 112.90459 69.06563 112.20146Q69.56563 111.49834 69.56563 109.38896Q69.56563 107.26396 69.06563 106.57646Q68.58125 105.87334 67.83125 105.87334Q67.1125 105.87334 66.675 106.48271Q66.12813 107.26396 66.12813 109.38896Z" fill-rule="nonzero"/><path fill="#000000" d="M60.596874 64.90104L60.596874 65.916664L54.909374 65.916664Q54.909374 65.541664 55.034374 65.18229Q55.253124 64.604164 55.721874 64.041664Q56.20625 63.479164 57.1125 62.74479Q58.51875 61.58854 59.003124 60.916664Q59.503124 60.24479 59.503124 59.65104Q59.503124 59.02604 59.05 58.604164Q58.596874 58.166664 57.878124 58.166664Q57.1125 58.166664 56.659374 58.61979Q56.20625 59.072914 56.190624 59.885414L55.1125 59.77604Q55.221874 58.55729 55.940624 57.93229Q56.675 57.291664 57.909374 57.291664Q59.14375 57.291664 59.8625 57.979164Q60.58125 58.666664 60.58125 59.68229Q60.58125 60.197914 60.3625 60.697914Q60.159374 61.18229 59.659374 61.74479Q59.175 62.291664 58.05 63.24479Q57.096874 64.041664 56.815624 64.33854Q56.55 64.61979 56.378124 64.90104L60.596874 64.90104ZM62.64375 65.916664L62.64375 64.71354L63.846874 64.71354L63.846874 65.916664L62.64375 65.916664ZM65.05 63.666664L66.15938 63.572914Q66.28438 64.385414 66.72188 64.791664Q67.175 65.197914 67.81563 65.197914Q68.56563 65.197914 69.09688 64.61979Q69.62813 64.041664 69.62813 63.104164Q69.62813 62.197914 69.1125 61.68229Q68.6125 61.15104 67.78438 61.15104Q67.28438 61.15104 66.8625 61.385414Q66.45625 61.61979 66.22188 61.979164L65.2375 61.854164L66.06563 57.447914L70.34688 57.447914L70.34688 58.447914L66.90938 58.447914L66.45625 60.760414Q67.22188 60.21354 68.06563 60.21354Q69.19063 60.21354 69.95625 60.99479Q70.7375 61.77604 70.7375 63.010414Q70.7375 64.166664 70.06563 65.02604Q69.2375 66.05729 67.81563 66.05729Q66.64375 66.05729 65.89375 65.40104Q65.15938 64.74479 65.05 63.666664Z" fill-rule="nonzero"/><path fill="#000000" d="M151.28825 316.4344L151.28825 317.45L145.60075 317.45Q145.60075 317.075 145.72575 316.71564Q145.9445 316.1375 146.41325 315.575Q146.89763 315.0125 147.80388 314.27814Q149.21013 313.1219 149.6945 312.45Q150.1945 311.77814 150.1945 311.1844Q150.1945 310.5594 149.74138 310.1375Q149.28825 309.7 148.5695 309.7Q147.80388 309.7 147.35075 310.15314Q146.89763 310.60626 146.882 311.41876L145.80388 311.3094Q145.91325 310.09064 146.632 309.46564Q147.36638 308.825 148.60075 308.825Q149.83513 308.825 150.55388 309.5125Q151.27263 310.2 151.27263 311.21564Q151.27263 311.73126 151.05388 312.23126Q150.85075 312.71564 150.35075 313.27814Q149.86638 313.825 148.74138 314.77814Q147.78825 315.575 147.507 315.8719Q147.24138 316.15314 147.0695 316.4344L151.28825 316.4344ZM152.74138 315.2L153.85075 315.10626Q153.97575 315.91876 154.41325 316.325Q154.86638 316.73126 155.507 316.73126Q156.257 316.73126 156.78825 316.15314Q157.3195 315.575 157.3195 314.6375Q157.3195 313.73126 156.80388 313.21564Q156.30388 312.6844 155.47575 312.6844Q154.97575 312.6844 154.55388 312.91876Q154.14763 313.15314 153.91325 313.5125L152.92888 313.3875L153.757 308.98126L158.03825 308.98126L158.03825 309.98126L154.60075 309.98126L154.14763 312.29376Q154.91325 311.7469 155.757 311.7469Q156.882 311.7469 157.64763 312.52814Q158.42888 313.3094 158.42888 314.54376Q158.42888 315.7 157.757 316.5594Q156.92888 317.59064 155.507 317.59064Q154.33513 317.59064 153.58513 316.9344Q152.85075 316.27814 152.74138 315.2ZM165.21013 310.96564L164.16325 311.04376Q164.02263 310.41876 163.77263 310.1375Q163.33513 309.6844 162.71013 309.6844Q162.21013 309.6844 161.8195 309.96564Q161.33513 310.34064 161.03825 311.04376Q160.757 311.73126 160.74138 313.0125Q161.11638 312.4344 161.66325 312.15314Q162.22575 311.8719 162.83513 311.8719Q163.882 311.8719 164.61638 312.65314Q165.36638 313.4344 165.36638 314.65314Q165.36638 315.46564 165.007 316.16876Q164.66325 316.85626 164.05388 317.23126Q163.4445 317.59064 162.67888 317.59064Q161.35075 317.59064 160.52263 316.6219Q159.6945 315.65314 159.6945 313.4344Q159.6945 310.9344 160.61638 309.8094Q161.41325 308.825 162.77263 308.825Q163.78825 308.825 164.42888 309.40314Q165.08513 309.96564 165.21013 310.96564ZM160.91325 314.66876Q160.91325 315.21564 161.132 315.71564Q161.36638 316.2 161.77263 316.46564Q162.1945 316.73126 162.66325 316.73126Q163.3195 316.73126 163.80388 316.2Q164.28825 315.65314 164.28825 314.73126Q164.28825 313.84064 163.80388 313.325Q163.33513 312.8094 162.61638 312.8094Q161.89763 312.8094 161.39763 313.325Q160.91325 313.84064 160.91325 314.66876Z" fill-rule="nonzero"/><path fill="#000000" d="M261.58047 315.2L262.68985 315.10626Q262.81485 315.91876 263.25235 316.325Q263.70547 316.73126 264.3461 316.73126Q265.0961 316.73126 265.62735 316.15314Q266.1586 315.575 266.1586 314.6375Q266.1586 313.73126 265.64297 313.21564Q265.14297 312.6844 264.31485 312.6844Q263.81485 312.6844 263.39297 312.91876Q262.98672 313.15314 262.75235 313.5125L261.76797 313.3875L262.5961 308.98126L266.87735 308.98126L266.87735 309.98126L263.43985 309.98126L262.98672 312.29376Q263.75235 311.7469 264.5961 311.7469Q265.7211 311.7469 266.48672 312.52814Q267.26797 313.3094 267.26797 314.54376Q267.26797 315.7 266.5961 316.5594Q265.76797 317.59064 264.3461 317.59064Q263.17422 317.59064 262.42422 316.9344Q261.68985 316.27814 261.58047 315.2ZM272.54922 317.45L271.50235 317.45L271.50235 310.73126Q271.11172 311.09064 270.48672 311.46564Q269.87735 311.825 269.39297 311.9969L269.39297 310.98126Q270.26797 310.5594 270.92422 309.98126Q271.5961 309.3875 271.87735 308.825L272.54922 308.825L272.54922 317.45ZM281.12735 316.4344L281.12735 317.45L275.43985 317.45Q275.43985 317.075 275.56485 316.71564Q275.7836 316.1375 276.25235 315.575Q276.73672 315.0125 277.64297 314.27814Q279.04922 313.1219 279.5336 312.45Q280.0336 311.77814 280.0336 311.1844Q280.0336 310.5594 279.58047 310.1375Q279.12735 309.7 278.4086 309.7Q277.64297 309.7 277.18985 310.15314Q276.73672 310.60626 276.7211 311.41876L275.64297 311.3094Q275.75235 310.09064 276.4711 309.46564Q277.20547 308.825 278.43985 308.825Q279.67422 308.825 280.39297 309.5125Q281.11172 310.2 281.11172 311.21564Q281.11172 311.73126 280.89297 312.23126Q280.68985 312.71564 280.18985 313.27814Q279.70547 313.825 278.58047 314.77814Q277.62735 315.575 277.3461 315.8719Q277.08047 316.15314 276.9086 316.4344L281.12735 316.4344Z" fill-rule="nonzero"/><path fill="#000000" d="M377.88828 317.45L376.8414 317.45L376.8414 310.73126Q376.45078 311.09064 375.82578 311.46564Q375.2164 311.825 374.73203 311.9969L374.73203 310.98126Q375.60703 310.5594 376.26328 309.98126Q376.93515 309.3875 377.2164 308.825L377.88828 308.825L377.88828 317.45ZM380.91953 313.21564Q380.91953 311.6844 381.23203 310.7625Q381.54453 309.825 382.1539 309.325Q382.7789 308.825 383.7164 308.825Q384.4039 308.825 384.91953 309.10626Q385.45078 309.3875 385.79453 309.91876Q386.13828 310.4344 386.32578 311.1844Q386.51328 311.9344 386.51328 313.21564Q386.51328 314.73126 386.20078 315.65314Q385.9039 316.575 385.2789 317.09064Q384.66953 317.59064 383.7164 317.59064Q382.48203 317.59064 381.76328 316.7Q380.91953 315.6375 380.91953 313.21564ZM381.99765 313.21564Q381.99765 315.325 382.49765 316.02814Q382.99765 316.73126 383.7164 316.73126Q384.45078 316.73126 384.93515 316.02814Q385.43515 315.325 385.43515 313.21564Q385.43515 311.09064 384.93515 310.40314Q384.45078 309.7 383.70078 309.7Q382.98203 309.7 382.54453 310.3094Q381.99765 311.09064 381.99765 313.21564ZM393.4664 316.4344L393.4664 317.45L387.7789 317.45Q387.7789 317.075 387.9039 316.71564Q388.12265 316.1375 388.5914 315.575Q389.07578 315.0125 389.98203 314.27814Q391.38828 313.1219 391.87265 312.45Q392.37265 311.77814 392.37265 311.1844Q392.37265 310.5594 391.91953 310.1375Q391.4664 309.7 390.74765 309.7Q389.98203 309.7 389.5289 310.15314Q389.07578 310.60626 389.06015 311.41876L387.98203 311.3094Q388.0914 310.09064 388.81015 309.46564Q389.54453 308.825 390.7789 308.825Q392.01328 308.825 392.73203 309.5125Q393.45078 310.2 393.45078 311.21564Q393.45078 311.73126 393.23203 312.23126Q393.0289 312.71564 392.5289 313.27814Q392.04453 313.825 390.91953 314.77814Q389.9664 315.575 389.68515 315.8719Q389.41953 316.15314 389.24765 316.4344L393.4664 316.4344ZM398.29453 317.45L398.29453 315.3875L394.57578 315.3875L394.57578 314.41876L398.49765 308.85626L399.35703 308.85626L399.35703 314.41876L400.51328 314.41876L400.51328 315.3875L399.35703 315.3875L399.35703 317.45L398.29453 317.45ZM398.29453 314.41876L398.29453 310.5594L395.60703 314.41876L398.29453 314.41876Z" fill-rule="nonzero"/><path fill="#000000" d="M495.30548 316.4344L495.30548 317.45L489.61798 317.45Q489.61798 317.075 489.74298 316.71564Q489.96173 316.1375 490.43048 315.575Q490.91486 315.0125 491.8211 314.27814Q493.22736 313.1219 493.71173 312.45Q494.21173 311.77814 494.21173 311.1844Q494.21173 310.5594 493.7586 310.1375Q493.30548 309.7 492.58673 309.7Q491.8211 309.7 491.36798 310.15314Q490.91486 310.60626 490.89923 311.41876L489.8211 311.3094Q489.93048 310.09064 490.64923 309.46564Q491.3836 308.825 492.61798 308.825Q493.85236 308.825 494.5711 309.5125Q495.28986 310.2 495.28986 311.21564Q495.28986 311.73126 495.0711 312.23126Q494.86798 312.71564 494.36798 313.27814Q493.8836 313.825 492.7586 314.77814Q491.80548 315.575 491.52423 315.8719Q491.2586 316.15314 491.08673 316.4344L495.30548 316.4344ZM496.7586 313.21564Q496.7586 311.6844 497.0711 310.7625Q497.3836 309.825 497.99298 309.325Q498.61798 308.825 499.55548 308.825Q500.24298 308.825 500.7586 309.10626Q501.28986 309.3875 501.6336 309.91876Q501.97736 310.4344 502.16486 311.1844Q502.35236 311.9344 502.35236 313.21564Q502.35236 314.73126 502.03986 315.65314Q501.74298 316.575 501.11798 317.09064Q500.5086 317.59064 499.55548 317.59064Q498.3211 317.59064 497.60236 316.7Q496.7586 315.6375 496.7586 313.21564ZM497.83673 313.21564Q497.83673 315.325 498.33673 316.02814Q498.83673 316.73126 499.55548 316.73126Q500.28986 316.73126 500.77423 316.02814Q501.27423 315.325 501.27423 313.21564Q501.27423 311.09064 500.77423 310.40314Q500.28986 309.7 499.53986 309.7Q498.8211 309.7 498.3836 310.3094Q497.83673 311.09064 497.83673 313.21564ZM507.1336 317.45L507.1336 315.3875L503.41486 315.3875L503.41486 314.41876L507.33673 308.85626L508.1961 308.85626L508.1961 314.41876L509.35236 314.41876L509.35236 315.3875L508.1961 315.3875L508.1961 317.45L507.1336 317.45ZM507.1336 314.41876L507.1336 310.5594L504.4461 314.41876L507.1336 314.41876ZM512.3836 312.79376Q511.72736 312.54376 511.39923 312.10626Q511.08673 311.65314 511.08673 311.04376Q511.08673 310.10626 511.7586 309.46564Q512.4461 308.825 513.5555 308.825Q514.6805 308.825 515.368 309.48126Q516.0555 310.1375 516.0555 311.075Q516.0555 311.66876 515.743 312.10626Q515.4305 312.54376 514.78986 312.79376Q515.58673 313.04376 515.993 313.6219Q516.39923 314.2 516.39923 314.9969Q516.39923 316.09064 515.618 316.84064Q514.85236 317.59064 513.5711 317.59064Q512.3055 317.59064 511.52423 316.84064Q510.74298 316.09064 510.74298 314.96564Q510.74298 314.1219 511.16486 313.5594Q511.60236 312.9969 512.3836 312.79376ZM512.16486 310.9969Q512.16486 311.60626 512.5555 311.9969Q512.96173 312.3875 513.58673 312.3875Q514.1961 312.3875 514.58673 312.0125Q514.97736 311.6219 514.97736 311.0594Q514.97736 310.48126 514.5711 310.09064Q514.16486 309.6844 513.5711 309.6844Q512.96173 309.6844 512.5555 310.075Q512.16486 310.46564 512.16486 310.9969ZM511.83673 314.96564Q511.83673 315.41876 512.03986 315.84064Q512.2586 316.2625 512.6805 316.4969Q513.10236 316.73126 513.58673 316.73126Q514.33673 316.73126 514.8211 316.2469Q515.3211 315.7625 515.3211 315.0125Q515.3211 314.2469 514.8211 313.7469Q514.3211 313.2469 513.5555 313.2469Q512.8055 313.2469 512.3211 313.7469Q511.83673 314.23126 511.83673 314.96564Z" fill-rule="nonzero"/><path fill="#757575" d="M23.221874 41.753124Q21.76875 39.925 20.76875 37.471874Q19.76875 35.003124 19.76875 32.3625Q19.76875 30.034374 20.51875 27.909374Q21.39375 25.440624 23.221874 22.9875L24.4875 22.9875Q23.3 25.01875 22.925 25.89375Q22.33125 27.2375 21.9875 28.70625Q21.565624 30.534374 21.565624 32.378124Q21.565624 37.065624 24.4875 41.753124L23.221874 41.753124ZM27.409374 37.55L27.409374 23.2375L29.315624 23.2375L29.315624 37.55L27.409374 37.55ZM33.01875 37.55L33.01875 23.2375L34.909374 23.2375L34.909374 30.33125L42.01875 23.2375L44.58125 23.2375L38.58125 29.034374L44.846874 37.55L42.346874 37.55L37.253124 30.3L34.909374 32.58125L34.909374 37.55L33.01875 37.55ZM45.128124 33.4875L46.83125 33.253124Q46.909374 34.89375 47.45625 35.503124Q48.003124 36.096874 48.971874 36.096874Q49.675 36.096874 50.190624 35.784374Q50.70625 35.45625 50.89375 34.89375Q51.096874 34.33125 51.096874 33.096874L51.096874 23.2375L53.003124 23.2375L53.003124 32.9875Q53.003124 34.784374 52.565624 35.76875Q52.128124 36.753124 51.175 37.284374Q50.2375 37.8 48.971874 37.8Q47.096874 37.8 46.08125 36.721874Q45.08125 35.628124 45.128124 33.4875ZM57.01875 41.753124L55.76875 41.753124Q58.675 37.065624 58.675 32.378124Q58.675 30.534374 58.26875 28.7375Q57.925 27.26875 57.33125 25.925Q56.95625 25.034374 55.76875 22.9875L57.01875 22.9875Q58.8625 25.440624 59.7375 27.909374Q60.4875 30.034374 60.4875 32.3625Q60.4875 35.003124 59.471874 37.471874Q58.471874 39.925 57.01875 41.753124ZM75.64375 36.26875Q74.65938 37.096874 73.75313 37.440624Q72.84688 37.784374 71.81563 37.784374Q70.1125 37.784374 69.19063 36.95625Q68.26875 36.1125 68.26875 34.815624Q68.26875 34.05 68.6125 33.425Q68.97188 32.8 69.53438 32.425Q70.09688 32.034374 70.8 31.83125Q71.31563 31.70625 72.3625 31.565624Q74.4875 31.315624 75.4875 30.971874Q75.50313 30.6125 75.50313 30.503124Q75.50313 29.440624 75.00313 28.9875Q74.33125 28.39375 73.00313 28.39375Q71.75313 28.39375 71.15938 28.83125Q70.58125 29.26875 70.3 30.378124L68.58125 30.14375Q68.81563 29.034374 69.34688 28.3625Q69.87813 27.675 70.89375 27.315624Q71.90938 26.940624 73.25313 26.940624Q74.58125 26.940624 75.40938 27.253124Q76.2375 27.565624 76.62813 28.05Q77.01875 28.51875 77.175 29.2375Q77.26875 29.690624 77.26875 30.8625L77.26875 33.20625Q77.26875 35.659374 77.37813 36.315624Q77.4875 36.95625 77.83125 37.55L75.9875 37.55Q75.72188 37.003124 75.64375 36.26875ZM75.4875 32.346874Q74.53438 32.7375 72.6125 33.003124Q71.53438 33.159374 71.08125 33.3625Q70.64375 33.55 70.39375 33.925Q70.14375 34.3 70.14375 34.76875Q70.14375 35.471874 70.675 35.940624Q71.20625 36.409374 72.2375 36.409374Q73.25313 36.409374 74.03438 35.971874Q74.83125 35.51875 75.20625 34.753124Q75.4875 34.14375 75.4875 32.9875L75.4875 32.346874ZM82.75313 37.55L78.8 27.175L80.65938 27.175L82.89375 33.39375Q83.25313 34.39375 83.55 35.471874Q83.78438 34.659374 84.20625 33.503124L86.50313 27.175L88.31563 27.175L84.39375 37.55L82.75313 37.55ZM95.97188 34.20625L97.78438 34.440624Q97.3625 36.01875 96.19063 36.909374Q95.03438 37.784374 93.22188 37.784374Q90.95625 37.784374 89.6125 36.39375Q88.28438 34.9875 88.28438 32.45625Q88.28438 29.83125 89.62813 28.39375Q90.97188 26.940624 93.12813 26.940624Q95.20625 26.940624 96.51875 28.3625Q97.84688 29.76875 97.84688 32.346874Q97.84688 32.503124 97.83125 32.815624L90.09688 32.815624Q90.19063 34.51875 91.06563 35.425Q91.94063 36.33125 93.2375 36.33125Q94.20625 36.33125 94.87813 35.83125Q95.56563 35.315624 95.97188 34.20625ZM90.19063 31.3625L95.9875 31.3625Q95.87813 30.065624 95.33125 29.409374Q94.4875 28.39375 93.14375 28.39375Q91.94063 28.39375 91.1125 29.20625Q90.28438 30.003124 90.19063 31.3625ZM99.84688 37.55L99.84688 27.175L101.425 27.175L101.425 28.753124Q102.03438 27.64375 102.55 27.3Q103.06563 26.940624 103.675 26.940624Q104.56563 26.940624 105.4875 27.503124L104.87813 29.14375Q104.2375 28.753124 103.59688 28.753124Q103.01875 28.753124 102.55 29.1125Q102.09688 29.45625 101.89375 30.065624Q101.6125 31.003124 101.6125 32.1125L101.6125 37.55L99.84688 37.55ZM113.64375 36.26875Q112.65938 37.096874 111.75313 37.440624Q110.84688 37.784374 109.81563 37.784374Q108.1125 37.784374 107.19063 36.95625Q106.26875 36.1125 106.26875 34.815624Q106.26875 34.05 106.6125 33.425Q106.97188 32.8 107.53438 32.425Q108.09688 32.034374 108.8 31.83125Q109.31563 31.70625 110.3625 31.565624Q112.4875 31.315624 113.4875 30.971874Q113.50313 30.6125 113.50313 30.503124Q113.50313 29.440624 113.00313 28.9875Q112.33125 28.39375 111.00313 28.39375Q109.75313 28.39375 109.15938 28.83125Q108.58125 29.26875 108.3 30.378124L106.58125 30.14375Q106.81563 29.034374 107.34688 28.3625Q107.87813 27.675 108.89375 27.315624Q109.90938 26.940624 111.25313 26.940624Q112.58125 26.940624 113.40938 27.253124Q114.2375 27.565624 114.62813 28.05Q115.01875 28.51875 115.175 29.2375Q115.26875 29.690624 115.26875 30.8625L115.26875 33.20625Q115.26875 35.659374 115.37813 36.315624Q115.4875 36.95625 115.83125 37.55L113.9875 37.55Q113.72188 37.003124 113.64375 36.26875ZM113.4875 32.346874Q112.53438 32.7375 110.6125 33.003124Q109.53438 33.159374 109.08125 33.3625Q108.64375 33.55 108.39375 33.925Q108.14375 34.3 108.14375 34.76875Q108.14375 35.471874 108.675 35.940624Q109.20625 36.409374 110.2375 36.409374Q111.25313 36.409374 112.03438 35.971874Q112.83125 35.51875 113.20625 34.753124Q113.4875 34.14375 113.4875 32.9875L113.4875 32.346874ZM117.55 38.409374L119.25313 38.659374Q119.3625 39.45625 119.84688 39.815624Q120.50313 40.3 121.64375 40.3Q122.8625 40.3 123.51875 39.815624Q124.19063 39.33125 124.425 38.45625Q124.56563 37.909374 124.55 36.190624Q123.39375 37.55 121.675 37.55Q119.53438 37.55 118.3625 36.003124Q117.19063 34.45625 117.19063 32.3Q117.19063 30.815624 117.72188 29.565624Q118.26875 28.315624 119.28438 27.628124Q120.31563 26.940624 121.69063 26.940624Q123.51875 26.940624 124.72188 28.425L124.72188 27.175L126.33125 27.175L126.33125 36.14375Q126.33125 38.565624 125.83125 39.565624Q125.34688 40.58125 124.26875 41.159374Q123.20625 41.753124 121.64375 41.753124Q119.8 41.753124 118.64375 40.925Q117.50313 40.096874 117.55 38.409374ZM119.00313 32.175Q119.00313 34.221874 119.81563 35.159374Q120.62813 36.096874 121.84688 36.096874Q123.05 36.096874 123.8625 35.159374Q124.69063 34.221874 124.69063 32.2375Q124.69063 30.33125 123.84688 29.3625Q123.00313 28.39375 121.81563 28.39375Q120.64375 28.39375 119.81563 29.346874Q119.00313 30.3 119.00313 32.175ZM135.97188 34.20625L137.78438 34.440624Q137.3625 36.01875 136.19063 36.909374Q135.03438 37.784374 133.22188 37.784374Q130.95625 37.784374 129.6125 36.39375Q128.28438 34.9875 128.28438 32.45625Q128.28438 29.83125 129.62813 28.39375Q130.97188 26.940624 133.12813 26.940624Q135.20625 26.940624 136.51875 28.3625Q137.84688 29.76875 137.84688 32.346874Q137.84688 32.503124 137.83125 32.815624L130.09688 32.815624Q130.19063 34.51875 131.06563 35.425Q131.94063 36.33125 133.2375 36.33125Q134.20625 36.33125 134.87813 35.83125Q135.56563 35.315624 135.97188 34.20625ZM130.19063 31.3625L135.9875 31.3625Q135.87813 30.065624 135.33125 29.409374Q134.4875 28.39375 133.14375 28.39375Q131.94063 28.39375 131.1125 29.20625Q130.28438 30.003124 130.19063 31.3625ZM145.15938 34.45625L146.90938 34.175Q147.05 35.221874 147.72188 35.784374Q148.39375 36.33125 149.59688 36.33125Q150.8 36.33125 151.37813 35.846874Q151.97188 35.346874 151.97188 34.690624Q151.97188 34.096874 151.45625 33.753124Q151.09688 33.51875 149.65938 33.159374Q147.72188 32.659374 146.97188 32.315624Q146.2375 31.95625 145.84688 31.33125Q145.45625 30.690624 145.45625 29.925Q145.45625 29.2375 145.76875 28.64375Q146.09688 28.05 146.64375 27.659374Q147.05 27.3625 147.75313 27.159374Q148.47188 26.940624 149.28438 26.940624Q150.50313 26.940624 151.425 27.3Q152.34688 27.64375 152.78438 28.253124Q153.22188 28.846874 153.39375 29.846874L151.675 30.08125Q151.55 29.284374 150.9875 28.846874Q150.425 28.39375 149.40938 28.39375Q148.19063 28.39375 147.675 28.8Q147.15938 29.190624 147.15938 29.721874Q147.15938 30.065624 147.37813 30.346874Q147.58125 30.628124 148.05 30.815624Q148.31563 30.909374 149.59688 31.253124Q151.47188 31.753124 152.20625 32.08125Q152.94063 32.39375 153.3625 33.003124Q153.78438 33.596874 153.78438 34.503124Q153.78438 35.378124 153.26875 36.159374Q152.75313 36.940624 151.78438 37.3625Q150.81563 37.784374 149.59688 37.784374Q147.58125 37.784374 146.51875 36.940624Q145.45625 36.096874 145.15938 34.45625ZM155.8625 41.51875L155.8625 27.175L157.47188 27.175L157.47188 28.51875Q158.03438 27.7375 158.7375 27.346874Q159.45625 26.940624 160.47188 26.940624Q161.8 26.940624 162.81563 27.628124Q163.83125 28.315624 164.34688 29.565624Q164.87813 30.8 164.87813 32.284374Q164.87813 33.878124 164.3 35.159374Q163.7375 36.425 162.64375 37.1125Q161.55 37.784374 160.34688 37.784374Q159.47188 37.784374 158.76875 37.409374Q158.08125 37.034374 157.62813 36.471874L157.62813 41.51875L155.8625 41.51875ZM157.45625 32.425Q157.45625 34.425 158.26875 35.378124Q159.08125 36.33125 160.2375 36.33125Q161.40938 36.33125 162.2375 35.346874Q163.08125 34.3625 163.08125 32.26875Q163.08125 30.3 162.25313 29.315624Q161.44063 28.315624 160.31563 28.315624Q159.19063 28.315624 158.31563 29.378124Q157.45625 30.425 157.45625 32.425ZM173.97188 34.20625L175.78438 34.440624Q175.3625 36.01875 174.19063 36.909374Q173.03438 37.784374 171.22188 37.784374Q168.95625 37.784374 167.6125 36.39375Q166.28438 34.9875 166.28438 32.45625Q166.28438 29.83125 167.62813 28.39375Q168.97188 26.940624 171.12813 26.940624Q173.20625 26.940624 174.51875 28.3625Q175.84688 29.76875 175.84688 32.346874Q175.84688 32.503124 175.83125 32.815624L168.09688 32.815624Q168.19063 34.51875 169.06563 35.425Q169.94063 36.33125 171.2375 36.33125Q172.20625 36.33125 172.87813 35.83125Q173.56563 35.315624 173.97188 34.20625ZM168.19063 31.3625L173.9875 31.3625Q173.87813 30.065624 173.33125 29.409374Q172.4875 28.39375 171.14375 28.39375Q169.94063 28.39375 169.1125 29.20625Q168.28438 30.003124 168.19063 31.3625ZM184.97188 34.20625L186.78438 34.440624Q186.3625 36.01875 185.19063 36.909374Q184.03438 37.784374 182.22188 37.784374Q179.95625 37.784374 178.6125 36.39375Q177.28438 34.9875 177.28438 32.45625Q177.28438 29.83125 178.62813 28.39375Q179.97188 26.940624 182.12813 26.940624Q184.20625 26.940624 185.51875 28.3625Q186.84688 29.76875 186.84688 32.346874Q186.84688 32.503124 186.83125 32.815624L179.09688 32.815624Q179.19063 34.51875 180.06563 35.425Q180.94063 36.33125 182.2375 36.33125Q183.20625 36.33125 183.87813 35.83125Q184.56563 35.315624 184.97188 34.20625ZM179.19063 31.3625L184.9875 31.3625Q184.87813 30.065624 184.33125 29.409374Q183.4875 28.39375 182.14375 28.39375Q180.94063 28.39375 180.1125 29.20625Q179.28438 30.003124 179.19063 31.3625ZM195.59688 37.55L195.59688 36.2375Q194.6125 37.784374 192.69063 37.784374Q191.45625 37.784374 190.40938 37.096874Q189.37813 36.409374 188.8 35.190624Q188.2375 33.971874 188.2375 32.378124Q188.2375 30.815624 188.75313 29.55Q189.26875 28.284374 190.3 27.6125Q191.34688 26.940624 192.6125 26.940624Q193.55 26.940624 194.28438 27.346874Q195.01875 27.7375 195.4875 28.3625L195.4875 23.2375L197.22188 23.2375L197.22188 37.55L195.59688 37.55ZM190.03438 32.378124Q190.03438 34.3625 190.87813 35.346874Q191.72188 36.33125 192.8625 36.33125Q194.01875 36.33125 194.81563 35.39375Q195.62813 34.45625 195.62813 32.51875Q195.62813 30.39375 194.8 29.39375Q193.9875 28.39375 192.78438 28.39375Q191.6125 28.39375 190.81563 29.3625Q190.03438 30.315624 190.03438 32.378124ZM206.65938 37.55L206.65938 36.01875Q205.45625 37.784374 203.37813 37.784374Q202.45625 37.784374 201.65938 37.440624Q200.8625 37.08125 200.47188 36.55Q200.09688 36.01875 199.94063 35.2375Q199.83125 34.721874 199.83125 33.596874L199.83125 27.175L201.58125 27.175L201.58125 32.925Q201.58125 34.3 201.69063 34.784374Q201.8625 35.471874 202.39375 35.878124Q202.94063 36.26875 203.72188 36.26875Q204.51875 36.26875 205.20625 35.8625Q205.90938 35.45625 206.19063 34.76875Q206.4875 34.065624 206.4875 32.7375L206.4875 27.175L208.2375 27.175L208.2375 37.55L206.65938 37.55ZM209.8625 41.51875L209.8625 27.175L211.47188 27.175L211.47188 28.51875Q212.03438 27.7375 212.7375 27.346874Q213.45625 26.940624 214.47188 26.940624Q215.8 26.940624 216.81563 27.628124Q217.83125 28.315624 218.34688 29.565624Q218.87813 30.8 218.87813 32.284374Q218.87813 33.878124 218.3 35.159374Q217.7375 36.425 216.64375 37.1125Q215.55 37.784374 214.34688 37.784374Q213.47188 37.784374 212.76875 37.409374Q212.08125 37.034374 211.62813 36.471874L211.62813 41.51875L209.8625 41.51875ZM211.45625 32.425Q211.45625 34.425 212.26875 35.378124Q213.08125 36.33125 214.2375 36.33125Q215.40938 36.33125 216.2375 35.346874Q217.08125 34.3625 217.08125 32.26875Q217.08125 30.3 216.25313 29.315624Q215.44063 28.315624 214.31563 28.315624Q213.19063 28.315624 212.31563 29.378124Q211.45625 30.425 211.45625 32.425ZM229.75313 37.55L225.8 27.175L227.65938 27.175L229.89375 33.39375Q230.25313 34.39375 230.55 35.471874Q230.78438 34.659374 231.20625 33.503124L233.50313 27.175L235.31563 27.175L231.39375 37.55L229.75313 37.55ZM235.15938 34.45625L236.90938 34.175Q237.05 35.221874 237.72188 35.784374Q238.39375 36.33125 239.59688 36.33125Q240.8 36.33125 241.37813 35.846874Q241.97188 35.346874 241.97188 34.690624Q241.97188 34.096874 241.45625 33.753124Q241.09688 33.51875 239.65938 33.159374Q237.72188 32.659374 236.97188 32.315624Q236.2375 31.95625 235.84688 31.33125Q235.45625 30.690624 235.45625 29.925Q235.45625 29.2375 235.76875 28.64375Q236.09688 28.05 236.64375 27.659374Q237.05 27.3625 237.75313 27.159374Q238.47188 26.940624 239.28438 26.940624Q240.50313 26.940624 241.425 27.3Q242.34688 27.64375 242.78438 28.253124Q243.22188 28.846874 243.39375 29.846874L241.675 30.08125Q241.55 29.284374 240.9875 28.846874Q240.425 28.39375 239.40938 28.39375Q238.19063 28.39375 237.675 28.8Q237.15938 29.190624 237.15938 29.721874Q237.15938 30.065624 237.37813 30.346874Q237.58125 30.628124 238.05 30.815624Q238.31563 30.909374 239.59688 31.253124Q241.47188 31.753124 242.20625 32.08125Q242.94063 32.39375 243.3625 33.003124Q243.78438 33.596874 243.78438 34.503124Q243.78438 35.378124 243.26875 36.159374Q242.75313 36.940624 241.78438 37.3625Q240.81563 37.784374 239.59688 37.784374Q237.58125 37.784374 236.51875 36.940624Q235.45625 36.096874 235.15938 34.45625ZM251.8625 37.55L251.8625 27.175L253.44063 27.175L253.44063 28.628124Q253.925 27.878124 254.7375 27.409374Q255.55 26.940624 256.58124 26.940624Q257.7375 26.940624 258.47186 27.425Q259.20624 27.89375 259.51874 28.753124Q260.7531 26.940624 262.72186 26.940624Q264.26874 26.940624 265.09686 27.8Q265.925 28.659374 265.925 30.425L265.925 37.55L264.175 37.55L264.175 31.01875Q264.175 29.95625 264.0031 29.503124Q263.83124 29.034374 263.3781 28.753124Q262.9406 28.471874 262.33124 28.471874Q261.2375 28.471874 260.5031 29.20625Q259.78436 29.925 259.78436 31.51875L259.78436 37.55L258.03436 37.55L258.03436 30.815624Q258.03436 29.64375 257.59686 29.065624Q257.175 28.471874 256.1906 28.471874Q255.45625 28.471874 254.81563 28.8625Q254.19063 29.253124 253.90938 30.003124Q253.62813 30.753124 253.62813 32.175L253.62813 37.55L251.8625 37.55ZM274.64374 36.26875Q273.65936 37.096874 272.7531 37.440624Q271.84686 37.784374 270.8156 37.784374Q269.1125 37.784374 268.1906 36.95625Q267.26874 36.1125 267.26874 34.815624Q267.26874 34.05 267.6125 33.425Q267.97186 32.8 268.53436 32.425Q269.09686 32.034374 269.8 31.83125Q270.3156 31.70625 271.3625 31.565624Q273.4875 31.315624 274.4875 30.971874Q274.5031 30.6125 274.5031 30.503124Q274.5031 29.440624 274.0031 28.9875Q273.33124 28.39375 272.0031 28.39375Q270.7531 28.39375 270.15936 28.83125Q269.58124 29.26875 269.3 30.378124L267.58124 30.14375Q267.8156 29.034374 268.34686 28.3625Q268.8781 27.675 269.89374 27.315624Q270.90936 26.940624 272.2531 26.940624Q273.58124 26.940624 274.40936 27.253124Q275.2375 27.565624 275.6281 28.05Q276.01874 28.51875 276.175 29.2375Q276.26874 29.690624 276.26874 30.8625L276.26874 33.20625Q276.26874 35.659374 276.3781 36.315624Q276.4875 36.95625 276.83124 37.55L274.9875 37.55Q274.72186 37.003124 274.64374 36.26875ZM274.4875 32.346874Q273.53436 32.7375 271.6125 33.003124Q270.53436 33.159374 270.08124 33.3625Q269.64374 33.55 269.39374 33.925Q269.14374 34.3 269.14374 34.76875Q269.14374 35.471874 269.675 35.940624Q270.20624 36.409374 271.2375 36.409374Q272.2531 36.409374 273.03436 35.971874Q273.83124 35.51875 274.20624 34.753124Q274.4875 34.14375 274.4875 32.9875L274.4875 32.346874ZM282.70624 35.971874L282.95624 37.534374Q282.22186 37.690624 281.6281 37.690624Q280.675 37.690624 280.14374 37.39375Q279.6281 37.08125 279.40936 36.596874Q279.1906 36.096874 279.1906 34.51875L279.1906 28.55L277.90936 28.55L277.90936 27.175L279.1906 27.175L279.1906 24.6125L280.9406 23.55L280.9406 27.175L282.70624 27.175L282.70624 28.55L280.9406 28.55L280.9406 34.6125Q280.9406 35.3625 281.03436 35.58125Q281.1281 35.784374 281.33124 35.925Q281.55 36.05 281.9406 36.05Q282.22186 36.05 282.70624 35.971874ZM284.84686 37.55L284.84686 27.175L286.425 27.175L286.425 28.753124Q287.03436 27.64375 287.55 27.3Q288.0656 26.940624 288.675 26.940624Q289.5656 26.940624 290.4875 27.503124L289.8781 29.14375Q289.2375 28.753124 288.59686 28.753124Q288.01874 28.753124 287.55 29.1125Q287.09686 29.45625 286.89374 30.065624Q286.6125 31.003124 286.6125 32.1125L286.6125 37.55L284.84686 37.55ZM291.8781 25.253124L291.8781 23.2375L293.64374 23.2375L293.64374 25.253124L291.8781 25.253124ZM291.8781 37.55L291.8781 27.175L293.64374 27.175L293.64374 37.55L291.8781 37.55ZM294.6906 37.55L298.4875 32.159374L294.9875 27.175L297.175 27.175L298.76874 29.6125Q299.22186 30.3 299.4875 30.76875Q299.925 30.128124 300.28436 29.628124L302.03436 27.175L304.1281 27.175L300.55 32.065624L304.40936 37.55L302.2531 37.55L300.1125 34.33125L299.55 33.45625L296.83124 37.55L294.6906 37.55ZM310.15936 34.45625L311.90936 34.175Q312.05 35.221874 312.72186 35.784374Q313.39374 36.33125 314.59686 36.33125Q315.8 36.33125 316.3781 35.846874Q316.97186 35.346874 316.97186 34.690624Q316.97186 34.096874 316.45624 33.753124Q316.09686 33.51875 314.65936 33.159374Q312.72186 32.659374 311.97186 32.315624Q311.2375 31.95625 310.84686 31.33125Q310.45624 30.690624 310.45624 29.925Q310.45624 29.2375 310.76874 28.64375Q311.09686 28.05 311.64374 27.659374Q312.05 27.3625 312.7531 27.159374Q313.47186 26.940624 314.28436 26.940624Q315.5031 26.940624 316.425 27.3Q317.34686 27.64375 317.78436 28.253124Q318.22186 28.846874 318.39374 29.846874L316.675 30.08125Q316.55 29.284374 315.9875 28.846874Q315.425 28.39375 314.40936 28.39375Q313.1906 28.39375 312.675 28.8Q312.15936 29.190624 312.15936 29.721874Q312.15936 30.065624 312.3781 30.346874Q312.58124 30.628124 313.05 30.815624Q313.3156 30.909374 314.59686 31.253124Q316.47186 31.753124 317.20624 32.08125Q317.9406 32.39375 318.3625 33.003124Q318.78436 33.596874 318.78436 34.503124Q318.78436 35.378124 318.26874 36.159374Q317.7531 36.940624 316.78436 37.3625Q315.8156 37.784374 314.59686 37.784374Q312.58124 37.784374 311.51874 36.940624Q310.45624 36.096874 310.15936 34.45625ZM320.8781 25.253124L320.8781 23.2375L322.64374 23.2375L322.64374 25.253124L320.8781 25.253124ZM320.8781 37.55L320.8781 27.175L322.64374 27.175L322.64374 37.55L320.8781 37.55ZM323.9406 37.55L323.9406 36.128124L330.55 28.55Q329.425 28.596874 328.5656 28.596874L324.33124 28.596874L324.33124 27.175L332.8156 27.175L332.8156 28.346874L327.1906 34.925L326.1125 36.128124Q327.28436 36.034374 328.33124 36.034374L333.1281 36.034374L333.1281 37.55L323.9406 37.55ZM340.97186 34.20625L342.78436 34.440624Q342.3625 36.01875 341.1906 36.909374Q340.03436 37.784374 338.22186 37.784374Q335.95624 37.784374 334.6125 36.39375Q333.28436 34.9875 333.28436 32.45625Q333.28436 29.83125 334.6281 28.39375Q335.97186 26.940624 338.1281 26.940624Q340.20624 26.940624 341.51874 28.3625Q342.84686 29.76875 342.84686 32.346874Q342.84686 32.503124 342.83124 32.815624L335.09686 32.815624Q335.1906 34.51875 336.0656 35.425Q336.9406 36.33125 338.2375 36.33125Q339.20624 36.33125 339.8781 35.83125Q340.5656 35.315624 340.97186 34.20625ZM335.1906 31.3625L340.9875 31.3625Q340.8781 30.065624 340.33124 29.409374Q339.4875 28.39375 338.14374 28.39375Q336.9406 28.39375 336.1125 29.20625Q335.28436 30.003124 335.1906 31.3625Z" fill-rule="nonzero"/></svg>