<svg version="1.1" viewBox="0.0 0.0 600.0 371.0" fill="none" stroke="none" stroke-linecap="square" stroke-miterlimit="10" width="600" height="371" xmlns:xlink="http://www.w3.org/1999/xlink" xmlns="http://www.w3.org/2000/svg"><path fill="#ffffff" d="M0 0L600.0 0L600.0 371.0L0 371.0L0 0Z" fill-rule="nonzero"/><path stroke="#cccccc" stroke-width="1.0" stroke-linecap="butt" d="M171.5 61.5L171.5 300.5" fill-rule="nonzero"/><path stroke="#cccccc" stroke-width="1.0" stroke-linecap="butt" d="M239.5 61.5L239.5 300.5" fill-rule="nonzero"/><path stroke="#cccccc" stroke-width="1.0" stroke-linecap="butt" d="M307.5 61.5L307.5 300.5" fill-rule="nonzero"/><path stroke="#cccccc" stroke-width="1.0" stroke-linecap="butt" d="M376.5 61.5L376.5 300.5" fill-rule="nonzero"/><path stroke="#cccccc" stroke-width="1.0" stroke-linecap="butt" d="M444.5 61.5L444.5 300.5" fill-rule="nonzero"/><path stroke="#cccccc" stroke-width="1.0" stroke-linecap="butt" d="M513.5 61.5L513.5 300.5" fill-rule="nonzero"/><path stroke="#cccccc" stroke-width="1.0" stroke-linecap="butt" d="M581.5 61.5L581.5 300.5" fill-rule="nonzero"/><path stroke="#cccccc" stroke-width="1.0" stroke-linecap="butt" d="M109.5 278.5L581.5 278.5" fill-rule="nonzero"/><path stroke="#cccccc" stroke-width="1.0" stroke-linecap="butt" d="M109.5 231.5L581.5 231.5" fill-rule="nonzero"/><path stroke="#cccccc" stroke-width="1.0" stroke-linecap="butt" d="M109.5 185.5L581.5 185.5" fill-rule="nonzero"/><path stroke="#cccccc" stroke-width="1.0" stroke-linecap="butt" d="M109.5 139.5L581.5 139.5" fill-rule="nonzero"/><path stroke="#cccccc" stroke-width="1.0" stroke-linecap="butt" d="M109.5 93.5L581.5 93.5" fill-rule="nonzero"/><clipPath id="id_0"><path d="M109.55 61.916668L581.45 61.916668L581.45 300.45L109.55 300.45L109.55 61.916668Z" clip-rule="nonzero"/></clipPath><path stroke="#4285f4" stroke-width="2.0" stroke-linecap="butt" clip-path="url(#id_0)" d="M116.447685 85.028435L130.12422 184.33955L157.4773 234.09013L212.18346 258.78363L321.59576 271.31476L540.4204 277.33823" fill-rule="nonzero"/><path fill="#4285f4" clip-path="url(#id_0)" d="M120.947685 85.028435C120.947685 87.51372 118.93296 89.528435 116.447685 89.528435C113.9624 89.528435 111.947685 87.51372 111.947685 85.028435C111.947685 82.54315 113.9624 80.528435 116.447685 80.528435C118.93296 80.528435 120.947685 82.54315 120.947685 85.028435Z" fill-rule="nonzero"/><path fill="#4285f4" clip-path="url(#id_0)" d="M134.62422 184.33955C134.62422 186.82483 132.6095 188.83955 130.12422 188.83955C127.63894 188.83955 125.62422 186.82483 125.62422 184.33955C125.62422 181.85426 127.63894 179.83955 130.12422 179.83955C132.6095 179.83955 134.62422 181.85426 134.62422 184.33955Z" fill-rule="nonzero"/><path fill="#4285f4" clip-path="url(#id_0)" d="M161.9773 234.09013C161.9773 236.57541 159.96259 238.59013 157.4773 238.59013C154.99202 238.59013 152.9773 236.57541 152.9773 234.09013C152.9773 231.60484 154.99202 229.59013 157.4773 229.59013C159.96259 229.59013 161.9773 231.60484 161.9773 234.09013Z" fill-rule="nonzero"/><path fill="#4285f4" clip-path="url(#id_0)" d="M216.68346 258.78363C216.68346 261.26892 214.66873 263.28363 212.18346 263.28363C209.69817 263.28363 207.68346 261.26892 207.68346 258.78363C207.68346 256.29837 209.69817 254.28365 212.18346 254.28365C214.66873 254.28365 216.68346 256.29837 216.68346 258.78363Z" fill-rule="nonzero"/><path fill="#4285f4" clip-path="url(#id_0)" d="M326.09576 271.31476C326.09576 273.80002 324.08105 275.81476 321.59576 275.81476C319.11047 275.81476 317.09576 273.80002 317.09576 271.31476C317.09576 268.82947 319.11047 266.81476 321.59576 266.81476C324.08105 266.81476 326.09576 268.82947 326.09576 271.31476Z" fill-rule="nonzero"/><path fill="#4285f4" clip-path="url(#id_0)" d="M544.9204 277.33823C544.9204 279.82352 542.90564 281.83823 540.4204 281.83823C537.9351 281.83823 535.9204 279.82352 535.9204 277.33823C535.9204 274.85297 537.9351 272.83823 540.4204 272.83823C542.90564 272.83823 544.9204 274.85297 544.9204 277.33823Z" fill-rule="nonzero"/><path fill="#000000" d="M330.375 347.59064L331.40625 347.4344Q331.5 348.0594 331.89062 348.3875Q332.29688 348.71564 333.03125 348.71564Q333.75 348.71564 334.09375 348.4344Q334.45312 348.1375 334.45312 347.73126Q334.45312 347.3719 334.14062 347.16876Q333.92188 347.02814 333.0625 346.8094Q331.90625 346.5125 331.45312 346.3094Q331.01562 346.09064 330.78125 345.71564Q330.54688 345.34064 330.54688 344.8719Q330.54688 344.46564 330.73438 344.10626Q330.92188 343.7469 331.25 343.5125Q331.5 343.34064 331.92188 343.21564Q332.34375 343.09064 332.84375 343.09064Q333.5625 343.09064 334.10938 343.3094Q334.67188 343.5125 334.9375 343.8719Q335.20312 344.23126 335.29688 344.825L334.26562 344.96564Q334.20312 344.4969 333.85938 344.23126Q333.53125 343.95 332.90625 343.95Q332.1875 343.95 331.875 344.2Q331.5625 344.4344 331.5625 344.7625Q331.5625 344.96564 331.6875 345.1219Q331.82812 345.29376 332.09375 345.40314Q332.25 345.46564 333.03125 345.66876Q334.15625 345.98126 334.59375 346.16876Q335.03125 346.35626 335.28125 346.71564Q335.53125 347.075 335.53125 347.6219Q335.53125 348.15314 335.21875 348.6219Q334.92188 349.075 334.34375 349.34064Q333.76562 349.59064 333.03125 349.59064Q331.8125 349.59064 331.17188 349.09064Q330.54688 348.575 330.375 347.59064ZM340.09375 348.5125L340.25 349.4344Q339.79688 349.52814 339.45312 349.52814Q338.875 349.52814 338.5625 349.35626Q338.25 349.16876 338.10938 348.8719Q337.98438 348.575 337.98438 347.6219L337.98438 344.04376L337.21875 344.04376L337.21875 343.23126L337.98438 343.23126L337.98438 341.6844L339.03125 341.0594L339.03125 343.23126L340.09375 343.23126L340.09375 344.04376L339.03125 344.04376L339.03125 347.6844Q339.03125 348.1375 339.07812 348.2625Q339.14062 348.3875 339.26562 348.46564Q339.39062 348.54376 339.625 348.54376Q339.8125 348.54376 340.09375 348.5125ZM340.78125 349.45L340.78125 343.23126L341.73438 343.23126L341.73438 344.16876Q342.09375 343.5125 342.39062 343.3094Q342.70312 343.09064 343.07812 343.09064Q343.60938 343.09064 344.15625 343.41876L343.79688 344.40314Q343.40625 344.16876 343.03125 344.16876Q342.67188 344.16876 342.39062 344.3875Q342.125 344.59064 342.01562 344.96564Q341.82812 345.52814 341.82812 346.1844L341.82812 349.45L340.78125 349.45ZM344.79688 342.075L344.79688 340.85626L345.85938 340.85626L345.85938 342.075L344.79688 342.075ZM344.79688 349.45L344.79688 343.23126L345.85938 343.23126L345.85938 349.45L344.79688 349.45ZM351.82812 349.45L351.82812 348.66876Q351.23438 349.59064 350.09375 349.59064Q349.34375 349.59064 348.71875 349.1844Q348.09375 348.7625 347.75 348.02814Q347.40625 347.29376 347.40625 346.34064Q347.40625 345.41876 347.71875 344.65314Q348.03125 343.8875 348.65625 343.4969Q349.28125 343.09064 350.04688 343.09064Q350.60938 343.09064 351.04688 343.325Q351.48438 343.5594 351.76562 343.9344L351.76562 340.85626L352.8125 340.85626L352.8125 349.45L351.82812 349.45ZM348.5 346.34064Q348.5 347.54376 349.0 348.1375Q349.5 348.71564 350.1875 348.71564Q350.875 348.71564 351.35938 348.15314Q351.84375 347.59064 351.84375 346.4344Q351.84375 345.15314 351.34375 344.5594Q350.85938 343.96564 350.14062 343.96564Q349.4375 343.96564 348.96875 344.54376Q348.5 345.10626 348.5 346.34064ZM359.04688 347.45L360.14062 347.575Q359.89062 348.52814 359.1875 349.0594Q358.48438 349.59064 357.40625 349.59064Q356.04688 349.59064 355.23438 348.7469Q354.4375 347.90314 354.4375 346.3875Q354.4375 344.825 355.25 343.96564Q356.0625 343.09064 357.34375 343.09064Q358.59375 343.09064 359.375 343.9344Q360.17188 344.77814 360.17188 346.325Q360.17188 346.41876 360.17188 346.60626L355.53125 346.60626Q355.59375 347.6375 356.10938 348.1844Q356.625 348.71564 357.40625 348.71564Q357.98438 348.71564 358.39062 348.41876Q358.8125 348.10626 359.04688 347.45ZM355.59375 345.7469L359.0625 345.7469Q359.0 344.95 358.67188 344.5594Q358.15625 343.95 357.35938 343.95Q356.625 343.95 356.125 344.4344Q355.64062 344.91876 355.59375 345.7469Z" fill-rule="nonzero"/><path fill="#000000" d="M28.784388 238.32396Q29.284388 238.91771 29.487513 239.46458Q29.690638 239.99583 29.690638 240.62083Q29.690638 241.65208 29.190638 242.19896Q28.690638 242.74583 27.909388 242.74583Q27.456263 242.74583 27.081263 242.54271Q26.690638 242.33958 26.471888 241.99583Q26.237513 241.65208 26.128138 241.23021Q26.034388 240.93333 25.956263 240.29271Q25.815638 239.02708 25.596888 238.41771Q25.378138 238.41771 25.331263 238.41771Q24.675013 238.41771 24.409388 238.71458Q24.065638 239.12083 24.065638 239.91771Q24.065638 240.65208 24.331263 241.01146Q24.581263 241.37083 25.237513 241.54271L25.096888 242.57396Q24.440638 242.43333 24.034388 242.10521Q23.628138 241.77708 23.409388 241.16771Q23.190638 240.55833 23.190638 239.76146Q23.190638 238.96458 23.378138 238.46458Q23.565638 237.96458 23.846888 237.73021Q24.128138 237.49583 24.565638 237.40208Q24.831263 237.35521 25.534388 237.35521L26.940638 237.35521Q28.409388 237.35521 28.800013 237.29271Q29.190638 237.21458 29.550013 237.01146L29.550013 238.12083Q29.221888 238.27708 28.784388 238.32396ZM26.425013 238.41771Q26.659388 238.99583 26.831263 240.13646Q26.925013 240.79271 27.050013 241.05833Q27.159388 241.32396 27.378138 241.48021Q27.596888 241.62083 27.878138 241.62083Q28.300013 241.62083 28.581263 241.30833Q28.862513 240.98021 28.862513 240.37083Q28.862513 239.76146 28.596888 239.29271Q28.331263 238.80833 27.862513 238.58958Q27.503138 238.41771 26.815638 238.41771L26.425013 238.41771ZM29.550013 233.66771L23.331263 236.02708L23.331263 234.91771L27.050013 233.57396Q27.659388 233.37083 28.300013 233.18333Q27.815638 233.04271 27.128138 232.79271L23.331263 231.40208L23.331263 230.32396L29.550013 232.68333L29.550013 233.66771ZM27.550013 226.13646L27.675013 225.04271Q28.628138 225.29271 29.159388 225.99583Q29.690638 226.69896 29.690638 227.77708Q29.690638 229.13646 28.846888 229.94896Q28.003138 230.74583 26.487513 230.74583Q24.925013 230.74583 24.065638 229.93333Q23.190638 229.12083 23.190638 227.83958Q23.190638 226.58958 24.034388 225.80833Q24.878138 225.01146 26.425013 225.01146Q26.518763 225.01146 26.706263 225.01146L26.706263 229.65208Q27.737513 229.58958 28.284388 229.07396Q28.815638 228.55833 28.815638 227.77708Q28.815638 227.19896 28.518763 226.79271Q28.206263 226.37083 27.550013 226.13646ZM25.846888 229.58958L25.846888 226.12083Q25.050013 226.18333 24.659388 226.51146Q24.050013 227.02708 24.050013 227.82396Q24.050013 228.55833 24.534388 229.05833Q25.018763 229.54271 25.846888 229.58958ZM29.550013 223.40208L23.331263 223.40208L23.331263 222.44896L24.268763 222.44896Q23.612513 222.08958 23.409388 221.79271Q23.190638 221.48021 23.190638 221.10521Q23.190638 220.57396 23.518763 220.02708L24.503138 220.38646Q24.268763 220.77708 24.268763 221.15208Q24.268763 221.51146 24.487513 221.79271Q24.690638 222.05833 25.065638 222.16771Q25.628138 222.35521 26.284388 222.35521L29.550013 222.35521L29.550013 223.40208ZM28.784388 215.32396Q29.284388 215.91771 29.487513 216.46458Q29.690638 216.99583 29.690638 217.62083Q29.690638 218.65208 29.190638 219.19896Q28.690638 219.74583 27.909388 219.74583Q27.456263 219.74583 27.081263 219.54271Q26.690638 219.33958 26.471888 218.99583Q26.237513 218.65208 26.128138 218.23021Q26.034388 217.93333 25.956263 217.29271Q25.815638 216.02708 25.596888 215.41771Q25.378138 215.41771 25.331263 215.41771Q24.675013 215.41771 24.409388 215.71458Q24.065638 216.12083 24.065638 216.91771Q24.065638 217.65208 24.331263 218.01146Q24.581263 218.37083 25.237513 218.54271L25.096888 219.57396Q24.440638 219.43333 24.034388 219.10521Q23.628138 218.77708 23.409388 218.16771Q23.190638 217.55833 23.190638 216.76146Q23.190638 215.96458 23.378138 215.46458Q23.565638 214.96458 23.846888 214.73021Q24.128138 214.49583 24.565638 214.40208Q24.831263 214.35521 25.534388 214.35521L26.940638 214.35521Q28.409388 214.35521 28.800013 214.29271Q29.190638 214.21458 29.550013 214.01146L29.550013 215.12083Q29.221888 215.27708 28.784388 215.32396ZM26.425013 215.41771Q26.659388 215.99583 26.831263 217.13646Q26.925013 217.79271 27.050013 218.05833Q27.159388 218.32396 27.378138 218.48021Q27.596888 218.62083 27.878138 218.62083Q28.300013 218.62083 28.581263 218.30833Q28.862513 217.98021 28.862513 217.37083Q28.862513 216.76146 28.596888 216.29271Q28.331263 215.80833 27.862513 215.58958Q27.503138 215.41771 26.815638 215.41771L26.425013 215.41771ZM30.065638 212.58958L30.221888 211.55833Q30.690638 211.49583 30.909388 211.19896Q31.206263 210.80833 31.206263 210.13646Q31.206263 209.40208 30.909388 209.01146Q30.612513 208.60521 30.096888 208.46458Q29.768763 208.37083 28.737513 208.38646Q29.550013 209.07396 29.550013 210.10521Q29.550013 211.38646 28.628138 212.08958Q27.690638 212.79271 26.409388 212.79271Q25.518763 212.79271 24.768763 212.48021Q24.003138 212.15208 23.596888 211.54271Q23.190638 210.93333 23.190638 210.10521Q23.190638 208.99583 24.081263 208.27708L23.331263 208.27708L23.331263 207.30833L28.706263 207.30833Q30.159388 207.30833 30.768763 207.60521Q31.378138 207.90208 31.721888 208.54271Q32.08126 209.18333 32.08126 210.12083Q32.08126 211.23021 31.581263 211.91771Q31.081263 212.60521 30.065638 212.58958ZM26.331263 211.71458Q27.550013 211.71458 28.112513 211.23021Q28.675013 210.74583 28.675013 210.01146Q28.675013 209.27708 28.112513 208.79271Q27.550013 208.29271 26.362513 208.29271Q25.221888 208.29271 24.643763 208.80833Q24.065638 209.30833 24.065638 210.02708Q24.065638 210.73021 24.643763 211.23021Q25.206263 211.71458 26.331263 211.71458ZM27.550013 201.13646L27.675013 200.04271Q28.628138 200.29271 29.159388 200.99583Q29.690638 201.69896 29.690638 202.77708Q29.690638 204.13646 28.846888 204.94896Q28.003138 205.74583 26.487513 205.74583Q24.925013 205.74583 24.065638 204.93333Q23.190638 204.12083 23.190638 202.83958Q23.190638 201.58958 24.034388 200.80833Q24.878138 200.01146 26.425013 200.01146Q26.518763 200.01146 26.706263 200.01146L26.706263 204.65208Q27.737513 204.58958 28.284388 204.07396Q28.815638 203.55833 28.815638 202.77708Q28.815638 202.19896 28.518763 201.79271Q28.206263 201.37083 27.550013 201.13646ZM25.846888 204.58958L25.846888 201.12083Q25.050013 201.18333 24.659388 201.51146Q24.050013 202.02708 24.050013 202.82396Q24.050013 203.55833 24.534388 204.05833Q25.018763 204.54271 25.846888 204.58958ZM29.550013 195.05833L20.956263 195.05833L20.956263 193.93333L29.550013 193.93333L29.550013 195.05833ZM29.550013 192.38646L23.331263 192.38646L23.331263 191.44896L24.206263 191.44896Q23.190638 190.76146 23.190638 189.46458Q23.190638 188.90208 23.393763 188.43333Q23.596888 187.94896 23.925013 187.71458Q24.253138 187.48021 24.690638 187.38646Q24.987513 187.33958 25.721888 187.33958L29.550013 187.33958L29.550013 188.38646L25.768763 188.38646Q25.112513 188.38646 24.800013 188.51146Q24.487513 188.63646 24.300013 188.94896Q24.096888 189.26146 24.096888 189.68333Q24.096888 190.35521 24.534388 190.85521Q24.956263 191.33958 26.143763 191.33958L29.550013 191.33958L29.550013 192.38646ZM27.690638 185.80833L27.534388 184.77708Q28.159388 184.68333 28.487513 184.29271Q28.815638 183.88646 28.815638 183.15208Q28.815638 182.43333 28.534388 182.08958Q28.237513 181.73021 27.831263 181.73021Q27.471888 181.73021 27.268763 182.04271Q27.128138 182.26146 26.909388 183.12083Q26.612513 184.27708 26.409388 184.73021Q26.190638 185.16771 25.815638 185.40208Q25.440638 185.63646 24.971888 185.63646Q24.565638 185.63646 24.206263 185.44896Q23.846888 185.26146 23.612513 184.93333Q23.440638 184.68333 23.315638 184.26146Q23.190638 183.83958 23.190638 183.33958Q23.190638 182.62083 23.409388 182.07396Q23.612513 181.51146 23.971888 181.24583Q24.331263 180.98021 24.925013 180.88646L25.065638 181.91771Q24.596888 181.98021 24.331263 182.32396Q24.050013 182.65208 24.050013 183.27708Q24.050013 183.99583 24.300013 184.30833Q24.534388 184.62083 24.862513 184.62083Q25.065638 184.62083 25.221888 184.49583Q25.393763 184.35521 25.503138 184.08958Q25.565638 183.93333 25.768763 183.15208Q26.081263 182.02708 26.268763 181.58958Q26.456263 181.15208 26.815638 180.90208Q27.175013 180.65208 27.721888 180.65208Q28.253138 180.65208 28.721888 180.96458Q29.175013 181.26146 29.440638 181.83958Q29.690638 182.41771 29.690638 183.15208Q29.690638 184.37083 29.190638 185.01146Q28.675013 185.63646 27.690638 185.80833ZM28.612513 176.08958L29.534388 175.93333Q29.628138 176.38646 29.628138 176.73021Q29.628138 177.30833 29.456263 177.62083Q29.268763 177.93333 28.971888 178.07396Q28.675013 178.19896 27.721888 178.19896L24.143763 178.19896L24.143763 178.96458L23.331263 178.96458L23.331263 178.19896L21.784388 178.19896L21.159388 177.15208L23.331263 177.15208L23.331263 176.08958L24.143763 176.08958L24.143763 177.15208L27.784388 177.15208Q28.237513 177.15208 28.362513 177.10521Q28.487513 177.04271 28.565638 176.91771Q28.643763 176.79271 28.643763 176.55833Q28.643763 176.37083 28.612513 176.08958ZM29.550013 175.40208L23.331263 175.40208L23.331263 174.44896L24.268763 174.44896Q23.612513 174.08958 23.409388 173.79271Q23.190638 173.48021 23.190638 173.10521Q23.190638 172.57396 23.518763 172.02708L24.503138 172.38646Q24.268763 172.77708 24.268763 173.15208Q24.268763 173.51146 24.487513 173.79271Q24.690638 174.05833 25.065638 174.16771Q25.628138 174.35521 26.284388 174.35521L29.550013 174.35521L29.550013 175.40208ZM29.550013 167.30833L28.628138 167.30833Q29.690638 168.04271 29.690638 169.29271Q29.690638 169.83958 29.487513 170.32396Q29.268763 170.79271 28.956263 171.02708Q28.628138 171.26146 28.159388 171.35521Q27.862513 171.41771 27.175013 171.41771L23.331263 171.41771L23.331263 170.35521L26.784388 170.35521Q27.596888 170.35521 27.893763 170.29271Q28.300013 170.19896 28.550013 169.88646Q28.784388 169.55833 28.784388 169.07396Q28.784388 168.60521 28.550013 168.19896Q28.300013 167.77708 27.878138 167.60521Q27.456263 167.41771 26.659388 167.41771L23.331263 167.41771L23.331263 166.37083L29.550013 166.37083L29.550013 167.30833ZM27.268763 160.32396L27.409388 159.29271Q28.471888 159.46458 29.081263 160.16771Q29.690638 160.87083 29.690638 161.88646Q29.690638 163.16771 28.862513 163.94896Q28.018763 164.71458 26.456263 164.71458Q25.456263 164.71458 24.706263 164.38646Q23.940638 164.04271 23.565638 163.37083Q23.190638 162.68333 23.190638 161.87083Q23.190638 160.87083 23.706263 160.23021Q24.206263 159.57396 25.159388 159.38646L25.315638 160.41771Q24.690638 160.55833 24.378138 160.93333Q24.050013 161.30833 24.050013 161.83958Q24.050013 162.63646 24.628138 163.13646Q25.190638 163.63646 26.425013 163.63646Q27.690638 163.63646 28.253138 163.15208Q28.815638 162.66771 28.815638 161.90208Q28.815638 161.27708 28.440638 160.87083Q28.065638 160.44896 27.268763 160.32396ZM28.612513 156.08958L29.534388 155.93333Q29.628138 156.38646 29.628138 156.73021Q29.628138 157.30833 29.456263 157.62083Q29.268763 157.93333 28.971888 158.07396Q28.675013 158.19896 27.721888 158.19896L24.143763 158.19896L24.143763 158.96458L23.331263 158.96458L23.331263 158.19896L21.784388 158.19896L21.159388 157.15208L23.331263 157.15208L23.331263 156.08958L24.143763 156.08958L24.143763 157.15208L27.784388 157.15208Q28.237513 157.15208 28.362513 157.10521Q28.487513 157.04271 28.565638 156.91771Q28.643763 156.79271 28.643763 156.55833Q28.643763 156.37083 28.612513 156.08958ZM22.175013 155.38646L20.956263 155.38646L20.956263 154.32396L22.175013 154.32396L22.175013 155.38646ZM29.550013 155.38646L23.331263 155.38646L23.331263 154.32396L29.550013 154.32396L29.550013 155.38646ZM26.440638 152.77708Q24.706263 152.77708 23.878138 151.82396Q23.190638 151.02708 23.190638 149.87083Q23.190638 148.58958 24.034388 147.77708Q24.862513 146.94896 26.346888 146.94896Q27.550013 146.94896 28.237513 147.30833Q28.925013 147.66771 29.315638 148.37083Q29.690638 149.05833 29.690638 149.87083Q29.690638 151.16771 28.862513 151.98021Q28.018763 152.77708 26.440638 152.77708ZM26.440638 151.69896Q27.628138 151.69896 28.221888 151.18333Q28.815638 150.65208 28.815638 149.87083Q28.815638 149.07396 28.221888 148.55833Q27.628138 148.04271 26.409388 148.04271Q25.253138 148.04271 24.659388 148.57396Q24.065638 149.08958 24.065638 149.87083Q24.065638 150.65208 24.659388 151.18333Q25.237513 151.69896 26.440638 151.69896ZM29.550013 145.38646L23.331263 145.38646L23.331263 144.44896L24.206263 144.44896Q23.190638 143.76146 23.190638 142.46458Q23.190638 141.90208 23.393763 141.43333Q23.596888 140.94896 23.925013 140.71458Q24.253138 140.48021 24.690638 140.38646Q24.987513 140.33958 25.721888 140.33958L29.550013 140.33958L29.550013 141.38646L25.768763 141.38646Q25.112513 141.38646 24.800013 141.51146Q24.487513 141.63646 24.300013 141.94896Q24.096888 142.26146 24.096888 142.68333Q24.096888 143.35521 24.534388 143.85521Q24.956263 144.33958 26.143763 144.33958L29.550013 144.33958L29.550013 145.38646ZM27.690638 138.80833L27.534388 137.77708Q28.159388 137.68333 28.487513 137.29271Q28.815638 136.88646 28.815638 136.15208Q28.815638 135.43333 28.534388 135.08958Q28.237513 134.73021 27.831263 134.73021Q27.471888 134.73021 27.268763 135.04271Q27.128138 135.26146 26.909388 136.12083Q26.612513 137.27708 26.409388 137.73021Q26.190638 138.16771 25.815638 138.40208Q25.440638 138.63646 24.971888 138.63646Q24.565638 138.63646 24.206263 138.44896Q23.846888 138.26146 23.612513 137.93333Q23.440638 137.68333 23.315638 137.26146Q23.190638 136.83958 23.190638 136.33958Q23.190638 135.62083 23.409388 135.07396Q23.612513 134.51146 23.971888 134.24583Q24.331263 133.98021 24.925013 133.88646L25.065638 134.91771Q24.596888 134.98021 24.331263 135.32396Q24.050013 135.65208 24.050013 136.27708Q24.050013 136.99583 24.300013 137.30833Q24.534388 137.62083 24.862513 137.62083Q25.065638 137.62083 25.221888 137.49583Q25.393763 137.35521 25.503138 137.08958Q25.565638 136.93333 25.768763 136.15208Q26.081263 135.02708 26.268763 134.58958Q26.456263 134.15208 26.815638 133.90208Q27.175013 133.65208 27.721888 133.65208Q28.253138 133.65208 28.721888 133.96458Q29.175013 134.26146 29.440638 134.83958Q29.690638 135.41771 29.690638 136.15208Q29.690638 137.37083 29.190638 138.01146Q28.675013 138.63646 27.690638 138.80833Z" fill-rule="nonzero"/><path fill="#000000" d="M51.05 279.91968L52.1125 279.77905Q52.284374 280.66968 52.721874 281.07593Q53.159374 281.46655 53.784374 281.46655Q54.534374 281.46655 55.05 280.95093Q55.565624 280.4353 55.565624 279.66968Q55.565624 278.95093 55.08125 278.48218Q54.6125 277.9978 53.878124 277.9978Q53.58125 277.9978 53.128124 278.1228L53.253124 277.1853Q53.3625 277.20093 53.425 277.20093Q54.096874 277.20093 54.628124 276.85718Q55.175 276.4978 55.175 275.76343Q55.175 275.1853 54.784374 274.8103Q54.39375 274.41968 53.76875 274.41968Q53.159374 274.41968 52.7375 274.8103Q52.33125 275.20093 52.221874 275.96655L51.159374 275.77905Q51.346874 274.73218 52.034374 274.15405Q52.721874 273.5603 53.7375 273.5603Q54.440624 273.5603 55.034374 273.8728Q55.628124 274.16968 55.940624 274.6853Q56.253124 275.20093 56.253124 275.79468Q56.253124 276.34155 55.95625 276.8103Q55.659374 277.26343 55.08125 277.52905Q55.83125 277.70093 56.253124 278.26343Q56.675 278.8103 56.675 279.65405Q56.675 280.77905 55.846874 281.5603Q55.034374 282.34155 53.784374 282.34155Q52.659374 282.34155 51.909374 281.66968Q51.159374 280.98218 51.05 279.91968ZM58.64375 282.1853L58.64375 280.98218L59.846874 280.98218L59.846874 282.1853L58.64375 282.1853ZM62.675 277.52905Q62.01875 277.27905 61.690624 276.84155Q61.378124 276.38843 61.378124 275.77905Q61.378124 274.84155 62.05 274.20093Q62.7375 273.5603 63.846874 273.5603Q64.97188 273.5603 65.65938 274.21655Q66.34688 274.8728 66.34688 275.8103Q66.34688 276.40405 66.03438 276.84155Q65.72188 277.27905 65.08125 277.52905Q65.87813 277.77905 66.28438 278.35718Q66.69063 278.9353 66.69063 279.73218Q66.69063 280.82593 65.90938 281.57593Q65.14375 282.32593 63.8625 282.32593Q62.596874 282.32593 61.815624 281.57593Q61.034374 280.82593 61.034374 279.70093Q61.034374 278.85718 61.45625 278.29468Q61.89375 277.73218 62.675 277.52905ZM62.45625 275.73218Q62.45625 276.34155 62.846874 276.73218Q63.253124 277.1228 63.878124 277.1228Q64.4875 277.1228 64.87813 276.7478Q65.26875 276.35718 65.26875 275.79468Q65.26875 275.21655 64.8625 274.82593Q64.45625 274.41968 63.8625 274.41968Q63.253124 274.41968 62.846874 274.8103Q62.45625 275.20093 62.45625 275.73218ZM62.128124 279.70093Q62.128124 280.15405 62.33125 280.57593Q62.55 280.9978 62.971874 281.23218Q63.39375 281.46655 63.878124 281.46655Q64.62813 281.46655 65.1125 280.98218Q65.6125 280.4978 65.6125 279.7478Q65.6125 278.98218 65.1125 278.48218Q64.6125 277.98218 63.846874 277.98218Q63.096874 277.98218 62.6125 278.48218Q62.128124 278.96655 62.128124 279.70093ZM69.675 277.52905Q69.01875 277.27905 68.69063 276.84155Q68.37813 276.38843 68.37813 275.77905Q68.37813 274.84155 69.05 274.20093Q69.7375 273.5603 70.84688 273.5603Q71.97188 273.5603 72.65938 274.21655Q73.34688 274.8728 73.34688 275.8103Q73.34688 276.40405 73.03438 276.84155Q72.72188 277.27905 72.08125 277.52905Q72.87813 277.77905 73.28438 278.35718Q73.69063 278.9353 73.69063 279.73218Q73.69063 280.82593 72.90938 281.57593Q72.14375 282.32593 70.8625 282.32593Q69.59688 282.32593 68.81563 281.57593Q68.03438 280.82593 68.03438 279.70093Q68.03438 278.85718 68.45625 278.29468Q68.89375 277.73218 69.675 277.52905ZM69.45625 275.73218Q69.45625 276.34155 69.84688 276.73218Q70.25313 277.1228 70.87813 277.1228Q71.4875 277.1228 71.87813 276.7478Q72.26875 276.35718 72.26875 275.79468Q72.26875 275.21655 71.8625 274.82593Q71.45625 274.41968 70.8625 274.41968Q70.25313 274.41968 69.84688 274.8103Q69.45625 275.20093 69.45625 275.73218ZM69.12813 279.70093Q69.12813 280.15405 69.33125 280.57593Q69.55 280.9978 69.97188 281.23218Q70.39375 281.46655 70.87813 281.46655Q71.62813 281.46655 72.1125 280.98218Q72.6125 280.4978 72.6125 279.7478Q72.6125 278.98218 72.1125 278.48218Q71.6125 277.98218 70.84688 277.98218Q70.09688 277.98218 69.6125 278.48218Q69.12813 278.96655 69.12813 279.70093ZM75.50313 282.1853L75.50313 273.59155L81.70625 273.59155L81.70625 274.60718L76.64375 274.60718L76.64375 277.23218L81.39375 277.23218L81.39375 278.2478L76.64375 278.2478L76.64375 281.16968L81.90938 281.16968L81.90938 282.1853L75.50313 282.1853ZM85.55 280.79468L85.55 278.4353L83.22188 278.4353L83.22188 277.45093L85.55 277.45093L85.55 275.1228L86.55 275.1228L86.55 277.45093L88.89375 277.45093L88.89375 278.4353L86.55 278.4353L86.55 280.79468L85.55 280.79468ZM94.01875 282.1853L92.97188 282.1853L92.97188 275.46655Q92.58125 275.82593 91.95625 276.20093Q91.34688 276.5603 90.8625 276.73218L90.8625 275.71655Q91.7375 275.29468 92.39375 274.71655Q93.06563 274.1228 93.34688 273.5603L94.01875 273.5603L94.01875 282.1853ZM101.01875 282.1853L99.97188 282.1853L99.97188 275.46655Q99.58125 275.82593 98.95625 276.20093Q98.34688 276.5603 97.8625 276.73218L97.8625 275.71655Q98.7375 275.29468 99.39375 274.71655Q100.06563 274.1228 100.34688 273.5603L101.01875 273.5603L101.01875 282.1853Z" fill-rule="nonzero"/><path fill="#000000" d="M51.05 233.69614L52.1125 233.55551Q52.284374 234.44614 52.721874 234.85239Q53.159374 235.24301 53.784374 235.24301Q54.534374 235.24301 55.05 234.72739Q55.565624 234.21176 55.565624 233.44614Q55.565624 232.72739 55.08125 232.25864Q54.6125 231.77426 53.878124 231.77426Q53.58125 231.77426 53.128124 231.89926L53.253124 230.96176Q53.3625 230.97739 53.425 230.97739Q54.096874 230.97739 54.628124 230.63364Q55.175 230.27426 55.175 229.53989Q55.175 228.96176 54.784374 228.58676Q54.39375 228.19614 53.76875 228.19614Q53.159374 228.19614 52.7375 228.58676Q52.33125 228.97739 52.221874 229.74301L51.159374 229.55551Q51.346874 228.50864 52.034374 227.93051Q52.721874 227.33676 53.7375 227.33676Q54.440624 227.33676 55.034374 227.64926Q55.628124 227.94614 55.940624 228.46176Q56.253124 228.97739 56.253124 229.57114Q56.253124 230.11801 55.95625 230.58676Q55.659374 231.03989 55.08125 231.30551Q55.83125 231.47739 56.253124 232.03989Q56.675 232.58676 56.675 233.43051Q56.675 234.55551 55.846874 235.33676Q55.034374 236.11801 53.784374 236.11801Q52.659374 236.11801 51.909374 235.44614Q51.159374 234.75864 51.05 233.69614ZM58.64375 235.96176L58.64375 234.75864L59.846874 234.75864L59.846874 235.96176L58.64375 235.96176ZM61.20625 233.97739L62.221874 233.88364Q62.346874 234.60239 62.70625 234.93051Q63.08125 235.24301 63.64375 235.24301Q64.12813 235.24301 64.4875 235.02426Q64.8625 234.78989 65.09688 234.43051Q65.33125 234.05551 65.4875 233.43051Q65.64375 232.78989 65.64375 232.13364Q65.64375 232.05551 65.64375 231.91489Q65.33125 232.41489 64.78438 232.74301Q64.2375 233.05551 63.596874 233.05551Q62.51875 233.05551 61.784374 232.28989Q61.05 231.50864 61.05 230.24301Q61.05 228.93051 61.815624 228.13364Q62.596874 227.33676 63.753124 227.33676Q64.58125 227.33676 65.26875 227.78989Q65.97188 228.24301 66.33125 229.08676Q66.69063 229.91489 66.69063 231.49301Q66.69063 233.13364 66.33125 234.11801Q65.9875 235.08676 65.26875 235.60239Q64.56563 236.10239 63.628124 236.10239Q62.6125 236.10239 61.971874 235.55551Q61.33125 234.99301 61.20625 233.97739ZM65.51875 230.18051Q65.51875 229.27426 65.03438 228.74301Q64.56563 228.21176 63.878124 228.21176Q63.175 228.21176 62.64375 228.78989Q62.128124 229.35239 62.128124 230.27426Q62.128124 231.08676 62.628124 231.60239Q63.128124 232.11801 63.846874 232.11801Q64.58125 232.11801 65.05 231.60239Q65.51875 231.08676 65.51875 230.18051ZM68.05 231.72739Q68.05 230.19614 68.3625 229.27426Q68.675 228.33676 69.28438 227.83676Q69.90938 227.33676 70.84688 227.33676Q71.53438 227.33676 72.05 227.61801Q72.58125 227.89926 72.925 228.43051Q73.26875 228.94614 73.45625 229.69614Q73.64375 230.44614 73.64375 231.72739Q73.64375 233.24301 73.33125 234.16489Q73.03438 235.08676 72.40938 235.60239Q71.8 236.10239 70.84688 236.10239Q69.6125 236.10239 68.89375 235.21176Q68.05 234.14926 68.05 231.72739ZM69.12813 231.72739Q69.12813 233.83676 69.62813 234.53989Q70.12813 235.24301 70.84688 235.24301Q71.58125 235.24301 72.06563 234.53989Q72.56563 233.83676 72.56563 231.72739Q72.56563 229.60239 72.06563 228.91489Q71.58125 228.21176 70.83125 228.21176Q70.1125 228.21176 69.675 228.82114Q69.12813 229.60239 69.12813 231.72739ZM75.50313 235.96176L75.50313 227.36801L81.70625 227.36801L81.70625 228.38364L76.64375 228.38364L76.64375 231.00864L81.39375 231.00864L81.39375 232.02426L76.64375 232.02426L76.64375 234.94614L81.90938 234.94614L81.90938 235.96176L75.50313 235.96176ZM85.55 234.57114L85.55 232.21176L83.22188 232.21176L83.22188 231.22739L85.55 231.22739L85.55 228.89926L86.55 228.89926L86.55 231.22739L88.89375 231.22739L88.89375 232.21176L86.55 232.21176L86.55 234.57114L85.55 234.57114ZM94.01875 235.96176L92.97188 235.96176L92.97188 229.24301Q92.58125 229.60239 91.95625 229.97739Q91.34688 230.33676 90.8625 230.50864L90.8625 229.49301Q91.7375 229.07114 92.39375 228.49301Q93.06563 227.89926 93.34688 227.33676L94.01875 227.33676L94.01875 235.96176ZM101.01875 235.96176L99.97188 235.96176L99.97188 229.24301Q99.58125 229.60239 98.95625 229.97739Q98.34688 230.33676 97.8625 230.50864L97.8625 229.49301Q98.7375 229.07114 99.39375 228.49301Q100.06563 227.89926 100.34688 227.33676L101.01875 227.33676L101.01875 235.96176Z" fill-rule="nonzero"/><path fill="#000000" d="M51.05 187.47261L52.1125 187.33199Q52.284374 188.22261 52.721874 188.62886Q53.159374 189.01949 53.784374 189.01949Q54.534374 189.01949 55.05 188.50386Q55.565624 187.98824 55.565624 187.22261Q55.565624 186.50386 55.08125 186.03511Q54.6125 185.55074 53.878124 185.55074Q53.58125 185.55074 53.128124 185.67574L53.253124 184.73824Q53.3625 184.75386 53.425 184.75386Q54.096874 184.75386 54.628124 184.41011Q55.175 184.05074 55.175 183.31636Q55.175 182.73824 54.784374 182.36324Q54.39375 181.97261 53.76875 181.97261Q53.159374 181.97261 52.7375 182.36324Q52.33125 182.75386 52.221874 183.51949L51.159374 183.33199Q51.346874 182.28511 52.034374 181.70699Q52.721874 181.11324 53.7375 181.11324Q54.440624 181.11324 55.034374 181.42574Q55.628124 181.72261 55.940624 182.23824Q56.253124 182.75386 56.253124 183.34761Q56.253124 183.89449 55.95625 184.36324Q55.659374 184.81636 55.08125 185.08199Q55.83125 185.25386 56.253124 185.81636Q56.675 186.36324 56.675 187.20699Q56.675 188.33199 55.846874 189.11324Q55.034374 189.89449 53.784374 189.89449Q52.659374 189.89449 51.909374 189.22261Q51.159374 188.53511 51.05 187.47261ZM58.64375 189.73824L58.64375 188.53511L59.846874 188.53511L59.846874 189.73824L58.64375 189.73824ZM61.20625 187.75386L62.221874 187.66011Q62.346874 188.37886 62.70625 188.70699Q63.08125 189.01949 63.64375 189.01949Q64.12813 189.01949 64.4875 188.80074Q64.8625 188.56636 65.09688 188.20699Q65.33125 187.83199 65.4875 187.20699Q65.64375 186.56636 65.64375 185.91011Q65.64375 185.83199 65.64375 185.69136Q65.33125 186.19136 64.78438 186.51949Q64.2375 186.83199 63.596874 186.83199Q62.51875 186.83199 61.784374 186.06636Q61.05 185.28511 61.05 184.01949Q61.05 182.70699 61.815624 181.91011Q62.596874 181.11324 63.753124 181.11324Q64.58125 181.11324 65.26875 181.56636Q65.97188 182.01949 66.33125 182.86324Q66.69063 183.69136 66.69063 185.26949Q66.69063 186.91011 66.33125 187.89449Q65.9875 188.86324 65.26875 189.37886Q64.56563 189.87886 63.628124 189.87886Q62.6125 189.87886 61.971874 189.33199Q61.33125 188.76949 61.20625 187.75386ZM65.51875 183.95699Q65.51875 183.05074 65.03438 182.51949Q64.56563 181.98824 63.878124 181.98824Q63.175 181.98824 62.64375 182.56636Q62.128124 183.12886 62.128124 184.05074Q62.128124 184.86324 62.628124 185.37886Q63.128124 185.89449 63.846874 185.89449Q64.58125 185.89449 65.05 185.37886Q65.51875 184.86324 65.51875 183.95699ZM73.59688 188.72261L73.59688 189.73824L67.90938 189.73824Q67.90938 189.36324 68.03438 189.00386Q68.25313 188.42574 68.72188 187.86324Q69.20625 187.30074 70.1125 186.56636Q71.51875 185.41011 72.00313 184.73824Q72.50313 184.06636 72.50313 183.47261Q72.50313 182.84761 72.05 182.42574Q71.59688 181.98824 70.87813 181.98824Q70.1125 181.98824 69.65938 182.44136Q69.20625 182.89449 69.19063 183.70699L68.1125 183.59761Q68.22188 182.37886 68.94063 181.75386Q69.675 181.11324 70.90938 181.11324Q72.14375 181.11324 72.8625 181.80074Q73.58125 182.48824 73.58125 183.50386Q73.58125 184.01949 73.3625 184.51949Q73.15938 185.00386 72.65938 185.56636Q72.175 186.11324 71.05 187.06636Q70.09688 187.86324 69.81563 188.16011Q69.55 188.44136 69.37813 188.72261L73.59688 188.72261ZM75.50313 189.73824L75.50313 181.14449L81.70625 181.14449L81.70625 182.16011L76.64375 182.16011L76.64375 184.78511L81.39375 184.78511L81.39375 185.80074L76.64375 185.80074L76.64375 188.72261L81.90938 188.72261L81.90938 189.73824L75.50313 189.73824ZM85.55 188.34761L85.55 185.98824L83.22188 185.98824L83.22188 185.00386L85.55 185.00386L85.55 182.67574L86.55 182.67574L86.55 185.00386L88.89375 185.00386L88.89375 185.98824L86.55 185.98824L86.55 188.34761L85.55 188.34761ZM94.01875 189.73824L92.97188 189.73824L92.97188 183.01949Q92.58125 183.37886 91.95625 183.75386Q91.34688 184.11324 90.8625 184.28511L90.8625 183.26949Q91.7375 182.84761 92.39375 182.26949Q93.06563 181.67574 93.34688 181.11324L94.01875 181.11324L94.01875 189.73824ZM101.01875 189.73824L99.97188 189.73824L99.97188 183.01949Q99.58125 183.37886 98.95625 183.75386Q98.34688 184.11324 97.8625 184.28511L97.8625 183.26949Q98.7375 182.84761 99.39375 182.26949Q100.06563 181.67574 100.34688 181.11324L101.01875 181.11324L101.01875 189.73824Z" fill-rule="nonzero"/><path fill="#000000" d="M51.05 141.24907L52.1125 141.10844Q52.284374 141.99907 52.721874 142.40532Q53.159374 142.79594 53.784374 142.79594Q54.534374 142.79594 55.05 142.28032Q55.565624 141.7647 55.565624 140.99907Q55.565624 140.28032 55.08125 139.81157Q54.6125 139.3272 53.878124 139.3272Q53.58125 139.3272 53.128124 139.4522L53.253124 138.5147Q53.3625 138.53032 53.425 138.53032Q54.096874 138.53032 54.628124 138.18657Q55.175 137.8272 55.175 137.09282Q55.175 136.5147 54.784374 136.1397Q54.39375 135.74907 53.76875 135.74907Q53.159374 135.74907 52.7375 136.1397Q52.33125 136.53032 52.221874 137.29594L51.159374 137.10844Q51.346874 136.06157 52.034374 135.48344Q52.721874 134.8897 53.7375 134.8897Q54.440624 134.8897 55.034374 135.2022Q55.628124 135.49907 55.940624 136.0147Q56.253124 136.53032 56.253124 137.12407Q56.253124 137.67094 55.95625 138.1397Q55.659374 138.59282 55.08125 138.85844Q55.83125 139.03032 56.253124 139.59282Q56.675 140.1397 56.675 140.98344Q56.675 142.10844 55.846874 142.8897Q55.034374 143.67094 53.784374 143.67094Q52.659374 143.67094 51.909374 142.99907Q51.159374 142.31157 51.05 141.24907ZM58.64375 143.5147L58.64375 142.31157L59.846874 142.31157L59.846874 143.5147L58.64375 143.5147ZM61.20625 141.53032L62.221874 141.43657Q62.346874 142.15532 62.70625 142.48344Q63.08125 142.79594 63.64375 142.79594Q64.12813 142.79594 64.4875 142.5772Q64.8625 142.34282 65.09688 141.98344Q65.33125 141.60844 65.4875 140.98344Q65.64375 140.34282 65.64375 139.68657Q65.64375 139.60844 65.64375 139.46782Q65.33125 139.96782 64.78438 140.29594Q64.2375 140.60844 63.596874 140.60844Q62.51875 140.60844 61.784374 139.84282Q61.05 139.06157 61.05 137.79594Q61.05 136.48344 61.815624 135.68657Q62.596874 134.8897 63.753124 134.8897Q64.58125 134.8897 65.26875 135.34282Q65.97188 135.79594 66.33125 136.6397Q66.69063 137.46782 66.69063 139.04594Q66.69063 140.68657 66.33125 141.67094Q65.9875 142.6397 65.26875 143.15532Q64.56563 143.65532 63.628124 143.65532Q62.6125 143.65532 61.971874 143.10844Q61.33125 142.54594 61.20625 141.53032ZM65.51875 137.73344Q65.51875 136.8272 65.03438 136.29594Q64.56563 135.7647 63.878124 135.7647Q63.175 135.7647 62.64375 136.34282Q62.128124 136.90532 62.128124 137.8272Q62.128124 138.6397 62.628124 139.15532Q63.128124 139.67094 63.846874 139.67094Q64.58125 139.67094 65.05 139.15532Q65.51875 138.6397 65.51875 137.73344ZM71.425 143.5147L71.425 141.4522L67.70625 141.4522L67.70625 140.48344L71.62813 134.92094L72.4875 134.92094L72.4875 140.48344L73.64375 140.48344L73.64375 141.4522L72.4875 141.4522L72.4875 143.5147L71.425 143.5147ZM71.425 140.48344L71.425 136.62407L68.7375 140.48344L71.425 140.48344ZM75.50313 143.5147L75.50313 134.92094L81.70625 134.92094L81.70625 135.93657L76.64375 135.93657L76.64375 138.56157L81.39375 138.56157L81.39375 139.5772L76.64375 139.5772L76.64375 142.49907L81.90938 142.49907L81.90938 143.5147L75.50313 143.5147ZM85.55 142.12407L85.55 139.7647L83.22188 139.7647L83.22188 138.78032L85.55 138.78032L85.55 136.4522L86.55 136.4522L86.55 138.78032L88.89375 138.78032L88.89375 139.7647L86.55 139.7647L86.55 142.12407L85.55 142.12407ZM94.01875 143.5147L92.97188 143.5147L92.97188 136.79594Q92.58125 137.15532 91.95625 137.53032Q91.34688 137.8897 90.8625 138.06157L90.8625 137.04594Q91.7375 136.62407 92.39375 136.04594Q93.06563 135.4522 93.34688 134.8897L94.01875 134.8897L94.01875 143.5147ZM101.01875 143.5147L99.97188 143.5147L99.97188 136.79594Q99.58125 137.15532 98.95625 137.53032Q98.34688 137.8897 97.8625 138.06157L97.8625 137.04594Q98.7375 136.62407 99.39375 136.04594Q100.06563 135.4522 100.34688 134.8897L101.01875 134.8897L101.01875 143.5147Z" fill-rule="nonzero"/><path fill="#000000" d="M51.05 95.02554L52.1125 94.88492Q52.284374 95.77554 52.721874 96.18179Q53.159374 96.57242 53.784374 96.57242Q54.534374 96.57242 55.05 96.05679Q55.565624 95.54117 55.565624 94.77554Q55.565624 94.05679 55.08125 93.58804Q54.6125 93.10367 53.878124 93.10367Q53.58125 93.10367 53.128124 93.22867L53.253124 92.29117Q53.3625 92.30679 53.425 92.30679Q54.096874 92.30679 54.628124 91.96304Q55.175 91.60367 55.175 90.86929Q55.175 90.29117 54.784374 89.91617Q54.39375 89.52554 53.76875 89.52554Q53.159374 89.52554 52.7375 89.91617Q52.33125 90.30679 52.221874 91.07242L51.159374 90.88492Q51.346874 89.83804 52.034374 89.25992Q52.721874 88.66617 53.7375 88.66617Q54.440624 88.66617 55.034374 88.97867Q55.628124 89.27554 55.940624 89.79117Q56.253124 90.30679 56.253124 90.90054Q56.253124 91.44742 55.95625 91.91617Q55.659374 92.36929 55.08125 92.63492Q55.83125 92.80679 56.253124 93.36929Q56.675 93.91617 56.675 94.75992Q56.675 95.88492 55.846874 96.66617Q55.034374 97.44742 53.784374 97.44742Q52.659374 97.44742 51.909374 96.77554Q51.159374 96.08804 51.05 95.02554ZM58.64375 97.29117L58.64375 96.08804L59.846874 96.08804L59.846874 97.29117L58.64375 97.29117ZM61.20625 95.30679L62.221874 95.21304Q62.346874 95.93179 62.70625 96.25992Q63.08125 96.57242 63.64375 96.57242Q64.12813 96.57242 64.4875 96.35367Q64.8625 96.11929 65.09688 95.75992Q65.33125 95.38492 65.4875 94.75992Q65.64375 94.11929 65.64375 93.46304Q65.64375 93.38492 65.64375 93.24429Q65.33125 93.74429 64.78438 94.07242Q64.2375 94.38492 63.596874 94.38492Q62.51875 94.38492 61.784374 93.61929Q61.05 92.83804 61.05 91.57242Q61.05 90.25992 61.815624 89.46304Q62.596874 88.66617 63.753124 88.66617Q64.58125 88.66617 65.26875 89.11929Q65.97188 89.57242 66.33125 90.41617Q66.69063 91.24429 66.69063 92.82242Q66.69063 94.46304 66.33125 95.44742Q65.9875 96.41617 65.26875 96.93179Q64.56563 97.43179 63.628124 97.43179Q62.6125 97.43179 61.971874 96.88492Q61.33125 96.32242 61.20625 95.30679ZM65.51875 91.50992Q65.51875 90.60367 65.03438 90.07242Q64.56563 89.54117 63.878124 89.54117Q63.175 89.54117 62.64375 90.11929Q62.128124 90.68179 62.128124 91.60367Q62.128124 92.41617 62.628124 92.93179Q63.128124 93.44742 63.846874 93.44742Q64.58125 93.44742 65.05 92.93179Q65.51875 92.41617 65.51875 91.50992ZM73.51875 90.80679L72.47188 90.88492Q72.33125 90.25992 72.08125 89.97867Q71.64375 89.52554 71.01875 89.52554Q70.51875 89.52554 70.12813 89.80679Q69.64375 90.18179 69.34688 90.88492Q69.06563 91.57242 69.05 92.85367Q69.425 92.27554 69.97188 91.99429Q70.53438 91.71304 71.14375 91.71304Q72.19063 91.71304 72.925 92.49429Q73.675 93.27554 73.675 94.49429Q73.675 95.30679 73.31563 96.00992Q72.97188 96.69742 72.3625 97.07242Q71.75313 97.43179 70.9875 97.43179Q69.65938 97.43179 68.83125 96.46304Q68.00313 95.49429 68.00313 93.27554Q68.00313 90.77554 68.925 89.65054Q69.72188 88.66617 71.08125 88.66617Q72.09688 88.66617 72.7375 89.24429Q73.39375 89.80679 73.51875 90.80679ZM69.22188 94.50992Q69.22188 95.05679 69.44063 95.55679Q69.675 96.04117 70.08125 96.30679Q70.50313 96.57242 70.97188 96.57242Q71.62813 96.57242 72.1125 96.04117Q72.59688 95.49429 72.59688 94.57242Q72.59688 93.68179 72.1125 93.16617Q71.64375 92.65054 70.925 92.65054Q70.20625 92.65054 69.70625 93.16617Q69.22188 93.68179 69.22188 94.50992ZM75.50313 97.29117L75.50313 88.69742L81.70625 88.69742L81.70625 89.71304L76.64375 89.71304L76.64375 92.33804L81.39375 92.33804L81.39375 93.35367L76.64375 93.35367L76.64375 96.27554L81.90938 96.27554L81.90938 97.29117L75.50313 97.29117ZM85.55 95.90054L85.55 93.54117L83.22188 93.54117L83.22188 92.55679L85.55 92.55679L85.55 90.22867L86.55 90.22867L86.55 92.55679L88.89375 92.55679L88.89375 93.54117L86.55 93.54117L86.55 95.90054L85.55 95.90054ZM94.01875 97.29117L92.97188 97.29117L92.97188 90.57242Q92.58125 90.93179 91.95625 91.30679Q91.34688 91.66617 90.8625 91.83804L90.8625 90.82242Q91.7375 90.40054 92.39375 89.82242Q93.06563 89.22867 93.34688 88.66617L94.01875 88.66617L94.01875 97.29117ZM101.01875 97.29117L99.97188 97.29117L99.97188 90.57242Q99.58125 90.93179 98.95625 91.30679Q98.34688 91.66617 97.8625 91.83804L97.8625 90.82242Q98.7375 90.40054 99.39375 89.82242Q100.06563 89.22867 100.34688 88.66617L101.01875 88.66617L101.01875 97.29117Z" fill-rule="nonzero"/><path fill="#000000" d="M168.15384 315.2L169.26321 315.10626Q169.38821 315.91876 169.82571 316.325Q170.27884 316.73126 170.91946 316.73126Q171.66946 316.73126 172.20071 316.15314Q172.73196 315.575 172.73196 314.6375Q172.73196 313.73126 172.21634 313.21564Q171.71634 312.6844 170.88821 312.6844Q170.38821 312.6844 169.96634 312.91876Q169.56009 313.15314 169.32571 313.5125L168.34134 313.3875L169.16946 308.98126L173.45071 308.98126L173.45071 309.98126L170.01321 309.98126L169.56009 312.29376Q170.32571 311.7469 171.16946 311.7469Q172.29446 311.7469 173.06009 312.52814Q173.84134 313.3094 173.84134 314.54376Q173.84134 315.7 173.16946 316.5594Q172.34134 317.59064 170.91946 317.59064Q169.74759 317.59064 168.99759 316.9344Q168.26321 316.27814 168.15384 315.2Z" fill-rule="nonzero"/><path fill="#000000" d="M237.00528 317.45L235.9584 317.45L235.9584 310.73126Q235.56778 311.09064 234.94278 311.46564Q234.3334 311.825 233.84903 311.9969L233.84903 310.98126Q234.72403 310.5594 235.38028 309.98126Q236.05215 309.3875 236.3334 308.825L237.00528 308.825L237.00528 317.45ZM240.03653 313.21564Q240.03653 311.6844 240.34903 310.7625Q240.66153 309.825 241.2709 309.325Q241.8959 308.825 242.8334 308.825Q243.5209 308.825 244.03653 309.10626Q244.56778 309.3875 244.91153 309.91876Q245.25528 310.4344 245.44278 311.1844Q245.63028 311.9344 245.63028 313.21564Q245.63028 314.73126 245.31778 315.65314Q245.0209 316.575 244.3959 317.09064Q243.78653 317.59064 242.8334 317.59064Q241.59903 317.59064 240.88028 316.7Q240.03653 315.6375 240.03653 313.21564ZM241.11465 313.21564Q241.11465 315.325 241.61465 316.02814Q242.11465 316.73126 242.8334 316.73126Q243.56778 316.73126 244.05215 316.02814Q244.55215 315.325 244.55215 313.21564Q244.55215 311.09064 244.05215 310.40314Q243.56778 309.7 242.81778 309.7Q242.09903 309.7 241.66153 310.3094Q241.11465 311.09064 241.11465 313.21564Z" fill-rule="nonzero"/><path fill="#000000" d="M305.38797 317.45L304.3411 317.45L304.3411 310.73126Q303.95047 311.09064 303.32547 311.46564Q302.7161 311.825 302.23172 311.9969L302.23172 310.98126Q303.10672 310.5594 303.76297 309.98126Q304.43484 309.3875 304.7161 308.825L305.38797 308.825L305.38797 317.45ZM308.41922 315.2L309.5286 315.10626Q309.6536 315.91876 310.0911 316.325Q310.54422 316.73126 311.18484 316.73126Q311.93484 316.73126 312.4661 316.15314Q312.99734 315.575 312.99734 314.6375Q312.99734 313.73126 312.48172 313.21564Q311.98172 312.6844 311.1536 312.6844Q310.6536 312.6844 310.23172 312.91876Q309.82547 313.15314 309.5911 313.5125L308.60672 313.3875L309.43484 308.98126L313.7161 308.98126L313.7161 309.98126L310.2786 309.98126L309.82547 312.29376Q310.5911 311.7469 311.43484 311.7469Q312.55984 311.7469 313.32547 312.52814Q314.10672 313.3094 314.10672 314.54376Q314.10672 315.7 313.43484 316.5594Q312.60672 317.59064 311.18484 317.59064Q310.01297 317.59064 309.26297 316.9344Q308.5286 316.27814 308.41922 315.2Z" fill-rule="nonzero"/><path fill="#000000" d="M375.3488 316.4344L375.3488 317.45L369.6613 317.45Q369.6613 317.075 369.7863 316.71564Q370.00504 316.1375 370.4738 315.575Q370.95816 315.0125 371.8644 314.27814Q373.27066 313.1219 373.75504 312.45Q374.25504 311.77814 374.25504 311.1844Q374.25504 310.5594 373.8019 310.1375Q373.3488 309.7 372.63004 309.7Q371.8644 309.7 371.4113 310.15314Q370.95816 310.60626 370.94254 311.41876L369.8644 311.3094Q369.9738 310.09064 370.69254 309.46564Q371.4269 308.825 372.6613 308.825Q373.89566 308.825 374.6144 309.5125Q375.33316 310.2 375.33316 311.21564Q375.33316 311.73126 375.1144 312.23126Q374.9113 312.71564 374.4113 313.27814Q373.9269 313.825 372.8019 314.77814Q371.8488 315.575 371.56754 315.8719Q371.3019 316.15314 371.13004 316.4344L375.3488 316.4344ZM376.8019 313.21564Q376.8019 311.6844 377.1144 310.7625Q377.4269 309.825 378.0363 309.325Q378.6613 308.825 379.5988 308.825Q380.2863 308.825 380.8019 309.10626Q381.33316 309.3875 381.6769 309.91876Q382.02066 310.4344 382.20816 311.1844Q382.39566 311.9344 382.39566 313.21564Q382.39566 314.73126 382.08316 315.65314Q381.7863 316.575 381.1613 317.09064Q380.5519 317.59064 379.5988 317.59064Q378.3644 317.59064 377.64566 316.7Q376.8019 315.6375 376.8019 313.21564ZM377.88004 313.21564Q377.88004 315.325 378.38004 316.02814Q378.88004 316.73126 379.5988 316.73126Q380.33316 316.73126 380.81754 316.02814Q381.31754 315.325 381.31754 313.21564Q381.31754 311.09064 380.81754 310.40314Q380.33316 309.7 379.58316 309.7Q378.8644 309.7 378.4269 310.3094Q377.88004 311.09064 377.88004 313.21564Z" fill-rule="nonzero"/><path fill="#000000" d="M443.73148 316.4344L443.73148 317.45L438.04398 317.45Q438.04398 317.075 438.16898 316.71564Q438.38773 316.1375 438.85648 315.575Q439.34085 315.0125 440.2471 314.27814Q441.65335 313.1219 442.13773 312.45Q442.63773 311.77814 442.63773 311.1844Q442.63773 310.5594 442.1846 310.1375Q441.73148 309.7 441.01273 309.7Q440.2471 309.7 439.79398 310.15314Q439.34085 310.60626 439.32523 311.41876L438.2471 311.3094Q438.35648 310.09064 439.07523 309.46564Q439.8096 308.825 441.04398 308.825Q442.27835 308.825 442.9971 309.5125Q443.71585 310.2 443.71585 311.21564Q443.71585 311.73126 443.4971 312.23126Q443.29398 312.71564 442.79398 313.27814Q442.3096 313.825 441.1846 314.77814Q440.23148 315.575 439.95023 315.8719Q439.6846 316.15314 439.51273 316.4344L443.73148 316.4344ZM445.1846 315.2L446.29398 315.10626Q446.41898 315.91876 446.85648 316.325Q447.3096 316.73126 447.95023 316.73126Q448.70023 316.73126 449.23148 316.15314Q449.76273 315.575 449.76273 314.6375Q449.76273 313.73126 449.2471 313.21564Q448.7471 312.6844 447.91898 312.6844Q447.41898 312.6844 446.9971 312.91876Q446.59085 313.15314 446.35648 313.5125L445.3721 313.3875L446.20023 308.98126L450.48148 308.98126L450.48148 309.98126L447.04398 309.98126L446.59085 312.29376Q447.35648 311.7469 448.20023 311.7469Q449.32523 311.7469 450.09085 312.52814Q450.8721 313.3094 450.8721 314.54376Q450.8721 315.7 450.20023 316.5594Q449.3721 317.59064 447.95023 317.59064Q446.77835 317.59064 446.02835 316.9344Q445.29398 316.27814 445.1846 315.2Z" fill-rule="nonzero"/><path fill="#000000" d="M506.5673 315.1844L507.6298 315.04376Q507.80167 315.9344 508.23917 316.34064Q508.67667 316.73126 509.30167 316.73126Q510.05167 316.73126 510.5673 316.21564Q511.08292 315.7 511.08292 314.9344Q511.08292 314.21564 510.59854 313.7469Q510.1298 313.2625 509.39542 313.2625Q509.09854 313.2625 508.64542 313.3875L508.77042 312.45Q508.8798 312.46564 508.9423 312.46564Q509.61417 312.46564 510.14542 312.1219Q510.6923 311.7625 510.6923 311.02814Q510.6923 310.45 510.30167 310.075Q509.91104 309.6844 509.28604 309.6844Q508.67667 309.6844 508.2548 310.075Q507.84854 310.46564 507.73917 311.23126L506.67667 311.04376Q506.86417 309.9969 507.55167 309.41876Q508.23917 308.825 509.2548 308.825Q509.95792 308.825 510.55167 309.1375Q511.14542 309.4344 511.45792 309.95Q511.77042 310.46564 511.77042 311.0594Q511.77042 311.60626 511.47354 312.075Q511.17667 312.52814 510.59854 312.79376Q511.34854 312.96564 511.77042 313.52814Q512.19226 314.075 512.19226 314.91876Q512.19226 316.04376 511.36417 316.825Q510.55167 317.60626 509.30167 317.60626Q508.17667 317.60626 507.42667 316.9344Q506.67667 316.2469 506.5673 315.1844ZM513.56726 313.21564Q513.56726 311.6844 513.87976 310.7625Q514.19226 309.825 514.80164 309.325Q515.42664 308.825 516.36414 308.825Q517.05164 308.825 517.56726 309.10626Q518.0985 309.3875 518.44226 309.91876Q518.786 310.4344 518.9735 311.1844Q519.161 311.9344 519.161 313.21564Q519.161 314.73126 518.8485 315.65314Q518.55164 316.575 517.92664 317.09064Q517.31726 317.59064 516.36414 317.59064Q515.12976 317.59064 514.411 316.7Q513.56726 315.6375 513.56726 313.21564ZM514.6454 313.21564Q514.6454 315.325 515.1454 316.02814Q515.6454 316.73126 516.36414 316.73126Q517.0985 316.73126 517.5829 316.02814Q518.0829 315.325 518.0829 313.21564Q518.0829 311.09064 517.5829 310.40314Q517.0985 309.7 516.3485 309.7Q515.62976 309.7 515.19226 310.3094Q514.6454 311.09064 514.6454 313.21564Z" fill-rule="nonzero"/><path fill="#000000" d="M574.95 315.1844L576.0125 315.04376Q576.1844 315.9344 576.6219 316.34064Q577.0594 316.73126 577.6844 316.73126Q578.4344 316.73126 578.95 316.21564Q579.46564 315.7 579.46564 314.9344Q579.46564 314.21564 578.98126 313.7469Q578.5125 313.2625 577.77814 313.2625Q577.48126 313.2625 577.02814 313.3875L577.15314 312.45Q577.2625 312.46564 577.325 312.46564Q577.9969 312.46564 578.52814 312.1219Q579.075 311.7625 579.075 311.02814Q579.075 310.45 578.6844 310.075Q578.29376 309.6844 577.66876 309.6844Q577.0594 309.6844 576.6375 310.075Q576.23126 310.46564 576.1219 311.23126L575.0594 311.04376Q575.2469 309.9969 575.9344 309.41876Q576.6219 308.825 577.6375 308.825Q578.34064 308.825 578.9344 309.1375Q579.52814 309.4344 579.84064 309.95Q580.15314 310.46564 580.15314 311.0594Q580.15314 311.60626 579.85626 312.075Q579.5594 312.52814 578.98126 312.79376Q579.73126 312.96564 580.15314 313.52814Q580.575 314.075 580.575 314.91876Q580.575 316.04376 579.7469 316.825Q578.9344 317.60626 577.6844 317.60626Q576.5594 317.60626 575.8094 316.9344Q575.0594 316.2469 574.95 315.1844ZM581.95 315.2L583.0594 315.10626Q583.1844 315.91876 583.6219 316.325Q584.075 316.73126 584.71564 316.73126Q585.46564 316.73126 585.9969 316.15314Q586.52814 315.575 586.52814 314.6375Q586.52814 313.73126 586.0125 313.21564Q585.5125 312.6844 584.6844 312.6844Q584.1844 312.6844 583.7625 312.91876Q583.35626 313.15314 583.1219 313.5125L582.1375 313.3875L582.96564 308.98126L587.2469 308.98126L587.2469 309.98126L583.8094 309.98126L583.35626 312.29376Q584.1219 311.7469 584.96564 311.7469Q586.09064 311.7469 586.85626 312.52814Q587.6375 313.3094 587.6375 314.54376Q587.6375 315.7 586.96564 316.5594Q586.1375 317.59064 584.71564 317.59064Q583.54376 317.59064 582.79376 316.9344Q582.0594 316.27814 581.95 315.2Z" fill-rule="nonzero"/><path fill="#757575" d="M26.64375 36.26875Q25.659374 37.096874 24.753124 37.440624Q23.846874 37.784374 22.815624 37.784374Q21.1125 37.784374 20.190624 36.95625Q19.26875 36.1125 19.26875 34.815624Q19.26875 34.05 19.6125 33.425Q19.971874 32.8 20.534374 32.425Q21.096874 32.034374 21.8 31.83125Q22.315624 31.70625 23.3625 31.565624Q25.4875 31.315624 26.4875 30.971874Q26.503124 30.6125 26.503124 30.503124Q26.503124 29.440624 26.003124 28.9875Q25.33125 28.39375 24.003124 28.39375Q22.753124 28.39375 22.159374 28.83125Q21.58125 29.26875 21.3 30.378124L19.58125 30.14375Q19.815624 29.034374 20.346874 28.3625Q20.878124 27.675 21.89375 27.315624Q22.909374 26.940624 24.253124 26.940624Q25.58125 26.940624 26.409374 27.253124Q27.2375 27.565624 27.628124 28.05Q28.01875 28.51875 28.175 29.2375Q28.26875 29.690624 28.26875 30.8625L28.26875 33.20625Q28.26875 35.659374 28.378124 36.315624Q28.4875 36.95625 28.83125 37.55L26.9875 37.55Q26.721874 37.003124 26.64375 36.26875ZM26.4875 32.346874Q25.534374 32.7375 23.6125 33.003124Q22.534374 33.159374 22.08125 33.3625Q21.64375 33.55 21.39375 33.925Q21.14375 34.3 21.14375 34.76875Q21.14375 35.471874 21.675 35.940624Q22.20625 36.409374 23.2375 36.409374Q24.253124 36.409374 25.034374 35.971874Q25.83125 35.51875 26.20625 34.753124Q26.4875 34.14375 26.4875 32.9875L26.4875 32.346874ZM33.753124 37.55L29.8 27.175L31.659374 27.175L33.89375 33.39375Q34.253124 34.39375 34.55 35.471874Q34.784374 34.659374 35.20625 33.503124L37.503124 27.175L39.315624 27.175L35.39375 37.55L33.753124 37.55ZM46.971874 34.20625L48.784374 34.440624Q48.3625 36.01875 47.190624 36.909374Q46.034374 37.784374 44.221874 37.784374Q41.95625 37.784374 40.6125 36.39375Q39.284374 34.9875 39.284374 32.45625Q39.284374 29.83125 40.628124 28.39375Q41.971874 26.940624 44.128124 26.940624Q46.20625 26.940624 47.51875 28.3625Q48.846874 29.76875 48.846874 32.346874Q48.846874 32.503124 48.83125 32.815624L41.096874 32.815624Q41.190624 34.51875 42.065624 35.425Q42.940624 36.33125 44.2375 36.33125Q45.20625 36.33125 45.878124 35.83125Q46.565624 35.315624 46.971874 34.20625ZM41.190624 31.3625L46.9875 31.3625Q46.878124 30.065624 46.33125 29.409374Q45.4875 28.39375 44.14375 28.39375Q42.940624 28.39375 42.1125 29.20625Q41.284374 30.003124 41.190624 31.3625ZM50.846874 37.55L50.846874 27.175L52.425 27.175L52.425 28.753124Q53.034374 27.64375 53.55 27.3Q54.065624 26.940624 54.675 26.940624Q55.565624 26.940624 56.4875 27.503124L55.878124 29.14375Q55.2375 28.753124 54.596874 28.753124Q54.01875 28.753124 53.55 29.1125Q53.096874 29.45625 52.89375 30.065624Q52.6125 31.003124 52.6125 32.1125L52.6125 37.55L50.846874 37.55ZM64.64375 36.26875Q63.659374 37.096874 62.753124 37.440624Q61.846874 37.784374 60.815624 37.784374Q59.1125 37.784374 58.190624 36.95625Q57.26875 36.1125 57.26875 34.815624Q57.26875 34.05 57.6125 33.425Q57.971874 32.8 58.534374 32.425Q59.096874 32.034374 59.8 31.83125Q60.315624 31.70625 61.3625 31.565624Q63.4875 31.315624 64.4875 30.971874Q64.50313 30.6125 64.50313 30.503124Q64.50313 29.440624 64.00313 28.9875Q63.33125 28.39375 62.003124 28.39375Q60.753124 28.39375 60.159374 28.83125Q59.58125 29.26875 59.3 30.378124L57.58125 30.14375Q57.815624 29.034374 58.346874 28.3625Q58.878124 27.675 59.89375 27.315624Q60.909374 26.940624 62.253124 26.940624Q63.58125 26.940624 64.40938 27.253124Q65.2375 27.565624 65.62813 28.05Q66.01875 28.51875 66.175 29.2375Q66.26875 29.690624 66.26875 30.8625L66.26875 33.20625Q66.26875 35.659374 66.37813 36.315624Q66.4875 36.95625 66.83125 37.55L64.9875 37.55Q64.72188 37.003124 64.64375 36.26875ZM64.4875 32.346874Q63.534374 32.7375 61.6125 33.003124Q60.534374 33.159374 60.08125 33.3625Q59.64375 33.55 59.39375 33.925Q59.14375 34.3 59.14375 34.76875Q59.14375 35.471874 59.675 35.940624Q60.20625 36.409374 61.2375 36.409374Q62.253124 36.409374 63.034374 35.971874Q63.83125 35.51875 64.20625 34.753124Q64.4875 34.14375 64.4875 32.9875L64.4875 32.346874ZM68.55 38.409374L70.25313 38.659374Q70.3625 39.45625 70.84688 39.815624Q71.50313 40.3 72.64375 40.3Q73.8625 40.3 74.51875 39.815624Q75.19063 39.33125 75.425 38.45625Q75.56563 37.909374 75.55 36.190624Q74.39375 37.55 72.675 37.55Q70.53438 37.55 69.3625 36.003124Q68.19063 34.45625 68.19063 32.3Q68.19063 30.815624 68.72188 29.565624Q69.26875 28.315624 70.28438 27.628124Q71.31563 26.940624 72.69063 26.940624Q74.51875 26.940624 75.72188 28.425L75.72188 27.175L77.33125 27.175L77.33125 36.14375Q77.33125 38.565624 76.83125 39.565624Q76.34688 40.58125 75.26875 41.159374Q74.20625 41.753124 72.64375 41.753124Q70.8 41.753124 69.64375 40.925Q68.50313 40.096874 68.55 38.409374ZM70.00313 32.175Q70.00313 34.221874 70.81563 35.159374Q71.62813 36.096874 72.84688 36.096874Q74.05 36.096874 74.8625 35.159374Q75.69063 34.221874 75.69063 32.2375Q75.69063 30.33125 74.84688 29.3625Q74.00313 28.39375 72.81563 28.39375Q71.64375 28.39375 70.81563 29.346874Q70.00313 30.3 70.00313 32.175ZM86.97188 34.20625L88.78438 34.440624Q88.3625 36.01875 87.19063 36.909374Q86.03438 37.784374 84.22188 37.784374Q81.95625 37.784374 80.6125 36.39375Q79.28438 34.9875 79.28438 32.45625Q79.28438 29.83125 80.62813 28.39375Q81.97188 26.940624 84.12813 26.940624Q86.20625 26.940624 87.51875 28.3625Q88.84688 29.76875 88.84688 32.346874Q88.84688 32.503124 88.83125 32.815624L81.09688 32.815624Q81.19063 34.51875 82.06563 35.425Q82.94063 36.33125 84.2375 36.33125Q85.20625 36.33125 85.87813 35.83125Q86.56563 35.315624 86.97188 34.20625ZM81.19063 31.3625L86.9875 31.3625Q86.87813 30.065624 86.33125 29.409374Q85.4875 28.39375 84.14375 28.39375Q82.94063 28.39375 82.1125 29.20625Q81.28438 30.003124 81.19063 31.3625ZM97.40938 37.55L97.40938 23.2375L99.31563 23.2375L99.31563 37.55L97.40938 37.55ZM102.8625 37.55L102.8625 27.175L104.45625 27.175L104.45625 28.659374Q105.59688 26.940624 107.75313 26.940624Q108.69063 26.940624 109.47188 27.284374Q110.26875 27.6125 110.65938 28.159374Q111.05 28.70625 111.20625 29.45625Q111.3 29.95625 111.3 31.175L111.3 37.55L109.53438 37.55L109.53438 31.2375Q109.53438 30.159374 109.33125 29.628124Q109.12813 29.096874 108.59688 28.784374Q108.08125 28.471874 107.37813 28.471874Q106.25313 28.471874 105.44063 29.190624Q104.62813 29.89375 104.62813 31.878124L104.62813 37.55L102.8625 37.55ZM112.15938 34.45625L113.90938 34.175Q114.05 35.221874 114.72188 35.784374Q115.39375 36.33125 116.59688 36.33125Q117.8 36.33125 118.37813 35.846874Q118.97188 35.346874 118.97188 34.690624Q118.97188 34.096874 118.45625 33.753124Q118.09688 33.51875 116.65938 33.159374Q114.72188 32.659374 113.97188 32.315624Q113.2375 31.95625 112.84688 31.33125Q112.45625 30.690624 112.45625 29.925Q112.45625 29.2375 112.76875 28.64375Q113.09688 28.05 113.64375 27.659374Q114.05 27.3625 114.75313 27.159374Q115.47188 26.940624 116.28438 26.940624Q117.50313 26.940624 118.425 27.3Q119.34688 27.64375 119.78438 28.253124Q120.22188 28.846874 120.39375 29.846874L118.675 30.08125Q118.55 29.284374 117.9875 28.846874Q117.425 28.39375 116.40938 28.39375Q115.19063 28.39375 114.675 28.8Q114.15938 29.190624 114.15938 29.721874Q114.15938 30.065624 114.37813 30.346874Q114.58125 30.628124 115.05 30.815624Q115.31563 30.909374 116.59688 31.253124Q118.47188 31.753124 119.20625 32.08125Q119.94063 32.39375 120.3625 33.003124Q120.78438 33.596874 120.78438 34.503124Q120.78438 35.378124 120.26875 36.159374Q119.75313 36.940624 118.78438 37.3625Q117.81563 37.784374 116.59688 37.784374Q114.58125 37.784374 113.51875 36.940624Q112.45625 36.096874 112.15938 34.45625ZM126.70625 35.971874L126.95625 37.534374Q126.22188 37.690624 125.62813 37.690624Q124.675 37.690624 124.14375 37.39375Q123.62813 37.08125 123.40938 36.596874Q123.19063 36.096874 123.19063 34.51875L123.19063 28.55L121.90938 28.55L121.90938 27.175L123.19063 27.175L123.19063 24.6125L124.94063 23.55L124.94063 27.175L126.70625 27.175L126.70625 28.55L124.94063 28.55L124.94063 34.6125Q124.94063 35.3625 125.03438 35.58125Q125.12813 35.784374 125.33125 35.925Q125.55 36.05 125.94063 36.05Q126.22188 36.05 126.70625 35.971874ZM128.84688 37.55L128.84688 27.175L130.425 27.175L130.425 28.753124Q131.03438 27.64375 131.55 27.3Q132.06563 26.940624 132.675 26.940624Q133.56563 26.940624 134.4875 27.503124L133.87813 29.14375Q133.2375 28.753124 132.59688 28.753124Q132.01875 28.753124 131.55 29.1125Q131.09688 29.45625 130.89375 30.065624Q130.6125 31.003124 130.6125 32.1125L130.6125 37.55L128.84688 37.55ZM142.65938 37.55L142.65938 36.01875Q141.45625 37.784374 139.37813 37.784374Q138.45625 37.784374 137.65938 37.440624Q136.8625 37.08125 136.47188 36.55Q136.09688 36.01875 135.94063 35.2375Q135.83125 34.721874 135.83125 33.596874L135.83125 27.175L137.58125 27.175L137.58125 32.925Q137.58125 34.3 137.69063 34.784374Q137.8625 35.471874 138.39375 35.878124Q138.94063 36.26875 139.72188 36.26875Q140.51875 36.26875 141.20625 35.8625Q141.90938 35.45625 142.19063 34.76875Q142.4875 34.065624 142.4875 32.7375L142.4875 27.175L144.2375 27.175L144.2375 37.55L142.65938 37.55ZM152.64375 33.753124L154.3625 33.971874Q154.08125 35.76875 152.90938 36.784374Q151.75313 37.784374 150.05 37.784374Q147.925 37.784374 146.62813 36.39375Q145.33125 35.003124 145.33125 32.409374Q145.33125 30.721874 145.87813 29.471874Q146.44063 28.20625 147.58125 27.58125Q148.72188 26.940624 150.06563 26.940624Q151.75313 26.940624 152.81563 27.8Q153.89375 28.659374 154.20625 30.221874L152.4875 30.4875Q152.25313 29.440624 151.62813 28.925Q151.00313 28.39375 150.12813 28.39375Q148.8 28.39375 147.97188 29.346874Q147.14375 30.3 147.14375 32.346874Q147.14375 34.440624 147.94063 35.39375Q148.7375 36.33125 150.03438 36.33125Q151.06563 36.33125 151.75313 35.70625Q152.45625 35.065624 152.64375 33.753124ZM159.70625 35.971874L159.95625 37.534374Q159.22188 37.690624 158.62813 37.690624Q157.675 37.690624 157.14375 37.39375Q156.62813 37.08125 156.40938 36.596874Q156.19063 36.096874 156.19063 34.51875L156.19063 28.55L154.90938 28.55L154.90938 27.175L156.19063 27.175L156.19063 24.6125L157.94063 23.55L157.94063 27.175L159.70625 27.175L159.70625 28.55L157.94063 28.55L157.94063 34.6125Q157.94063 35.3625 158.03438 35.58125Q158.12813 35.784374 158.33125 35.925Q158.55 36.05 158.94063 36.05Q159.22188 36.05 159.70625 35.971874ZM161.87813 25.253124L161.87813 23.2375L163.64375 23.2375L163.64375 25.253124L161.87813 25.253124ZM161.87813 37.55L161.87813 27.175L163.64375 27.175L163.64375 37.55L161.87813 37.55ZM165.22188 32.3625Q165.22188 29.4875 166.81563 28.096874Q168.15938 26.940624 170.08125 26.940624Q172.22188 26.940624 173.56563 28.346874Q174.925 29.753124 174.925 32.221874Q174.925 34.221874 174.33125 35.378124Q173.7375 36.51875 172.58125 37.159374Q171.44063 37.784374 170.08125 37.784374Q167.89375 37.784374 166.55 36.39375Q165.22188 34.9875 165.22188 32.3625ZM167.01875 32.3625Q167.01875 34.3625 167.87813 35.346874Q168.75313 36.33125 170.08125 36.33125Q171.39375 36.33125 172.25313 35.346874Q173.12813 34.346874 173.12813 32.3Q173.12813 30.378124 172.25313 29.39375Q171.37813 28.39375 170.08125 28.39375Q168.75313 28.39375 167.87813 29.39375Q167.01875 30.378124 167.01875 32.3625ZM176.8625 37.55L176.8625 27.175L178.45625 27.175L178.45625 28.659374Q179.59688 26.940624 181.75313 26.940624Q182.69063 26.940624 183.47188 27.284374Q184.26875 27.6125 184.65938 28.159374Q185.05 28.70625 185.20625 29.45625Q185.3 29.95625 185.3 31.175L185.3 37.55L183.53438 37.55L183.53438 31.2375Q183.53438 30.159374 183.33125 29.628124Q183.12813 29.096874 182.59688 28.784374Q182.08125 28.471874 181.37813 28.471874Q180.25313 28.471874 179.44063 29.190624Q178.62813 29.89375 178.62813 31.878124L178.62813 37.55L176.8625 37.55ZM186.15938 34.45625L187.90938 34.175Q188.05 35.221874 188.72188 35.784374Q189.39375 36.33125 190.59688 36.33125Q191.8 36.33125 192.37813 35.846874Q192.97188 35.346874 192.97188 34.690624Q192.97188 34.096874 192.45625 33.753124Q192.09688 33.51875 190.65938 33.159374Q188.72188 32.659374 187.97188 32.315624Q187.2375 31.95625 186.84688 31.33125Q186.45625 30.690624 186.45625 29.925Q186.45625 29.2375 186.76875 28.64375Q187.09688 28.05 187.64375 27.659374Q188.05 27.3625 188.75313 27.159374Q189.47188 26.940624 190.28438 26.940624Q191.50313 26.940624 192.425 27.3Q193.34688 27.64375 193.78438 28.253124Q194.22188 28.846874 194.39375 29.846874L192.675 30.08125Q192.55 29.284374 191.9875 28.846874Q191.425 28.39375 190.40938 28.39375Q189.19063 28.39375 188.675 28.8Q188.15938 29.190624 188.15938 29.721874Q188.15938 30.065624 188.37813 30.346874Q188.58125 30.628124 189.05 30.815624Q189.31563 30.909374 190.59688 31.253124Q192.47188 31.753124 193.20625 32.08125Q193.94063 32.39375 194.3625 33.003124Q194.78438 33.596874 194.78438 34.503124Q194.78438 35.378124 194.26875 36.159374Q193.75313 36.940624 192.78438 37.3625Q191.81563 37.784374 190.59688 37.784374Q188.58125 37.784374 187.51875 36.940624Q186.45625 36.096874 186.15938 34.45625ZM205.75313 37.55L201.8 27.175L203.65938 27.175L205.89375 33.39375Q206.25313 34.39375 206.55 35.471874Q206.78438 34.659374 207.20625 33.503124L209.50313 27.175L211.31563 27.175L207.39375 37.55L205.75313 37.55ZM211.15938 34.45625L212.90938 34.175Q213.05 35.221874 213.72188 35.784374Q214.39375 36.33125 215.59688 36.33125Q216.8 36.33125 217.37813 35.846874Q217.97188 35.346874 217.97188 34.690624Q217.97188 34.096874 217.45625 33.753124Q217.09688 33.51875 215.65938 33.159374Q213.72188 32.659374 212.97188 32.315624Q212.2375 31.95625 211.84688 31.33125Q211.45625 30.690624 211.45625 29.925Q211.45625 29.2375 211.76875 28.64375Q212.09688 28.05 212.64375 27.659374Q213.05 27.3625 213.75313 27.159374Q214.47188 26.940624 215.28438 26.940624Q216.50313 26.940624 217.425 27.3Q218.34688 27.64375 218.78438 28.253124Q219.22188 28.846874 219.39375 29.846874L217.675 30.08125Q217.55 29.284374 216.9875 28.846874Q216.425 28.39375 215.40938 28.39375Q214.19063 28.39375 213.675 28.8Q213.15938 29.190624 213.15938 29.721874Q213.15938 30.065624 213.37813 30.346874Q213.58125 30.628124 214.05 30.815624Q214.31563 30.909374 215.59688 31.253124Q217.47188 31.753124 218.20625 32.08125Q218.94063 32.39375 219.3625 33.003124Q219.78438 33.596874 219.78438 34.503124Q219.78438 35.378124 219.26875 36.159374Q218.75313 36.940624 217.78438 37.3625Q216.81563 37.784374 215.59688 37.784374Q213.58125 37.784374 212.51875 36.940624Q211.45625 36.096874 211.15938 34.45625ZM227.15938 34.45625L228.90938 34.175Q229.05 35.221874 229.72188 35.784374Q230.39375 36.33125 231.59688 36.33125Q232.8 36.33125 233.37813 35.846874Q233.97188 35.346874 233.97188 34.690624Q233.97188 34.096874 233.45625 33.753124Q233.09688 33.51875 231.65938 33.159374Q229.72188 32.659374 228.97188 32.315624Q228.2375 31.95625 227.84688 31.33125Q227.45625 30.690624 227.45625 29.925Q227.45625 29.2375 227.76875 28.64375Q228.09688 28.05 228.64375 27.659374Q229.05 27.3625 229.75313 27.159374Q230.47188 26.940624 231.28438 26.940624Q232.50313 26.940624 233.425 27.3Q234.34688 27.64375 234.78438 28.253124Q235.22188 28.846874 235.39375 29.846874L233.675 30.08125Q233.55 29.284374 232.9875 28.846874Q232.425 28.39375 231.40938 28.39375Q230.19063 28.39375 229.675 28.8Q229.15938 29.190624 229.15938 29.721874Q229.15938 30.065624 229.37813 30.346874Q229.58125 30.628124 230.05 30.815624Q230.31563 30.909374 231.59688 31.253124Q233.47188 31.753124 234.20625 32.08125Q234.94063 32.39375 235.3625 33.003124Q235.78438 33.596874 235.78438 34.503124Q235.78438 35.378124 235.26875 36.159374Q234.75313 36.940624 233.78438 37.3625Q232.81563 37.784374 231.59688 37.784374Q229.58125 37.784374 228.51875 36.940624Q227.45625 36.096874 227.15938 34.45625ZM241.70625 35.971874L241.95625 37.534374Q241.22188 37.690624 240.62813 37.690624Q239.675 37.690624 239.14375 37.39375Q238.62813 37.08125 238.40938 36.596874Q238.19063 36.096874 238.19063 34.51875L238.19063 28.55L236.90938 28.55L236.90938 27.175L238.19063 27.175L238.19063 24.6125L239.94063 23.55L239.94063 27.175L241.70625 27.175L241.70625 28.55L239.94063 28.55L239.94063 34.6125Q239.94063 35.3625 240.03438 35.58125Q240.12813 35.784374 240.33125 35.925Q240.55 36.05 240.94063 36.05Q241.22188 36.05 241.70625 35.971874ZM243.84688 37.55L243.84688 27.175L245.425 27.175L245.425 28.753124Q246.03438 27.64375 246.55 27.3Q247.06563 26.940624 247.675 26.940624Q248.56563 26.940624 249.4875 27.503124L248.87813 29.14375Q248.2375 28.753124 247.59688 28.753124Q247.01875 28.753124 246.55 29.1125Q246.09688 29.45625 245.89375 30.065624Q245.6125 31.003124 245.6125 32.1125L245.6125 37.55L243.84688 37.55ZM250.87813 25.253124L250.87813 23.2375L252.64375 23.2375L252.64375 25.253124L250.87813 25.253124ZM250.87813 37.55L250.87813 27.175L252.64375 27.175L252.64375 37.55L250.87813 37.55ZM261.59686 37.55L261.59686 36.2375Q260.6125 37.784374 258.6906 37.784374Q257.45624 37.784374 256.40936 37.096874Q255.37813 36.409374 254.8 35.190624Q254.2375 33.971874 254.2375 32.378124Q254.2375 30.815624 254.75313 29.55Q255.26875 28.284374 256.3 27.6125Q257.34686 26.940624 258.6125 26.940624Q259.55 26.940624 260.28436 27.346874Q261.01874 27.7375 261.4875 28.3625L261.4875 23.2375L263.22186 23.2375L263.22186 37.55L261.59686 37.55ZM256.03436 32.378124Q256.03436 34.3625 256.8781 35.346874Q257.72186 36.33125 258.8625 36.33125Q260.01874 36.33125 260.8156 35.39375Q261.6281 34.45625 261.6281 32.51875Q261.6281 30.39375 260.8 29.39375Q259.9875 28.39375 258.78436 28.39375Q257.6125 28.39375 256.8156 29.3625Q256.03436 30.315624 256.03436 32.378124ZM272.97186 34.20625L274.78436 34.440624Q274.3625 36.01875 273.1906 36.909374Q272.03436 37.784374 270.22186 37.784374Q267.95624 37.784374 266.6125 36.39375Q265.28436 34.9875 265.28436 32.45625Q265.28436 29.83125 266.6281 28.39375Q267.97186 26.940624 270.1281 26.940624Q272.20624 26.940624 273.51874 28.3625Q274.84686 29.76875 274.84686 32.346874Q274.84686 32.503124 274.83124 32.815624L267.09686 32.815624Q267.1906 34.51875 268.0656 35.425Q268.9406 36.33125 270.2375 36.33125Q271.20624 36.33125 271.8781 35.83125Q272.5656 35.315624 272.97186 34.20625ZM267.1906 31.3625L272.9875 31.3625Q272.8781 30.065624 272.33124 29.409374Q271.4875 28.39375 270.14374 28.39375Q268.9406 28.39375 268.1125 29.20625Q267.28436 30.003124 267.1906 31.3625Z" fill-rule="nonzero"/></svg>