<svg version="1.1" viewBox="0.0 0.0 600.0 371.0" fill="none" stroke="none" stroke-linecap="square" stroke-miterlimit="10" width="600" height="371" xmlns:xlink="http://www.w3.org/1999/xlink" xmlns="http://www.w3.org/2000/svg"><path fill="#ffffff" d="M0 0L600.0 0L600.0 371.0L0 371.0L0 0Z" fill-rule="nonzero"/><path stroke="#333333" stroke-width="1.0" stroke-linecap="butt" d="M45.5 300.5L581.5 300.5" fill-rule="nonzero"/><path stroke="#cccccc" stroke-width="1.0" stroke-linecap="butt" d="M45.5 258.5L581.5 258.5" fill-rule="nonzero"/><path stroke="#cccccc" stroke-width="1.0" stroke-linecap="butt" d="M45.5 215.5L581.5 215.5" fill-rule="nonzero"/><path stroke="#cccccc" stroke-width="1.0" stroke-linecap="butt" d="M45.5 173.5L581.5 173.5" fill-rule="nonzero"/><path stroke="#cccccc" stroke-width="1.0" stroke-linecap="butt" d="M45.5 130.5L581.5 130.5" fill-rule="nonzero"/><path stroke="#cccccc" stroke-width="1.0" stroke-linecap="butt" d="M45.5 88.5L581.5 88.5" fill-rule="nonzero"/><clipPath id="id_0"><path d="M45.55 88.28333L581.45 88.28333L581.45 300.45L45.55 300.45L45.55 88.28333Z" clip-rule="nonzero"/></clipPath><path stroke="#000000" stroke-width="2.0" stroke-linecap="butt" stroke-opacity="0.0" clip-path="url(#id_0)" d="M128.0 300.0L90.0 300.0L90.0 213.0C90.0 211.89543 90.89543 211.0 92.0 211.0L126.0 211.0C127.10457 211.0 128.0 211.89543 128.0 213.0Z" fill-rule="nonzero"/><path fill="#4285f4" clip-path="url(#id_0)" d="M128.0 300.0L90.0 300.0L90.0 213.0C90.0 211.89543 90.89543 211.0 92.0 211.0L126.0 211.0C127.10457 211.0 128.0 211.89543 128.0 213.0Z" fill-rule="nonzero"/><path stroke="#000000" stroke-width="2.0" stroke-linecap="butt" stroke-opacity="0.0" clip-path="url(#id_0)" d="M251.0 300.0L213.0 300.0L213.0 200.0C213.0 198.89543 213.89543 198.0 215.0 198.0L249.0 198.0C250.10457 198.0 251.0 198.89543 251.0 200.0Z" fill-rule="nonzero"/><path fill="#4285f4" clip-path="url(#id_0)" d="M251.0 300.0L213.0 300.0L213.0 200.0C213.0 198.89543 213.89543 198.0 215.0 198.0L249.0 198.0C250.10457 198.0 251.0 198.89543 251.0 200.0Z" fill-rule="nonzero"/><path stroke="#000000" stroke-width="2.0" stroke-linecap="butt" stroke-opacity="0.0" clip-path="url(#id_0)" d="M374.0 300.0L336.0 300.0L336.0 173.0C336.0 171.89543 336.89542 171.0 338.0 171.0L372.0 171.0C373.10458 171.0 374.0 171.89543 374.0 173.0Z" fill-rule="nonzero"/><path fill="#4285f4" clip-path="url(#id_0)" d="M374.0 300.0L336.0 300.0L336.0 173.0C336.0 171.89543 336.89542 171.0 338.0 171.0L372.0 171.0C373.10458 171.0 374.0 171.89543 374.0 173.0Z" fill-rule="nonzero"/><path stroke="#000000" stroke-width="2.0" stroke-linecap="butt" stroke-opacity="0.0" clip-path="url(#id_0)" d="M497.0 300.0L459.0 300.0L459.0 113.0C459.0 111.89543 459.89542 111.0 461.0 111.0L495.0 111.0C496.10458 111.0 497.0 111.89543 497.0 113.0Z" fill-rule="nonzero"/><path fill="#4285f4" clip-path="url(#id_0)" d="M497.0 300.0L459.0 300.0L459.0 113.0C459.0 111.89543 459.89542 111.0 461.0 111.0L495.0 111.0C496.10458 111.0 497.0 111.89543 497.0 113.0Z" fill-rule="nonzero"/><path stroke="#000000" stroke-width="2.0" stroke-linecap="butt" stroke-opacity="0.0" clip-path="url(#id_0)" d="M168.0 300.0L130.0 300.0L130.0 293.0C130.0 291.89542 130.89543 291.0 132.0 291.0L166.0 291.0C167.10457 291.0 168.0 291.89542 168.0 293.0Z" fill-rule="nonzero"/><path fill="#ea4335" clip-path="url(#id_0)" d="M168.0 300.0L130.0 300.0L130.0 293.0C130.0 291.89542 130.89543 291.0 132.0 291.0L166.0 291.0C167.10457 291.0 168.0 291.89542 168.0 293.0Z" fill-rule="nonzero"/><path stroke="#000000" stroke-width="2.0" stroke-linecap="butt" stroke-opacity="0.0" clip-path="url(#id_0)" d="M291.0 300.0L253.0 300.0L253.0 295.0C253.0 293.89542 253.89543 293.0 255.0 293.0L289.0 293.0C290.10458 293.0 291.0 293.89542 291.0 295.0Z" fill-rule="nonzero"/><path fill="#ea4335" clip-path="url(#id_0)" d="M291.0 300.0L253.0 300.0L253.0 295.0C253.0 293.89542 253.89543 293.0 255.0 293.0L289.0 293.0C290.10458 293.0 291.0 293.89542 291.0 295.0Z" fill-rule="nonzero"/><path stroke="#000000" stroke-width="2.0" stroke-linecap="butt" stroke-opacity="0.0" clip-path="url(#id_0)" d="M414.0 300.0L376.0 300.0L376.0 295.0C376.0 293.89542 376.89542 293.0 378.0 293.0L412.0 293.0C413.10458 293.0 414.0 293.89542 414.0 295.0Z" fill-rule="nonzero"/><path fill="#ea4335" clip-path="url(#id_0)" d="M414.0 300.0L376.0 300.0L376.0 295.0C376.0 293.89542 376.89542 293.0 378.0 293.0L412.0 293.0C413.10458 293.0 414.0 293.89542 414.0 295.0Z" fill-rule="nonzero"/><path stroke="#000000" stroke-width="2.0" stroke-linecap="butt" stroke-opacity="0.0" clip-path="url(#id_0)" d="M537.0 300.0L499.0 300.0L499.0 295.0C499.0 293.89542 499.89542 293.0 501.0 293.0L535.0 293.0C536.10455 293.0 537.0 293.89542 537.0 295.0Z" fill-rule="nonzero"/><path fill="#ea4335" clip-path="url(#id_0)" d="M537.0 300.0L499.0 300.0L499.0 295.0C499.0 293.89542 499.89542 293.0 501.0 293.0L535.0 293.0C536.10455 293.0 537.0 293.89542 537.0 295.0Z" fill-rule="nonzero"/><path fill="#000000" d="M298.39062 349.45L298.39062 340.85626L300.10938 340.85626L302.14062 346.9344Q302.42188 347.79376 302.54688 348.21564Q302.6875 347.7469 303.0 346.84064L305.0625 340.85626L306.59375 340.85626L306.59375 349.45L305.5 349.45L305.5 342.2625L303.0 349.45L301.96875 349.45L299.48438 342.1375L299.48438 349.45L298.39062 349.45ZM311.54688 347.45L312.64062 347.575Q312.39062 348.52814 311.6875 349.0594Q310.98438 349.59064 309.90625 349.59064Q308.54688 349.59064 307.73438 348.7469Q306.9375 347.90314 306.9375 346.3875Q306.9375 344.825 307.75 343.96564Q308.5625 343.09064 309.84375 343.09064Q311.09375 343.09064 311.875 343.9344Q312.67188 344.77814 312.67188 346.325Q312.67188 346.41876 312.67188 346.60626L308.03125 346.60626Q308.09375 347.6375 308.60938 348.1844Q309.125 348.71564 309.90625 348.71564Q310.48438 348.71564 310.89062 348.41876Q311.3125 348.10626 311.54688 347.45ZM308.09375 345.7469L311.5625 345.7469Q311.5 344.95 311.17188 344.5594Q310.65625 343.95 309.85938 343.95Q309.125 343.95 308.625 344.4344Q308.14062 344.91876 308.09375 345.7469ZM316.59375 348.5125L316.75 349.4344Q316.29688 349.52814 315.95312 349.52814Q315.375 349.52814 315.0625 349.35626Q314.75 349.16876 314.60938 348.8719Q314.48438 348.575 314.48438 347.6219L314.48438 344.04376L313.71875 344.04376L313.71875 343.23126L314.48438 343.23126L314.48438 341.6844L315.53125 341.0594L315.53125 343.23126L316.59375 343.23126L316.59375 344.04376L315.53125 344.04376L315.53125 347.6844Q315.53125 348.1375 315.57812 348.2625Q315.64062 348.3875 315.76562 348.46564Q315.89062 348.54376 316.125 348.54376Q316.3125 348.54376 316.59375 348.5125ZM317.28125 349.45L317.28125 343.23126L318.23438 343.23126L318.23438 344.16876Q318.59375 343.5125 318.89062 343.3094Q319.20312 343.09064 319.57812 343.09064Q320.10938 343.09064 320.65625 343.41876L320.29688 344.40314Q319.90625 344.16876 319.53125 344.16876Q319.17188 344.16876 318.89062 344.3875Q318.625 344.59064 318.51562 344.96564Q318.32812 345.52814 318.32812 346.1844L318.32812 349.45L317.28125 349.45ZM321.29688 342.075L321.29688 340.85626L322.35938 340.85626L322.35938 342.075L321.29688 342.075ZM321.29688 349.45L321.29688 343.23126L322.35938 343.23126L322.35938 349.45L321.29688 349.45ZM328.35938 347.16876L329.39062 347.3094Q329.21875 348.3719 328.51562 348.98126Q327.8125 349.59064 326.79688 349.59064Q325.51562 349.59064 324.73438 348.7625Q323.96875 347.91876 323.96875 346.35626Q323.96875 345.35626 324.29688 344.60626Q324.64062 343.84064 325.3125 343.46564Q326.0 343.09064 326.8125 343.09064Q327.8125 343.09064 328.45312 343.60626Q329.10938 344.10626 329.29688 345.0594L328.26562 345.21564Q328.125 344.59064 327.75 344.27814Q327.375 343.95 326.84375 343.95Q326.04688 343.95 325.54688 344.52814Q325.04688 345.09064 325.04688 346.325Q325.04688 347.59064 325.53125 348.15314Q326.01562 348.71564 326.78125 348.71564Q327.40625 348.71564 327.8125 348.34064Q328.23438 347.96564 328.35938 347.16876Z" fill-rule="nonzero"/><path fill="#000000" d="M33.05 300.21564Q33.05 298.6844 33.3625 297.7625Q33.675 296.825 34.284374 296.325Q34.909374 295.825 35.846874 295.825Q36.534374 295.825 37.05 296.10626Q37.58125 296.3875 37.925 296.91876Q38.26875 297.4344 38.45625 298.1844Q38.64375 298.9344 38.64375 300.21564Q38.64375 301.73126 38.33125 302.65314Q38.034374 303.575 37.409374 304.09064Q36.8 304.59064 35.846874 304.59064Q34.6125 304.59064 33.89375 303.7Q33.05 302.6375 33.05 300.21564ZM34.128124 300.21564Q34.128124 302.325 34.628124 303.02814Q35.128124 303.73126 35.846874 303.73126Q36.58125 303.73126 37.065624 303.02814Q37.565624 302.325 37.565624 300.21564Q37.565624 298.09064 37.065624 297.40314Q36.58125 296.7 35.83125 296.7Q35.1125 296.7 34.675 297.3094Q34.128124 298.09064 34.128124 300.21564Z" fill-rule="nonzero"/><path fill="#000000" d="M33.05 259.76666L34.159374 259.6729Q34.284374 260.4854 34.721874 260.89166Q35.175 261.2979 35.815624 261.2979Q36.565624 261.2979 37.096874 260.7198Q37.628124 260.14166 37.628124 259.20416Q37.628124 258.2979 37.1125 257.7823Q36.6125 257.25104 35.784374 257.25104Q35.284374 257.25104 34.8625 257.4854Q34.45625 257.7198 34.221874 258.07916L33.2375 257.95416L34.065624 253.54791L38.346874 253.54791L38.346874 254.54791L34.909374 254.54791L34.45625 256.8604Q35.221874 256.31354 36.065624 256.31354Q37.190624 256.31354 37.95625 257.0948Q38.7375 257.87604 38.7375 259.1104Q38.7375 260.26666 38.065624 261.12604Q37.2375 262.1573 35.815624 262.1573Q34.64375 262.1573 33.89375 261.50104Q33.159374 260.8448 33.05 259.76666Z" fill-rule="nonzero"/><path fill="#000000" d="M30.01875 219.58333L28.971874 219.58333L28.971874 212.86458Q28.58125 213.22395 27.95625 213.59895Q27.346874 213.95833 26.8625 214.1302L26.8625 213.11458Q27.7375 212.6927 28.39375 212.11458Q29.065624 211.52083 29.346874 210.95833L30.01875 210.95833L30.01875 219.58333ZM33.05 215.34895Q33.05 213.8177 33.3625 212.89583Q33.675 211.95833 34.284374 211.45833Q34.909374 210.95833 35.846874 210.95833Q36.534374 210.95833 37.05 211.23958Q37.58125 211.52083 37.925 212.05208Q38.26875 212.5677 38.45625 213.3177Q38.64375 214.0677 38.64375 215.34895Q38.64375 216.86458 38.33125 217.78645Q38.034374 218.70833 37.409374 219.22395Q36.8 219.72395 35.846874 219.72395Q34.6125 219.72395 33.89375 218.83333Q33.05 217.77083 33.05 215.34895ZM34.128124 215.34895Q34.128124 217.45833 34.628124 218.16145Q35.128124 218.86458 35.846874 218.86458Q36.58125 218.86458 37.065624 218.16145Q37.565624 217.45833 37.565624 215.34895Q37.565624 213.22395 37.065624 212.53645Q36.58125 211.83333 35.83125 211.83333Q35.1125 211.83333 34.675 212.4427Q34.128124 213.22395 34.128124 215.34895Z" fill-rule="nonzero"/><path fill="#000000" d="M30.01875 177.15L28.971874 177.15L28.971874 170.43124Q28.58125 170.79062 27.95625 171.16562Q27.346874 171.525 26.8625 171.69687L26.8625 170.68124Q27.7375 170.25937 28.39375 169.68124Q29.065624 169.0875 29.346874 168.525L30.01875 168.525L30.01875 177.15ZM33.05 174.9L34.159374 174.80624Q34.284374 175.61874 34.721874 176.025Q35.175 176.43124 35.815624 176.43124Q36.565624 176.43124 37.096874 175.85312Q37.628124 175.275 37.628124 174.3375Q37.628124 173.43124 37.1125 172.91562Q36.6125 172.38437 35.784374 172.38437Q35.284374 172.38437 34.8625 172.61874Q34.45625 172.85312 34.221874 173.2125L33.2375 173.0875L34.065624 168.68124L38.346874 168.68124L38.346874 169.68124L34.909374 169.68124L34.45625 171.99374Q35.221874 171.44687 36.065624 171.44687Q37.190624 171.44687 37.95625 172.22812Q38.7375 173.00937 38.7375 174.24374Q38.7375 175.4 38.065624 176.25937Q37.2375 177.29062 35.815624 177.29062Q34.64375 177.29062 33.89375 176.63437Q33.159374 175.97812 33.05 174.9Z" fill-rule="nonzero"/><path fill="#000000" d="M31.596874 133.70103L31.596874 134.71666L25.909374 134.71666Q25.909374 134.34166 26.034374 133.98228Q26.253124 133.40416 26.721874 132.84166Q27.20625 132.27916 28.1125 131.54478Q29.51875 130.38853 30.003124 129.71666Q30.503124 129.04478 30.503124 128.45103Q30.503124 127.826035 30.05 127.40416Q29.596874 126.96666 28.878124 126.96666Q28.1125 126.96666 27.659374 127.419785Q27.20625 127.87291 27.190624 128.68541L26.1125 128.57603Q26.221874 127.357285 26.940624 126.732285Q27.675 126.09166 28.909374 126.09166Q30.14375 126.09166 30.8625 126.77916Q31.58125 127.46666 31.58125 128.48228Q31.58125 128.99791 31.3625 129.49791Q31.159374 129.98228 30.659374 130.54478Q30.175 131.09166 29.05 132.04478Q28.096874 132.84166 27.815624 133.13853Q27.55 133.41978 27.378124 133.70103L31.596874 133.70103ZM33.05 130.48228Q33.05 128.95103 33.3625 128.02916Q33.675 127.09166 34.284374 126.59166Q34.909374 126.09166 35.846874 126.09166Q36.534374 126.09166 37.05 126.37291Q37.58125 126.65416 37.925 127.18541Q38.26875 127.701035 38.45625 128.45103Q38.64375 129.20103 38.64375 130.48228Q38.64375 131.99791 38.33125 132.91978Q38.034374 133.84166 37.409374 134.35728Q36.8 134.85728 35.846874 134.85728Q34.6125 134.85728 33.89375 133.96666Q33.05 132.90416 33.05 130.48228ZM34.128124 130.48228Q34.128124 132.59166 34.628124 133.29478Q35.128124 133.99791 35.846874 133.99791Q36.58125 133.99791 37.065624 133.29478Q37.565624 132.59166 37.565624 130.48228Q37.565624 128.35728 37.065624 127.669785Q36.58125 126.96666 35.83125 126.96666Q35.1125 126.96666 34.675 127.576035Q34.128124 128.35728 34.128124 130.48228Z" fill-rule="nonzero"/><path fill="#000000" d="M31.596874 91.26771L31.596874 92.28333L25.909374 92.28333Q25.909374 91.90833 26.034374 91.54896Q26.253124 90.97083 26.721874 90.40833Q27.20625 89.84583 28.1125 89.11146Q29.51875 87.95521 30.003124 87.28333Q30.503124 86.61146 30.503124 86.01771Q30.503124 85.39271 30.05 84.97083Q29.596874 84.53333 28.878124 84.53333Q28.1125 84.53333 27.659374 84.98646Q27.20625 85.43958 27.190624 86.25208L26.1125 86.14271Q26.221874 84.92396 26.940624 84.29896Q27.675 83.65833 28.909374 83.65833Q30.14375 83.65833 30.8625 84.34583Q31.58125 85.03333 31.58125 86.04896Q31.58125 86.56458 31.3625 87.06458Q31.159374 87.54896 30.659374 88.11146Q30.175 88.65833 29.05 89.61146Q28.096874 90.40833 27.815624 90.70521Q27.55 90.98646 27.378124 91.26771L31.596874 91.26771ZM33.05 90.03333L34.159374 89.93958Q34.284374 90.75208 34.721874 91.15833Q35.175 91.56458 35.815624 91.56458Q36.565624 91.56458 37.096874 90.98646Q37.628124 90.40833 37.628124 89.47083Q37.628124 88.56458 37.1125 88.04896Q36.6125 87.51771 35.784374 87.51771Q35.284374 87.51771 34.8625 87.75208Q34.45625 87.98646 34.221874 88.34583L33.2375 88.22083L34.065624 83.81458L38.346874 83.81458L38.346874 84.81458L34.909374 84.81458L34.45625 87.12708Q35.221874 86.58021 36.065624 86.58021Q37.190624 86.58021 37.95625 87.36146Q38.7375 88.14271 38.7375 89.37708Q38.7375 90.53333 38.065624 91.39271Q37.2375 92.42396 35.815624 92.42396Q34.64375 92.42396 33.89375 91.76771Q33.159374 91.11146 33.05 90.03333Z" fill-rule="nonzero"/><path fill="#000000" d="M89.09752 317.45L89.09752 308.85626L90.81627 308.85626L92.84752 314.9344Q93.12877 315.79376 93.25377 316.21564Q93.394394 315.7469 93.706894 314.84064L95.769394 308.85626L97.300644 308.85626L97.300644 317.45L96.206894 317.45L96.206894 310.2625L93.706894 317.45L92.675644 317.45L90.19127 310.1375L90.19127 317.45L89.09752 317.45ZM102.06627 316.6844Q101.47252 317.1844 100.925644 317.3875Q100.394394 317.59064 99.769394 317.59064Q98.738144 317.59064 98.19127 317.09064Q97.644394 316.59064 97.644394 315.8094Q97.644394 315.35626 97.84752 314.98126Q98.050644 314.59064 98.394394 314.3719Q98.738144 314.1375 99.16002 314.02814Q99.456894 313.9344 100.09752 313.85626Q101.363144 313.71564 101.97252 313.4969Q101.97252 313.27814 101.97252 313.23126Q101.97252 312.575 101.675644 312.3094Q101.269394 311.96564 100.47252 311.96564Q99.738144 311.96564 99.37877 312.23126Q99.019394 312.48126 98.84752 313.1375L97.81627 312.9969Q97.956894 312.34064 98.28502 311.9344Q98.613144 311.52814 99.22252 311.3094Q99.831894 311.09064 100.62877 311.09064Q101.425644 311.09064 101.925644 311.27814Q102.425644 311.46564 102.66002 311.7469Q102.894394 312.02814 102.988144 312.46564Q103.03502 312.73126 103.03502 313.4344L103.03502 314.84064Q103.03502 316.3094 103.09752 316.7Q103.175644 317.09064 103.37877 317.45L102.269394 317.45Q102.113144 317.1219 102.06627 316.6844ZM101.97252 314.325Q101.394394 314.5594 100.25377 314.73126Q99.59752 314.825 99.331894 314.95Q99.06627 315.0594 98.91002 315.27814Q98.769394 315.4969 98.769394 315.77814Q98.769394 316.2 99.081894 316.48126Q99.41002 316.7625 100.019394 316.7625Q100.62877 316.7625 101.09752 316.4969Q101.581894 316.23126 101.800644 315.7625Q101.97252 315.40314 101.97252 314.71564L101.97252 314.325ZM107.300644 316.5125L107.456894 317.4344Q107.00377 317.52814 106.66002 317.52814Q106.081894 317.52814 105.769394 317.35626Q105.456894 317.16876 105.31627 316.8719Q105.19127 316.575 105.19127 315.6219L105.19127 312.04376L104.425644 312.04376L104.425644 311.23126L105.19127 311.23126L105.19127 309.6844L106.238144 309.0594L106.238144 311.23126L107.300644 311.23126L107.300644 312.04376L106.238144 312.04376L106.238144 315.6844Q106.238144 316.1375 106.28502 316.2625Q106.34752 316.3875 106.47252 316.46564Q106.59752 316.54376 106.831894 316.54376Q107.019394 316.54376 107.300644 316.5125ZM107.988144 317.45L107.988144 311.23126L108.94127 311.23126L108.94127 312.16876Q109.300644 311.5125 109.59752 311.3094Q109.91002 311.09064 110.28502 311.09064Q110.81627 311.09064 111.363144 311.41876L111.00377 312.40314Q110.613144 312.16876 110.238144 312.16876Q109.87877 312.16876 109.59752 312.3875Q109.331894 312.59064 109.22252 312.96564Q109.03502 313.52814 109.03502 314.1844L109.03502 317.45L107.988144 317.45ZM112.00377 310.075L112.00377 308.85626L113.06627 308.85626L113.06627 310.075L112.00377 310.075ZM112.00377 317.45L112.00377 311.23126L113.06627 311.23126L113.06627 317.45L112.00377 317.45ZM114.300644 317.45L116.56627 314.21564L114.47252 311.23126L115.78502 311.23126L116.738144 312.6844Q117.00377 313.10626 117.175644 313.3875Q117.425644 312.9969 117.644394 312.7L118.69127 311.23126L119.956894 311.23126L117.800644 314.15314L120.113144 317.45L118.831894 317.45L117.550644 315.5125L117.206894 314.9969L115.56627 317.45L114.300644 317.45ZM122.75377 314.6844L123.81627 314.59064Q123.894394 315.2469 124.175644 315.65314Q124.456894 316.0594 125.03502 316.325Q125.62877 316.575 126.363144 316.575Q127.00377 316.575 127.50377 316.3875Q128.00377 316.1844 128.23814 315.85626Q128.48814 315.5125 128.48814 315.1219Q128.48814 314.71564 128.25377 314.41876Q128.0194 314.10626 127.488144 313.90314Q127.12877 313.7625 125.94127 313.48126Q124.769394 313.2 124.300644 312.95Q123.675644 312.6219 123.37877 312.15314Q123.081894 311.66876 123.081894 311.075Q123.081894 310.4344 123.44127 309.8719Q123.81627 309.29376 124.519394 309.0125Q125.238144 308.71564 126.09752 308.71564Q127.050644 308.71564 127.78502 309.02814Q128.5194 309.325 128.91002 309.9344Q129.30064 310.52814 129.3319 311.27814L128.23814 311.35626Q128.1444 310.54376 127.62877 310.1375Q127.12877 309.71564 126.144394 309.71564Q125.113144 309.71564 124.644394 310.09064Q124.175644 310.46564 124.175644 310.9969Q124.175644 311.46564 124.50377 311.7625Q124.831894 312.0594 126.206894 312.3719Q127.59752 312.6844 128.11314 312.91876Q128.86314 313.27814 129.22252 313.8094Q129.5819 314.325 129.5819 315.02814Q129.5819 315.71564 129.19127 316.325Q128.80064 316.91876 128.06627 317.2625Q127.331894 317.59064 126.41002 317.59064Q125.238144 317.59064 124.44127 317.2625Q123.66002 316.91876 123.206894 316.23126Q122.769394 315.54376 122.75377 314.6844ZM131.00377 310.075L131.00377 308.85626L132.06627 308.85626L132.06627 310.075L131.00377 310.075ZM131.00377 317.45L131.00377 311.23126L132.06627 311.23126L132.06627 317.45L131.00377 317.45ZM133.44127 317.45L133.44127 316.59064L137.41002 312.04376Q136.72252 312.075 136.2069 312.075L133.67564 312.075L133.67564 311.23126L138.7694 311.23126L138.7694 311.91876L135.3944 315.8719L134.73814 316.59064Q135.4569 316.54376 136.06627 316.54376L138.9569 316.54376L138.9569 317.45L133.44127 317.45ZM143.25377 315.45L144.34752 315.575Q144.09752 316.52814 143.3944 317.0594Q142.69127 317.59064 141.61314 317.59064Q140.25377 317.59064 139.44127 316.7469Q138.6444 315.90314 138.6444 314.3875Q138.6444 312.825 139.4569 311.96564Q140.2694 311.09064 141.55064 311.09064Q142.80064 311.09064 143.5819 311.9344Q144.37877 312.77814 144.37877 314.325Q144.37877 314.41876 144.37877 314.60626L139.73814 314.60626Q139.80064 315.6375 140.31627 316.1844Q140.8319 316.71564 141.61314 316.71564Q142.19127 316.71564 142.59752 316.41876Q143.0194 316.10626 143.25377 315.45ZM139.80064 313.7469L143.2694 313.7469Q143.2069 312.95 142.87877 312.5594Q142.36314 311.95 141.56627 311.95Q140.8319 311.95 140.3319 312.4344Q139.84752 312.91876 139.80064 313.7469ZM154.25377 316.4344L154.25377 317.45L148.56627 317.45Q148.56627 317.075 148.69127 316.71564Q148.91002 316.1375 149.37877 315.575Q149.86314 315.0125 150.7694 314.27814Q152.17564 313.1219 152.66002 312.45Q153.16002 311.77814 153.16002 311.1844Q153.16002 310.5594 152.7069 310.1375Q152.25377 309.7 151.53502 309.7Q150.7694 309.7 150.31627 310.15314Q149.86314 310.60626 149.84752 311.41876L148.7694 311.3094Q148.87877 310.09064 149.59752 309.46564Q150.3319 308.825 151.56627 308.825Q152.80064 308.825 153.5194 309.5125Q154.23814 310.2 154.23814 311.21564Q154.23814 311.73126 154.0194 312.23126Q153.81627 312.71564 153.31627 313.27814Q152.8319 313.825 151.7069 314.77814Q150.75377 315.575 150.47252 315.8719Q150.2069 316.15314 150.03502 316.4344L154.25377 316.4344ZM155.7069 315.2L156.81627 315.10626Q156.94127 315.91876 157.37877 316.325Q157.8319 316.73126 158.47252 316.73126Q159.22252 316.73126 159.75377 316.15314Q160.28502 315.575 160.28502 314.6375Q160.28502 313.73126 159.7694 313.21564Q159.2694 312.6844 158.44127 312.6844Q157.94127 312.6844 157.5194 312.91876Q157.11314 313.15314 156.87877 313.5125L155.8944 313.3875L156.72252 308.98126L161.00377 308.98126L161.00377 309.98126L157.56627 309.98126L157.11314 312.29376Q157.87877 311.7469 158.72252 311.7469Q159.84752 311.7469 160.61314 312.52814Q161.3944 313.3094 161.3944 314.54376Q161.3944 315.7 160.72252 316.5594Q159.8944 317.59064 158.47252 317.59064Q157.30064 317.59064 156.55064 316.9344Q155.81627 316.27814 155.7069 315.2ZM168.17564 310.96564L167.12877 311.04376Q166.98814 310.41876 166.73814 310.1375Q166.30064 309.6844 165.67564 309.6844Q165.17564 309.6844 164.78502 309.96564Q164.30064 310.34064 164.00377 311.04376Q163.72252 311.73126 163.7069 313.0125Q164.0819 312.4344 164.62877 312.15314Q165.19127 311.8719 165.80064 311.8719Q166.84752 311.8719 167.5819 312.65314Q168.3319 313.4344 168.3319 314.65314Q168.3319 315.46564 167.97252 316.16876Q167.62877 316.85626 167.0194 317.23126Q166.41002 317.59064 165.6444 317.59064Q164.31627 317.59064 163.48814 316.6219Q162.66002 315.65314 162.66002 313.4344Q162.66002 310.9344 163.5819 309.8094Q164.37877 308.825 165.73814 308.825Q166.75377 308.825 167.3944 309.40314Q168.05064 309.96564 168.17564 310.96564ZM163.87877 314.66876Q163.87877 315.21564 164.09752 315.71564Q164.3319 316.2 164.73814 316.46564Q165.16002 316.73126 165.62877 316.73126Q166.28502 316.73126 166.7694 316.2Q167.25377 315.65314 167.25377 314.73126Q167.25377 313.84064 166.7694 313.325Q166.30064 312.8094 165.5819 312.8094Q164.86314 312.8094 164.36314 313.325Q163.87877 313.84064 163.87877 314.66876Z" fill-rule="nonzero"/><path fill="#000000" d="M212.29292 317.45L212.29292 308.85626L214.01167 308.85626L216.04292 314.9344Q216.32417 315.79376 216.44917 316.21564Q216.5898 315.7469 216.9023 314.84064L218.9648 308.85626L220.49605 308.85626L220.49605 317.45L219.4023 317.45L219.4023 310.2625L216.9023 317.45L215.87105 317.45L213.38667 310.1375L213.38667 317.45L212.29292 317.45ZM225.26167 316.6844Q224.66792 317.1844 224.12105 317.3875Q223.5898 317.59064 222.9648 317.59064Q221.93355 317.59064 221.38667 317.09064Q220.8398 316.59064 220.8398 315.8094Q220.8398 315.35626 221.04292 314.98126Q221.24605 314.59064 221.5898 314.3719Q221.93355 314.1375 222.35542 314.02814Q222.6523 313.9344 223.29292 313.85626Q224.55855 313.71564 225.16792 313.4969Q225.16792 313.27814 225.16792 313.23126Q225.16792 312.575 224.87105 312.3094Q224.4648 311.96564 223.66792 311.96564Q222.93355 311.96564 222.57417 312.23126Q222.2148 312.48126 222.04292 313.1375L221.01167 312.9969Q221.1523 312.34064 221.48042 311.9344Q221.80855 311.52814 222.41792 311.3094Q223.0273 311.09064 223.82417 311.09064Q224.62105 311.09064 225.12105 311.27814Q225.62105 311.46564 225.85542 311.7469Q226.0898 312.02814 226.18355 312.46564Q226.23042 312.73126 226.23042 313.4344L226.23042 314.84064Q226.23042 316.3094 226.29292 316.7Q226.37105 317.09064 226.57417 317.45L225.4648 317.45Q225.30855 317.1219 225.26167 316.6844ZM225.16792 314.325Q224.5898 314.5594 223.44917 314.73126Q222.79292 314.825 222.5273 314.95Q222.26167 315.0594 222.10542 315.27814Q221.9648 315.4969 221.9648 315.77814Q221.9648 316.2 222.2773 316.48126Q222.60542 316.7625 223.2148 316.7625Q223.82417 316.7625 224.29292 316.4969Q224.7773 316.23126 224.99605 315.7625Q225.16792 315.40314 225.16792 314.71564L225.16792 314.325ZM230.49605 316.5125L230.6523 317.4344Q230.19917 317.52814 229.85542 317.52814Q229.2773 317.52814 228.9648 317.35626Q228.6523 317.16876 228.51167 316.8719Q228.38667 316.575 228.38667 315.6219L228.38667 312.04376L227.62105 312.04376L227.62105 311.23126L228.38667 311.23126L228.38667 309.6844L229.43355 309.0594L229.43355 311.23126L230.49605 311.23126L230.49605 312.04376L229.43355 312.04376L229.43355 315.6844Q229.43355 316.1375 229.48042 316.2625Q229.54292 316.3875 229.66792 316.46564Q229.79292 316.54376 230.0273 316.54376Q230.2148 316.54376 230.49605 316.5125ZM231.18355 317.45L231.18355 311.23126L232.13667 311.23126L232.13667 312.16876Q232.49605 311.5125 232.79292 311.3094Q233.10542 311.09064 233.48042 311.09064Q234.01167 311.09064 234.55855 311.41876L234.19917 312.40314Q233.80855 312.16876 233.43355 312.16876Q233.07417 312.16876 232.79292 312.3875Q232.5273 312.59064 232.41792 312.96564Q232.23042 313.52814 232.23042 314.1844L232.23042 317.45L231.18355 317.45ZM235.19917 310.075L235.19917 308.85626L236.26167 308.85626L236.26167 310.075L235.19917 310.075ZM235.19917 317.45L235.19917 311.23126L236.26167 311.23126L236.26167 317.45L235.19917 317.45ZM237.49605 317.45L239.76167 314.21564L237.66792 311.23126L238.98042 311.23126L239.93355 312.6844Q240.19917 313.10626 240.37105 313.3875Q240.62105 312.9969 240.8398 312.7L241.88667 311.23126L243.1523 311.23126L240.99605 314.15314L243.30855 317.45L242.0273 317.45L240.74605 315.5125L240.4023 314.9969L238.76167 317.45L237.49605 317.45ZM245.94917 314.6844L247.01167 314.59064Q247.0898 315.2469 247.37105 315.65314Q247.6523 316.0594 248.23042 316.325Q248.82417 316.575 249.55855 316.575Q250.19917 316.575 250.69917 316.3875Q251.19917 316.1844 251.43355 315.85626Q251.68355 315.5125 251.68355 315.1219Q251.68355 314.71564 251.44917 314.41876Q251.2148 314.10626 250.68355 313.90314Q250.32417 313.7625 249.13667 313.48126Q247.9648 313.2 247.49605 312.95Q246.87105 312.6219 246.57417 312.15314Q246.2773 311.66876 246.2773 311.075Q246.2773 310.4344 246.63667 309.8719Q247.01167 309.29376 247.7148 309.0125Q248.43355 308.71564 249.29292 308.71564Q250.24605 308.71564 250.98042 309.02814Q251.7148 309.325 252.10542 309.9344Q252.49605 310.52814 252.5273 311.27814L251.43355 311.35626Q251.3398 310.54376 250.82417 310.1375Q250.32417 309.71564 249.3398 309.71564Q248.30855 309.71564 247.8398 310.09064Q247.37105 310.46564 247.37105 310.9969Q247.37105 311.46564 247.69917 311.7625Q248.0273 312.0594 249.4023 312.3719Q250.79292 312.6844 251.30855 312.91876Q252.05855 313.27814 252.41792 313.8094Q252.7773 314.325 252.7773 315.02814Q252.7773 315.71564 252.38667 316.325Q251.99605 316.91876 251.26167 317.2625Q250.5273 317.59064 249.60542 317.59064Q248.43355 317.59064 247.63667 317.2625Q246.85542 316.91876 246.4023 316.23126Q245.9648 315.54376 245.94917 314.6844ZM254.19917 310.075L254.19917 308.85626L255.26167 308.85626L255.26167 310.075L254.19917 310.075ZM254.19917 317.45L254.19917 311.23126L255.26167 311.23126L255.26167 317.45L254.19917 317.45ZM256.63666 317.45L256.63666 316.59064L260.6054 312.04376Q259.9179 312.075 259.40228 312.075L256.87103 312.075L256.87103 311.23126L261.96478 311.23126L261.96478 311.91876L258.58978 315.8719L257.93353 316.59064Q258.65228 316.54376 259.26166 316.54376L262.15228 316.54376L262.15228 317.45L256.63666 317.45ZM266.44916 315.45L267.5429 315.575Q267.2929 316.52814 266.58978 317.0594Q265.88666 317.59064 264.80853 317.59064Q263.44916 317.59064 262.63666 316.7469Q261.83978 315.90314 261.83978 314.3875Q261.83978 312.825 262.65228 311.96564Q263.46478 311.09064 264.74603 311.09064Q265.99603 311.09064 266.77728 311.9344Q267.57416 312.77814 267.57416 314.325Q267.57416 314.41876 267.57416 314.60626L262.93353 314.60626Q262.99603 315.6375 263.51166 316.1844Q264.02728 316.71564 264.80853 316.71564Q265.38666 316.71564 265.7929 316.41876Q266.21478 316.10626 266.44916 315.45ZM262.99603 313.7469L266.46478 313.7469Q266.40228 312.95 266.07416 312.5594Q265.55853 311.95 264.76166 311.95Q264.02728 311.95 263.52728 312.4344Q263.0429 312.91876 262.99603 313.7469ZM271.90228 315.2L273.01166 315.10626Q273.13666 315.91876 273.57416 316.325Q274.02728 316.73126 274.6679 316.73126Q275.4179 316.73126 275.94916 316.15314Q276.4804 315.575 276.4804 314.6375Q276.4804 313.73126 275.96478 313.21564Q275.46478 312.6844 274.63666 312.6844Q274.13666 312.6844 273.71478 312.91876Q273.30853 313.15314 273.07416 313.5125L272.08978 313.3875L272.9179 308.98126L277.19916 308.98126L277.19916 309.98126L273.76166 309.98126L273.30853 312.29376Q274.07416 311.7469 274.9179 311.7469Q276.0429 311.7469 276.80853 312.52814Q277.58978 313.3094 277.58978 314.54376Q277.58978 315.7 276.9179 316.5594Q276.08978 317.59064 274.6679 317.59064Q273.49603 317.59064 272.74603 316.9344Q272.01166 316.27814 271.90228 315.2ZM282.87103 317.45L281.82416 317.45L281.82416 310.73126Q281.43353 311.09064 280.80853 311.46564Q280.19916 311.825 279.71478 311.9969L279.71478 310.98126Q280.58978 310.5594 281.24603 309.98126Q281.9179 309.3875 282.19916 308.825L282.87103 308.825L282.87103 317.45ZM291.44916 316.4344L291.44916 317.45L285.76166 317.45Q285.76166 317.075 285.88666 316.71564Q286.1054 316.1375 286.57416 315.575Q287.05853 315.0125 287.96478 314.27814Q289.37103 313.1219 289.8554 312.45Q290.3554 311.77814 290.3554 311.1844Q290.3554 310.5594 289.90228 310.1375Q289.44916 309.7 288.7304 309.7Q287.96478 309.7 287.51166 310.15314Q287.05853 310.60626 287.0429 311.41876L285.96478 311.3094Q286.07416 310.09064 286.7929 309.46564Q287.52728 308.825 288.76166 308.825Q289.99603 308.825 290.71478 309.5125Q291.43353 310.2 291.43353 311.21564Q291.43353 311.73126 291.21478 312.23126Q291.01166 312.71564 290.51166 313.27814Q290.02728 313.825 288.90228 314.77814Q287.94916 315.575 287.6679 315.8719Q287.40228 316.15314 287.2304 316.4344L291.44916 316.4344Z" fill-rule="nonzero"/><path fill="#000000" d="M331.9883 317.45L331.9883 308.85626L333.70706 308.85626L335.7383 314.9344Q336.01956 315.79376 336.14456 316.21564Q336.2852 315.7469 336.5977 314.84064L338.6602 308.85626L340.19144 308.85626L340.19144 317.45L339.0977 317.45L339.0977 310.2625L336.5977 317.45L335.56644 317.45L333.08206 310.1375L333.08206 317.45L331.9883 317.45ZM344.95706 316.6844Q344.3633 317.1844 343.81644 317.3875Q343.2852 317.59064 342.6602 317.59064Q341.62894 317.59064 341.08206 317.09064Q340.5352 316.59064 340.5352 315.8094Q340.5352 315.35626 340.7383 314.98126Q340.94144 314.59064 341.2852 314.3719Q341.62894 314.1375 342.0508 314.02814Q342.3477 313.9344 342.9883 313.85626Q344.25394 313.71564 344.8633 313.4969Q344.8633 313.27814 344.8633 313.23126Q344.8633 312.575 344.56644 312.3094Q344.1602 311.96564 343.3633 311.96564Q342.62894 311.96564 342.26956 312.23126Q341.9102 312.48126 341.7383 313.1375L340.70706 312.9969Q340.8477 312.34064 341.1758 311.9344Q341.50394 311.52814 342.1133 311.3094Q342.7227 311.09064 343.51956 311.09064Q344.31644 311.09064 344.81644 311.27814Q345.31644 311.46564 345.5508 311.7469Q345.7852 312.02814 345.87894 312.46564Q345.9258 312.73126 345.9258 313.4344L345.9258 314.84064Q345.9258 316.3094 345.9883 316.7Q346.06644 317.09064 346.26956 317.45L345.1602 317.45Q345.00394 317.1219 344.95706 316.6844ZM344.8633 314.325Q344.2852 314.5594 343.14456 314.73126Q342.4883 314.825 342.2227 314.95Q341.95706 315.0594 341.8008 315.27814Q341.6602 315.4969 341.6602 315.77814Q341.6602 316.2 341.9727 316.48126Q342.3008 316.7625 342.9102 316.7625Q343.51956 316.7625 343.9883 316.4969Q344.4727 316.23126 344.69144 315.7625Q344.8633 315.40314 344.8633 314.71564L344.8633 314.325ZM350.19144 316.5125L350.3477 317.4344Q349.89456 317.52814 349.5508 317.52814Q348.9727 317.52814 348.6602 317.35626Q348.3477 317.16876 348.20706 316.8719Q348.08206 316.575 348.08206 315.6219L348.08206 312.04376L347.31644 312.04376L347.31644 311.23126L348.08206 311.23126L348.08206 309.6844L349.12894 309.0594L349.12894 311.23126L350.19144 311.23126L350.19144 312.04376L349.12894 312.04376L349.12894 315.6844Q349.12894 316.1375 349.1758 316.2625Q349.2383 316.3875 349.3633 316.46564Q349.4883 316.54376 349.7227 316.54376Q349.9102 316.54376 350.19144 316.5125ZM350.87894 317.45L350.87894 311.23126L351.83206 311.23126L351.83206 312.16876Q352.19144 311.5125 352.4883 311.3094Q352.8008 311.09064 353.1758 311.09064Q353.70706 311.09064 354.25394 311.41876L353.89456 312.40314Q353.50394 312.16876 353.12894 312.16876Q352.76956 312.16876 352.4883 312.3875Q352.2227 312.59064 352.1133 312.96564Q351.9258 313.52814 351.9258 314.1844L351.9258 317.45L350.87894 317.45ZM354.89456 310.075L354.89456 308.85626L355.95706 308.85626L355.95706 310.075L354.89456 310.075ZM354.89456 317.45L354.89456 311.23126L355.95706 311.23126L355.95706 317.45L354.89456 317.45ZM357.19144 317.45L359.45706 314.21564L357.3633 311.23126L358.6758 311.23126L359.62894 312.6844Q359.89456 313.10626 360.06644 313.3875Q360.31644 312.9969 360.5352 312.7L361.58206 311.23126L362.8477 311.23126L360.69144 314.15314L363.00394 317.45L361.7227 317.45L360.44144 315.5125L360.0977 314.9969L358.45706 317.45L357.19144 317.45ZM365.64456 314.6844L366.70706 314.59064Q366.7852 315.2469 367.06644 315.65314Q367.3477 316.0594 367.9258 316.325Q368.51956 316.575 369.25394 316.575Q369.89456 316.575 370.39456 316.3875Q370.89456 316.1844 371.12894 315.85626Q371.37894 315.5125 371.37894 315.1219Q371.37894 314.71564 371.14456 314.41876Q370.9102 314.10626 370.37894 313.90314Q370.01956 313.7625 368.83206 313.48126Q367.6602 313.2 367.19144 312.95Q366.56644 312.6219 366.26956 312.15314Q365.9727 311.66876 365.9727 311.075Q365.9727 310.4344 366.33206 309.8719Q366.70706 309.29376 367.4102 309.0125Q368.12894 308.71564 368.9883 308.71564Q369.94144 308.71564 370.6758 309.02814Q371.4102 309.325 371.8008 309.9344Q372.19144 310.52814 372.2227 311.27814L371.12894 311.35626Q371.0352 310.54376 370.51956 310.1375Q370.01956 309.71564 369.0352 309.71564Q368.00394 309.71564 367.5352 310.09064Q367.06644 310.46564 367.06644 310.9969Q367.06644 311.46564 367.39456 311.7625Q367.7227 312.0594 369.0977 312.3719Q370.4883 312.6844 371.00394 312.91876Q371.75394 313.27814 372.1133 313.8094Q372.4727 314.325 372.4727 315.02814Q372.4727 315.71564 372.08206 316.325Q371.69144 316.91876 370.95706 317.2625Q370.2227 317.59064 369.3008 317.59064Q368.12894 317.59064 367.33206 317.2625Q366.5508 316.91876 366.0977 316.23126Q365.6602 315.54376 365.64456 314.6844ZM373.89456 310.075L373.89456 308.85626L374.95706 308.85626L374.95706 310.075L373.89456 310.075ZM373.89456 317.45L373.89456 311.23126L374.95706 311.23126L374.95706 317.45L373.89456 317.45ZM376.33206 317.45L376.33206 316.59064L380.3008 312.04376Q379.6133 312.075 379.0977 312.075L376.56644 312.075L376.56644 311.23126L381.6602 311.23126L381.6602 311.91876L378.2852 315.8719L377.62894 316.59064Q378.3477 316.54376 378.95706 316.54376L381.8477 316.54376L381.8477 317.45L376.33206 317.45ZM386.14456 315.45L387.2383 315.575Q386.9883 316.52814 386.2852 317.0594Q385.58206 317.59064 384.50394 317.59064Q383.14456 317.59064 382.33206 316.7469Q381.5352 315.90314 381.5352 314.3875Q381.5352 312.825 382.3477 311.96564Q383.1602 311.09064 384.44144 311.09064Q385.69144 311.09064 386.4727 311.9344Q387.26956 312.77814 387.26956 314.325Q387.26956 314.41876 387.26956 314.60626L382.62894 314.60626Q382.69144 315.6375 383.20706 316.1844Q383.7227 316.71564 384.50394 316.71564Q385.08206 316.71564 385.4883 316.41876Q385.9102 316.10626 386.14456 315.45ZM382.69144 313.7469L386.1602 313.7469Q386.0977 312.95 385.76956 312.5594Q385.25394 311.95 384.45706 311.95Q383.7227 311.95 383.2227 312.4344Q382.7383 312.91876 382.69144 313.7469ZM395.56644 317.45L394.51956 317.45L394.51956 310.73126Q394.12894 311.09064 393.50394 311.46564Q392.89456 311.825 392.4102 311.9969L392.4102 310.98126Q393.2852 310.5594 393.94144 309.98126Q394.6133 309.3875 394.89456 308.825L395.56644 308.825L395.56644 317.45ZM398.5977 313.21564Q398.5977 311.6844 398.9102 310.7625Q399.2227 309.825 399.83206 309.325Q400.45706 308.825 401.39456 308.825Q402.08206 308.825 402.5977 309.10626Q403.12894 309.3875 403.4727 309.91876Q403.81644 310.4344 404.00394 311.1844Q404.19144 311.9344 404.19144 313.21564Q404.19144 314.73126 403.87894 315.65314Q403.58206 316.575 402.95706 317.09064Q402.3477 317.59064 401.39456 317.59064Q400.1602 317.59064 399.44144 316.7Q398.5977 315.6375 398.5977 313.21564ZM399.6758 313.21564Q399.6758 315.325 400.1758 316.02814Q400.6758 316.73126 401.39456 316.73126Q402.12894 316.73126 402.6133 316.02814Q403.1133 315.325 403.1133 313.21564Q403.1133 311.09064 402.6133 310.40314Q402.12894 309.7 401.37894 309.7Q400.6602 309.7 400.2227 310.3094Q399.6758 311.09064 399.6758 313.21564ZM411.14456 316.4344L411.14456 317.45L405.45706 317.45Q405.45706 317.075 405.58206 316.71564Q405.8008 316.1375 406.26956 315.575Q406.75394 315.0125 407.6602 314.27814Q409.06644 313.1219 409.5508 312.45Q410.0508 311.77814 410.0508 311.1844Q410.0508 310.5594 409.5977 310.1375Q409.14456 309.7 408.4258 309.7Q407.6602 309.7 407.20706 310.15314Q406.75394 310.60626 406.7383 311.41876L405.6602 311.3094Q405.76956 310.09064 406.4883 309.46564Q407.2227 308.825 408.45706 308.825Q409.69144 308.825 410.4102 309.5125Q411.12894 310.2 411.12894 311.21564Q411.12894 311.73126 410.9102 312.23126Q410.70706 312.71564 410.20706 313.27814Q409.7227 313.825 408.5977 314.77814Q407.64456 315.575 407.3633 315.8719Q407.0977 316.15314 406.9258 316.4344L411.14456 316.4344ZM415.9727 317.45L415.9727 315.3875L412.25394 315.3875L412.25394 314.41876L416.1758 308.85626L417.0352 308.85626L417.0352 314.41876L418.19144 314.41876L418.19144 315.3875L417.0352 315.3875L417.0352 317.45L415.9727 317.45ZM415.9727 314.41876L415.9727 310.5594L413.2852 314.41876L415.9727 314.41876Z" fill-rule="nonzero"/><path fill="#000000" d="M455.18372 317.45L455.18372 308.85626L456.90247 308.85626L458.93372 314.9344Q459.21497 315.79376 459.33997 316.21564Q459.4806 315.7469 459.7931 314.84064L461.8556 308.85626L463.38684 308.85626L463.38684 317.45L462.2931 317.45L462.2931 310.2625L459.7931 317.45L458.76184 317.45L456.27747 310.1375L456.27747 317.45L455.18372 317.45ZM468.15247 316.6844Q467.55872 317.1844 467.01184 317.3875Q466.4806 317.59064 465.8556 317.59064Q464.82434 317.59064 464.27747 317.09064Q463.7306 316.59064 463.7306 315.8094Q463.7306 315.35626 463.93372 314.98126Q464.13684 314.59064 464.4806 314.3719Q464.82434 314.1375 465.24622 314.02814Q465.5431 313.9344 466.18372 313.85626Q467.44934 313.71564 468.05872 313.4969Q468.05872 313.27814 468.05872 313.23126Q468.05872 312.575 467.76184 312.3094Q467.3556 311.96564 466.55872 311.96564Q465.82434 311.96564 465.46497 312.23126Q465.1056 312.48126 464.93372 313.1375L463.90247 312.9969Q464.0431 312.34064 464.37122 311.9344Q464.69934 311.52814 465.30872 311.3094Q465.9181 311.09064 466.71497 311.09064Q467.51184 311.09064 468.01184 311.27814Q468.51184 311.46564 468.74622 311.7469Q468.9806 312.02814 469.07434 312.46564Q469.12122 312.73126 469.12122 313.4344L469.12122 314.84064Q469.12122 316.3094 469.18372 316.7Q469.26184 317.09064 469.46497 317.45L468.3556 317.45Q468.19934 317.1219 468.15247 316.6844ZM468.05872 314.325Q467.4806 314.5594 466.33997 314.73126Q465.68372 314.825 465.4181 314.95Q465.15247 315.0594 464.99622 315.27814Q464.8556 315.4969 464.8556 315.77814Q464.8556 316.2 465.1681 316.48126Q465.49622 316.7625 466.1056 316.7625Q466.71497 316.7625 467.18372 316.4969Q467.6681 316.23126 467.88684 315.7625Q468.05872 315.40314 468.05872 314.71564L468.05872 314.325ZM473.38684 316.5125L473.5431 317.4344Q473.08997 317.52814 472.74622 317.52814Q472.1681 317.52814 471.8556 317.35626Q471.5431 317.16876 471.40247 316.8719Q471.27747 316.575 471.27747 315.6219L471.27747 312.04376L470.51184 312.04376L470.51184 311.23126L471.27747 311.23126L471.27747 309.6844L472.32434 309.0594L472.32434 311.23126L473.38684 311.23126L473.38684 312.04376L472.32434 312.04376L472.32434 315.6844Q472.32434 316.1375 472.37122 316.2625Q472.43372 316.3875 472.55872 316.46564Q472.68372 316.54376 472.9181 316.54376Q473.1056 316.54376 473.38684 316.5125ZM474.07434 317.45L474.07434 311.23126L475.02747 311.23126L475.02747 312.16876Q475.38684 311.5125 475.68372 311.3094Q475.99622 311.09064 476.37122 311.09064Q476.90247 311.09064 477.44934 311.41876L477.08997 312.40314Q476.69934 312.16876 476.32434 312.16876Q475.96497 312.16876 475.68372 312.3875Q475.4181 312.59064 475.30872 312.96564Q475.12122 313.52814 475.12122 314.1844L475.12122 317.45L474.07434 317.45ZM478.08997 310.075L478.08997 308.85626L479.15247 308.85626L479.15247 310.075L478.08997 310.075ZM478.08997 317.45L478.08997 311.23126L479.15247 311.23126L479.15247 317.45L478.08997 317.45ZM480.38684 317.45L482.65247 314.21564L480.55872 311.23126L481.87122 311.23126L482.82434 312.6844Q483.08997 313.10626 483.26184 313.3875Q483.51184 312.9969 483.7306 312.7L484.77747 311.23126L486.0431 311.23126L483.88684 314.15314L486.19934 317.45L484.9181 317.45L483.63684 315.5125L483.2931 314.9969L481.65247 317.45L480.38684 317.45ZM488.83997 314.6844L489.90247 314.59064Q489.9806 315.2469 490.26184 315.65314Q490.5431 316.0594 491.12122 316.325Q491.71497 316.575 492.44934 316.575Q493.08997 316.575 493.58997 316.3875Q494.08997 316.1844 494.32434 315.85626Q494.57434 315.5125 494.57434 315.1219Q494.57434 314.71564 494.33997 314.41876Q494.1056 314.10626 493.57434 313.90314Q493.21497 313.7625 492.02747 313.48126Q490.8556 313.2 490.38684 312.95Q489.76184 312.6219 489.46497 312.15314Q489.1681 311.66876 489.1681 311.075Q489.1681 310.4344 489.52747 309.8719Q489.90247 309.29376 490.6056 309.0125Q491.32434 308.71564 492.18372 308.71564Q493.13684 308.71564 493.87122 309.02814Q494.6056 309.325 494.99622 309.9344Q495.38684 310.52814 495.4181 311.27814L494.32434 311.35626Q494.2306 310.54376 493.71497 310.1375Q493.21497 309.71564 492.2306 309.71564Q491.19934 309.71564 490.7306 310.09064Q490.26184 310.46564 490.26184 310.9969Q490.26184 311.46564 490.58997 311.7625Q490.9181 312.0594 492.2931 312.3719Q493.68372 312.6844 494.19934 312.91876Q494.94934 313.27814 495.30872 313.8094Q495.6681 314.325 495.6681 315.02814Q495.6681 315.71564 495.27747 316.325Q494.88684 316.91876 494.15247 317.2625Q493.4181 317.59064 492.49622 317.59064Q491.32434 317.59064 490.52747 317.2625Q489.74622 316.91876 489.2931 316.23126Q488.8556 315.54376 488.83997 314.6844ZM497.08997 310.075L497.08997 308.85626L498.15247 308.85626L498.15247 310.075L497.08997 310.075ZM497.08997 317.45L497.08997 311.23126L498.15247 311.23126L498.15247 317.45L497.08997 317.45ZM499.52747 317.45L499.52747 316.59064L503.49622 312.04376Q502.80872 312.075 502.2931 312.075L499.76184 312.075L499.76184 311.23126L504.8556 311.23126L504.8556 311.91876L501.4806 315.8719L500.82434 316.59064Q501.5431 316.54376 502.15247 316.54376L505.0431 316.54376L505.0431 317.45L499.52747 317.45ZM509.33997 315.45L510.43372 315.575Q510.18372 316.52814 509.4806 317.0594Q508.77747 317.59064 507.69934 317.59064Q506.33997 317.59064 505.52747 316.7469Q504.7306 315.90314 504.7306 314.3875Q504.7306 312.825 505.5431 311.96564Q506.3556 311.09064 507.63684 311.09064Q508.88684 311.09064 509.6681 311.9344Q510.46497 312.77814 510.46497 314.325Q510.46497 314.41876 510.46497 314.60626L505.82434 314.60626Q505.88684 315.6375 506.40247 316.1844Q506.9181 316.71564 507.69934 316.71564Q508.27747 316.71564 508.68372 316.41876Q509.1056 316.10626 509.33997 315.45ZM505.88684 313.7469L509.3556 313.7469Q509.2931 312.95 508.96497 312.5594Q508.44934 311.95 507.65247 311.95Q506.9181 311.95 506.4181 312.4344Q505.93372 312.91876 505.88684 313.7469ZM520.33997 316.4344L520.33997 317.45L514.65247 317.45Q514.65247 317.075 514.77747 316.71564Q514.9962 316.1375 515.46497 315.575Q515.94934 315.0125 516.8556 314.27814Q518.26184 313.1219 518.7462 312.45Q519.2462 311.77814 519.2462 311.1844Q519.2462 310.5594 518.7931 310.1375Q518.33997 309.7 517.6212 309.7Q516.8556 309.7 516.40247 310.15314Q515.94934 310.60626 515.9337 311.41876L514.8556 311.3094Q514.96497 310.09064 515.6837 309.46564Q516.4181 308.825 517.65247 308.825Q518.88684 308.825 519.6056 309.5125Q520.32434 310.2 520.32434 311.21564Q520.32434 311.73126 520.1056 312.23126Q519.90247 312.71564 519.40247 313.27814Q518.9181 313.825 517.7931 314.77814Q516.83997 315.575 516.5587 315.8719Q516.2931 316.15314 516.1212 316.4344L520.33997 316.4344ZM521.7931 313.21564Q521.7931 311.6844 522.1056 310.7625Q522.4181 309.825 523.02747 309.325Q523.65247 308.825 524.58997 308.825Q525.27747 308.825 525.7931 309.10626Q526.32434 309.3875 526.6681 309.91876Q527.01184 310.4344 527.19934 311.1844Q527.38684 311.9344 527.38684 313.21564Q527.38684 314.73126 527.07434 315.65314Q526.77747 316.575 526.15247 317.09064Q525.5431 317.59064 524.58997 317.59064Q523.3556 317.59064 522.63684 316.7Q521.7931 315.6375 521.7931 313.21564ZM522.8712 313.21564Q522.8712 315.325 523.3712 316.02814Q523.8712 316.73126 524.58997 316.73126Q525.32434 316.73126 525.8087 316.02814Q526.3087 315.325 526.3087 313.21564Q526.3087 311.09064 525.8087 310.40314Q525.32434 309.7 524.57434 309.7Q523.8556 309.7 523.4181 310.3094Q522.8712 311.09064 522.8712 313.21564ZM532.1681 317.45L532.1681 315.3875L528.44934 315.3875L528.44934 314.41876L532.3712 308.85626L533.2306 308.85626L533.2306 314.41876L534.38684 314.41876L534.38684 315.3875L533.2306 315.3875L533.2306 317.45L532.1681 317.45ZM532.1681 314.41876L532.1681 310.5594L529.4806 314.41876L532.1681 314.41876ZM537.4181 312.79376Q536.76184 312.54376 536.4337 312.10626Q536.1212 311.65314 536.1212 311.04376Q536.1212 310.10626 536.7931 309.46564Q537.4806 308.825 538.58997 308.825Q539.71497 308.825 540.40247 309.48126Q541.08997 310.1375 541.08997 311.075Q541.08997 311.66876 540.77747 312.10626Q540.46497 312.54376 539.82434 312.79376Q540.6212 313.04376 541.02747 313.6219Q541.4337 314.2 541.4337 314.9969Q541.4337 316.09064 540.65247 316.84064Q539.88684 317.59064 538.6056 317.59064Q537.33997 317.59064 536.5587 316.84064Q535.77747 316.09064 535.77747 314.96564Q535.77747 314.1219 536.19934 313.5594Q536.63684 312.9969 537.4181 312.79376ZM537.19934 310.9969Q537.19934 311.60626 537.58997 311.9969Q537.9962 312.3875 538.6212 312.3875Q539.2306 312.3875 539.6212 312.0125Q540.01184 311.6219 540.01184 311.0594Q540.01184 310.48126 539.6056 310.09064Q539.19934 309.6844 538.6056 309.6844Q537.9962 309.6844 537.58997 310.075Q537.19934 310.46564 537.19934 310.9969ZM536.8712 314.96564Q536.8712 315.41876 537.07434 315.84064Q537.2931 316.2625 537.71497 316.4969Q538.13684 316.73126 538.6212 316.73126Q539.3712 316.73126 539.8556 316.2469Q540.3556 315.7625 540.3556 315.0125Q540.3556 314.2469 539.8556 313.7469Q539.3556 313.2469 538.58997 313.2469Q537.83997 313.2469 537.3556 313.7469Q536.8712 314.23126 536.8712 314.96564Z" fill-rule="nonzero"/><path fill="#4285f4" d="M243.5 56.916668C243.5 56.364384 243.94771 55.916668 244.5 55.916668L254.5 55.916668C255.05229 55.916668 255.5 56.364384 255.5 56.916668L255.5 66.916664C255.5 67.46895 255.05229 67.916664 254.5 67.916664L244.5 67.916664C243.94771 67.916664 243.5 67.46895 243.5 66.916664Z" fill-rule="nonzero"/><path fill="#1a1a1a" d="M264.42188 65.916664L264.42188 57.322914L265.57812 57.322914L270.09375 64.072914L270.09375 57.322914L271.1875 57.322914L271.1875 65.916664L270.01562 65.916664L265.5 59.166664L265.5 65.916664L264.42188 65.916664ZM277.35938 65.15104Q276.76562 65.65104 276.21875 65.854164Q275.6875 66.05729 275.0625 66.05729Q274.03125 66.05729 273.48438 65.55729Q272.9375 65.05729 272.9375 64.27604Q272.9375 63.822914 273.14062 63.447914Q273.34375 63.05729 273.6875 62.83854Q274.03125 62.604164 274.45312 62.49479Q274.75 62.40104 275.39062 62.322914Q276.65625 62.18229 277.26562 61.96354Q277.26562 61.74479 277.26562 61.697914Q277.26562 61.041664 276.96875 60.77604Q276.5625 60.43229 275.76562 60.43229Q275.03125 60.43229 274.67188 60.697914Q274.3125 60.947914 274.14062 61.604164L273.10938 61.46354Q273.25 60.80729 273.57812 60.40104Q273.90625 59.99479 274.51562 59.77604Q275.125 59.55729 275.92188 59.55729Q276.71875 59.55729 277.21875 59.74479Q277.71875 59.93229 277.95312 60.21354Q278.1875 60.49479 278.28125 60.93229Q278.32812 61.197914 278.32812 61.90104L278.32812 63.30729Q278.32812 64.77604 278.39062 65.166664Q278.46875 65.55729 278.67188 65.916664L277.5625 65.916664Q277.40625 65.58854 277.35938 65.15104ZM277.26562 62.791664Q276.6875 63.02604 275.54688 63.197914Q274.89062 63.291664 274.625 63.416664Q274.35938 63.52604 274.20312 63.74479Q274.0625 63.96354 274.0625 64.24479Q274.0625 64.666664 274.375 64.947914Q274.70312 65.229164 275.3125 65.229164Q275.92188 65.229164 276.39062 64.96354Q276.875 64.697914 277.09375 64.229164Q277.26562 63.86979 277.26562 63.18229L277.26562 62.791664ZM280.29688 58.541664L280.29688 57.322914L281.35938 57.322914L281.35938 58.541664L280.29688 58.541664ZM280.29688 65.916664L280.29688 59.697914L281.35938 59.697914L281.35938 65.916664L280.29688 65.916664ZM285.01562 65.916664L282.65625 59.697914L283.76562 59.697914L285.10938 63.416664Q285.3125 64.02604 285.5 64.666664Q285.64062 64.18229 285.89062 63.49479L287.28125 59.697914L288.35938 59.697914L286.0 65.916664L285.01562 65.916664ZM292.54688 63.916664L293.64062 64.041664Q293.39062 64.99479 292.6875 65.52604Q291.98438 66.05729 290.90625 66.05729Q289.54688 66.05729 288.73438 65.21354Q287.9375 64.36979 287.9375 62.854164Q287.9375 61.291664 288.75 60.43229Q289.5625 59.55729 290.84375 59.55729Q292.09375 59.55729 292.875 60.40104Q293.67188 61.24479 293.67188 62.791664Q293.67188 62.885414 293.67188 63.072914L289.03125 63.072914Q289.09375 64.104164 289.60938 64.65104Q290.125 65.18229 290.90625 65.18229Q291.48438 65.18229 291.89062 64.885414Q292.3125 64.572914 292.54688 63.916664ZM289.09375 62.21354L292.5625 62.21354Q292.5 61.416664 292.17188 61.02604Q291.65625 60.416664 290.85938 60.416664Q290.125 60.416664 289.625 60.90104Q289.14062 61.385414 289.09375 62.21354Z" fill-rule="nonzero"/><path fill="#ea4335" d="M310.5 56.916668C310.5 56.364384 310.94772 55.916668 311.5 55.916668L321.5 55.916668C322.05228 55.916668 322.5 56.364384 322.5 56.916668L322.5 66.916664C322.5 67.46895 322.05228 67.916664 321.5 67.916664L311.5 67.916664C310.94772 67.916664 310.5 67.46895 310.5 66.916664Z" fill-rule="nonzero"/><path fill="#1a1a1a" d="M333.59375 64.979164L333.75 65.90104Q333.29688 65.99479 332.95312 65.99479Q332.375 65.99479 332.0625 65.822914Q331.75 65.635414 331.60938 65.33854Q331.48438 65.041664 331.48438 64.08854L331.48438 60.510414L330.71875 60.510414L330.71875 59.697914L331.48438 59.697914L331.48438 58.15104L332.53125 57.52604L332.53125 59.697914L333.59375 59.697914L333.59375 60.510414L332.53125 60.510414L332.53125 64.15104Q332.53125 64.604164 332.57812 64.729164Q332.64062 64.854164 332.76562 64.93229Q332.89062 65.010414 333.125 65.010414Q333.3125 65.010414 333.59375 64.979164ZM334.29688 58.541664L334.29688 57.322914L335.35938 57.322914L335.35938 58.541664L334.29688 58.541664ZM334.29688 65.916664L334.29688 59.697914L335.35938 59.697914L335.35938 65.916664L334.29688 65.916664ZM337.26562 65.916664L337.26562 57.322914L338.32812 57.322914L338.32812 65.916664L337.26562 65.916664ZM340.29688 58.541664L340.29688 57.322914L341.35938 57.322914L341.35938 58.541664L340.29688 58.541664ZM340.29688 65.916664L340.29688 59.697914L341.35938 59.697914L341.35938 65.916664L340.29688 65.916664ZM343.29688 65.916664L343.29688 59.697914L344.23438 59.697914L344.23438 60.572914Q344.92188 59.55729 346.21875 59.55729Q346.78125 59.55729 347.25 59.760414Q347.73438 59.96354 347.96875 60.291664Q348.20312 60.61979 348.29688 61.05729Q348.34375 61.354164 348.34375 62.08854L348.34375 65.916664L347.29688 65.916664L347.29688 62.135414Q347.29688 61.479164 347.17188 61.166664Q347.04688 60.854164 346.73438 60.666664Q346.42188 60.46354 346.0 60.46354Q345.32812 60.46354 344.82812 60.90104Q344.34375 61.322914 344.34375 62.510414L344.34375 65.916664L343.29688 65.916664ZM350.09375 66.43229L351.125 66.58854Q351.1875 67.05729 351.48438 67.27604Q351.875 67.572914 352.54688 67.572914Q353.28125 67.572914 353.67188 67.27604Q354.07812 66.979164 354.21875 66.46354Q354.3125 66.135414 354.29688 65.104164Q353.60938 65.916664 352.57812 65.916664Q351.29688 65.916664 350.59375 64.99479Q349.89062 64.05729 349.89062 62.77604Q349.89062 61.885414 350.20312 61.135414Q350.53125 60.36979 351.14062 59.96354Q351.75 59.55729 352.57812 59.55729Q353.6875 59.55729 354.40625 60.447914L354.40625 59.697914L355.375 59.697914L355.375 65.072914Q355.375 66.52604 355.07812 67.135414Q354.78125 67.74479 354.14062 68.08854Q353.5 68.447914 352.5625 68.447914Q351.45312 68.447914 350.76562 67.947914Q350.07812 67.447914 350.09375 66.43229ZM350.96875 62.697914Q350.96875 63.916664 351.45312 64.479164Q351.9375 65.041664 352.67188 65.041664Q353.40625 65.041664 353.89062 64.479164Q354.39062 63.916664 354.39062 62.729164Q354.39062 61.58854 353.875 61.010414Q353.375 60.43229 352.65625 60.43229Q351.95312 60.43229 351.45312 61.010414Q350.96875 61.572914 350.96875 62.697914Z" fill-rule="nonzero"/><path fill="#757575" d="M18.51875 37.55L24.01875 23.2375L26.065624 23.2375L31.925 37.55L29.76875 37.55L28.096874 33.20625L22.1125 33.20625L20.534374 37.55L18.51875 37.55ZM22.659374 31.675L27.503124 31.675L26.01875 27.70625Q25.33125 25.89375 25.003124 24.7375Q24.721874 26.1125 24.221874 27.471874L22.659374 31.675ZM35.753124 37.55L31.8 27.175L33.659374 27.175L35.89375 33.39375Q36.253124 34.39375 36.55 35.471874Q36.784374 34.659374 37.20625 33.503124L39.503124 27.175L41.315624 27.175L37.39375 37.55L35.753124 37.55ZM48.971874 34.20625L50.784374 34.440624Q50.3625 36.01875 49.190624 36.909374Q48.034374 37.784374 46.221874 37.784374Q43.95625 37.784374 42.6125 36.39375Q41.284374 34.9875 41.284374 32.45625Q41.284374 29.83125 42.628124 28.39375Q43.971874 26.940624 46.128124 26.940624Q48.20625 26.940624 49.51875 28.3625Q50.846874 29.76875 50.846874 32.346874Q50.846874 32.503124 50.83125 32.815624L43.096874 32.815624Q43.190624 34.51875 44.065624 35.425Q44.940624 36.33125 46.2375 36.33125Q47.20625 36.33125 47.878124 35.83125Q48.565624 35.315624 48.971874 34.20625ZM43.190624 31.3625L48.9875 31.3625Q48.878124 30.065624 48.33125 29.409374Q47.4875 28.39375 46.14375 28.39375Q44.940624 28.39375 44.1125 29.20625Q43.284374 30.003124 43.190624 31.3625ZM52.846874 37.55L52.846874 27.175L54.425 27.175L54.425 28.753124Q55.034374 27.64375 55.55 27.3Q56.065624 26.940624 56.675 26.940624Q57.565624 26.940624 58.4875 27.503124L57.878124 29.14375Q57.2375 28.753124 56.596874 28.753124Q56.01875 28.753124 55.55 29.1125Q55.096874 29.45625 54.89375 30.065624Q54.6125 31.003124 54.6125 32.1125L54.6125 37.55L52.846874 37.55ZM66.64375 36.26875Q65.65938 37.096874 64.75313 37.440624Q63.846874 37.784374 62.815624 37.784374Q61.1125 37.784374 60.190624 36.95625Q59.26875 36.1125 59.26875 34.815624Q59.26875 34.05 59.6125 33.425Q59.971874 32.8 60.534374 32.425Q61.096874 32.034374 61.8 31.83125Q62.315624 31.70625 63.3625 31.565624Q65.4875 31.315624 66.4875 30.971874Q66.50313 30.6125 66.50313 30.503124Q66.50313 29.440624 66.00313 28.9875Q65.33125 28.39375 64.00313 28.39375Q62.753124 28.39375 62.159374 28.83125Q61.58125 29.26875 61.3 30.378124L59.58125 30.14375Q59.815624 29.034374 60.346874 28.3625Q60.878124 27.675 61.89375 27.315624Q62.909374 26.940624 64.25313 26.940624Q65.58125 26.940624 66.40938 27.253124Q67.2375 27.565624 67.62813 28.05Q68.01875 28.51875 68.175 29.2375Q68.26875 29.690624 68.26875 30.8625L68.26875 33.20625Q68.26875 35.659374 68.37813 36.315624Q68.4875 36.95625 68.83125 37.55L66.9875 37.55Q66.72188 37.003124 66.64375 36.26875ZM66.4875 32.346874Q65.53438 32.7375 63.6125 33.003124Q62.534374 33.159374 62.08125 33.3625Q61.64375 33.55 61.39375 33.925Q61.14375 34.3 61.14375 34.76875Q61.14375 35.471874 61.675 35.940624Q62.20625 36.409374 63.2375 36.409374Q64.25313 36.409374 65.03438 35.971874Q65.83125 35.51875 66.20625 34.753124Q66.4875 34.14375 66.4875 32.9875L66.4875 32.346874ZM70.55 38.409374L72.25313 38.659374Q72.3625 39.45625 72.84688 39.815624Q73.50313 40.3 74.64375 40.3Q75.8625 40.3 76.51875 39.815624Q77.19063 39.33125 77.425 38.45625Q77.56563 37.909374 77.55 36.190624Q76.39375 37.55 74.675 37.55Q72.53438 37.55 71.3625 36.003124Q70.19063 34.45625 70.19063 32.3Q70.19063 30.815624 70.72188 29.565624Q71.26875 28.315624 72.28438 27.628124Q73.31563 26.940624 74.69063 26.940624Q76.51875 26.940624 77.72188 28.425L77.72188 27.175L79.33125 27.175L79.33125 36.14375Q79.33125 38.565624 78.83125 39.565624Q78.34688 40.58125 77.26875 41.159374Q76.20625 41.753124 74.64375 41.753124Q72.8 41.753124 71.64375 40.925Q70.50313 40.096874 70.55 38.409374ZM72.00313 32.175Q72.00313 34.221874 72.81563 35.159374Q73.62813 36.096874 74.84688 36.096874Q76.05 36.096874 76.8625 35.159374Q77.69063 34.221874 77.69063 32.2375Q77.69063 30.33125 76.84688 29.3625Q76.00313 28.39375 74.81563 28.39375Q73.64375 28.39375 72.81563 29.346874Q72.00313 30.3 72.00313 32.175ZM88.97188 34.20625L90.78438 34.440624Q90.3625 36.01875 89.19063 36.909374Q88.03438 37.784374 86.22188 37.784374Q83.95625 37.784374 82.6125 36.39375Q81.28438 34.9875 81.28438 32.45625Q81.28438 29.83125 82.62813 28.39375Q83.97188 26.940624 86.12813 26.940624Q88.20625 26.940624 89.51875 28.3625Q90.84688 29.76875 90.84688 32.346874Q90.84688 32.503124 90.83125 32.815624L83.09688 32.815624Q83.19063 34.51875 84.06563 35.425Q84.94063 36.33125 86.2375 36.33125Q87.20625 36.33125 87.87813 35.83125Q88.56563 35.315624 88.97188 34.20625ZM83.19063 31.3625L88.9875 31.3625Q88.87813 30.065624 88.33125 29.409374Q87.4875 28.39375 86.14375 28.39375Q84.94063 28.39375 84.1125 29.20625Q83.28438 30.003124 83.19063 31.3625ZM99.03438 37.55L99.03438 23.2375L101.89375 23.2375L105.26875 33.3625Q105.7375 34.784374 105.95625 35.4875Q106.20625 34.70625 106.72188 33.190624L110.14375 23.2375L112.69063 23.2375L112.69063 37.55L110.87813 37.55L110.87813 25.565624L106.70625 37.55L105.00313 37.55L100.8625 25.3625L100.8625 37.55L99.03438 37.55ZM116.09688 37.55L116.09688 23.2375L121.4875 23.2375Q122.925 23.2375 123.675 23.3625Q124.72188 23.55 125.44063 24.05Q126.15938 24.534374 126.58125 25.425Q127.01875 26.315624 127.01875 27.378124Q127.01875 29.20625 125.84688 30.471874Q124.69063 31.721874 121.65938 31.721874L117.9875 31.721874L117.9875 37.55L116.09688 37.55ZM117.9875 30.034374L121.69063 30.034374Q123.51875 30.034374 124.28438 29.3625Q125.06563 28.675 125.06563 27.425Q125.06563 26.534374 124.6125 25.89375Q124.15938 25.253124 123.425 25.05Q122.94063 24.925 121.64375 24.925L117.9875 24.925L117.9875 30.034374ZM129.01875 37.55L129.01875 23.2375L130.90938 23.2375L130.90938 30.33125L138.01875 23.2375L140.58125 23.2375L134.58125 29.034374L140.84688 37.55L138.34688 37.55L133.25313 30.3L130.90938 32.58125L130.90938 37.55L129.01875 37.55ZM142.40938 37.55L142.40938 23.2375L144.31563 23.2375L144.31563 37.55L142.40938 37.55ZM153.22188 32.3625Q153.22188 29.4875 154.81563 28.096874Q156.15938 26.940624 158.08125 26.940624Q160.22188 26.940624 161.56563 28.346874Q162.925 29.753124 162.925 32.221874Q162.925 34.221874 162.33125 35.378124Q161.7375 36.51875 160.58125 37.159374Q159.44063 37.784374 158.08125 37.784374Q155.89375 37.784374 154.55 36.39375Q153.22188 34.9875 153.22188 32.3625ZM155.01875 32.3625Q155.01875 34.3625 155.87813 35.346874Q156.75313 36.33125 158.08125 36.33125Q159.39375 36.33125 160.25313 35.346874Q161.12813 34.346874 161.12813 32.3Q161.12813 30.378124 160.25313 29.39375Q159.37813 28.39375 158.08125 28.39375Q156.75313 28.39375 155.87813 29.39375Q155.01875 30.378124 155.01875 32.3625ZM165.28438 37.55L165.28438 28.55L163.7375 28.55L163.7375 27.175L165.28438 27.175L165.28438 26.08125Q165.28438 25.034374 165.47188 24.51875Q165.72188 23.83125 166.3625 23.409374Q167.00313 22.9875 168.15938 22.9875Q168.90938 22.9875 169.8 23.159374L169.53438 24.690624Q168.9875 24.596874 168.50313 24.596874Q167.70625 24.596874 167.3625 24.940624Q167.03438 25.284374 167.03438 26.221874L167.03438 27.175L169.06563 27.175L169.06563 28.55L167.03438 28.55L167.03438 37.55L165.28438 37.55ZM176.8625 37.55L176.8625 27.175L178.45625 27.175L178.45625 28.659374Q179.59688 26.940624 181.75313 26.940624Q182.69063 26.940624 183.47188 27.284374Q184.26875 27.6125 184.65938 28.159374Q185.05 28.70625 185.20625 29.45625Q185.3 29.95625 185.3 31.175L185.3 37.55L183.53438 37.55L183.53438 31.2375Q183.53438 30.159374 183.33125 29.628124Q183.12813 29.096874 182.59688 28.784374Q182.08125 28.471874 181.37813 28.471874Q180.25313 28.471874 179.44063 29.190624Q178.62813 29.89375 178.62813 31.878124L178.62813 37.55L176.8625 37.55ZM193.64375 36.26875Q192.65938 37.096874 191.75313 37.440624Q190.84688 37.784374 189.81563 37.784374Q188.1125 37.784374 187.19063 36.95625Q186.26875 36.1125 186.26875 34.815624Q186.26875 34.05 186.6125 33.425Q186.97188 32.8 187.53438 32.425Q188.09688 32.034374 188.8 31.83125Q189.31563 31.70625 190.3625 31.565624Q192.4875 31.315624 193.4875 30.971874Q193.50313 30.6125 193.50313 30.503124Q193.50313 29.440624 193.00313 28.9875Q192.33125 28.39375 191.00313 28.39375Q189.75313 28.39375 189.15938 28.83125Q188.58125 29.26875 188.3 30.378124L186.58125 30.14375Q186.81563 29.034374 187.34688 28.3625Q187.87813 27.675 188.89375 27.315624Q189.90938 26.940624 191.25313 26.940624Q192.58125 26.940624 193.40938 27.253124Q194.2375 27.565624 194.62813 28.05Q195.01875 28.51875 195.175 29.2375Q195.26875 29.690624 195.26875 30.8625L195.26875 33.20625Q195.26875 35.659374 195.37813 36.315624Q195.4875 36.95625 195.83125 37.55L193.9875 37.55Q193.72188 37.003124 193.64375 36.26875ZM193.4875 32.346874Q192.53438 32.7375 190.6125 33.003124Q189.53438 33.159374 189.08125 33.3625Q188.64375 33.55 188.39375 33.925Q188.14375 34.3 188.14375 34.76875Q188.14375 35.471874 188.675 35.940624Q189.20625 36.409374 190.2375 36.409374Q191.25313 36.409374 192.03438 35.971874Q192.83125 35.51875 193.20625 34.753124Q193.4875 34.14375 193.4875 32.9875L193.4875 32.346874ZM197.87813 25.253124L197.87813 23.2375L199.64375 23.2375L199.64375 25.253124L197.87813 25.253124ZM197.87813 37.55L197.87813 27.175L199.64375 27.175L199.64375 37.55L197.87813 37.55ZM204.75313 37.55L200.8 27.175L202.65938 27.175L204.89375 33.39375Q205.25313 34.39375 205.55 35.471874Q205.78438 34.659374 206.20625 33.503124L208.50313 27.175L210.31563 27.175L206.39375 37.55L204.75313 37.55ZM217.97188 34.20625L219.78438 34.440624Q219.3625 36.01875 218.19063 36.909374Q217.03438 37.784374 215.22188 37.784374Q212.95625 37.784374 211.6125 36.39375Q210.28438 34.9875 210.28438 32.45625Q210.28438 29.83125 211.62813 28.39375Q212.97188 26.940624 215.12813 26.940624Q217.20625 26.940624 218.51875 28.3625Q219.84688 29.76875 219.84688 32.346874Q219.84688 32.503124 219.83125 32.815624L212.09688 32.815624Q212.19063 34.51875 213.06563 35.425Q213.94063 36.33125 215.2375 36.33125Q216.20625 36.33125 216.87813 35.83125Q217.56563 35.315624 217.97188 34.20625ZM212.19063 31.3625L217.9875 31.3625Q217.87813 30.065624 217.33125 29.409374Q216.4875 28.39375 215.14375 28.39375Q213.94063 28.39375 213.1125 29.20625Q212.28438 30.003124 212.19063 31.3625ZM230.75313 37.55L226.8 27.175L228.65938 27.175L230.89375 33.39375Q231.25313 34.39375 231.55 35.471874Q231.78438 34.659374 232.20625 33.503124L234.50313 27.175L236.31563 27.175L232.39375 37.55L230.75313 37.55ZM236.15938 34.45625L237.90938 34.175Q238.05 35.221874 238.72188 35.784374Q239.39375 36.33125 240.59688 36.33125Q241.8 36.33125 242.37813 35.846874Q242.97188 35.346874 242.97188 34.690624Q242.97188 34.096874 242.45625 33.753124Q242.09688 33.51875 240.65938 33.159374Q238.72188 32.659374 237.97188 32.315624Q237.2375 31.95625 236.84688 31.33125Q236.45625 30.690624 236.45625 29.925Q236.45625 29.2375 236.76875 28.64375Q237.09688 28.05 237.64375 27.659374Q238.05 27.3625 238.75313 27.159374Q239.47188 26.940624 240.28438 26.940624Q241.50313 26.940624 242.425 27.3Q243.34688 27.64375 243.78438 28.253124Q244.22188 28.846874 244.39375 29.846874L242.675 30.08125Q242.55 29.284374 241.9875 28.846874Q241.425 28.39375 240.40938 28.39375Q239.19063 28.39375 238.675 28.8Q238.15938 29.190624 238.15938 29.721874Q238.15938 30.065624 238.37813 30.346874Q238.58125 30.628124 239.05 30.815624Q239.31563 30.909374 240.59688 31.253124Q242.47188 31.753124 243.20625 32.08125Q243.94063 32.39375 244.3625 33.003124Q244.78438 33.596874 244.78438 34.503124Q244.78438 35.378124 244.26875 36.159374Q243.75313 36.940624 242.78438 37.3625Q241.81563 37.784374 240.59688 37.784374Q238.58125 37.784374 237.51875 36.940624Q236.45625 36.096874 236.15938 34.45625ZM256.70624 35.971874L256.95624 37.534374Q256.22186 37.690624 255.62813 37.690624Q254.675 37.690624 254.14375 37.39375Q253.62813 37.08125 253.40938 36.596874Q253.19063 36.096874 253.19063 34.51875L253.19063 28.55L251.90938 28.55L251.90938 27.175L253.19063 27.175L253.19063 24.6125L254.94063 23.55L254.94063 27.175L256.70624 27.175L256.70624 28.55L254.94063 28.55L254.94063 34.6125Q254.94063 35.3625 255.03438 35.58125Q255.12813 35.784374 255.33125 35.925Q255.55 36.05 255.94063 36.05Q256.22186 36.05 256.70624 35.971874ZM258.8781 25.253124L258.8781 23.2375L260.64374 23.2375L260.64374 25.253124L258.8781 25.253124ZM258.8781 37.55L258.8781 27.175L260.64374 27.175L260.64374 37.55L258.8781 37.55ZM262.83124 37.55L262.83124 23.2375L264.58124 23.2375L264.58124 37.55L262.83124 37.55ZM273.97186 34.20625L275.78436 34.440624Q275.3625 36.01875 274.1906 36.909374Q273.03436 37.784374 271.22186 37.784374Q268.95624 37.784374 267.6125 36.39375Q266.28436 34.9875 266.28436 32.45625Q266.28436 29.83125 267.6281 28.39375Q268.97186 26.940624 271.1281 26.940624Q273.20624 26.940624 274.51874 28.3625Q275.84686 29.76875 275.84686 32.346874Q275.84686 32.503124 275.83124 32.815624L268.09686 32.815624Q268.1906 34.51875 269.0656 35.425Q269.9406 36.33125 271.2375 36.33125Q272.20624 36.33125 272.8781 35.83125Q273.5656 35.315624 273.97186 34.20625ZM268.1906 31.3625L273.9875 31.3625Q273.8781 30.065624 273.33124 29.409374Q272.4875 28.39375 271.14374 28.39375Q269.9406 28.39375 269.1125 29.20625Q268.28436 30.003124 268.1906 31.3625ZM284.59686 37.55L284.59686 36.2375Q283.6125 37.784374 281.6906 37.784374Q280.45624 37.784374 279.40936 37.096874Q278.3781 36.409374 277.8 35.190624Q277.2375 33.971874 277.2375 32.378124Q277.2375 30.815624 277.7531 29.55Q278.26874 28.284374 279.3 27.6125Q280.34686 26.940624 281.6125 26.940624Q282.55 26.940624 283.28436 27.346874Q284.01874 27.7375 284.4875 28.3625L284.4875 23.2375L286.22186 23.2375L286.22186 37.55L284.59686 37.55ZM279.03436 32.378124Q279.03436 34.3625 279.8781 35.346874Q280.72186 36.33125 281.8625 36.33125Q283.01874 36.33125 283.8156 35.39375Q284.6281 34.45625 284.6281 32.51875Q284.6281 30.39375 283.8 29.39375Q282.9875 28.39375 281.78436 28.39375Q280.6125 28.39375 279.8156 29.3625Q279.03436 30.315624 279.03436 32.378124ZM294.8781 25.253124L294.8781 23.2375L296.64374 23.2375L296.64374 25.253124L294.8781 25.253124ZM294.8781 37.55L294.8781 27.175L296.64374 27.175L296.64374 37.55L294.8781 37.55ZM298.8625 37.55L298.8625 27.175L300.4406 27.175L300.4406 28.628124Q300.925 27.878124 301.7375 27.409374Q302.55 26.940624 303.58124 26.940624Q304.7375 26.940624 305.47186 27.425Q306.20624 27.89375 306.51874 28.753124Q307.7531 26.940624 309.72186 26.940624Q311.26874 26.940624 312.09686 27.8Q312.925 28.659374 312.925 30.425L312.925 37.55L311.175 37.55L311.175 31.01875Q311.175 29.95625 311.0031 29.503124Q310.83124 29.034374 310.3781 28.753124Q309.9406 28.471874 309.33124 28.471874Q308.2375 28.471874 307.5031 29.20625Q306.78436 29.925 306.78436 31.51875L306.78436 37.55L305.03436 37.55L305.03436 30.815624Q305.03436 29.64375 304.59686 29.065624Q304.175 28.471874 303.1906 28.471874Q302.45624 28.471874 301.8156 28.8625Q301.1906 29.253124 300.90936 30.003124Q300.6281 30.753124 300.6281 32.175L300.6281 37.55L298.8625 37.55ZM314.8625 41.51875L314.8625 27.175L316.47186 27.175L316.47186 28.51875Q317.03436 27.7375 317.7375 27.346874Q318.45624 26.940624 319.47186 26.940624Q320.8 26.940624 321.8156 27.628124Q322.83124 28.315624 323.34686 29.565624Q323.8781 30.8 323.8781 32.284374Q323.8781 33.878124 323.3 35.159374Q322.7375 36.425 321.64374 37.1125Q320.55 37.784374 319.34686 37.784374Q318.47186 37.784374 317.76874 37.409374Q317.08124 37.034374 316.6281 36.471874L316.6281 41.51875L314.8625 41.51875ZM316.45624 32.425Q316.45624 34.425 317.26874 35.378124Q318.08124 36.33125 319.2375 36.33125Q320.40936 36.33125 321.2375 35.346874Q322.08124 34.3625 322.08124 32.26875Q322.08124 30.3 321.2531 29.315624Q320.4406 28.315624 319.3156 28.315624Q318.1906 28.315624 317.3156 29.378124Q316.45624 30.425 316.45624 32.425ZM325.83124 37.55L325.83124 23.2375L327.58124 23.2375L327.58124 37.55L325.83124 37.55ZM336.97186 34.20625L338.78436 34.440624Q338.3625 36.01875 337.1906 36.909374Q336.03436 37.784374 334.22186 37.784374Q331.95624 37.784374 330.6125 36.39375Q329.28436 34.9875 329.28436 32.45625Q329.28436 29.83125 330.6281 28.39375Q331.97186 26.940624 334.1281 26.940624Q336.20624 26.940624 337.51874 28.3625Q338.84686 29.76875 338.84686 32.346874Q338.84686 32.503124 338.83124 32.815624L331.09686 32.815624Q331.1906 34.51875 332.0656 35.425Q332.9406 36.33125 334.2375 36.33125Q335.20624 36.33125 335.8781 35.83125Q336.5656 35.315624 336.97186 34.20625ZM331.1906 31.3625L336.9875 31.3625Q336.8781 30.065624 336.33124 29.409374Q335.4875 28.39375 334.14374 28.39375Q332.9406 28.39375 332.1125 29.20625Q331.28436 30.003124 331.1906 31.3625ZM340.8625 37.55L340.8625 27.175L342.4406 27.175L342.4406 28.628124Q342.925 27.878124 343.7375 27.409374Q344.55 26.940624 345.58124 26.940624Q346.7375 26.940624 347.47186 27.425Q348.20624 27.89375 348.51874 28.753124Q349.7531 26.940624 351.72186 26.940624Q353.26874 26.940624 354.09686 27.8Q354.925 28.659374 354.925 30.425L354.925 37.55L353.175 37.55L353.175 31.01875Q353.175 29.95625 353.0031 29.503124Q352.83124 29.034374 352.3781 28.753124Q351.9406 28.471874 351.33124 28.471874Q350.2375 28.471874 349.5031 29.20625Q348.78436 29.925 348.78436 31.51875L348.78436 37.55L347.03436 37.55L347.03436 30.815624Q347.03436 29.64375 346.59686 29.065624Q346.175 28.471874 345.1906 28.471874Q344.45624 28.471874 343.8156 28.8625Q343.1906 29.253124 342.90936 30.003124Q342.6281 30.753124 342.6281 32.175L342.6281 37.55L340.8625 37.55ZM363.97186 34.20625L365.78436 34.440624Q365.3625 36.01875 364.1906 36.909374Q363.03436 37.784374 361.22186 37.784374Q358.95624 37.784374 357.6125 36.39375Q356.28436 34.9875 356.28436 32.45625Q356.28436 29.83125 357.6281 28.39375Q358.97186 26.940624 361.1281 26.940624Q363.20624 26.940624 364.51874 28.3625Q365.84686 29.76875 365.84686 32.346874Q365.84686 32.503124 365.83124 32.815624L358.09686 32.815624Q358.1906 34.51875 359.0656 35.425Q359.9406 36.33125 361.2375 36.33125Q362.20624 36.33125 362.8781 35.83125Q363.5656 35.315624 363.97186 34.20625ZM358.1906 31.3625L363.9875 31.3625Q363.8781 30.065624 363.33124 29.409374Q362.4875 28.39375 361.14374 28.39375Q359.9406 28.39375 359.1125 29.20625Q358.28436 30.003124 358.1906 31.3625ZM367.8625 37.55L367.8625 27.175L369.45624 27.175L369.45624 28.659374Q370.59686 26.940624 372.7531 26.940624Q373.6906 26.940624 374.47186 27.284374Q375.26874 27.6125 375.65936 28.159374Q376.05 28.70625 376.20624 29.45625Q376.3 29.95625 376.3 31.175L376.3 37.55L374.53436 37.55L374.53436 31.2375Q374.53436 30.159374 374.33124 29.628124Q374.1281 29.096874 373.59686 28.784374Q373.08124 28.471874 372.3781 28.471874Q371.2531 28.471874 370.4406 29.190624Q369.6281 29.89375 369.6281 31.878124L369.6281 37.55L367.8625 37.55ZM381.70624 35.971874L381.95624 37.534374Q381.22186 37.690624 380.6281 37.690624Q379.675 37.690624 379.14374 37.39375Q378.6281 37.08125 378.40936 36.596874Q378.1906 36.096874 378.1906 34.51875L378.1906 28.55L376.90936 28.55L376.90936 27.175L378.1906 27.175L378.1906 24.6125L379.9406 23.55L379.9406 27.175L381.70624 27.175L381.70624 28.55L379.9406 28.55L379.9406 34.6125Q379.9406 35.3625 380.03436 35.58125Q380.1281 35.784374 380.33124 35.925Q380.55 36.05 380.9406 36.05Q381.22186 36.05 381.70624 35.971874ZM390.64374 36.26875Q389.65936 37.096874 388.7531 37.440624Q387.84686 37.784374 386.8156 37.784374Q385.1125 37.784374 384.1906 36.95625Q383.26874 36.1125 383.26874 34.815624Q383.26874 34.05 383.6125 33.425Q383.97186 32.8 384.53436 32.425Q385.09686 32.034374 385.8 31.83125Q386.3156 31.70625 387.3625 31.565624Q389.4875 31.315624 390.4875 30.971874Q390.5031 30.6125 390.5031 30.503124Q390.5031 29.440624 390.0031 28.9875Q389.33124 28.39375 388.0031 28.39375Q386.7531 28.39375 386.15936 28.83125Q385.58124 29.26875 385.3 30.378124L383.58124 30.14375Q383.8156 29.034374 384.34686 28.3625Q384.8781 27.675 385.89374 27.315624Q386.90936 26.940624 388.2531 26.940624Q389.58124 26.940624 390.40936 27.253124Q391.2375 27.565624 391.6281 28.05Q392.01874 28.51875 392.175 29.2375Q392.26874 29.690624 392.26874 30.8625L392.26874 33.20625Q392.26874 35.659374 392.3781 36.315624Q392.4875 36.95625 392.83124 37.55L390.9875 37.55Q390.72186 37.003124 390.64374 36.26875ZM390.4875 32.346874Q389.53436 32.7375 387.6125 33.003124Q386.53436 33.159374 386.08124 33.3625Q385.64374 33.55 385.39374 33.925Q385.14374 34.3 385.14374 34.76875Q385.14374 35.471874 385.675 35.940624Q386.20624 36.409374 387.2375 36.409374Q388.2531 36.409374 389.03436 35.971874Q389.83124 35.51875 390.20624 34.753124Q390.4875 34.14375 390.4875 32.9875L390.4875 32.346874ZM398.70624 35.971874L398.95624 37.534374Q398.22186 37.690624 397.6281 37.690624Q396.675 37.690624 396.14374 37.39375Q395.6281 37.08125 395.40936 36.596874Q395.1906 36.096874 395.1906 34.51875L395.1906 28.55L393.90936 28.55L393.90936 27.175L395.1906 27.175L395.1906 24.6125L396.9406 23.55L396.9406 27.175L398.70624 27.175L398.70624 28.55L396.9406 28.55L396.9406 34.6125Q396.9406 35.3625 397.03436 35.58125Q397.1281 35.784374 397.33124 35.925Q397.55 36.05 397.9406 36.05Q398.22186 36.05 398.70624 35.971874ZM400.8781 25.253124L400.8781 23.2375L402.64374 23.2375L402.64374 25.253124L400.8781 25.253124ZM400.8781 37.55L400.8781 27.175L402.64374 27.175L402.64374 37.55L400.8781 37.55ZM404.22186 32.3625Q404.22186 29.4875 405.8156 28.096874Q407.15936 26.940624 409.08124 26.940624Q411.22186 26.940624 412.5656 28.346874Q413.925 29.753124 413.925 32.221874Q413.925 34.221874 413.33124 35.378124Q412.7375 36.51875 411.58124 37.159374Q410.4406 37.784374 409.08124 37.784374Q406.89374 37.784374 405.55 36.39375Q404.22186 34.9875 404.22186 32.3625ZM406.01874 32.3625Q406.01874 34.3625 406.8781 35.346874Q407.7531 36.33125 409.08124 36.33125Q410.39374 36.33125 411.2531 35.346874Q412.1281 34.346874 412.1281 32.3Q412.1281 30.378124 411.2531 29.39375Q410.3781 28.39375 409.08124 28.39375Q407.7531 28.39375 406.8781 29.39375Q406.01874 30.378124 406.01874 32.3625ZM415.8625 37.55L415.8625 27.175L417.45624 27.175L417.45624 28.659374Q418.59686 26.940624 420.7531 26.940624Q421.6906 26.940624 422.47186 27.284374Q423.26874 27.6125 423.65936 28.159374Q424.05 28.70625 424.20624 29.45625Q424.3 29.95625 424.3 31.175L424.3 37.55L422.53436 37.55L422.53436 31.2375Q422.53436 30.159374 422.33124 29.628124Q422.1281 29.096874 421.59686 28.784374Q421.08124 28.471874 420.3781 28.471874Q419.2531 28.471874 418.4406 29.190624Q417.6281 29.89375 417.6281 31.878124L417.6281 37.55L415.8625 37.55ZM425.15936 34.45625L426.90936 34.175Q427.05 35.221874 427.72186 35.784374Q428.39374 36.33125 429.59686 36.33125Q430.8 36.33125 431.3781 35.846874Q431.97186 35.346874 431.97186 34.690624Q431.97186 34.096874 431.45624 33.753124Q431.09686 33.51875 429.65936 33.159374Q427.72186 32.659374 426.97186 32.315624Q426.2375 31.95625 425.84686 31.33125Q425.45624 30.690624 425.45624 29.925Q425.45624 29.2375 425.76874 28.64375Q426.09686 28.05 426.64374 27.659374Q427.05 27.3625 427.7531 27.159374Q428.47186 26.940624 429.28436 26.940624Q430.5031 26.940624 431.425 27.3Q432.34686 27.64375 432.78436 28.253124Q433.22186 28.846874 433.39374 29.846874L431.675 30.08125Q431.55 29.284374 430.9875 28.846874Q430.425 28.39375 429.40936 28.39375Q428.1906 28.39375 427.675 28.8Q427.15936 29.190624 427.15936 29.721874Q427.15936 30.065624 427.3781 30.346874Q427.58124 30.628124 428.05 30.815624Q428.3156 30.909374 429.59686 31.253124Q431.47186 31.753124 432.20624 32.08125Q432.9406 32.39375 433.3625 33.003124Q433.78436 33.596874 433.78436 34.503124Q433.78436 35.378124 433.26874 36.159374Q432.7531 36.940624 431.78436 37.3625Q430.8156 37.784374 429.59686 37.784374Q427.58124 37.784374 426.51874 36.940624Q425.45624 36.096874 425.15936 34.45625Z" fill-rule="nonzero"/></svg>