<svg version="1.1" viewBox="0.0 0.0 600.0 371.0" fill="none" stroke="none" stroke-linecap="square" stroke-miterlimit="10" width="600" height="371" xmlns:xlink="http://www.w3.org/1999/xlink" xmlns="http://www.w3.org/2000/svg"><path fill="#ffffff" d="M0 0L600.0 0L600.0 371.0L0 371.0L0 0Z" fill-rule="nonzero"/><path stroke="#333333" stroke-width="1.0" stroke-linecap="butt" d="M77.5 300.5L581.5 300.5" fill-rule="nonzero"/><path stroke="#cccccc" stroke-width="1.0" stroke-linecap="butt" d="M77.5 252.5L581.5 252.5" fill-rule="nonzero"/><path stroke="#cccccc" stroke-width="1.0" stroke-linecap="butt" d="M77.5 205.5L581.5 205.5" fill-rule="nonzero"/><path stroke="#cccccc" stroke-width="1.0" stroke-linecap="butt" d="M77.5 157.5L581.5 157.5" fill-rule="nonzero"/><path stroke="#cccccc" stroke-width="1.0" stroke-linecap="butt" d="M77.5 109.5L581.5 109.5" fill-rule="nonzero"/><path stroke="#cccccc" stroke-width="1.0" stroke-linecap="butt" d="M77.5 61.5L581.5 61.5" fill-rule="nonzero"/><clipPath id="id_0"><path d="M77.55 61.916668L581.45 61.916668L581.45 300.45L77.55 300.45L77.55 61.916668Z" clip-rule="nonzero"/></clipPath><path stroke="#000000" stroke-width="2.0" stroke-linecap="butt" stroke-opacity="0.0" clip-path="url(#id_0)" d="M194.0 300.0L119.0 300.0L119.0 202.0C119.0 200.89543 119.89543 200.0 121.0 200.0L192.0 200.0C193.10457 200.0 194.0 200.89543 194.0 202.0Z" fill-rule="nonzero"/><path fill="#4285f4" clip-path="url(#id_0)" d="M194.0 300.0L119.0 300.0L119.0 202.0C119.0 200.89543 119.89543 200.0 121.0 200.0L192.0 200.0C193.10457 200.0 194.0 200.89543 194.0 202.0Z" fill-rule="nonzero"/><path stroke="#000000" stroke-width="2.0" stroke-linecap="butt" stroke-opacity="0.0" clip-path="url(#id_0)" d="M310.0 300.0L235.0 300.0L235.0 187.0C235.0 185.89543 235.89543 185.0 237.0 185.0L308.0 185.0C309.10458 185.0 310.0 185.89543 310.0 187.0Z" fill-rule="nonzero"/><path fill="#4285f4" clip-path="url(#id_0)" d="M310.0 300.0L235.0 300.0L235.0 187.0C235.0 185.89543 235.89543 185.0 237.0 185.0L308.0 185.0C309.10458 185.0 310.0 185.89543 310.0 187.0Z" fill-rule="nonzero"/><path stroke="#000000" stroke-width="2.0" stroke-linecap="butt" stroke-opacity="0.0" clip-path="url(#id_0)" d="M425.0 300.0L350.0 300.0L350.0 157.0C350.0 155.89543 350.89542 155.0 352.0 155.0L423.0 155.0C424.10458 155.0 425.0 155.89543 425.0 157.0Z" fill-rule="nonzero"/><path fill="#4285f4" clip-path="url(#id_0)" d="M425.0 300.0L350.0 300.0L350.0 157.0C350.0 155.89543 350.89542 155.0 352.0 155.0L423.0 155.0C424.10458 155.0 425.0 155.89543 425.0 157.0Z" fill-rule="nonzero"/><path stroke="#000000" stroke-width="2.0" stroke-linecap="butt" stroke-opacity="0.0" clip-path="url(#id_0)" d="M541.0 300.0L466.0 300.0L466.0 90.0C466.0 88.89543 466.89542 88.0 468.0 88.0L539.0 88.0C540.10455 88.0 541.0 88.89543 541.0 90.0Z" fill-rule="nonzero"/><path fill="#4285f4" clip-path="url(#id_0)" d="M541.0 300.0L466.0 300.0L466.0 90.0C466.0 88.89543 466.89542 88.0 468.0 88.0L539.0 88.0C540.10455 88.0 541.0 88.89543 541.0 90.0Z" fill-rule="nonzero"/><path fill="#000000" d="M301.89062 349.45L301.89062 340.85626L303.60938 340.85626L305.64062 346.9344Q305.92188 347.79376 306.04688 348.21564Q306.1875 347.7469 306.5 346.84064L308.5625 340.85626L310.09375 340.85626L310.09375 349.45L309.0 349.45L309.0 342.2625L306.5 349.45L305.46875 349.45L302.98438 342.1375L302.98438 349.45L301.89062 349.45ZM314.85938 348.6844Q314.26562 349.1844 313.71875 349.3875Q313.1875 349.59064 312.5625 349.59064Q311.53125 349.59064 310.98438 349.09064Q310.4375 348.59064 310.4375 347.8094Q310.4375 347.35626 310.64062 346.98126Q310.84375 346.59064 311.1875 346.3719Q311.53125 346.1375 311.95312 346.02814Q312.25 345.9344 312.89062 345.85626Q314.15625 345.71564 314.76562 345.4969Q314.76562 345.27814 314.76562 345.23126Q314.76562 344.575 314.46875 344.3094Q314.0625 343.96564 313.26562 343.96564Q312.53125 343.96564 312.17188 344.23126Q311.8125 344.48126 311.64062 345.1375L310.60938 344.9969Q310.75 344.34064 311.07812 343.9344Q311.40625 343.52814 312.01562 343.3094Q312.625 343.09064 313.42188 343.09064Q314.21875 343.09064 314.71875 343.27814Q315.21875 343.46564 315.45312 343.7469Q315.6875 344.02814 315.78125 344.46564Q315.82812 344.73126 315.82812 345.4344L315.82812 346.84064Q315.82812 348.3094 315.89062 348.7Q315.96875 349.09064 316.17188 349.45L315.0625 349.45Q314.90625 349.1219 314.85938 348.6844ZM314.76562 346.325Q314.1875 346.5594 313.04688 346.73126Q312.39062 346.825 312.125 346.95Q311.85938 347.0594 311.70312 347.27814Q311.5625 347.4969 311.5625 347.77814Q311.5625 348.2 311.875 348.48126Q312.20312 348.7625 312.8125 348.7625Q313.42188 348.7625 313.89062 348.4969Q314.375 348.23126 314.59375 347.7625Q314.76562 347.40314 314.76562 346.71564L314.76562 346.325ZM320.09375 348.5125L320.25 349.4344Q319.79688 349.52814 319.45312 349.52814Q318.875 349.52814 318.5625 349.35626Q318.25 349.16876 318.10938 348.8719Q317.98438 348.575 317.98438 347.6219L317.98438 344.04376L317.21875 344.04376L317.21875 343.23126L317.98438 343.23126L317.98438 341.6844L319.03125 341.0594L319.03125 343.23126L320.09375 343.23126L320.09375 344.04376L319.03125 344.04376L319.03125 347.6844Q319.03125 348.1375 319.07812 348.2625Q319.14062 348.3875 319.26562 348.46564Q319.39062 348.54376 319.625 348.54376Q319.8125 348.54376 320.09375 348.5125ZM320.78125 349.45L320.78125 343.23126L321.73438 343.23126L321.73438 344.16876Q322.09375 343.5125 322.39062 343.3094Q322.70312 343.09064 323.07812 343.09064Q323.60938 343.09064 324.15625 343.41876L323.79688 344.40314Q323.40625 344.16876 323.03125 344.16876Q322.67188 344.16876 322.39062 344.3875Q322.125 344.59064 322.01562 344.96564Q321.82812 345.52814 321.82812 346.1844L321.82812 349.45L320.78125 349.45ZM324.79688 342.075L324.79688 340.85626L325.85938 340.85626L325.85938 342.075L324.79688 342.075ZM324.79688 349.45L324.79688 343.23126L325.85938 343.23126L325.85938 349.45L324.79688 349.45ZM327.09375 349.45L329.35938 346.21564L327.26562 343.23126L328.57812 343.23126L329.53125 344.6844Q329.79688 345.10626 329.96875 345.3875Q330.21875 344.9969 330.4375 344.7L331.48438 343.23126L332.75 343.23126L330.59375 346.15314L332.90625 349.45L331.625 349.45L330.34375 347.5125L330.0 346.9969L328.35938 349.45L327.09375 349.45ZM335.54688 346.6844L336.60938 346.59064Q336.6875 347.2469 336.96875 347.65314Q337.25 348.0594 337.82812 348.325Q338.42188 348.575 339.15625 348.575Q339.79688 348.575 340.29688 348.3875Q340.79688 348.1844 341.03125 347.85626Q341.28125 347.5125 341.28125 347.1219Q341.28125 346.71564 341.04688 346.41876Q340.8125 346.10626 340.28125 345.90314Q339.92188 345.7625 338.73438 345.48126Q337.5625 345.2 337.09375 344.95Q336.46875 344.6219 336.17188 344.15314Q335.875 343.66876 335.875 343.075Q335.875 342.4344 336.23438 341.8719Q336.60938 341.29376 337.3125 341.0125Q338.03125 340.71564 338.89062 340.71564Q339.84375 340.71564 340.57812 341.02814Q341.3125 341.325 341.70312 341.9344Q342.09375 342.52814 342.125 343.27814L341.03125 343.35626Q340.9375 342.54376 340.42188 342.1375Q339.92188 341.71564 338.9375 341.71564Q337.90625 341.71564 337.4375 342.09064Q336.96875 342.46564 336.96875 342.9969Q336.96875 343.46564 337.29688 343.7625Q337.625 344.0594 339.0 344.3719Q340.39062 344.6844 340.90625 344.91876Q341.65625 345.27814 342.01562 345.8094Q342.375 346.325 342.375 347.02814Q342.375 347.71564 341.98438 348.325Q341.59375 348.91876 340.85938 349.2625Q340.125 349.59064 339.20312 349.59064Q338.03125 349.59064 337.23438 349.2625Q336.45312 348.91876 336.0 348.23126Q335.5625 347.54376 335.54688 346.6844ZM343.79688 342.075L343.79688 340.85626L344.85938 340.85626L344.85938 342.075L343.79688 342.075ZM343.79688 349.45L343.79688 343.23126L344.85938 343.23126L344.85938 349.45L343.79688 349.45ZM346.23438 349.45L346.23438 348.59064L350.20312 344.04376Q349.51562 344.075 349.0 344.075L346.46875 344.075L346.46875 343.23126L351.5625 343.23126L351.5625 343.91876L348.1875 347.8719L347.53125 348.59064Q348.25 348.54376 348.85938 348.54376L351.75 348.54376L351.75 349.45L346.23438 349.45ZM356.04688 347.45L357.14062 347.575Q356.89062 348.52814 356.1875 349.0594Q355.48438 349.59064 354.40625 349.59064Q353.04688 349.59064 352.23438 348.7469Q351.4375 347.90314 351.4375 346.3875Q351.4375 344.825 352.25 343.96564Q353.0625 343.09064 354.34375 343.09064Q355.59375 343.09064 356.375 343.9344Q357.17188 344.77814 357.17188 346.325Q357.17188 346.41876 357.17188 346.60626L352.53125 346.60626Q352.59375 347.6375 353.10938 348.1844Q353.625 348.71564 354.40625 348.71564Q354.98438 348.71564 355.39062 348.41876Q355.8125 348.10626 356.04688 347.45ZM352.59375 345.7469L356.0625 345.7469Q356.0 344.95 355.67188 344.5594Q355.15625 343.95 354.35938 343.95Q353.625 343.95 353.125 344.4344Q352.64062 344.91876 352.59375 345.7469Z" fill-rule="nonzero"/><path fill="#000000" d="M29.550013 212.69896L20.956263 209.40208L20.956263 208.18333L29.550013 204.66771L29.550013 205.94896L26.940638 206.96458L26.940638 210.54271L29.550013 211.49583L29.550013 212.69896ZM26.018763 210.21458L26.018763 207.30833L23.643763 208.19896Q22.565638 208.62083 21.862513 208.80833Q22.690638 208.98021 23.503138 209.27708L26.018763 210.21458ZM29.550013 203.16771L23.331263 205.52708L23.331263 204.41771L27.050013 203.07396Q27.659388 202.87083 28.300013 202.68333Q27.815638 202.54271 27.128138 202.29271L23.331263 200.90208L23.331263 199.82396L29.550013 202.18333L29.550013 203.16771ZM30.065638 200.08958L30.221888 199.05833Q30.690638 198.99583 30.909388 198.69896Q31.206263 198.30833 31.206263 197.63646Q31.206263 196.90208 30.909388 196.51146Q30.612513 196.10521 30.096888 195.96458Q29.768763 195.87083 28.737513 195.88646Q29.550013 196.57396 29.550013 197.60521Q29.550013 198.88646 28.628138 199.58958Q27.690638 200.29271 26.409388 200.29271Q25.518763 200.29271 24.768763 199.98021Q24.003138 199.65208 23.596888 199.04271Q23.190638 198.43333 23.190638 197.60521Q23.190638 196.49583 24.081263 195.77708L23.331263 195.77708L23.331263 194.80833L28.706263 194.80833Q30.159388 194.80833 30.768763 195.10521Q31.378138 195.40208 31.721888 196.04271Q32.08126 196.68333 32.08126 197.62083Q32.08126 198.73021 31.581263 199.41771Q31.081263 200.10521 30.065638 200.08958ZM26.331263 199.21458Q27.550013 199.21458 28.112513 198.73021Q28.675013 198.24583 28.675013 197.51146Q28.675013 196.77708 28.112513 196.29271Q27.550013 195.79271 26.362513 195.79271Q25.221888 195.79271 24.643763 196.30833Q24.065638 196.80833 24.065638 197.52708Q24.065638 198.23021 24.643763 198.73021Q25.206263 199.21458 26.331263 199.21458ZM29.550013 189.79271L20.956263 189.79271L20.956263 188.07396L27.034388 186.04271Q27.893763 185.76146 28.315638 185.63646Q27.846888 185.49583 26.940638 185.18333L20.956263 183.12083L20.956263 181.58958L29.550013 181.58958L29.550013 182.68333L22.362513 182.68333L29.550013 185.18333L29.550013 186.21458L22.237513 188.69896L29.550013 188.69896L29.550013 189.79271ZM29.550013 180.76146L20.956263 180.76146L20.956263 177.51146Q20.956263 176.66771 21.034388 176.21458Q21.143763 175.57396 21.440638 175.15208Q21.737513 174.71458 22.268763 174.46458Q22.800013 174.19896 23.440638 174.19896Q24.534388 174.19896 25.300013 174.90208Q26.050013 175.58958 26.050013 177.41771L26.050013 179.62083L29.550013 179.62083L29.550013 180.76146ZM25.050013 179.62083L25.050013 177.40208Q25.050013 176.29271 24.643763 175.83958Q24.221888 175.37083 23.471888 175.37083Q22.940638 175.37083 22.565638 175.65208Q22.175013 175.91771 22.050013 176.35521Q21.971888 176.65208 21.971888 177.41771L21.971888 179.62083L25.050013 179.62083ZM29.550013 172.80833L20.956263 172.80833L20.956263 171.66771L25.221888 171.66771L20.956263 167.40208L20.956263 165.85521L24.440638 169.46458L29.550013 165.69896L29.550013 167.19896L25.206263 170.26146L26.565638 171.66771L29.550013 171.66771L29.550013 172.80833ZM29.550013 164.55833L20.956263 164.55833L20.956263 163.43333L29.550013 163.43333L29.550013 164.55833Z" fill-rule="nonzero"/><path fill="#000000" d="M65.05 300.21564Q65.05 298.6844 65.3625 297.7625Q65.675 296.825 66.28438 296.325Q66.90938 295.825 67.84688 295.825Q68.53438 295.825 69.05 296.10626Q69.58125 296.3875 69.925 296.91876Q70.26875 297.4344 70.45625 298.1844Q70.64375 298.9344 70.64375 300.21564Q70.64375 301.73126 70.33125 302.65314Q70.03438 303.575 69.40938 304.09064Q68.8 304.59064 67.84688 304.59064Q66.6125 304.59064 65.89375 303.7Q65.05 302.6375 65.05 300.21564ZM66.12813 300.21564Q66.12813 302.325 66.62813 303.02814Q67.12813 303.73126 67.84688 303.73126Q68.58125 303.73126 69.06563 303.02814Q69.56563 302.325 69.56563 300.21564Q69.56563 298.09064 69.06563 297.40314Q68.58125 296.7 67.83125 296.7Q67.1125 296.7 66.675 297.3094Q66.12813 298.09064 66.12813 300.21564Z" fill-rule="nonzero"/><path fill="#000000" d="M65.05 254.49335L66.15938 254.3996Q66.28438 255.2121 66.72188 255.61835Q67.175 256.0246 67.81563 256.0246Q68.56563 256.0246 69.09688 255.44647Q69.62813 254.86835 69.62813 253.93085Q69.62813 253.0246 69.1125 252.50897Q68.6125 251.97772 67.78438 251.97772Q67.28438 251.97772 66.8625 252.2121Q66.45625 252.44647 66.22188 252.80585L65.2375 252.68085L66.06563 248.2746L70.34688 248.2746L70.34688 249.2746L66.90938 249.2746L66.45625 251.5871Q67.22188 251.04022 68.06563 251.04022Q69.19063 251.04022 69.95625 251.82147Q70.7375 252.60272 70.7375 253.8371Q70.7375 254.99335 70.06563 255.85272Q69.2375 256.88397 67.81563 256.88397Q66.64375 256.88397 65.89375 256.22772Q65.15938 255.57147 65.05 254.49335Z" fill-rule="nonzero"/><path fill="#000000" d="M62.01875 209.03667L60.971874 209.03667L60.971874 202.31792Q60.58125 202.67729 59.95625 203.05229Q59.346874 203.41167 58.8625 203.58354L58.8625 202.56792Q59.7375 202.14604 60.39375 201.56792Q61.065624 200.97417 61.346874 200.41167L62.01875 200.41167L62.01875 209.03667ZM65.05 204.80229Q65.05 203.27104 65.3625 202.34917Q65.675 201.41167 66.28438 200.91167Q66.90938 200.41167 67.84688 200.41167Q68.53438 200.41167 69.05 200.69292Q69.58125 200.97417 69.925 201.50542Q70.26875 202.02104 70.45625 202.77104Q70.64375 203.52104 70.64375 204.80229Q70.64375 206.31792 70.33125 207.23979Q70.03438 208.16167 69.40938 208.67729Q68.8 209.17729 67.84688 209.17729Q66.6125 209.17729 65.89375 208.28667Q65.05 207.22417 65.05 204.80229ZM66.12813 204.80229Q66.12813 206.91167 66.62813 207.61479Q67.12813 208.31792 67.84688 208.31792Q68.58125 208.31792 69.06563 207.61479Q69.56563 206.91167 69.56563 204.80229Q69.56563 202.67729 69.06563 201.98979Q68.58125 201.28667 67.83125 201.28667Q67.1125 201.28667 66.675 201.89604Q66.12813 202.67729 66.12813 204.80229Z" fill-rule="nonzero"/><path fill="#000000" d="M62.01875 161.33L60.971874 161.33L60.971874 154.61125Q60.58125 154.97063 59.95625 155.34563Q59.346874 155.705 58.8625 155.87688L58.8625 154.86125Q59.7375 154.43938 60.39375 153.86125Q61.065624 153.2675 61.346874 152.705L62.01875 152.705L62.01875 161.33ZM65.05 159.08L66.15938 158.98625Q66.28438 159.79875 66.72188 160.205Q67.175 160.61125 67.81563 160.61125Q68.56563 160.61125 69.09688 160.03313Q69.62813 159.455 69.62813 158.5175Q69.62813 157.61125 69.1125 157.09563Q68.6125 156.56438 67.78438 156.56438Q67.28438 156.56438 66.8625 156.79875Q66.45625 157.03313 66.22188 157.3925L65.2375 157.2675L66.06563 152.86125L70.34688 152.86125L70.34688 153.86125L66.90938 153.86125L66.45625 156.17375Q67.22188 155.62688 68.06563 155.62688Q69.19063 155.62688 69.95625 156.40813Q70.7375 157.18938 70.7375 158.42375Q70.7375 159.58 70.06563 160.43938Q69.2375 161.47063 67.81563 161.47063Q66.64375 161.47063 65.89375 160.81438Q65.15938 160.15813 65.05 159.08Z" fill-rule="nonzero"/><path fill="#000000" d="M63.596874 112.60771L63.596874 113.62334L57.909374 113.62334Q57.909374 113.24834 58.034374 112.88896Q58.253124 112.31084 58.721874 111.74834Q59.20625 111.18584 60.1125 110.45146Q61.51875 109.29521 62.003124 108.62334Q62.503124 107.95146 62.503124 107.35771Q62.503124 106.73271 62.05 106.31084Q61.596874 105.87334 60.878124 105.87334Q60.1125 105.87334 59.659374 106.32646Q59.20625 106.77959 59.190624 107.59209L58.1125 107.48271Q58.221874 106.26396 58.940624 105.63896Q59.675 104.99834 60.909374 104.99834Q62.14375 104.99834 62.8625 105.68584Q63.58125 106.37334 63.58125 107.38896Q63.58125 107.90459 63.3625 108.40459Q63.159374 108.88896 62.659374 109.45146Q62.175 109.99834 61.05 110.95146Q60.096874 111.74834 59.815624 112.04521Q59.55 112.32646 59.378124 112.60771L63.596874 112.60771ZM65.05 109.38896Q65.05 107.85771 65.3625 106.93584Q65.675 105.99834 66.28438 105.49834Q66.90938 104.99834 67.84688 104.99834Q68.53438 104.99834 69.05 105.27959Q69.58125 105.56084 69.925 106.09209Q70.26875 106.60771 70.45625 107.35771Q70.64375 108.10771 70.64375 109.38896Q70.64375 110.90459 70.33125 111.82646Q70.03438 112.74834 69.40938 113.26396Q68.8 113.76396 67.84688 113.76396Q66.6125 113.76396 65.89375 112.87334Q65.05 111.81084 65.05 109.38896ZM66.12813 109.38896Q66.12813 111.49834 66.62813 112.20146Q67.12813 112.90459 67.84688 112.90459Q68.58125 112.90459 69.06563 112.20146Q69.56563 111.49834 69.56563 109.38896Q69.56563 107.26396 69.06563 106.57646Q68.58125 105.87334 67.83125 105.87334Q67.1125 105.87334 66.675 106.48271Q66.12813 107.26396 66.12813 109.38896Z" fill-rule="nonzero"/><path fill="#000000" d="M63.596874 64.90104L63.596874 65.916664L57.909374 65.916664Q57.909374 65.541664 58.034374 65.18229Q58.253124 64.604164 58.721874 64.041664Q59.20625 63.479164 60.1125 62.74479Q61.51875 61.58854 62.003124 60.916664Q62.503124 60.24479 62.503124 59.65104Q62.503124 59.02604 62.05 58.604164Q61.596874 58.166664 60.878124 58.166664Q60.1125 58.166664 59.659374 58.61979Q59.20625 59.072914 59.190624 59.885414L58.1125 59.77604Q58.221874 58.55729 58.940624 57.93229Q59.675 57.291664 60.909374 57.291664Q62.14375 57.291664 62.8625 57.979164Q63.58125 58.666664 63.58125 59.68229Q63.58125 60.197914 63.3625 60.697914Q63.159374 61.18229 62.659374 61.74479Q62.175 62.291664 61.05 63.24479Q60.096874 64.041664 59.815624 64.33854Q59.55 64.61979 59.378124 64.90104L63.596874 64.90104ZM65.05 63.666664L66.15938 63.572914Q66.28438 64.385414 66.72188 64.791664Q67.175 65.197914 67.81563 65.197914Q68.56563 65.197914 69.09688 64.61979Q69.62813 64.041664 69.62813 63.104164Q69.62813 62.197914 69.1125 61.68229Q68.6125 61.15104 67.78438 61.15104Q67.28438 61.15104 66.8625 61.385414Q66.45625 61.61979 66.22188 61.979164L65.2375 61.854164L66.06563 57.447914L70.34688 57.447914L70.34688 58.447914L66.90938 58.447914L66.45625 60.760414Q67.22188 60.21354 68.06563 60.21354Q69.19063 60.21354 69.95625 60.99479Q70.7375 61.77604 70.7375 63.010414Q70.7375 64.166664 70.06563 65.02604Q69.2375 66.05729 67.81563 66.05729Q66.64375 66.05729 65.89375 65.40104Q65.15938 64.74479 65.05 63.666664Z" fill-rule="nonzero"/><path fill="#000000" d="M151.28825 316.4344L151.28825 317.45L145.60075 317.45Q145.60075 317.075 145.72575 316.71564Q145.9445 316.1375 146.41325 315.575Q146.89763 315.0125 147.80388 314.27814Q149.21013 313.1219 149.6945 312.45Q150.1945 311.77814 150.1945 311.1844Q150.1945 310.5594 149.74138 310.1375Q149.28825 309.7 148.5695 309.7Q147.80388 309.7 147.35075 310.15314Q146.89763 310.60626 146.882 311.41876L145.80388 311.3094Q145.91325 310.09064 146.632 309.46564Q147.36638 308.825 148.60075 308.825Q149.83513 308.825 150.55388 309.5125Q151.27263 310.2 151.27263 311.21564Q151.27263 311.73126 151.05388 312.23126Q150.85075 312.71564 150.35075 313.27814Q149.86638 313.825 148.74138 314.77814Q147.78825 315.575 147.507 315.8719Q147.24138 316.15314 147.0695 316.4344L151.28825 316.4344ZM152.74138 315.2L153.85075 315.10626Q153.97575 315.91876 154.41325 316.325Q154.86638 316.73126 155.507 316.73126Q156.257 316.73126 156.78825 316.15314Q157.3195 315.575 157.3195 314.6375Q157.3195 313.73126 156.80388 313.21564Q156.30388 312.6844 155.47575 312.6844Q154.97575 312.6844 154.55388 312.91876Q154.14763 313.15314 153.91325 313.5125L152.92888 313.3875L153.757 308.98126L158.03825 308.98126L158.03825 309.98126L154.60075 309.98126L154.14763 312.29376Q154.91325 311.7469 155.757 311.7469Q156.882 311.7469 157.64763 312.52814Q158.42888 313.3094 158.42888 314.54376Q158.42888 315.7 157.757 316.5594Q156.92888 317.59064 155.507 317.59064Q154.33513 317.59064 153.58513 316.9344Q152.85075 316.27814 152.74138 315.2ZM165.21013 310.96564L164.16325 311.04376Q164.02263 310.41876 163.77263 310.1375Q163.33513 309.6844 162.71013 309.6844Q162.21013 309.6844 161.8195 309.96564Q161.33513 310.34064 161.03825 311.04376Q160.757 311.73126 160.74138 313.0125Q161.11638 312.4344 161.66325 312.15314Q162.22575 311.8719 162.83513 311.8719Q163.882 311.8719 164.61638 312.65314Q165.36638 313.4344 165.36638 314.65314Q165.36638 315.46564 165.007 316.16876Q164.66325 316.85626 164.05388 317.23126Q163.4445 317.59064 162.67888 317.59064Q161.35075 317.59064 160.52263 316.6219Q159.6945 315.65314 159.6945 313.4344Q159.6945 310.9344 160.61638 309.8094Q161.41325 308.825 162.77263 308.825Q163.78825 308.825 164.42888 309.40314Q165.08513 309.96564 165.21013 310.96564ZM160.91325 314.66876Q160.91325 315.21564 161.132 315.71564Q161.36638 316.2 161.77263 316.46564Q162.1945 316.73126 162.66325 316.73126Q163.3195 316.73126 163.80388 316.2Q164.28825 315.65314 164.28825 314.73126Q164.28825 313.84064 163.80388 313.325Q163.33513 312.8094 162.61638 312.8094Q161.89763 312.8094 161.39763 313.325Q160.91325 313.84064 160.91325 314.66876Z" fill-rule="nonzero"/><path fill="#000000" d="M261.58047 315.2L262.68985 315.10626Q262.81485 315.91876 263.25235 316.325Q263.70547 316.73126 264.3461 316.73126Q265.0961 316.73126 265.62735 316.15314Q266.1586 315.575 266.1586 314.6375Q266.1586 313.73126 265.64297 313.21564Q265.14297 312.6844 264.31485 312.6844Q263.81485 312.6844 263.39297 312.91876Q262.98672 313.15314 262.75235 313.5125L261.76797 313.3875L262.5961 308.98126L266.87735 308.98126L266.87735 309.98126L263.43985 309.98126L262.98672 312.29376Q263.75235 311.7469 264.5961 311.7469Q265.7211 311.7469 266.48672 312.52814Q267.26797 313.3094 267.26797 314.54376Q267.26797 315.7 266.5961 316.5594Q265.76797 317.59064 264.3461 317.59064Q263.17422 317.59064 262.42422 316.9344Q261.68985 316.27814 261.58047 315.2ZM272.54922 317.45L271.50235 317.45L271.50235 310.73126Q271.11172 311.09064 270.48672 311.46564Q269.87735 311.825 269.39297 311.9969L269.39297 310.98126Q270.26797 310.5594 270.92422 309.98126Q271.5961 309.3875 271.87735 308.825L272.54922 308.825L272.54922 317.45ZM281.12735 316.4344L281.12735 317.45L275.43985 317.45Q275.43985 317.075 275.56485 316.71564Q275.7836 316.1375 276.25235 315.575Q276.73672 315.0125 277.64297 314.27814Q279.04922 313.1219 279.5336 312.45Q280.0336 311.77814 280.0336 311.1844Q280.0336 310.5594 279.58047 310.1375Q279.12735 309.7 278.4086 309.7Q277.64297 309.7 277.18985 310.15314Q276.73672 310.60626 276.7211 311.41876L275.64297 311.3094Q275.75235 310.09064 276.4711 309.46564Q277.20547 308.825 278.43985 308.825Q279.67422 308.825 280.39297 309.5125Q281.11172 310.2 281.11172 311.21564Q281.11172 311.73126 280.89297 312.23126Q280.68985 312.71564 280.18985 313.27814Q279.70547 313.825 278.58047 314.77814Q277.62735 315.575 277.3461 315.8719Q277.08047 316.15314 276.9086 316.4344L281.12735 316.4344Z" fill-rule="nonzero"/><path fill="#000000" d="M377.88828 317.45L376.8414 317.45L376.8414 310.73126Q376.45078 311.09064 375.82578 311.46564Q375.2164 311.825 374.73203 311.9969L374.73203 310.98126Q375.60703 310.5594 376.26328 309.98126Q376.93515 309.3875 377.2164 308.825L377.88828 308.825L377.88828 317.45ZM380.91953 313.21564Q380.91953 311.6844 381.23203 310.7625Q381.54453 309.825 382.1539 309.325Q382.7789 308.825 383.7164 308.825Q384.4039 308.825 384.91953 309.10626Q385.45078 309.3875 385.79453 309.91876Q386.13828 310.4344 386.32578 311.1844Q386.51328 311.9344 386.51328 313.21564Q386.51328 314.73126 386.20078 315.65314Q385.9039 316.575 385.2789 317.09064Q384.66953 317.59064 383.7164 317.59064Q382.48203 317.59064 381.76328 316.7Q380.91953 315.6375 380.91953 313.21564ZM381.99765 313.21564Q381.99765 315.325 382.49765 316.02814Q382.99765 316.73126 383.7164 316.73126Q384.45078 316.73126 384.93515 316.02814Q385.43515 315.325 385.43515 313.21564Q385.43515 311.09064 384.93515 310.40314Q384.45078 309.7 383.70078 309.7Q382.98203 309.7 382.54453 310.3094Q381.99765 311.09064 381.99765 313.21564ZM393.4664 316.4344L393.4664 317.45L387.7789 317.45Q387.7789 317.075 387.9039 316.71564Q388.12265 316.1375 388.5914 315.575Q389.07578 315.0125 389.98203 314.27814Q391.38828 313.1219 391.87265 312.45Q392.37265 311.77814 392.37265 311.1844Q392.37265 310.5594 391.91953 310.1375Q391.4664 309.7 390.74765 309.7Q389.98203 309.7 389.5289 310.15314Q389.07578 310.60626 389.06015 311.41876L387.98203 311.3094Q388.0914 310.09064 388.81015 309.46564Q389.54453 308.825 390.7789 308.825Q392.01328 308.825 392.73203 309.5125Q393.45078 310.2 393.45078 311.21564Q393.45078 311.73126 393.23203 312.23126Q393.0289 312.71564 392.5289 313.27814Q392.04453 313.825 390.91953 314.77814Q389.9664 315.575 389.68515 315.8719Q389.41953 316.15314 389.24765 316.4344L393.4664 316.4344ZM398.29453 317.45L398.29453 315.3875L394.57578 315.3875L394.57578 314.41876L398.49765 308.85626L399.35703 308.85626L399.35703 314.41876L400.51328 314.41876L400.51328 315.3875L399.35703 315.3875L399.35703 317.45L398.29453 317.45ZM398.29453 314.41876L398.29453 310.5594L395.60703 314.41876L398.29453 314.41876Z" fill-rule="nonzero"/><path fill="#000000" d="M495.30548 316.4344L495.30548 317.45L489.61798 317.45Q489.61798 317.075 489.74298 316.71564Q489.96173 316.1375 490.43048 315.575Q490.91486 315.0125 491.8211 314.27814Q493.22736 313.1219 493.71173 312.45Q494.21173 311.77814 494.21173 311.1844Q494.21173 310.5594 493.7586 310.1375Q493.30548 309.7 492.58673 309.7Q491.8211 309.7 491.36798 310.15314Q490.91486 310.60626 490.89923 311.41876L489.8211 311.3094Q489.93048 310.09064 490.64923 309.46564Q491.3836 308.825 492.61798 308.825Q493.85236 308.825 494.5711 309.5125Q495.28986 310.2 495.28986 311.21564Q495.28986 311.73126 495.0711 312.23126Q494.86798 312.71564 494.36798 313.27814Q493.8836 313.825 492.7586 314.77814Q491.80548 315.575 491.52423 315.8719Q491.2586 316.15314 491.08673 316.4344L495.30548 316.4344ZM496.7586 313.21564Q496.7586 311.6844 497.0711 310.7625Q497.3836 309.825 497.99298 309.325Q498.61798 308.825 499.55548 308.825Q500.24298 308.825 500.7586 309.10626Q501.28986 309.3875 501.6336 309.91876Q501.97736 310.4344 502.16486 311.1844Q502.35236 311.9344 502.35236 313.21564Q502.35236 314.73126 502.03986 315.65314Q501.74298 316.575 501.11798 317.09064Q500.5086 317.59064 499.55548 317.59064Q498.3211 317.59064 497.60236 316.7Q496.7586 315.6375 496.7586 313.21564ZM497.83673 313.21564Q497.83673 315.325 498.33673 316.02814Q498.83673 316.73126 499.55548 316.73126Q500.28986 316.73126 500.77423 316.02814Q501.27423 315.325 501.27423 313.21564Q501.27423 311.09064 500.77423 310.40314Q500.28986 309.7 499.53986 309.7Q498.8211 309.7 498.3836 310.3094Q497.83673 311.09064 497.83673 313.21564ZM507.1336 317.45L507.1336 315.3875L503.41486 315.3875L503.41486 314.41876L507.33673 308.85626L508.1961 308.85626L508.1961 314.41876L509.35236 314.41876L509.35236 315.3875L508.1961 315.3875L508.1961 317.45L507.1336 317.45ZM507.1336 314.41876L507.1336 310.5594L504.4461 314.41876L507.1336 314.41876ZM512.3836 312.79376Q511.72736 312.54376 511.39923 312.10626Q511.08673 311.65314 511.08673 311.04376Q511.08673 310.10626 511.7586 309.46564Q512.4461 308.825 513.5555 308.825Q514.6805 308.825 515.368 309.48126Q516.0555 310.1375 516.0555 311.075Q516.0555 311.66876 515.743 312.10626Q515.4305 312.54376 514.78986 312.79376Q515.58673 313.04376 515.993 313.6219Q516.39923 314.2 516.39923 314.9969Q516.39923 316.09064 515.618 316.84064Q514.85236 317.59064 513.5711 317.59064Q512.3055 317.59064 511.52423 316.84064Q510.74298 316.09064 510.74298 314.96564Q510.74298 314.1219 511.16486 313.5594Q511.60236 312.9969 512.3836 312.79376ZM512.16486 310.9969Q512.16486 311.60626 512.5555 311.9969Q512.96173 312.3875 513.58673 312.3875Q514.1961 312.3875 514.58673 312.0125Q514.97736 311.6219 514.97736 311.0594Q514.97736 310.48126 514.5711 310.09064Q514.16486 309.6844 513.5711 309.6844Q512.96173 309.6844 512.5555 310.075Q512.16486 310.46564 512.16486 310.9969ZM511.83673 314.96564Q511.83673 315.41876 512.03986 315.84064Q512.2586 316.2625 512.6805 316.4969Q513.10236 316.73126 513.58673 316.73126Q514.33673 316.73126 514.8211 316.2469Q515.3211 315.7625 515.3211 315.0125Q515.3211 314.2469 514.8211 313.7469Q514.3211 313.2469 513.5555 313.2469Q512.8055 313.2469 512.3211 313.7469Q511.83673 314.23126 511.83673 314.96564Z" fill-rule="nonzero"/><path fill="#757575" d="M18.51875 37.55L24.01875 23.2375L26.065624 23.2375L31.925 37.55L29.76875 37.55L28.096874 33.20625L22.1125 33.20625L20.534374 37.55L18.51875 37.55ZM22.659374 31.675L27.503124 31.675L26.01875 27.70625Q25.33125 25.89375 25.003124 24.7375Q24.721874 26.1125 24.221874 27.471874L22.659374 31.675ZM35.753124 37.55L31.8 27.175L33.659374 27.175L35.89375 33.39375Q36.253124 34.39375 36.55 35.471874Q36.784374 34.659374 37.20625 33.503124L39.503124 27.175L41.315624 27.175L37.39375 37.55L35.753124 37.55ZM41.55 38.409374L43.253124 38.659374Q43.3625 39.45625 43.846874 39.815624Q44.503124 40.3 45.64375 40.3Q46.8625 40.3 47.51875 39.815624Q48.190624 39.33125 48.425 38.45625Q48.565624 37.909374 48.55 36.190624Q47.39375 37.55 45.675 37.55Q43.534374 37.55 42.3625 36.003124Q41.190624 34.45625 41.190624 32.3Q41.190624 30.815624 41.721874 29.565624Q42.26875 28.315624 43.284374 27.628124Q44.315624 26.940624 45.690624 26.940624Q47.51875 26.940624 48.721874 28.425L48.721874 27.175L50.33125 27.175L50.33125 36.14375Q50.33125 38.565624 49.83125 39.565624Q49.346874 40.58125 48.26875 41.159374Q47.20625 41.753124 45.64375 41.753124Q43.8 41.753124 42.64375 40.925Q41.503124 40.096874 41.55 38.409374ZM43.003124 32.175Q43.003124 34.221874 43.815624 35.159374Q44.628124 36.096874 45.846874 36.096874Q47.05 36.096874 47.8625 35.159374Q48.690624 34.221874 48.690624 32.2375Q48.690624 30.33125 47.846874 29.3625Q47.003124 28.39375 45.815624 28.39375Q44.64375 28.39375 43.815624 29.346874Q43.003124 30.3 43.003124 32.175ZM59.034374 37.55L59.034374 23.2375L61.89375 23.2375L65.26875 33.3625Q65.7375 34.784374 65.95625 35.4875Q66.20625 34.70625 66.72188 33.190624L70.14375 23.2375L72.69063 23.2375L72.69063 37.55L70.87813 37.55L70.87813 25.565624L66.70625 37.55L65.00313 37.55L60.8625 25.3625L60.8625 37.55L59.034374 37.55ZM76.09688 37.55L76.09688 23.2375L81.4875 23.2375Q82.925 23.2375 83.675 23.3625Q84.72188 23.55 85.44063 24.05Q86.15938 24.534374 86.58125 25.425Q87.01875 26.315624 87.01875 27.378124Q87.01875 29.20625 85.84688 30.471874Q84.69063 31.721874 81.65938 31.721874L77.9875 31.721874L77.9875 37.55L76.09688 37.55ZM77.9875 30.034374L81.69063 30.034374Q83.51875 30.034374 84.28438 29.3625Q85.06563 28.675 85.06563 27.425Q85.06563 26.534374 84.6125 25.89375Q84.15938 25.253124 83.425 25.05Q82.94063 24.925 81.64375 24.925L77.9875 24.925L77.9875 30.034374ZM89.01875 37.55L89.01875 23.2375L90.90938 23.2375L90.90938 30.33125L98.01875 23.2375L100.58125 23.2375L94.58125 29.034374L100.84688 37.55L98.34688 37.55L93.25313 30.3L90.90938 32.58125L90.90938 37.55L89.01875 37.55ZM102.40938 37.55L102.40938 23.2375L104.31563 23.2375L104.31563 37.55L102.40938 37.55ZM116.75313 37.55L112.8 27.175L114.65938 27.175L116.89375 33.39375Q117.25313 34.39375 117.55 35.471874Q117.78438 34.659374 118.20625 33.503124L120.50313 27.175L122.31563 27.175L118.39375 37.55L116.75313 37.55ZM122.15938 34.45625L123.90938 34.175Q124.05 35.221874 124.72188 35.784374Q125.39375 36.33125 126.59688 36.33125Q127.8 36.33125 128.37813 35.846874Q128.97188 35.346874 128.97188 34.690624Q128.97188 34.096874 128.45625 33.753124Q128.09688 33.51875 126.65938 33.159374Q124.72188 32.659374 123.97188 32.315624Q123.2375 31.95625 122.84688 31.33125Q122.45625 30.690624 122.45625 29.925Q122.45625 29.2375 122.76875 28.64375Q123.09688 28.05 123.64375 27.659374Q124.05 27.3625 124.75313 27.159374Q125.47188 26.940624 126.28438 26.940624Q127.50313 26.940624 128.425 27.3Q129.34688 27.64375 129.78438 28.253124Q130.22188 28.846874 130.39375 29.846874L128.675 30.08125Q128.55 29.284374 127.9875 28.846874Q127.425 28.39375 126.40938 28.39375Q125.19063 28.39375 124.675 28.8Q124.15938 29.190624 124.15938 29.721874Q124.15938 30.065624 124.37813 30.346874Q124.58125 30.628124 125.05 30.815624Q125.31563 30.909374 126.59688 31.253124Q128.47188 31.753124 129.20625 32.08125Q129.94063 32.39375 130.3625 33.003124Q130.78438 33.596874 130.78438 34.503124Q130.78438 35.378124 130.26875 36.159374Q129.75313 36.940624 128.78438 37.3625Q127.81563 37.784374 126.59688 37.784374Q124.58125 37.784374 123.51875 36.940624Q122.45625 36.096874 122.15938 34.45625ZM139.03438 37.55L139.03438 23.2375L141.89375 23.2375L145.26875 33.3625Q145.7375 34.784374 145.95625 35.4875Q146.20625 34.70625 146.72188 33.190624L150.14375 23.2375L152.69063 23.2375L152.69063 37.55L150.87813 37.55L150.87813 25.565624L146.70625 37.55L145.00313 37.55L140.8625 25.3625L140.8625 37.55L139.03438 37.55ZM162.64375 36.26875Q161.65938 37.096874 160.75313 37.440624Q159.84688 37.784374 158.81563 37.784374Q157.1125 37.784374 156.19063 36.95625Q155.26875 36.1125 155.26875 34.815624Q155.26875 34.05 155.6125 33.425Q155.97188 32.8 156.53438 32.425Q157.09688 32.034374 157.8 31.83125Q158.31563 31.70625 159.3625 31.565624Q161.4875 31.315624 162.4875 30.971874Q162.50313 30.6125 162.50313 30.503124Q162.50313 29.440624 162.00313 28.9875Q161.33125 28.39375 160.00313 28.39375Q158.75313 28.39375 158.15938 28.83125Q157.58125 29.26875 157.3 30.378124L155.58125 30.14375Q155.81563 29.034374 156.34688 28.3625Q156.87813 27.675 157.89375 27.315624Q158.90938 26.940624 160.25313 26.940624Q161.58125 26.940624 162.40938 27.253124Q163.2375 27.565624 163.62813 28.05Q164.01875 28.51875 164.175 29.2375Q164.26875 29.690624 164.26875 30.8625L164.26875 33.20625Q164.26875 35.659374 164.37813 36.315624Q164.4875 36.95625 164.83125 37.55L162.9875 37.55Q162.72188 37.003124 162.64375 36.26875ZM162.4875 32.346874Q161.53438 32.7375 159.6125 33.003124Q158.53438 33.159374 158.08125 33.3625Q157.64375 33.55 157.39375 33.925Q157.14375 34.3 157.14375 34.76875Q157.14375 35.471874 157.675 35.940624Q158.20625 36.409374 159.2375 36.409374Q160.25313 36.409374 161.03438 35.971874Q161.83125 35.51875 162.20625 34.753124Q162.4875 34.14375 162.4875 32.9875L162.4875 32.346874ZM170.70625 35.971874L170.95625 37.534374Q170.22188 37.690624 169.62813 37.690624Q168.675 37.690624 168.14375 37.39375Q167.62813 37.08125 167.40938 36.596874Q167.19063 36.096874 167.19063 34.51875L167.19063 28.55L165.90938 28.55L165.90938 27.175L167.19063 27.175L167.19063 24.6125L168.94063 23.55L168.94063 27.175L170.70625 27.175L170.70625 28.55L168.94063 28.55L168.94063 34.6125Q168.94063 35.3625 169.03438 35.58125Q169.12813 35.784374 169.33125 35.925Q169.55 36.05 169.94063 36.05Q170.22188 36.05 170.70625 35.971874ZM172.84688 37.55L172.84688 27.175L174.425 27.175L174.425 28.753124Q175.03438 27.64375 175.55 27.3Q176.06563 26.940624 176.675 26.940624Q177.56563 26.940624 178.4875 27.503124L177.87813 29.14375Q177.2375 28.753124 176.59688 28.753124Q176.01875 28.753124 175.55 29.1125Q175.09688 29.45625 174.89375 30.065624Q174.6125 31.003124 174.6125 32.1125L174.6125 37.55L172.84688 37.55ZM179.87813 25.253124L179.87813 23.2375L181.64375 23.2375L181.64375 25.253124L179.87813 25.253124ZM179.87813 37.55L179.87813 27.175L181.64375 27.175L181.64375 37.55L179.87813 37.55ZM182.69063 37.55L186.4875 32.159374L182.9875 27.175L185.175 27.175L186.76875 29.6125Q187.22188 30.3 187.4875 30.76875Q187.925 30.128124 188.28438 29.628124L190.03438 27.175L192.12813 27.175L188.55 32.065624L192.40938 37.55L190.25313 37.55L188.1125 34.33125L187.55 33.45625L184.83125 37.55L182.69063 37.55ZM198.45625 32.95625L200.2375 32.8Q200.3625 33.8625 200.81563 34.55Q201.28438 35.2375 202.25313 35.675Q203.2375 36.096874 204.47188 36.096874Q205.55 36.096874 206.37813 35.784374Q207.20625 35.45625 207.6125 34.89375Q208.01875 34.33125 208.01875 33.659374Q208.01875 32.9875 207.62813 32.4875Q207.2375 31.9875 206.34688 31.64375Q205.76875 31.409374 203.78438 30.940624Q201.81563 30.471874 201.03438 30.05Q200.00313 29.51875 199.50313 28.721874Q199.00313 27.925 199.00313 26.940624Q199.00313 25.846874 199.6125 24.909374Q200.22188 23.971874 201.40938 23.4875Q202.59688 22.9875 204.03438 22.9875Q205.62813 22.9875 206.84688 23.503124Q208.06563 24.01875 208.70625 25.01875Q209.3625 26.003124 209.40938 27.26875L207.59688 27.409374Q207.45625 26.05 206.6125 25.3625Q205.76875 24.659374 204.1125 24.659374Q202.39375 24.659374 201.59688 25.3Q200.81563 25.925 200.81563 26.8Q200.81563 27.58125 201.37813 28.08125Q201.925 28.58125 204.2375 29.096874Q206.55 29.6125 207.40938 30.003124Q208.65938 30.58125 209.25313 31.471874Q209.84688 32.346874 209.84688 33.503124Q209.84688 34.64375 209.19063 35.659374Q208.53438 36.675 207.3 37.2375Q206.08125 37.8 204.55 37.8Q202.6125 37.8 201.3 37.2375Q199.9875 36.659374 199.2375 35.51875Q198.4875 34.378124 198.45625 32.95625ZM211.87813 25.253124L211.87813 23.2375L213.64375 23.2375L213.64375 25.253124L211.87813 25.253124ZM211.87813 37.55L211.87813 27.175L213.64375 27.175L213.64375 37.55L211.87813 37.55ZM214.94063 37.55L214.94063 36.128124L221.55 28.55Q220.425 28.596874 219.56563 28.596874L215.33125 28.596874L215.33125 27.175L223.81563 27.175L223.81563 28.346874L218.19063 34.925L217.1125 36.128124Q218.28438 36.034374 219.33125 36.034374L224.12813 36.034374L224.12813 37.55L214.94063 37.55ZM231.97188 34.20625L233.78438 34.440624Q233.3625 36.01875 232.19063 36.909374Q231.03438 37.784374 229.22188 37.784374Q226.95625 37.784374 225.6125 36.39375Q224.28438 34.9875 224.28438 32.45625Q224.28438 29.83125 225.62813 28.39375Q226.97188 26.940624 229.12813 26.940624Q231.20625 26.940624 232.51875 28.3625Q233.84688 29.76875 233.84688 32.346874Q233.84688 32.503124 233.83125 32.815624L226.09688 32.815624Q226.19063 34.51875 227.06563 35.425Q227.94063 36.33125 229.2375 36.33125Q230.20625 36.33125 230.87813 35.83125Q231.56563 35.315624 231.97188 34.20625ZM226.19063 31.3625L231.9875 31.3625Q231.87813 30.065624 231.33125 29.409374Q230.4875 28.39375 229.14375 28.39375Q227.94063 28.39375 227.1125 29.20625Q226.28438 30.003124 226.19063 31.3625Z" fill-rule="nonzero"/></svg>