<svg version="1.1" viewBox="0.0 0.0 600.0 371.0" fill="none" stroke="none" stroke-linecap="square" stroke-miterlimit="10" width="600" height="371" xmlns:xlink="http://www.w3.org/1999/xlink" xmlns="http://www.w3.org/2000/svg"><path fill="#ffffff" d="M0 0L600.0 0L600.0 371.0L0 371.0L0 0Z" fill-rule="nonzero"/><path stroke="#333333" stroke-width="1.0" stroke-linecap="butt" d="M45.5 300.5L581.5 300.5" fill-rule="nonzero"/><path stroke="#cccccc" stroke-width="1.0" stroke-linecap="butt" d="M45.5 258.5L581.5 258.5" fill-rule="nonzero"/><path stroke="#cccccc" stroke-width="1.0" stroke-linecap="butt" d="M45.5 215.5L581.5 215.5" fill-rule="nonzero"/><path stroke="#cccccc" stroke-width="1.0" stroke-linecap="butt" d="M45.5 173.5L581.5 173.5" fill-rule="nonzero"/><path stroke="#cccccc" stroke-width="1.0" stroke-linecap="butt" d="M45.5 130.5L581.5 130.5" fill-rule="nonzero"/><path stroke="#cccccc" stroke-width="1.0" stroke-linecap="butt" d="M45.5 88.5L581.5 88.5" fill-rule="nonzero"/><clipPath id="id_0"><path d="M45.55 88.28333L581.45 88.28333L581.45 300.45L45.55 300.45L45.55 88.28333Z" clip-rule="nonzero"/></clipPath><path stroke="#000000" stroke-width="2.0" stroke-linecap="butt" stroke-opacity="0.0" clip-path="url(#id_0)" d="M96.0 300.0L82.0 300.0L82.0 201.0C82.0 199.89543 82.89543 199.0 84.0 199.0L94.0 199.0C95.10457 199.0 96.0 199.89543 96.0 201.0Z" fill-rule="nonzero"/><path fill="#4285f4" clip-path="url(#id_0)" d="M96.0 300.0L82.0 300.0L82.0 201.0C82.0 199.89543 82.89543 199.0 84.0 199.0L94.0 199.0C95.10457 199.0 96.0 199.89543 96.0 201.0Z" fill-rule="nonzero"/><path stroke="#000000" stroke-width="2.0" stroke-linecap="butt" stroke-opacity="0.0" clip-path="url(#id_0)" d="M196.0 300.0L182.0 300.0L182.0 191.0C182.0 189.89543 182.89543 189.0 184.0 189.0L194.0 189.0C195.10457 189.0 196.0 189.89543 196.0 191.0Z" fill-rule="nonzero"/><path fill="#4285f4" clip-path="url(#id_0)" d="M196.0 300.0L182.0 300.0L182.0 191.0C182.0 189.89543 182.89543 189.0 184.0 189.0L194.0 189.0C195.10457 189.0 196.0 189.89543 196.0 191.0Z" fill-rule="nonzero"/><path stroke="#000000" stroke-width="2.0" stroke-linecap="butt" stroke-opacity="0.0" clip-path="url(#id_0)" d="M297.0 300.0L283.0 300.0L283.0 196.0C283.0 194.89543 283.89542 194.0 285.0 194.0L295.0 194.0C296.10458 194.0 297.0 194.89543 297.0 196.0Z" fill-rule="nonzero"/><path fill="#4285f4" clip-path="url(#id_0)" d="M297.0 300.0L283.0 300.0L283.0 196.0C283.0 194.89543 283.89542 194.0 285.0 194.0L295.0 194.0C296.10458 194.0 297.0 194.89543 297.0 196.0Z" fill-rule="nonzero"/><path stroke="#000000" stroke-width="2.0" stroke-linecap="butt" stroke-opacity="0.0" clip-path="url(#id_0)" d="M397.0 300.0L383.0 300.0L383.0 231.0C383.0 229.89543 383.89542 229.0 385.0 229.0L395.0 229.0C396.10458 229.0 397.0 229.89543 397.0 231.0Z" fill-rule="nonzero"/><path fill="#4285f4" clip-path="url(#id_0)" d="M397.0 300.0L383.0 300.0L383.0 231.0C383.0 229.89543 383.89542 229.0 385.0 229.0L395.0 229.0C396.10458 229.0 397.0 229.89543 397.0 231.0Z" fill-rule="nonzero"/><path stroke="#000000" stroke-width="2.0" stroke-linecap="butt" stroke-opacity="0.0" clip-path="url(#id_0)" d="M497.0 300.0L483.0 300.0L483.0 232.0C483.0 230.89543 483.89542 230.0 485.0 230.0L495.0 230.0C496.10458 230.0 497.0 230.89543 497.0 232.0Z" fill-rule="nonzero"/><path fill="#4285f4" clip-path="url(#id_0)" d="M497.0 300.0L483.0 300.0L483.0 232.0C483.0 230.89543 483.89542 230.0 485.0 230.0L495.0 230.0C496.10458 230.0 497.0 230.89543 497.0 232.0Z" fill-rule="nonzero"/><path stroke="#000000" stroke-width="2.0" stroke-linecap="butt" stroke-opacity="0.0" clip-path="url(#id_0)" d="M112.0 300.0L98.0 300.0L98.0 184.0C98.0 182.89543 98.89543 182.0 100.0 182.0L110.0 182.0C111.10457 182.0 112.0 182.89543 112.0 184.0Z" fill-rule="nonzero"/><path fill="#ea4335" clip-path="url(#id_0)" d="M112.0 300.0L98.0 300.0L98.0 184.0C98.0 182.89543 98.89543 182.0 100.0 182.0L110.0 182.0C111.10457 182.0 112.0 182.89543 112.0 184.0Z" fill-rule="nonzero"/><path stroke="#000000" stroke-width="2.0" stroke-linecap="butt" stroke-opacity="0.0" clip-path="url(#id_0)" d="M212.0 300.0L198.0 300.0L198.0 160.0C198.0 158.89543 198.89543 158.0 200.0 158.0L210.0 158.0C211.10457 158.0 212.0 158.89543 212.0 160.0Z" fill-rule="nonzero"/><path fill="#ea4335" clip-path="url(#id_0)" d="M212.0 300.0L198.0 300.0L198.0 160.0C198.0 158.89543 198.89543 158.0 200.0 158.0L210.0 158.0C211.10457 158.0 212.0 158.89543 212.0 160.0Z" fill-rule="nonzero"/><path stroke="#000000" stroke-width="2.0" stroke-linecap="butt" stroke-opacity="0.0" clip-path="url(#id_0)" d="M313.0 300.0L299.0 300.0L299.0 179.0C299.0 177.89543 299.89542 177.0 301.0 177.0L311.0 177.0C312.10458 177.0 313.0 177.89543 313.0 179.0Z" fill-rule="nonzero"/><path fill="#ea4335" clip-path="url(#id_0)" d="M313.0 300.0L299.0 300.0L299.0 179.0C299.0 177.89543 299.89542 177.0 301.0 177.0L311.0 177.0C312.10458 177.0 313.0 177.89543 313.0 179.0Z" fill-rule="nonzero"/><path stroke="#000000" stroke-width="2.0" stroke-linecap="butt" stroke-opacity="0.0" clip-path="url(#id_0)" d="M413.0 300.0L399.0 300.0L399.0 218.0C399.0 216.89543 399.89542 216.0 401.0 216.0L411.0 216.0C412.10458 216.0 413.0 216.89543 413.0 218.0Z" fill-rule="nonzero"/><path fill="#ea4335" clip-path="url(#id_0)" d="M413.0 300.0L399.0 300.0L399.0 218.0C399.0 216.89543 399.89542 216.0 401.0 216.0L411.0 216.0C412.10458 216.0 413.0 216.89543 413.0 218.0Z" fill-rule="nonzero"/><path stroke="#000000" stroke-width="2.0" stroke-linecap="butt" stroke-opacity="0.0" clip-path="url(#id_0)" d="M513.0 300.0L499.0 300.0L499.0 221.0C499.0 219.89543 499.89542 219.0 501.0 219.0L511.0 219.0C512.10455 219.0 513.0 219.89543 513.0 221.0Z" fill-rule="nonzero"/><path fill="#ea4335" clip-path="url(#id_0)" d="M513.0 300.0L499.0 300.0L499.0 221.0C499.0 219.89543 499.89542 219.0 501.0 219.0L511.0 219.0C512.10455 219.0 513.0 219.89543 513.0 221.0Z" fill-rule="nonzero"/><path stroke="#000000" stroke-width="2.0" stroke-linecap="butt" stroke-opacity="0.0" clip-path="url(#id_0)" d="M128.0 300.0L114.0 300.0L114.0 201.0C114.0 199.89543 114.89543 199.0 116.0 199.0L126.0 199.0C127.10457 199.0 128.0 199.89543 128.0 201.0Z" fill-rule="nonzero"/><path fill="#fbbc04" clip-path="url(#id_0)" d="M128.0 300.0L114.0 300.0L114.0 201.0C114.0 199.89543 114.89543 199.0 116.0 199.0L126.0 199.0C127.10457 199.0 128.0 199.89543 128.0 201.0Z" fill-rule="nonzero"/><path stroke="#000000" stroke-width="2.0" stroke-linecap="butt" stroke-opacity="0.0" clip-path="url(#id_0)" d="M228.0 300.0L214.0 300.0L214.0 193.0C214.0 191.89543 214.89543 191.0 216.0 191.0L226.0 191.0C227.10457 191.0 228.0 191.89543 228.0 193.0Z" fill-rule="nonzero"/><path fill="#fbbc04" clip-path="url(#id_0)" d="M228.0 300.0L214.0 300.0L214.0 193.0C214.0 191.89543 214.89543 191.0 216.0 191.0L226.0 191.0C227.10457 191.0 228.0 191.89543 228.0 193.0Z" fill-rule="nonzero"/><path stroke="#000000" stroke-width="2.0" stroke-linecap="butt" stroke-opacity="0.0" clip-path="url(#id_0)" d="M329.0 300.0L315.0 300.0L315.0 206.0C315.0 204.89543 315.89542 204.0 317.0 204.0L327.0 204.0C328.10458 204.0 329.0 204.89543 329.0 206.0Z" fill-rule="nonzero"/><path fill="#fbbc04" clip-path="url(#id_0)" d="M329.0 300.0L315.0 300.0L315.0 206.0C315.0 204.89543 315.89542 204.0 317.0 204.0L327.0 204.0C328.10458 204.0 329.0 204.89543 329.0 206.0Z" fill-rule="nonzero"/><path stroke="#000000" stroke-width="2.0" stroke-linecap="butt" stroke-opacity="0.0" clip-path="url(#id_0)" d="M429.0 300.0L415.0 300.0L415.0 207.0C415.0 205.89543 415.89542 205.0 417.0 205.0L427.0 205.0C428.10458 205.0 429.0 205.89543 429.0 207.0Z" fill-rule="nonzero"/><path fill="#fbbc04" clip-path="url(#id_0)" d="M429.0 300.0L415.0 300.0L415.0 207.0C415.0 205.89543 415.89542 205.0 417.0 205.0L427.0 205.0C428.10458 205.0 429.0 205.89543 429.0 207.0Z" fill-rule="nonzero"/><path stroke="#000000" stroke-width="2.0" stroke-linecap="butt" stroke-opacity="0.0" clip-path="url(#id_0)" d="M529.0 300.0L515.0 300.0L515.0 211.0C515.0 209.89543 515.89545 209.0 517.0 209.0L527.0 209.0C528.10455 209.0 529.0 209.89543 529.0 211.0Z" fill-rule="nonzero"/><path fill="#fbbc04" clip-path="url(#id_0)" d="M529.0 300.0L515.0 300.0L515.0 211.0C515.0 209.89543 515.89545 209.0 517.0 209.0L527.0 209.0C528.10455 209.0 529.0 209.89543 529.0 211.0Z" fill-rule="nonzero"/><path stroke="#000000" stroke-width="2.0" stroke-linecap="butt" stroke-opacity="0.0" clip-path="url(#id_0)" d="M144.0 300.0L130.0 300.0L130.0 124.0C130.0 122.89543 130.89543 122.0 132.0 122.0L142.0 122.0C143.10457 122.0 144.0 122.89543 144.0 124.0Z" fill-rule="nonzero"/><path fill="#34a853" clip-path="url(#id_0)" d="M144.0 300.0L130.0 300.0L130.0 124.0C130.0 122.89543 130.89543 122.0 132.0 122.0L142.0 122.0C143.10457 122.0 144.0 122.89543 144.0 124.0Z" fill-rule="nonzero"/><path stroke="#000000" stroke-width="2.0" stroke-linecap="butt" stroke-opacity="0.0" clip-path="url(#id_0)" d="M244.0 300.0L230.0 300.0L230.0 124.0C230.0 122.89543 230.89543 122.0 232.0 122.0L242.0 122.0C243.10457 122.0 244.0 122.89543 244.0 124.0Z" fill-rule="nonzero"/><path fill="#34a853" clip-path="url(#id_0)" d="M244.0 300.0L230.0 300.0L230.0 124.0C230.0 122.89543 230.89543 122.0 232.0 122.0L242.0 122.0C243.10457 122.0 244.0 122.89543 244.0 124.0Z" fill-rule="nonzero"/><path stroke="#000000" stroke-width="2.0" stroke-linecap="butt" stroke-opacity="0.0" clip-path="url(#id_0)" d="M345.0 300.0L331.0 300.0L331.0 113.0C331.0 111.89543 331.89542 111.0 333.0 111.0L343.0 111.0C344.10458 111.0 345.0 111.89543 345.0 113.0Z" fill-rule="nonzero"/><path fill="#34a853" clip-path="url(#id_0)" d="M345.0 300.0L331.0 300.0L331.0 113.0C331.0 111.89543 331.89542 111.0 333.0 111.0L343.0 111.0C344.10458 111.0 345.0 111.89543 345.0 113.0Z" fill-rule="nonzero"/><path stroke="#000000" stroke-width="2.0" stroke-linecap="butt" stroke-opacity="0.0" clip-path="url(#id_0)" d="M445.0 300.0L431.0 300.0L431.0 211.0C431.0 209.89543 431.89542 209.0 433.0 209.0L443.0 209.0C444.10458 209.0 445.0 209.89543 445.0 211.0Z" fill-rule="nonzero"/><path fill="#34a853" clip-path="url(#id_0)" d="M445.0 300.0L431.0 300.0L431.0 211.0C431.0 209.89543 431.89542 209.0 433.0 209.0L443.0 209.0C444.10458 209.0 445.0 209.89543 445.0 211.0Z" fill-rule="nonzero"/><path stroke="#000000" stroke-width="2.0" stroke-linecap="butt" stroke-opacity="0.0" clip-path="url(#id_0)" d="M545.0 300.0L531.0 300.0L531.0 215.0C531.0 213.89543 531.89545 213.0 533.0 213.0L543.0 213.0C544.10455 213.0 545.0 213.89543 545.0 215.0Z" fill-rule="nonzero"/><path fill="#34a853" clip-path="url(#id_0)" d="M545.0 300.0L531.0 300.0L531.0 215.0C531.0 213.89543 531.89545 213.0 533.0 213.0L543.0 213.0C544.10455 213.0 545.0 213.89543 545.0 215.0Z" fill-rule="nonzero"/><path fill="#000000" d="M286.39062 349.45L286.39062 340.85626L288.10938 340.85626L290.14062 346.9344Q290.42188 347.79376 290.54688 348.21564Q290.6875 347.7469 291.0 346.84064L293.0625 340.85626L294.59375 340.85626L294.59375 349.45L293.5 349.45L293.5 342.2625L291.0 349.45L289.96875 349.45L287.48438 342.1375L287.48438 349.45L286.39062 349.45ZM299.35938 348.6844Q298.76562 349.1844 298.21875 349.3875Q297.6875 349.59064 297.0625 349.59064Q296.03125 349.59064 295.48438 349.09064Q294.9375 348.59064 294.9375 347.8094Q294.9375 347.35626 295.14062 346.98126Q295.34375 346.59064 295.6875 346.3719Q296.03125 346.1375 296.45312 346.02814Q296.75 345.9344 297.39062 345.85626Q298.65625 345.71564 299.26562 345.4969Q299.26562 345.27814 299.26562 345.23126Q299.26562 344.575 298.96875 344.3094Q298.5625 343.96564 297.76562 343.96564Q297.03125 343.96564 296.67188 344.23126Q296.3125 344.48126 296.14062 345.1375L295.10938 344.9969Q295.25 344.34064 295.57812 343.9344Q295.90625 343.52814 296.51562 343.3094Q297.125 343.09064 297.92188 343.09064Q298.71875 343.09064 299.21875 343.27814Q299.71875 343.46564 299.95312 343.7469Q300.1875 344.02814 300.28125 344.46564Q300.32812 344.73126 300.32812 345.4344L300.32812 346.84064Q300.32812 348.3094 300.39062 348.7Q300.46875 349.09064 300.67188 349.45L299.5625 349.45Q299.40625 349.1219 299.35938 348.6844ZM299.26562 346.325Q298.6875 346.5594 297.54688 346.73126Q296.89062 346.825 296.625 346.95Q296.35938 347.0594 296.20312 347.27814Q296.0625 347.4969 296.0625 347.77814Q296.0625 348.2 296.375 348.48126Q296.70312 348.7625 297.3125 348.7625Q297.92188 348.7625 298.39062 348.4969Q298.875 348.23126 299.09375 347.7625Q299.26562 347.40314 299.26562 346.71564L299.26562 346.325ZM304.59375 348.5125L304.75 349.4344Q304.29688 349.52814 303.95312 349.52814Q303.375 349.52814 303.0625 349.35626Q302.75 349.16876 302.60938 348.8719Q302.48438 348.575 302.48438 347.6219L302.48438 344.04376L301.71875 344.04376L301.71875 343.23126L302.48438 343.23126L302.48438 341.6844L303.53125 341.0594L303.53125 343.23126L304.59375 343.23126L304.59375 344.04376L303.53125 344.04376L303.53125 347.6844Q303.53125 348.1375 303.57812 348.2625Q303.64062 348.3875 303.76562 348.46564Q303.89062 348.54376 304.125 348.54376Q304.3125 348.54376 304.59375 348.5125ZM305.28125 349.45L305.28125 343.23126L306.23438 343.23126L306.23438 344.16876Q306.59375 343.5125 306.89062 343.3094Q307.20312 343.09064 307.57812 343.09064Q308.10938 343.09064 308.65625 343.41876L308.29688 344.40314Q307.90625 344.16876 307.53125 344.16876Q307.17188 344.16876 306.89062 344.3875Q306.625 344.59064 306.51562 344.96564Q306.32812 345.52814 306.32812 346.1844L306.32812 349.45L305.28125 349.45ZM309.29688 342.075L309.29688 340.85626L310.35938 340.85626L310.35938 342.075L309.29688 342.075ZM309.29688 349.45L309.29688 343.23126L310.35938 343.23126L310.35938 349.45L309.29688 349.45ZM311.59375 349.45L313.85938 346.21564L311.76562 343.23126L313.07812 343.23126L314.03125 344.6844Q314.29688 345.10626 314.46875 345.3875Q314.71875 344.9969 314.9375 344.7L315.98438 343.23126L317.25 343.23126L315.09375 346.15314L317.40625 349.45L316.125 349.45L314.84375 347.5125L314.5 346.9969L312.85938 349.45L311.59375 349.45ZM319.875 347.59064L320.90625 347.4344Q321.0 348.0594 321.39062 348.3875Q321.79688 348.71564 322.53125 348.71564Q323.25 348.71564 323.59375 348.4344Q323.95312 348.1375 323.95312 347.73126Q323.95312 347.3719 323.64062 347.16876Q323.42188 347.02814 322.5625 346.8094Q321.40625 346.5125 320.95312 346.3094Q320.51562 346.09064 320.28125 345.71564Q320.04688 345.34064 320.04688 344.8719Q320.04688 344.46564 320.23438 344.10626Q320.42188 343.7469 320.75 343.5125Q321.0 343.34064 321.42188 343.21564Q321.84375 343.09064 322.34375 343.09064Q323.0625 343.09064 323.60938 343.3094Q324.17188 343.5125 324.4375 343.8719Q324.70312 344.23126 324.79688 344.825L323.76562 344.96564Q323.70312 344.4969 323.35938 344.23126Q323.03125 343.95 322.40625 343.95Q321.6875 343.95 321.375 344.2Q321.0625 344.4344 321.0625 344.7625Q321.0625 344.96564 321.1875 345.1219Q321.32812 345.29376 321.59375 345.40314Q321.75 345.46564 322.53125 345.66876Q323.65625 345.98126 324.09375 346.16876Q324.53125 346.35626 324.78125 346.71564Q325.03125 347.075 325.03125 347.6219Q325.03125 348.15314 324.71875 348.6219Q324.42188 349.075 323.84375 349.34064Q323.26562 349.59064 322.53125 349.59064Q321.3125 349.59064 320.67188 349.09064Q320.04688 348.575 319.875 347.59064ZM327.29688 342.075L327.29688 340.85626L328.35938 340.85626L328.35938 342.075L327.29688 342.075ZM327.29688 349.45L327.29688 343.23126L328.35938 343.23126L328.35938 349.45L327.29688 349.45ZM329.73438 349.45L329.73438 348.59064L333.70312 344.04376Q333.01562 344.075 332.5 344.075L329.96875 344.075L329.96875 343.23126L335.0625 343.23126L335.0625 343.91876L331.6875 347.8719L331.03125 348.59064Q331.75 348.54376 332.35938 348.54376L335.25 348.54376L335.25 349.45L329.73438 349.45ZM339.54688 347.45L340.64062 347.575Q340.39062 348.52814 339.6875 349.0594Q338.98438 349.59064 337.90625 349.59064Q336.54688 349.59064 335.73438 348.7469Q334.9375 347.90314 334.9375 346.3875Q334.9375 344.825 335.75 343.96564Q336.5625 343.09064 337.84375 343.09064Q339.09375 343.09064 339.875 343.9344Q340.67188 344.77814 340.67188 346.325Q340.67188 346.41876 340.67188 346.60626L336.03125 346.60626Q336.09375 347.6375 336.60938 348.1844Q337.125 348.71564 337.90625 348.71564Q338.48438 348.71564 338.89062 348.41876Q339.3125 348.10626 339.54688 347.45ZM336.09375 345.7469L339.5625 345.7469Q339.5 344.95 339.17188 344.5594Q338.65625 343.95 337.85938 343.95Q337.125 343.95 336.625 344.4344Q336.14062 344.91876 336.09375 345.7469Z" fill-rule="nonzero"/><path fill="#000000" d="M33.05 300.21564Q33.05 298.6844 33.3625 297.7625Q33.675 296.825 34.284374 296.325Q34.909374 295.825 35.846874 295.825Q36.534374 295.825 37.05 296.10626Q37.58125 296.3875 37.925 296.91876Q38.26875 297.4344 38.45625 298.1844Q38.64375 298.9344 38.64375 300.21564Q38.64375 301.73126 38.33125 302.65314Q38.034374 303.575 37.409374 304.09064Q36.8 304.59064 35.846874 304.59064Q34.6125 304.59064 33.89375 303.7Q33.05 302.6375 33.05 300.21564ZM34.128124 300.21564Q34.128124 302.325 34.628124 303.02814Q35.128124 303.73126 35.846874 303.73126Q36.58125 303.73126 37.065624 303.02814Q37.565624 302.325 37.565624 300.21564Q37.565624 298.09064 37.065624 297.40314Q36.58125 296.7 35.83125 296.7Q35.1125 296.7 34.675 297.3094Q34.128124 298.09064 34.128124 300.21564Z" fill-rule="nonzero"/><path fill="#000000" d="M38.596874 261.00104L38.596874 262.01666L32.909374 262.01666Q32.909374 261.64166 33.034374 261.2823Q33.253124 260.70416 33.721874 260.14166Q34.20625 259.57916 35.1125 258.8448Q36.51875 257.68854 37.003124 257.01666Q37.503124 256.3448 37.503124 255.75104Q37.503124 255.12604 37.05 254.70416Q36.596874 254.26666 35.878124 254.26666Q35.1125 254.26666 34.659374 254.71979Q34.20625 255.17291 34.190624 255.98541L33.1125 255.87604Q33.221874 254.65729 33.940624 254.03229Q34.675 253.39166 35.909374 253.39166Q37.14375 253.39166 37.8625 254.07916Q38.58125 254.76666 38.58125 255.78229Q38.58125 256.2979 38.3625 256.7979Q38.159374 257.2823 37.659374 257.8448Q37.175 258.39166 36.05 259.3448Q35.096874 260.14166 34.815624 260.43854Q34.55 260.7198 34.378124 261.00104L38.596874 261.00104Z" fill-rule="nonzero"/><path fill="#000000" d="M36.425 219.58333L36.425 217.52083L32.70625 217.52083L32.70625 216.55208L36.628124 210.98958L37.4875 210.98958L37.4875 216.55208L38.64375 216.55208L38.64375 217.52083L37.4875 217.52083L37.4875 219.58333L36.425 219.58333ZM36.425 216.55208L36.425 212.6927L33.7375 216.55208L36.425 216.55208Z" fill-rule="nonzero"/><path fill="#000000" d="M38.51875 170.66562L37.471874 170.74374Q37.33125 170.11874 37.08125 169.8375Q36.64375 169.38437 36.01875 169.38437Q35.51875 169.38437 35.128124 169.66562Q34.64375 170.04062 34.346874 170.74374Q34.065624 171.43124 34.05 172.7125Q34.425 172.13437 34.971874 171.85312Q35.534374 171.57187 36.14375 171.57187Q37.190624 171.57187 37.925 172.35312Q38.675 173.13437 38.675 174.35312Q38.675 175.16562 38.315624 175.86874Q37.971874 176.55624 37.3625 176.93124Q36.753124 177.29062 35.9875 177.29062Q34.659374 177.29062 33.83125 176.32187Q33.003124 175.35312 33.003124 173.13437Q33.003124 170.63437 33.925 169.50937Q34.721874 168.525 36.08125 168.525Q37.096874 168.525 37.7375 169.10312Q38.39375 169.66562 38.51875 170.66562ZM34.221874 174.36874Q34.221874 174.91562 34.440624 175.41562Q34.675 175.9 35.08125 176.16562Q35.503124 176.43124 35.971874 176.43124Q36.628124 176.43124 37.1125 175.9Q37.596874 175.35312 37.596874 174.43124Q37.596874 173.54062 37.1125 173.025Q36.64375 172.50937 35.925 172.50937Q35.20625 172.50937 34.70625 173.025Q34.221874 173.54062 34.221874 174.36874Z" fill-rule="nonzero"/><path fill="#000000" d="M34.675 130.06041Q34.01875 129.81041 33.690624 129.37291Q33.378124 128.91978 33.378124 128.31041Q33.378124 127.37291 34.05 126.732285Q34.7375 126.09166 35.846874 126.09166Q36.971874 126.09166 37.659374 126.74791Q38.346874 127.40416 38.346874 128.34166Q38.346874 128.93541 38.034374 129.37291Q37.721874 129.81041 37.08125 130.06041Q37.878124 130.31041 38.284374 130.88853Q38.690624 131.46666 38.690624 132.26353Q38.690624 133.35728 37.909374 134.10728Q37.14375 134.85728 35.8625 134.85728Q34.596874 134.85728 33.815624 134.10728Q33.034374 133.35728 33.034374 132.23228Q33.034374 131.38853 33.45625 130.82603Q33.89375 130.26353 34.675 130.06041ZM34.45625 128.26353Q34.45625 128.87291 34.846874 129.26353Q35.253124 129.65416 35.878124 129.65416Q36.4875 129.65416 36.878124 129.27916Q37.26875 128.88853 37.26875 128.32603Q37.26875 127.74791 36.8625 127.357285Q36.45625 126.951035 35.8625 126.951035Q35.253124 126.951035 34.846874 127.34166Q34.45625 127.732285 34.45625 128.26353ZM34.128124 132.23228Q34.128124 132.68541 34.33125 133.10728Q34.55 133.52916 34.971874 133.76353Q35.39375 133.99791 35.878124 133.99791Q36.628124 133.99791 37.1125 133.51353Q37.6125 133.02916 37.6125 132.27916Q37.6125 131.51353 37.1125 131.01353Q36.6125 130.51353 35.846874 130.51353Q35.096874 130.51353 34.6125 131.01353Q34.128124 131.49791 34.128124 132.23228Z" fill-rule="nonzero"/><path fill="#000000" d="M30.01875 92.28333L28.971874 92.28333L28.971874 85.56458Q28.58125 85.92396 27.95625 86.29896Q27.346874 86.65833 26.8625 86.83021L26.8625 85.81458Q27.7375 85.39271 28.39375 84.81458Q29.065624 84.22083 29.346874 83.65833L30.01875 83.65833L30.01875 92.28333ZM33.05 88.04896Q33.05 86.51771 33.3625 85.59583Q33.675 84.65833 34.284374 84.15833Q34.909374 83.65833 35.846874 83.65833Q36.534374 83.65833 37.05 83.93958Q37.58125 84.22083 37.925 84.75208Q38.26875 85.26771 38.45625 86.01771Q38.64375 86.76771 38.64375 88.04896Q38.64375 89.56458 38.33125 90.48646Q38.034374 91.40833 37.409374 91.92396Q36.8 92.42396 35.846874 92.42396Q34.6125 92.42396 33.89375 91.53333Q33.05 90.47083 33.05 88.04896ZM34.128124 88.04896Q34.128124 90.15833 34.628124 90.86146Q35.128124 91.56458 35.846874 91.56458Q36.58125 91.56458 37.065624 90.86146Q37.565624 90.15833 37.565624 88.04896Q37.565624 85.92396 37.065624 85.23646Q36.58125 84.53333 35.83125 84.53333Q35.1125 84.53333 34.675 85.14271Q34.128124 85.92396 34.128124 88.04896Z" fill-rule="nonzero"/><path fill="#000000" d="M108.71043 316.4344L108.71043 317.45L103.02293 317.45Q103.02293 317.075 103.14793 316.71564Q103.36668 316.1375 103.83543 315.575Q104.3198 315.0125 105.22605 314.27814Q106.6323 313.1219 107.11668 312.45Q107.61668 311.77814 107.61668 311.1844Q107.61668 310.5594 107.16355 310.1375Q106.71043 309.7 105.99168 309.7Q105.22605 309.7 104.77293 310.15314Q104.3198 310.60626 104.30418 311.41876L103.22605 311.3094Q103.33543 310.09064 104.05418 309.46564Q104.78855 308.825 106.02293 308.825Q107.2573 308.825 107.97605 309.5125Q108.6948 310.2 108.6948 311.21564Q108.6948 311.73126 108.47605 312.23126Q108.27293 312.71564 107.77293 313.27814Q107.28855 313.825 106.16355 314.77814Q105.21043 315.575 104.92918 315.8719Q104.66355 316.15314 104.49168 316.4344L108.71043 316.4344ZM110.16355 315.2L111.27293 315.10626Q111.39793 315.91876 111.83543 316.325Q112.28855 316.73126 112.92918 316.73126Q113.67918 316.73126 114.21043 316.15314Q114.74168 315.575 114.74168 314.6375Q114.74168 313.73126 114.22605 313.21564Q113.72605 312.6844 112.89793 312.6844Q112.39793 312.6844 111.97605 312.91876Q111.5698 313.15314 111.33543 313.5125L110.35105 313.3875L111.17918 308.98126L115.46043 308.98126L115.46043 309.98126L112.02293 309.98126L111.5698 312.29376Q112.33543 311.7469 113.17918 311.7469Q114.30418 311.7469 115.0698 312.52814Q115.85105 313.3094 115.85105 314.54376Q115.85105 315.7 115.17918 316.5594Q114.35105 317.59064 112.92918 317.59064Q111.7573 317.59064 111.0073 316.9344Q110.27293 316.27814 110.16355 315.2ZM122.6323 310.96564L121.58543 311.04376Q121.4448 310.41876 121.1948 310.1375Q120.7573 309.6844 120.1323 309.6844Q119.6323 309.6844 119.24168 309.96564Q118.7573 310.34064 118.46043 311.04376Q118.17918 311.73126 118.16355 313.0125Q118.53855 312.4344 119.08543 312.15314Q119.64793 311.8719 120.2573 311.8719Q121.30418 311.8719 122.03855 312.65314Q122.78855 313.4344 122.78855 314.65314Q122.78855 315.46564 122.42918 316.16876Q122.08543 316.85626 121.47605 317.23126Q120.86668 317.59064 120.10105 317.59064Q118.77293 317.59064 117.9448 316.6219Q117.11668 315.65314 117.11668 313.4344Q117.11668 310.9344 118.03855 309.8094Q118.83543 308.825 120.1948 308.825Q121.21043 308.825 121.85105 309.40314Q122.5073 309.96564 122.6323 310.96564ZM118.33543 314.66876Q118.33543 315.21564 118.55418 315.71564Q118.78855 316.2 119.1948 316.46564Q119.61668 316.73126 120.08543 316.73126Q120.74168 316.73126 121.22605 316.2Q121.71043 315.65314 121.71043 314.73126Q121.71043 313.84064 121.22605 313.325Q120.7573 312.8094 120.03855 312.8094Q119.3198 312.8094 118.8198 313.325Q118.33543 313.84064 118.33543 314.66876Z" fill-rule="nonzero"/><path fill="#000000" d="M203.33177 315.2L204.44115 315.10626Q204.56615 315.91876 205.00365 316.325Q205.45677 316.73126 206.0974 316.73126Q206.8474 316.73126 207.37865 316.15314Q207.9099 315.575 207.9099 314.6375Q207.9099 313.73126 207.39427 313.21564Q206.89427 312.6844 206.06615 312.6844Q205.56615 312.6844 205.14427 312.91876Q204.73802 313.15314 204.50365 313.5125L203.51927 313.3875L204.3474 308.98126L208.62865 308.98126L208.62865 309.98126L205.19115 309.98126L204.73802 312.29376Q205.50365 311.7469 206.3474 311.7469Q207.4724 311.7469 208.23802 312.52814Q209.01927 313.3094 209.01927 314.54376Q209.01927 315.7 208.3474 316.5594Q207.51927 317.59064 206.0974 317.59064Q204.92552 317.59064 204.17552 316.9344Q203.44115 316.27814 203.33177 315.2ZM214.30052 317.45L213.25365 317.45L213.25365 310.73126Q212.86302 311.09064 212.23802 311.46564Q211.62865 311.825 211.14427 311.9969L211.14427 310.98126Q212.01927 310.5594 212.67552 309.98126Q213.3474 309.3875 213.62865 308.825L214.30052 308.825L214.30052 317.45ZM222.87865 316.4344L222.87865 317.45L217.19115 317.45Q217.19115 317.075 217.31615 316.71564Q217.5349 316.1375 218.00365 315.575Q218.48802 315.0125 219.39427 314.27814Q220.80052 313.1219 221.2849 312.45Q221.7849 311.77814 221.7849 311.1844Q221.7849 310.5594 221.33177 310.1375Q220.87865 309.7 220.1599 309.7Q219.39427 309.7 218.94115 310.15314Q218.48802 310.60626 218.4724 311.41876L217.39427 311.3094Q217.50365 310.09064 218.2224 309.46564Q218.95677 308.825 220.19115 308.825Q221.42552 308.825 222.14427 309.5125Q222.86302 310.2 222.86302 311.21564Q222.86302 311.73126 222.64427 312.23126Q222.44115 312.71564 221.94115 313.27814Q221.45677 313.825 220.33177 314.77814Q219.37865 315.575 219.0974 315.8719Q218.83177 316.15314 218.6599 316.4344L222.87865 316.4344Z" fill-rule="nonzero"/><path fill="#000000" d="M303.96875 317.45L302.92188 317.45L302.92188 310.73126Q302.53125 311.09064 301.90625 311.46564Q301.29688 311.825 300.8125 311.9969L300.8125 310.98126Q301.6875 310.5594 302.34375 309.98126Q303.01562 309.3875 303.29688 308.825L303.96875 308.825L303.96875 317.45ZM307.0 313.21564Q307.0 311.6844 307.3125 310.7625Q307.625 309.825 308.23438 309.325Q308.85938 308.825 309.79688 308.825Q310.48438 308.825 311.0 309.10626Q311.53125 309.3875 311.875 309.91876Q312.21875 310.4344 312.40625 311.1844Q312.59375 311.9344 312.59375 313.21564Q312.59375 314.73126 312.28125 315.65314Q311.98438 316.575 311.35938 317.09064Q310.75 317.59064 309.79688 317.59064Q308.5625 317.59064 307.84375 316.7Q307.0 315.6375 307.0 313.21564ZM308.07812 313.21564Q308.07812 315.325 308.57812 316.02814Q309.07812 316.73126 309.79688 316.73126Q310.53125 316.73126 311.01562 316.02814Q311.51562 315.325 311.51562 313.21564Q311.51562 311.09064 311.01562 310.40314Q310.53125 309.7 309.78125 309.7Q309.0625 309.7 308.625 310.3094Q308.07812 311.09064 308.07812 313.21564ZM319.54688 316.4344L319.54688 317.45L313.85938 317.45Q313.85938 317.075 313.98438 316.71564Q314.20312 316.1375 314.67188 315.575Q315.15625 315.0125 316.0625 314.27814Q317.46875 313.1219 317.95312 312.45Q318.45312 311.77814 318.45312 311.1844Q318.45312 310.5594 318.0 310.1375Q317.54688 309.7 316.82812 309.7Q316.0625 309.7 315.60938 310.15314Q315.15625 310.60626 315.14062 311.41876L314.0625 311.3094Q314.17188 310.09064 314.89062 309.46564Q315.625 308.825 316.85938 308.825Q318.09375 308.825 318.8125 309.5125Q319.53125 310.2 319.53125 311.21564Q319.53125 311.73126 319.3125 312.23126Q319.10938 312.71564 318.60938 313.27814Q318.125 313.825 317.0 314.77814Q316.04688 315.575 315.76562 315.8719Q315.5 316.15314 315.32812 316.4344L319.54688 316.4344ZM324.375 317.45L324.375 315.3875L320.65625 315.3875L320.65625 314.41876L324.57812 308.85626L325.4375 308.85626L325.4375 314.41876L326.59375 314.41876L326.59375 315.3875L325.4375 315.3875L325.4375 317.45L324.375 317.45ZM324.375 314.41876L324.375 310.5594L321.6875 314.41876L324.375 314.41876Z" fill-rule="nonzero"/><path fill="#000000" d="M405.7151 316.4344L405.7151 317.45L400.0276 317.45Q400.0276 317.075 400.1526 316.71564Q400.37134 316.1375 400.8401 315.575Q401.32446 315.0125 402.2307 314.27814Q403.63696 313.1219 404.12134 312.45Q404.62134 311.77814 404.62134 311.1844Q404.62134 310.5594 404.1682 310.1375Q403.7151 309.7 402.99634 309.7Q402.2307 309.7 401.7776 310.15314Q401.32446 310.60626 401.30884 311.41876L400.2307 311.3094Q400.3401 310.09064 401.05884 309.46564Q401.7932 308.825 403.0276 308.825Q404.26196 308.825 404.9807 309.5125Q405.69946 310.2 405.69946 311.21564Q405.69946 311.73126 405.4807 312.23126Q405.2776 312.71564 404.7776 313.27814Q404.2932 313.825 403.1682 314.77814Q402.2151 315.575 401.93384 315.8719Q401.6682 316.15314 401.49634 316.4344L405.7151 316.4344ZM407.1682 313.21564Q407.1682 311.6844 407.4807 310.7625Q407.7932 309.825 408.4026 309.325Q409.0276 308.825 409.9651 308.825Q410.6526 308.825 411.1682 309.10626Q411.69946 309.3875 412.0432 309.91876Q412.38696 310.4344 412.57446 311.1844Q412.76196 311.9344 412.76196 313.21564Q412.76196 314.73126 412.44946 315.65314Q412.1526 316.575 411.5276 317.09064Q410.9182 317.59064 409.9651 317.59064Q408.7307 317.59064 408.01196 316.7Q407.1682 315.6375 407.1682 313.21564ZM408.24634 313.21564Q408.24634 315.325 408.74634 316.02814Q409.24634 316.73126 409.9651 316.73126Q410.69946 316.73126 411.18384 316.02814Q411.68384 315.325 411.68384 313.21564Q411.68384 311.09064 411.18384 310.40314Q410.69946 309.7 409.94946 309.7Q409.2307 309.7 408.7932 310.3094Q408.24634 311.09064 408.24634 313.21564ZM417.5432 317.45L417.5432 315.3875L413.82446 315.3875L413.82446 314.41876L417.74634 308.85626L418.6057 308.85626L418.6057 314.41876L419.76196 314.41876L419.76196 315.3875L418.6057 315.3875L418.6057 317.45L417.5432 317.45ZM417.5432 314.41876L417.5432 310.5594L414.8557 314.41876L417.5432 314.41876ZM422.7932 312.79376Q422.13696 312.54376 421.80884 312.10626Q421.49634 311.65314 421.49634 311.04376Q421.49634 310.10626 422.1682 309.46564Q422.8557 308.825 423.9651 308.825Q425.0901 308.825 425.7776 309.48126Q426.4651 310.1375 426.4651 311.075Q426.4651 311.66876 426.1526 312.10626Q425.8401 312.54376 425.19946 312.79376Q425.99634 313.04376 426.4026 313.6219Q426.80884 314.2 426.80884 314.9969Q426.80884 316.09064 426.0276 316.84064Q425.26196 317.59064 423.9807 317.59064Q422.7151 317.59064 421.93384 316.84064Q421.1526 316.09064 421.1526 314.96564Q421.1526 314.1219 421.57446 313.5594Q422.01196 312.9969 422.7932 312.79376ZM422.57446 310.9969Q422.57446 311.60626 422.9651 311.9969Q423.37134 312.3875 423.99634 312.3875Q424.6057 312.3875 424.99634 312.0125Q425.38696 311.6219 425.38696 311.0594Q425.38696 310.48126 424.9807 310.09064Q424.57446 309.6844 423.9807 309.6844Q423.37134 309.6844 422.9651 310.075Q422.57446 310.46564 422.57446 310.9969ZM422.24634 314.96564Q422.24634 315.41876 422.44946 315.84064Q422.6682 316.2625 423.0901 316.4969Q423.51196 316.73126 423.99634 316.73126Q424.74634 316.73126 425.2307 316.2469Q425.7307 315.7625 425.7307 315.0125Q425.7307 314.2469 425.2307 313.7469Q424.7307 313.2469 423.9651 313.2469Q423.2151 313.2469 422.7307 313.7469Q422.24634 314.23126 422.24634 314.96564Z" fill-rule="nonzero"/><path fill="#000000" d="M503.71146 317.45L503.71146 315.3875L499.9927 315.3875L499.9927 314.41876L503.91458 308.85626L504.77396 308.85626L504.77396 314.41876L505.9302 314.41876L505.9302 315.3875L504.77396 315.3875L504.77396 317.45L503.71146 317.45ZM503.71146 314.41876L503.71146 310.5594L501.02396 314.41876L503.71146 314.41876ZM507.33646 313.21564Q507.33646 311.6844 507.64896 310.7625Q507.96146 309.825 508.57083 309.325Q509.19583 308.825 510.13333 308.825Q510.82083 308.825 511.33646 309.10626Q511.8677 309.3875 512.2114 309.91876Q512.5552 310.4344 512.7427 311.1844Q512.9302 311.9344 512.9302 313.21564Q512.9302 314.73126 512.6177 315.65314Q512.3208 316.575 511.69583 317.09064Q511.08646 317.59064 510.13333 317.59064Q508.89896 317.59064 508.1802 316.7Q507.33646 315.6375 507.33646 313.21564ZM508.41458 313.21564Q508.41458 315.325 508.91458 316.02814Q509.41458 316.73126 510.13333 316.73126Q510.8677 316.73126 511.35208 316.02814Q511.85208 315.325 511.85208 313.21564Q511.85208 311.09064 511.35208 310.40314Q510.8677 309.7 510.1177 309.7Q509.39896 309.7 508.96146 310.3094Q508.41458 311.09064 508.41458 313.21564ZM514.4927 315.46564L515.5083 315.3719Q515.6333 316.09064 515.9927 316.41876Q516.3677 316.73126 516.9302 316.73126Q517.41455 316.73126 517.7739 316.5125Q518.1489 316.27814 518.3833 315.91876Q518.6177 315.54376 518.7739 314.91876Q518.9302 314.27814 518.9302 313.6219Q518.9302 313.54376 518.9302 313.40314Q518.6177 313.90314 518.0708 314.23126Q517.5239 314.54376 516.8833 314.54376Q515.8052 314.54376 515.0708 313.77814Q514.3364 312.9969 514.3364 311.73126Q514.3364 310.41876 515.10205 309.6219Q515.8833 308.825 517.03955 308.825Q517.8677 308.825 518.5552 309.27814Q519.2583 309.73126 519.6177 310.575Q519.97705 311.40314 519.97705 312.98126Q519.97705 314.6219 519.6177 315.60626Q519.2739 316.575 518.5552 317.09064Q517.85205 317.59064 516.91455 317.59064Q515.8989 317.59064 515.2583 317.04376Q514.6177 316.48126 514.4927 315.46564ZM518.8052 311.66876Q518.8052 310.7625 518.3208 310.23126Q517.85205 309.7 517.16455 309.7Q516.4614 309.7 515.9302 310.27814Q515.41455 310.84064 515.41455 311.7625Q515.41455 312.575 515.91455 313.09064Q516.41455 313.60626 517.1333 313.60626Q517.8677 313.60626 518.3364 313.09064Q518.8052 312.575 518.8052 311.66876ZM526.8052 310.96564L525.7583 311.04376Q525.6177 310.41876 525.3677 310.1375Q524.9302 309.6844 524.3052 309.6844Q523.8052 309.6844 523.41455 309.96564Q522.9302 310.34064 522.6333 311.04376Q522.35205 311.73126 522.3364 313.0125Q522.7114 312.4344 523.2583 312.15314Q523.8208 311.8719 524.4302 311.8719Q525.47705 311.8719 526.2114 312.65314Q526.9614 313.4344 526.9614 314.65314Q526.9614 315.46564 526.60205 316.16876Q526.2583 316.85626 525.6489 317.23126Q525.03955 317.59064 524.2739 317.59064Q522.9458 317.59064 522.1177 316.6219Q521.28955 315.65314 521.28955 313.4344Q521.28955 310.9344 522.2114 309.8094Q523.0083 308.825 524.3677 308.825Q525.3833 308.825 526.0239 309.40314Q526.6802 309.96564 526.8052 310.96564ZM522.5083 314.66876Q522.5083 315.21564 522.72705 315.71564Q522.9614 316.2 523.3677 316.46564Q523.78955 316.73126 524.2583 316.73126Q524.91455 316.73126 525.3989 316.2Q525.8833 315.65314 525.8833 314.73126Q525.8833 313.84064 525.3989 313.325Q524.9302 312.8094 524.2114 312.8094Q523.4927 312.8094 522.9927 313.325Q522.5083 313.84064 522.5083 314.66876Z" fill-rule="nonzero"/><path fill="#4285f4" d="M155.0 56.916668C155.0 56.364384 155.44771 55.916668 156.0 55.916668L166.0 55.916668C166.55229 55.916668 167.0 56.364384 167.0 56.916668L167.0 66.916664C167.0 67.46895 166.55229 67.916664 166.0 67.916664L156.0 67.916664C155.44771 67.916664 155.0 67.46895 155.0 66.916664Z" fill-rule="nonzero"/><path fill="#1a1a1a" d="M175.9375 65.916664L175.9375 57.322914L179.75 57.322914Q180.90625 57.322914 181.5 57.55729Q182.09375 57.791664 182.45312 58.385414Q182.8125 58.96354 182.8125 59.666664Q182.8125 60.58854 182.21875 61.21354Q181.625 61.83854 180.39062 62.010414Q180.84375 62.229164 181.07812 62.43229Q181.57812 62.885414 182.01562 63.572914L183.51562 65.916664L182.07812 65.916664L180.95312 64.135414Q180.45312 63.354164 180.125 62.947914Q179.8125 62.541664 179.54688 62.385414Q179.29688 62.21354 179.03125 62.135414Q178.84375 62.104164 178.40625 62.104164L177.07812 62.104164L177.07812 65.916664L175.9375 65.916664ZM177.07812 61.11979L179.53125 61.11979Q180.29688 61.11979 180.73438 60.96354Q181.1875 60.791664 181.40625 60.447914Q181.64062 60.08854 181.64062 59.666664Q181.64062 59.05729 181.1875 58.666664Q180.75 58.27604 179.79688 58.27604L177.07812 58.27604L177.07812 61.11979ZM189.04688 63.916664L190.14062 64.041664Q189.89062 64.99479 189.1875 65.52604Q188.48438 66.05729 187.40625 66.05729Q186.04688 66.05729 185.23438 65.21354Q184.4375 64.36979 184.4375 62.854164Q184.4375 61.291664 185.25 60.43229Q186.0625 59.55729 187.34375 59.55729Q188.59375 59.55729 189.375 60.40104Q190.17188 61.24479 190.17188 62.791664Q190.17188 62.885414 190.17188 63.072914L185.53125 63.072914Q185.59375 64.104164 186.10938 64.65104Q186.625 65.18229 187.40625 65.18229Q187.98438 65.18229 188.39062 64.885414Q188.8125 64.572914 189.04688 63.916664ZM185.59375 62.21354L189.0625 62.21354Q189.0 61.416664 188.67188 61.02604Q188.15625 60.416664 187.35938 60.416664Q186.625 60.416664 186.125 60.90104Q185.64062 61.385414 185.59375 62.21354ZM191.40625 62.80729Q191.40625 61.072914 192.35938 60.24479Q193.15625 59.55729 194.3125 59.55729Q195.59375 59.55729 196.40625 60.40104Q197.23438 61.229164 197.23438 62.71354Q197.23438 63.916664 196.875 64.604164Q196.51562 65.291664 195.8125 65.68229Q195.125 66.05729 194.3125 66.05729Q193.01562 66.05729 192.20312 65.229164Q191.40625 64.385414 191.40625 62.80729ZM192.48438 62.80729Q192.48438 63.99479 193.0 64.58854Q193.53125 65.18229 194.3125 65.18229Q195.10938 65.18229 195.625 64.58854Q196.14062 63.99479 196.14062 62.77604Q196.14062 61.61979 195.60938 61.02604Q195.09375 60.43229 194.3125 60.43229Q193.53125 60.43229 193.0 61.02604Q192.48438 61.604164 192.48438 62.80729ZM198.78125 65.916664L198.78125 59.697914L199.73438 59.697914L199.73438 60.635414Q200.09375 59.979164 200.39062 59.77604Q200.70312 59.55729 201.07812 59.55729Q201.60938 59.55729 202.15625 59.885414L201.79688 60.86979Q201.40625 60.635414 201.03125 60.635414Q200.67188 60.635414 200.39062 60.854164Q200.125 61.05729 200.01562 61.43229Q199.82812 61.99479 199.82812 62.65104L199.82812 65.916664L198.78125 65.916664ZM206.82812 65.916664L206.82812 65.135414Q206.23438 66.05729 205.09375 66.05729Q204.34375 66.05729 203.71875 65.65104Q203.09375 65.229164 202.75 64.49479Q202.40625 63.760414 202.40625 62.80729Q202.40625 61.885414 202.71875 61.11979Q203.03125 60.354164 203.65625 59.96354Q204.28125 59.55729 205.04688 59.55729Q205.60938 59.55729 206.04688 59.791664Q206.48438 60.02604 206.76562 60.40104L206.76562 57.322914L207.8125 57.322914L207.8125 65.916664L206.82812 65.916664ZM203.5 62.80729Q203.5 64.010414 204.0 64.604164Q204.5 65.18229 205.1875 65.18229Q205.875 65.18229 206.35938 64.61979Q206.84375 64.05729 206.84375 62.90104Q206.84375 61.61979 206.34375 61.02604Q205.85938 60.43229 205.14062 60.43229Q204.4375 60.43229 203.96875 61.010414Q203.5 61.572914 203.5 62.80729ZM214.04688 63.916664L215.14062 64.041664Q214.89062 64.99479 214.1875 65.52604Q213.48438 66.05729 212.40625 66.05729Q211.04688 66.05729 210.23438 65.21354Q209.4375 64.36979 209.4375 62.854164Q209.4375 61.291664 210.25 60.43229Q211.0625 59.55729 212.34375 59.55729Q213.59375 59.55729 214.375 60.40104Q215.17188 61.24479 215.17188 62.791664Q215.17188 62.885414 215.17188 63.072914L210.53125 63.072914Q210.59375 64.104164 211.10938 64.65104Q211.625 65.18229 212.40625 65.18229Q212.98438 65.18229 213.39062 64.885414Q213.8125 64.572914 214.04688 63.916664ZM210.59375 62.21354L214.0625 62.21354Q214.0 61.416664 213.67188 61.02604Q213.15625 60.416664 212.35938 60.416664Q211.625 60.416664 211.125 60.90104Q210.64062 61.385414 210.59375 62.21354ZM216.78125 65.916664L216.78125 59.697914L217.73438 59.697914L217.73438 60.635414Q218.09375 59.979164 218.39062 59.77604Q218.70312 59.55729 219.07812 59.55729Q219.60938 59.55729 220.15625 59.885414L219.79688 60.86979Q219.40625 60.635414 219.03125 60.635414Q218.67188 60.635414 218.39062 60.854164Q218.125 61.05729 218.01562 61.43229Q217.82812 61.99479 217.82812 62.65104L217.82812 65.916664L216.78125 65.916664ZM225.04688 63.916664L226.14062 64.041664Q225.89062 64.99479 225.1875 65.52604Q224.48438 66.05729 223.40625 66.05729Q222.04688 66.05729 221.23438 65.21354Q220.4375 64.36979 220.4375 62.854164Q220.4375 61.291664 221.25 60.43229Q222.0625 59.55729 223.34375 59.55729Q224.59375 59.55729 225.375 60.40104Q226.17188 61.24479 226.17188 62.791664Q226.17188 62.885414 226.17188 63.072914L221.53125 63.072914Q221.59375 64.104164 222.10938 64.65104Q222.625 65.18229 223.40625 65.18229Q223.98438 65.18229 224.39062 64.885414Q224.8125 64.572914 225.04688 63.916664ZM221.59375 62.21354L225.0625 62.21354Q225.0 61.416664 224.67188 61.02604Q224.15625 60.416664 223.35938 60.416664Q222.625 60.416664 222.125 60.90104Q221.64062 61.385414 221.59375 62.21354ZM231.82812 65.916664L231.82812 65.135414Q231.23438 66.05729 230.09375 66.05729Q229.34375 66.05729 228.71875 65.65104Q228.09375 65.229164 227.75 64.49479Q227.40625 63.760414 227.40625 62.80729Q227.40625 61.885414 227.71875 61.11979Q228.03125 60.354164 228.65625 59.96354Q229.28125 59.55729 230.04688 59.55729Q230.60938 59.55729 231.04688 59.791664Q231.48438 60.02604 231.76562 60.40104L231.76562 57.322914L232.8125 57.322914L232.8125 65.916664L231.82812 65.916664ZM228.5 62.80729Q228.5 64.010414 229.0 64.604164Q229.5 65.18229 230.1875 65.18229Q230.875 65.18229 231.35938 64.61979Q231.84375 64.05729 231.84375 62.90104Q231.84375 61.61979 231.34375 61.02604Q230.85938 60.43229 230.14062 60.43229Q229.4375 60.43229 228.96875 61.010414Q228.5 61.572914 228.5 62.80729Z" fill-rule="nonzero"/><path fill="#ea4335" d="M250.0 56.916668C250.0 56.364384 250.44771 55.916668 251.0 55.916668L261.0 55.916668C261.55228 55.916668 262.0 56.364384 262.0 56.916668L262.0 66.916664C262.0 67.46895 261.55228 67.916664 261.0 67.916664L251.0 67.916664C250.44771 67.916664 250.0 67.46895 250.0 66.916664Z" fill-rule="nonzero"/><path fill="#1a1a1a" d="M276.5625 57.322914L277.70312 57.322914L277.70312 62.291664Q277.70312 63.58854 277.40625 64.354164Q277.10938 65.104164 276.34375 65.58854Q275.57812 66.05729 274.34375 66.05729Q273.14062 66.05729 272.35938 65.65104Q271.59375 65.229164 271.26562 64.447914Q270.9375 63.65104 270.9375 62.291664L270.9375 57.322914L272.07812 57.322914L272.07812 62.27604Q272.07812 63.40104 272.28125 63.93229Q272.5 64.46354 273.0 64.760414Q273.51562 65.041664 274.25 65.041664Q275.5 65.041664 276.03125 64.479164Q276.5625 63.90104 276.5625 62.27604L276.5625 57.322914ZM279.79688 65.916664L279.79688 59.697914L280.73438 59.697914L280.73438 60.572914Q281.42188 59.55729 282.71875 59.55729Q283.28125 59.55729 283.75 59.760414Q284.23438 59.96354 284.46875 60.291664Q284.70312 60.61979 284.79688 61.05729Q284.84375 61.354164 284.84375 62.08854L284.84375 65.916664L283.79688 65.916664L283.79688 62.135414Q283.79688 61.479164 283.67188 61.166664Q283.54688 60.854164 283.23438 60.666664Q282.92188 60.46354 282.5 60.46354Q281.82812 60.46354 281.32812 60.90104Q280.84375 61.322914 280.84375 62.510414L280.84375 65.916664L279.79688 65.916664ZM286.78125 65.916664L286.78125 59.697914L287.73438 59.697914L287.73438 60.635414Q288.09375 59.979164 288.39062 59.77604Q288.70312 59.55729 289.07812 59.55729Q289.60938 59.55729 290.15625 59.885414L289.79688 60.86979Q289.40625 60.635414 289.03125 60.635414Q288.67188 60.635414 288.39062 60.854164Q288.125 61.05729 288.01562 61.43229Q287.82812 61.99479 287.82812 62.65104L287.82812 65.916664L286.78125 65.916664ZM290.40625 62.80729Q290.40625 61.072914 291.35938 60.24479Q292.15625 59.55729 293.3125 59.55729Q294.59375 59.55729 295.40625 60.40104Q296.23438 61.229164 296.23438 62.71354Q296.23438 63.916664 295.875 64.604164Q295.51562 65.291664 294.8125 65.68229Q294.125 66.05729 293.3125 66.05729Q292.01562 66.05729 291.20312 65.229164Q290.40625 64.385414 290.40625 62.80729ZM291.48438 62.80729Q291.48438 63.99479 292.0 64.58854Q292.53125 65.18229 293.3125 65.18229Q294.10938 65.18229 294.625 64.58854Q295.14062 63.99479 295.14062 62.77604Q295.14062 61.61979 294.60938 61.02604Q294.09375 60.43229 293.3125 60.43229Q292.53125 60.43229 292.0 61.02604Q291.48438 61.604164 291.48438 62.80729ZM297.76562 65.916664L297.76562 57.322914L298.82812 57.322914L298.82812 65.916664L297.76562 65.916664ZM300.76562 65.916664L300.76562 57.322914L301.82812 57.322914L301.82812 65.916664L300.76562 65.916664ZM308.04688 63.916664L309.14062 64.041664Q308.89062 64.99479 308.1875 65.52604Q307.48438 66.05729 306.40625 66.05729Q305.04688 66.05729 304.23438 65.21354Q303.4375 64.36979 303.4375 62.854164Q303.4375 61.291664 304.25 60.43229Q305.0625 59.55729 306.34375 59.55729Q307.59375 59.55729 308.375 60.40104Q309.17188 61.24479 309.17188 62.791664Q309.17188 62.885414 309.17188 63.072914L304.53125 63.072914Q304.59375 64.104164 305.10938 64.65104Q305.625 65.18229 306.40625 65.18229Q306.98438 65.18229 307.39062 64.885414Q307.8125 64.572914 308.04688 63.916664ZM304.59375 62.21354L308.0625 62.21354Q308.0 61.416664 307.67188 61.02604Q307.15625 60.416664 306.35938 60.416664Q305.625 60.416664 305.125 60.90104Q304.64062 61.385414 304.59375 62.21354ZM314.82812 65.916664L314.82812 65.135414Q314.23438 66.05729 313.09375 66.05729Q312.34375 66.05729 311.71875 65.65104Q311.09375 65.229164 310.75 64.49479Q310.40625 63.760414 310.40625 62.80729Q310.40625 61.885414 310.71875 61.11979Q311.03125 60.354164 311.65625 59.96354Q312.28125 59.55729 313.04688 59.55729Q313.60938 59.55729 314.04688 59.791664Q314.48438 60.02604 314.76562 60.40104L314.76562 57.322914L315.8125 57.322914L315.8125 65.916664L314.82812 65.916664ZM311.5 62.80729Q311.5 64.010414 312.0 64.604164Q312.5 65.18229 313.1875 65.18229Q313.875 65.18229 314.35938 64.61979Q314.84375 64.05729 314.84375 62.90104Q314.84375 61.61979 314.34375 61.02604Q313.85938 60.43229 313.14062 60.43229Q312.4375 60.43229 311.96875 61.010414Q311.5 61.572914 311.5 62.80729Z" fill-rule="nonzero"/><path fill="#fbbc04" d="M333.0 56.916668C333.0 56.364384 333.44772 55.916668 334.0 55.916668L344.0 55.916668C344.55228 55.916668 345.0 56.364384 345.0 56.916668L345.0 66.916664C345.0 67.46895 344.55228 67.916664 344.0 67.916664L334.0 67.916664C333.44772 67.916664 333.0 67.46895 333.0 66.916664Z" fill-rule="nonzero"/><path fill="#1a1a1a" d="M356.10938 65.916664L356.10938 58.33854L353.28125 58.33854L353.28125 57.322914L360.09375 57.322914L360.09375 58.33854L357.25 58.33854L357.25 65.916664L356.10938 65.916664ZM360.79688 58.541664L360.79688 57.322914L361.85938 57.322914L361.85938 58.541664L360.79688 58.541664ZM360.79688 65.916664L360.79688 59.697914L361.85938 59.697914L361.85938 65.916664L360.79688 65.916664ZM363.76562 65.916664L363.76562 57.322914L364.82812 57.322914L364.82812 65.916664L363.76562 65.916664ZM371.04688 63.916664L372.14062 64.041664Q371.89062 64.99479 371.1875 65.52604Q370.48438 66.05729 369.40625 66.05729Q368.04688 66.05729 367.23438 65.21354Q366.4375 64.36979 366.4375 62.854164Q366.4375 61.291664 367.25 60.43229Q368.0625 59.55729 369.34375 59.55729Q370.59375 59.55729 371.375 60.40104Q372.17188 61.24479 372.17188 62.791664Q372.17188 62.885414 372.17188 63.072914L367.53125 63.072914Q367.59375 64.104164 368.10938 64.65104Q368.625 65.18229 369.40625 65.18229Q369.98438 65.18229 370.39062 64.885414Q370.8125 64.572914 371.04688 63.916664ZM367.59375 62.21354L371.0625 62.21354Q371.0 61.416664 370.67188 61.02604Q370.15625 60.416664 369.35938 60.416664Q368.625 60.416664 368.125 60.90104Q367.64062 61.385414 367.59375 62.21354ZM377.82812 65.916664L377.82812 65.135414Q377.23438 66.05729 376.09375 66.05729Q375.34375 66.05729 374.71875 65.65104Q374.09375 65.229164 373.75 64.49479Q373.40625 63.760414 373.40625 62.80729Q373.40625 61.885414 373.71875 61.11979Q374.03125 60.354164 374.65625 59.96354Q375.28125 59.55729 376.04688 59.55729Q376.60938 59.55729 377.04688 59.791664Q377.48438 60.02604 377.76562 60.40104L377.76562 57.322914L378.8125 57.322914L378.8125 65.916664L377.82812 65.916664ZM374.5 62.80729Q374.5 64.010414 375.0 64.604164Q375.5 65.18229 376.1875 65.18229Q376.875 65.18229 377.35938 64.61979Q377.84375 64.05729 377.84375 62.90104Q377.84375 61.61979 377.34375 61.02604Q376.85938 60.43229 376.14062 60.43229Q375.4375 60.43229 374.96875 61.010414Q374.5 61.572914 374.5 62.80729Z" fill-rule="nonzero"/><path fill="#34a853" d="M396.0 56.916668C396.0 56.364384 396.44772 55.916668 397.0 55.916668L407.0 55.916668C407.55228 55.916668 408.0 56.364384 408.0 56.916668L408.0 66.916664C408.0 67.46895 407.55228 67.916664 407.0 67.916664L397.0 67.916664C396.44772 67.916664 396.0 67.46895 396.0 66.916664Z" fill-rule="nonzero"/><path fill="#1a1a1a" d="M416.54688 63.15104L417.60938 63.05729Q417.6875 63.71354 417.96875 64.11979Q418.25 64.52604 418.82812 64.791664Q419.42188 65.041664 420.15625 65.041664Q420.79688 65.041664 421.29688 64.854164Q421.79688 64.65104 422.03125 64.322914Q422.28125 63.979164 422.28125 63.58854Q422.28125 63.18229 422.04688 62.885414Q421.8125 62.572914 421.28125 62.36979Q420.92188 62.229164 419.73438 61.947914Q418.5625 61.666664 418.09375 61.416664Q417.46875 61.08854 417.17188 60.61979Q416.875 60.135414 416.875 59.541664Q416.875 58.90104 417.23438 58.33854Q417.60938 57.760414 418.3125 57.479164Q419.03125 57.18229 419.89062 57.18229Q420.84375 57.18229 421.57812 57.49479Q422.3125 57.791664 422.70312 58.40104Q423.09375 58.99479 423.125 59.74479L422.03125 59.822914Q421.9375 59.010414 421.42188 58.604164Q420.92188 58.18229 419.9375 58.18229Q418.90625 58.18229 418.4375 58.55729Q417.96875 58.93229 417.96875 59.46354Q417.96875 59.93229 418.29688 60.229164Q418.625 60.52604 420.0 60.83854Q421.39062 61.15104 421.90625 61.385414Q422.65625 61.74479 423.01562 62.27604Q423.375 62.791664 423.375 63.49479Q423.375 64.18229 422.98438 64.791664Q422.59375 65.385414 421.85938 65.729164Q421.125 66.05729 420.20312 66.05729Q419.03125 66.05729 418.23438 65.729164Q417.45312 65.385414 417.0 64.697914Q416.5625 64.010414 416.54688 63.15104ZM425.125 65.916664L425.125 57.322914L426.25 57.322914L426.25 65.916664L425.125 65.916664ZM427.89062 65.916664L427.89062 57.322914L429.60938 57.322914L431.64062 63.40104Q431.92188 64.260414 432.04688 64.68229Q432.1875 64.21354 432.5 63.30729L434.5625 57.322914L436.09375 57.322914L436.09375 65.916664L435.0 65.916664L435.0 58.729164L432.5 65.916664L431.46875 65.916664L428.98438 58.604164L428.98438 65.916664L427.89062 65.916664ZM436.92188 65.916664L436.92188 57.322914L439.89062 57.322914Q440.89062 57.322914 441.42188 57.447914Q442.15625 57.61979 442.67188 58.05729Q443.35938 58.635414 443.6875 59.541664Q444.03125 60.43229 444.03125 61.572914Q444.03125 62.55729 443.79688 63.30729Q443.57812 64.05729 443.21875 64.55729Q442.85938 65.05729 442.42188 65.33854Q442.0 65.61979 441.40625 65.77604Q440.8125 65.916664 440.03125 65.916664L436.92188 65.916664ZM438.0625 64.90104L439.89062 64.90104Q440.75 64.90104 441.23438 64.74479Q441.71875 64.58854 442.0 64.291664Q442.40625 63.90104 442.625 63.21354Q442.85938 62.52604 442.85938 61.55729Q442.85938 60.21354 442.40625 59.49479Q441.96875 58.760414 441.34375 58.510414Q440.875 58.33854 439.875 58.33854L438.0625 58.33854L438.0625 64.90104Z" fill-rule="nonzero"/><path fill="#757575" d="M26.8 31.940624L26.8 30.253124L32.8625 30.2375L32.8625 35.55Q31.45625 36.675 29.971874 37.2375Q28.4875 37.8 26.925 37.8Q24.815624 37.8 23.096874 36.89375Q21.378124 35.9875 20.4875 34.284374Q19.6125 32.565624 19.6125 30.45625Q19.6125 28.3625 20.4875 26.565624Q21.3625 24.753124 23.003124 23.878124Q24.64375 22.9875 26.784374 22.9875Q28.33125 22.9875 29.58125 23.4875Q30.846874 23.9875 31.55 24.89375Q32.26875 25.784374 32.64375 27.2375L30.940624 27.70625Q30.6125 26.6125 30.128124 25.9875Q29.659374 25.3625 28.76875 24.9875Q27.878124 24.6125 26.8 24.6125Q25.4875 24.6125 24.534374 25.003124Q23.596874 25.39375 23.01875 26.05Q22.440624 26.690624 22.1125 27.45625Q21.565624 28.784374 21.565624 30.346874Q21.565624 32.253124 22.221874 33.55Q22.89375 34.83125 24.14375 35.45625Q25.409374 36.08125 26.815624 36.08125Q28.05 36.08125 29.221874 35.6125Q30.39375 35.14375 31.003124 34.596874L31.003124 31.940624L26.8 31.940624ZM35.878124 25.253124L35.878124 23.2375L37.64375 23.2375L37.64375 25.253124L35.878124 25.253124ZM35.878124 37.55L35.878124 27.175L37.64375 27.175L37.64375 37.55L35.878124 37.55ZM39.55 38.409374L41.253124 38.659374Q41.3625 39.45625 41.846874 39.815624Q42.503124 40.3 43.64375 40.3Q44.8625 40.3 45.51875 39.815624Q46.190624 39.33125 46.425 38.45625Q46.565624 37.909374 46.55 36.190624Q45.39375 37.55 43.675 37.55Q41.534374 37.55 40.3625 36.003124Q39.190624 34.45625 39.190624 32.3Q39.190624 30.815624 39.721874 29.565624Q40.26875 28.315624 41.284374 27.628124Q42.315624 26.940624 43.690624 26.940624Q45.51875 26.940624 46.721874 28.425L46.721874 27.175L48.33125 27.175L48.33125 36.14375Q48.33125 38.565624 47.83125 39.565624Q47.346874 40.58125 46.26875 41.159374Q45.20625 41.753124 43.64375 41.753124Q41.8 41.753124 40.64375 40.925Q39.503124 40.096874 39.55 38.409374ZM41.003124 32.175Q41.003124 34.221874 41.815624 35.159374Q42.628124 36.096874 43.846874 36.096874Q45.05 36.096874 45.8625 35.159374Q46.690624 34.221874 46.690624 32.2375Q46.690624 30.33125 45.846874 29.3625Q45.003124 28.39375 43.815624 28.39375Q42.64375 28.39375 41.815624 29.346874Q41.003124 30.3 41.003124 32.175ZM57.64375 36.26875Q56.659374 37.096874 55.753124 37.440624Q54.846874 37.784374 53.815624 37.784374Q52.1125 37.784374 51.190624 36.95625Q50.26875 36.1125 50.26875 34.815624Q50.26875 34.05 50.6125 33.425Q50.971874 32.8 51.534374 32.425Q52.096874 32.034374 52.8 31.83125Q53.315624 31.70625 54.3625 31.565624Q56.4875 31.315624 57.4875 30.971874Q57.503124 30.6125 57.503124 30.503124Q57.503124 29.440624 57.003124 28.9875Q56.33125 28.39375 55.003124 28.39375Q53.753124 28.39375 53.159374 28.83125Q52.58125 29.26875 52.3 30.378124L50.58125 30.14375Q50.815624 29.034374 51.346874 28.3625Q51.878124 27.675 52.89375 27.315624Q53.909374 26.940624 55.253124 26.940624Q56.58125 26.940624 57.409374 27.253124Q58.2375 27.565624 58.628124 28.05Q59.01875 28.51875 59.175 29.2375Q59.26875 29.690624 59.26875 30.8625L59.26875 33.20625Q59.26875 35.659374 59.378124 36.315624Q59.4875 36.95625 59.83125 37.55L57.9875 37.55Q57.721874 37.003124 57.64375 36.26875ZM57.4875 32.346874Q56.534374 32.7375 54.6125 33.003124Q53.534374 33.159374 53.08125 33.3625Q52.64375 33.55 52.39375 33.925Q52.14375 34.3 52.14375 34.76875Q52.14375 35.471874 52.675 35.940624Q53.20625 36.409374 54.2375 36.409374Q55.253124 36.409374 56.034374 35.971874Q56.83125 35.51875 57.20625 34.753124Q57.4875 34.14375 57.4875 32.9875L57.4875 32.346874ZM67.51875 30.58125Q67.51875 27.01875 69.425 25.003124Q71.34688 22.971874 74.37813 22.971874Q76.3625 22.971874 77.94063 23.925Q79.53438 24.878124 80.3625 26.58125Q81.20625 28.26875 81.20625 30.409374Q81.20625 32.58125 80.33125 34.3Q79.45625 36.01875 77.83125 36.909374Q76.22188 37.8 74.3625 37.8Q72.34688 37.8 70.75313 36.83125Q69.15938 35.846874 68.33125 34.159374Q67.51875 32.45625 67.51875 30.58125ZM69.47188 30.6125Q69.47188 33.190624 70.8625 34.690624Q72.25313 36.175 74.34688 36.175Q76.4875 36.175 77.8625 34.675Q79.25313 33.159374 79.25313 30.39375Q79.25313 28.659374 78.65938 27.3625Q78.08125 26.05 76.94063 25.33125Q75.8 24.6125 74.37813 24.6125Q72.37813 24.6125 70.925 26.003124Q69.47188 27.378124 69.47188 30.6125ZM83.8625 41.51875L83.8625 27.175L85.47188 27.175L85.47188 28.51875Q86.03438 27.7375 86.7375 27.346874Q87.45625 26.940624 88.47188 26.940624Q89.8 26.940624 90.81563 27.628124Q91.83125 28.315624 92.34688 29.565624Q92.87813 30.8 92.87813 32.284374Q92.87813 33.878124 92.3 35.159374Q91.7375 36.425 90.64375 37.1125Q89.55 37.784374 88.34688 37.784374Q87.47188 37.784374 86.76875 37.409374Q86.08125 37.034374 85.62813 36.471874L85.62813 41.51875L83.8625 41.51875ZM85.45625 32.425Q85.45625 34.425 86.26875 35.378124Q87.08125 36.33125 88.2375 36.33125Q89.40938 36.33125 90.2375 35.346874Q91.08125 34.3625 91.08125 32.26875Q91.08125 30.3 90.25313 29.315624Q89.44063 28.315624 88.31563 28.315624Q87.19063 28.315624 86.31563 29.378124Q85.45625 30.425 85.45625 32.425ZM101.97188 34.20625L103.78438 34.440624Q103.3625 36.01875 102.19063 36.909374Q101.03438 37.784374 99.22188 37.784374Q96.95625 37.784374 95.6125 36.39375Q94.28438 34.9875 94.28438 32.45625Q94.28438 29.83125 95.62813 28.39375Q96.97188 26.940624 99.12813 26.940624Q101.20625 26.940624 102.51875 28.3625Q103.84688 29.76875 103.84688 32.346874Q103.84688 32.503124 103.83125 32.815624L96.09688 32.815624Q96.19063 34.51875 97.06563 35.425Q97.94063 36.33125 99.2375 36.33125Q100.20625 36.33125 100.87813 35.83125Q101.56563 35.315624 101.97188 34.20625ZM96.19063 31.3625L101.9875 31.3625Q101.87813 30.065624 101.33125 29.409374Q100.4875 28.39375 99.14375 28.39375Q97.94063 28.39375 97.1125 29.20625Q96.28438 30.003124 96.19063 31.3625ZM105.84688 37.55L105.84688 27.175L107.425 27.175L107.425 28.753124Q108.03438 27.64375 108.55 27.3Q109.06563 26.940624 109.675 26.940624Q110.56563 26.940624 111.4875 27.503124L110.87813 29.14375Q110.2375 28.753124 109.59688 28.753124Q109.01875 28.753124 108.55 29.1125Q108.09688 29.45625 107.89375 30.065624Q107.6125 31.003124 107.6125 32.1125L107.6125 37.55L105.84688 37.55ZM119.64375 36.26875Q118.65938 37.096874 117.75313 37.440624Q116.84688 37.784374 115.81563 37.784374Q114.1125 37.784374 113.19063 36.95625Q112.26875 36.1125 112.26875 34.815624Q112.26875 34.05 112.6125 33.425Q112.97188 32.8 113.53438 32.425Q114.09688 32.034374 114.8 31.83125Q115.31563 31.70625 116.3625 31.565624Q118.4875 31.315624 119.4875 30.971874Q119.50313 30.6125 119.50313 30.503124Q119.50313 29.440624 119.00313 28.9875Q118.33125 28.39375 117.00313 28.39375Q115.75313 28.39375 115.15938 28.83125Q114.58125 29.26875 114.3 30.378124L112.58125 30.14375Q112.81563 29.034374 113.34688 28.3625Q113.87813 27.675 114.89375 27.315624Q115.90938 26.940624 117.25313 26.940624Q118.58125 26.940624 119.40938 27.253124Q120.2375 27.565624 120.62813 28.05Q121.01875 28.51875 121.175 29.2375Q121.26875 29.690624 121.26875 30.8625L121.26875 33.20625Q121.26875 35.659374 121.37813 36.315624Q121.4875 36.95625 121.83125 37.55L119.9875 37.55Q119.72188 37.003124 119.64375 36.26875ZM119.4875 32.346874Q118.53438 32.7375 116.6125 33.003124Q115.53438 33.159374 115.08125 33.3625Q114.64375 33.55 114.39375 33.925Q114.14375 34.3 114.14375 34.76875Q114.14375 35.471874 114.675 35.940624Q115.20625 36.409374 116.2375 36.409374Q117.25313 36.409374 118.03438 35.971874Q118.83125 35.51875 119.20625 34.753124Q119.4875 34.14375 119.4875 32.9875L119.4875 32.346874ZM127.70625 35.971874L127.95625 37.534374Q127.22188 37.690624 126.62813 37.690624Q125.675 37.690624 125.14375 37.39375Q124.62813 37.08125 124.40938 36.596874Q124.19063 36.096874 124.19063 34.51875L124.19063 28.55L122.90938 28.55L122.90938 27.175L124.19063 27.175L124.19063 24.6125L125.94063 23.55L125.94063 27.175L127.70625 27.175L127.70625 28.55L125.94063 28.55L125.94063 34.6125Q125.94063 35.3625 126.03438 35.58125Q126.12813 35.784374 126.33125 35.925Q126.55 36.05 126.94063 36.05Q127.22188 36.05 127.70625 35.971874ZM129.87813 25.253124L129.87813 23.2375L131.64375 23.2375L131.64375 25.253124L129.87813 25.253124ZM129.87813 37.55L129.87813 27.175L131.64375 27.175L131.64375 37.55L129.87813 37.55ZM133.22188 32.3625Q133.22188 29.4875 134.81563 28.096874Q136.15938 26.940624 138.08125 26.940624Q140.22188 26.940624 141.56563 28.346874Q142.925 29.753124 142.925 32.221874Q142.925 34.221874 142.33125 35.378124Q141.7375 36.51875 140.58125 37.159374Q139.44063 37.784374 138.08125 37.784374Q135.89375 37.784374 134.55 36.39375Q133.22188 34.9875 133.22188 32.3625ZM135.01875 32.3625Q135.01875 34.3625 135.87813 35.346874Q136.75313 36.33125 138.08125 36.33125Q139.39375 36.33125 140.25313 35.346874Q141.12813 34.346874 141.12813 32.3Q141.12813 30.378124 140.25313 29.39375Q139.37813 28.39375 138.08125 28.39375Q136.75313 28.39375 135.87813 29.39375Q135.01875 30.378124 135.01875 32.3625ZM144.8625 37.55L144.8625 27.175L146.45625 27.175L146.45625 28.659374Q147.59688 26.940624 149.75313 26.940624Q150.69063 26.940624 151.47188 27.284374Q152.26875 27.6125 152.65938 28.159374Q153.05 28.70625 153.20625 29.45625Q153.3 29.95625 153.3 31.175L153.3 37.55L151.53438 37.55L151.53438 31.2375Q151.53438 30.159374 151.33125 29.628124Q151.12813 29.096874 150.59688 28.784374Q150.08125 28.471874 149.37813 28.471874Q148.25313 28.471874 147.44063 29.190624Q146.62813 29.89375 146.62813 31.878124L146.62813 37.55L144.8625 37.55ZM154.15938 34.45625L155.90938 34.175Q156.05 35.221874 156.72188 35.784374Q157.39375 36.33125 158.59688 36.33125Q159.8 36.33125 160.37813 35.846874Q160.97188 35.346874 160.97188 34.690624Q160.97188 34.096874 160.45625 33.753124Q160.09688 33.51875 158.65938 33.159374Q156.72188 32.659374 155.97188 32.315624Q155.2375 31.95625 154.84688 31.33125Q154.45625 30.690624 154.45625 29.925Q154.45625 29.2375 154.76875 28.64375Q155.09688 28.05 155.64375 27.659374Q156.05 27.3625 156.75313 27.159374Q157.47188 26.940624 158.28438 26.940624Q159.50313 26.940624 160.425 27.3Q161.34688 27.64375 161.78438 28.253124Q162.22188 28.846874 162.39375 29.846874L160.675 30.08125Q160.55 29.284374 159.9875 28.846874Q159.425 28.39375 158.40938 28.39375Q157.19063 28.39375 156.675 28.8Q156.15938 29.190624 156.15938 29.721874Q156.15938 30.065624 156.37813 30.346874Q156.58125 30.628124 157.05 30.815624Q157.31563 30.909374 158.59688 31.253124Q160.47188 31.753124 161.20625 32.08125Q161.94063 32.39375 162.3625 33.003124Q162.78438 33.596874 162.78438 34.503124Q162.78438 35.378124 162.26875 36.159374Q161.75313 36.940624 160.78438 37.3625Q159.81563 37.784374 158.59688 37.784374Q156.58125 37.784374 155.51875 36.940624Q154.45625 36.096874 154.15938 34.45625ZM170.8625 41.51875L170.8625 27.175L172.47188 27.175L172.47188 28.51875Q173.03438 27.7375 173.7375 27.346874Q174.45625 26.940624 175.47188 26.940624Q176.8 26.940624 177.81563 27.628124Q178.83125 28.315624 179.34688 29.565624Q179.87813 30.8 179.87813 32.284374Q179.87813 33.878124 179.3 35.159374Q178.7375 36.425 177.64375 37.1125Q176.55 37.784374 175.34688 37.784374Q174.47188 37.784374 173.76875 37.409374Q173.08125 37.034374 172.62813 36.471874L172.62813 41.51875L170.8625 41.51875ZM172.45625 32.425Q172.45625 34.425 173.26875 35.378124Q174.08125 36.33125 175.2375 36.33125Q176.40938 36.33125 177.2375 35.346874Q178.08125 34.3625 178.08125 32.26875Q178.08125 30.3 177.25313 29.315624Q176.44063 28.315624 175.31563 28.315624Q174.19063 28.315624 173.31563 29.378124Q172.45625 30.425 172.45625 32.425ZM188.97188 34.20625L190.78438 34.440624Q190.3625 36.01875 189.19063 36.909374Q188.03438 37.784374 186.22188 37.784374Q183.95625 37.784374 182.6125 36.39375Q181.28438 34.9875 181.28438 32.45625Q181.28438 29.83125 182.62813 28.39375Q183.97188 26.940624 186.12813 26.940624Q188.20625 26.940624 189.51875 28.3625Q190.84688 29.76875 190.84688 32.346874Q190.84688 32.503124 190.83125 32.815624L183.09688 32.815624Q183.19063 34.51875 184.06563 35.425Q184.94063 36.33125 186.2375 36.33125Q187.20625 36.33125 187.87813 35.83125Q188.56563 35.315624 188.97188 34.20625ZM183.19063 31.3625L188.9875 31.3625Q188.87813 30.065624 188.33125 29.409374Q187.4875 28.39375 186.14375 28.39375Q184.94063 28.39375 184.1125 29.20625Q183.28438 30.003124 183.19063 31.3625ZM192.84688 37.55L192.84688 27.175L194.425 27.175L194.425 28.753124Q195.03438 27.64375 195.55 27.3Q196.06563 26.940624 196.675 26.940624Q197.56563 26.940624 198.4875 27.503124L197.87813 29.14375Q197.2375 28.753124 196.59688 28.753124Q196.01875 28.753124 195.55 29.1125Q195.09688 29.45625 194.89375 30.065624Q194.6125 31.003124 194.6125 32.1125L194.6125 37.55L192.84688 37.55ZM205.45625 32.95625L207.2375 32.8Q207.3625 33.8625 207.81563 34.55Q208.28438 35.2375 209.25313 35.675Q210.2375 36.096874 211.47188 36.096874Q212.55 36.096874 213.37813 35.784374Q214.20625 35.45625 214.6125 34.89375Q215.01875 34.33125 215.01875 33.659374Q215.01875 32.9875 214.62813 32.4875Q214.2375 31.9875 213.34688 31.64375Q212.76875 31.409374 210.78438 30.940624Q208.81563 30.471874 208.03438 30.05Q207.00313 29.51875 206.50313 28.721874Q206.00313 27.925 206.00313 26.940624Q206.00313 25.846874 206.6125 24.909374Q207.22188 23.971874 208.40938 23.4875Q209.59688 22.9875 211.03438 22.9875Q212.62813 22.9875 213.84688 23.503124Q215.06563 24.01875 215.70625 25.01875Q216.3625 26.003124 216.40938 27.26875L214.59688 27.409374Q214.45625 26.05 213.6125 25.3625Q212.76875 24.659374 211.1125 24.659374Q209.39375 24.659374 208.59688 25.3Q207.81563 25.925 207.81563 26.8Q207.81563 27.58125 208.37813 28.08125Q208.925 28.58125 211.2375 29.096874Q213.55 29.6125 214.40938 30.003124Q215.65938 30.58125 216.25313 31.471874Q216.84688 32.346874 216.84688 33.503124Q216.84688 34.64375 216.19063 35.659374Q215.53438 36.675 214.3 37.2375Q213.08125 37.8 211.55 37.8Q209.6125 37.8 208.3 37.2375Q206.9875 36.659374 206.2375 35.51875Q205.4875 34.378124 205.45625 32.95625ZM225.97188 34.20625L227.78438 34.440624Q227.3625 36.01875 226.19063 36.909374Q225.03438 37.784374 223.22188 37.784374Q220.95625 37.784374 219.6125 36.39375Q218.28438 34.9875 218.28438 32.45625Q218.28438 29.83125 219.62813 28.39375Q220.97188 26.940624 223.12813 26.940624Q225.20625 26.940624 226.51875 28.3625Q227.84688 29.76875 227.84688 32.346874Q227.84688 32.503124 227.83125 32.815624L220.09688 32.815624Q220.19063 34.51875 221.06563 35.425Q221.94063 36.33125 223.2375 36.33125Q224.20625 36.33125 224.87813 35.83125Q225.56563 35.315624 225.97188 34.20625ZM220.19063 31.3625L225.9875 31.3625Q225.87813 30.065624 225.33125 29.409374Q224.4875 28.39375 223.14375 28.39375Q221.94063 28.39375 221.1125 29.20625Q220.28438 30.003124 220.19063 31.3625ZM236.64375 33.753124L238.3625 33.971874Q238.08125 35.76875 236.90938 36.784374Q235.75313 37.784374 234.05 37.784374Q231.925 37.784374 230.62813 36.39375Q229.33125 35.003124 229.33125 32.409374Q229.33125 30.721874 229.87813 29.471874Q230.44063 28.20625 231.58125 27.58125Q232.72188 26.940624 234.06563 26.940624Q235.75313 26.940624 236.81563 27.8Q237.89375 28.659374 238.20625 30.221874L236.4875 30.4875Q236.25313 29.440624 235.62813 28.925Q235.00313 28.39375 234.12813 28.39375Q232.8 28.39375 231.97188 29.346874Q231.14375 30.3 231.14375 32.346874Q231.14375 34.440624 231.94063 35.39375Q232.7375 36.33125 234.03438 36.33125Q235.06563 36.33125 235.75313 35.70625Q236.45625 35.065624 236.64375 33.753124ZM239.22188 32.3625Q239.22188 29.4875 240.81563 28.096874Q242.15938 26.940624 244.08125 26.940624Q246.22188 26.940624 247.56563 28.346874Q248.925 29.753124 248.925 32.221874Q248.925 34.221874 248.33125 35.378124Q247.7375 36.51875 246.58125 37.159374Q245.44063 37.784374 244.08125 37.784374Q241.89375 37.784374 240.55 36.39375Q239.22188 34.9875 239.22188 32.3625ZM241.01875 32.3625Q241.01875 34.3625 241.87813 35.346874Q242.75313 36.33125 244.08125 36.33125Q245.39375 36.33125 246.25313 35.346874Q247.12813 34.346874 247.12813 32.3Q247.12813 30.378124 246.25313 29.39375Q245.37813 28.39375 244.08125 28.39375Q242.75313 28.39375 241.87813 29.39375Q241.01875 30.378124 241.01875 32.3625ZM250.8625 37.55L250.8625 27.175L252.45625 27.175L252.45625 28.659374Q253.59688 26.940624 255.75313 26.940624Q256.6906 26.940624 257.47186 27.284374Q258.26874 27.6125 258.65936 28.159374Q259.05 28.70625 259.20624 29.45625Q259.3 29.95625 259.3 31.175L259.3 37.55L257.53436 37.55L257.53436 31.2375Q257.53436 30.159374 257.33124 29.628124Q257.1281 29.096874 256.59686 28.784374Q256.08124 28.471874 255.37813 28.471874Q254.25313 28.471874 253.44063 29.190624Q252.62813 29.89375 252.62813 31.878124L252.62813 37.55L250.8625 37.55ZM267.59686 37.55L267.59686 36.2375Q266.6125 37.784374 264.6906 37.784374Q263.45624 37.784374 262.40936 37.096874Q261.3781 36.409374 260.8 35.190624Q260.2375 33.971874 260.2375 32.378124Q260.2375 30.815624 260.7531 29.55Q261.26874 28.284374 262.3 27.6125Q263.34686 26.940624 264.6125 26.940624Q265.55 26.940624 266.28436 27.346874Q267.01874 27.7375 267.4875 28.3625L267.4875 23.2375L269.22186 23.2375L269.22186 37.55L267.59686 37.55ZM262.03436 32.378124Q262.03436 34.3625 262.8781 35.346874Q263.72186 36.33125 264.8625 36.33125Q266.01874 36.33125 266.8156 35.39375Q267.6281 34.45625 267.6281 32.51875Q267.6281 30.39375 266.8 29.39375Q265.9875 28.39375 264.78436 28.39375Q263.6125 28.39375 262.8156 29.3625Q262.03436 30.315624 262.03436 32.378124Z" fill-rule="nonzero"/></svg>