<svg version="1.1" viewBox="0.0 0.0 600.0 371.0" fill="none" stroke="none" stroke-linecap="square" stroke-miterlimit="10" width="600" height="371" xmlns:xlink="http://www.w3.org/1999/xlink" xmlns="http://www.w3.org/2000/svg"><path fill="#ffffff" d="M0 0L600.0 0L600.0 371.0L0 371.0L0 0Z" fill-rule="nonzero"/><path stroke="#cccccc" stroke-width="1.0" stroke-linecap="butt" d="M153.5 88.5L153.5 300.5" fill-rule="nonzero"/><path stroke="#cccccc" stroke-width="1.0" stroke-linecap="butt" d="M289.5 88.5L289.5 300.5" fill-rule="nonzero"/><path stroke="#cccccc" stroke-width="1.0" stroke-linecap="butt" d="M425.5 88.5L425.5 300.5" fill-rule="nonzero"/><path stroke="#cccccc" stroke-width="1.0" stroke-linecap="butt" d="M561.5 88.5L561.5 300.5" fill-rule="nonzero"/><path stroke="#333333" stroke-width="1.0" stroke-linecap="butt" d="M45.5 300.5L581.5 300.5" fill-rule="nonzero"/><path stroke="#cccccc" stroke-width="1.0" stroke-linecap="butt" d="M45.5 229.5L581.5 229.5" fill-rule="nonzero"/><path stroke="#cccccc" stroke-width="1.0" stroke-linecap="butt" d="M45.5 159.5L581.5 159.5" fill-rule="nonzero"/><path stroke="#cccccc" stroke-width="1.0" stroke-linecap="butt" d="M45.5 88.5L581.5 88.5" fill-rule="nonzero"/><clipPath id="id_0"><path d="M45.55 88.28333L581.45 88.28333L581.45 300.45L45.55 300.45L45.55 88.28333Z" clip-rule="nonzero"/></clipPath><path stroke="#4285f4" stroke-width="2.0" stroke-linecap="butt" clip-path="url(#id_0)" d="M52.371784 248.87935L87.18888 98.86338L156.82307 100.43341L296.09146 102.470215L574.62823 109.01909" fill-rule="nonzero"/><path stroke="#ea4335" stroke-width="2.0" stroke-linecap="butt" clip-path="url(#id_0)" d="M52.371784 214.80539L87.18888 250.83128L156.82307 256.92755L296.09146 257.35187L574.62823 270.7325" fill-rule="nonzero"/><path stroke="#fbbc04" stroke-width="2.0" stroke-linecap="butt" clip-path="url(#id_0)" d="M52.371784 166.2758L87.18888 218.96385L156.82307 223.12233L296.09146 223.70224L574.62823 229.44489" fill-rule="nonzero"/><path stroke="#34a853" stroke-width="2.0" stroke-linecap="butt" clip-path="url(#id_0)" d="M52.371784 208.8223L87.18888 231.34024L156.82307 242.7548L296.09146 245.76758L574.62823 259.28967" fill-rule="nonzero"/><path stroke="#ff6d01" stroke-width="2.0" stroke-linecap="butt" clip-path="url(#id_0)" d="M52.371784 142.39998L87.18888 178.79364L156.82307 181.99028L296.09146 181.08504L574.62823 194.46568" fill-rule="nonzero"/><path fill="#4285f4" clip-path="url(#id_0)" d="M56.871784 248.87935C56.871784 251.36464 54.857067 253.37935 52.371784 253.37935C49.886505 253.37935 47.871784 251.36464 47.871784 248.87935C47.871784 246.39407 49.886505 244.37935 52.371784 244.37935C54.857067 244.37935 56.871784 246.39407 56.871784 248.87935Z" fill-rule="nonzero"/><path fill="#4285f4" clip-path="url(#id_0)" d="M91.68888 98.86338C91.68888 101.348656 89.674164 103.36338 87.18888 103.36338C84.7036 103.36338 82.68888 101.348656 82.68888 98.86338C82.68888 96.3781 84.7036 94.36338 87.18888 94.36338C89.674164 94.36338 91.68888 96.3781 91.68888 98.86338Z" fill-rule="nonzero"/><path fill="#4285f4" clip-path="url(#id_0)" d="M161.32307 100.43341C161.32307 102.91869 159.30835 104.93341 156.82307 104.93341C154.33778 104.93341 152.32307 102.91869 152.32307 100.43341C152.32307 97.94813 154.33778 95.93341 156.82307 95.93341C159.30835 95.93341 161.32307 97.94813 161.32307 100.43341Z" fill-rule="nonzero"/><path fill="#4285f4" clip-path="url(#id_0)" d="M300.59146 102.470215C300.59146 104.95549 298.57672 106.970215 296.09146 106.970215C293.60617 106.970215 291.59146 104.95549 291.59146 102.470215C291.59146 99.98493 293.60617 97.970215 296.09146 97.970215C298.57672 97.970215 300.59146 99.98493 300.59146 102.470215Z" fill-rule="nonzero"/><path fill="#4285f4" clip-path="url(#id_0)" d="M579.12823 109.01909C579.12823 111.50437 577.1135 113.51909 574.62823 113.51909C572.14294 113.51909 570.12823 111.50437 570.12823 109.01909C570.12823 106.533806 572.14294 104.51909 574.62823 104.51909C577.1135 104.51909 579.12823 106.533806 579.12823 109.01909Z" fill-rule="nonzero"/><path fill="#ea4335" clip-path="url(#id_0)" d="M56.871784 214.80539C56.871784 217.29066 54.857067 219.30539 52.371784 219.30539C49.886505 219.30539 47.871784 217.29066 47.871784 214.80539C47.871784 212.32011 49.886505 210.30539 52.371784 210.30539C54.857067 210.30539 56.871784 212.32011 56.871784 214.80539Z" fill-rule="nonzero"/><path fill="#ea4335" clip-path="url(#id_0)" d="M91.68888 250.83128C91.68888 253.31657 89.674164 255.33128 87.18888 255.33128C84.7036 255.33128 82.68888 253.31657 82.68888 250.83128C82.68888 248.34601 84.7036 246.33128 87.18888 246.33128C89.674164 246.33128 91.68888 248.34601 91.68888 250.83128Z" fill-rule="nonzero"/><path fill="#ea4335" clip-path="url(#id_0)" d="M161.32307 256.92755C161.32307 259.4128 159.30835 261.42755 156.82307 261.42755C154.33778 261.42755 152.32307 259.4128 152.32307 256.92755C152.32307 254.44226 154.33778 252.42755 156.82307 252.42755C159.30835 252.42755 161.32307 254.44226 161.32307 256.92755Z" fill-rule="nonzero"/><path fill="#ea4335" clip-path="url(#id_0)" d="M300.59146 257.35187C300.59146 259.83716 298.57672 261.85187 296.09146 261.85187C293.60617 261.85187 291.59146 259.83716 291.59146 257.35187C291.59146 254.8666 293.60617 252.85188 296.09146 252.85188C298.57672 252.85188 300.59146 254.8666 300.59146 257.35187Z" fill-rule="nonzero"/><path fill="#ea4335" clip-path="url(#id_0)" d="M579.12823 270.7325C579.12823 273.2178 577.1135 275.2325 574.62823 275.2325C572.14294 275.2325 570.12823 273.2178 570.12823 270.7325C570.12823 268.24725 572.14294 266.2325 574.62823 266.2325C577.1135 266.2325 579.12823 268.24725 579.12823 270.7325Z" fill-rule="nonzero"/><path fill="#fbbc04" clip-path="url(#id_0)" d="M56.871784 166.2758C56.871784 168.76108 54.857067 170.7758 52.371784 170.7758C49.886505 170.7758 47.871784 168.76108 47.871784 166.2758C47.871784 163.79051 49.886505 161.7758 52.371784 161.7758C54.857067 161.7758 56.871784 163.79051 56.871784 166.2758Z" fill-rule="nonzero"/><path fill="#fbbc04" clip-path="url(#id_0)" d="M91.68888 218.96385C91.68888 221.44914 89.674164 223.46385 87.18888 223.46385C84.7036 223.46385 82.68888 221.44914 82.68888 218.96385C82.68888 216.47858 84.7036 214.46385 87.18888 214.46385C89.674164 214.46385 91.68888 216.47858 91.68888 218.96385Z" fill-rule="nonzero"/><path fill="#fbbc04" clip-path="url(#id_0)" d="M161.32307 223.12233C161.32307 225.6076 159.30835 227.62233 156.82307 227.62233C154.33778 227.62233 152.32307 225.6076 152.32307 223.12233C152.32307 220.63704 154.33778 218.62233 156.82307 218.62233C159.30835 218.62233 161.32307 220.63704 161.32307 223.12233Z" fill-rule="nonzero"/><path fill="#fbbc04" clip-path="url(#id_0)" d="M300.59146 223.70224C300.59146 226.18753 298.57672 228.20224 296.09146 228.20224C293.60617 228.20224 291.59146 226.18753 291.59146 223.70224C291.59146 221.21696 293.60617 219.20224 296.09146 219.20224C298.57672 219.20224 300.59146 221.21696 300.59146 223.70224Z" fill-rule="nonzero"/><path fill="#fbbc04" clip-path="url(#id_0)" d="M579.12823 229.44489C579.12823 231.93018 577.1135 233.94489 574.62823 233.94489C572.14294 233.94489 570.12823 231.93018 570.12823 229.44489C570.12823 226.95961 572.14294 224.94489 574.62823 224.94489C577.1135 224.94489 579.12823 226.95961 579.12823 229.44489Z" fill-rule="nonzero"/><path fill="#34a853" clip-path="url(#id_0)" d="M56.871784 208.8223C56.871784 211.30757 54.857067 213.3223 52.371784 213.3223C49.886505 213.3223 47.871784 211.30757 47.871784 208.8223C47.871784 206.337 49.886505 204.3223 52.371784 204.3223C54.857067 204.3223 56.871784 206.337 56.871784 208.8223Z" fill-rule="nonzero"/><path fill="#34a853" clip-path="url(#id_0)" d="M91.68888 231.34024C91.68888 233.82553 89.674164 235.84024 87.18888 235.84024C84.7036 235.84024 82.68888 233.82553 82.68888 231.34024C82.68888 228.85497 84.7036 226.84024 87.18888 226.84024C89.674164 226.84024 91.68888 228.85497 91.68888 231.34024Z" fill-rule="nonzero"/><path fill="#34a853" clip-path="url(#id_0)" d="M161.32307 242.7548C161.32307 245.2401 159.30835 247.2548 156.82307 247.2548C154.33778 247.2548 152.32307 245.2401 152.32307 242.7548C152.32307 240.26953 154.33778 238.2548 156.82307 238.2548C159.30835 238.2548 161.32307 240.26953 161.32307 242.7548Z" fill-rule="nonzero"/><path fill="#34a853" clip-path="url(#id_0)" d="M300.59146 245.76758C300.59146 248.25285 298.57672 250.26758 296.09146 250.26758C293.60617 250.26758 291.59146 248.25285 291.59146 245.76758C291.59146 243.2823 293.60617 241.26758 296.09146 241.26758C298.57672 241.26758 300.59146 243.2823 300.59146 245.76758Z" fill-rule="nonzero"/><path fill="#34a853" clip-path="url(#id_0)" d="M579.12823 259.28967C579.12823 261.77493 577.1135 263.78967 574.62823 263.78967C572.14294 263.78967 570.12823 261.77493 570.12823 259.28967C570.12823 256.80438 572.14294 254.78967 574.62823 254.78967C577.1135 254.78967 579.12823 256.80438 579.12823 259.28967Z" fill-rule="nonzero"/><path fill="#ff6d01" clip-path="url(#id_0)" d="M56.871784 142.39998C56.871784 144.88525 54.857067 146.89998 52.371784 146.89998C49.886505 146.89998 47.871784 144.88525 47.871784 142.39998C47.871784 139.9147 49.886505 137.89998 52.371784 137.89998C54.857067 137.89998 56.871784 139.9147 56.871784 142.39998Z" fill-rule="nonzero"/><path fill="#ff6d01" clip-path="url(#id_0)" d="M91.68888 178.79364C91.68888 181.27892 89.674164 183.29364 87.18888 183.29364C84.7036 183.29364 82.68888 181.27892 82.68888 178.79364C82.68888 176.30835 84.7036 174.29364 87.18888 174.29364C89.674164 174.29364 91.68888 176.30835 91.68888 178.79364Z" fill-rule="nonzero"/><path fill="#ff6d01" clip-path="url(#id_0)" d="M161.32307 181.99028C161.32307 184.47556 159.30835 186.49028 156.82307 186.49028C154.33778 186.49028 152.32307 184.47556 152.32307 181.99028C152.32307 179.50499 154.33778 177.49028 156.82307 177.49028C159.30835 177.49028 161.32307 179.50499 161.32307 181.99028Z" fill-rule="nonzero"/><path fill="#ff6d01" clip-path="url(#id_0)" d="M300.59146 181.08504C300.59146 183.57031 298.57672 185.58504 296.09146 185.58504C293.60617 185.58504 291.59146 183.57031 291.59146 181.08504C291.59146 178.59975 293.60617 176.58504 296.09146 176.58504C298.57672 176.58504 300.59146 178.59975 300.59146 181.08504Z" fill-rule="nonzero"/><path fill="#ff6d01" clip-path="url(#id_0)" d="M579.12823 194.46568C579.12823 196.95096 577.1135 198.96568 574.62823 198.96568C572.14294 198.96568 570.12823 196.95096 570.12823 194.46568C570.12823 191.9804 572.14294 189.96568 574.62823 189.96568C577.1135 189.96568 579.12823 191.9804 579.12823 194.46568Z" fill-rule="nonzero"/><path fill="#000000" d="M285.89062 349.45L285.89062 340.85626L287.60938 340.85626L289.64062 346.9344Q289.92188 347.79376 290.04688 348.21564Q290.1875 347.7469 290.5 346.84064L292.5625 340.85626L294.09375 340.85626L294.09375 349.45L293.0 349.45L293.0 342.2625L290.5 349.45L289.46875 349.45L286.98438 342.1375L286.98438 349.45L285.89062 349.45ZM298.85938 348.6844Q298.26562 349.1844 297.71875 349.3875Q297.1875 349.59064 296.5625 349.59064Q295.53125 349.59064 294.98438 349.09064Q294.4375 348.59064 294.4375 347.8094Q294.4375 347.35626 294.64062 346.98126Q294.84375 346.59064 295.1875 346.3719Q295.53125 346.1375 295.95312 346.02814Q296.25 345.9344 296.89062 345.85626Q298.15625 345.71564 298.76562 345.4969Q298.76562 345.27814 298.76562 345.23126Q298.76562 344.575 298.46875 344.3094Q298.0625 343.96564 297.26562 343.96564Q296.53125 343.96564 296.17188 344.23126Q295.8125 344.48126 295.64062 345.1375L294.60938 344.9969Q294.75 344.34064 295.07812 343.9344Q295.40625 343.52814 296.01562 343.3094Q296.625 343.09064 297.42188 343.09064Q298.21875 343.09064 298.71875 343.27814Q299.21875 343.46564 299.45312 343.7469Q299.6875 344.02814 299.78125 344.46564Q299.82812 344.73126 299.82812 345.4344L299.82812 346.84064Q299.82812 348.3094 299.89062 348.7Q299.96875 349.09064 300.17188 349.45L299.0625 349.45Q298.90625 349.1219 298.85938 348.6844ZM298.76562 346.325Q298.1875 346.5594 297.04688 346.73126Q296.39062 346.825 296.125 346.95Q295.85938 347.0594 295.70312 347.27814Q295.5625 347.4969 295.5625 347.77814Q295.5625 348.2 295.875 348.48126Q296.20312 348.7625 296.8125 348.7625Q297.42188 348.7625 297.89062 348.4969Q298.375 348.23126 298.59375 347.7625Q298.76562 347.40314 298.76562 346.71564L298.76562 346.325ZM304.09375 348.5125L304.25 349.4344Q303.79688 349.52814 303.45312 349.52814Q302.875 349.52814 302.5625 349.35626Q302.25 349.16876 302.10938 348.8719Q301.98438 348.575 301.98438 347.6219L301.98438 344.04376L301.21875 344.04376L301.21875 343.23126L301.98438 343.23126L301.98438 341.6844L303.03125 341.0594L303.03125 343.23126L304.09375 343.23126L304.09375 344.04376L303.03125 344.04376L303.03125 347.6844Q303.03125 348.1375 303.07812 348.2625Q303.14062 348.3875 303.26562 348.46564Q303.39062 348.54376 303.625 348.54376Q303.8125 348.54376 304.09375 348.5125ZM304.78125 349.45L304.78125 343.23126L305.73438 343.23126L305.73438 344.16876Q306.09375 343.5125 306.39062 343.3094Q306.70312 343.09064 307.07812 343.09064Q307.60938 343.09064 308.15625 343.41876L307.79688 344.40314Q307.40625 344.16876 307.03125 344.16876Q306.67188 344.16876 306.39062 344.3875Q306.125 344.59064 306.01562 344.96564Q305.82812 345.52814 305.82812 346.1844L305.82812 349.45L304.78125 349.45ZM308.79688 342.075L308.79688 340.85626L309.85938 340.85626L309.85938 342.075L308.79688 342.075ZM308.79688 349.45L308.79688 343.23126L309.85938 343.23126L309.85938 349.45L308.79688 349.45ZM311.09375 349.45L313.35938 346.21564L311.26562 343.23126L312.57812 343.23126L313.53125 344.6844Q313.79688 345.10626 313.96875 345.3875Q314.21875 344.9969 314.4375 344.7L315.48438 343.23126L316.75 343.23126L314.59375 346.15314L316.90625 349.45L315.625 349.45L314.34375 347.5125L314.0 346.9969L312.35938 349.45L311.09375 349.45ZM319.54688 346.6844L320.60938 346.59064Q320.6875 347.2469 320.96875 347.65314Q321.25 348.0594 321.82812 348.325Q322.42188 348.575 323.15625 348.575Q323.79688 348.575 324.29688 348.3875Q324.79688 348.1844 325.03125 347.85626Q325.28125 347.5125 325.28125 347.1219Q325.28125 346.71564 325.04688 346.41876Q324.8125 346.10626 324.28125 345.90314Q323.92188 345.7625 322.73438 345.48126Q321.5625 345.2 321.09375 344.95Q320.46875 344.6219 320.17188 344.15314Q319.875 343.66876 319.875 343.075Q319.875 342.4344 320.23438 341.8719Q320.60938 341.29376 321.3125 341.0125Q322.03125 340.71564 322.89062 340.71564Q323.84375 340.71564 324.57812 341.02814Q325.3125 341.325 325.70312 341.9344Q326.09375 342.52814 326.125 343.27814L325.03125 343.35626Q324.9375 342.54376 324.42188 342.1375Q323.92188 341.71564 322.9375 341.71564Q321.90625 341.71564 321.4375 342.09064Q320.96875 342.46564 320.96875 342.9969Q320.96875 343.46564 321.29688 343.7625Q321.625 344.0594 323.0 344.3719Q324.39062 344.6844 324.90625 344.91876Q325.65625 345.27814 326.01562 345.8094Q326.375 346.325 326.375 347.02814Q326.375 347.71564 325.98438 348.325Q325.59375 348.91876 324.85938 349.2625Q324.125 349.59064 323.20312 349.59064Q322.03125 349.59064 321.23438 349.2625Q320.45312 348.91876 320.0 348.23126Q319.5625 347.54376 319.54688 346.6844ZM327.79688 342.075L327.79688 340.85626L328.85938 340.85626L328.85938 342.075L327.79688 342.075ZM327.79688 349.45L327.79688 343.23126L328.85938 343.23126L328.85938 349.45L327.79688 349.45ZM330.23438 349.45L330.23438 348.59064L334.20312 344.04376Q333.51562 344.075 333.0 344.075L330.46875 344.075L330.46875 343.23126L335.5625 343.23126L335.5625 343.91876L332.1875 347.8719L331.53125 348.59064Q332.25 348.54376 332.85938 348.54376L335.75 348.54376L335.75 349.45L330.23438 349.45ZM340.04688 347.45L341.14062 347.575Q340.89062 348.52814 340.1875 349.0594Q339.48438 349.59064 338.40625 349.59064Q337.04688 349.59064 336.23438 348.7469Q335.4375 347.90314 335.4375 346.3875Q335.4375 344.825 336.25 343.96564Q337.0625 343.09064 338.34375 343.09064Q339.59375 343.09064 340.375 343.9344Q341.17188 344.77814 341.17188 346.325Q341.17188 346.41876 341.17188 346.60626L336.53125 346.60626Q336.59375 347.6375 337.10938 348.1844Q337.625 348.71564 338.40625 348.71564Q338.98438 348.71564 339.39062 348.41876Q339.8125 348.10626 340.04688 347.45ZM336.59375 345.7469L340.0625 345.7469Q340.0 344.95 339.67188 344.5594Q339.15625 343.95 338.35938 343.95Q337.625 343.95 337.125 344.4344Q336.64062 344.91876 336.59375 345.7469Z" fill-rule="nonzero"/><path fill="#000000" d="M23.05 300.21564Q23.05 298.6844 23.3625 297.7625Q23.675 296.825 24.284374 296.325Q24.909374 295.825 25.846874 295.825Q26.534374 295.825 27.05 296.10626Q27.58125 296.3875 27.925 296.91876Q28.26875 297.4344 28.45625 298.1844Q28.64375 298.9344 28.64375 300.21564Q28.64375 301.73126 28.33125 302.65314Q28.034374 303.575 27.409374 304.09064Q26.8 304.59064 25.846874 304.59064Q24.6125 304.59064 23.89375 303.7Q23.05 302.6375 23.05 300.21564ZM24.128124 300.21564Q24.128124 302.325 24.628124 303.02814Q25.128124 303.73126 25.846874 303.73126Q26.58125 303.73126 27.065624 303.02814Q27.565624 302.325 27.565624 300.21564Q27.565624 298.09064 27.065624 297.40314Q26.58125 296.7 25.83125 296.7Q25.1125 296.7 24.675 297.3094Q24.128124 298.09064 24.128124 300.21564ZM30.64375 304.45L30.64375 303.2469L31.846874 303.2469L31.846874 304.45L30.64375 304.45ZM33.05 300.21564Q33.05 298.6844 33.3625 297.7625Q33.675 296.825 34.284374 296.325Q34.909374 295.825 35.846874 295.825Q36.534374 295.825 37.05 296.10626Q37.58125 296.3875 37.925 296.91876Q38.26875 297.4344 38.45625 298.1844Q38.64375 298.9344 38.64375 300.21564Q38.64375 301.73126 38.33125 302.65314Q38.034374 303.575 37.409374 304.09064Q36.8 304.59064 35.846874 304.59064Q34.6125 304.59064 33.89375 303.7Q33.05 302.6375 33.05 300.21564ZM34.128124 300.21564Q34.128124 302.325 34.628124 303.02814Q35.128124 303.73126 35.846874 303.73126Q36.58125 303.73126 37.065624 303.02814Q37.565624 302.325 37.565624 300.21564Q37.565624 298.09064 37.065624 297.40314Q36.58125 296.7 35.83125 296.7Q35.1125 296.7 34.675 297.3094Q34.128124 298.09064 34.128124 300.21564Z" fill-rule="nonzero"/><path fill="#000000" d="M23.05 229.49341Q23.05 227.96216 23.3625 227.04028Q23.675 226.10278 24.284374 225.60278Q24.909374 225.10278 25.846874 225.10278Q26.534374 225.10278 27.05 225.38403Q27.58125 225.66528 27.925 226.19653Q28.26875 226.71216 28.45625 227.46216Q28.64375 228.21216 28.64375 229.49341Q28.64375 231.00903 28.33125 231.93091Q28.034374 232.85278 27.409374 233.36841Q26.8 233.86841 25.846874 233.86841Q24.6125 233.86841 23.89375 232.97778Q23.05 231.91528 23.05 229.49341ZM24.128124 229.49341Q24.128124 231.60278 24.628124 232.30591Q25.128124 233.00903 25.846874 233.00903Q26.58125 233.00903 27.065624 232.30591Q27.565624 231.60278 27.565624 229.49341Q27.565624 227.36841 27.065624 226.68091Q26.58125 225.97778 25.83125 225.97778Q25.1125 225.97778 24.675 226.58716Q24.128124 227.36841 24.128124 229.49341ZM30.64375 233.72778L30.64375 232.52466L31.846874 232.52466L31.846874 233.72778L30.64375 233.72778ZM33.05 231.47778L34.159374 231.38403Q34.284374 232.19653 34.721874 232.60278Q35.175 233.00903 35.815624 233.00903Q36.565624 233.00903 37.096874 232.43091Q37.628124 231.85278 37.628124 230.91528Q37.628124 230.00903 37.1125 229.49341Q36.6125 228.96216 35.784374 228.96216Q35.284374 228.96216 34.8625 229.19653Q34.45625 229.43091 34.221874 229.79028L33.2375 229.66528L34.065624 225.25903L38.346874 225.25903L38.346874 226.25903L34.909374 226.25903L34.45625 228.57153Q35.221874 228.02466 36.065624 228.02466Q37.190624 228.02466 37.95625 228.80591Q38.7375 229.58716 38.7375 230.82153Q38.7375 231.97778 38.065624 232.83716Q37.2375 233.86841 35.815624 233.86841Q34.64375 233.86841 33.89375 233.21216Q33.159374 232.55591 33.05 231.47778Z" fill-rule="nonzero"/><path fill="#000000" d="M27.01875 163.00555L25.971874 163.00555L25.971874 156.2868Q25.58125 156.64618 24.95625 157.02118Q24.346874 157.38055 23.8625 157.55243L23.8625 156.5368Q24.7375 156.11493 25.39375 155.5368Q26.065624 154.94305 26.346874 154.38055L27.01875 154.38055L27.01875 163.00555ZM30.64375 163.00555L30.64375 161.80243L31.846874 161.80243L31.846874 163.00555L30.64375 163.00555ZM33.05 158.77118Q33.05 157.23993 33.3625 156.31805Q33.675 155.38055 34.284374 154.88055Q34.909374 154.38055 35.846874 154.38055Q36.534374 154.38055 37.05 154.6618Q37.58125 154.94305 37.925 155.4743Q38.26875 155.98993 38.45625 156.73993Q38.64375 157.48993 38.64375 158.77118Q38.64375 160.2868 38.33125 161.20868Q38.034374 162.13055 37.409374 162.64618Q36.8 163.14618 35.846874 163.14618Q34.6125 163.14618 33.89375 162.25555Q33.05 161.19305 33.05 158.77118ZM34.128124 158.77118Q34.128124 160.88055 34.628124 161.58368Q35.128124 162.2868 35.846874 162.2868Q36.58125 162.2868 37.065624 161.58368Q37.565624 160.88055 37.565624 158.77118Q37.565624 156.64618 37.065624 155.95868Q36.58125 155.25555 35.83125 155.25555Q35.1125 155.25555 34.675 155.86493Q34.128124 156.64618 34.128124 158.77118Z" fill-rule="nonzero"/><path fill="#000000" d="M27.01875 92.28333L25.971874 92.28333L25.971874 85.56458Q25.58125 85.92396 24.95625 86.29896Q24.346874 86.65833 23.8625 86.83021L23.8625 85.81458Q24.7375 85.39271 25.39375 84.81458Q26.065624 84.22083 26.346874 83.65833L27.01875 83.65833L27.01875 92.28333ZM30.64375 92.28333L30.64375 91.08021L31.846874 91.08021L31.846874 92.28333L30.64375 92.28333ZM33.05 90.03333L34.159374 89.93958Q34.284374 90.75208 34.721874 91.15833Q35.175 91.56458 35.815624 91.56458Q36.565624 91.56458 37.096874 90.98646Q37.628124 90.40833 37.628124 89.47083Q37.628124 88.56458 37.1125 88.04896Q36.6125 87.51771 35.784374 87.51771Q35.284374 87.51771 34.8625 87.75208Q34.45625 87.98646 34.221874 88.34583L33.2375 88.22083L34.065624 83.81458L38.346874 83.81458L38.346874 84.81458L34.909374 84.81458L34.45625 87.12708Q35.221874 86.58021 36.065624 86.58021Q37.190624 86.58021 37.95625 87.36146Q38.7375 88.14271 38.7375 89.37708Q38.7375 90.53333 38.065624 91.39271Q37.2375 92.42396 35.815624 92.42396Q34.64375 92.42396 33.89375 91.76771Q33.159374 91.11146 33.05 90.03333Z" fill-rule="nonzero"/><path fill="#000000" d="M144.02773 317.45L142.98085 317.45L142.98085 310.73126Q142.59023 311.09064 141.96523 311.46564Q141.35585 311.825 140.87148 311.9969L140.87148 310.98126Q141.74648 310.5594 142.40273 309.98126Q143.0746 309.3875 143.35585 308.825L144.02773 308.825L144.02773 317.45ZM147.05898 313.21564Q147.05898 311.6844 147.37148 310.7625Q147.68398 309.825 148.29335 309.325Q148.91835 308.825 149.85585 308.825Q150.54335 308.825 151.05898 309.10626Q151.59023 309.3875 151.93398 309.91876Q152.27773 310.4344 152.46523 311.1844Q152.65273 311.9344 152.65273 313.21564Q152.65273 314.73126 152.34023 315.65314Q152.04335 316.575 151.41835 317.09064Q150.80898 317.59064 149.85585 317.59064Q148.62148 317.59064 147.90273 316.7Q147.05898 315.6375 147.05898 313.21564ZM148.1371 313.21564Q148.1371 315.325 148.6371 316.02814Q149.1371 316.73126 149.85585 316.73126Q150.59023 316.73126 151.0746 316.02814Q151.5746 315.325 151.5746 313.21564Q151.5746 311.09064 151.0746 310.40314Q150.59023 309.7 149.84023 309.7Q149.12148 309.7 148.68398 310.3094Q148.1371 311.09064 148.1371 313.21564ZM154.05898 313.21564Q154.05898 311.6844 154.37148 310.7625Q154.68398 309.825 155.29335 309.325Q155.91835 308.825 156.85585 308.825Q157.54335 308.825 158.05898 309.10626Q158.59023 309.3875 158.93398 309.91876Q159.27773 310.4344 159.46523 311.1844Q159.65273 311.9344 159.65273 313.21564Q159.65273 314.73126 159.34023 315.65314Q159.04335 316.575 158.41835 317.09064Q157.80898 317.59064 156.85585 317.59064Q155.62148 317.59064 154.90273 316.7Q154.05898 315.6375 154.05898 313.21564ZM155.1371 313.21564Q155.1371 315.325 155.6371 316.02814Q156.1371 316.73126 156.85585 316.73126Q157.59023 316.73126 158.0746 316.02814Q158.5746 315.325 158.5746 313.21564Q158.5746 311.09064 158.0746 310.40314Q157.59023 309.7 156.84023 309.7Q156.12148 309.7 155.68398 310.3094Q155.1371 311.09064 155.1371 313.21564ZM161.05898 313.21564Q161.05898 311.6844 161.37148 310.7625Q161.68398 309.825 162.29335 309.325Q162.91835 308.825 163.85585 308.825Q164.54335 308.825 165.05898 309.10626Q165.59023 309.3875 165.93398 309.91876Q166.27773 310.4344 166.46523 311.1844Q166.65273 311.9344 166.65273 313.21564Q166.65273 314.73126 166.34023 315.65314Q166.04335 316.575 165.41835 317.09064Q164.80898 317.59064 163.85585 317.59064Q162.62148 317.59064 161.90273 316.7Q161.05898 315.6375 161.05898 313.21564ZM162.1371 313.21564Q162.1371 315.325 162.6371 316.02814Q163.1371 316.73126 163.85585 316.73126Q164.59023 316.73126 165.0746 316.02814Q165.5746 315.325 165.5746 313.21564Q165.5746 311.09064 165.0746 310.40314Q164.59023 309.7 163.84023 309.7Q163.12148 309.7 162.68398 310.3094Q162.1371 311.09064 162.1371 313.21564Z" fill-rule="nonzero"/><path fill="#000000" d="M281.6101 316.4344L281.6101 317.45L275.9226 317.45Q275.9226 317.075 276.0476 316.71564Q276.26636 316.1375 276.7351 315.575Q277.21948 315.0125 278.12573 314.27814Q279.53198 313.1219 280.01636 312.45Q280.51636 311.77814 280.51636 311.1844Q280.51636 310.5594 280.06323 310.1375Q279.6101 309.7 278.89136 309.7Q278.12573 309.7 277.6726 310.15314Q277.21948 310.60626 277.20386 311.41876L276.12573 311.3094Q276.2351 310.09064 276.95386 309.46564Q277.68823 308.825 278.9226 308.825Q280.15698 308.825 280.87573 309.5125Q281.59448 310.2 281.59448 311.21564Q281.59448 311.73126 281.37573 312.23126Q281.1726 312.71564 280.6726 313.27814Q280.18823 313.825 279.06323 314.77814Q278.1101 315.575 277.82886 315.8719Q277.56323 316.15314 277.39136 316.4344L281.6101 316.4344ZM283.06323 313.21564Q283.06323 311.6844 283.37573 310.7625Q283.68823 309.825 284.2976 309.325Q284.9226 308.825 285.8601 308.825Q286.5476 308.825 287.06323 309.10626Q287.59448 309.3875 287.93823 309.91876Q288.28198 310.4344 288.46948 311.1844Q288.65698 311.9344 288.65698 313.21564Q288.65698 314.73126 288.34448 315.65314Q288.0476 316.575 287.4226 317.09064Q286.81323 317.59064 285.8601 317.59064Q284.62573 317.59064 283.90698 316.7Q283.06323 315.6375 283.06323 313.21564ZM284.14136 313.21564Q284.14136 315.325 284.64136 316.02814Q285.14136 316.73126 285.8601 316.73126Q286.59448 316.73126 287.07886 316.02814Q287.57886 315.325 287.57886 313.21564Q287.57886 311.09064 287.07886 310.40314Q286.59448 309.7 285.84448 309.7Q285.12573 309.7 284.68823 310.3094Q284.14136 311.09064 284.14136 313.21564ZM290.06323 313.21564Q290.06323 311.6844 290.37573 310.7625Q290.68823 309.825 291.2976 309.325Q291.9226 308.825 292.8601 308.825Q293.5476 308.825 294.06323 309.10626Q294.59448 309.3875 294.93823 309.91876Q295.28198 310.4344 295.46948 311.1844Q295.65698 311.9344 295.65698 313.21564Q295.65698 314.73126 295.34448 315.65314Q295.0476 316.575 294.4226 317.09064Q293.81323 317.59064 292.8601 317.59064Q291.62573 317.59064 290.90698 316.7Q290.06323 315.6375 290.06323 313.21564ZM291.14136 313.21564Q291.14136 315.325 291.64136 316.02814Q292.14136 316.73126 292.8601 316.73126Q293.59448 316.73126 294.07886 316.02814Q294.57886 315.325 294.57886 313.21564Q294.57886 311.09064 294.07886 310.40314Q293.59448 309.7 292.84448 309.7Q292.12573 309.7 291.68823 310.3094Q291.14136 311.09064 291.14136 313.21564ZM297.06323 313.21564Q297.06323 311.6844 297.37573 310.7625Q297.68823 309.825 298.2976 309.325Q298.9226 308.825 299.8601 308.825Q300.5476 308.825 301.06323 309.10626Q301.59448 309.3875 301.93823 309.91876Q302.28198 310.4344 302.46948 311.1844Q302.65698 311.9344 302.65698 313.21564Q302.65698 314.73126 302.34448 315.65314Q302.0476 316.575 301.4226 317.09064Q300.81323 317.59064 299.8601 317.59064Q298.62573 317.59064 297.90698 316.7Q297.06323 315.6375 297.06323 313.21564ZM298.14136 313.21564Q298.14136 315.325 298.64136 316.02814Q299.14136 316.73126 299.8601 316.73126Q300.59448 316.73126 301.07886 316.02814Q301.57886 315.325 301.57886 313.21564Q301.57886 311.09064 301.07886 310.40314Q300.59448 309.7 299.84448 309.7Q299.12573 309.7 298.68823 310.3094Q298.14136 311.09064 298.14136 313.21564Z" fill-rule="nonzero"/><path fill="#000000" d="M412.06754 315.1844L413.13004 315.04376Q413.3019 315.9344 413.7394 316.34064Q414.1769 316.73126 414.8019 316.73126Q415.5519 316.73126 416.06754 316.21564Q416.58316 315.7 416.58316 314.9344Q416.58316 314.21564 416.0988 313.7469Q415.63004 313.2625 414.89566 313.2625Q414.5988 313.2625 414.14566 313.3875L414.27066 312.45Q414.38004 312.46564 414.44254 312.46564Q415.1144 312.46564 415.64566 312.1219Q416.19254 311.7625 416.19254 311.02814Q416.19254 310.45 415.8019 310.075Q415.4113 309.6844 414.7863 309.6844Q414.1769 309.6844 413.75504 310.075Q413.3488 310.46564 413.2394 311.23126L412.1769 311.04376Q412.3644 309.9969 413.0519 309.41876Q413.7394 308.825 414.75504 308.825Q415.45816 308.825 416.0519 309.1375Q416.64566 309.4344 416.95816 309.95Q417.27066 310.46564 417.27066 311.0594Q417.27066 311.60626 416.9738 312.075Q416.6769 312.52814 416.0988 312.79376Q416.8488 312.96564 417.27066 313.52814Q417.69254 314.075 417.69254 314.91876Q417.69254 316.04376 416.8644 316.825Q416.0519 317.60626 414.8019 317.60626Q413.6769 317.60626 412.9269 316.9344Q412.1769 316.2469 412.06754 315.1844ZM419.06754 313.21564Q419.06754 311.6844 419.38004 310.7625Q419.69254 309.825 420.3019 309.325Q420.9269 308.825 421.8644 308.825Q422.5519 308.825 423.06754 309.10626Q423.5988 309.3875 423.94254 309.91876Q424.2863 310.4344 424.4738 311.1844Q424.6613 311.9344 424.6613 313.21564Q424.6613 314.73126 424.3488 315.65314Q424.0519 316.575 423.4269 317.09064Q422.81754 317.59064 421.8644 317.59064Q420.63004 317.59064 419.9113 316.7Q419.06754 315.6375 419.06754 313.21564ZM420.14566 313.21564Q420.14566 315.325 420.64566 316.02814Q421.14566 316.73126 421.8644 316.73126Q422.5988 316.73126 423.08316 316.02814Q423.58316 315.325 423.58316 313.21564Q423.58316 311.09064 423.08316 310.40314Q422.5988 309.7 421.8488 309.7Q421.13004 309.7 420.69254 310.3094Q420.14566 311.09064 420.14566 313.21564ZM426.06754 313.21564Q426.06754 311.6844 426.38004 310.7625Q426.69254 309.825 427.3019 309.325Q427.9269 308.825 428.8644 308.825Q429.5519 308.825 430.06754 309.10626Q430.5988 309.3875 430.94254 309.91876Q431.2863 310.4344 431.4738 311.1844Q431.6613 311.9344 431.6613 313.21564Q431.6613 314.73126 431.3488 315.65314Q431.0519 316.575 430.4269 317.09064Q429.81754 317.59064 428.8644 317.59064Q427.63004 317.59064 426.9113 316.7Q426.06754 315.6375 426.06754 313.21564ZM427.14566 313.21564Q427.14566 315.325 427.64566 316.02814Q428.14566 316.73126 428.8644 316.73126Q429.5988 316.73126 430.08316 316.02814Q430.58316 315.325 430.58316 313.21564Q430.58316 311.09064 430.08316 310.40314Q429.5988 309.7 428.8488 309.7Q428.13004 309.7 427.69254 310.3094Q427.14566 311.09064 427.14566 313.21564ZM433.06754 313.21564Q433.06754 311.6844 433.38004 310.7625Q433.69254 309.825 434.3019 309.325Q434.9269 308.825 435.8644 308.825Q436.5519 308.825 437.06754 309.10626Q437.5988 309.3875 437.94254 309.91876Q438.2863 310.4344 438.4738 311.1844Q438.6613 311.9344 438.6613 313.21564Q438.6613 314.73126 438.3488 315.65314Q438.0519 316.575 437.4269 317.09064Q436.81754 317.59064 435.8644 317.59064Q434.63004 317.59064 433.9113 316.7Q433.06754 315.6375 433.06754 313.21564ZM434.14566 313.21564Q434.14566 315.325 434.64566 316.02814Q435.14566 316.73126 435.8644 316.73126Q436.5988 316.73126 437.08316 316.02814Q437.58316 315.325 437.58316 313.21564Q437.58316 311.09064 437.08316 310.40314Q436.5988 309.7 435.8488 309.7Q435.13004 309.7 434.69254 310.3094Q434.14566 311.09064 434.14566 313.21564Z" fill-rule="nonzero"/><path fill="#000000" d="M551.4468 317.45L551.4468 315.3875L547.728 315.3875L547.728 314.41876L551.6499 308.85626L552.5093 308.85626L552.5093 314.41876L553.6655 314.41876L553.6655 315.3875L552.5093 315.3875L552.5093 317.45L551.4468 317.45ZM551.4468 314.41876L551.4468 310.5594L548.7593 314.41876L551.4468 314.41876ZM555.0718 313.21564Q555.0718 311.6844 555.3843 310.7625Q555.6968 309.825 556.30615 309.325Q556.93115 308.825 557.86865 308.825Q558.55615 308.825 559.0718 309.10626Q559.603 309.3875 559.9468 309.91876Q560.2905 310.4344 560.478 311.1844Q560.6655 311.9344 560.6655 313.21564Q560.6655 314.73126 560.353 315.65314Q560.05615 316.575 559.43115 317.09064Q558.8218 317.59064 557.86865 317.59064Q556.6343 317.59064 555.9155 316.7Q555.0718 315.6375 555.0718 313.21564ZM556.1499 313.21564Q556.1499 315.325 556.6499 316.02814Q557.1499 316.73126 557.86865 316.73126Q558.603 316.73126 559.0874 316.02814Q559.5874 315.325 559.5874 313.21564Q559.5874 311.09064 559.0874 310.40314Q558.603 309.7 557.853 309.7Q557.1343 309.7 556.6968 310.3094Q556.1499 311.09064 556.1499 313.21564ZM562.0718 313.21564Q562.0718 311.6844 562.3843 310.7625Q562.6968 309.825 563.30615 309.325Q563.93115 308.825 564.86865 308.825Q565.55615 308.825 566.0718 309.10626Q566.603 309.3875 566.9468 309.91876Q567.2905 310.4344 567.478 311.1844Q567.6655 311.9344 567.6655 313.21564Q567.6655 314.73126 567.353 315.65314Q567.05615 316.575 566.43115 317.09064Q565.8218 317.59064 564.86865 317.59064Q563.6343 317.59064 562.9155 316.7Q562.0718 315.6375 562.0718 313.21564ZM563.1499 313.21564Q563.1499 315.325 563.6499 316.02814Q564.1499 316.73126 564.86865 316.73126Q565.603 316.73126 566.0874 316.02814Q566.5874 315.325 566.5874 313.21564Q566.5874 311.09064 566.0874 310.40314Q565.603 309.7 564.853 309.7Q564.1343 309.7 563.6968 310.3094Q563.1499 311.09064 563.1499 313.21564ZM569.0718 313.21564Q569.0718 311.6844 569.3843 310.7625Q569.6968 309.825 570.30615 309.325Q570.93115 308.825 571.86865 308.825Q572.55615 308.825 573.0718 309.10626Q573.603 309.3875 573.9468 309.91876Q574.2905 310.4344 574.478 311.1844Q574.6655 311.9344 574.6655 313.21564Q574.6655 314.73126 574.353 315.65314Q574.05615 316.575 573.43115 317.09064Q572.8218 317.59064 571.86865 317.59064Q570.6343 317.59064 569.9155 316.7Q569.0718 315.6375 569.0718 313.21564ZM570.1499 313.21564Q570.1499 315.325 570.6499 316.02814Q571.1499 316.73126 571.86865 316.73126Q572.603 316.73126 573.0874 316.02814Q573.5874 315.325 573.5874 313.21564Q573.5874 311.09064 573.0874 310.40314Q572.603 309.7 571.853 309.7Q571.1343 309.7 570.6968 310.3094Q570.1499 311.09064 570.1499 313.21564Z" fill-rule="nonzero"/><path fill="#4285f4" d="M140.5 61.916668C140.5 65.23038 137.8137 67.916664 134.5 67.916664C131.1863 67.916664 128.5 65.23038 128.5 61.916668C128.5 58.60296 131.1863 55.916668 134.5 55.916668C137.8137 55.916668 140.5 58.60296 140.5 61.916668Z" fill-rule="nonzero"/><path fill="#1a1a1a" d="M152.96875 65.916664L151.92188 65.916664L151.92188 59.197914Q151.53125 59.55729 150.90625 59.93229Q150.29688 60.291664 149.8125 60.46354L149.8125 59.447914Q150.6875 59.02604 151.34375 58.447914Q152.01562 57.854164 152.29688 57.291664L152.96875 57.291664L152.96875 65.916664ZM161.46875 59.43229L160.42188 59.510414Q160.28125 58.885414 160.03125 58.604164Q159.59375 58.15104 158.96875 58.15104Q158.46875 58.15104 158.07812 58.43229Q157.59375 58.80729 157.29688 59.510414Q157.01562 60.197914 157.0 61.479164Q157.375 60.90104 157.92188 60.61979Q158.48438 60.33854 159.09375 60.33854Q160.14062 60.33854 160.875 61.11979Q161.625 61.90104 161.625 63.11979Q161.625 63.93229 161.26562 64.635414Q160.92188 65.322914 160.3125 65.697914Q159.70312 66.05729 158.9375 66.05729Q157.60938 66.05729 156.78125 65.08854Q155.95312 64.11979 155.95312 61.90104Q155.95312 59.40104 156.875 58.27604Q157.67188 57.291664 159.03125 57.291664Q160.04688 57.291664 160.6875 57.86979Q161.34375 58.43229 161.46875 59.43229ZM157.17188 63.135414Q157.17188 63.68229 157.39062 64.18229Q157.625 64.666664 158.03125 64.93229Q158.45312 65.197914 158.92188 65.197914Q159.57812 65.197914 160.0625 64.666664Q160.54688 64.11979 160.54688 63.197914Q160.54688 62.30729 160.0625 61.791664Q159.59375 61.27604 158.875 61.27604Q158.15625 61.27604 157.65625 61.791664Q157.17188 62.30729 157.17188 63.135414ZM168.59375 64.979164L168.75 65.90104Q168.29688 65.99479 167.95312 65.99479Q167.375 65.99479 167.0625 65.822914Q166.75 65.635414 166.60938 65.33854Q166.48438 65.041664 166.48438 64.08854L166.48438 60.510414L165.71875 60.510414L165.71875 59.697914L166.48438 59.697914L166.48438 58.15104L167.53125 57.52604L167.53125 59.697914L168.59375 59.697914L168.59375 60.510414L167.53125 60.510414L167.53125 64.15104Q167.53125 64.604164 167.57812 64.729164Q167.64062 64.854164 167.76562 64.93229Q167.89062 65.010414 168.125 65.010414Q168.3125 65.010414 168.59375 64.979164ZM169.29688 58.541664L169.29688 57.322914L170.35938 57.322914L170.35938 58.541664L169.29688 58.541664ZM169.29688 65.916664L169.29688 59.697914L170.35938 59.697914L170.35938 65.916664L169.29688 65.916664ZM172.26562 65.916664L172.26562 57.322914L173.32812 57.322914L173.32812 65.916664L172.26562 65.916664ZM179.54688 63.916664L180.64062 64.041664Q180.39062 64.99479 179.6875 65.52604Q178.98438 66.05729 177.90625 66.05729Q176.54688 66.05729 175.73438 65.21354Q174.9375 64.36979 174.9375 62.854164Q174.9375 61.291664 175.75 60.43229Q176.5625 59.55729 177.84375 59.55729Q179.09375 59.55729 179.875 60.40104Q180.67188 61.24479 180.67188 62.791664Q180.67188 62.885414 180.67188 63.072914L176.03125 63.072914Q176.09375 64.104164 176.60938 64.65104Q177.125 65.18229 177.90625 65.18229Q178.48438 65.18229 178.89062 64.885414Q179.3125 64.572914 179.54688 63.916664ZM176.09375 62.21354L179.5625 62.21354Q179.5 61.416664 179.17188 61.02604Q178.65625 60.416664 177.85938 60.416664Q177.125 60.416664 176.625 60.90104Q176.14062 61.385414 176.09375 62.21354Z" fill-rule="nonzero"/><path fill="#ea4335" d="M209.5 61.916668C209.5 65.23038 206.8137 67.916664 203.5 67.916664C200.1863 67.916664 197.5 65.23038 197.5 61.916668C197.5 58.60296 200.1863 55.916668 203.5 55.916668C206.8137 55.916668 209.5 58.60296 209.5 61.916668Z" fill-rule="nonzero"/><path fill="#1a1a1a" d="M218.0 63.65104L219.0625 63.510414Q219.23438 64.40104 219.67188 64.80729Q220.10938 65.197914 220.73438 65.197914Q221.48438 65.197914 222.0 64.68229Q222.51562 64.166664 222.51562 63.40104Q222.51562 62.68229 222.03125 62.21354Q221.5625 61.729164 220.82812 61.729164Q220.53125 61.729164 220.07812 61.854164L220.20312 60.916664Q220.3125 60.93229 220.375 60.93229Q221.04688 60.93229 221.57812 60.58854Q222.125 60.229164 222.125 59.49479Q222.125 58.916664 221.73438 58.541664Q221.34375 58.15104 220.71875 58.15104Q220.10938 58.15104 219.6875 58.541664Q219.28125 58.93229 219.17188 59.697914L218.10938 59.510414Q218.29688 58.46354 218.98438 57.885414Q219.67188 57.291664 220.6875 57.291664Q221.39062 57.291664 221.98438 57.604164Q222.57812 57.90104 222.89062 58.416664Q223.20312 58.93229 223.20312 59.52604Q223.20312 60.072914 222.90625 60.541664Q222.60938 60.99479 222.03125 61.260414Q222.78125 61.43229 223.20312 61.99479Q223.625 62.541664 223.625 63.385414Q223.625 64.510414 222.79688 65.291664Q221.98438 66.072914 220.73438 66.072914Q219.60938 66.072914 218.85938 65.40104Q218.10938 64.71354 218.0 63.65104ZM230.54688 64.90104L230.54688 65.916664L224.85938 65.916664Q224.85938 65.541664 224.98438 65.18229Q225.20312 64.604164 225.67188 64.041664Q226.15625 63.479164 227.0625 62.74479Q228.46875 61.58854 228.95312 60.916664Q229.45312 60.24479 229.45312 59.65104Q229.45312 59.02604 229.0 58.604164Q228.54688 58.166664 227.82812 58.166664Q227.0625 58.166664 226.60938 58.61979Q226.15625 59.072914 226.14062 59.885414L225.0625 59.77604Q225.17188 58.55729 225.89062 57.93229Q226.625 57.291664 227.85938 57.291664Q229.09375 57.291664 229.8125 57.979164Q230.53125 58.666664 230.53125 59.68229Q230.53125 60.197914 230.3125 60.697914Q230.10938 61.18229 229.60938 61.74479Q229.125 62.291664 228.0 63.24479Q227.04688 64.041664 226.76562 64.33854Q226.5 64.61979 226.32812 64.90104L230.54688 64.90104ZM237.59375 64.979164L237.75 65.90104Q237.29688 65.99479 236.95312 65.99479Q236.375 65.99479 236.0625 65.822914Q235.75 65.635414 235.60938 65.33854Q235.48438 65.041664 235.48438 64.08854L235.48438 60.510414L234.71875 60.510414L234.71875 59.697914L235.48438 59.697914L235.48438 58.15104L236.53125 57.52604L236.53125 59.697914L237.59375 59.697914L237.59375 60.510414L236.53125 60.510414L236.53125 64.15104Q236.53125 64.604164 236.57812 64.729164Q236.64062 64.854164 236.76562 64.93229Q236.89062 65.010414 237.125 65.010414Q237.3125 65.010414 237.59375 64.979164ZM238.29688 58.541664L238.29688 57.322914L239.35938 57.322914L239.35938 58.541664L238.29688 58.541664ZM238.29688 65.916664L238.29688 59.697914L239.35938 59.697914L239.35938 65.916664L238.29688 65.916664ZM241.26562 65.916664L241.26562 57.322914L242.32812 57.322914L242.32812 65.916664L241.26562 65.916664ZM248.54688 63.916664L249.64062 64.041664Q249.39062 64.99479 248.6875 65.52604Q247.98438 66.05729 246.90625 66.05729Q245.54688 66.05729 244.73438 65.21354Q243.9375 64.36979 243.9375 62.854164Q243.9375 61.291664 244.75 60.43229Q245.5625 59.55729 246.84375 59.55729Q248.09375 59.55729 248.875 60.40104Q249.67188 61.24479 249.67188 62.791664Q249.67188 62.885414 249.67188 63.072914L245.03125 63.072914Q245.09375 64.104164 245.60938 64.65104Q246.125 65.18229 246.90625 65.18229Q247.48438 65.18229 247.89062 64.885414Q248.3125 64.572914 248.54688 63.916664ZM245.09375 62.21354L248.5625 62.21354Q248.5 61.416664 248.17188 61.02604Q247.65625 60.416664 246.85938 60.416664Q246.125 60.416664 245.625 60.90104Q245.14062 61.385414 245.09375 62.21354Z" fill-rule="nonzero"/><path fill="#fbbc04" d="M278.5 61.916668C278.5 65.23038 275.81372 67.916664 272.5 67.916664C269.18628 67.916664 266.5 65.23038 266.5 61.916668C266.5 58.60296 269.18628 55.916668 272.5 55.916668C275.81372 55.916668 278.5 58.60296 278.5 61.916668Z" fill-rule="nonzero"/><path fill="#1a1a1a" d="M292.46875 59.43229L291.42188 59.510414Q291.28125 58.885414 291.03125 58.604164Q290.59375 58.15104 289.96875 58.15104Q289.46875 58.15104 289.07812 58.43229Q288.59375 58.80729 288.29688 59.510414Q288.01562 60.197914 288.0 61.479164Q288.375 60.90104 288.92188 60.61979Q289.48438 60.33854 290.09375 60.33854Q291.14062 60.33854 291.875 61.11979Q292.625 61.90104 292.625 63.11979Q292.625 63.93229 292.26562 64.635414Q291.92188 65.322914 291.3125 65.697914Q290.70312 66.05729 289.9375 66.05729Q288.60938 66.05729 287.78125 65.08854Q286.95312 64.11979 286.95312 61.90104Q286.95312 59.40104 287.875 58.27604Q288.67188 57.291664 290.03125 57.291664Q291.04688 57.291664 291.6875 57.86979Q292.34375 58.43229 292.46875 59.43229ZM288.17188 63.135414Q288.17188 63.68229 288.39062 64.18229Q288.625 64.666664 289.03125 64.93229Q289.45312 65.197914 289.92188 65.197914Q290.57812 65.197914 291.0625 64.666664Q291.54688 64.11979 291.54688 63.197914Q291.54688 62.30729 291.0625 61.791664Q290.59375 61.27604 289.875 61.27604Q289.15625 61.27604 288.65625 61.791664Q288.17188 62.30729 288.17188 63.135414ZM297.375 65.916664L297.375 63.854164L293.65625 63.854164L293.65625 62.885414L297.57812 57.322914L298.4375 57.322914L298.4375 62.885414L299.59375 62.885414L299.59375 63.854164L298.4375 63.854164L298.4375 65.916664L297.375 65.916664ZM297.375 62.885414L297.375 59.02604L294.6875 62.885414L297.375 62.885414ZM306.59375 64.979164L306.75 65.90104Q306.29688 65.99479 305.95312 65.99479Q305.375 65.99479 305.0625 65.822914Q304.75 65.635414 304.60938 65.33854Q304.48438 65.041664 304.48438 64.08854L304.48438 60.510414L303.71875 60.510414L303.71875 59.697914L304.48438 59.697914L304.48438 58.15104L305.53125 57.52604L305.53125 59.697914L306.59375 59.697914L306.59375 60.510414L305.53125 60.510414L305.53125 64.15104Q305.53125 64.604164 305.57812 64.729164Q305.64062 64.854164 305.76562 64.93229Q305.89062 65.010414 306.125 65.010414Q306.3125 65.010414 306.59375 64.979164ZM307.29688 58.541664L307.29688 57.322914L308.35938 57.322914L308.35938 58.541664L307.29688 58.541664ZM307.29688 65.916664L307.29688 59.697914L308.35938 59.697914L308.35938 65.916664L307.29688 65.916664ZM310.26562 65.916664L310.26562 57.322914L311.32812 57.322914L311.32812 65.916664L310.26562 65.916664ZM317.54688 63.916664L318.64062 64.041664Q318.39062 64.99479 317.6875 65.52604Q316.98438 66.05729 315.90625 66.05729Q314.54688 66.05729 313.73438 65.21354Q312.9375 64.36979 312.9375 62.854164Q312.9375 61.291664 313.75 60.43229Q314.5625 59.55729 315.84375 59.55729Q317.09375 59.55729 317.875 60.40104Q318.67188 61.24479 318.67188 62.791664Q318.67188 62.885414 318.67188 63.072914L314.03125 63.072914Q314.09375 64.104164 314.60938 64.65104Q315.125 65.18229 315.90625 65.18229Q316.48438 65.18229 316.89062 64.885414Q317.3125 64.572914 317.54688 63.916664ZM314.09375 62.21354L317.5625 62.21354Q317.5 61.416664 317.17188 61.02604Q316.65625 60.416664 315.85938 60.416664Q315.125 60.416664 314.625 60.90104Q314.14062 61.385414 314.09375 62.21354Z" fill-rule="nonzero"/><path fill="#34a853" d="M347.5 61.916668C347.5 65.23038 344.81372 67.916664 341.5 67.916664C338.18628 67.916664 335.5 65.23038 335.5 61.916668C335.5 58.60296 338.18628 55.916668 341.5 55.916668C344.81372 55.916668 347.5 58.60296 347.5 61.916668Z" fill-rule="nonzero"/><path fill="#1a1a1a" d="M359.96875 65.916664L358.92188 65.916664L358.92188 59.197914Q358.53125 59.55729 357.90625 59.93229Q357.29688 60.291664 356.8125 60.46354L356.8125 59.447914Q357.6875 59.02604 358.34375 58.447914Q359.01562 57.854164 359.29688 57.291664L359.96875 57.291664L359.96875 65.916664ZM368.54688 64.90104L368.54688 65.916664L362.85938 65.916664Q362.85938 65.541664 362.98438 65.18229Q363.20312 64.604164 363.67188 64.041664Q364.15625 63.479164 365.0625 62.74479Q366.46875 61.58854 366.95312 60.916664Q367.45312 60.24479 367.45312 59.65104Q367.45312 59.02604 367.0 58.604164Q366.54688 58.166664 365.82812 58.166664Q365.0625 58.166664 364.60938 58.61979Q364.15625 59.072914 364.14062 59.885414L363.0625 59.77604Q363.17188 58.55729 363.89062 57.93229Q364.625 57.291664 365.85938 57.291664Q367.09375 57.291664 367.8125 57.979164Q368.53125 58.666664 368.53125 59.68229Q368.53125 60.197914 368.3125 60.697914Q368.10938 61.18229 367.60938 61.74479Q367.125 62.291664 366.0 63.24479Q365.04688 64.041664 364.76562 64.33854Q364.5 64.61979 364.32812 64.90104L368.54688 64.90104ZM371.625 61.260414Q370.96875 61.010414 370.64062 60.572914Q370.32812 60.11979 370.32812 59.510414Q370.32812 58.572914 371.0 57.93229Q371.6875 57.291664 372.79688 57.291664Q373.92188 57.291664 374.60938 57.947914Q375.29688 58.604164 375.29688 59.541664Q375.29688 60.135414 374.98438 60.572914Q374.67188 61.010414 374.03125 61.260414Q374.82812 61.510414 375.23438 62.08854Q375.64062 62.666664 375.64062 63.46354Q375.64062 64.55729 374.85938 65.30729Q374.09375 66.05729 372.8125 66.05729Q371.54688 66.05729 370.76562 65.30729Q369.98438 64.55729 369.98438 63.43229Q369.98438 62.58854 370.40625 62.02604Q370.84375 61.46354 371.625 61.260414ZM371.40625 59.46354Q371.40625 60.072914 371.79688 60.46354Q372.20312 60.854164 372.82812 60.854164Q373.4375 60.854164 373.82812 60.479164Q374.21875 60.08854 374.21875 59.52604Q374.21875 58.947914 373.8125 58.55729Q373.40625 58.15104 372.8125 58.15104Q372.20312 58.15104 371.79688 58.541664Q371.40625 58.93229 371.40625 59.46354ZM371.07812 63.43229Q371.07812 63.885414 371.28125 64.30729Q371.5 64.729164 371.92188 64.96354Q372.34375 65.197914 372.82812 65.197914Q373.57812 65.197914 374.0625 64.71354Q374.5625 64.229164 374.5625 63.479164Q374.5625 62.71354 374.0625 62.21354Q373.5625 61.71354 372.79688 61.71354Q372.04688 61.71354 371.5625 62.21354Q371.07812 62.697914 371.07812 63.43229ZM382.59375 64.979164L382.75 65.90104Q382.29688 65.99479 381.95312 65.99479Q381.375 65.99479 381.0625 65.822914Q380.75 65.635414 380.60938 65.33854Q380.48438 65.041664 380.48438 64.08854L380.48438 60.510414L379.71875 60.510414L379.71875 59.697914L380.48438 59.697914L380.48438 58.15104L381.53125 57.52604L381.53125 59.697914L382.59375 59.697914L382.59375 60.510414L381.53125 60.510414L381.53125 64.15104Q381.53125 64.604164 381.57812 64.729164Q381.64062 64.854164 381.76562 64.93229Q381.89062 65.010414 382.125 65.010414Q382.3125 65.010414 382.59375 64.979164ZM383.29688 58.541664L383.29688 57.322914L384.35938 57.322914L384.35938 58.541664L383.29688 58.541664ZM383.29688 65.916664L383.29688 59.697914L384.35938 59.697914L384.35938 65.916664L383.29688 65.916664ZM386.26562 65.916664L386.26562 57.322914L387.32812 57.322914L387.32812 65.916664L386.26562 65.916664ZM393.54688 63.916664L394.64062 64.041664Q394.39062 64.99479 393.6875 65.52604Q392.98438 66.05729 391.90625 66.05729Q390.54688 66.05729 389.73438 65.21354Q388.9375 64.36979 388.9375 62.854164Q388.9375 61.291664 389.75 60.43229Q390.5625 59.55729 391.84375 59.55729Q393.09375 59.55729 393.875 60.40104Q394.67188 61.24479 394.67188 62.791664Q394.67188 62.885414 394.67188 63.072914L390.03125 63.072914Q390.09375 64.104164 390.60938 64.65104Q391.125 65.18229 391.90625 65.18229Q392.48438 65.18229 392.89062 64.885414Q393.3125 64.572914 393.54688 63.916664ZM390.09375 62.21354L393.5625 62.21354Q393.5 61.416664 393.17188 61.02604Q392.65625 60.416664 391.85938 60.416664Q391.125 60.416664 390.625 60.90104Q390.14062 61.385414 390.09375 62.21354Z" fill-rule="nonzero"/><path fill="#ff6d01" d="M423.5 61.916668C423.5 65.23038 420.81372 67.916664 417.5 67.916664C414.18628 67.916664 411.5 65.23038 411.5 61.916668C411.5 58.60296 414.18628 55.916668 417.5 55.916668C420.81372 55.916668 423.5 58.60296 423.5 61.916668Z" fill-rule="nonzero"/><path fill="#1a1a1a" d="M437.54688 64.90104L437.54688 65.916664L431.85938 65.916664Q431.85938 65.541664 431.98438 65.18229Q432.20312 64.604164 432.67188 64.041664Q433.15625 63.479164 434.0625 62.74479Q435.46875 61.58854 435.95312 60.916664Q436.45312 60.24479 436.45312 59.65104Q436.45312 59.02604 436.0 58.604164Q435.54688 58.166664 434.82812 58.166664Q434.0625 58.166664 433.60938 58.61979Q433.15625 59.072914 433.14062 59.885414L432.0625 59.77604Q432.17188 58.55729 432.89062 57.93229Q433.625 57.291664 434.85938 57.291664Q436.09375 57.291664 436.8125 57.979164Q437.53125 58.666664 437.53125 59.68229Q437.53125 60.197914 437.3125 60.697914Q437.10938 61.18229 436.60938 61.74479Q436.125 62.291664 435.0 63.24479Q434.04688 64.041664 433.76562 64.33854Q433.5 64.61979 433.32812 64.90104L437.54688 64.90104ZM439.0 63.666664L440.10938 63.572914Q440.23438 64.385414 440.67188 64.791664Q441.125 65.197914 441.76562 65.197914Q442.51562 65.197914 443.04688 64.61979Q443.57812 64.041664 443.57812 63.104164Q443.57812 62.197914 443.0625 61.68229Q442.5625 61.15104 441.73438 61.15104Q441.23438 61.15104 440.8125 61.385414Q440.40625 61.61979 440.17188 61.979164L439.1875 61.854164L440.01562 57.447914L444.29688 57.447914L444.29688 58.447914L440.85938 58.447914L440.40625 60.760414Q441.17188 60.21354 442.01562 60.21354Q443.14062 60.21354 443.90625 60.99479Q444.6875 61.77604 444.6875 63.010414Q444.6875 64.166664 444.01562 65.02604Q443.1875 66.05729 441.76562 66.05729Q440.59375 66.05729 439.84375 65.40104Q439.10938 64.74479 439.0 63.666664ZM451.46875 59.43229L450.42188 59.510414Q450.28125 58.885414 450.03125 58.604164Q449.59375 58.15104 448.96875 58.15104Q448.46875 58.15104 448.07812 58.43229Q447.59375 58.80729 447.29688 59.510414Q447.01562 60.197914 447.0 61.479164Q447.375 60.90104 447.92188 60.61979Q448.48438 60.33854 449.09375 60.33854Q450.14062 60.33854 450.875 61.11979Q451.625 61.90104 451.625 63.11979Q451.625 63.93229 451.26562 64.635414Q450.92188 65.322914 450.3125 65.697914Q449.70312 66.05729 448.9375 66.05729Q447.60938 66.05729 446.78125 65.08854Q445.95312 64.11979 445.95312 61.90104Q445.95312 59.40104 446.875 58.27604Q447.67188 57.291664 449.03125 57.291664Q450.04688 57.291664 450.6875 57.86979Q451.34375 58.43229 451.46875 59.43229ZM447.17188 63.135414Q447.17188 63.68229 447.39062 64.18229Q447.625 64.666664 448.03125 64.93229Q448.45312 65.197914 448.92188 65.197914Q449.57812 65.197914 450.0625 64.666664Q450.54688 64.11979 450.54688 63.197914Q450.54688 62.30729 450.0625 61.791664Q449.59375 61.27604 448.875 61.27604Q448.15625 61.27604 447.65625 61.791664Q447.17188 62.30729 447.17188 63.135414ZM458.59375 64.979164L458.75 65.90104Q458.29688 65.99479 457.95312 65.99479Q457.375 65.99479 457.0625 65.822914Q456.75 65.635414 456.60938 65.33854Q456.48438 65.041664 456.48438 64.08854L456.48438 60.510414L455.71875 60.510414L455.71875 59.697914L456.48438 59.697914L456.48438 58.15104L457.53125 57.52604L457.53125 59.697914L458.59375 59.697914L458.59375 60.510414L457.53125 60.510414L457.53125 64.15104Q457.53125 64.604164 457.57812 64.729164Q457.64062 64.854164 457.76562 64.93229Q457.89062 65.010414 458.125 65.010414Q458.3125 65.010414 458.59375 64.979164ZM459.29688 58.541664L459.29688 57.322914L460.35938 57.322914L460.35938 58.541664L459.29688 58.541664ZM459.29688 65.916664L459.29688 59.697914L460.35938 59.697914L460.35938 65.916664L459.29688 65.916664ZM462.26562 65.916664L462.26562 57.322914L463.32812 57.322914L463.32812 65.916664L462.26562 65.916664ZM469.54688 63.916664L470.64062 64.041664Q470.39062 64.99479 469.6875 65.52604Q468.98438 66.05729 467.90625 66.05729Q466.54688 66.05729 465.73438 65.21354Q464.9375 64.36979 464.9375 62.854164Q464.9375 61.291664 465.75 60.43229Q466.5625 59.55729 467.84375 59.55729Q469.09375 59.55729 469.875 60.40104Q470.67188 61.24479 470.67188 62.791664Q470.67188 62.885414 470.67188 63.072914L466.03125 63.072914Q466.09375 64.104164 466.60938 64.65104Q467.125 65.18229 467.90625 65.18229Q468.48438 65.18229 468.89062 64.885414Q469.3125 64.572914 469.54688 63.916664ZM466.09375 62.21354L469.5625 62.21354Q469.5 61.416664 469.17188 61.02604Q468.65625 60.416664 467.85938 60.416664Q467.125 60.416664 466.625 60.90104Q466.14062 61.385414 466.09375 62.21354Z" fill-rule="nonzero"/><path fill="#757575" d="M20.01875 37.55L20.01875 23.2375L21.909374 23.2375L21.909374 35.8625L28.95625 35.8625L28.95625 37.55L20.01875 37.55ZM37.003124 37.55L35.2375 37.55L35.2375 26.346874Q34.6125 26.95625 33.58125 27.565624Q32.55 28.159374 31.721874 28.471874L31.721874 26.76875Q33.20625 26.08125 34.3 25.096874Q35.409374 24.096874 35.8625 23.175L37.003124 23.175L37.003124 37.55ZM42.096874 37.55L42.096874 23.2375L47.01875 23.2375Q48.690624 23.2375 49.58125 23.440624Q50.8 23.721874 51.675 24.45625Q52.8 25.425 53.3625 26.909374Q53.925 28.39375 53.925 30.315624Q53.925 31.940624 53.55 33.20625Q53.175 34.45625 52.565624 35.284374Q51.971874 36.1125 51.26875 36.596874Q50.565624 37.065624 49.565624 37.315624Q48.565624 37.55 47.253124 37.55L42.096874 37.55ZM43.9875 35.8625L47.05 35.8625Q48.45625 35.8625 49.253124 35.596874Q50.065624 35.33125 50.55 34.846874Q51.221874 34.175 51.596874 33.05Q51.971874 31.909374 51.971874 30.284374Q51.971874 28.034374 51.2375 26.83125Q50.503124 25.628124 49.440624 25.221874Q48.690624 24.925 47.003124 24.925L43.9875 24.925L43.9875 35.8625ZM62.034374 37.55L62.034374 23.2375L64.89375 23.2375L68.26875 33.3625Q68.7375 34.784374 68.95625 35.4875Q69.20625 34.70625 69.72188 33.190624L73.14375 23.2375L75.69063 23.2375L75.69063 37.55L73.87813 37.55L73.87813 25.565624L69.70625 37.55L68.00313 37.55L63.8625 25.3625L63.8625 37.55L62.034374 37.55ZM79.09688 37.55L79.09688 23.2375L84.4875 23.2375Q85.925 23.2375 86.675 23.3625Q87.72188 23.55 88.44063 24.05Q89.15938 24.534374 89.58125 25.425Q90.01875 26.315624 90.01875 27.378124Q90.01875 29.20625 88.84688 30.471874Q87.69063 31.721874 84.65938 31.721874L80.9875 31.721874L80.9875 37.55L79.09688 37.55ZM80.9875 30.034374L84.69063 30.034374Q86.51875 30.034374 87.28438 29.3625Q88.06563 28.675 88.06563 27.425Q88.06563 26.534374 87.6125 25.89375Q87.15938 25.253124 86.425 25.05Q85.94063 24.925 84.64375 24.925L80.9875 24.925L80.9875 30.034374ZM92.01875 37.55L92.01875 23.2375L93.90938 23.2375L93.90938 30.33125L101.01875 23.2375L103.58125 23.2375L97.58125 29.034374L103.84688 37.55L101.34688 37.55L96.25313 30.3L93.90938 32.58125L93.90938 37.55L92.01875 37.55ZM105.40938 37.55L105.40938 23.2375L107.31563 23.2375L107.31563 37.55L105.40938 37.55ZM119.75313 37.55L115.8 27.175L117.65938 27.175L119.89375 33.39375Q120.25313 34.39375 120.55 35.471874Q120.78438 34.659374 121.20625 33.503124L123.50313 27.175L125.31563 27.175L121.39375 37.55L119.75313 37.55ZM125.15938 34.45625L126.90938 34.175Q127.05 35.221874 127.72188 35.784374Q128.39375 36.33125 129.59688 36.33125Q130.8 36.33125 131.37813 35.846874Q131.97188 35.346874 131.97188 34.690624Q131.97188 34.096874 131.45625 33.753124Q131.09688 33.51875 129.65938 33.159374Q127.72188 32.659374 126.97188 32.315624Q126.2375 31.95625 125.84688 31.33125Q125.45625 30.690624 125.45625 29.925Q125.45625 29.2375 125.76875 28.64375Q126.09688 28.05 126.64375 27.659374Q127.05 27.3625 127.75313 27.159374Q128.47188 26.940624 129.28438 26.940624Q130.50313 26.940624 131.425 27.3Q132.34688 27.64375 132.78438 28.253124Q133.22188 28.846874 133.39375 29.846874L131.675 30.08125Q131.55 29.284374 130.9875 28.846874Q130.425 28.39375 129.40938 28.39375Q128.19063 28.39375 127.675 28.8Q127.15938 29.190624 127.15938 29.721874Q127.15938 30.065624 127.37813 30.346874Q127.58125 30.628124 128.05 30.815624Q128.31563 30.909374 129.59688 31.253124Q131.47188 31.753124 132.20625 32.08125Q132.94063 32.39375 133.3625 33.003124Q133.78438 33.596874 133.78438 34.503124Q133.78438 35.378124 133.26875 36.159374Q132.75313 36.940624 131.78438 37.3625Q130.81563 37.784374 129.59688 37.784374Q127.58125 37.784374 126.51875 36.940624Q125.45625 36.096874 125.15938 34.45625ZM142.03438 37.55L142.03438 23.2375L144.89375 23.2375L148.26875 33.3625Q148.7375 34.784374 148.95625 35.4875Q149.20625 34.70625 149.72188 33.190624L153.14375 23.2375L155.69063 23.2375L155.69063 37.55L153.87813 37.55L153.87813 25.565624L149.70625 37.55L148.00313 37.55L143.8625 25.3625L143.8625 37.55L142.03438 37.55ZM165.64375 36.26875Q164.65938 37.096874 163.75313 37.440624Q162.84688 37.784374 161.81563 37.784374Q160.1125 37.784374 159.19063 36.95625Q158.26875 36.1125 158.26875 34.815624Q158.26875 34.05 158.6125 33.425Q158.97188 32.8 159.53438 32.425Q160.09688 32.034374 160.8 31.83125Q161.31563 31.70625 162.3625 31.565624Q164.4875 31.315624 165.4875 30.971874Q165.50313 30.6125 165.50313 30.503124Q165.50313 29.440624 165.00313 28.9875Q164.33125 28.39375 163.00313 28.39375Q161.75313 28.39375 161.15938 28.83125Q160.58125 29.26875 160.3 30.378124L158.58125 30.14375Q158.81563 29.034374 159.34688 28.3625Q159.87813 27.675 160.89375 27.315624Q161.90938 26.940624 163.25313 26.940624Q164.58125 26.940624 165.40938 27.253124Q166.2375 27.565624 166.62813 28.05Q167.01875 28.51875 167.175 29.2375Q167.26875 29.690624 167.26875 30.8625L167.26875 33.20625Q167.26875 35.659374 167.37813 36.315624Q167.4875 36.95625 167.83125 37.55L165.9875 37.55Q165.72188 37.003124 165.64375 36.26875ZM165.4875 32.346874Q164.53438 32.7375 162.6125 33.003124Q161.53438 33.159374 161.08125 33.3625Q160.64375 33.55 160.39375 33.925Q160.14375 34.3 160.14375 34.76875Q160.14375 35.471874 160.675 35.940624Q161.20625 36.409374 162.2375 36.409374Q163.25313 36.409374 164.03438 35.971874Q164.83125 35.51875 165.20625 34.753124Q165.4875 34.14375 165.4875 32.9875L165.4875 32.346874ZM173.70625 35.971874L173.95625 37.534374Q173.22188 37.690624 172.62813 37.690624Q171.675 37.690624 171.14375 37.39375Q170.62813 37.08125 170.40938 36.596874Q170.19063 36.096874 170.19063 34.51875L170.19063 28.55L168.90938 28.55L168.90938 27.175L170.19063 27.175L170.19063 24.6125L171.94063 23.55L171.94063 27.175L173.70625 27.175L173.70625 28.55L171.94063 28.55L171.94063 34.6125Q171.94063 35.3625 172.03438 35.58125Q172.12813 35.784374 172.33125 35.925Q172.55 36.05 172.94063 36.05Q173.22188 36.05 173.70625 35.971874ZM175.84688 37.55L175.84688 27.175L177.425 27.175L177.425 28.753124Q178.03438 27.64375 178.55 27.3Q179.06563 26.940624 179.675 26.940624Q180.56563 26.940624 181.4875 27.503124L180.87813 29.14375Q180.2375 28.753124 179.59688 28.753124Q179.01875 28.753124 178.55 29.1125Q178.09688 29.45625 177.89375 30.065624Q177.6125 31.003124 177.6125 32.1125L177.6125 37.55L175.84688 37.55ZM182.87813 25.253124L182.87813 23.2375L184.64375 23.2375L184.64375 25.253124L182.87813 25.253124ZM182.87813 37.55L182.87813 27.175L184.64375 27.175L184.64375 37.55L182.87813 37.55ZM185.69063 37.55L189.4875 32.159374L185.9875 27.175L188.175 27.175L189.76875 29.6125Q190.22188 30.3 190.4875 30.76875Q190.925 30.128124 191.28438 29.628124L193.03438 27.175L195.12813 27.175L191.55 32.065624L195.40938 37.55L193.25313 37.55L191.1125 34.33125L190.55 33.45625L187.83125 37.55L185.69063 37.55ZM201.45625 32.95625L203.2375 32.8Q203.3625 33.8625 203.81563 34.55Q204.28438 35.2375 205.25313 35.675Q206.2375 36.096874 207.47188 36.096874Q208.55 36.096874 209.37813 35.784374Q210.20625 35.45625 210.6125 34.89375Q211.01875 34.33125 211.01875 33.659374Q211.01875 32.9875 210.62813 32.4875Q210.2375 31.9875 209.34688 31.64375Q208.76875 31.409374 206.78438 30.940624Q204.81563 30.471874 204.03438 30.05Q203.00313 29.51875 202.50313 28.721874Q202.00313 27.925 202.00313 26.940624Q202.00313 25.846874 202.6125 24.909374Q203.22188 23.971874 204.40938 23.4875Q205.59688 22.9875 207.03438 22.9875Q208.62813 22.9875 209.84688 23.503124Q211.06563 24.01875 211.70625 25.01875Q212.3625 26.003124 212.40938 27.26875L210.59688 27.409374Q210.45625 26.05 209.6125 25.3625Q208.76875 24.659374 207.1125 24.659374Q205.39375 24.659374 204.59688 25.3Q203.81563 25.925 203.81563 26.8Q203.81563 27.58125 204.37813 28.08125Q204.925 28.58125 207.2375 29.096874Q209.55 29.6125 210.40938 30.003124Q211.65938 30.58125 212.25313 31.471874Q212.84688 32.346874 212.84688 33.503124Q212.84688 34.64375 212.19063 35.659374Q211.53438 36.675 210.3 37.2375Q209.08125 37.8 207.55 37.8Q205.6125 37.8 204.3 37.2375Q202.9875 36.659374 202.2375 35.51875Q201.4875 34.378124 201.45625 32.95625ZM214.87813 25.253124L214.87813 23.2375L216.64375 23.2375L216.64375 25.253124L214.87813 25.253124ZM214.87813 37.55L214.87813 27.175L216.64375 27.175L216.64375 37.55L214.87813 37.55ZM217.94063 37.55L217.94063 36.128124L224.55 28.55Q223.425 28.596874 222.56563 28.596874L218.33125 28.596874L218.33125 27.175L226.81563 27.175L226.81563 28.346874L221.19063 34.925L220.1125 36.128124Q221.28438 36.034374 222.33125 36.034374L227.12813 36.034374L227.12813 37.55L217.94063 37.55ZM234.97188 34.20625L236.78438 34.440624Q236.3625 36.01875 235.19063 36.909374Q234.03438 37.784374 232.22188 37.784374Q229.95625 37.784374 228.6125 36.39375Q227.28438 34.9875 227.28438 32.45625Q227.28438 29.83125 228.62813 28.39375Q229.97188 26.940624 232.12813 26.940624Q234.20625 26.940624 235.51875 28.3625Q236.84688 29.76875 236.84688 32.346874Q236.84688 32.503124 236.83125 32.815624L229.09688 32.815624Q229.19063 34.51875 230.06563 35.425Q230.94063 36.33125 232.2375 36.33125Q233.20625 36.33125 233.87813 35.83125Q234.56563 35.315624 234.97188 34.20625ZM229.19063 31.3625L234.9875 31.3625Q234.87813 30.065624 234.33125 29.409374Q233.4875 28.39375 232.14375 28.39375Q230.94063 28.39375 230.1125 29.20625Q229.28438 30.003124 229.19063 31.3625Z" fill-rule="nonzero"/></svg>