<svg version="1.1" viewBox="0.0 0.0 600.0 371.0" fill="none" stroke="none" stroke-linecap="square" stroke-miterlimit="10" width="600" height="371" xmlns:xlink="http://www.w3.org/1999/xlink" xmlns="http://www.w3.org/2000/svg"><path fill="#ffffff" d="M0 0L600.0 0L600.0 371.0L0 371.0L0 0Z" fill-rule="nonzero"/><path stroke="#333333" stroke-width="1.0" stroke-linecap="butt" d="M77.5 300.5L581.5 300.5" fill-rule="nonzero"/><path stroke="#cccccc" stroke-width="1.0" stroke-linecap="butt" d="M77.5 220.5L581.5 220.5" fill-rule="nonzero"/><path stroke="#cccccc" stroke-width="1.0" stroke-linecap="butt" d="M77.5 141.5L581.5 141.5" fill-rule="nonzero"/><path stroke="#cccccc" stroke-width="1.0" stroke-linecap="butt" d="M77.5 61.5L581.5 61.5" fill-rule="nonzero"/><clipPath id="id_0"><path d="M77.55 61.916668L581.45 61.916668L581.45 300.45L77.55 300.45L77.55 61.916668Z" clip-rule="nonzero"/></clipPath><path stroke="#000000" stroke-width="2.0" stroke-linecap="butt" stroke-opacity="0.0" clip-path="url(#id_0)" d="M172.0 300.0L111.0 300.0L111.0 87.0C111.0 85.89543 111.89543 85.0 113.0 85.0L170.0 85.0C171.10457 85.0 172.0 85.89543 172.0 87.0Z" fill-rule="nonzero"/><path fill="#4285f4" clip-path="url(#id_0)" d="M172.0 300.0L111.0 300.0L111.0 87.0C111.0 85.89543 111.89543 85.0 113.0 85.0L170.0 85.0C171.10457 85.0 172.0 85.89543 172.0 87.0Z" fill-rule="nonzero"/><path stroke="#000000" stroke-width="2.0" stroke-linecap="butt" stroke-opacity="0.0" clip-path="url(#id_0)" d="M266.0 300.0L205.0 300.0L205.0 269.0C205.0 267.89542 205.89543 267.0 207.0 267.0L264.0 267.0C265.10458 267.0 266.0 267.89542 266.0 269.0Z" fill-rule="nonzero"/><path fill="#4285f4" clip-path="url(#id_0)" d="M266.0 300.0L205.0 300.0L205.0 269.0C205.0 267.89542 205.89543 267.0 207.0 267.0L264.0 267.0C265.10458 267.0 266.0 267.89542 266.0 269.0Z" fill-rule="nonzero"/><path stroke="#000000" stroke-width="2.0" stroke-linecap="butt" stroke-opacity="0.0" clip-path="url(#id_0)" d="M361.0 300.0L300.0 300.0L300.0 223.0C300.0 221.89543 300.89542 221.0 302.0 221.0L359.0 221.0C360.10458 221.0 361.0 221.89543 361.0 223.0Z" fill-rule="nonzero"/><path fill="#4285f4" clip-path="url(#id_0)" d="M361.0 300.0L300.0 300.0L300.0 223.0C300.0 221.89543 300.89542 221.0 302.0 221.0L359.0 221.0C360.10458 221.0 361.0 221.89543 361.0 223.0Z" fill-rule="nonzero"/><path stroke="#000000" stroke-width="2.0" stroke-linecap="butt" stroke-opacity="0.0" clip-path="url(#id_0)" d="M455.0 300.0L394.0 300.0L394.0 256.0C394.0 254.89543 394.89542 254.0 396.0 254.0L453.0 254.0C454.10458 254.0 455.0 254.89543 455.0 256.0Z" fill-rule="nonzero"/><path fill="#4285f4" clip-path="url(#id_0)" d="M455.0 300.0L394.0 300.0L394.0 256.0C394.0 254.89543 394.89542 254.0 396.0 254.0L453.0 254.0C454.10458 254.0 455.0 254.89543 455.0 256.0Z" fill-rule="nonzero"/><path stroke="#000000" stroke-width="2.0" stroke-linecap="butt" stroke-opacity="0.0" clip-path="url(#id_0)" d="M549.0 300.0L488.0 300.0L488.0 183.0C488.0 181.89543 488.89542 181.0 490.0 181.0L547.0 181.0C548.10455 181.0 549.0 181.89543 549.0 183.0Z" fill-rule="nonzero"/><path fill="#4285f4" clip-path="url(#id_0)" d="M549.0 300.0L488.0 300.0L488.0 183.0C488.0 181.89543 488.89542 181.0 490.0 181.0L547.0 181.0C548.10455 181.0 549.0 181.89543 549.0 183.0Z" fill-rule="nonzero"/><path fill="#000000" d="M309.60938 349.45L309.60938 341.8719L306.78125 341.8719L306.78125 340.85626L313.59375 340.85626L313.59375 341.8719L310.75 341.8719L310.75 349.45L309.60938 349.45ZM314.29688 342.075L314.29688 340.85626L315.35938 340.85626L315.35938 342.075L314.29688 342.075ZM314.29688 349.45L314.29688 343.23126L315.35938 343.23126L315.35938 349.45L314.29688 349.45ZM317.26562 349.45L317.26562 340.85626L318.32812 340.85626L318.32812 349.45L317.26562 349.45ZM324.54688 347.45L325.64062 347.575Q325.39062 348.52814 324.6875 349.0594Q323.98438 349.59064 322.90625 349.59064Q321.54688 349.59064 320.73438 348.7469Q319.9375 347.90314 319.9375 346.3875Q319.9375 344.825 320.75 343.96564Q321.5625 343.09064 322.84375 343.09064Q324.09375 343.09064 324.875 343.9344Q325.67188 344.77814 325.67188 346.325Q325.67188 346.41876 325.67188 346.60626L321.03125 346.60626Q321.09375 347.6375 321.60938 348.1844Q322.125 348.71564 322.90625 348.71564Q323.48438 348.71564 323.89062 348.41876Q324.3125 348.10626 324.54688 347.45ZM321.09375 345.7469L324.5625 345.7469Q324.5 344.95 324.17188 344.5594Q323.65625 343.95 322.85938 343.95Q322.125 343.95 321.625 344.4344Q321.14062 344.91876 321.09375 345.7469ZM330.04688 346.6844L331.10938 346.59064Q331.1875 347.2469 331.46875 347.65314Q331.75 348.0594 332.32812 348.325Q332.92188 348.575 333.65625 348.575Q334.29688 348.575 334.79688 348.3875Q335.29688 348.1844 335.53125 347.85626Q335.78125 347.5125 335.78125 347.1219Q335.78125 346.71564 335.54688 346.41876Q335.3125 346.10626 334.78125 345.90314Q334.42188 345.7625 333.23438 345.48126Q332.0625 345.2 331.59375 344.95Q330.96875 344.6219 330.67188 344.15314Q330.375 343.66876 330.375 343.075Q330.375 342.4344 330.73438 341.8719Q331.10938 341.29376 331.8125 341.0125Q332.53125 340.71564 333.39062 340.71564Q334.34375 340.71564 335.07812 341.02814Q335.8125 341.325 336.20312 341.9344Q336.59375 342.52814 336.625 343.27814L335.53125 343.35626Q335.4375 342.54376 334.92188 342.1375Q334.42188 341.71564 333.4375 341.71564Q332.40625 341.71564 331.9375 342.09064Q331.46875 342.46564 331.46875 342.9969Q331.46875 343.46564 331.79688 343.7625Q332.125 344.0594 333.5 344.3719Q334.89062 344.6844 335.40625 344.91876Q336.15625 345.27814 336.51562 345.8094Q336.875 346.325 336.875 347.02814Q336.875 347.71564 336.48438 348.325Q336.09375 348.91876 335.35938 349.2625Q334.625 349.59064 333.70312 349.59064Q332.53125 349.59064 331.73438 349.2625Q330.95312 348.91876 330.5 348.23126Q330.0625 347.54376 330.04688 346.6844ZM338.29688 342.075L338.29688 340.85626L339.35938 340.85626L339.35938 342.075L338.29688 342.075ZM338.29688 349.45L338.29688 343.23126L339.35938 343.23126L339.35938 349.45L338.29688 349.45ZM340.73438 349.45L340.73438 348.59064L344.70312 344.04376Q344.01562 344.075 343.5 344.075L340.96875 344.075L340.96875 343.23126L346.0625 343.23126L346.0625 343.91876L342.6875 347.8719L342.03125 348.59064Q342.75 348.54376 343.35938 348.54376L346.25 348.54376L346.25 349.45L340.73438 349.45ZM350.54688 347.45L351.64062 347.575Q351.39062 348.52814 350.6875 349.0594Q349.98438 349.59064 348.90625 349.59064Q347.54688 349.59064 346.73438 348.7469Q345.9375 347.90314 345.9375 346.3875Q345.9375 344.825 346.75 343.96564Q347.5625 343.09064 348.84375 343.09064Q350.09375 343.09064 350.875 343.9344Q351.67188 344.77814 351.67188 346.325Q351.67188 346.41876 351.67188 346.60626L347.03125 346.60626Q347.09375 347.6375 347.60938 348.1844Q348.125 348.71564 348.90625 348.71564Q349.48438 348.71564 349.89062 348.41876Q350.3125 348.10626 350.54688 347.45ZM347.09375 345.7469L350.5625 345.7469Q350.5 344.95 350.17188 344.5594Q349.65625 343.95 348.85938 343.95Q348.125 343.95 347.625 344.4344Q347.14062 344.91876 347.09375 345.7469Z" fill-rule="nonzero"/><path fill="#000000" d="M29.550013 200.79271L20.956263 200.79271L20.956263 199.07396L27.034388 197.04271Q27.893763 196.76146 28.315638 196.63646Q27.846888 196.49583 26.940638 196.18333L20.956263 194.12083L20.956263 192.58958L29.550013 192.58958L29.550013 193.68333L22.362513 193.68333L29.550013 196.18333L29.550013 197.21458L22.237513 199.69896L29.550013 199.69896L29.550013 200.79271ZM29.550013 191.76146L20.956263 191.76146L20.956263 188.51146Q20.956263 187.66771 21.034388 187.21458Q21.143763 186.57396 21.440638 186.15208Q21.737513 185.71458 22.268763 185.46458Q22.800013 185.19896 23.440638 185.19896Q24.534388 185.19896 25.300013 185.90208Q26.050013 186.58958 26.050013 188.41771L26.050013 190.62083L29.550013 190.62083L29.550013 191.76146ZM25.050013 190.62083L25.050013 188.40208Q25.050013 187.29271 24.643763 186.83958Q24.221888 186.37083 23.471888 186.37083Q22.940638 186.37083 22.565638 186.65208Q22.175013 186.91771 22.050013 187.35521Q21.971888 187.65208 21.971888 188.41771L21.971888 190.62083L25.050013 190.62083ZM29.550013 183.80833L20.956263 183.80833L20.956263 182.66771L25.221888 182.66771L20.956263 178.40208L20.956263 176.85521L24.440638 180.46458L29.550013 176.69896L29.550013 178.19896L25.206263 181.26146L26.565638 182.66771L29.550013 182.66771L29.550013 183.80833ZM29.550013 175.55833L20.956263 175.55833L20.956263 174.43333L29.550013 174.43333L29.550013 175.55833Z" fill-rule="nonzero"/><path fill="#000000" d="M55.05 300.21564Q55.05 298.6844 55.3625 297.7625Q55.675 296.825 56.284374 296.325Q56.909374 295.825 57.846874 295.825Q58.534374 295.825 59.05 296.10626Q59.58125 296.3875 59.925 296.91876Q60.26875 297.4344 60.45625 298.1844Q60.64375 298.9344 60.64375 300.21564Q60.64375 301.73126 60.33125 302.65314Q60.034374 303.575 59.409374 304.09064Q58.8 304.59064 57.846874 304.59064Q56.6125 304.59064 55.89375 303.7Q55.05 302.6375 55.05 300.21564ZM56.128124 300.21564Q56.128124 302.325 56.628124 303.02814Q57.128124 303.73126 57.846874 303.73126Q58.58125 303.73126 59.065624 303.02814Q59.565624 302.325 59.565624 300.21564Q59.565624 298.09064 59.065624 297.40314Q58.58125 296.7 57.83125 296.7Q57.1125 296.7 56.675 297.3094Q56.128124 298.09064 56.128124 300.21564ZM62.64375 304.45L62.64375 303.2469L63.846874 303.2469L63.846874 304.45L62.64375 304.45ZM65.05 300.21564Q65.05 298.6844 65.3625 297.7625Q65.675 296.825 66.28438 296.325Q66.90938 295.825 67.84688 295.825Q68.53438 295.825 69.05 296.10626Q69.58125 296.3875 69.925 296.91876Q70.26875 297.4344 70.45625 298.1844Q70.64375 298.9344 70.64375 300.21564Q70.64375 301.73126 70.33125 302.65314Q70.03438 303.575 69.40938 304.09064Q68.8 304.59064 67.84688 304.59064Q66.6125 304.59064 65.89375 303.7Q65.05 302.6375 65.05 300.21564ZM66.12813 300.21564Q66.12813 302.325 66.62813 303.02814Q67.12813 303.73126 67.84688 303.73126Q68.58125 303.73126 69.06563 303.02814Q69.56563 302.325 69.56563 300.21564Q69.56563 298.09064 69.06563 297.40314Q68.58125 296.7 67.83125 296.7Q67.1125 296.7 66.675 297.3094Q66.12813 298.09064 66.12813 300.21564Z" fill-rule="nonzero"/><path fill="#000000" d="M55.05 220.70451Q55.05 219.17326 55.3625 218.25139Q55.675 217.31389 56.284374 216.81389Q56.909374 216.31389 57.846874 216.31389Q58.534374 216.31389 59.05 216.59514Q59.58125 216.87639 59.925 217.40764Q60.26875 217.92326 60.45625 218.67326Q60.64375 219.42326 60.64375 220.70451Q60.64375 222.22014 60.33125 223.14201Q60.034374 224.06389 59.409374 224.57951Q58.8 225.07951 57.846874 225.07951Q56.6125 225.07951 55.89375 224.18889Q55.05 223.12639 55.05 220.70451ZM56.128124 220.70451Q56.128124 222.81389 56.628124 223.51701Q57.128124 224.22014 57.846874 224.22014Q58.58125 224.22014 59.065624 223.51701Q59.565624 222.81389 59.565624 220.70451Q59.565624 218.57951 59.065624 217.89201Q58.58125 217.18889 57.83125 217.18889Q57.1125 217.18889 56.675 217.79826Q56.128124 218.57951 56.128124 220.70451ZM62.64375 224.93889L62.64375 223.73576L63.846874 223.73576L63.846874 224.93889L62.64375 224.93889ZM65.05 222.68889L66.15938 222.59514Q66.28438 223.40764 66.72188 223.81389Q67.175 224.22014 67.81563 224.22014Q68.56563 224.22014 69.09688 223.64201Q69.62813 223.06389 69.62813 222.12639Q69.62813 221.22014 69.1125 220.70451Q68.6125 220.17326 67.78438 220.17326Q67.28438 220.17326 66.8625 220.40764Q66.45625 220.64201 66.22188 221.00139L65.2375 220.87639L66.06563 216.47014L70.34688 216.47014L70.34688 217.47014L66.90938 217.47014L66.45625 219.78264Q67.22188 219.23576 68.06563 219.23576Q69.19063 219.23576 69.95625 220.01701Q70.7375 220.79826 70.7375 222.03264Q70.7375 223.18889 70.06563 224.04826Q69.2375 225.07951 67.81563 225.07951Q66.64375 225.07951 65.89375 224.42326Q65.15938 223.76701 65.05 222.68889Z" fill-rule="nonzero"/><path fill="#000000" d="M59.01875 145.42778L57.971874 145.42778L57.971874 138.70903Q57.58125 139.0684 56.95625 139.4434Q56.346874 139.80278 55.8625 139.97466L55.8625 138.95903Q56.7375 138.53716 57.39375 137.95903Q58.065624 137.36528 58.346874 136.80278L59.01875 136.80278L59.01875 145.42778ZM62.64375 145.42778L62.64375 144.22466L63.846874 144.22466L63.846874 145.42778L62.64375 145.42778ZM65.05 141.1934Q65.05 139.66216 65.3625 138.74028Q65.675 137.80278 66.28438 137.30278Q66.90938 136.80278 67.84688 136.80278Q68.53438 136.80278 69.05 137.08403Q69.58125 137.36528 69.925 137.89653Q70.26875 138.41216 70.45625 139.16216Q70.64375 139.91216 70.64375 141.1934Q70.64375 142.70903 70.33125 143.6309Q70.03438 144.55278 69.40938 145.0684Q68.8 145.5684 67.84688 145.5684Q66.6125 145.5684 65.89375 144.67778Q65.05 143.61528 65.05 141.1934ZM66.12813 141.1934Q66.12813 143.30278 66.62813 144.0059Q67.12813 144.70903 67.84688 144.70903Q68.58125 144.70903 69.06563 144.0059Q69.56563 143.30278 69.56563 141.1934Q69.56563 139.0684 69.06563 138.3809Q68.58125 137.67778 67.83125 137.67778Q67.1125 137.67778 66.675 138.28716Q66.12813 139.0684 66.12813 141.1934Z" fill-rule="nonzero"/><path fill="#000000" d="M59.01875 65.916664L57.971874 65.916664L57.971874 59.197914Q57.58125 59.55729 56.95625 59.93229Q56.346874 60.291664 55.8625 60.46354L55.8625 59.447914Q56.7375 59.02604 57.39375 58.447914Q58.065624 57.854164 58.346874 57.291664L59.01875 57.291664L59.01875 65.916664ZM62.64375 65.916664L62.64375 64.71354L63.846874 64.71354L63.846874 65.916664L62.64375 65.916664ZM65.05 63.666664L66.15938 63.572914Q66.28438 64.385414 66.72188 64.791664Q67.175 65.197914 67.81563 65.197914Q68.56563 65.197914 69.09688 64.61979Q69.62813 64.041664 69.62813 63.104164Q69.62813 62.197914 69.1125 61.68229Q68.6125 61.15104 67.78438 61.15104Q67.28438 61.15104 66.8625 61.385414Q66.45625 61.61979 66.22188 61.979164L65.2375 61.854164L66.06563 57.447914L70.34688 57.447914L70.34688 58.447914L66.90938 58.447914L66.45625 60.760414Q67.22188 60.21354 68.06563 60.21354Q69.19063 60.21354 69.95625 60.99479Q70.7375 61.77604 70.7375 63.010414Q70.7375 64.166664 70.06563 65.02604Q69.2375 66.05729 67.81563 66.05729Q66.64375 66.05729 65.89375 65.40104Q65.15938 64.74479 65.05 63.666664Z" fill-rule="nonzero"/><path fill="#000000" d="M138.59492 317.45L137.54805 317.45L137.54805 310.73126Q137.15742 311.09064 136.53242 311.46564Q135.92305 311.825 135.43867 311.9969L135.43867 310.98126Q136.31367 310.5594 136.96992 309.98126Q137.6418 309.3875 137.92305 308.825L138.59492 308.825L138.59492 317.45ZM147.09492 310.96564L146.04805 311.04376Q145.90742 310.41876 145.65742 310.1375Q145.21992 309.6844 144.59492 309.6844Q144.09492 309.6844 143.7043 309.96564Q143.21992 310.34064 142.92305 311.04376Q142.6418 311.73126 142.62617 313.0125Q143.00117 312.4344 143.54805 312.15314Q144.11055 311.8719 144.71992 311.8719Q145.7668 311.8719 146.50117 312.65314Q147.25117 313.4344 147.25117 314.65314Q147.25117 315.46564 146.8918 316.16876Q146.54805 316.85626 145.93867 317.23126Q145.3293 317.59064 144.56367 317.59064Q143.23555 317.59064 142.40742 316.6219Q141.5793 315.65314 141.5793 313.4344Q141.5793 310.9344 142.50117 309.8094Q143.29805 308.825 144.65742 308.825Q145.67305 308.825 146.31367 309.40314Q146.96992 309.96564 147.09492 310.96564ZM142.79805 314.66876Q142.79805 315.21564 143.0168 315.71564Q143.25117 316.2 143.65742 316.46564Q144.0793 316.73126 144.54805 316.73126Q145.2043 316.73126 145.68867 316.2Q146.17305 315.65314 146.17305 314.73126Q146.17305 313.84064 145.68867 313.325Q145.21992 312.8094 144.50117 312.8094Q143.78242 312.8094 143.28242 313.325Q142.79805 313.84064 142.79805 314.66876Z" fill-rule="nonzero"/><path fill="#000000" d="M228.81308 315.1844L229.87558 315.04376Q230.04745 315.9344 230.48495 316.34064Q230.92245 316.73126 231.54745 316.73126Q232.29745 316.73126 232.81308 316.21564Q233.3287 315.7 233.3287 314.9344Q233.3287 314.21564 232.84433 313.7469Q232.37558 313.2625 231.6412 313.2625Q231.34433 313.2625 230.8912 313.3875L231.0162 312.45Q231.12558 312.46564 231.18808 312.46564Q231.85995 312.46564 232.3912 312.1219Q232.93808 311.7625 232.93808 311.02814Q232.93808 310.45 232.54745 310.075Q232.15683 309.6844 231.53183 309.6844Q230.92245 309.6844 230.50058 310.075Q230.09433 310.46564 229.98495 311.23126L228.92245 311.04376Q229.10995 309.9969 229.79745 309.41876Q230.48495 308.825 231.50058 308.825Q232.2037 308.825 232.79745 309.1375Q233.3912 309.4344 233.7037 309.95Q234.0162 310.46564 234.0162 311.0594Q234.0162 311.60626 233.71933 312.075Q233.42245 312.52814 232.84433 312.79376Q233.59433 312.96564 234.0162 313.52814Q234.43808 314.075 234.43808 314.91876Q234.43808 316.04376 233.60995 316.825Q232.79745 317.60626 231.54745 317.60626Q230.42245 317.60626 229.67245 316.9344Q228.92245 316.2469 228.81308 315.1844ZM241.35995 316.4344L241.35995 317.45L235.67245 317.45Q235.67245 317.075 235.79745 316.71564Q236.0162 316.1375 236.48495 315.575Q236.96933 315.0125 237.87558 314.27814Q239.28183 313.1219 239.7662 312.45Q240.2662 311.77814 240.2662 311.1844Q240.2662 310.5594 239.81308 310.1375Q239.35995 309.7 238.6412 309.7Q237.87558 309.7 237.42245 310.15314Q236.96933 310.60626 236.9537 311.41876L235.87558 311.3094Q235.98495 310.09064 236.7037 309.46564Q237.43808 308.825 238.67245 308.825Q239.90683 308.825 240.62558 309.5125Q241.34433 310.2 241.34433 311.21564Q241.34433 311.73126 241.12558 312.23126Q240.92245 312.71564 240.42245 313.27814Q239.93808 313.825 238.81308 314.77814Q237.85995 315.575 237.5787 315.8719Q237.31308 316.15314 237.1412 316.4344L241.35995 316.4344Z" fill-rule="nonzero"/><path fill="#000000" d="M328.46875 310.96564L327.42188 311.04376Q327.28125 310.41876 327.03125 310.1375Q326.59375 309.6844 325.96875 309.6844Q325.46875 309.6844 325.07812 309.96564Q324.59375 310.34064 324.29688 311.04376Q324.01562 311.73126 324.0 313.0125Q324.375 312.4344 324.92188 312.15314Q325.48438 311.8719 326.09375 311.8719Q327.14062 311.8719 327.875 312.65314Q328.625 313.4344 328.625 314.65314Q328.625 315.46564 328.26562 316.16876Q327.92188 316.85626 327.3125 317.23126Q326.70312 317.59064 325.9375 317.59064Q324.60938 317.59064 323.78125 316.6219Q322.95312 315.65314 322.95312 313.4344Q322.95312 310.9344 323.875 309.8094Q324.67188 308.825 326.03125 308.825Q327.04688 308.825 327.6875 309.40314Q328.34375 309.96564 328.46875 310.96564ZM324.17188 314.66876Q324.17188 315.21564 324.39062 315.71564Q324.625 316.2 325.03125 316.46564Q325.45312 316.73126 325.92188 316.73126Q326.57812 316.73126 327.0625 316.2Q327.54688 315.65314 327.54688 314.73126Q327.54688 313.84064 327.0625 313.325Q326.59375 312.8094 325.875 312.8094Q325.15625 312.8094 324.65625 313.325Q324.17188 313.84064 324.17188 314.66876ZM333.375 317.45L333.375 315.3875L329.65625 315.3875L329.65625 314.41876L333.57812 308.85626L334.4375 308.85626L334.4375 314.41876L335.59375 314.41876L335.59375 315.3875L334.4375 315.3875L334.4375 317.45L333.375 317.45ZM333.375 314.41876L333.375 310.5594L330.6875 314.41876L333.375 314.41876Z" fill-rule="nonzero"/><path fill="#000000" d="M417.65567 317.45L416.6088 317.45L416.6088 310.73126Q416.21817 311.09064 415.59317 311.46564Q414.9838 311.825 414.49942 311.9969L414.49942 310.98126Q415.37442 310.5594 416.03067 309.98126Q416.70255 309.3875 416.9838 308.825L417.65567 308.825L417.65567 317.45ZM426.2338 316.4344L426.2338 317.45L420.5463 317.45Q420.5463 317.075 420.6713 316.71564Q420.89005 316.1375 421.3588 315.575Q421.84317 315.0125 422.74942 314.27814Q424.15567 313.1219 424.64005 312.45Q425.14005 311.77814 425.14005 311.1844Q425.14005 310.5594 424.68692 310.1375Q424.2338 309.7 423.51505 309.7Q422.74942 309.7 422.2963 310.15314Q421.84317 310.60626 421.82755 311.41876L420.74942 311.3094Q420.8588 310.09064 421.57755 309.46564Q422.31192 308.825 423.5463 308.825Q424.78067 308.825 425.49942 309.5125Q426.21817 310.2 426.21817 311.21564Q426.21817 311.73126 425.99942 312.23126Q425.7963 312.71564 425.2963 313.27814Q424.81192 313.825 423.68692 314.77814Q422.7338 315.575 422.45255 315.8719Q422.18692 316.15314 422.01505 316.4344L426.2338 316.4344ZM429.31192 312.79376Q428.65567 312.54376 428.32755 312.10626Q428.01505 311.65314 428.01505 311.04376Q428.01505 310.10626 428.68692 309.46564Q429.37442 308.825 430.4838 308.825Q431.6088 308.825 432.2963 309.48126Q432.9838 310.1375 432.9838 311.075Q432.9838 311.66876 432.6713 312.10626Q432.3588 312.54376 431.71817 312.79376Q432.51505 313.04376 432.9213 313.6219Q433.32755 314.2 433.32755 314.9969Q433.32755 316.09064 432.5463 316.84064Q431.78067 317.59064 430.49942 317.59064Q429.2338 317.59064 428.45255 316.84064Q427.6713 316.09064 427.6713 314.96564Q427.6713 314.1219 428.09317 313.5594Q428.53067 312.9969 429.31192 312.79376ZM429.09317 310.9969Q429.09317 311.60626 429.4838 311.9969Q429.89005 312.3875 430.51505 312.3875Q431.12442 312.3875 431.51505 312.0125Q431.90567 311.6219 431.90567 311.0594Q431.90567 310.48126 431.49942 310.09064Q431.09317 309.6844 430.49942 309.6844Q429.89005 309.6844 429.4838 310.075Q429.09317 310.46564 429.09317 310.9969ZM428.76505 314.96564Q428.76505 315.41876 428.96817 315.84064Q429.18692 316.2625 429.6088 316.4969Q430.03067 316.73126 430.51505 316.73126Q431.26505 316.73126 431.74942 316.2469Q432.24942 315.7625 432.24942 315.0125Q432.24942 314.2469 431.74942 313.7469Q431.24942 313.2469 430.4838 313.2469Q429.7338 313.2469 429.24942 313.7469Q428.76505 314.23126 428.76505 314.96564Z" fill-rule="nonzero"/><path fill="#000000" d="M513.4207 316.4344L513.4207 317.45L507.73322 317.45Q507.73322 317.075 507.85822 316.71564Q508.07697 316.1375 508.54572 315.575Q509.0301 315.0125 509.93634 314.27814Q511.3426 313.1219 511.82697 312.45Q512.32697 311.77814 512.32697 311.1844Q512.32697 310.5594 511.87384 310.1375Q511.42072 309.7 510.70197 309.7Q509.93634 309.7 509.48322 310.15314Q509.0301 310.60626 509.01447 311.41876L507.93634 311.3094Q508.04572 310.09064 508.76447 309.46564Q509.49884 308.825 510.73322 308.825Q511.9676 308.825 512.68634 309.5125Q513.4051 310.2 513.4051 311.21564Q513.4051 311.73126 513.18634 312.23126Q512.9832 312.71564 512.4832 313.27814Q511.99884 313.825 510.87384 314.77814Q509.92072 315.575 509.63947 315.8719Q509.37384 316.15314 509.20197 316.4344L513.4207 316.4344ZM514.87384 315.2L515.9832 315.10626Q516.1082 315.91876 516.5457 316.325Q516.99884 316.73126 517.63947 316.73126Q518.38947 316.73126 518.9207 316.15314Q519.45197 315.575 519.45197 314.6375Q519.45197 313.73126 518.93634 313.21564Q518.43634 312.6844 517.6082 312.6844Q517.1082 312.6844 516.68634 312.91876Q516.2801 313.15314 516.0457 313.5125L515.06134 313.3875L515.88947 308.98126L520.1707 308.98126L520.1707 309.98126L516.7332 309.98126L516.2801 312.29376Q517.0457 311.7469 517.88947 311.7469Q519.01447 311.7469 519.7801 312.52814Q520.56134 313.3094 520.56134 314.54376Q520.56134 315.7 519.88947 316.5594Q519.06134 317.59064 517.63947 317.59064Q516.4676 317.59064 515.7176 316.9344Q514.9832 316.27814 514.87384 315.2ZM527.3426 310.96564L526.2957 311.04376Q526.1551 310.41876 525.9051 310.1375Q525.4676 309.6844 524.8426 309.6844Q524.3426 309.6844 523.95197 309.96564Q523.4676 310.34064 523.1707 311.04376Q522.88947 311.73126 522.87384 313.0125Q523.24884 312.4344 523.7957 312.15314Q524.3582 311.8719 524.9676 311.8719Q526.01447 311.8719 526.74884 312.65314Q527.49884 313.4344 527.49884 314.65314Q527.49884 315.46564 527.13947 316.16876Q526.7957 316.85626 526.18634 317.23126Q525.57697 317.59064 524.81134 317.59064Q523.4832 317.59064 522.6551 316.6219Q521.82697 315.65314 521.82697 313.4344Q521.82697 310.9344 522.74884 309.8094Q523.5457 308.825 524.9051 308.825Q525.9207 308.825 526.56134 309.40314Q527.2176 309.96564 527.3426 310.96564ZM523.0457 314.66876Q523.0457 315.21564 523.26447 315.71564Q523.49884 316.2 523.9051 316.46564Q524.32697 316.73126 524.7957 316.73126Q525.45197 316.73126 525.93634 316.2Q526.4207 315.65314 526.4207 314.73126Q526.4207 313.84064 525.93634 313.325Q525.4676 312.8094 524.74884 312.8094Q524.0301 312.8094 523.5301 313.325Q523.0457 313.84064 523.0457 314.66876Z" fill-rule="nonzero"/><path fill="#757575" d="M20.034374 37.55L20.034374 23.2375L22.89375 23.2375L26.26875 33.3625Q26.7375 34.784374 26.95625 35.4875Q27.20625 34.70625 27.721874 33.190624L31.14375 23.2375L33.690624 23.2375L33.690624 37.55L31.878124 37.55L31.878124 25.565624L27.70625 37.55L26.003124 37.55L21.8625 25.3625L21.8625 37.55L20.034374 37.55ZM37.096874 37.55L37.096874 23.2375L42.4875 23.2375Q43.925 23.2375 44.675 23.3625Q45.721874 23.55 46.440624 24.05Q47.159374 24.534374 47.58125 25.425Q48.01875 26.315624 48.01875 27.378124Q48.01875 29.20625 46.846874 30.471874Q45.690624 31.721874 42.659374 31.721874L38.9875 31.721874L38.9875 37.55L37.096874 37.55ZM38.9875 30.034374L42.690624 30.034374Q44.51875 30.034374 45.284374 29.3625Q46.065624 28.675 46.065624 27.425Q46.065624 26.534374 45.6125 25.89375Q45.159374 25.253124 44.425 25.05Q43.940624 24.925 42.64375 24.925L38.9875 24.925L38.9875 30.034374ZM50.01875 37.55L50.01875 23.2375L51.909374 23.2375L51.909374 30.33125L59.01875 23.2375L61.58125 23.2375L55.58125 29.034374L61.846874 37.55L59.346874 37.55L54.253124 30.3L51.909374 32.58125L51.909374 37.55L50.01875 37.55ZM63.409374 37.55L63.409374 23.2375L65.31563 23.2375L65.31563 37.55L63.409374 37.55ZM77.75313 37.55L73.8 27.175L75.65938 27.175L77.89375 33.39375Q78.25313 34.39375 78.55 35.471874Q78.78438 34.659374 79.20625 33.503124L81.50313 27.175L83.31563 27.175L79.39375 37.55L77.75313 37.55ZM83.15938 34.45625L84.90938 34.175Q85.05 35.221874 85.72188 35.784374Q86.39375 36.33125 87.59688 36.33125Q88.8 36.33125 89.37813 35.846874Q89.97188 35.346874 89.97188 34.690624Q89.97188 34.096874 89.45625 33.753124Q89.09688 33.51875 87.65938 33.159374Q85.72188 32.659374 84.97188 32.315624Q84.2375 31.95625 83.84688 31.33125Q83.45625 30.690624 83.45625 29.925Q83.45625 29.2375 83.76875 28.64375Q84.09688 28.05 84.64375 27.659374Q85.05 27.3625 85.75313 27.159374Q86.47188 26.940624 87.28438 26.940624Q88.50313 26.940624 89.425 27.3Q90.34688 27.64375 90.78438 28.253124Q91.22188 28.846874 91.39375 29.846874L89.675 30.08125Q89.55 29.284374 88.9875 28.846874Q88.425 28.39375 87.40938 28.39375Q86.19063 28.39375 85.675 28.8Q85.15938 29.190624 85.15938 29.721874Q85.15938 30.065624 85.37813 30.346874Q85.58125 30.628124 86.05 30.815624Q86.31563 30.909374 87.59688 31.253124Q89.47188 31.753124 90.20625 32.08125Q90.94063 32.39375 91.3625 33.003124Q91.78438 33.596874 91.78438 34.503124Q91.78438 35.378124 91.26875 36.159374Q90.75313 36.940624 89.78438 37.3625Q88.81563 37.784374 87.59688 37.784374Q85.58125 37.784374 84.51875 36.940624Q83.45625 36.096874 83.15938 34.45625ZM103.7375 37.55L103.7375 24.925L99.01875 24.925L99.01875 23.2375L110.3625 23.2375L110.3625 24.925L105.62813 24.925L105.62813 37.55L103.7375 37.55ZM111.87813 25.253124L111.87813 23.2375L113.64375 23.2375L113.64375 25.253124L111.87813 25.253124ZM111.87813 37.55L111.87813 27.175L113.64375 27.175L113.64375 37.55L111.87813 37.55ZM115.83125 37.55L115.83125 23.2375L117.58125 23.2375L117.58125 37.55L115.83125 37.55ZM126.97188 34.20625L128.78438 34.440624Q128.3625 36.01875 127.19063 36.909374Q126.03438 37.784374 124.22188 37.784374Q121.95625 37.784374 120.6125 36.39375Q119.28438 34.9875 119.28438 32.45625Q119.28438 29.83125 120.62813 28.39375Q121.97188 26.940624 124.12813 26.940624Q126.20625 26.940624 127.51875 28.3625Q128.84688 29.76875 128.84688 32.346874Q128.84688 32.503124 128.83125 32.815624L121.09688 32.815624Q121.19063 34.51875 122.06563 35.425Q122.94063 36.33125 124.2375 36.33125Q125.20625 36.33125 125.87813 35.83125Q126.56563 35.315624 126.97188 34.20625ZM121.19063 31.3625L126.9875 31.3625Q126.87813 30.065624 126.33125 29.409374Q125.4875 28.39375 124.14375 28.39375Q122.94063 28.39375 122.1125 29.20625Q121.28438 30.003124 121.19063 31.3625ZM136.45625 32.95625L138.2375 32.8Q138.3625 33.8625 138.81563 34.55Q139.28438 35.2375 140.25313 35.675Q141.2375 36.096874 142.47188 36.096874Q143.55 36.096874 144.37813 35.784374Q145.20625 35.45625 145.6125 34.89375Q146.01875 34.33125 146.01875 33.659374Q146.01875 32.9875 145.62813 32.4875Q145.2375 31.9875 144.34688 31.64375Q143.76875 31.409374 141.78438 30.940624Q139.81563 30.471874 139.03438 30.05Q138.00313 29.51875 137.50313 28.721874Q137.00313 27.925 137.00313 26.940624Q137.00313 25.846874 137.6125 24.909374Q138.22188 23.971874 139.40938 23.4875Q140.59688 22.9875 142.03438 22.9875Q143.62813 22.9875 144.84688 23.503124Q146.06563 24.01875 146.70625 25.01875Q147.3625 26.003124 147.40938 27.26875L145.59688 27.409374Q145.45625 26.05 144.6125 25.3625Q143.76875 24.659374 142.1125 24.659374Q140.39375 24.659374 139.59688 25.3Q138.81563 25.925 138.81563 26.8Q138.81563 27.58125 139.37813 28.08125Q139.925 28.58125 142.2375 29.096874Q144.55 29.6125 145.40938 30.003124Q146.65938 30.58125 147.25313 31.471874Q147.84688 32.346874 147.84688 33.503124Q147.84688 34.64375 147.19063 35.659374Q146.53438 36.675 145.3 37.2375Q144.08125 37.8 142.55 37.8Q140.6125 37.8 139.3 37.2375Q137.9875 36.659374 137.2375 35.51875Q136.4875 34.378124 136.45625 32.95625ZM149.87813 25.253124L149.87813 23.2375L151.64375 23.2375L151.64375 25.253124L149.87813 25.253124ZM149.87813 37.55L149.87813 27.175L151.64375 27.175L151.64375 37.55L149.87813 37.55ZM152.94063 37.55L152.94063 36.128124L159.55 28.55Q158.425 28.596874 157.56563 28.596874L153.33125 28.596874L153.33125 27.175L161.81563 27.175L161.81563 28.346874L156.19063 34.925L155.1125 36.128124Q156.28438 36.034374 157.33125 36.034374L162.12813 36.034374L162.12813 37.55L152.94063 37.55ZM169.97188 34.20625L171.78438 34.440624Q171.3625 36.01875 170.19063 36.909374Q169.03438 37.784374 167.22188 37.784374Q164.95625 37.784374 163.6125 36.39375Q162.28438 34.9875 162.28438 32.45625Q162.28438 29.83125 163.62813 28.39375Q164.97188 26.940624 167.12813 26.940624Q169.20625 26.940624 170.51875 28.3625Q171.84688 29.76875 171.84688 32.346874Q171.84688 32.503124 171.83125 32.815624L164.09688 32.815624Q164.19063 34.51875 165.06563 35.425Q165.94063 36.33125 167.2375 36.33125Q168.20625 36.33125 168.87813 35.83125Q169.56563 35.315624 169.97188 34.20625ZM164.19063 31.3625L169.9875 31.3625Q169.87813 30.065624 169.33125 29.409374Q168.4875 28.39375 167.14375 28.39375Q165.94063 28.39375 165.1125 29.20625Q164.28438 30.003124 164.19063 31.3625ZM183.22188 41.753124Q181.76875 39.925 180.76875 37.471874Q179.76875 35.003124 179.76875 32.3625Q179.76875 30.034374 180.51875 27.909374Q181.39375 25.440624 183.22188 22.9875L184.4875 22.9875Q183.3 25.01875 182.925 25.89375Q182.33125 27.2375 181.9875 28.70625Q181.56563 30.534374 181.56563 32.378124Q181.56563 37.065624 184.4875 41.753124L183.22188 41.753124ZM186.8625 37.55L186.8625 27.175L188.44063 27.175L188.44063 28.628124Q188.925 27.878124 189.7375 27.409374Q190.55 26.940624 191.58125 26.940624Q192.7375 26.940624 193.47188 27.425Q194.20625 27.89375 194.51875 28.753124Q195.75313 26.940624 197.72188 26.940624Q199.26875 26.940624 200.09688 27.8Q200.925 28.659374 200.925 30.425L200.925 37.55L199.175 37.55L199.175 31.01875Q199.175 29.95625 199.00313 29.503124Q198.83125 29.034374 198.37813 28.753124Q197.94063 28.471874 197.33125 28.471874Q196.2375 28.471874 195.50313 29.20625Q194.78438 29.925 194.78438 31.51875L194.78438 37.55L193.03438 37.55L193.03438 30.815624Q193.03438 29.64375 192.59688 29.065624Q192.175 28.471874 191.19063 28.471874Q190.45625 28.471874 189.81563 28.8625Q189.19063 29.253124 188.90938 30.003124Q188.62813 30.753124 188.62813 32.175L188.62813 37.55L186.8625 37.55ZM209.64375 36.26875Q208.65938 37.096874 207.75313 37.440624Q206.84688 37.784374 205.81563 37.784374Q204.1125 37.784374 203.19063 36.95625Q202.26875 36.1125 202.26875 34.815624Q202.26875 34.05 202.6125 33.425Q202.97188 32.8 203.53438 32.425Q204.09688 32.034374 204.8 31.83125Q205.31563 31.70625 206.3625 31.565624Q208.4875 31.315624 209.4875 30.971874Q209.50313 30.6125 209.50313 30.503124Q209.50313 29.440624 209.00313 28.9875Q208.33125 28.39375 207.00313 28.39375Q205.75313 28.39375 205.15938 28.83125Q204.58125 29.26875 204.3 30.378124L202.58125 30.14375Q202.81563 29.034374 203.34688 28.3625Q203.87813 27.675 204.89375 27.315624Q205.90938 26.940624 207.25313 26.940624Q208.58125 26.940624 209.40938 27.253124Q210.2375 27.565624 210.62813 28.05Q211.01875 28.51875 211.175 29.2375Q211.26875 29.690624 211.26875 30.8625L211.26875 33.20625Q211.26875 35.659374 211.37813 36.315624Q211.4875 36.95625 211.83125 37.55L209.9875 37.55Q209.72188 37.003124 209.64375 36.26875ZM209.4875 32.346874Q208.53438 32.7375 206.6125 33.003124Q205.53438 33.159374 205.08125 33.3625Q204.64375 33.55 204.39375 33.925Q204.14375 34.3 204.14375 34.76875Q204.14375 35.471874 204.675 35.940624Q205.20625 36.409374 206.2375 36.409374Q207.25313 36.409374 208.03438 35.971874Q208.83125 35.51875 209.20625 34.753124Q209.4875 34.14375 209.4875 32.9875L209.4875 32.346874ZM217.70625 35.971874L217.95625 37.534374Q217.22188 37.690624 216.62813 37.690624Q215.675 37.690624 215.14375 37.39375Q214.62813 37.08125 214.40938 36.596874Q214.19063 36.096874 214.19063 34.51875L214.19063 28.55L212.90938 28.55L212.90938 27.175L214.19063 27.175L214.19063 24.6125L215.94063 23.55L215.94063 27.175L217.70625 27.175L217.70625 28.55L215.94063 28.55L215.94063 34.6125Q215.94063 35.3625 216.03438 35.58125Q216.12813 35.784374 216.33125 35.925Q216.55 36.05 216.94063 36.05Q217.22188 36.05 217.70625 35.971874ZM219.84688 37.55L219.84688 27.175L221.425 27.175L221.425 28.753124Q222.03438 27.64375 222.55 27.3Q223.06563 26.940624 223.675 26.940624Q224.56563 26.940624 225.4875 27.503124L224.87813 29.14375Q224.2375 28.753124 223.59688 28.753124Q223.01875 28.753124 222.55 29.1125Q222.09688 29.45625 221.89375 30.065624Q221.6125 31.003124 221.6125 32.1125L221.6125 37.55L219.84688 37.55ZM226.87813 25.253124L226.87813 23.2375L228.64375 23.2375L228.64375 25.253124L226.87813 25.253124ZM226.87813 37.55L226.87813 27.175L228.64375 27.175L228.64375 37.55L226.87813 37.55ZM229.69063 37.55L233.4875 32.159374L229.9875 27.175L232.175 27.175L233.76875 29.6125Q234.22188 30.3 234.4875 30.76875Q234.925 30.128124 235.28438 29.628124L237.03438 27.175L239.12813 27.175L235.55 32.065624L239.40938 37.55L237.25313 37.55L235.1125 34.33125L234.55 33.45625L231.83125 37.55L229.69063 37.55ZM245.15938 34.45625L246.90938 34.175Q247.05 35.221874 247.72188 35.784374Q248.39375 36.33125 249.59688 36.33125Q250.8 36.33125 251.37813 35.846874Q251.97188 35.346874 251.97188 34.690624Q251.97188 34.096874 251.45625 33.753124Q251.09688 33.51875 249.65938 33.159374Q247.72188 32.659374 246.97188 32.315624Q246.2375 31.95625 245.84688 31.33125Q245.45625 30.690624 245.45625 29.925Q245.45625 29.2375 245.76875 28.64375Q246.09688 28.05 246.64375 27.659374Q247.05 27.3625 247.75313 27.159374Q248.47188 26.940624 249.28438 26.940624Q250.50313 26.940624 251.425 27.3Q252.34688 27.64375 252.78438 28.253124Q253.22188 28.846874 253.39375 29.846874L251.675 30.08125Q251.55 29.284374 250.9875 28.846874Q250.425 28.39375 249.40938 28.39375Q248.19063 28.39375 247.675 28.8Q247.15938 29.190624 247.15938 29.721874Q247.15938 30.065624 247.37813 30.346874Q247.58125 30.628124 248.05 30.815624Q248.31563 30.909374 249.59688 31.253124Q251.47188 31.753124 252.20625 32.08125Q252.94063 32.39375 253.3625 33.003124Q253.78438 33.596874 253.78438 34.503124Q253.78438 35.378124 253.26875 36.159374Q252.75313 36.940624 251.78438 37.3625Q250.81563 37.784374 249.59688 37.784374Q247.58125 37.784374 246.51875 36.940624Q245.45625 36.096874 245.15938 34.45625ZM255.87813 25.253124L255.87813 23.2375L257.64374 23.2375L257.64374 25.253124L255.87813 25.253124ZM255.87813 37.55L255.87813 27.175L257.64374 27.175L257.64374 37.55L255.87813 37.55ZM258.9406 37.55L258.9406 36.128124L265.55 28.55Q264.425 28.596874 263.5656 28.596874L259.33124 28.596874L259.33124 27.175L267.8156 27.175L267.8156 28.346874L262.1906 34.925L261.1125 36.128124Q262.28436 36.034374 263.33124 36.034374L268.1281 36.034374L268.1281 37.55L258.9406 37.55ZM275.97186 34.20625L277.78436 34.440624Q277.3625 36.01875 276.1906 36.909374Q275.03436 37.784374 273.22186 37.784374Q270.95624 37.784374 269.6125 36.39375Q268.28436 34.9875 268.28436 32.45625Q268.28436 29.83125 269.6281 28.39375Q270.97186 26.940624 273.1281 26.940624Q275.20624 26.940624 276.51874 28.3625Q277.84686 29.76875 277.84686 32.346874Q277.84686 32.503124 277.83124 32.815624L270.09686 32.815624Q270.1906 34.51875 271.0656 35.425Q271.9406 36.33125 273.2375 36.33125Q274.20624 36.33125 274.8781 35.83125Q275.5656 35.315624 275.97186 34.20625ZM270.1906 31.3625L275.9875 31.3625Q275.8781 30.065624 275.33124 29.409374Q274.4875 28.39375 273.14374 28.39375Q271.9406 28.39375 271.1125 29.20625Q270.28436 30.003124 270.1906 31.3625ZM289.1125 29.128124L279.65936 29.128124L279.65936 27.4875L289.1125 27.4875L289.1125 29.128124ZM289.1125 33.471874L279.65936 33.471874L279.65936 31.83125L289.1125 31.83125L289.1125 33.471874ZM297.01874 37.55L297.01874 34.128124L290.8 34.128124L290.8 32.503124L297.33124 23.2375L298.76874 23.2375L298.76874 32.503124L300.70624 32.503124L300.70624 34.128124L298.76874 34.128124L298.76874 37.55L297.01874 37.55ZM297.01874 32.503124L297.01874 26.05L292.53436 32.503124L297.01874 32.503124ZM302.3781 30.4875Q302.3781 27.95625 302.89374 26.409374Q303.425 24.846874 304.45624 24.01875Q305.4875 23.175 307.05 23.175Q308.20624 23.175 309.0656 23.64375Q309.9406 24.096874 310.5031 24.971874Q311.0656 25.846874 311.39374 27.1125Q311.72186 28.3625 311.72186 30.4875Q311.72186 33.003124 311.1906 34.55Q310.675 36.096874 309.64374 36.95625Q308.6281 37.8 307.05 37.8Q304.97186 37.8 303.8 36.315624Q302.3781 34.51875 302.3781 30.4875ZM304.1906 30.4875Q304.1906 34.01875 305.0031 35.190624Q305.83124 36.346874 307.05 36.346874Q308.2531 36.346874 309.08124 35.175Q309.90936 34.003124 309.90936 30.4875Q309.90936 26.95625 309.08124 25.8Q308.2531 24.628124 307.03436 24.628124Q305.8156 24.628124 305.09686 25.659374Q304.1906 26.95625 304.1906 30.4875ZM313.64374 34.2375L315.33124 34.08125Q315.55 35.26875 316.14374 35.815624Q316.7531 36.346874 317.70624 36.346874Q318.51874 36.346874 319.1281 35.9875Q319.7375 35.6125 320.1281 34.9875Q320.51874 34.3625 320.78436 33.315624Q321.05 32.253124 321.05 31.159374Q321.05 31.05 321.03436 30.815624Q320.5031 31.64375 319.59686 32.175Q318.6906 32.690624 317.6125 32.690624Q315.84686 32.690624 314.6125 31.409374Q313.3781 30.1125 313.3781 28.003124Q313.3781 25.83125 314.65936 24.503124Q315.95624 23.175 317.8781 23.175Q319.28436 23.175 320.4406 23.925Q321.59686 24.675 322.1906 26.065624Q322.8 27.45625 322.8 30.096874Q322.8 32.846874 322.1906 34.471874Q321.59686 36.096874 320.425 36.95625Q319.2531 37.8 317.675 37.8Q315.9875 37.8 314.925 36.8625Q313.8625 35.925 313.64374 34.2375ZM320.84686 27.925Q320.84686 26.409374 320.03436 25.51875Q319.2375 24.628124 318.09686 24.628124Q316.925 24.628124 316.05 25.596874Q315.1906 26.55 315.1906 28.065624Q315.1906 29.440624 316.0031 30.3Q316.83124 31.14375 318.05 31.14375Q319.26874 31.14375 320.05 30.3Q320.84686 29.440624 320.84686 27.925ZM333.5031 26.7375L331.7531 26.878124Q331.51874 25.846874 331.09686 25.378124Q330.3781 24.6125 329.33124 24.6125Q328.4875 24.6125 327.8625 25.08125Q327.03436 25.690624 326.55 26.8625Q326.0656 28.01875 326.05 30.159374Q326.6906 29.20625 327.59686 28.7375Q328.51874 28.26875 329.53436 28.26875Q331.28436 28.26875 332.51874 29.565624Q333.7531 30.846874 333.7531 32.89375Q333.7531 34.253124 333.175 35.409374Q332.59686 36.565624 331.58124 37.190624Q330.5656 37.8 329.26874 37.8Q327.08124 37.8 325.6906 36.190624Q324.3 34.565624 324.3 30.846874Q324.3 26.70625 325.83124 24.815624Q327.175 23.175 329.4406 23.175Q331.1281 23.175 332.20624 24.128124Q333.28436 25.065624 333.5031 26.7375ZM326.33124 32.909374Q326.33124 33.815624 326.70624 34.64375Q327.09686 35.471874 327.78436 35.909374Q328.4875 36.346874 329.2375 36.346874Q330.3625 36.346874 331.15936 35.45625Q331.95624 34.55 331.95624 33.003124Q331.95624 31.51875 331.15936 30.675Q330.3781 29.815624 329.175 29.815624Q327.9875 29.815624 327.15936 30.675Q326.33124 31.51875 326.33124 32.909374ZM337.01874 41.753124L335.76874 41.753124Q338.675 37.065624 338.675 32.378124Q338.675 30.534374 338.26874 28.7375Q337.925 27.26875 337.33124 25.925Q336.95624 25.034374 335.76874 22.9875L337.01874 22.9875Q338.8625 25.440624 339.7375 27.909374Q340.4875 30.034374 340.4875 32.3625Q340.4875 35.003124 339.47186 37.471874Q338.47186 39.925 337.01874 41.753124Z" fill-rule="nonzero"/></svg>