<svg version="1.1" viewBox="0.0 0.0 600.0 371.0" fill="none" stroke="none" stroke-linecap="square" stroke-miterlimit="10" width="600" height="371" xmlns:xlink="http://www.w3.org/1999/xlink" xmlns="http://www.w3.org/2000/svg"><path fill="#ffffff" d="M0 0L600.0 0L600.0 371.0L0 371.0L0 0Z" fill-rule="nonzero"/><path stroke="#333333" stroke-width="1.0" stroke-linecap="butt" d="M45.5 300.5L581.5 300.5" fill-rule="nonzero"/><path stroke="#cccccc" stroke-width="1.0" stroke-linecap="butt" d="M45.5 229.5L581.5 229.5" fill-rule="nonzero"/><path stroke="#cccccc" stroke-width="1.0" stroke-linecap="butt" d="M45.5 159.5L581.5 159.5" fill-rule="nonzero"/><path stroke="#cccccc" stroke-width="1.0" stroke-linecap="butt" d="M45.5 88.5L581.5 88.5" fill-rule="nonzero"/><clipPath id="id_0"><path d="M45.55 88.28333L581.45 88.28333L581.45 300.45L45.55 300.45L45.55 88.28333Z" clip-rule="nonzero"/></clipPath><path stroke="#000000" stroke-width="2.0" stroke-linecap="butt" stroke-opacity="0.0" clip-path="url(#id_0)" d="M112.0 300.0L81.0 300.0L81.0 268.0C81.0 266.89542 81.89543 266.0 83.0 266.0L110.0 266.0C111.10457 266.0 112.0 266.89542 112.0 268.0Z" fill-rule="nonzero"/><path fill="#4285f4" clip-path="url(#id_0)" d="M112.0 300.0L81.0 300.0L81.0 268.0C81.0 266.89542 81.89543 266.0 83.0 266.0L110.0 266.0C111.10457 266.0 112.0 266.89542 112.0 268.0Z" fill-rule="nonzero"/><path stroke="#000000" stroke-width="2.0" stroke-linecap="butt" stroke-opacity="0.0" clip-path="url(#id_0)" d="M212.0 300.0L181.0 300.0L181.0 256.0C181.0 254.89543 181.89543 254.0 183.0 254.0L210.0 254.0C211.10457 254.0 212.0 254.89543 212.0 256.0Z" fill-rule="nonzero"/><path fill="#4285f4" clip-path="url(#id_0)" d="M212.0 300.0L181.0 300.0L181.0 256.0C181.0 254.89543 181.89543 254.0 183.0 254.0L210.0 254.0C211.10457 254.0 212.0 254.89543 212.0 256.0Z" fill-rule="nonzero"/><path stroke="#000000" stroke-width="2.0" stroke-linecap="butt" stroke-opacity="0.0" clip-path="url(#id_0)" d="M313.0 300.0L282.0 300.0L282.0 254.0C282.0 252.89543 282.89542 252.0 284.0 252.0L311.0 252.0C312.10458 252.0 313.0 252.89543 313.0 254.0Z" fill-rule="nonzero"/><path fill="#4285f4" clip-path="url(#id_0)" d="M313.0 300.0L282.0 300.0L282.0 254.0C282.0 252.89543 282.89542 252.0 284.0 252.0L311.0 252.0C312.10458 252.0 313.0 252.89543 313.0 254.0Z" fill-rule="nonzero"/><path stroke="#000000" stroke-width="2.0" stroke-linecap="butt" stroke-opacity="0.0" clip-path="url(#id_0)" d="M413.0 300.0L382.0 300.0L382.0 226.0C382.0 224.89543 382.89542 224.0 384.0 224.0L411.0 224.0C412.10458 224.0 413.0 224.89543 413.0 226.0Z" fill-rule="nonzero"/><path fill="#4285f4" clip-path="url(#id_0)" d="M413.0 300.0L382.0 300.0L382.0 226.0C382.0 224.89543 382.89542 224.0 384.0 224.0L411.0 224.0C412.10458 224.0 413.0 224.89543 413.0 226.0Z" fill-rule="nonzero"/><path stroke="#000000" stroke-width="2.0" stroke-linecap="butt" stroke-opacity="0.0" clip-path="url(#id_0)" d="M513.0 300.0L482.0 300.0L482.0 136.0C482.0 134.89543 482.89542 134.0 484.0 134.0L511.0 134.0C512.10455 134.0 513.0 134.89543 513.0 136.0Z" fill-rule="nonzero"/><path fill="#4285f4" clip-path="url(#id_0)" d="M513.0 300.0L482.0 300.0L482.0 136.0C482.0 134.89543 482.89542 134.0 484.0 134.0L511.0 134.0C512.10455 134.0 513.0 134.89543 513.0 136.0Z" fill-rule="nonzero"/><path stroke="#000000" stroke-width="2.0" stroke-linecap="butt" stroke-opacity="0.0" clip-path="url(#id_0)" d="M145.0 300.0L114.0 300.0L114.0 261.0C114.0 259.89542 114.89543 259.0 116.0 259.0L143.0 259.0C144.10457 259.0 145.0 259.89542 145.0 261.0Z" fill-rule="nonzero"/><path fill="#ea4335" clip-path="url(#id_0)" d="M145.0 300.0L114.0 300.0L114.0 261.0C114.0 259.89542 114.89543 259.0 116.0 259.0L143.0 259.0C144.10457 259.0 145.0 259.89542 145.0 261.0Z" fill-rule="nonzero"/><path stroke="#000000" stroke-width="2.0" stroke-linecap="butt" stroke-opacity="0.0" clip-path="url(#id_0)" d="M245.0 300.0L214.0 300.0L214.0 248.0C214.0 246.89543 214.89543 246.0 216.0 246.0L243.0 246.0C244.10457 246.0 245.0 246.89543 245.0 248.0Z" fill-rule="nonzero"/><path fill="#ea4335" clip-path="url(#id_0)" d="M245.0 300.0L214.0 300.0L214.0 248.0C214.0 246.89543 214.89543 246.0 216.0 246.0L243.0 246.0C244.10457 246.0 245.0 246.89543 245.0 248.0Z" fill-rule="nonzero"/><path stroke="#000000" stroke-width="2.0" stroke-linecap="butt" stroke-opacity="0.0" clip-path="url(#id_0)" d="M346.0 300.0L315.0 300.0L315.0 246.0C315.0 244.89543 315.89542 244.0 317.0 244.0L344.0 244.0C345.10458 244.0 346.0 244.89543 346.0 246.0Z" fill-rule="nonzero"/><path fill="#ea4335" clip-path="url(#id_0)" d="M346.0 300.0L315.0 300.0L315.0 246.0C315.0 244.89543 315.89542 244.0 317.0 244.0L344.0 244.0C345.10458 244.0 346.0 244.89543 346.0 246.0Z" fill-rule="nonzero"/><path stroke="#000000" stroke-width="2.0" stroke-linecap="butt" stroke-opacity="0.0" clip-path="url(#id_0)" d="M446.0 300.0L415.0 300.0L415.0 211.0C415.0 209.89543 415.89542 209.0 417.0 209.0L444.0 209.0C445.10458 209.0 446.0 209.89543 446.0 211.0Z" fill-rule="nonzero"/><path fill="#ea4335" clip-path="url(#id_0)" d="M446.0 300.0L415.0 300.0L415.0 211.0C415.0 209.89543 415.89542 209.0 417.0 209.0L444.0 209.0C445.10458 209.0 446.0 209.89543 446.0 211.0Z" fill-rule="nonzero"/><path stroke="#000000" stroke-width="2.0" stroke-linecap="butt" stroke-opacity="0.0" clip-path="url(#id_0)" d="M546.0 300.0L515.0 300.0L515.0 103.0C515.0 101.89543 515.89545 101.0 517.0 101.0L544.0 101.0C545.10455 101.0 546.0 101.89543 546.0 103.0Z" fill-rule="nonzero"/><path fill="#ea4335" clip-path="url(#id_0)" d="M546.0 300.0L515.0 300.0L515.0 103.0C515.0 101.89543 515.89545 101.0 517.0 101.0L544.0 101.0C545.10455 101.0 546.0 101.89543 546.0 103.0Z" fill-rule="nonzero"/><path fill="#000000" d="M285.89062 349.45L285.89062 340.85626L287.60938 340.85626L289.64062 346.9344Q289.92188 347.79376 290.04688 348.21564Q290.1875 347.7469 290.5 346.84064L292.5625 340.85626L294.09375 340.85626L294.09375 349.45L293.0 349.45L293.0 342.2625L290.5 349.45L289.46875 349.45L286.98438 342.1375L286.98438 349.45L285.89062 349.45ZM298.85938 348.6844Q298.26562 349.1844 297.71875 349.3875Q297.1875 349.59064 296.5625 349.59064Q295.53125 349.59064 294.98438 349.09064Q294.4375 348.59064 294.4375 347.8094Q294.4375 347.35626 294.64062 346.98126Q294.84375 346.59064 295.1875 346.3719Q295.53125 346.1375 295.95312 346.02814Q296.25 345.9344 296.89062 345.85626Q298.15625 345.71564 298.76562 345.4969Q298.76562 345.27814 298.76562 345.23126Q298.76562 344.575 298.46875 344.3094Q298.0625 343.96564 297.26562 343.96564Q296.53125 343.96564 296.17188 344.23126Q295.8125 344.48126 295.64062 345.1375L294.60938 344.9969Q294.75 344.34064 295.07812 343.9344Q295.40625 343.52814 296.01562 343.3094Q296.625 343.09064 297.42188 343.09064Q298.21875 343.09064 298.71875 343.27814Q299.21875 343.46564 299.45312 343.7469Q299.6875 344.02814 299.78125 344.46564Q299.82812 344.73126 299.82812 345.4344L299.82812 346.84064Q299.82812 348.3094 299.89062 348.7Q299.96875 349.09064 300.17188 349.45L299.0625 349.45Q298.90625 349.1219 298.85938 348.6844ZM298.76562 346.325Q298.1875 346.5594 297.04688 346.73126Q296.39062 346.825 296.125 346.95Q295.85938 347.0594 295.70312 347.27814Q295.5625 347.4969 295.5625 347.77814Q295.5625 348.2 295.875 348.48126Q296.20312 348.7625 296.8125 348.7625Q297.42188 348.7625 297.89062 348.4969Q298.375 348.23126 298.59375 347.7625Q298.76562 347.40314 298.76562 346.71564L298.76562 346.325ZM304.09375 348.5125L304.25 349.4344Q303.79688 349.52814 303.45312 349.52814Q302.875 349.52814 302.5625 349.35626Q302.25 349.16876 302.10938 348.8719Q301.98438 348.575 301.98438 347.6219L301.98438 344.04376L301.21875 344.04376L301.21875 343.23126L301.98438 343.23126L301.98438 341.6844L303.03125 341.0594L303.03125 343.23126L304.09375 343.23126L304.09375 344.04376L303.03125 344.04376L303.03125 347.6844Q303.03125 348.1375 303.07812 348.2625Q303.14062 348.3875 303.26562 348.46564Q303.39062 348.54376 303.625 348.54376Q303.8125 348.54376 304.09375 348.5125ZM304.78125 349.45L304.78125 343.23126L305.73438 343.23126L305.73438 344.16876Q306.09375 343.5125 306.39062 343.3094Q306.70312 343.09064 307.07812 343.09064Q307.60938 343.09064 308.15625 343.41876L307.79688 344.40314Q307.40625 344.16876 307.03125 344.16876Q306.67188 344.16876 306.39062 344.3875Q306.125 344.59064 306.01562 344.96564Q305.82812 345.52814 305.82812 346.1844L305.82812 349.45L304.78125 349.45ZM308.79688 342.075L308.79688 340.85626L309.85938 340.85626L309.85938 342.075L308.79688 342.075ZM308.79688 349.45L308.79688 343.23126L309.85938 343.23126L309.85938 349.45L308.79688 349.45ZM311.09375 349.45L313.35938 346.21564L311.26562 343.23126L312.57812 343.23126L313.53125 344.6844Q313.79688 345.10626 313.96875 345.3875Q314.21875 344.9969 314.4375 344.7L315.48438 343.23126L316.75 343.23126L314.59375 346.15314L316.90625 349.45L315.625 349.45L314.34375 347.5125L314.0 346.9969L312.35938 349.45L311.09375 349.45ZM319.54688 346.6844L320.60938 346.59064Q320.6875 347.2469 320.96875 347.65314Q321.25 348.0594 321.82812 348.325Q322.42188 348.575 323.15625 348.575Q323.79688 348.575 324.29688 348.3875Q324.79688 348.1844 325.03125 347.85626Q325.28125 347.5125 325.28125 347.1219Q325.28125 346.71564 325.04688 346.41876Q324.8125 346.10626 324.28125 345.90314Q323.92188 345.7625 322.73438 345.48126Q321.5625 345.2 321.09375 344.95Q320.46875 344.6219 320.17188 344.15314Q319.875 343.66876 319.875 343.075Q319.875 342.4344 320.23438 341.8719Q320.60938 341.29376 321.3125 341.0125Q322.03125 340.71564 322.89062 340.71564Q323.84375 340.71564 324.57812 341.02814Q325.3125 341.325 325.70312 341.9344Q326.09375 342.52814 326.125 343.27814L325.03125 343.35626Q324.9375 342.54376 324.42188 342.1375Q323.92188 341.71564 322.9375 341.71564Q321.90625 341.71564 321.4375 342.09064Q320.96875 342.46564 320.96875 342.9969Q320.96875 343.46564 321.29688 343.7625Q321.625 344.0594 323.0 344.3719Q324.39062 344.6844 324.90625 344.91876Q325.65625 345.27814 326.01562 345.8094Q326.375 346.325 326.375 347.02814Q326.375 347.71564 325.98438 348.325Q325.59375 348.91876 324.85938 349.2625Q324.125 349.59064 323.20312 349.59064Q322.03125 349.59064 321.23438 349.2625Q320.45312 348.91876 320.0 348.23126Q319.5625 347.54376 319.54688 346.6844ZM327.79688 342.075L327.79688 340.85626L328.85938 340.85626L328.85938 342.075L327.79688 342.075ZM327.79688 349.45L327.79688 343.23126L328.85938 343.23126L328.85938 349.45L327.79688 349.45ZM330.23438 349.45L330.23438 348.59064L334.20312 344.04376Q333.51562 344.075 333.0 344.075L330.46875 344.075L330.46875 343.23126L335.5625 343.23126L335.5625 343.91876L332.1875 347.8719L331.53125 348.59064Q332.25 348.54376 332.85938 348.54376L335.75 348.54376L335.75 349.45L330.23438 349.45ZM340.04688 347.45L341.14062 347.575Q340.89062 348.52814 340.1875 349.0594Q339.48438 349.59064 338.40625 349.59064Q337.04688 349.59064 336.23438 348.7469Q335.4375 347.90314 335.4375 346.3875Q335.4375 344.825 336.25 343.96564Q337.0625 343.09064 338.34375 343.09064Q339.59375 343.09064 340.375 343.9344Q341.17188 344.77814 341.17188 346.325Q341.17188 346.41876 341.17188 346.60626L336.53125 346.60626Q336.59375 347.6375 337.10938 348.1844Q337.625 348.71564 338.40625 348.71564Q338.98438 348.71564 339.39062 348.41876Q339.8125 348.10626 340.04688 347.45ZM336.59375 345.7469L340.0625 345.7469Q340.0 344.95 339.67188 344.5594Q339.15625 343.95 338.35938 343.95Q337.625 343.95 337.125 344.4344Q336.64062 344.91876 336.59375 345.7469Z" fill-rule="nonzero"/><path fill="#000000" d="M33.05 300.21564Q33.05 298.6844 33.3625 297.7625Q33.675 296.825 34.284374 296.325Q34.909374 295.825 35.846874 295.825Q36.534374 295.825 37.05 296.10626Q37.58125 296.3875 37.925 296.91876Q38.26875 297.4344 38.45625 298.1844Q38.64375 298.9344 38.64375 300.21564Q38.64375 301.73126 38.33125 302.65314Q38.034374 303.575 37.409374 304.09064Q36.8 304.59064 35.846874 304.59064Q34.6125 304.59064 33.89375 303.7Q33.05 302.6375 33.05 300.21564ZM34.128124 300.21564Q34.128124 302.325 34.628124 303.02814Q35.128124 303.73126 35.846874 303.73126Q36.58125 303.73126 37.065624 303.02814Q37.565624 302.325 37.565624 300.21564Q37.565624 298.09064 37.065624 297.40314Q36.58125 296.7 35.83125 296.7Q35.1125 296.7 34.675 297.3094Q34.128124 298.09064 34.128124 300.21564Z" fill-rule="nonzero"/><path fill="#000000" d="M38.596874 232.71216L38.596874 233.72778L32.909374 233.72778Q32.909374 233.35278 33.034374 232.99341Q33.253124 232.41528 33.721874 231.85278Q34.20625 231.29028 35.1125 230.55591Q36.51875 229.39966 37.003124 228.72778Q37.503124 228.05591 37.503124 227.46216Q37.503124 226.83716 37.05 226.41528Q36.596874 225.97778 35.878124 225.97778Q35.1125 225.97778 34.659374 226.43091Q34.20625 226.88403 34.190624 227.69653L33.1125 227.58716Q33.221874 226.36841 33.940624 225.74341Q34.675 225.10278 35.909374 225.10278Q37.14375 225.10278 37.8625 225.79028Q38.58125 226.47778 38.58125 227.49341Q38.58125 228.00903 38.3625 228.50903Q38.159374 228.99341 37.659374 229.55591Q37.175 230.10278 36.05 231.05591Q35.096874 231.85278 34.815624 232.14966Q34.55 232.43091 34.378124 232.71216L38.596874 232.71216Z" fill-rule="nonzero"/><path fill="#000000" d="M36.425 163.00555L36.425 160.94305L32.70625 160.94305L32.70625 159.9743L36.628124 154.4118L37.4875 154.4118L37.4875 159.9743L38.64375 159.9743L38.64375 160.94305L37.4875 160.94305L37.4875 163.00555L36.425 163.00555ZM36.425 159.9743L36.425 156.11493L33.7375 159.9743L36.425 159.9743Z" fill-rule="nonzero"/><path fill="#000000" d="M38.51875 85.79896L37.471874 85.87708Q37.33125 85.25208 37.08125 84.97083Q36.64375 84.51771 36.01875 84.51771Q35.51875 84.51771 35.128124 84.79896Q34.64375 85.17396 34.346874 85.87708Q34.065624 86.56458 34.05 87.84583Q34.425 87.26771 34.971874 86.98646Q35.534374 86.70521 36.14375 86.70521Q37.190624 86.70521 37.925 87.48646Q38.675 88.26771 38.675 89.48646Q38.675 90.29896 38.315624 91.00208Q37.971874 91.68958 37.3625 92.06458Q36.753124 92.42396 35.9875 92.42396Q34.659374 92.42396 33.83125 91.45521Q33.003124 90.48646 33.003124 88.26771Q33.003124 85.76771 33.925 84.64271Q34.721874 83.65833 36.08125 83.65833Q37.096874 83.65833 37.7375 84.23646Q38.39375 84.79896 38.51875 85.79896ZM34.221874 89.50208Q34.221874 90.04896 34.440624 90.54896Q34.675 91.03333 35.08125 91.29896Q35.503124 91.56458 35.971874 91.56458Q36.628124 91.56458 37.1125 91.03333Q37.596874 90.48646 37.596874 89.56458Q37.596874 88.67396 37.1125 88.15833Q36.64375 87.64271 35.925 87.64271Q35.20625 87.64271 34.70625 88.15833Q34.221874 88.67396 34.221874 89.50208Z" fill-rule="nonzero"/><path fill="#000000" d="M108.71043 316.4344L108.71043 317.45L103.02293 317.45Q103.02293 317.075 103.14793 316.71564Q103.36668 316.1375 103.83543 315.575Q104.3198 315.0125 105.22605 314.27814Q106.6323 313.1219 107.11668 312.45Q107.61668 311.77814 107.61668 311.1844Q107.61668 310.5594 107.16355 310.1375Q106.71043 309.7 105.99168 309.7Q105.22605 309.7 104.77293 310.15314Q104.3198 310.60626 104.30418 311.41876L103.22605 311.3094Q103.33543 310.09064 104.05418 309.46564Q104.78855 308.825 106.02293 308.825Q107.2573 308.825 107.97605 309.5125Q108.6948 310.2 108.6948 311.21564Q108.6948 311.73126 108.47605 312.23126Q108.27293 312.71564 107.77293 313.27814Q107.28855 313.825 106.16355 314.77814Q105.21043 315.575 104.92918 315.8719Q104.66355 316.15314 104.49168 316.4344L108.71043 316.4344ZM110.16355 315.2L111.27293 315.10626Q111.39793 315.91876 111.83543 316.325Q112.28855 316.73126 112.92918 316.73126Q113.67918 316.73126 114.21043 316.15314Q114.74168 315.575 114.74168 314.6375Q114.74168 313.73126 114.22605 313.21564Q113.72605 312.6844 112.89793 312.6844Q112.39793 312.6844 111.97605 312.91876Q111.5698 313.15314 111.33543 313.5125L110.35105 313.3875L111.17918 308.98126L115.46043 308.98126L115.46043 309.98126L112.02293 309.98126L111.5698 312.29376Q112.33543 311.7469 113.17918 311.7469Q114.30418 311.7469 115.0698 312.52814Q115.85105 313.3094 115.85105 314.54376Q115.85105 315.7 115.17918 316.5594Q114.35105 317.59064 112.92918 317.59064Q111.7573 317.59064 111.0073 316.9344Q110.27293 316.27814 110.16355 315.2ZM122.6323 310.96564L121.58543 311.04376Q121.4448 310.41876 121.1948 310.1375Q120.7573 309.6844 120.1323 309.6844Q119.6323 309.6844 119.24168 309.96564Q118.7573 310.34064 118.46043 311.04376Q118.17918 311.73126 118.16355 313.0125Q118.53855 312.4344 119.08543 312.15314Q119.64793 311.8719 120.2573 311.8719Q121.30418 311.8719 122.03855 312.65314Q122.78855 313.4344 122.78855 314.65314Q122.78855 315.46564 122.42918 316.16876Q122.08543 316.85626 121.47605 317.23126Q120.86668 317.59064 120.10105 317.59064Q118.77293 317.59064 117.9448 316.6219Q117.11668 315.65314 117.11668 313.4344Q117.11668 310.9344 118.03855 309.8094Q118.83543 308.825 120.1948 308.825Q121.21043 308.825 121.85105 309.40314Q122.5073 309.96564 122.6323 310.96564ZM118.33543 314.66876Q118.33543 315.21564 118.55418 315.71564Q118.78855 316.2 119.1948 316.46564Q119.61668 316.73126 120.08543 316.73126Q120.74168 316.73126 121.22605 316.2Q121.71043 315.65314 121.71043 314.73126Q121.71043 313.84064 121.22605 313.325Q120.7573 312.8094 120.03855 312.8094Q119.3198 312.8094 118.8198 313.325Q118.33543 313.84064 118.33543 314.66876Z" fill-rule="nonzero"/><path fill="#000000" d="M203.33177 315.2L204.44115 315.10626Q204.56615 315.91876 205.00365 316.325Q205.45677 316.73126 206.0974 316.73126Q206.8474 316.73126 207.37865 316.15314Q207.9099 315.575 207.9099 314.6375Q207.9099 313.73126 207.39427 313.21564Q206.89427 312.6844 206.06615 312.6844Q205.56615 312.6844 205.14427 312.91876Q204.73802 313.15314 204.50365 313.5125L203.51927 313.3875L204.3474 308.98126L208.62865 308.98126L208.62865 309.98126L205.19115 309.98126L204.73802 312.29376Q205.50365 311.7469 206.3474 311.7469Q207.4724 311.7469 208.23802 312.52814Q209.01927 313.3094 209.01927 314.54376Q209.01927 315.7 208.3474 316.5594Q207.51927 317.59064 206.0974 317.59064Q204.92552 317.59064 204.17552 316.9344Q203.44115 316.27814 203.33177 315.2ZM214.30052 317.45L213.25365 317.45L213.25365 310.73126Q212.86302 311.09064 212.23802 311.46564Q211.62865 311.825 211.14427 311.9969L211.14427 310.98126Q212.01927 310.5594 212.67552 309.98126Q213.3474 309.3875 213.62865 308.825L214.30052 308.825L214.30052 317.45ZM222.87865 316.4344L222.87865 317.45L217.19115 317.45Q217.19115 317.075 217.31615 316.71564Q217.5349 316.1375 218.00365 315.575Q218.48802 315.0125 219.39427 314.27814Q220.80052 313.1219 221.2849 312.45Q221.7849 311.77814 221.7849 311.1844Q221.7849 310.5594 221.33177 310.1375Q220.87865 309.7 220.1599 309.7Q219.39427 309.7 218.94115 310.15314Q218.48802 310.60626 218.4724 311.41876L217.39427 311.3094Q217.50365 310.09064 218.2224 309.46564Q218.95677 308.825 220.19115 308.825Q221.42552 308.825 222.14427 309.5125Q222.86302 310.2 222.86302 311.21564Q222.86302 311.73126 222.64427 312.23126Q222.44115 312.71564 221.94115 313.27814Q221.45677 313.825 220.33177 314.77814Q219.37865 315.575 219.0974 315.8719Q218.83177 316.15314 218.6599 316.4344L222.87865 316.4344Z" fill-rule="nonzero"/><path fill="#000000" d="M303.96875 317.45L302.92188 317.45L302.92188 310.73126Q302.53125 311.09064 301.90625 311.46564Q301.29688 311.825 300.8125 311.9969L300.8125 310.98126Q301.6875 310.5594 302.34375 309.98126Q303.01562 309.3875 303.29688 308.825L303.96875 308.825L303.96875 317.45ZM307.0 313.21564Q307.0 311.6844 307.3125 310.7625Q307.625 309.825 308.23438 309.325Q308.85938 308.825 309.79688 308.825Q310.48438 308.825 311.0 309.10626Q311.53125 309.3875 311.875 309.91876Q312.21875 310.4344 312.40625 311.1844Q312.59375 311.9344 312.59375 313.21564Q312.59375 314.73126 312.28125 315.65314Q311.98438 316.575 311.35938 317.09064Q310.75 317.59064 309.79688 317.59064Q308.5625 317.59064 307.84375 316.7Q307.0 315.6375 307.0 313.21564ZM308.07812 313.21564Q308.07812 315.325 308.57812 316.02814Q309.07812 316.73126 309.79688 316.73126Q310.53125 316.73126 311.01562 316.02814Q311.51562 315.325 311.51562 313.21564Q311.51562 311.09064 311.01562 310.40314Q310.53125 309.7 309.78125 309.7Q309.0625 309.7 308.625 310.3094Q308.07812 311.09064 308.07812 313.21564ZM319.54688 316.4344L319.54688 317.45L313.85938 317.45Q313.85938 317.075 313.98438 316.71564Q314.20312 316.1375 314.67188 315.575Q315.15625 315.0125 316.0625 314.27814Q317.46875 313.1219 317.95312 312.45Q318.45312 311.77814 318.45312 311.1844Q318.45312 310.5594 318.0 310.1375Q317.54688 309.7 316.82812 309.7Q316.0625 309.7 315.60938 310.15314Q315.15625 310.60626 315.14062 311.41876L314.0625 311.3094Q314.17188 310.09064 314.89062 309.46564Q315.625 308.825 316.85938 308.825Q318.09375 308.825 318.8125 309.5125Q319.53125 310.2 319.53125 311.21564Q319.53125 311.73126 319.3125 312.23126Q319.10938 312.71564 318.60938 313.27814Q318.125 313.825 317.0 314.77814Q316.04688 315.575 315.76562 315.8719Q315.5 316.15314 315.32812 316.4344L319.54688 316.4344ZM324.375 317.45L324.375 315.3875L320.65625 315.3875L320.65625 314.41876L324.57812 308.85626L325.4375 308.85626L325.4375 314.41876L326.59375 314.41876L326.59375 315.3875L325.4375 315.3875L325.4375 317.45L324.375 317.45ZM324.375 314.41876L324.375 310.5594L321.6875 314.41876L324.375 314.41876Z" fill-rule="nonzero"/><path fill="#000000" d="M405.7151 316.4344L405.7151 317.45L400.0276 317.45Q400.0276 317.075 400.1526 316.71564Q400.37134 316.1375 400.8401 315.575Q401.32446 315.0125 402.2307 314.27814Q403.63696 313.1219 404.12134 312.45Q404.62134 311.77814 404.62134 311.1844Q404.62134 310.5594 404.1682 310.1375Q403.7151 309.7 402.99634 309.7Q402.2307 309.7 401.7776 310.15314Q401.32446 310.60626 401.30884 311.41876L400.2307 311.3094Q400.3401 310.09064 401.05884 309.46564Q401.7932 308.825 403.0276 308.825Q404.26196 308.825 404.9807 309.5125Q405.69946 310.2 405.69946 311.21564Q405.69946 311.73126 405.4807 312.23126Q405.2776 312.71564 404.7776 313.27814Q404.2932 313.825 403.1682 314.77814Q402.2151 315.575 401.93384 315.8719Q401.6682 316.15314 401.49634 316.4344L405.7151 316.4344ZM407.1682 313.21564Q407.1682 311.6844 407.4807 310.7625Q407.7932 309.825 408.4026 309.325Q409.0276 308.825 409.9651 308.825Q410.6526 308.825 411.1682 309.10626Q411.69946 309.3875 412.0432 309.91876Q412.38696 310.4344 412.57446 311.1844Q412.76196 311.9344 412.76196 313.21564Q412.76196 314.73126 412.44946 315.65314Q412.1526 316.575 411.5276 317.09064Q410.9182 317.59064 409.9651 317.59064Q408.7307 317.59064 408.01196 316.7Q407.1682 315.6375 407.1682 313.21564ZM408.24634 313.21564Q408.24634 315.325 408.74634 316.02814Q409.24634 316.73126 409.9651 316.73126Q410.69946 316.73126 411.18384 316.02814Q411.68384 315.325 411.68384 313.21564Q411.68384 311.09064 411.18384 310.40314Q410.69946 309.7 409.94946 309.7Q409.2307 309.7 408.7932 310.3094Q408.24634 311.09064 408.24634 313.21564ZM417.5432 317.45L417.5432 315.3875L413.82446 315.3875L413.82446 314.41876L417.74634 308.85626L418.6057 308.85626L418.6057 314.41876L419.76196 314.41876L419.76196 315.3875L418.6057 315.3875L418.6057 317.45L417.5432 317.45ZM417.5432 314.41876L417.5432 310.5594L414.8557 314.41876L417.5432 314.41876ZM422.7932 312.79376Q422.13696 312.54376 421.80884 312.10626Q421.49634 311.65314 421.49634 311.04376Q421.49634 310.10626 422.1682 309.46564Q422.8557 308.825 423.9651 308.825Q425.0901 308.825 425.7776 309.48126Q426.4651 310.1375 426.4651 311.075Q426.4651 311.66876 426.1526 312.10626Q425.8401 312.54376 425.19946 312.79376Q425.99634 313.04376 426.4026 313.6219Q426.80884 314.2 426.80884 314.9969Q426.80884 316.09064 426.0276 316.84064Q425.26196 317.59064 423.9807 317.59064Q422.7151 317.59064 421.93384 316.84064Q421.1526 316.09064 421.1526 314.96564Q421.1526 314.1219 421.57446 313.5594Q422.01196 312.9969 422.7932 312.79376ZM422.57446 310.9969Q422.57446 311.60626 422.9651 311.9969Q423.37134 312.3875 423.99634 312.3875Q424.6057 312.3875 424.99634 312.0125Q425.38696 311.6219 425.38696 311.0594Q425.38696 310.48126 424.9807 310.09064Q424.57446 309.6844 423.9807 309.6844Q423.37134 309.6844 422.9651 310.075Q422.57446 310.46564 422.57446 310.9969ZM422.24634 314.96564Q422.24634 315.41876 422.44946 315.84064Q422.6682 316.2625 423.0901 316.4969Q423.51196 316.73126 423.99634 316.73126Q424.74634 316.73126 425.2307 316.2469Q425.7307 315.7625 425.7307 315.0125Q425.7307 314.2469 425.2307 313.7469Q424.7307 313.2469 423.9651 313.2469Q423.2151 313.2469 422.7307 313.7469Q422.24634 314.23126 422.24634 314.96564Z" fill-rule="nonzero"/><path fill="#000000" d="M503.71146 317.45L503.71146 315.3875L499.9927 315.3875L499.9927 314.41876L503.91458 308.85626L504.77396 308.85626L504.77396 314.41876L505.9302 314.41876L505.9302 315.3875L504.77396 315.3875L504.77396 317.45L503.71146 317.45ZM503.71146 314.41876L503.71146 310.5594L501.02396 314.41876L503.71146 314.41876ZM507.33646 313.21564Q507.33646 311.6844 507.64896 310.7625Q507.96146 309.825 508.57083 309.325Q509.19583 308.825 510.13333 308.825Q510.82083 308.825 511.33646 309.10626Q511.8677 309.3875 512.2114 309.91876Q512.5552 310.4344 512.7427 311.1844Q512.9302 311.9344 512.9302 313.21564Q512.9302 314.73126 512.6177 315.65314Q512.3208 316.575 511.69583 317.09064Q511.08646 317.59064 510.13333 317.59064Q508.89896 317.59064 508.1802 316.7Q507.33646 315.6375 507.33646 313.21564ZM508.41458 313.21564Q508.41458 315.325 508.91458 316.02814Q509.41458 316.73126 510.13333 316.73126Q510.8677 316.73126 511.35208 316.02814Q511.85208 315.325 511.85208 313.21564Q511.85208 311.09064 511.35208 310.40314Q510.8677 309.7 510.1177 309.7Q509.39896 309.7 508.96146 310.3094Q508.41458 311.09064 508.41458 313.21564ZM514.4927 315.46564L515.5083 315.3719Q515.6333 316.09064 515.9927 316.41876Q516.3677 316.73126 516.9302 316.73126Q517.41455 316.73126 517.7739 316.5125Q518.1489 316.27814 518.3833 315.91876Q518.6177 315.54376 518.7739 314.91876Q518.9302 314.27814 518.9302 313.6219Q518.9302 313.54376 518.9302 313.40314Q518.6177 313.90314 518.0708 314.23126Q517.5239 314.54376 516.8833 314.54376Q515.8052 314.54376 515.0708 313.77814Q514.3364 312.9969 514.3364 311.73126Q514.3364 310.41876 515.10205 309.6219Q515.8833 308.825 517.03955 308.825Q517.8677 308.825 518.5552 309.27814Q519.2583 309.73126 519.6177 310.575Q519.97705 311.40314 519.97705 312.98126Q519.97705 314.6219 519.6177 315.60626Q519.2739 316.575 518.5552 317.09064Q517.85205 317.59064 516.91455 317.59064Q515.8989 317.59064 515.2583 317.04376Q514.6177 316.48126 514.4927 315.46564ZM518.8052 311.66876Q518.8052 310.7625 518.3208 310.23126Q517.85205 309.7 517.16455 309.7Q516.4614 309.7 515.9302 310.27814Q515.41455 310.84064 515.41455 311.7625Q515.41455 312.575 515.91455 313.09064Q516.41455 313.60626 517.1333 313.60626Q517.8677 313.60626 518.3364 313.09064Q518.8052 312.575 518.8052 311.66876ZM526.8052 310.96564L525.7583 311.04376Q525.6177 310.41876 525.3677 310.1375Q524.9302 309.6844 524.3052 309.6844Q523.8052 309.6844 523.41455 309.96564Q522.9302 310.34064 522.6333 311.04376Q522.35205 311.73126 522.3364 313.0125Q522.7114 312.4344 523.2583 312.15314Q523.8208 311.8719 524.4302 311.8719Q525.47705 311.8719 526.2114 312.65314Q526.9614 313.4344 526.9614 314.65314Q526.9614 315.46564 526.60205 316.16876Q526.2583 316.85626 525.6489 317.23126Q525.03955 317.59064 524.2739 317.59064Q522.9458 317.59064 522.1177 316.6219Q521.28955 315.65314 521.28955 313.4344Q521.28955 310.9344 522.2114 309.8094Q523.0083 308.825 524.3677 308.825Q525.3833 308.825 526.0239 309.40314Q526.6802 309.96564 526.8052 310.96564ZM522.5083 314.66876Q522.5083 315.21564 522.72705 315.71564Q522.9614 316.2 523.3677 316.46564Q523.78955 316.73126 524.2583 316.73126Q524.91455 316.73126 525.3989 316.2Q525.8833 315.65314 525.8833 314.73126Q525.8833 313.84064 525.3989 313.325Q524.9302 312.8094 524.2114 312.8094Q523.4927 312.8094 522.9927 313.325Q522.5083 313.84064 522.5083 314.66876Z" fill-rule="nonzero"/><path fill="#4285f4" d="M195.5 56.916668C195.5 56.364384 195.94771 55.916668 196.5 55.916668L206.5 55.916668C207.05229 55.916668 207.5 56.364384 207.5 56.916668L207.5 66.916664C207.5 67.46895 207.05229 67.916664 206.5 67.916664L196.5 67.916664C195.94771 67.916664 195.5 67.46895 195.5 66.916664Z" fill-rule="nonzero"/><path fill="#1a1a1a" d="M218.60938 65.916664L218.60938 58.33854L215.78125 58.33854L215.78125 57.322914L222.59375 57.322914L222.59375 58.33854L219.75 58.33854L219.75 65.916664L218.60938 65.916664ZM223.29688 58.541664L223.29688 57.322914L224.35938 57.322914L224.35938 58.541664L223.29688 58.541664ZM223.29688 65.916664L223.29688 59.697914L224.35938 59.697914L224.35938 65.916664L223.29688 65.916664ZM226.26562 65.916664L226.26562 57.322914L227.32812 57.322914L227.32812 65.916664L226.26562 65.916664ZM229.29688 58.541664L229.29688 57.322914L230.35938 57.322914L230.35938 58.541664L229.29688 58.541664ZM229.29688 65.916664L229.29688 59.697914L230.35938 59.697914L230.35938 65.916664L229.29688 65.916664ZM232.29688 65.916664L232.29688 59.697914L233.23438 59.697914L233.23438 60.572914Q233.92188 59.55729 235.21875 59.55729Q235.78125 59.55729 236.25 59.760414Q236.73438 59.96354 236.96875 60.291664Q237.20312 60.61979 237.29688 61.05729Q237.34375 61.354164 237.34375 62.08854L237.34375 65.916664L236.29688 65.916664L236.29688 62.135414Q236.29688 61.479164 236.17188 61.166664Q236.04688 60.854164 235.73438 60.666664Q235.42188 60.46354 235.0 60.46354Q234.32812 60.46354 233.82812 60.90104Q233.34375 61.322914 233.34375 62.510414L233.34375 65.916664L232.29688 65.916664ZM239.09375 66.43229L240.125 66.58854Q240.1875 67.05729 240.48438 67.27604Q240.875 67.572914 241.54688 67.572914Q242.28125 67.572914 242.67188 67.27604Q243.07812 66.979164 243.21875 66.46354Q243.3125 66.135414 243.29688 65.104164Q242.60938 65.916664 241.57812 65.916664Q240.29688 65.916664 239.59375 64.99479Q238.89062 64.05729 238.89062 62.77604Q238.89062 61.885414 239.20312 61.135414Q239.53125 60.36979 240.14062 59.96354Q240.75 59.55729 241.57812 59.55729Q242.6875 59.55729 243.40625 60.447914L243.40625 59.697914L244.375 59.697914L244.375 65.072914Q244.375 66.52604 244.07812 67.135414Q243.78125 67.74479 243.14062 68.08854Q242.5 68.447914 241.5625 68.447914Q240.45312 68.447914 239.76562 67.947914Q239.07812 67.447914 239.09375 66.43229ZM239.96875 62.697914Q239.96875 63.916664 240.45312 64.479164Q240.9375 65.041664 241.67188 65.041664Q242.40625 65.041664 242.89062 64.479164Q243.39062 63.916664 243.39062 62.729164Q243.39062 61.58854 242.875 61.010414Q242.375 60.43229 241.65625 60.43229Q240.95312 60.43229 240.45312 61.010414Q239.96875 61.572914 239.96875 62.697914Z" fill-rule="nonzero"/><path fill="#ea4335" d="M261.5 56.916668C261.5 56.364384 261.94772 55.916668 262.5 55.916668L272.5 55.916668C273.05228 55.916668 273.5 56.364384 273.5 56.916668L273.5 66.916664C273.5 67.46895 273.05228 67.916664 272.5 67.916664L262.5 67.916664C261.94772 67.916664 261.5 67.46895 261.5 66.916664Z" fill-rule="nonzero"/><path fill="#1a1a1a" d="M282.4375 65.916664L282.4375 57.322914L286.25 57.322914Q287.40625 57.322914 288.0 57.55729Q288.59375 57.791664 288.95312 58.385414Q289.3125 58.96354 289.3125 59.666664Q289.3125 60.58854 288.71875 61.21354Q288.125 61.83854 286.89062 62.010414Q287.34375 62.229164 287.57812 62.43229Q288.07812 62.885414 288.51562 63.572914L290.01562 65.916664L288.57812 65.916664L287.45312 64.135414Q286.95312 63.354164 286.625 62.947914Q286.3125 62.541664 286.04688 62.385414Q285.79688 62.21354 285.53125 62.135414Q285.34375 62.104164 284.90625 62.104164L283.57812 62.104164L283.57812 65.916664L282.4375 65.916664ZM283.57812 61.11979L286.03125 61.11979Q286.79688 61.11979 287.23438 60.96354Q287.6875 60.791664 287.90625 60.447914Q288.14062 60.08854 288.14062 59.666664Q288.14062 59.05729 287.6875 58.666664Q287.25 58.27604 286.29688 58.27604L283.57812 58.27604L283.57812 61.11979ZM295.54688 63.916664L296.64062 64.041664Q296.39062 64.99479 295.6875 65.52604Q294.98438 66.05729 293.90625 66.05729Q292.54688 66.05729 291.73438 65.21354Q290.9375 64.36979 290.9375 62.854164Q290.9375 61.291664 291.75 60.43229Q292.5625 59.55729 293.84375 59.55729Q295.09375 59.55729 295.875 60.40104Q296.67188 61.24479 296.67188 62.791664Q296.67188 62.885414 296.67188 63.072914L292.03125 63.072914Q292.09375 64.104164 292.60938 64.65104Q293.125 65.18229 293.90625 65.18229Q294.48438 65.18229 294.89062 64.885414Q295.3125 64.572914 295.54688 63.916664ZM292.09375 62.21354L295.5625 62.21354Q295.5 61.416664 295.17188 61.02604Q294.65625 60.416664 293.85938 60.416664Q293.125 60.416664 292.625 60.90104Q292.14062 61.385414 292.09375 62.21354ZM297.90625 62.80729Q297.90625 61.072914 298.85938 60.24479Q299.65625 59.55729 300.8125 59.55729Q302.09375 59.55729 302.90625 60.40104Q303.73438 61.229164 303.73438 62.71354Q303.73438 63.916664 303.375 64.604164Q303.01562 65.291664 302.3125 65.68229Q301.625 66.05729 300.8125 66.05729Q299.51562 66.05729 298.70312 65.229164Q297.90625 64.385414 297.90625 62.80729ZM298.98438 62.80729Q298.98438 63.99479 299.5 64.58854Q300.03125 65.18229 300.8125 65.18229Q301.60938 65.18229 302.125 64.58854Q302.64062 63.99479 302.64062 62.77604Q302.64062 61.61979 302.10938 61.02604Q301.59375 60.43229 300.8125 60.43229Q300.03125 60.43229 299.5 61.02604Q298.98438 61.604164 298.98438 62.80729ZM305.28125 65.916664L305.28125 59.697914L306.23438 59.697914L306.23438 60.635414Q306.59375 59.979164 306.89062 59.77604Q307.20312 59.55729 307.57812 59.55729Q308.10938 59.55729 308.65625 59.885414L308.29688 60.86979Q307.90625 60.635414 307.53125 60.635414Q307.17188 60.635414 306.89062 60.854164Q306.625 61.05729 306.51562 61.43229Q306.32812 61.99479 306.32812 62.65104L306.32812 65.916664L305.28125 65.916664ZM313.32812 65.916664L313.32812 65.135414Q312.73438 66.05729 311.59375 66.05729Q310.84375 66.05729 310.21875 65.65104Q309.59375 65.229164 309.25 64.49479Q308.90625 63.760414 308.90625 62.80729Q308.90625 61.885414 309.21875 61.11979Q309.53125 60.354164 310.15625 59.96354Q310.78125 59.55729 311.54688 59.55729Q312.10938 59.55729 312.54688 59.791664Q312.98438 60.02604 313.26562 60.40104L313.26562 57.322914L314.3125 57.322914L314.3125 65.916664L313.32812 65.916664ZM310.0 62.80729Q310.0 64.010414 310.5 64.604164Q311.0 65.18229 311.6875 65.18229Q312.375 65.18229 312.85938 64.61979Q313.34375 64.05729 313.34375 62.90104Q313.34375 61.61979 312.84375 61.02604Q312.35938 60.43229 311.64062 60.43229Q310.9375 60.43229 310.46875 61.010414Q310.0 61.572914 310.0 62.80729ZM320.54688 63.916664L321.64062 64.041664Q321.39062 64.99479 320.6875 65.52604Q319.98438 66.05729 318.90625 66.05729Q317.54688 66.05729 316.73438 65.21354Q315.9375 64.36979 315.9375 62.854164Q315.9375 61.291664 316.75 60.43229Q317.5625 59.55729 318.84375 59.55729Q320.09375 59.55729 320.875 60.40104Q321.67188 61.24479 321.67188 62.791664Q321.67188 62.885414 321.67188 63.072914L317.03125 63.072914Q317.09375 64.104164 317.60938 64.65104Q318.125 65.18229 318.90625 65.18229Q319.48438 65.18229 319.89062 64.885414Q320.3125 64.572914 320.54688 63.916664ZM317.09375 62.21354L320.5625 62.21354Q320.5 61.416664 320.17188 61.02604Q319.65625 60.416664 318.85938 60.416664Q318.125 60.416664 317.625 60.90104Q317.14062 61.385414 317.09375 62.21354ZM323.28125 65.916664L323.28125 59.697914L324.23438 59.697914L324.23438 60.635414Q324.59375 59.979164 324.89062 59.77604Q325.20312 59.55729 325.57812 59.55729Q326.10938 59.55729 326.65625 59.885414L326.29688 60.86979Q325.90625 60.635414 325.53125 60.635414Q325.17188 60.635414 324.89062 60.854164Q324.625 61.05729 324.51562 61.43229Q324.32812 61.99479 324.32812 62.65104L324.32812 65.916664L323.28125 65.916664ZM327.29688 58.541664L327.29688 57.322914L328.35938 57.322914L328.35938 58.541664L327.29688 58.541664ZM327.29688 65.916664L327.29688 59.697914L328.35938 59.697914L328.35938 65.916664L327.29688 65.916664ZM330.29688 65.916664L330.29688 59.697914L331.23438 59.697914L331.23438 60.572914Q331.92188 59.55729 333.21875 59.55729Q333.78125 59.55729 334.25 59.760414Q334.73438 59.96354 334.96875 60.291664Q335.20312 60.61979 335.29688 61.05729Q335.34375 61.354164 335.34375 62.08854L335.34375 65.916664L334.29688 65.916664L334.29688 62.135414Q334.29688 61.479164 334.17188 61.166664Q334.04688 60.854164 333.73438 60.666664Q333.42188 60.46354 333.0 60.46354Q332.32812 60.46354 331.82812 60.90104Q331.34375 61.322914 331.34375 62.510414L331.34375 65.916664L330.29688 65.916664ZM337.09375 66.43229L338.125 66.58854Q338.1875 67.05729 338.48438 67.27604Q338.875 67.572914 339.54688 67.572914Q340.28125 67.572914 340.67188 67.27604Q341.07812 66.979164 341.21875 66.46354Q341.3125 66.135414 341.29688 65.104164Q340.60938 65.916664 339.57812 65.916664Q338.29688 65.916664 337.59375 64.99479Q336.89062 64.05729 336.89062 62.77604Q336.89062 61.885414 337.20312 61.135414Q337.53125 60.36979 338.14062 59.96354Q338.75 59.55729 339.57812 59.55729Q340.6875 59.55729 341.40625 60.447914L341.40625 59.697914L342.375 59.697914L342.375 65.072914Q342.375 66.52604 342.07812 67.135414Q341.78125 67.74479 341.14062 68.08854Q340.5 68.447914 339.5625 68.447914Q338.45312 68.447914 337.76562 67.947914Q337.07812 67.447914 337.09375 66.43229ZM337.96875 62.697914Q337.96875 63.916664 338.45312 64.479164Q338.9375 65.041664 339.67188 65.041664Q340.40625 65.041664 340.89062 64.479164Q341.39062 63.916664 341.39062 62.729164Q341.39062 61.58854 340.875 61.010414Q340.375 60.43229 339.65625 60.43229Q338.95312 60.43229 338.45312 61.010414Q337.96875 61.572914 337.96875 62.697914ZM349.5 64.52604L349.5 62.166664L347.17188 62.166664L347.17188 61.18229L349.5 61.18229L349.5 58.854164L350.5 58.854164L350.5 61.18229L352.84375 61.18229L352.84375 62.166664L350.5 62.166664L350.5 64.52604L349.5 64.52604ZM361.375 65.916664L361.375 64.99479Q360.64062 66.05729 359.39062 66.05729Q358.84375 66.05729 358.35938 65.854164Q357.89062 65.635414 357.65625 65.322914Q357.42188 64.99479 357.32812 64.52604Q357.26562 64.229164 357.26562 63.541664L357.26562 59.697914L358.32812 59.697914L358.32812 63.15104Q358.32812 63.96354 358.39062 64.260414Q358.48438 64.666664 358.79688 64.916664Q359.125 65.15104 359.60938 65.15104Q360.07812 65.15104 360.48438 64.916664Q360.90625 64.666664 361.07812 64.24479Q361.26562 63.822914 361.26562 63.02604L361.26562 59.697914L362.3125 59.697914L362.3125 65.916664L361.375 65.916664ZM364.29688 65.916664L364.29688 59.697914L365.23438 59.697914L365.23438 60.572914Q365.92188 59.55729 367.21875 59.55729Q367.78125 59.55729 368.25 59.760414Q368.73438 59.96354 368.96875 60.291664Q369.20312 60.61979 369.29688 61.05729Q369.34375 61.354164 369.34375 62.08854L369.34375 65.916664L368.29688 65.916664L368.29688 62.135414Q368.29688 61.479164 368.17188 61.166664Q368.04688 60.854164 367.73438 60.666664Q367.42188 60.46354 367.0 60.46354Q366.32812 60.46354 365.82812 60.90104Q365.34375 61.322914 365.34375 62.510414L365.34375 65.916664L364.29688 65.916664ZM371.28125 65.916664L371.28125 59.697914L372.23438 59.697914L372.23438 60.635414Q372.59375 59.979164 372.89062 59.77604Q373.20312 59.55729 373.57812 59.55729Q374.10938 59.55729 374.65625 59.885414L374.29688 60.86979Q373.90625 60.635414 373.53125 60.635414Q373.17188 60.635414 372.89062 60.854164Q372.625 61.05729 372.51562 61.43229Q372.32812 61.99479 372.32812 62.65104L372.32812 65.916664L371.28125 65.916664ZM374.90625 62.80729Q374.90625 61.072914 375.85938 60.24479Q376.65625 59.55729 377.8125 59.55729Q379.09375 59.55729 379.90625 60.40104Q380.73438 61.229164 380.73438 62.71354Q380.73438 63.916664 380.375 64.604164Q380.01562 65.291664 379.3125 65.68229Q378.625 66.05729 377.8125 66.05729Q376.51562 66.05729 375.70312 65.229164Q374.90625 64.385414 374.90625 62.80729ZM375.98438 62.80729Q375.98438 63.99479 376.5 64.58854Q377.03125 65.18229 377.8125 65.18229Q378.60938 65.18229 379.125 64.58854Q379.64062 63.99479 379.64062 62.77604Q379.64062 61.61979 379.10938 61.02604Q378.59375 60.43229 377.8125 60.43229Q377.03125 60.43229 376.5 61.02604Q375.98438 61.604164 375.98438 62.80729ZM382.26562 65.916664L382.26562 57.322914L383.32812 57.322914L383.32812 65.916664L382.26562 65.916664ZM385.26562 65.916664L385.26562 57.322914L386.32812 57.322914L386.32812 65.916664L385.26562 65.916664ZM388.29688 58.541664L388.29688 57.322914L389.35938 57.322914L389.35938 58.541664L388.29688 58.541664ZM388.29688 65.916664L388.29688 59.697914L389.35938 59.697914L389.35938 65.916664L388.29688 65.916664ZM391.29688 65.916664L391.29688 59.697914L392.23438 59.697914L392.23438 60.572914Q392.92188 59.55729 394.21875 59.55729Q394.78125 59.55729 395.25 59.760414Q395.73438 59.96354 395.96875 60.291664Q396.20312 60.61979 396.29688 61.05729Q396.34375 61.354164 396.34375 62.08854L396.34375 65.916664L395.29688 65.916664L395.29688 62.135414Q395.29688 61.479164 395.17188 61.166664Q395.04688 60.854164 394.73438 60.666664Q394.42188 60.46354 394.0 60.46354Q393.32812 60.46354 392.82812 60.90104Q392.34375 61.322914 392.34375 62.510414L392.34375 65.916664L391.29688 65.916664ZM398.09375 66.43229L399.125 66.58854Q399.1875 67.05729 399.48438 67.27604Q399.875 67.572914 400.54688 67.572914Q401.28125 67.572914 401.67188 67.27604Q402.07812 66.979164 402.21875 66.46354Q402.3125 66.135414 402.29688 65.104164Q401.60938 65.916664 400.57812 65.916664Q399.29688 65.916664 398.59375 64.99479Q397.89062 64.05729 397.89062 62.77604Q397.89062 61.885414 398.20312 61.135414Q398.53125 60.36979 399.14062 59.96354Q399.75 59.55729 400.57812 59.55729Q401.6875 59.55729 402.40625 60.447914L402.40625 59.697914L403.375 59.697914L403.375 65.072914Q403.375 66.52604 403.07812 67.135414Q402.78125 67.74479 402.14062 68.08854Q401.5 68.447914 400.5625 68.447914Q399.45312 68.447914 398.76562 67.947914Q398.07812 67.447914 398.09375 66.43229ZM398.96875 62.697914Q398.96875 63.916664 399.45312 64.479164Q399.9375 65.041664 400.67188 65.041664Q401.40625 65.041664 401.89062 64.479164Q402.39062 63.916664 402.39062 62.729164Q402.39062 61.58854 401.875 61.010414Q401.375 60.43229 400.65625 60.43229Q399.95312 60.43229 399.45312 61.010414Q398.96875 61.572914 398.96875 62.697914Z" fill-rule="nonzero"/><path fill="#757575" d="M20.128124 37.55L20.128124 23.2375L26.471874 23.2375Q28.378124 23.2375 29.378124 23.628124Q30.378124 24.003124 30.971874 24.9875Q31.565624 25.95625 31.565624 27.14375Q31.565624 28.659374 30.58125 29.70625Q29.596874 30.753124 27.534374 31.034374Q28.284374 31.39375 28.675 31.753124Q29.503124 32.503124 30.253124 33.659374L32.7375 37.55L30.3625 37.55L28.45625 34.565624Q27.628124 33.284374 27.096874 32.596874Q26.565624 31.909374 26.128124 31.64375Q25.70625 31.3625 25.26875 31.253124Q24.940624 31.190624 24.221874 31.190624L22.01875 31.190624L22.01875 37.55L20.128124 37.55ZM22.01875 29.55L26.096874 29.55Q27.39375 29.55 28.1125 29.284374Q28.846874 29.01875 29.221874 28.425Q29.6125 27.83125 29.6125 27.14375Q29.6125 26.128124 28.878124 25.471874Q28.14375 24.815624 26.55 24.815624L22.01875 24.815624L22.01875 29.55ZM40.971874 34.20625L42.784374 34.440624Q42.3625 36.01875 41.190624 36.909374Q40.034374 37.784374 38.221874 37.784374Q35.95625 37.784374 34.6125 36.39375Q33.284374 34.9875 33.284374 32.45625Q33.284374 29.83125 34.628124 28.39375Q35.971874 26.940624 38.128124 26.940624Q40.20625 26.940624 41.51875 28.3625Q42.846874 29.76875 42.846874 32.346874Q42.846874 32.503124 42.83125 32.815624L35.096874 32.815624Q35.190624 34.51875 36.065624 35.425Q36.940624 36.33125 38.2375 36.33125Q39.20625 36.33125 39.878124 35.83125Q40.565624 35.315624 40.971874 34.20625ZM35.190624 31.3625L40.9875 31.3625Q40.878124 30.065624 40.33125 29.409374Q39.4875 28.39375 38.14375 28.39375Q36.940624 28.39375 36.1125 29.20625Q35.284374 30.003124 35.190624 31.3625ZM44.221874 32.3625Q44.221874 29.4875 45.815624 28.096874Q47.159374 26.940624 49.08125 26.940624Q51.221874 26.940624 52.565624 28.346874Q53.925 29.753124 53.925 32.221874Q53.925 34.221874 53.33125 35.378124Q52.7375 36.51875 51.58125 37.159374Q50.440624 37.784374 49.08125 37.784374Q46.89375 37.784374 45.55 36.39375Q44.221874 34.9875 44.221874 32.3625ZM46.01875 32.3625Q46.01875 34.3625 46.878124 35.346874Q47.753124 36.33125 49.08125 36.33125Q50.39375 36.33125 51.253124 35.346874Q52.128124 34.346874 52.128124 32.3Q52.128124 30.378124 51.253124 29.39375Q50.378124 28.39375 49.08125 28.39375Q47.753124 28.39375 46.878124 29.39375Q46.01875 30.378124 46.01875 32.3625ZM55.846874 37.55L55.846874 27.175L57.425 27.175L57.425 28.753124Q58.034374 27.64375 58.55 27.3Q59.065624 26.940624 59.675 26.940624Q60.565624 26.940624 61.4875 27.503124L60.878124 29.14375Q60.2375 28.753124 59.596874 28.753124Q59.01875 28.753124 58.55 29.1125Q58.096874 29.45625 57.89375 30.065624Q57.6125 31.003124 57.6125 32.1125L57.6125 37.55L55.846874 37.55ZM69.59688 37.55L69.59688 36.2375Q68.6125 37.784374 66.69063 37.784374Q65.45625 37.784374 64.40938 37.096874Q63.378124 36.409374 62.8 35.190624Q62.2375 33.971874 62.2375 32.378124Q62.2375 30.815624 62.753124 29.55Q63.26875 28.284374 64.3 27.6125Q65.34688 26.940624 66.6125 26.940624Q67.55 26.940624 68.28438 27.346874Q69.01875 27.7375 69.4875 28.3625L69.4875 23.2375L71.22188 23.2375L71.22188 37.55L69.59688 37.55ZM64.03438 32.378124Q64.03438 34.3625 64.87813 35.346874Q65.72188 36.33125 66.8625 36.33125Q68.01875 36.33125 68.81563 35.39375Q69.62813 34.45625 69.62813 32.51875Q69.62813 30.39375 68.8 29.39375Q67.9875 28.39375 66.78438 28.39375Q65.6125 28.39375 64.81563 29.3625Q64.03438 30.315624 64.03438 32.378124ZM80.97188 34.20625L82.78438 34.440624Q82.3625 36.01875 81.19063 36.909374Q80.03438 37.784374 78.22188 37.784374Q75.95625 37.784374 74.6125 36.39375Q73.28438 34.9875 73.28438 32.45625Q73.28438 29.83125 74.62813 28.39375Q75.97188 26.940624 78.12813 26.940624Q80.20625 26.940624 81.51875 28.3625Q82.84688 29.76875 82.84688 32.346874Q82.84688 32.503124 82.83125 32.815624L75.09688 32.815624Q75.19063 34.51875 76.06563 35.425Q76.94063 36.33125 78.2375 36.33125Q79.20625 36.33125 79.87813 35.83125Q80.56563 35.315624 80.97188 34.20625ZM75.19063 31.3625L80.9875 31.3625Q80.87813 30.065624 80.33125 29.409374Q79.4875 28.39375 78.14375 28.39375Q76.94063 28.39375 76.1125 29.20625Q75.28438 30.003124 75.19063 31.3625ZM84.84688 37.55L84.84688 27.175L86.425 27.175L86.425 28.753124Q87.03438 27.64375 87.55 27.3Q88.06563 26.940624 88.675 26.940624Q89.56563 26.940624 90.4875 27.503124L89.87813 29.14375Q89.2375 28.753124 88.59688 28.753124Q88.01875 28.753124 87.55 29.1125Q87.09688 29.45625 86.89375 30.065624Q86.6125 31.003124 86.6125 32.1125L86.6125 37.55L84.84688 37.55ZM91.87813 25.253124L91.87813 23.2375L93.64375 23.2375L93.64375 25.253124L91.87813 25.253124ZM91.87813 37.55L91.87813 27.175L93.64375 27.175L93.64375 37.55L91.87813 37.55ZM95.8625 37.55L95.8625 27.175L97.45625 27.175L97.45625 28.659374Q98.59688 26.940624 100.75313 26.940624Q101.69063 26.940624 102.47188 27.284374Q103.26875 27.6125 103.65938 28.159374Q104.05 28.70625 104.20625 29.45625Q104.3 29.95625 104.3 31.175L104.3 37.55L102.53438 37.55L102.53438 31.2375Q102.53438 30.159374 102.33125 29.628124Q102.12813 29.096874 101.59688 28.784374Q101.08125 28.471874 100.37813 28.471874Q99.25313 28.471874 98.44063 29.190624Q97.62813 29.89375 97.62813 31.878124L97.62813 37.55L95.8625 37.55ZM105.55 38.409374L107.25313 38.659374Q107.3625 39.45625 107.84688 39.815624Q108.50313 40.3 109.64375 40.3Q110.8625 40.3 111.51875 39.815624Q112.19063 39.33125 112.425 38.45625Q112.56563 37.909374 112.55 36.190624Q111.39375 37.55 109.675 37.55Q107.53438 37.55 106.3625 36.003124Q105.19063 34.45625 105.19063 32.3Q105.19063 30.815624 105.72188 29.565624Q106.26875 28.315624 107.28438 27.628124Q108.31563 26.940624 109.69063 26.940624Q111.51875 26.940624 112.72188 28.425L112.72188 27.175L114.33125 27.175L114.33125 36.14375Q114.33125 38.565624 113.83125 39.565624Q113.34688 40.58125 112.26875 41.159374Q111.20625 41.753124 109.64375 41.753124Q107.8 41.753124 106.64375 40.925Q105.50313 40.096874 105.55 38.409374ZM107.00313 32.175Q107.00313 34.221874 107.81563 35.159374Q108.62813 36.096874 109.84688 36.096874Q111.05 36.096874 111.8625 35.159374Q112.69063 34.221874 112.69063 32.2375Q112.69063 30.33125 111.84688 29.3625Q111.00313 28.39375 109.81563 28.39375Q108.64375 28.39375 107.81563 29.346874Q107.00313 30.3 107.00313 32.175ZM125.75313 37.55L121.8 27.175L123.65938 27.175L125.89375 33.39375Q126.25313 34.39375 126.55 35.471874Q126.78438 34.659374 127.20625 33.503124L129.50313 27.175L131.31563 27.175L127.39375 37.55L125.75313 37.55ZM131.15938 34.45625L132.90938 34.175Q133.05 35.221874 133.72188 35.784374Q134.39375 36.33125 135.59688 36.33125Q136.8 36.33125 137.37813 35.846874Q137.97188 35.346874 137.97188 34.690624Q137.97188 34.096874 137.45625 33.753124Q137.09688 33.51875 135.65938 33.159374Q133.72188 32.659374 132.97188 32.315624Q132.2375 31.95625 131.84688 31.33125Q131.45625 30.690624 131.45625 29.925Q131.45625 29.2375 131.76875 28.64375Q132.09688 28.05 132.64375 27.659374Q133.05 27.3625 133.75313 27.159374Q134.47188 26.940624 135.28438 26.940624Q136.50313 26.940624 137.425 27.3Q138.34688 27.64375 138.78438 28.253124Q139.22188 28.846874 139.39375 29.846874L137.675 30.08125Q137.55 29.284374 136.9875 28.846874Q136.425 28.39375 135.40938 28.39375Q134.19063 28.39375 133.675 28.8Q133.15938 29.190624 133.15938 29.721874Q133.15938 30.065624 133.37813 30.346874Q133.58125 30.628124 134.05 30.815624Q134.31563 30.909374 135.59688 31.253124Q137.47188 31.753124 138.20625 32.08125Q138.94063 32.39375 139.3625 33.003124Q139.78438 33.596874 139.78438 34.503124Q139.78438 35.378124 139.26875 36.159374Q138.75313 36.940624 137.78438 37.3625Q136.81563 37.784374 135.59688 37.784374Q133.58125 37.784374 132.51875 36.940624Q131.45625 36.096874 131.15938 34.45625ZM151.7375 37.55L151.7375 24.925L147.01875 24.925L147.01875 23.2375L158.3625 23.2375L158.3625 24.925L153.62813 24.925L153.62813 37.55L151.7375 37.55ZM159.87813 25.253124L159.87813 23.2375L161.64375 23.2375L161.64375 25.253124L159.87813 25.253124ZM159.87813 37.55L159.87813 27.175L161.64375 27.175L161.64375 37.55L159.87813 37.55ZM163.83125 37.55L163.83125 23.2375L165.58125 23.2375L165.58125 37.55L163.83125 37.55ZM167.87813 25.253124L167.87813 23.2375L169.64375 23.2375L169.64375 25.253124L167.87813 25.253124ZM167.87813 37.55L167.87813 27.175L169.64375 27.175L169.64375 37.55L167.87813 37.55ZM171.8625 37.55L171.8625 27.175L173.45625 27.175L173.45625 28.659374Q174.59688 26.940624 176.75313 26.940624Q177.69063 26.940624 178.47188 27.284374Q179.26875 27.6125 179.65938 28.159374Q180.05 28.70625 180.20625 29.45625Q180.3 29.95625 180.3 31.175L180.3 37.55L178.53438 37.55L178.53438 31.2375Q178.53438 30.159374 178.33125 29.628124Q178.12813 29.096874 177.59688 28.784374Q177.08125 28.471874 176.37813 28.471874Q175.25313 28.471874 174.44063 29.190624Q173.62813 29.89375 173.62813 31.878124L173.62813 37.55L171.8625 37.55ZM181.55 38.409374L183.25313 38.659374Q183.3625 39.45625 183.84688 39.815624Q184.50313 40.3 185.64375 40.3Q186.8625 40.3 187.51875 39.815624Q188.19063 39.33125 188.425 38.45625Q188.56563 37.909374 188.55 36.190624Q187.39375 37.55 185.675 37.55Q183.53438 37.55 182.3625 36.003124Q181.19063 34.45625 181.19063 32.3Q181.19063 30.815624 181.72188 29.565624Q182.26875 28.315624 183.28438 27.628124Q184.31563 26.940624 185.69063 26.940624Q187.51875 26.940624 188.72188 28.425L188.72188 27.175L190.33125 27.175L190.33125 36.14375Q190.33125 38.565624 189.83125 39.565624Q189.34688 40.58125 188.26875 41.159374Q187.20625 41.753124 185.64375 41.753124Q183.8 41.753124 182.64375 40.925Q181.50313 40.096874 181.55 38.409374ZM183.00313 32.175Q183.00313 34.221874 183.81563 35.159374Q184.62813 36.096874 185.84688 36.096874Q187.05 36.096874 187.8625 35.159374Q188.69063 34.221874 188.69063 32.2375Q188.69063 30.33125 187.84688 29.3625Q187.00313 28.39375 185.81563 28.39375Q184.64375 28.39375 183.81563 29.346874Q183.00313 30.3 183.00313 32.175ZM198.45625 32.95625L200.2375 32.8Q200.3625 33.8625 200.81563 34.55Q201.28438 35.2375 202.25313 35.675Q203.2375 36.096874 204.47188 36.096874Q205.55 36.096874 206.37813 35.784374Q207.20625 35.45625 207.6125 34.89375Q208.01875 34.33125 208.01875 33.659374Q208.01875 32.9875 207.62813 32.4875Q207.2375 31.9875 206.34688 31.64375Q205.76875 31.409374 203.78438 30.940624Q201.81563 30.471874 201.03438 30.05Q200.00313 29.51875 199.50313 28.721874Q199.00313 27.925 199.00313 26.940624Q199.00313 25.846874 199.6125 24.909374Q200.22188 23.971874 201.40938 23.4875Q202.59688 22.9875 204.03438 22.9875Q205.62813 22.9875 206.84688 23.503124Q208.06563 24.01875 208.70625 25.01875Q209.3625 26.003124 209.40938 27.26875L207.59688 27.409374Q207.45625 26.05 206.6125 25.3625Q205.76875 24.659374 204.1125 24.659374Q202.39375 24.659374 201.59688 25.3Q200.81563 25.925 200.81563 26.8Q200.81563 27.58125 201.37813 28.08125Q201.925 28.58125 204.2375 29.096874Q206.55 29.6125 207.40938 30.003124Q208.65938 30.58125 209.25313 31.471874Q209.84688 32.346874 209.84688 33.503124Q209.84688 34.64375 209.19063 35.659374Q208.53438 36.675 207.3 37.2375Q206.08125 37.8 204.55 37.8Q202.6125 37.8 201.3 37.2375Q199.9875 36.659374 199.2375 35.51875Q198.4875 34.378124 198.45625 32.95625ZM211.8625 41.51875L211.8625 27.175L213.47188 27.175L213.47188 28.51875Q214.03438 27.7375 214.7375 27.346874Q215.45625 26.940624 216.47188 26.940624Q217.8 26.940624 218.81563 27.628124Q219.83125 28.315624 220.34688 29.565624Q220.87813 30.8 220.87813 32.284374Q220.87813 33.878124 220.3 35.159374Q219.7375 36.425 218.64375 37.1125Q217.55 37.784374 216.34688 37.784374Q215.47188 37.784374 214.76875 37.409374Q214.08125 37.034374 213.62813 36.471874L213.62813 41.51875L211.8625 41.51875ZM213.45625 32.425Q213.45625 34.425 214.26875 35.378124Q215.08125 36.33125 216.2375 36.33125Q217.40938 36.33125 218.2375 35.346874Q219.08125 34.3625 219.08125 32.26875Q219.08125 30.3 218.25313 29.315624Q217.44063 28.315624 216.31563 28.315624Q215.19063 28.315624 214.31563 29.378124Q213.45625 30.425 213.45625 32.425ZM229.97188 34.20625L231.78438 34.440624Q231.3625 36.01875 230.19063 36.909374Q229.03438 37.784374 227.22188 37.784374Q224.95625 37.784374 223.6125 36.39375Q222.28438 34.9875 222.28438 32.45625Q222.28438 29.83125 223.62813 28.39375Q224.97188 26.940624 227.12813 26.940624Q229.20625 26.940624 230.51875 28.3625Q231.84688 29.76875 231.84688 32.346874Q231.84688 32.503124 231.83125 32.815624L224.09688 32.815624Q224.19063 34.51875 225.06563 35.425Q225.94063 36.33125 227.2375 36.33125Q228.20625 36.33125 228.87813 35.83125Q229.56563 35.315624 229.97188 34.20625ZM224.19063 31.3625L229.9875 31.3625Q229.87813 30.065624 229.33125 29.409374Q228.4875 28.39375 227.14375 28.39375Q225.94063 28.39375 225.1125 29.20625Q224.28438 30.003124 224.19063 31.3625ZM240.97188 34.20625L242.78438 34.440624Q242.3625 36.01875 241.19063 36.909374Q240.03438 37.784374 238.22188 37.784374Q235.95625 37.784374 234.6125 36.39375Q233.28438 34.9875 233.28438 32.45625Q233.28438 29.83125 234.62813 28.39375Q235.97188 26.940624 238.12813 26.940624Q240.20625 26.940624 241.51875 28.3625Q242.84688 29.76875 242.84688 32.346874Q242.84688 32.503124 242.83125 32.815624L235.09688 32.815624Q235.19063 34.51875 236.06563 35.425Q236.94063 36.33125 238.2375 36.33125Q239.20625 36.33125 239.87813 35.83125Q240.56563 35.315624 240.97188 34.20625ZM235.19063 31.3625L240.9875 31.3625Q240.87813 30.065624 240.33125 29.409374Q239.4875 28.39375 238.14375 28.39375Q236.94063 28.39375 236.1125 29.20625Q235.28438 30.003124 235.19063 31.3625ZM251.59688 37.55L251.59688 36.2375Q250.6125 37.784374 248.69063 37.784374Q247.45625 37.784374 246.40938 37.096874Q245.37813 36.409374 244.8 35.190624Q244.2375 33.971874 244.2375 32.378124Q244.2375 30.815624 244.75313 29.55Q245.26875 28.284374 246.3 27.6125Q247.34688 26.940624 248.6125 26.940624Q249.55 26.940624 250.28438 27.346874Q251.01875 27.7375 251.4875 28.3625L251.4875 23.2375L253.22188 23.2375L253.22188 37.55L251.59688 37.55ZM246.03438 32.378124Q246.03438 34.3625 246.87813 35.346874Q247.72188 36.33125 248.8625 36.33125Q250.01875 36.33125 250.81563 35.39375Q251.62813 34.45625 251.62813 32.51875Q251.62813 30.39375 250.8 29.39375Q249.9875 28.39375 248.78438 28.39375Q247.6125 28.39375 246.81563 29.3625Q246.03438 30.315624 246.03438 32.378124ZM262.65936 37.55L262.65936 36.01875Q261.45624 37.784374 259.3781 37.784374Q258.45624 37.784374 257.65936 37.440624Q256.8625 37.08125 256.47186 36.55Q256.09686 36.01875 255.94063 35.2375Q255.83125 34.721874 255.83125 33.596874L255.83125 27.175L257.58124 27.175L257.58124 32.925Q257.58124 34.3 257.6906 34.784374Q257.8625 35.471874 258.39374 35.878124Q258.9406 36.26875 259.72186 36.26875Q260.51874 36.26875 261.20624 35.8625Q261.90936 35.45625 262.1906 34.76875Q262.4875 34.065624 262.4875 32.7375L262.4875 27.175L264.2375 27.175L264.2375 37.55L262.65936 37.55ZM265.8625 41.51875L265.8625 27.175L267.47186 27.175L267.47186 28.51875Q268.03436 27.7375 268.7375 27.346874Q269.45624 26.940624 270.47186 26.940624Q271.8 26.940624 272.8156 27.628124Q273.83124 28.315624 274.34686 29.565624Q274.8781 30.8 274.8781 32.284374Q274.8781 33.878124 274.3 35.159374Q273.7375 36.425 272.64374 37.1125Q271.55 37.784374 270.34686 37.784374Q269.47186 37.784374 268.76874 37.409374Q268.08124 37.034374 267.6281 36.471874L267.6281 41.51875L265.8625 41.51875ZM267.45624 32.425Q267.45624 34.425 268.26874 35.378124Q269.08124 36.33125 270.2375 36.33125Q271.40936 36.33125 272.2375 35.346874Q273.08124 34.3625 273.08124 32.26875Q273.08124 30.3 272.2531 29.315624Q271.4406 28.315624 270.3156 28.315624Q269.1906 28.315624 268.3156 29.378124Q267.45624 30.425 267.45624 32.425Z" fill-rule="nonzero"/></svg>