<svg version="1.1" viewBox="0.0 0.0 600.0 371.0" fill="none" stroke="none" stroke-linecap="square" stroke-miterlimit="10" width="600" height="371" xmlns:xlink="http://www.w3.org/1999/xlink" xmlns="http://www.w3.org/2000/svg"><path fill="#ffffff" d="M0 0L600.0 0L600.0 371.0L0 371.0L0 0Z" fill-rule="nonzero"/><path stroke="#333333" stroke-width="1.0" stroke-linecap="butt" d="M45.5 300.5L581.5 300.5" fill-rule="nonzero"/><path stroke="#cccccc" stroke-width="1.0" stroke-linecap="butt" d="M45.5 229.5L581.5 229.5" fill-rule="nonzero"/><path stroke="#cccccc" stroke-width="1.0" stroke-linecap="butt" d="M45.5 159.5L581.5 159.5" fill-rule="nonzero"/><path stroke="#cccccc" stroke-width="1.0" stroke-linecap="butt" d="M45.5 88.5L581.5 88.5" fill-rule="nonzero"/><clipPath id="id_0"><path d="M45.55 88.28333L581.45 88.28333L581.45 300.45L45.55 300.45L45.55 88.28333Z" clip-rule="nonzero"/></clipPath><path stroke="#000000" stroke-width="2.0" stroke-linecap="butt" stroke-opacity="0.0" clip-path="url(#id_0)" d="M93.0 300.0L82.0 300.0L82.0 287.0C82.0 285.89542 82.89543 285.0 84.0 285.0L91.0 285.0C92.10457 285.0 93.0 285.89542 93.0 287.0Z" fill-rule="nonzero"/><path fill="#4285f4" clip-path="url(#id_0)" d="M93.0 300.0L82.0 300.0L82.0 287.0C82.0 285.89542 82.89543 285.0 84.0 285.0L91.0 285.0C92.10457 285.0 93.0 285.89542 93.0 287.0Z" fill-rule="nonzero"/><path stroke="#000000" stroke-width="2.0" stroke-linecap="butt" stroke-opacity="0.0" clip-path="url(#id_0)" d="M193.0 300.0L182.0 300.0L182.0 281.0C182.0 279.89542 182.89543 279.0 184.0 279.0L191.0 279.0C192.10457 279.0 193.0 279.89542 193.0 281.0Z" fill-rule="nonzero"/><path fill="#4285f4" clip-path="url(#id_0)" d="M193.0 300.0L182.0 300.0L182.0 281.0C182.0 279.89542 182.89543 279.0 184.0 279.0L191.0 279.0C192.10457 279.0 193.0 279.89542 193.0 281.0Z" fill-rule="nonzero"/><path stroke="#000000" stroke-width="2.0" stroke-linecap="butt" stroke-opacity="0.0" clip-path="url(#id_0)" d="M294.0 300.0L283.0 300.0L283.0 280.0C283.0 278.89542 283.89542 278.0 285.0 278.0L292.0 278.0C293.10458 278.0 294.0 278.89542 294.0 280.0Z" fill-rule="nonzero"/><path fill="#4285f4" clip-path="url(#id_0)" d="M294.0 300.0L283.0 300.0L283.0 280.0C283.0 278.89542 283.89542 278.0 285.0 278.0L292.0 278.0C293.10458 278.0 294.0 278.89542 294.0 280.0Z" fill-rule="nonzero"/><path stroke="#000000" stroke-width="2.0" stroke-linecap="butt" stroke-opacity="0.0" clip-path="url(#id_0)" d="M394.0 300.0L383.0 300.0L383.0 267.0C383.0 265.89542 383.89542 265.0 385.0 265.0L392.0 265.0C393.10458 265.0 394.0 265.89542 394.0 267.0Z" fill-rule="nonzero"/><path fill="#4285f4" clip-path="url(#id_0)" d="M394.0 300.0L383.0 300.0L383.0 267.0C383.0 265.89542 383.89542 265.0 385.0 265.0L392.0 265.0C393.10458 265.0 394.0 265.89542 394.0 267.0Z" fill-rule="nonzero"/><path stroke="#000000" stroke-width="2.0" stroke-linecap="butt" stroke-opacity="0.0" clip-path="url(#id_0)" d="M494.0 300.0L483.0 300.0L483.0 225.0C483.0 223.89543 483.89542 223.0 485.0 223.0L492.0 223.0C493.10458 223.0 494.0 223.89543 494.0 225.0Z" fill-rule="nonzero"/><path fill="#4285f4" clip-path="url(#id_0)" d="M494.0 300.0L483.0 300.0L483.0 225.0C483.0 223.89543 483.89542 223.0 485.0 223.0L492.0 223.0C493.10458 223.0 494.0 223.89543 494.0 225.0Z" fill-rule="nonzero"/><path stroke="#000000" stroke-width="2.0" stroke-linecap="butt" stroke-opacity="0.0" clip-path="url(#id_0)" d="M106.0 300.0L95.0 300.0L95.0 286.0C95.0 284.89542 95.89543 284.0 97.0 284.0L104.0 284.0C105.10457 284.0 106.0 284.89542 106.0 286.0Z" fill-rule="nonzero"/><path fill="#ea4335" clip-path="url(#id_0)" d="M106.0 300.0L95.0 300.0L95.0 286.0C95.0 284.89542 95.89543 284.0 97.0 284.0L104.0 284.0C105.10457 284.0 106.0 284.89542 106.0 286.0Z" fill-rule="nonzero"/><path stroke="#000000" stroke-width="2.0" stroke-linecap="butt" stroke-opacity="0.0" clip-path="url(#id_0)" d="M206.0 300.0L195.0 300.0L195.0 281.0C195.0 279.89542 195.89543 279.0 197.0 279.0L204.0 279.0C205.10457 279.0 206.0 279.89542 206.0 281.0Z" fill-rule="nonzero"/><path fill="#ea4335" clip-path="url(#id_0)" d="M206.0 300.0L195.0 300.0L195.0 281.0C195.0 279.89542 195.89543 279.0 197.0 279.0L204.0 279.0C205.10457 279.0 206.0 279.89542 206.0 281.0Z" fill-rule="nonzero"/><path stroke="#000000" stroke-width="2.0" stroke-linecap="butt" stroke-opacity="0.0" clip-path="url(#id_0)" d="M307.0 300.0L296.0 300.0L296.0 280.0C296.0 278.89542 296.89542 278.0 298.0 278.0L305.0 278.0C306.10458 278.0 307.0 278.89542 307.0 280.0Z" fill-rule="nonzero"/><path fill="#ea4335" clip-path="url(#id_0)" d="M307.0 300.0L296.0 300.0L296.0 280.0C296.0 278.89542 296.89542 278.0 298.0 278.0L305.0 278.0C306.10458 278.0 307.0 278.89542 307.0 280.0Z" fill-rule="nonzero"/><path stroke="#000000" stroke-width="2.0" stroke-linecap="butt" stroke-opacity="0.0" clip-path="url(#id_0)" d="M407.0 300.0L396.0 300.0L396.0 266.0C396.0 264.89542 396.89542 264.0 398.0 264.0L405.0 264.0C406.10458 264.0 407.0 264.89542 407.0 266.0Z" fill-rule="nonzero"/><path fill="#ea4335" clip-path="url(#id_0)" d="M407.0 300.0L396.0 300.0L396.0 266.0C396.0 264.89542 396.89542 264.0 398.0 264.0L405.0 264.0C406.10458 264.0 407.0 264.89542 407.0 266.0Z" fill-rule="nonzero"/><path stroke="#000000" stroke-width="2.0" stroke-linecap="butt" stroke-opacity="0.0" clip-path="url(#id_0)" d="M507.0 300.0L496.0 300.0L496.0 223.0C496.0 221.89543 496.89542 221.0 498.0 221.0L505.0 221.0C506.10458 221.0 507.0 221.89543 507.0 223.0Z" fill-rule="nonzero"/><path fill="#ea4335" clip-path="url(#id_0)" d="M507.0 300.0L496.0 300.0L496.0 223.0C496.0 221.89543 496.89542 221.0 498.0 221.0L505.0 221.0C506.10458 221.0 507.0 221.89543 507.0 223.0Z" fill-rule="nonzero"/><path stroke="#000000" stroke-width="2.0" stroke-linecap="butt" stroke-opacity="0.0" clip-path="url(#id_0)" d="M119.0 300.0L108.0 300.0L108.0 289.0C108.0 287.89542 108.89543 287.0 110.0 287.0L117.0 287.0C118.10457 287.0 119.0 287.89542 119.0 289.0Z" fill-rule="nonzero"/><path fill="#fbbc04" clip-path="url(#id_0)" d="M119.0 300.0L108.0 300.0L108.0 289.0C108.0 287.89542 108.89543 287.0 110.0 287.0L117.0 287.0C118.10457 287.0 119.0 287.89542 119.0 289.0Z" fill-rule="nonzero"/><path stroke="#000000" stroke-width="2.0" stroke-linecap="butt" stroke-opacity="0.0" clip-path="url(#id_0)" d="M219.0 300.0L208.0 300.0L208.0 284.0C208.0 282.89542 208.89543 282.0 210.0 282.0L217.0 282.0C218.10457 282.0 219.0 282.89542 219.0 284.0Z" fill-rule="nonzero"/><path fill="#fbbc04" clip-path="url(#id_0)" d="M219.0 300.0L208.0 300.0L208.0 284.0C208.0 282.89542 208.89543 282.0 210.0 282.0L217.0 282.0C218.10457 282.0 219.0 282.89542 219.0 284.0Z" fill-rule="nonzero"/><path stroke="#000000" stroke-width="2.0" stroke-linecap="butt" stroke-opacity="0.0" clip-path="url(#id_0)" d="M320.0 300.0L309.0 300.0L309.0 283.0C309.0 281.89542 309.89542 281.0 311.0 281.0L318.0 281.0C319.10458 281.0 320.0 281.89542 320.0 283.0Z" fill-rule="nonzero"/><path fill="#fbbc04" clip-path="url(#id_0)" d="M320.0 300.0L309.0 300.0L309.0 283.0C309.0 281.89542 309.89542 281.0 311.0 281.0L318.0 281.0C319.10458 281.0 320.0 281.89542 320.0 283.0Z" fill-rule="nonzero"/><path stroke="#000000" stroke-width="2.0" stroke-linecap="butt" stroke-opacity="0.0" clip-path="url(#id_0)" d="M420.0 300.0L409.0 300.0L409.0 272.0C409.0 270.89542 409.89542 270.0 411.0 270.0L418.0 270.0C419.10458 270.0 420.0 270.89542 420.0 272.0Z" fill-rule="nonzero"/><path fill="#fbbc04" clip-path="url(#id_0)" d="M420.0 300.0L409.0 300.0L409.0 272.0C409.0 270.89542 409.89542 270.0 411.0 270.0L418.0 270.0C419.10458 270.0 420.0 270.89542 420.0 272.0Z" fill-rule="nonzero"/><path stroke="#000000" stroke-width="2.0" stroke-linecap="butt" stroke-opacity="0.0" clip-path="url(#id_0)" d="M520.0 300.0L509.0 300.0L509.0 236.0C509.0 234.89543 509.89542 234.0 511.0 234.0L518.0 234.0C519.10455 234.0 520.0 234.89543 520.0 236.0Z" fill-rule="nonzero"/><path fill="#fbbc04" clip-path="url(#id_0)" d="M520.0 300.0L509.0 300.0L509.0 236.0C509.0 234.89543 509.89542 234.0 511.0 234.0L518.0 234.0C519.10455 234.0 520.0 234.89543 520.0 236.0Z" fill-rule="nonzero"/><path stroke="#000000" stroke-width="2.0" stroke-linecap="butt" stroke-opacity="0.0" clip-path="url(#id_0)" d="M132.0 300.0L121.0 300.0L121.0 272.0C121.0 270.89542 121.89543 270.0 123.0 270.0L130.0 270.0C131.10457 270.0 132.0 270.89542 132.0 272.0Z" fill-rule="nonzero"/><path fill="#34a853" clip-path="url(#id_0)" d="M132.0 300.0L121.0 300.0L121.0 272.0C121.0 270.89542 121.89543 270.0 123.0 270.0L130.0 270.0C131.10457 270.0 132.0 270.89542 132.0 272.0Z" fill-rule="nonzero"/><path stroke="#000000" stroke-width="2.0" stroke-linecap="butt" stroke-opacity="0.0" clip-path="url(#id_0)" d="M232.0 300.0L221.0 300.0L221.0 261.0C221.0 259.89542 221.89543 259.0 223.0 259.0L230.0 259.0C231.10457 259.0 232.0 259.89542 232.0 261.0Z" fill-rule="nonzero"/><path fill="#34a853" clip-path="url(#id_0)" d="M232.0 300.0L221.0 300.0L221.0 261.0C221.0 259.89542 221.89543 259.0 223.0 259.0L230.0 259.0C231.10457 259.0 232.0 259.89542 232.0 261.0Z" fill-rule="nonzero"/><path stroke="#000000" stroke-width="2.0" stroke-linecap="butt" stroke-opacity="0.0" clip-path="url(#id_0)" d="M333.0 300.0L322.0 300.0L322.0 259.0C322.0 257.89542 322.89542 257.0 324.0 257.0L331.0 257.0C332.10458 257.0 333.0 257.89542 333.0 259.0Z" fill-rule="nonzero"/><path fill="#34a853" clip-path="url(#id_0)" d="M333.0 300.0L322.0 300.0L322.0 259.0C322.0 257.89542 322.89542 257.0 324.0 257.0L331.0 257.0C332.10458 257.0 333.0 257.89542 333.0 259.0Z" fill-rule="nonzero"/><path stroke="#000000" stroke-width="2.0" stroke-linecap="butt" stroke-opacity="0.0" clip-path="url(#id_0)" d="M433.0 300.0L422.0 300.0L422.0 236.0C422.0 234.89543 422.89542 234.0 424.0 234.0L431.0 234.0C432.10458 234.0 433.0 234.89543 433.0 236.0Z" fill-rule="nonzero"/><path fill="#34a853" clip-path="url(#id_0)" d="M433.0 300.0L422.0 300.0L422.0 236.0C422.0 234.89543 422.89542 234.0 424.0 234.0L431.0 234.0C432.10458 234.0 433.0 234.89543 433.0 236.0Z" fill-rule="nonzero"/><path stroke="#000000" stroke-width="2.0" stroke-linecap="butt" stroke-opacity="0.0" clip-path="url(#id_0)" d="M533.0 300.0L522.0 300.0L522.0 130.0C522.0 128.89543 522.89545 128.0 524.0 128.0L531.0 128.0C532.10455 128.0 533.0 128.89543 533.0 130.0Z" fill-rule="nonzero"/><path fill="#34a853" clip-path="url(#id_0)" d="M533.0 300.0L522.0 300.0L522.0 130.0C522.0 128.89543 522.89545 128.0 524.0 128.0L531.0 128.0C532.10455 128.0 533.0 128.89543 533.0 130.0Z" fill-rule="nonzero"/><path stroke="#000000" stroke-width="2.0" stroke-linecap="butt" stroke-opacity="0.0" clip-path="url(#id_0)" d="M145.0 300.0L134.0 300.0L134.0 272.0C134.0 270.89542 134.89543 270.0 136.0 270.0L143.0 270.0C144.10457 270.0 145.0 270.89542 145.0 272.0Z" fill-rule="nonzero"/><path fill="#ff6d01" clip-path="url(#id_0)" d="M145.0 300.0L134.0 300.0L134.0 272.0C134.0 270.89542 134.89543 270.0 136.0 270.0L143.0 270.0C144.10457 270.0 145.0 270.89542 145.0 272.0Z" fill-rule="nonzero"/><path stroke="#000000" stroke-width="2.0" stroke-linecap="butt" stroke-opacity="0.0" clip-path="url(#id_0)" d="M245.0 300.0L234.0 300.0L234.0 264.0C234.0 262.89542 234.89543 262.0 236.0 262.0L243.0 262.0C244.10457 262.0 245.0 262.89542 245.0 264.0Z" fill-rule="nonzero"/><path fill="#ff6d01" clip-path="url(#id_0)" d="M245.0 300.0L234.0 300.0L234.0 264.0C234.0 262.89542 234.89543 262.0 236.0 262.0L243.0 262.0C244.10457 262.0 245.0 262.89542 245.0 264.0Z" fill-rule="nonzero"/><path stroke="#000000" stroke-width="2.0" stroke-linecap="butt" stroke-opacity="0.0" clip-path="url(#id_0)" d="M346.0 300.0L335.0 300.0L335.0 262.0C335.0 260.89542 335.89542 260.0 337.0 260.0L344.0 260.0C345.10458 260.0 346.0 260.89542 346.0 262.0Z" fill-rule="nonzero"/><path fill="#ff6d01" clip-path="url(#id_0)" d="M346.0 300.0L335.0 300.0L335.0 262.0C335.0 260.89542 335.89542 260.0 337.0 260.0L344.0 260.0C345.10458 260.0 346.0 260.89542 346.0 262.0Z" fill-rule="nonzero"/><path stroke="#000000" stroke-width="2.0" stroke-linecap="butt" stroke-opacity="0.0" clip-path="url(#id_0)" d="M446.0 300.0L435.0 300.0L435.0 240.0C435.0 238.89543 435.89542 238.0 437.0 238.0L444.0 238.0C445.10458 238.0 446.0 238.89543 446.0 240.0Z" fill-rule="nonzero"/><path fill="#ff6d01" clip-path="url(#id_0)" d="M446.0 300.0L435.0 300.0L435.0 240.0C435.0 238.89543 435.89542 238.0 437.0 238.0L444.0 238.0C445.10458 238.0 446.0 238.89543 446.0 240.0Z" fill-rule="nonzero"/><path stroke="#000000" stroke-width="2.0" stroke-linecap="butt" stroke-opacity="0.0" clip-path="url(#id_0)" d="M546.0 300.0L535.0 300.0L535.0 137.0C535.0 135.89543 535.89545 135.0 537.0 135.0L544.0 135.0C545.10455 135.0 546.0 135.89543 546.0 137.0Z" fill-rule="nonzero"/><path fill="#ff6d01" clip-path="url(#id_0)" d="M546.0 300.0L535.0 300.0L535.0 137.0C535.0 135.89543 535.89545 135.0 537.0 135.0L544.0 135.0C545.10455 135.0 546.0 135.89543 546.0 137.0Z" fill-rule="nonzero"/><path fill="#000000" d="M285.89062 349.45L285.89062 340.85626L287.60938 340.85626L289.64062 346.9344Q289.92188 347.79376 290.04688 348.21564Q290.1875 347.7469 290.5 346.84064L292.5625 340.85626L294.09375 340.85626L294.09375 349.45L293.0 349.45L293.0 342.2625L290.5 349.45L289.46875 349.45L286.98438 342.1375L286.98438 349.45L285.89062 349.45ZM298.85938 348.6844Q298.26562 349.1844 297.71875 349.3875Q297.1875 349.59064 296.5625 349.59064Q295.53125 349.59064 294.98438 349.09064Q294.4375 348.59064 294.4375 347.8094Q294.4375 347.35626 294.64062 346.98126Q294.84375 346.59064 295.1875 346.3719Q295.53125 346.1375 295.95312 346.02814Q296.25 345.9344 296.89062 345.85626Q298.15625 345.71564 298.76562 345.4969Q298.76562 345.27814 298.76562 345.23126Q298.76562 344.575 298.46875 344.3094Q298.0625 343.96564 297.26562 343.96564Q296.53125 343.96564 296.17188 344.23126Q295.8125 344.48126 295.64062 345.1375L294.60938 344.9969Q294.75 344.34064 295.07812 343.9344Q295.40625 343.52814 296.01562 343.3094Q296.625 343.09064 297.42188 343.09064Q298.21875 343.09064 298.71875 343.27814Q299.21875 343.46564 299.45312 343.7469Q299.6875 344.02814 299.78125 344.46564Q299.82812 344.73126 299.82812 345.4344L299.82812 346.84064Q299.82812 348.3094 299.89062 348.7Q299.96875 349.09064 300.17188 349.45L299.0625 349.45Q298.90625 349.1219 298.85938 348.6844ZM298.76562 346.325Q298.1875 346.5594 297.04688 346.73126Q296.39062 346.825 296.125 346.95Q295.85938 347.0594 295.70312 347.27814Q295.5625 347.4969 295.5625 347.77814Q295.5625 348.2 295.875 348.48126Q296.20312 348.7625 296.8125 348.7625Q297.42188 348.7625 297.89062 348.4969Q298.375 348.23126 298.59375 347.7625Q298.76562 347.40314 298.76562 346.71564L298.76562 346.325ZM304.09375 348.5125L304.25 349.4344Q303.79688 349.52814 303.45312 349.52814Q302.875 349.52814 302.5625 349.35626Q302.25 349.16876 302.10938 348.8719Q301.98438 348.575 301.98438 347.6219L301.98438 344.04376L301.21875 344.04376L301.21875 343.23126L301.98438 343.23126L301.98438 341.6844L303.03125 341.0594L303.03125 343.23126L304.09375 343.23126L304.09375 344.04376L303.03125 344.04376L303.03125 347.6844Q303.03125 348.1375 303.07812 348.2625Q303.14062 348.3875 303.26562 348.46564Q303.39062 348.54376 303.625 348.54376Q303.8125 348.54376 304.09375 348.5125ZM304.78125 349.45L304.78125 343.23126L305.73438 343.23126L305.73438 344.16876Q306.09375 343.5125 306.39062 343.3094Q306.70312 343.09064 307.07812 343.09064Q307.60938 343.09064 308.15625 343.41876L307.79688 344.40314Q307.40625 344.16876 307.03125 344.16876Q306.67188 344.16876 306.39062 344.3875Q306.125 344.59064 306.01562 344.96564Q305.82812 345.52814 305.82812 346.1844L305.82812 349.45L304.78125 349.45ZM308.79688 342.075L308.79688 340.85626L309.85938 340.85626L309.85938 342.075L308.79688 342.075ZM308.79688 349.45L308.79688 343.23126L309.85938 343.23126L309.85938 349.45L308.79688 349.45ZM311.09375 349.45L313.35938 346.21564L311.26562 343.23126L312.57812 343.23126L313.53125 344.6844Q313.79688 345.10626 313.96875 345.3875Q314.21875 344.9969 314.4375 344.7L315.48438 343.23126L316.75 343.23126L314.59375 346.15314L316.90625 349.45L315.625 349.45L314.34375 347.5125L314.0 346.9969L312.35938 349.45L311.09375 349.45ZM319.54688 346.6844L320.60938 346.59064Q320.6875 347.2469 320.96875 347.65314Q321.25 348.0594 321.82812 348.325Q322.42188 348.575 323.15625 348.575Q323.79688 348.575 324.29688 348.3875Q324.79688 348.1844 325.03125 347.85626Q325.28125 347.5125 325.28125 347.1219Q325.28125 346.71564 325.04688 346.41876Q324.8125 346.10626 324.28125 345.90314Q323.92188 345.7625 322.73438 345.48126Q321.5625 345.2 321.09375 344.95Q320.46875 344.6219 320.17188 344.15314Q319.875 343.66876 319.875 343.075Q319.875 342.4344 320.23438 341.8719Q320.60938 341.29376 321.3125 341.0125Q322.03125 340.71564 322.89062 340.71564Q323.84375 340.71564 324.57812 341.02814Q325.3125 341.325 325.70312 341.9344Q326.09375 342.52814 326.125 343.27814L325.03125 343.35626Q324.9375 342.54376 324.42188 342.1375Q323.92188 341.71564 322.9375 341.71564Q321.90625 341.71564 321.4375 342.09064Q320.96875 342.46564 320.96875 342.9969Q320.96875 343.46564 321.29688 343.7625Q321.625 344.0594 323.0 344.3719Q324.39062 344.6844 324.90625 344.91876Q325.65625 345.27814 326.01562 345.8094Q326.375 346.325 326.375 347.02814Q326.375 347.71564 325.98438 348.325Q325.59375 348.91876 324.85938 349.2625Q324.125 349.59064 323.20312 349.59064Q322.03125 349.59064 321.23438 349.2625Q320.45312 348.91876 320.0 348.23126Q319.5625 347.54376 319.54688 346.6844ZM327.79688 342.075L327.79688 340.85626L328.85938 340.85626L328.85938 342.075L327.79688 342.075ZM327.79688 349.45L327.79688 343.23126L328.85938 343.23126L328.85938 349.45L327.79688 349.45ZM330.23438 349.45L330.23438 348.59064L334.20312 344.04376Q333.51562 344.075 333.0 344.075L330.46875 344.075L330.46875 343.23126L335.5625 343.23126L335.5625 343.91876L332.1875 347.8719L331.53125 348.59064Q332.25 348.54376 332.85938 348.54376L335.75 348.54376L335.75 349.45L330.23438 349.45ZM340.04688 347.45L341.14062 347.575Q340.89062 348.52814 340.1875 349.0594Q339.48438 349.59064 338.40625 349.59064Q337.04688 349.59064 336.23438 348.7469Q335.4375 347.90314 335.4375 346.3875Q335.4375 344.825 336.25 343.96564Q337.0625 343.09064 338.34375 343.09064Q339.59375 343.09064 340.375 343.9344Q341.17188 344.77814 341.17188 346.325Q341.17188 346.41876 341.17188 346.60626L336.53125 346.60626Q336.59375 347.6375 337.10938 348.1844Q337.625 348.71564 338.40625 348.71564Q338.98438 348.71564 339.39062 348.41876Q339.8125 348.10626 340.04688 347.45ZM336.59375 345.7469L340.0625 345.7469Q340.0 344.95 339.67188 344.5594Q339.15625 343.95 338.35938 343.95Q337.625 343.95 337.125 344.4344Q336.64062 344.91876 336.59375 345.7469Z" fill-rule="nonzero"/><path fill="#000000" d="M33.05 300.21564Q33.05 298.6844 33.3625 297.7625Q33.675 296.825 34.284374 296.325Q34.909374 295.825 35.846874 295.825Q36.534374 295.825 37.05 296.10626Q37.58125 296.3875 37.925 296.91876Q38.26875 297.4344 38.45625 298.1844Q38.64375 298.9344 38.64375 300.21564Q38.64375 301.73126 38.33125 302.65314Q38.034374 303.575 37.409374 304.09064Q36.8 304.59064 35.846874 304.59064Q34.6125 304.59064 33.89375 303.7Q33.05 302.6375 33.05 300.21564ZM34.128124 300.21564Q34.128124 302.325 34.628124 303.02814Q35.128124 303.73126 35.846874 303.73126Q36.58125 303.73126 37.065624 303.02814Q37.565624 302.325 37.565624 300.21564Q37.565624 298.09064 37.065624 297.40314Q36.58125 296.7 35.83125 296.7Q35.1125 296.7 34.675 297.3094Q34.128124 298.09064 34.128124 300.21564Z" fill-rule="nonzero"/><path fill="#000000" d="M33.05 231.47778L34.159374 231.38403Q34.284374 232.19653 34.721874 232.60278Q35.175 233.00903 35.815624 233.00903Q36.565624 233.00903 37.096874 232.43091Q37.628124 231.85278 37.628124 230.91528Q37.628124 230.00903 37.1125 229.49341Q36.6125 228.96216 35.784374 228.96216Q35.284374 228.96216 34.8625 229.19653Q34.45625 229.43091 34.221874 229.79028L33.2375 229.66528L34.065624 225.25903L38.346874 225.25903L38.346874 226.25903L34.909374 226.25903L34.45625 228.57153Q35.221874 228.02466 36.065624 228.02466Q37.190624 228.02466 37.95625 228.80591Q38.7375 229.58716 38.7375 230.82153Q38.7375 231.97778 38.065624 232.83716Q37.2375 233.86841 35.815624 233.86841Q34.64375 233.86841 33.89375 233.21216Q33.159374 232.55591 33.05 231.47778Z" fill-rule="nonzero"/><path fill="#000000" d="M30.01875 163.00555L28.971874 163.00555L28.971874 156.2868Q28.58125 156.64618 27.95625 157.02118Q27.346874 157.38055 26.8625 157.55243L26.8625 156.5368Q27.7375 156.11493 28.39375 155.5368Q29.065624 154.94305 29.346874 154.38055L30.01875 154.38055L30.01875 163.00555ZM33.05 158.77118Q33.05 157.23993 33.3625 156.31805Q33.675 155.38055 34.284374 154.88055Q34.909374 154.38055 35.846874 154.38055Q36.534374 154.38055 37.05 154.6618Q37.58125 154.94305 37.925 155.4743Q38.26875 155.98993 38.45625 156.73993Q38.64375 157.48993 38.64375 158.77118Q38.64375 160.2868 38.33125 161.20868Q38.034374 162.13055 37.409374 162.64618Q36.8 163.14618 35.846874 163.14618Q34.6125 163.14618 33.89375 162.25555Q33.05 161.19305 33.05 158.77118ZM34.128124 158.77118Q34.128124 160.88055 34.628124 161.58368Q35.128124 162.2868 35.846874 162.2868Q36.58125 162.2868 37.065624 161.58368Q37.565624 160.88055 37.565624 158.77118Q37.565624 156.64618 37.065624 155.95868Q36.58125 155.25555 35.83125 155.25555Q35.1125 155.25555 34.675 155.86493Q34.128124 156.64618 34.128124 158.77118Z" fill-rule="nonzero"/><path fill="#000000" d="M30.01875 92.28333L28.971874 92.28333L28.971874 85.56458Q28.58125 85.92396 27.95625 86.29896Q27.346874 86.65833 26.8625 86.83021L26.8625 85.81458Q27.7375 85.39271 28.39375 84.81458Q29.065624 84.22083 29.346874 83.65833L30.01875 83.65833L30.01875 92.28333ZM33.05 90.03333L34.159374 89.93958Q34.284374 90.75208 34.721874 91.15833Q35.175 91.56458 35.815624 91.56458Q36.565624 91.56458 37.096874 90.98646Q37.628124 90.40833 37.628124 89.47083Q37.628124 88.56458 37.1125 88.04896Q36.6125 87.51771 35.784374 87.51771Q35.284374 87.51771 34.8625 87.75208Q34.45625 87.98646 34.221874 88.34583L33.2375 88.22083L34.065624 83.81458L38.346874 83.81458L38.346874 84.81458L34.909374 84.81458L34.45625 87.12708Q35.221874 86.58021 36.065624 86.58021Q37.190624 86.58021 37.95625 87.36146Q38.7375 88.14271 38.7375 89.37708Q38.7375 90.53333 38.065624 91.39271Q37.2375 92.42396 35.815624 92.42396Q34.64375 92.42396 33.89375 91.76771Q33.159374 91.11146 33.05 90.03333Z" fill-rule="nonzero"/><path fill="#000000" d="M108.71043 316.4344L108.71043 317.45L103.02293 317.45Q103.02293 317.075 103.14793 316.71564Q103.36668 316.1375 103.83543 315.575Q104.3198 315.0125 105.22605 314.27814Q106.6323 313.1219 107.11668 312.45Q107.61668 311.77814 107.61668 311.1844Q107.61668 310.5594 107.16355 310.1375Q106.71043 309.7 105.99168 309.7Q105.22605 309.7 104.77293 310.15314Q104.3198 310.60626 104.30418 311.41876L103.22605 311.3094Q103.33543 310.09064 104.05418 309.46564Q104.78855 308.825 106.02293 308.825Q107.2573 308.825 107.97605 309.5125Q108.6948 310.2 108.6948 311.21564Q108.6948 311.73126 108.47605 312.23126Q108.27293 312.71564 107.77293 313.27814Q107.28855 313.825 106.16355 314.77814Q105.21043 315.575 104.92918 315.8719Q104.66355 316.15314 104.49168 316.4344L108.71043 316.4344ZM110.16355 315.2L111.27293 315.10626Q111.39793 315.91876 111.83543 316.325Q112.28855 316.73126 112.92918 316.73126Q113.67918 316.73126 114.21043 316.15314Q114.74168 315.575 114.74168 314.6375Q114.74168 313.73126 114.22605 313.21564Q113.72605 312.6844 112.89793 312.6844Q112.39793 312.6844 111.97605 312.91876Q111.5698 313.15314 111.33543 313.5125L110.35105 313.3875L111.17918 308.98126L115.46043 308.98126L115.46043 309.98126L112.02293 309.98126L111.5698 312.29376Q112.33543 311.7469 113.17918 311.7469Q114.30418 311.7469 115.0698 312.52814Q115.85105 313.3094 115.85105 314.54376Q115.85105 315.7 115.17918 316.5594Q114.35105 317.59064 112.92918 317.59064Q111.7573 317.59064 111.0073 316.9344Q110.27293 316.27814 110.16355 315.2ZM122.6323 310.96564L121.58543 311.04376Q121.4448 310.41876 121.1948 310.1375Q120.7573 309.6844 120.1323 309.6844Q119.6323 309.6844 119.24168 309.96564Q118.7573 310.34064 118.46043 311.04376Q118.17918 311.73126 118.16355 313.0125Q118.53855 312.4344 119.08543 312.15314Q119.64793 311.8719 120.2573 311.8719Q121.30418 311.8719 122.03855 312.65314Q122.78855 313.4344 122.78855 314.65314Q122.78855 315.46564 122.42918 316.16876Q122.08543 316.85626 121.47605 317.23126Q120.86668 317.59064 120.10105 317.59064Q118.77293 317.59064 117.9448 316.6219Q117.11668 315.65314 117.11668 313.4344Q117.11668 310.9344 118.03855 309.8094Q118.83543 308.825 120.1948 308.825Q121.21043 308.825 121.85105 309.40314Q122.5073 309.96564 122.6323 310.96564ZM118.33543 314.66876Q118.33543 315.21564 118.55418 315.71564Q118.78855 316.2 119.1948 316.46564Q119.61668 316.73126 120.08543 316.73126Q120.74168 316.73126 121.22605 316.2Q121.71043 315.65314 121.71043 314.73126Q121.71043 313.84064 121.22605 313.325Q120.7573 312.8094 120.03855 312.8094Q119.3198 312.8094 118.8198 313.325Q118.33543 313.84064 118.33543 314.66876Z" fill-rule="nonzero"/><path fill="#000000" d="M203.33177 315.2L204.44115 315.10626Q204.56615 315.91876 205.00365 316.325Q205.45677 316.73126 206.0974 316.73126Q206.8474 316.73126 207.37865 316.15314Q207.9099 315.575 207.9099 314.6375Q207.9099 313.73126 207.39427 313.21564Q206.89427 312.6844 206.06615 312.6844Q205.56615 312.6844 205.14427 312.91876Q204.73802 313.15314 204.50365 313.5125L203.51927 313.3875L204.3474 308.98126L208.62865 308.98126L208.62865 309.98126L205.19115 309.98126L204.73802 312.29376Q205.50365 311.7469 206.3474 311.7469Q207.4724 311.7469 208.23802 312.52814Q209.01927 313.3094 209.01927 314.54376Q209.01927 315.7 208.3474 316.5594Q207.51927 317.59064 206.0974 317.59064Q204.92552 317.59064 204.17552 316.9344Q203.44115 316.27814 203.33177 315.2ZM214.30052 317.45L213.25365 317.45L213.25365 310.73126Q212.86302 311.09064 212.23802 311.46564Q211.62865 311.825 211.14427 311.9969L211.14427 310.98126Q212.01927 310.5594 212.67552 309.98126Q213.3474 309.3875 213.62865 308.825L214.30052 308.825L214.30052 317.45ZM222.87865 316.4344L222.87865 317.45L217.19115 317.45Q217.19115 317.075 217.31615 316.71564Q217.5349 316.1375 218.00365 315.575Q218.48802 315.0125 219.39427 314.27814Q220.80052 313.1219 221.2849 312.45Q221.7849 311.77814 221.7849 311.1844Q221.7849 310.5594 221.33177 310.1375Q220.87865 309.7 220.1599 309.7Q219.39427 309.7 218.94115 310.15314Q218.48802 310.60626 218.4724 311.41876L217.39427 311.3094Q217.50365 310.09064 218.2224 309.46564Q218.95677 308.825 220.19115 308.825Q221.42552 308.825 222.14427 309.5125Q222.86302 310.2 222.86302 311.21564Q222.86302 311.73126 222.64427 312.23126Q222.44115 312.71564 221.94115 313.27814Q221.45677 313.825 220.33177 314.77814Q219.37865 315.575 219.0974 315.8719Q218.83177 316.15314 218.6599 316.4344L222.87865 316.4344Z" fill-rule="nonzero"/><path fill="#000000" d="M303.96875 317.45L302.92188 317.45L302.92188 310.73126Q302.53125 311.09064 301.90625 311.46564Q301.29688 311.825 300.8125 311.9969L300.8125 310.98126Q301.6875 310.5594 302.34375 309.98126Q303.01562 309.3875 303.29688 308.825L303.96875 308.825L303.96875 317.45ZM307.0 313.21564Q307.0 311.6844 307.3125 310.7625Q307.625 309.825 308.23438 309.325Q308.85938 308.825 309.79688 308.825Q310.48438 308.825 311.0 309.10626Q311.53125 309.3875 311.875 309.91876Q312.21875 310.4344 312.40625 311.1844Q312.59375 311.9344 312.59375 313.21564Q312.59375 314.73126 312.28125 315.65314Q311.98438 316.575 311.35938 317.09064Q310.75 317.59064 309.79688 317.59064Q308.5625 317.59064 307.84375 316.7Q307.0 315.6375 307.0 313.21564ZM308.07812 313.21564Q308.07812 315.325 308.57812 316.02814Q309.07812 316.73126 309.79688 316.73126Q310.53125 316.73126 311.01562 316.02814Q311.51562 315.325 311.51562 313.21564Q311.51562 311.09064 311.01562 310.40314Q310.53125 309.7 309.78125 309.7Q309.0625 309.7 308.625 310.3094Q308.07812 311.09064 308.07812 313.21564ZM319.54688 316.4344L319.54688 317.45L313.85938 317.45Q313.85938 317.075 313.98438 316.71564Q314.20312 316.1375 314.67188 315.575Q315.15625 315.0125 316.0625 314.27814Q317.46875 313.1219 317.95312 312.45Q318.45312 311.77814 318.45312 311.1844Q318.45312 310.5594 318.0 310.1375Q317.54688 309.7 316.82812 309.7Q316.0625 309.7 315.60938 310.15314Q315.15625 310.60626 315.14062 311.41876L314.0625 311.3094Q314.17188 310.09064 314.89062 309.46564Q315.625 308.825 316.85938 308.825Q318.09375 308.825 318.8125 309.5125Q319.53125 310.2 319.53125 311.21564Q319.53125 311.73126 319.3125 312.23126Q319.10938 312.71564 318.60938 313.27814Q318.125 313.825 317.0 314.77814Q316.04688 315.575 315.76562 315.8719Q315.5 316.15314 315.32812 316.4344L319.54688 316.4344ZM324.375 317.45L324.375 315.3875L320.65625 315.3875L320.65625 314.41876L324.57812 308.85626L325.4375 308.85626L325.4375 314.41876L326.59375 314.41876L326.59375 315.3875L325.4375 315.3875L325.4375 317.45L324.375 317.45ZM324.375 314.41876L324.375 310.5594L321.6875 314.41876L324.375 314.41876Z" fill-rule="nonzero"/><path fill="#000000" d="M405.7151 316.4344L405.7151 317.45L400.0276 317.45Q400.0276 317.075 400.1526 316.71564Q400.37134 316.1375 400.8401 315.575Q401.32446 315.0125 402.2307 314.27814Q403.63696 313.1219 404.12134 312.45Q404.62134 311.77814 404.62134 311.1844Q404.62134 310.5594 404.1682 310.1375Q403.7151 309.7 402.99634 309.7Q402.2307 309.7 401.7776 310.15314Q401.32446 310.60626 401.30884 311.41876L400.2307 311.3094Q400.3401 310.09064 401.05884 309.46564Q401.7932 308.825 403.0276 308.825Q404.26196 308.825 404.9807 309.5125Q405.69946 310.2 405.69946 311.21564Q405.69946 311.73126 405.4807 312.23126Q405.2776 312.71564 404.7776 313.27814Q404.2932 313.825 403.1682 314.77814Q402.2151 315.575 401.93384 315.8719Q401.6682 316.15314 401.49634 316.4344L405.7151 316.4344ZM407.1682 313.21564Q407.1682 311.6844 407.4807 310.7625Q407.7932 309.825 408.4026 309.325Q409.0276 308.825 409.9651 308.825Q410.6526 308.825 411.1682 309.10626Q411.69946 309.3875 412.0432 309.91876Q412.38696 310.4344 412.57446 311.1844Q412.76196 311.9344 412.76196 313.21564Q412.76196 314.73126 412.44946 315.65314Q412.1526 316.575 411.5276 317.09064Q410.9182 317.59064 409.9651 317.59064Q408.7307 317.59064 408.01196 316.7Q407.1682 315.6375 407.1682 313.21564ZM408.24634 313.21564Q408.24634 315.325 408.74634 316.02814Q409.24634 316.73126 409.9651 316.73126Q410.69946 316.73126 411.18384 316.02814Q411.68384 315.325 411.68384 313.21564Q411.68384 311.09064 411.18384 310.40314Q410.69946 309.7 409.94946 309.7Q409.2307 309.7 408.7932 310.3094Q408.24634 311.09064 408.24634 313.21564ZM417.5432 317.45L417.5432 315.3875L413.82446 315.3875L413.82446 314.41876L417.74634 308.85626L418.6057 308.85626L418.6057 314.41876L419.76196 314.41876L419.76196 315.3875L418.6057 315.3875L418.6057 317.45L417.5432 317.45ZM417.5432 314.41876L417.5432 310.5594L414.8557 314.41876L417.5432 314.41876ZM422.7932 312.79376Q422.13696 312.54376 421.80884 312.10626Q421.49634 311.65314 421.49634 311.04376Q421.49634 310.10626 422.1682 309.46564Q422.8557 308.825 423.9651 308.825Q425.0901 308.825 425.7776 309.48126Q426.4651 310.1375 426.4651 311.075Q426.4651 311.66876 426.1526 312.10626Q425.8401 312.54376 425.19946 312.79376Q425.99634 313.04376 426.4026 313.6219Q426.80884 314.2 426.80884 314.9969Q426.80884 316.09064 426.0276 316.84064Q425.26196 317.59064 423.9807 317.59064Q422.7151 317.59064 421.93384 316.84064Q421.1526 316.09064 421.1526 314.96564Q421.1526 314.1219 421.57446 313.5594Q422.01196 312.9969 422.7932 312.79376ZM422.57446 310.9969Q422.57446 311.60626 422.9651 311.9969Q423.37134 312.3875 423.99634 312.3875Q424.6057 312.3875 424.99634 312.0125Q425.38696 311.6219 425.38696 311.0594Q425.38696 310.48126 424.9807 310.09064Q424.57446 309.6844 423.9807 309.6844Q423.37134 309.6844 422.9651 310.075Q422.57446 310.46564 422.57446 310.9969ZM422.24634 314.96564Q422.24634 315.41876 422.44946 315.84064Q422.6682 316.2625 423.0901 316.4969Q423.51196 316.73126 423.99634 316.73126Q424.74634 316.73126 425.2307 316.2469Q425.7307 315.7625 425.7307 315.0125Q425.7307 314.2469 425.2307 313.7469Q424.7307 313.2469 423.9651 313.2469Q423.2151 313.2469 422.7307 313.7469Q422.24634 314.23126 422.24634 314.96564Z" fill-rule="nonzero"/><path fill="#000000" d="M503.71146 317.45L503.71146 315.3875L499.9927 315.3875L499.9927 314.41876L503.91458 308.85626L504.77396 308.85626L504.77396 314.41876L505.9302 314.41876L505.9302 315.3875L504.77396 315.3875L504.77396 317.45L503.71146 317.45ZM503.71146 314.41876L503.71146 310.5594L501.02396 314.41876L503.71146 314.41876ZM507.33646 313.21564Q507.33646 311.6844 507.64896 310.7625Q507.96146 309.825 508.57083 309.325Q509.19583 308.825 510.13333 308.825Q510.82083 308.825 511.33646 309.10626Q511.8677 309.3875 512.2114 309.91876Q512.5552 310.4344 512.7427 311.1844Q512.9302 311.9344 512.9302 313.21564Q512.9302 314.73126 512.6177 315.65314Q512.3208 316.575 511.69583 317.09064Q511.08646 317.59064 510.13333 317.59064Q508.89896 317.59064 508.1802 316.7Q507.33646 315.6375 507.33646 313.21564ZM508.41458 313.21564Q508.41458 315.325 508.91458 316.02814Q509.41458 316.73126 510.13333 316.73126Q510.8677 316.73126 511.35208 316.02814Q511.85208 315.325 511.85208 313.21564Q511.85208 311.09064 511.35208 310.40314Q510.8677 309.7 510.1177 309.7Q509.39896 309.7 508.96146 310.3094Q508.41458 311.09064 508.41458 313.21564ZM514.4927 315.46564L515.5083 315.3719Q515.6333 316.09064 515.9927 316.41876Q516.3677 316.73126 516.9302 316.73126Q517.41455 316.73126 517.7739 316.5125Q518.1489 316.27814 518.3833 315.91876Q518.6177 315.54376 518.7739 314.91876Q518.9302 314.27814 518.9302 313.6219Q518.9302 313.54376 518.9302 313.40314Q518.6177 313.90314 518.0708 314.23126Q517.5239 314.54376 516.8833 314.54376Q515.8052 314.54376 515.0708 313.77814Q514.3364 312.9969 514.3364 311.73126Q514.3364 310.41876 515.10205 309.6219Q515.8833 308.825 517.03955 308.825Q517.8677 308.825 518.5552 309.27814Q519.2583 309.73126 519.6177 310.575Q519.97705 311.40314 519.97705 312.98126Q519.97705 314.6219 519.6177 315.60626Q519.2739 316.575 518.5552 317.09064Q517.85205 317.59064 516.91455 317.59064Q515.8989 317.59064 515.2583 317.04376Q514.6177 316.48126 514.4927 315.46564ZM518.8052 311.66876Q518.8052 310.7625 518.3208 310.23126Q517.85205 309.7 517.16455 309.7Q516.4614 309.7 515.9302 310.27814Q515.41455 310.84064 515.41455 311.7625Q515.41455 312.575 515.91455 313.09064Q516.41455 313.60626 517.1333 313.60626Q517.8677 313.60626 518.3364 313.09064Q518.8052 312.575 518.8052 311.66876ZM526.8052 310.96564L525.7583 311.04376Q525.6177 310.41876 525.3677 310.1375Q524.9302 309.6844 524.3052 309.6844Q523.8052 309.6844 523.41455 309.96564Q522.9302 310.34064 522.6333 311.04376Q522.35205 311.73126 522.3364 313.0125Q522.7114 312.4344 523.2583 312.15314Q523.8208 311.8719 524.4302 311.8719Q525.47705 311.8719 526.2114 312.65314Q526.9614 313.4344 526.9614 314.65314Q526.9614 315.46564 526.60205 316.16876Q526.2583 316.85626 525.6489 317.23126Q525.03955 317.59064 524.2739 317.59064Q522.9458 317.59064 522.1177 316.6219Q521.28955 315.65314 521.28955 313.4344Q521.28955 310.9344 522.2114 309.8094Q523.0083 308.825 524.3677 308.825Q525.3833 308.825 526.0239 309.40314Q526.6802 309.96564 526.8052 310.96564ZM522.5083 314.66876Q522.5083 315.21564 522.72705 315.71564Q522.9614 316.2 523.3677 316.46564Q523.78955 316.73126 524.2583 316.73126Q524.91455 316.73126 525.3989 316.2Q525.8833 315.65314 525.8833 314.73126Q525.8833 313.84064 525.3989 313.325Q524.9302 312.8094 524.2114 312.8094Q523.4927 312.8094 522.9927 313.325Q522.5083 313.84064 522.5083 314.66876Z" fill-rule="nonzero"/><path fill="#4285f4" d="M92.5 56.916668C92.5 56.364384 92.947716 55.916668 93.5 55.916668L103.5 55.916668C104.052284 55.916668 104.5 56.364384 104.5 56.916668L104.5 66.916664C104.5 67.46895 104.052284 67.916664 103.5 67.916664L93.5 67.916664C92.947716 67.916664 92.5 67.46895 92.5 66.916664Z" fill-rule="nonzero"/><path fill="#1a1a1a" d="M113.4375 65.916664L113.4375 57.322914L117.25 57.322914Q118.40625 57.322914 119.0 57.55729Q119.59375 57.791664 119.953125 58.385414Q120.3125 58.96354 120.3125 59.666664Q120.3125 60.58854 119.71875 61.21354Q119.125 61.83854 117.890625 62.010414Q118.34375 62.229164 118.578125 62.43229Q119.078125 62.885414 119.515625 63.572914L121.015625 65.916664L119.578125 65.916664L118.453125 64.135414Q117.953125 63.354164 117.625 62.947914Q117.3125 62.541664 117.046875 62.385414Q116.796875 62.21354 116.53125 62.135414Q116.34375 62.104164 115.90625 62.104164L114.578125 62.104164L114.578125 65.916664L113.4375 65.916664ZM114.578125 61.11979L117.03125 61.11979Q117.796875 61.11979 118.234375 60.96354Q118.6875 60.791664 118.90625 60.447914Q119.140625 60.08854 119.140625 59.666664Q119.140625 59.05729 118.6875 58.666664Q118.25 58.27604 117.296875 58.27604L114.578125 58.27604L114.578125 61.11979ZM126.546875 63.916664L127.640625 64.041664Q127.390625 64.99479 126.6875 65.52604Q125.984375 66.05729 124.90625 66.05729Q123.546875 66.05729 122.734375 65.21354Q121.9375 64.36979 121.9375 62.854164Q121.9375 61.291664 122.75 60.43229Q123.5625 59.55729 124.84375 59.55729Q126.09375 59.55729 126.875 60.40104Q127.671875 61.24479 127.671875 62.791664Q127.671875 62.885414 127.671875 63.072914L123.03125 63.072914Q123.09375 64.104164 123.609375 64.65104Q124.125 65.18229 124.90625 65.18229Q125.484375 65.18229 125.890625 64.885414Q126.3125 64.572914 126.546875 63.916664ZM123.09375 62.21354L126.5625 62.21354Q126.5 61.416664 126.171875 61.02604Q125.65625 60.416664 124.859375 60.416664Q124.125 60.416664 123.625 60.90104Q123.140625 61.385414 123.09375 62.21354ZM128.90625 62.80729Q128.90625 61.072914 129.85938 60.24479Q130.65625 59.55729 131.8125 59.55729Q133.09375 59.55729 133.90625 60.40104Q134.73438 61.229164 134.73438 62.71354Q134.73438 63.916664 134.375 64.604164Q134.01562 65.291664 133.3125 65.68229Q132.625 66.05729 131.8125 66.05729Q130.51562 66.05729 129.70312 65.229164Q128.90625 64.385414 128.90625 62.80729ZM129.98438 62.80729Q129.98438 63.99479 130.5 64.58854Q131.03125 65.18229 131.8125 65.18229Q132.60938 65.18229 133.125 64.58854Q133.64062 63.99479 133.64062 62.77604Q133.64062 61.61979 133.10938 61.02604Q132.59375 60.43229 131.8125 60.43229Q131.03125 60.43229 130.5 61.02604Q129.98438 61.604164 129.98438 62.80729ZM136.28125 65.916664L136.28125 59.697914L137.23438 59.697914L137.23438 60.635414Q137.59375 59.979164 137.89062 59.77604Q138.20312 59.55729 138.57812 59.55729Q139.10938 59.55729 139.65625 59.885414L139.29688 60.86979Q138.90625 60.635414 138.53125 60.635414Q138.17188 60.635414 137.89062 60.854164Q137.625 61.05729 137.51562 61.43229Q137.32812 61.99479 137.32812 62.65104L137.32812 65.916664L136.28125 65.916664ZM144.32812 65.916664L144.32812 65.135414Q143.73438 66.05729 142.59375 66.05729Q141.84375 66.05729 141.21875 65.65104Q140.59375 65.229164 140.25 64.49479Q139.90625 63.760414 139.90625 62.80729Q139.90625 61.885414 140.21875 61.11979Q140.53125 60.354164 141.15625 59.96354Q141.78125 59.55729 142.54688 59.55729Q143.10938 59.55729 143.54688 59.791664Q143.98438 60.02604 144.26562 60.40104L144.26562 57.322914L145.3125 57.322914L145.3125 65.916664L144.32812 65.916664ZM141.0 62.80729Q141.0 64.010414 141.5 64.604164Q142.0 65.18229 142.6875 65.18229Q143.375 65.18229 143.85938 64.61979Q144.34375 64.05729 144.34375 62.90104Q144.34375 61.61979 143.84375 61.02604Q143.35938 60.43229 142.64062 60.43229Q141.9375 60.43229 141.46875 61.010414Q141.0 61.572914 141.0 62.80729ZM151.54688 63.916664L152.64062 64.041664Q152.39062 64.99479 151.6875 65.52604Q150.98438 66.05729 149.90625 66.05729Q148.54688 66.05729 147.73438 65.21354Q146.9375 64.36979 146.9375 62.854164Q146.9375 61.291664 147.75 60.43229Q148.5625 59.55729 149.84375 59.55729Q151.09375 59.55729 151.875 60.40104Q152.67188 61.24479 152.67188 62.791664Q152.67188 62.885414 152.67188 63.072914L148.03125 63.072914Q148.09375 64.104164 148.60938 64.65104Q149.125 65.18229 149.90625 65.18229Q150.48438 65.18229 150.89062 64.885414Q151.3125 64.572914 151.54688 63.916664ZM148.09375 62.21354L151.5625 62.21354Q151.5 61.416664 151.17188 61.02604Q150.65625 60.416664 149.85938 60.416664Q149.125 60.416664 148.625 60.90104Q148.14062 61.385414 148.09375 62.21354ZM154.28125 65.916664L154.28125 59.697914L155.23438 59.697914L155.23438 60.635414Q155.59375 59.979164 155.89062 59.77604Q156.20312 59.55729 156.57812 59.55729Q157.10938 59.55729 157.65625 59.885414L157.29688 60.86979Q156.90625 60.635414 156.53125 60.635414Q156.17188 60.635414 155.89062 60.854164Q155.625 61.05729 155.51562 61.43229Q155.32812 61.99479 155.32812 62.65104L155.32812 65.916664L154.28125 65.916664Z" fill-rule="nonzero"/><path fill="#ea4335" d="M173.5 56.916668C173.5 56.364384 173.94771 55.916668 174.5 55.916668L184.5 55.916668C185.05229 55.916668 185.5 56.364384 185.5 56.916668L185.5 66.916664C185.5 67.46895 185.05229 67.916664 184.5 67.916664L174.5 67.916664C173.94771 67.916664 173.5 67.46895 173.5 66.916664Z" fill-rule="nonzero"/><path fill="#1a1a1a" d="M194.4375 65.916664L194.4375 57.322914L198.25 57.322914Q199.40625 57.322914 200.0 57.55729Q200.59375 57.791664 200.95312 58.385414Q201.3125 58.96354 201.3125 59.666664Q201.3125 60.58854 200.71875 61.21354Q200.125 61.83854 198.89062 62.010414Q199.34375 62.229164 199.57812 62.43229Q200.07812 62.885414 200.51562 63.572914L202.01562 65.916664L200.57812 65.916664L199.45312 64.135414Q198.95312 63.354164 198.625 62.947914Q198.3125 62.541664 198.04688 62.385414Q197.79688 62.21354 197.53125 62.135414Q197.34375 62.104164 196.90625 62.104164L195.57812 62.104164L195.57812 65.916664L194.4375 65.916664ZM195.57812 61.11979L198.03125 61.11979Q198.79688 61.11979 199.23438 60.96354Q199.6875 60.791664 199.90625 60.447914Q200.14062 60.08854 200.14062 59.666664Q200.14062 59.05729 199.6875 58.666664Q199.25 58.27604 198.29688 58.27604L195.57812 58.27604L195.57812 61.11979ZM207.54688 63.916664L208.64062 64.041664Q208.39062 64.99479 207.6875 65.52604Q206.98438 66.05729 205.90625 66.05729Q204.54688 66.05729 203.73438 65.21354Q202.9375 64.36979 202.9375 62.854164Q202.9375 61.291664 203.75 60.43229Q204.5625 59.55729 205.84375 59.55729Q207.09375 59.55729 207.875 60.40104Q208.67188 61.24479 208.67188 62.791664Q208.67188 62.885414 208.67188 63.072914L204.03125 63.072914Q204.09375 64.104164 204.60938 64.65104Q205.125 65.18229 205.90625 65.18229Q206.48438 65.18229 206.89062 64.885414Q207.3125 64.572914 207.54688 63.916664ZM204.09375 62.21354L207.5625 62.21354Q207.5 61.416664 207.17188 61.02604Q206.65625 60.416664 205.85938 60.416664Q205.125 60.416664 204.625 60.90104Q204.14062 61.385414 204.09375 62.21354ZM209.90625 62.80729Q209.90625 61.072914 210.85938 60.24479Q211.65625 59.55729 212.8125 59.55729Q214.09375 59.55729 214.90625 60.40104Q215.73438 61.229164 215.73438 62.71354Q215.73438 63.916664 215.375 64.604164Q215.01562 65.291664 214.3125 65.68229Q213.625 66.05729 212.8125 66.05729Q211.51562 66.05729 210.70312 65.229164Q209.90625 64.385414 209.90625 62.80729ZM210.98438 62.80729Q210.98438 63.99479 211.5 64.58854Q212.03125 65.18229 212.8125 65.18229Q213.60938 65.18229 214.125 64.58854Q214.64062 63.99479 214.64062 62.77604Q214.64062 61.61979 214.10938 61.02604Q213.59375 60.43229 212.8125 60.43229Q212.03125 60.43229 211.5 61.02604Q210.98438 61.604164 210.98438 62.80729ZM217.28125 65.916664L217.28125 59.697914L218.23438 59.697914L218.23438 60.635414Q218.59375 59.979164 218.89062 59.77604Q219.20312 59.55729 219.57812 59.55729Q220.10938 59.55729 220.65625 59.885414L220.29688 60.86979Q219.90625 60.635414 219.53125 60.635414Q219.17188 60.635414 218.89062 60.854164Q218.625 61.05729 218.51562 61.43229Q218.32812 61.99479 218.32812 62.65104L218.32812 65.916664L217.28125 65.916664ZM225.32812 65.916664L225.32812 65.135414Q224.73438 66.05729 223.59375 66.05729Q222.84375 66.05729 222.21875 65.65104Q221.59375 65.229164 221.25 64.49479Q220.90625 63.760414 220.90625 62.80729Q220.90625 61.885414 221.21875 61.11979Q221.53125 60.354164 222.15625 59.96354Q222.78125 59.55729 223.54688 59.55729Q224.10938 59.55729 224.54688 59.791664Q224.98438 60.02604 225.26562 60.40104L225.26562 57.322914L226.3125 57.322914L226.3125 65.916664L225.32812 65.916664ZM222.0 62.80729Q222.0 64.010414 222.5 64.604164Q223.0 65.18229 223.6875 65.18229Q224.375 65.18229 224.85938 64.61979Q225.34375 64.05729 225.34375 62.90104Q225.34375 61.61979 224.84375 61.02604Q224.35938 60.43229 223.64062 60.43229Q222.9375 60.43229 222.46875 61.010414Q222.0 61.572914 222.0 62.80729ZM232.54688 63.916664L233.64062 64.041664Q233.39062 64.99479 232.6875 65.52604Q231.98438 66.05729 230.90625 66.05729Q229.54688 66.05729 228.73438 65.21354Q227.9375 64.36979 227.9375 62.854164Q227.9375 61.291664 228.75 60.43229Q229.5625 59.55729 230.84375 59.55729Q232.09375 59.55729 232.875 60.40104Q233.67188 61.24479 233.67188 62.791664Q233.67188 62.885414 233.67188 63.072914L229.03125 63.072914Q229.09375 64.104164 229.60938 64.65104Q230.125 65.18229 230.90625 65.18229Q231.48438 65.18229 231.89062 64.885414Q232.3125 64.572914 232.54688 63.916664ZM229.09375 62.21354L232.5625 62.21354Q232.5 61.416664 232.17188 61.02604Q231.65625 60.416664 230.85938 60.416664Q230.125 60.416664 229.625 60.90104Q229.14062 61.385414 229.09375 62.21354ZM235.28125 65.916664L235.28125 59.697914L236.23438 59.697914L236.23438 60.635414Q236.59375 59.979164 236.89062 59.77604Q237.20312 59.55729 237.57812 59.55729Q238.10938 59.55729 238.65625 59.885414L238.29688 60.86979Q237.90625 60.635414 237.53125 60.635414Q237.17188 60.635414 236.89062 60.854164Q236.625 61.05729 236.51562 61.43229Q236.32812 61.99479 236.32812 62.65104L236.32812 65.916664L235.28125 65.916664ZM244.5 64.52604L244.5 62.166664L242.17188 62.166664L242.17188 61.18229L244.5 61.18229L244.5 58.854164L245.5 58.854164L245.5 61.18229L247.84375 61.18229L247.84375 62.166664L245.5 62.166664L245.5 64.52604L244.5 64.52604ZM256.375 65.916664L256.375 64.99479Q255.64062 66.05729 254.39062 66.05729Q253.84375 66.05729 253.35938 65.854164Q252.89062 65.635414 252.65625 65.322914Q252.42188 64.99479 252.32812 64.52604Q252.26562 64.229164 252.26562 63.541664L252.26562 59.697914L253.32812 59.697914L253.32812 63.15104Q253.32812 63.96354 253.39062 64.260414Q253.48438 64.666664 253.79688 64.916664Q254.125 65.15104 254.60938 65.15104Q255.07812 65.15104 255.48438 64.916664Q255.90625 64.666664 256.07812 64.24479Q256.26562 63.822914 256.26562 63.02604L256.26562 59.697914L257.3125 59.697914L257.3125 65.916664L256.375 65.916664ZM259.29688 65.916664L259.29688 59.697914L260.23438 59.697914L260.23438 60.572914Q260.92188 59.55729 262.21875 59.55729Q262.78125 59.55729 263.25 59.760414Q263.73438 59.96354 263.96875 60.291664Q264.20312 60.61979 264.29688 61.05729Q264.34375 61.354164 264.34375 62.08854L264.34375 65.916664L263.29688 65.916664L263.29688 62.135414Q263.29688 61.479164 263.17188 61.166664Q263.04688 60.854164 262.73438 60.666664Q262.42188 60.46354 262.0 60.46354Q261.32812 60.46354 260.82812 60.90104Q260.34375 61.322914 260.34375 62.510414L260.34375 65.916664L259.29688 65.916664ZM266.28125 65.916664L266.28125 59.697914L267.23438 59.697914L267.23438 60.635414Q267.59375 59.979164 267.89062 59.77604Q268.20312 59.55729 268.57812 59.55729Q269.10938 59.55729 269.65625 59.885414L269.29688 60.86979Q268.90625 60.635414 268.53125 60.635414Q268.17188 60.635414 267.89062 60.854164Q267.625 61.05729 267.51562 61.43229Q267.32812 61.99479 267.32812 62.65104L267.32812 65.916664L266.28125 65.916664ZM269.90625 62.80729Q269.90625 61.072914 270.85938 60.24479Q271.65625 59.55729 272.8125 59.55729Q274.09375 59.55729 274.90625 60.40104Q275.73438 61.229164 275.73438 62.71354Q275.73438 63.916664 275.375 64.604164Q275.01562 65.291664 274.3125 65.68229Q273.625 66.05729 272.8125 66.05729Q271.51562 66.05729 270.70312 65.229164Q269.90625 64.385414 269.90625 62.80729ZM270.98438 62.80729Q270.98438 63.99479 271.5 64.58854Q272.03125 65.18229 272.8125 65.18229Q273.60938 65.18229 274.125 64.58854Q274.64062 63.99479 274.64062 62.77604Q274.64062 61.61979 274.10938 61.02604Q273.59375 60.43229 272.8125 60.43229Q272.03125 60.43229 271.5 61.02604Q270.98438 61.604164 270.98438 62.80729ZM277.26562 65.916664L277.26562 57.322914L278.32812 57.322914L278.32812 65.916664L277.26562 65.916664ZM280.26562 65.916664L280.26562 57.322914L281.32812 57.322914L281.32812 65.916664L280.26562 65.916664Z" fill-rule="nonzero"/><path fill="#fbbc04" d="M298.5 56.916668C298.5 56.364384 298.94772 55.916668 299.5 55.916668L309.5 55.916668C310.05228 55.916668 310.5 56.364384 310.5 56.916668L310.5 66.916664C310.5 67.46895 310.05228 67.916664 309.5 67.916664L299.5 67.916664C298.94772 67.916664 298.5 67.46895 298.5 66.916664Z" fill-rule="nonzero"/><path fill="#1a1a1a" d="M321.60938 65.916664L321.60938 58.33854L318.78125 58.33854L318.78125 57.322914L325.59375 57.322914L325.59375 58.33854L322.75 58.33854L322.75 65.916664L321.60938 65.916664ZM326.29688 58.541664L326.29688 57.322914L327.35938 57.322914L327.35938 58.541664L326.29688 58.541664ZM326.29688 65.916664L326.29688 59.697914L327.35938 59.697914L327.35938 65.916664L326.29688 65.916664ZM329.26562 65.916664L329.26562 57.322914L330.32812 57.322914L330.32812 65.916664L329.26562 65.916664ZM332.29688 58.541664L332.29688 57.322914L333.35938 57.322914L333.35938 58.541664L332.29688 58.541664ZM332.29688 65.916664L332.29688 59.697914L333.35938 59.697914L333.35938 65.916664L332.29688 65.916664ZM335.29688 65.916664L335.29688 59.697914L336.23438 59.697914L336.23438 60.572914Q336.92188 59.55729 338.21875 59.55729Q338.78125 59.55729 339.25 59.760414Q339.73438 59.96354 339.96875 60.291664Q340.20312 60.61979 340.29688 61.05729Q340.34375 61.354164 340.34375 62.08854L340.34375 65.916664L339.29688 65.916664L339.29688 62.135414Q339.29688 61.479164 339.17188 61.166664Q339.04688 60.854164 338.73438 60.666664Q338.42188 60.46354 338.0 60.46354Q337.32812 60.46354 336.82812 60.90104Q336.34375 61.322914 336.34375 62.510414L336.34375 65.916664L335.29688 65.916664ZM342.09375 66.43229L343.125 66.58854Q343.1875 67.05729 343.48438 67.27604Q343.875 67.572914 344.54688 67.572914Q345.28125 67.572914 345.67188 67.27604Q346.07812 66.979164 346.21875 66.46354Q346.3125 66.135414 346.29688 65.104164Q345.60938 65.916664 344.57812 65.916664Q343.29688 65.916664 342.59375 64.99479Q341.89062 64.05729 341.89062 62.77604Q341.89062 61.885414 342.20312 61.135414Q342.53125 60.36979 343.14062 59.96354Q343.75 59.55729 344.57812 59.55729Q345.6875 59.55729 346.40625 60.447914L346.40625 59.697914L347.375 59.697914L347.375 65.072914Q347.375 66.52604 347.07812 67.135414Q346.78125 67.74479 346.14062 68.08854Q345.5 68.447914 344.5625 68.447914Q343.45312 68.447914 342.76562 67.947914Q342.07812 67.447914 342.09375 66.43229ZM342.96875 62.697914Q342.96875 63.916664 343.45312 64.479164Q343.9375 65.041664 344.67188 65.041664Q345.40625 65.041664 345.89062 64.479164Q346.39062 63.916664 346.39062 62.729164Q346.39062 61.58854 345.875 61.010414Q345.375 60.43229 344.65625 60.43229Q343.95312 60.43229 343.45312 61.010414Q342.96875 61.572914 342.96875 62.697914Z" fill-rule="nonzero"/><path fill="#34a853" d="M364.5 56.916668C364.5 56.364384 364.94772 55.916668 365.5 55.916668L375.5 55.916668C376.05228 55.916668 376.5 56.364384 376.5 56.916668L376.5 66.916664C376.5 67.46895 376.05228 67.916664 375.5 67.916664L365.5 67.916664C364.94772 67.916664 364.5 67.46895 364.5 66.916664Z" fill-rule="nonzero"/><path fill="#1a1a1a" d="M385.04688 63.15104L386.10938 63.05729Q386.1875 63.71354 386.46875 64.11979Q386.75 64.52604 387.32812 64.791664Q387.92188 65.041664 388.65625 65.041664Q389.29688 65.041664 389.79688 64.854164Q390.29688 64.65104 390.53125 64.322914Q390.78125 63.979164 390.78125 63.58854Q390.78125 63.18229 390.54688 62.885414Q390.3125 62.572914 389.78125 62.36979Q389.42188 62.229164 388.23438 61.947914Q387.0625 61.666664 386.59375 61.416664Q385.96875 61.08854 385.67188 60.61979Q385.375 60.135414 385.375 59.541664Q385.375 58.90104 385.73438 58.33854Q386.10938 57.760414 386.8125 57.479164Q387.53125 57.18229 388.39062 57.18229Q389.34375 57.18229 390.07812 57.49479Q390.8125 57.791664 391.20312 58.40104Q391.59375 58.99479 391.625 59.74479L390.53125 59.822914Q390.4375 59.010414 389.92188 58.604164Q389.42188 58.18229 388.4375 58.18229Q387.40625 58.18229 386.9375 58.55729Q386.46875 58.93229 386.46875 59.46354Q386.46875 59.93229 386.79688 60.229164Q387.125 60.52604 388.5 60.83854Q389.89062 61.15104 390.40625 61.385414Q391.15625 61.74479 391.51562 62.27604Q391.875 62.791664 391.875 63.49479Q391.875 64.18229 391.48438 64.791664Q391.09375 65.385414 390.35938 65.729164Q389.625 66.05729 388.70312 66.05729Q387.53125 66.05729 386.73438 65.729164Q385.95312 65.385414 385.5 64.697914Q385.0625 64.010414 385.04688 63.15104ZM393.625 65.916664L393.625 57.322914L394.75 57.322914L394.75 65.916664L393.625 65.916664ZM396.39062 65.916664L396.39062 57.322914L398.10938 57.322914L400.14062 63.40104Q400.42188 64.260414 400.54688 64.68229Q400.6875 64.21354 401.0 63.30729L403.0625 57.322914L404.59375 57.322914L404.59375 65.916664L403.5 65.916664L403.5 58.729164L401.0 65.916664L399.96875 65.916664L397.48438 58.604164L397.48438 65.916664L396.39062 65.916664ZM405.42188 65.916664L405.42188 57.322914L408.39062 57.322914Q409.39062 57.322914 409.92188 57.447914Q410.65625 57.61979 411.17188 58.05729Q411.85938 58.635414 412.1875 59.541664Q412.53125 60.43229 412.53125 61.572914Q412.53125 62.55729 412.29688 63.30729Q412.07812 64.05729 411.71875 64.55729Q411.35938 65.05729 410.92188 65.33854Q410.5 65.61979 409.90625 65.77604Q409.3125 65.916664 408.53125 65.916664L405.42188 65.916664ZM406.5625 64.90104L408.39062 64.90104Q409.25 64.90104 409.73438 64.74479Q410.21875 64.58854 410.5 64.291664Q410.90625 63.90104 411.125 63.21354Q411.35938 62.52604 411.35938 61.55729Q411.35938 60.21354 410.90625 59.49479Q410.46875 58.760414 409.84375 58.510414Q409.375 58.33854 408.375 58.33854L406.5625 58.33854L406.5625 64.90104Z" fill-rule="nonzero"/><path fill="#ff6d01" d="M429.5 56.916668C429.5 56.364384 429.94772 55.916668 430.5 55.916668L440.5 55.916668C441.05228 55.916668 441.5 56.364384 441.5 56.916668L441.5 66.916664C441.5 67.46895 441.05228 67.916664 440.5 67.916664L430.5 67.916664C429.94772 67.916664 429.5 67.46895 429.5 66.916664Z" fill-rule="nonzero"/><path fill="#1a1a1a" d="M456.5625 62.90104L457.6875 63.197914Q457.32812 64.58854 456.40625 65.322914Q455.48438 66.05729 454.14062 66.05729Q452.75 66.05729 451.875 65.49479Q451.0 64.93229 450.54688 63.86979Q450.09375 62.791664 450.09375 61.55729Q450.09375 60.21354 450.60938 59.21354Q451.125 58.21354 452.0625 57.697914Q453.01562 57.18229 454.15625 57.18229Q455.4375 57.18229 456.3125 57.83854Q457.20312 58.49479 457.54688 59.68229L456.42188 59.947914Q456.125 59.010414 455.54688 58.58854Q454.98438 58.15104 454.125 58.15104Q453.14062 58.15104 452.46875 58.635414Q451.8125 59.104164 451.53125 59.90104Q451.26562 60.697914 451.26562 61.55729Q451.26562 62.65104 451.57812 63.46354Q451.90625 64.27604 452.57812 64.68229Q453.25 65.08854 454.04688 65.08854Q455.0 65.08854 455.65625 64.541664Q456.32812 63.99479 456.5625 62.90104ZM458.90625 62.80729Q458.90625 61.072914 459.85938 60.24479Q460.65625 59.55729 461.8125 59.55729Q463.09375 59.55729 463.90625 60.40104Q464.73438 61.229164 464.73438 62.71354Q464.73438 63.916664 464.375 64.604164Q464.01562 65.291664 463.3125 65.68229Q462.625 66.05729 461.8125 66.05729Q460.51562 66.05729 459.70312 65.229164Q458.90625 64.385414 458.90625 62.80729ZM459.98438 62.80729Q459.98438 63.99479 460.5 64.58854Q461.03125 65.18229 461.8125 65.18229Q462.60938 65.18229 463.125 64.58854Q463.64062 63.99479 463.64062 62.77604Q463.64062 61.61979 463.10938 61.02604Q462.59375 60.43229 461.8125 60.43229Q461.03125 60.43229 460.5 61.02604Q459.98438 61.604164 459.98438 62.80729ZM466.29688 65.916664L466.29688 59.697914L467.23438 59.697914L467.23438 60.572914Q467.53125 60.104164 468.01562 59.83854Q468.5 59.55729 469.125 59.55729Q469.8125 59.55729 470.25 59.83854Q470.70312 60.11979 470.875 60.635414Q471.625 59.55729 472.79688 59.55729Q473.73438 59.55729 474.21875 60.072914Q474.71875 60.572914 474.71875 61.65104L474.71875 65.916664L473.67188 65.916664L473.67188 61.99479Q473.67188 61.36979 473.5625 61.08854Q473.46875 60.80729 473.20312 60.635414Q472.9375 60.46354 472.5625 60.46354Q471.90625 60.46354 471.46875 60.90104Q471.04688 61.33854 471.04688 62.30729L471.04688 65.916664L469.98438 65.916664L469.98438 61.86979Q469.98438 61.166664 469.71875 60.822914Q469.46875 60.46354 468.89062 60.46354Q468.4375 60.46354 468.0625 60.697914Q467.6875 60.93229 467.51562 61.385414Q467.34375 61.83854 467.34375 62.68229L467.34375 65.916664L466.29688 65.916664ZM478.26562 65.916664L477.28125 65.916664L477.28125 57.322914L478.34375 57.322914L478.34375 60.385414Q479.01562 59.55729 480.04688 59.55729Q480.625 59.55729 481.125 59.791664Q481.64062 60.010414 481.96875 60.43229Q482.3125 60.854164 482.5 61.447914Q482.6875 62.041664 482.6875 62.71354Q482.6875 64.30729 481.89062 65.18229Q481.09375 66.05729 480.0 66.05729Q478.89062 66.05729 478.26562 65.135414L478.26562 65.916664ZM478.25 62.760414Q478.25 63.86979 478.5625 64.36979Q479.0625 65.18229 479.90625 65.18229Q480.59375 65.18229 481.09375 64.58854Q481.60938 63.99479 481.60938 62.791664Q481.60938 61.572914 481.125 60.99479Q480.64062 60.416664 479.95312 60.416664Q479.26562 60.416664 478.75 61.02604Q478.25 61.61979 478.25 62.760414ZM484.29688 58.541664L484.29688 57.322914L485.35938 57.322914L485.35938 58.541664L484.29688 58.541664ZM484.29688 65.916664L484.29688 59.697914L485.35938 59.697914L485.35938 65.916664L484.29688 65.916664ZM487.29688 65.916664L487.29688 59.697914L488.23438 59.697914L488.23438 60.572914Q488.92188 59.55729 490.21875 59.55729Q490.78125 59.55729 491.25 59.760414Q491.73438 59.96354 491.96875 60.291664Q492.20312 60.61979 492.29688 61.05729Q492.34375 61.354164 492.34375 62.08854L492.34375 65.916664L491.29688 65.916664L491.29688 62.135414Q491.29688 61.479164 491.17188 61.166664Q491.04688 60.854164 490.73438 60.666664Q490.42188 60.46354 490.0 60.46354Q489.32812 60.46354 488.82812 60.90104Q488.34375 61.322914 488.34375 62.510414L488.34375 65.916664L487.29688 65.916664ZM498.54688 63.916664L499.64062 64.041664Q499.39062 64.99479 498.6875 65.52604Q497.98438 66.05729 496.90625 66.05729Q495.54688 66.05729 494.73438 65.21354Q493.9375 64.36979 493.9375 62.854164Q493.9375 61.291664 494.75 60.43229Q495.5625 59.55729 496.84375 59.55729Q498.09375 59.55729 498.875 60.40104Q499.67188 61.24479 499.67188 62.791664Q499.67188 62.885414 499.67188 63.072914L495.03125 63.072914Q495.09375 64.104164 495.60938 64.65104Q496.125 65.18229 496.90625 65.18229Q497.48438 65.18229 497.89062 64.885414Q498.3125 64.572914 498.54688 63.916664ZM495.09375 62.21354L498.5625 62.21354Q498.5 61.416664 498.17188 61.02604Q497.65625 60.416664 496.85938 60.416664Q496.125 60.416664 495.625 60.90104Q495.14062 61.385414 495.09375 62.21354ZM505.32812 65.916664L505.32812 65.135414Q504.73438 66.05729 503.59375 66.05729Q502.84375 66.05729 502.21875 65.65104Q501.59375 65.229164 501.25 64.49479Q500.90625 63.760414 500.90625 62.80729Q500.90625 61.885414 501.21875 61.11979Q501.53125 60.354164 502.15625 59.96354Q502.78125 59.55729 503.54688 59.55729Q504.10938 59.55729 504.54688 59.791664Q504.98438 60.02604 505.26562 60.40104L505.26562 57.322914L506.3125 57.322914L506.3125 65.916664L505.32812 65.916664ZM502.0 62.80729Q502.0 64.010414 502.5 64.604164Q503.0 65.18229 503.6875 65.18229Q504.375 65.18229 504.85938 64.61979Q505.34375 64.05729 505.34375 62.90104Q505.34375 61.61979 504.84375 61.02604Q504.35938 60.43229 503.64062 60.43229Q502.9375 60.43229 502.46875 61.010414Q502.0 61.572914 502.0 62.80729Z" fill-rule="nonzero"/><path fill="#757575" d="M20.128124 37.55L20.128124 23.2375L26.471874 23.2375Q28.378124 23.2375 29.378124 23.628124Q30.378124 24.003124 30.971874 24.9875Q31.565624 25.95625 31.565624 27.14375Q31.565624 28.659374 30.58125 29.70625Q29.596874 30.753124 27.534374 31.034374Q28.284374 31.39375 28.675 31.753124Q29.503124 32.503124 30.253124 33.659374L32.7375 37.55L30.3625 37.55L28.45625 34.565624Q27.628124 33.284374 27.096874 32.596874Q26.565624 31.909374 26.128124 31.64375Q25.70625 31.3625 25.26875 31.253124Q24.940624 31.190624 24.221874 31.190624L22.01875 31.190624L22.01875 37.55L20.128124 37.55ZM22.01875 29.55L26.096874 29.55Q27.39375 29.55 28.1125 29.284374Q28.846874 29.01875 29.221874 28.425Q29.6125 27.83125 29.6125 27.14375Q29.6125 26.128124 28.878124 25.471874Q28.14375 24.815624 26.55 24.815624L22.01875 24.815624L22.01875 29.55ZM40.659374 37.55L40.659374 36.01875Q39.45625 37.784374 37.378124 37.784374Q36.45625 37.784374 35.659374 37.440624Q34.8625 37.08125 34.471874 36.55Q34.096874 36.01875 33.940624 35.2375Q33.83125 34.721874 33.83125 33.596874L33.83125 27.175L35.58125 27.175L35.58125 32.925Q35.58125 34.3 35.690624 34.784374Q35.8625 35.471874 36.39375 35.878124Q36.940624 36.26875 37.721874 36.26875Q38.51875 36.26875 39.20625 35.8625Q39.909374 35.45625 40.190624 34.76875Q40.4875 34.065624 40.4875 32.7375L40.4875 27.175L42.2375 27.175L42.2375 37.55L40.659374 37.55ZM43.8625 37.55L43.8625 27.175L45.45625 27.175L45.45625 28.659374Q46.596874 26.940624 48.753124 26.940624Q49.690624 26.940624 50.471874 27.284374Q51.26875 27.6125 51.659374 28.159374Q52.05 28.70625 52.20625 29.45625Q52.3 29.95625 52.3 31.175L52.3 37.55L50.534374 37.55L50.534374 31.2375Q50.534374 30.159374 50.33125 29.628124Q50.128124 29.096874 49.596874 28.784374Q49.08125 28.471874 48.378124 28.471874Q47.253124 28.471874 46.440624 29.190624Q45.628124 29.89375 45.628124 31.878124L45.628124 37.55L43.8625 37.55ZM57.70625 35.971874L57.95625 37.534374Q57.221874 37.690624 56.628124 37.690624Q55.675 37.690624 55.14375 37.39375Q54.628124 37.08125 54.409374 36.596874Q54.190624 36.096874 54.190624 34.51875L54.190624 28.55L52.909374 28.55L52.909374 27.175L54.190624 27.175L54.190624 24.6125L55.940624 23.55L55.940624 27.175L57.70625 27.175L57.70625 28.55L55.940624 28.55L55.940624 34.6125Q55.940624 35.3625 56.034374 35.58125Q56.128124 35.784374 56.33125 35.925Q56.55 36.05 56.940624 36.05Q57.221874 36.05 57.70625 35.971874ZM59.878124 25.253124L59.878124 23.2375L61.64375 23.2375L61.64375 25.253124L59.878124 25.253124ZM59.878124 37.55L59.878124 27.175L61.64375 27.175L61.64375 37.55L59.878124 37.55ZM63.8625 37.55L63.8625 27.175L65.44063 27.175L65.44063 28.628124Q65.925 27.878124 66.7375 27.409374Q67.55 26.940624 68.58125 26.940624Q69.7375 26.940624 70.47188 27.425Q71.20625 27.89375 71.51875 28.753124Q72.75313 26.940624 74.72188 26.940624Q76.26875 26.940624 77.09688 27.8Q77.925 28.659374 77.925 30.425L77.925 37.55L76.175 37.55L76.175 31.01875Q76.175 29.95625 76.00313 29.503124Q75.83125 29.034374 75.37813 28.753124Q74.94063 28.471874 74.33125 28.471874Q73.2375 28.471874 72.50313 29.20625Q71.78438 29.925 71.78438 31.51875L71.78438 37.55L70.03438 37.55L70.03438 30.815624Q70.03438 29.64375 69.59688 29.065624Q69.175 28.471874 68.19063 28.471874Q67.45625 28.471874 66.81563 28.8625Q66.19063 29.253124 65.90938 30.003124Q65.62813 30.753124 65.62813 32.175L65.62813 37.55L63.8625 37.55ZM86.97188 34.20625L88.78438 34.440624Q88.3625 36.01875 87.19063 36.909374Q86.03438 37.784374 84.22188 37.784374Q81.95625 37.784374 80.6125 36.39375Q79.28438 34.9875 79.28438 32.45625Q79.28438 29.83125 80.62813 28.39375Q81.97188 26.940624 84.12813 26.940624Q86.20625 26.940624 87.51875 28.3625Q88.84688 29.76875 88.84688 32.346874Q88.84688 32.503124 88.83125 32.815624L81.09688 32.815624Q81.19063 34.51875 82.06563 35.425Q82.94063 36.33125 84.2375 36.33125Q85.20625 36.33125 85.87813 35.83125Q86.56563 35.315624 86.97188 34.20625ZM81.19063 31.3625L86.9875 31.3625Q86.87813 30.065624 86.33125 29.409374Q85.4875 28.39375 84.14375 28.39375Q82.94063 28.39375 82.1125 29.20625Q81.28438 30.003124 81.19063 31.3625ZM103.64375 33.753124L105.3625 33.971874Q105.08125 35.76875 103.90938 36.784374Q102.75313 37.784374 101.05 37.784374Q98.925 37.784374 97.62813 36.39375Q96.33125 35.003124 96.33125 32.409374Q96.33125 30.721874 96.87813 29.471874Q97.44063 28.20625 98.58125 27.58125Q99.72188 26.940624 101.06563 26.940624Q102.75313 26.940624 103.81563 27.8Q104.89375 28.659374 105.20625 30.221874L103.4875 30.4875Q103.25313 29.440624 102.62813 28.925Q102.00313 28.39375 101.12813 28.39375Q99.8 28.39375 98.97188 29.346874Q98.14375 30.3 98.14375 32.346874Q98.14375 34.440624 98.94063 35.39375Q99.7375 36.33125 101.03438 36.33125Q102.06563 36.33125 102.75313 35.70625Q103.45625 35.065624 103.64375 33.753124ZM106.22188 32.3625Q106.22188 29.4875 107.81563 28.096874Q109.15938 26.940624 111.08125 26.940624Q113.22188 26.940624 114.56563 28.346874Q115.925 29.753124 115.925 32.221874Q115.925 34.221874 115.33125 35.378124Q114.7375 36.51875 113.58125 37.159374Q112.44063 37.784374 111.08125 37.784374Q108.89375 37.784374 107.55 36.39375Q106.22188 34.9875 106.22188 32.3625ZM108.01875 32.3625Q108.01875 34.3625 108.87813 35.346874Q109.75313 36.33125 111.08125 36.33125Q112.39375 36.33125 113.25313 35.346874Q114.12813 34.346874 114.12813 32.3Q114.12813 30.378124 113.25313 29.39375Q112.37813 28.39375 111.08125 28.39375Q109.75313 28.39375 108.87813 29.39375Q108.01875 30.378124 108.01875 32.3625ZM117.8625 37.55L117.8625 27.175L119.44063 27.175L119.44063 28.628124Q119.925 27.878124 120.7375 27.409374Q121.55 26.940624 122.58125 26.940624Q123.7375 26.940624 124.47188 27.425Q125.20625 27.89375 125.51875 28.753124Q126.75313 26.940624 128.72188 26.940624Q130.26875 26.940624 131.09688 27.8Q131.925 28.659374 131.925 30.425L131.925 37.55L130.175 37.55L130.175 31.01875Q130.175 29.95625 130.00313 29.503124Q129.83125 29.034374 129.37813 28.753124Q128.94063 28.471874 128.33125 28.471874Q127.2375 28.471874 126.50313 29.20625Q125.78438 29.925 125.78438 31.51875L125.78438 37.55L124.03438 37.55L124.03438 30.815624Q124.03438 29.64375 123.59688 29.065624Q123.175 28.471874 122.19063 28.471874Q121.45625 28.471874 120.81563 28.8625Q120.19063 29.253124 119.90938 30.003124Q119.62813 30.753124 119.62813 32.175L119.62813 37.55L117.8625 37.55ZM133.8625 41.51875L133.8625 27.175L135.47188 27.175L135.47188 28.51875Q136.03438 27.7375 136.7375 27.346874Q137.45625 26.940624 138.47188 26.940624Q139.8 26.940624 140.81563 27.628124Q141.83125 28.315624 142.34688 29.565624Q142.87813 30.8 142.87813 32.284374Q142.87813 33.878124 142.3 35.159374Q141.7375 36.425 140.64375 37.1125Q139.55 37.784374 138.34688 37.784374Q137.47188 37.784374 136.76875 37.409374Q136.08125 37.034374 135.62813 36.471874L135.62813 41.51875L133.8625 41.51875ZM135.45625 32.425Q135.45625 34.425 136.26875 35.378124Q137.08125 36.33125 138.2375 36.33125Q139.40938 36.33125 140.2375 35.346874Q141.08125 34.3625 141.08125 32.26875Q141.08125 30.3 140.25313 29.315624Q139.44063 28.315624 138.31563 28.315624Q137.19063 28.315624 136.31563 29.378124Q135.45625 30.425 135.45625 32.425ZM151.64375 36.26875Q150.65938 37.096874 149.75313 37.440624Q148.84688 37.784374 147.81563 37.784374Q146.1125 37.784374 145.19063 36.95625Q144.26875 36.1125 144.26875 34.815624Q144.26875 34.05 144.6125 33.425Q144.97188 32.8 145.53438 32.425Q146.09688 32.034374 146.8 31.83125Q147.31563 31.70625 148.3625 31.565624Q150.4875 31.315624 151.4875 30.971874Q151.50313 30.6125 151.50313 30.503124Q151.50313 29.440624 151.00313 28.9875Q150.33125 28.39375 149.00313 28.39375Q147.75313 28.39375 147.15938 28.83125Q146.58125 29.26875 146.3 30.378124L144.58125 30.14375Q144.81563 29.034374 145.34688 28.3625Q145.87813 27.675 146.89375 27.315624Q147.90938 26.940624 149.25313 26.940624Q150.58125 26.940624 151.40938 27.253124Q152.2375 27.565624 152.62813 28.05Q153.01875 28.51875 153.175 29.2375Q153.26875 29.690624 153.26875 30.8625L153.26875 33.20625Q153.26875 35.659374 153.37813 36.315624Q153.4875 36.95625 153.83125 37.55L151.9875 37.55Q151.72188 37.003124 151.64375 36.26875ZM151.4875 32.346874Q150.53438 32.7375 148.6125 33.003124Q147.53438 33.159374 147.08125 33.3625Q146.64375 33.55 146.39375 33.925Q146.14375 34.3 146.14375 34.76875Q146.14375 35.471874 146.675 35.940624Q147.20625 36.409374 148.2375 36.409374Q149.25313 36.409374 150.03438 35.971874Q150.83125 35.51875 151.20625 34.753124Q151.4875 34.14375 151.4875 32.9875L151.4875 32.346874ZM155.84688 37.55L155.84688 27.175L157.425 27.175L157.425 28.753124Q158.03438 27.64375 158.55 27.3Q159.06563 26.940624 159.675 26.940624Q160.56563 26.940624 161.4875 27.503124L160.87813 29.14375Q160.2375 28.753124 159.59688 28.753124Q159.01875 28.753124 158.55 29.1125Q158.09688 29.45625 157.89375 30.065624Q157.6125 31.003124 157.6125 32.1125L157.6125 37.55L155.84688 37.55ZM162.87813 25.253124L162.87813 23.2375L164.64375 23.2375L164.64375 25.253124L162.87813 25.253124ZM162.87813 37.55L162.87813 27.175L164.64375 27.175L164.64375 37.55L162.87813 37.55ZM166.15938 34.45625L167.90938 34.175Q168.05 35.221874 168.72188 35.784374Q169.39375 36.33125 170.59688 36.33125Q171.8 36.33125 172.37813 35.846874Q172.97188 35.346874 172.97188 34.690624Q172.97188 34.096874 172.45625 33.753124Q172.09688 33.51875 170.65938 33.159374Q168.72188 32.659374 167.97188 32.315624Q167.2375 31.95625 166.84688 31.33125Q166.45625 30.690624 166.45625 29.925Q166.45625 29.2375 166.76875 28.64375Q167.09688 28.05 167.64375 27.659374Q168.05 27.3625 168.75313 27.159374Q169.47188 26.940624 170.28438 26.940624Q171.50313 26.940624 172.425 27.3Q173.34688 27.64375 173.78438 28.253124Q174.22188 28.846874 174.39375 29.846874L172.675 30.08125Q172.55 29.284374 171.9875 28.846874Q171.425 28.39375 170.40938 28.39375Q169.19063 28.39375 168.675 28.8Q168.15938 29.190624 168.15938 29.721874Q168.15938 30.065624 168.37813 30.346874Q168.58125 30.628124 169.05 30.815624Q169.31563 30.909374 170.59688 31.253124Q172.47188 31.753124 173.20625 32.08125Q173.94063 32.39375 174.3625 33.003124Q174.78438 33.596874 174.78438 34.503124Q174.78438 35.378124 174.26875 36.159374Q173.75313 36.940624 172.78438 37.3625Q171.81563 37.784374 170.59688 37.784374Q168.58125 37.784374 167.51875 36.940624Q166.45625 36.096874 166.15938 34.45625ZM176.22188 32.3625Q176.22188 29.4875 177.81563 28.096874Q179.15938 26.940624 181.08125 26.940624Q183.22188 26.940624 184.56563 28.346874Q185.925 29.753124 185.925 32.221874Q185.925 34.221874 185.33125 35.378124Q184.7375 36.51875 183.58125 37.159374Q182.44063 37.784374 181.08125 37.784374Q178.89375 37.784374 177.55 36.39375Q176.22188 34.9875 176.22188 32.3625ZM178.01875 32.3625Q178.01875 34.3625 178.87813 35.346874Q179.75313 36.33125 181.08125 36.33125Q182.39375 36.33125 183.25313 35.346874Q184.12813 34.346874 184.12813 32.3Q184.12813 30.378124 183.25313 29.39375Q182.37813 28.39375 181.08125 28.39375Q179.75313 28.39375 178.87813 29.39375Q178.01875 30.378124 178.01875 32.3625ZM187.8625 37.55L187.8625 27.175L189.45625 27.175L189.45625 28.659374Q190.59688 26.940624 192.75313 26.940624Q193.69063 26.940624 194.47188 27.284374Q195.26875 27.6125 195.65938 28.159374Q196.05 28.70625 196.20625 29.45625Q196.3 29.95625 196.3 31.175L196.3 37.55L194.53438 37.55L194.53438 31.2375Q194.53438 30.159374 194.33125 29.628124Q194.12813 29.096874 193.59688 28.784374Q193.08125 28.471874 192.37813 28.471874Q191.25313 28.471874 190.44063 29.190624Q189.62813 29.89375 189.62813 31.878124L189.62813 37.55L187.8625 37.55ZM203.22188 32.3625Q203.22188 29.4875 204.81563 28.096874Q206.15938 26.940624 208.08125 26.940624Q210.22188 26.940624 211.56563 28.346874Q212.925 29.753124 212.925 32.221874Q212.925 34.221874 212.33125 35.378124Q211.7375 36.51875 210.58125 37.159374Q209.44063 37.784374 208.08125 37.784374Q205.89375 37.784374 204.55 36.39375Q203.22188 34.9875 203.22188 32.3625ZM205.01875 32.3625Q205.01875 34.3625 205.87813 35.346874Q206.75313 36.33125 208.08125 36.33125Q209.39375 36.33125 210.25313 35.346874Q211.12813 34.346874 211.12813 32.3Q211.12813 30.378124 210.25313 29.39375Q209.37813 28.39375 208.08125 28.39375Q206.75313 28.39375 205.87813 29.39375Q205.01875 30.378124 205.01875 32.3625ZM215.28438 37.55L215.28438 28.55L213.7375 28.55L213.7375 27.175L215.28438 27.175L215.28438 26.08125Q215.28438 25.034374 215.47188 24.51875Q215.72188 23.83125 216.3625 23.409374Q217.00313 22.9875 218.15938 22.9875Q218.90938 22.9875 219.8 23.159374L219.53438 24.690624Q218.9875 24.596874 218.50313 24.596874Q217.70625 24.596874 217.3625 24.940624Q217.03438 25.284374 217.03438 26.221874L217.03438 27.175L219.06563 27.175L219.06563 28.55L217.03438 28.55L217.03438 37.55L215.28438 37.55ZM233.64375 36.26875Q232.65938 37.096874 231.75313 37.440624Q230.84688 37.784374 229.81563 37.784374Q228.1125 37.784374 227.19063 36.95625Q226.26875 36.1125 226.26875 34.815624Q226.26875 34.05 226.6125 33.425Q226.97188 32.8 227.53438 32.425Q228.09688 32.034374 228.8 31.83125Q229.31563 31.70625 230.3625 31.565624Q232.4875 31.315624 233.4875 30.971874Q233.50313 30.6125 233.50313 30.503124Q233.50313 29.440624 233.00313 28.9875Q232.33125 28.39375 231.00313 28.39375Q229.75313 28.39375 229.15938 28.83125Q228.58125 29.26875 228.3 30.378124L226.58125 30.14375Q226.81563 29.034374 227.34688 28.3625Q227.87813 27.675 228.89375 27.315624Q229.90938 26.940624 231.25313 26.940624Q232.58125 26.940624 233.40938 27.253124Q234.2375 27.565624 234.62813 28.05Q235.01875 28.51875 235.175 29.2375Q235.26875 29.690624 235.26875 30.8625L235.26875 33.20625Q235.26875 35.659374 235.37813 36.315624Q235.4875 36.95625 235.83125 37.55L233.9875 37.55Q233.72188 37.003124 233.64375 36.26875ZM233.4875 32.346874Q232.53438 32.7375 230.6125 33.003124Q229.53438 33.159374 229.08125 33.3625Q228.64375 33.55 228.39375 33.925Q228.14375 34.3 228.14375 34.76875Q228.14375 35.471874 228.675 35.940624Q229.20625 36.409374 230.2375 36.409374Q231.25313 36.409374 232.03438 35.971874Q232.83125 35.51875 233.20625 34.753124Q233.4875 34.14375 233.4875 32.9875L233.4875 32.346874ZM237.83125 37.55L237.83125 23.2375L239.58125 23.2375L239.58125 37.55L237.83125 37.55ZM241.83125 37.55L241.83125 23.2375L243.58125 23.2375L243.58125 37.55L241.83125 37.55ZM255.70625 35.971874L255.95625 37.534374Q255.22188 37.690624 254.62813 37.690624Q253.675 37.690624 253.14375 37.39375Q252.62813 37.08125 252.40938 36.596874Q252.19063 36.096874 252.19063 34.51875L252.19063 28.55L250.90938 28.55L250.90938 27.175L252.19063 27.175L252.19063 24.6125L253.94063 23.55L253.94063 27.175L255.70625 27.175L255.70625 28.55L253.94063 28.55L253.94063 34.6125Q253.94063 35.3625 254.03438 35.58125Q254.12813 35.784374 254.33125 35.925Q254.55 36.05 254.94063 36.05Q255.22188 36.05 255.70625 35.971874ZM264.97186 34.20625L266.78436 34.440624Q266.3625 36.01875 265.1906 36.909374Q264.03436 37.784374 262.22186 37.784374Q259.95624 37.784374 258.6125 36.39375Q257.28436 34.9875 257.28436 32.45625Q257.28436 29.83125 258.6281 28.39375Q259.97186 26.940624 262.1281 26.940624Q264.20624 26.940624 265.51874 28.3625Q266.84686 29.76875 266.84686 32.346874Q266.84686 32.503124 266.83124 32.815624L259.09686 32.815624Q259.1906 34.51875 260.0656 35.425Q260.9406 36.33125 262.2375 36.33125Q263.20624 36.33125 263.8781 35.83125Q264.5656 35.315624 264.97186 34.20625ZM259.1906 31.3625L264.9875 31.3625Q264.8781 30.065624 264.33124 29.409374Q263.4875 28.39375 262.14374 28.39375Q260.9406 28.39375 260.1125 29.20625Q259.28436 30.003124 259.1906 31.3625ZM275.64374 33.753124L277.3625 33.971874Q277.08124 35.76875 275.90936 36.784374Q274.7531 37.784374 273.05 37.784374Q270.925 37.784374 269.6281 36.39375Q268.33124 35.003124 268.33124 32.409374Q268.33124 30.721874 268.8781 29.471874Q269.4406 28.20625 270.58124 27.58125Q271.72186 26.940624 273.0656 26.940624Q274.7531 26.940624 275.8156 27.8Q276.89374 28.659374 277.20624 30.221874L275.4875 30.4875Q275.2531 29.440624 274.6281 28.925Q274.0031 28.39375 273.1281 28.39375Q271.8 28.39375 270.97186 29.346874Q270.14374 30.3 270.14374 32.346874Q270.14374 34.440624 270.9406 35.39375Q271.7375 36.33125 273.03436 36.33125Q274.0656 36.33125 274.7531 35.70625Q275.45624 35.065624 275.64374 33.753124ZM278.8625 37.55L278.8625 23.2375L280.6281 23.2375L280.6281 28.3625Q281.8625 26.940624 283.7375 26.940624Q284.8781 26.940624 285.72186 27.39375Q286.58124 27.846874 286.9406 28.659374Q287.3156 29.45625 287.3156 30.971874L287.3156 37.55L285.5656 37.55L285.5656 30.971874Q285.5656 29.659374 284.9875 29.065624Q284.40936 28.45625 283.3781 28.45625Q282.59686 28.45625 281.89374 28.8625Q281.20624 29.26875 280.90936 29.971874Q280.6281 30.659374 280.6281 31.878124L280.6281 37.55L278.8625 37.55ZM288.8625 37.55L288.8625 27.175L290.45624 27.175L290.45624 28.659374Q291.59686 26.940624 293.7531 26.940624Q294.6906 26.940624 295.47186 27.284374Q296.26874 27.6125 296.65936 28.159374Q297.05 28.70625 297.20624 29.45625Q297.3 29.95625 297.3 31.175L297.3 37.55L295.53436 37.55L295.53436 31.2375Q295.53436 30.159374 295.33124 29.628124Q295.1281 29.096874 294.59686 28.784374Q294.08124 28.471874 293.3781 28.471874Q292.2531 28.471874 291.4406 29.190624Q290.6281 29.89375 290.6281 31.878124L290.6281 37.55L288.8625 37.55ZM298.8781 25.253124L298.8781 23.2375L300.64374 23.2375L300.64374 25.253124L298.8781 25.253124ZM298.8781 37.55L298.8781 27.175L300.64374 27.175L300.64374 37.55L298.8781 37.55ZM309.4875 41.51875L309.4875 36.440624Q309.0656 37.01875 308.33124 37.409374Q307.59686 37.784374 306.76874 37.784374Q304.925 37.784374 303.58124 36.315624Q302.2531 34.83125 302.2531 32.26875Q302.2531 30.70625 302.78436 29.471874Q303.33124 28.221874 304.3625 27.58125Q305.39374 26.940624 306.6281 26.940624Q308.55 26.940624 309.65936 28.565624L309.65936 27.175L311.2375 27.175L311.2375 41.51875L309.4875 41.51875ZM304.0656 32.33125Q304.0656 34.33125 304.89374 35.33125Q305.7375 36.33125 306.90936 36.33125Q308.03436 36.33125 308.84686 35.39375Q309.65936 34.440624 309.65936 32.4875Q309.65936 30.425 308.8 29.378124Q307.9406 28.33125 306.8 28.33125Q305.65936 28.33125 304.8625 29.3Q304.0656 30.26875 304.0656 32.33125ZM320.65936 37.55L320.65936 36.01875Q319.45624 37.784374 317.3781 37.784374Q316.45624 37.784374 315.65936 37.440624Q314.8625 37.08125 314.47186 36.55Q314.09686 36.01875 313.9406 35.2375Q313.83124 34.721874 313.83124 33.596874L313.83124 27.175L315.58124 27.175L315.58124 32.925Q315.58124 34.3 315.6906 34.784374Q315.8625 35.471874 316.39374 35.878124Q316.9406 36.26875 317.72186 36.26875Q318.51874 36.26875 319.20624 35.8625Q319.90936 35.45625 320.1906 34.76875Q320.4875 34.065624 320.4875 32.7375L320.4875 27.175L322.2375 27.175L322.2375 37.55L320.65936 37.55ZM330.97186 34.20625L332.78436 34.440624Q332.3625 36.01875 331.1906 36.909374Q330.03436 37.784374 328.22186 37.784374Q325.95624 37.784374 324.6125 36.39375Q323.28436 34.9875 323.28436 32.45625Q323.28436 29.83125 324.6281 28.39375Q325.97186 26.940624 328.1281 26.940624Q330.20624 26.940624 331.51874 28.3625Q332.84686 29.76875 332.84686 32.346874Q332.84686 32.503124 332.83124 32.815624L325.09686 32.815624Q325.1906 34.51875 326.0656 35.425Q326.9406 36.33125 328.2375 36.33125Q329.20624 36.33125 329.8781 35.83125Q330.5656 35.315624 330.97186 34.20625ZM325.1906 31.3625L330.9875 31.3625Q330.8781 30.065624 330.33124 29.409374Q329.4875 28.39375 328.14374 28.39375Q326.9406 28.39375 326.1125 29.20625Q325.28436 30.003124 325.1906 31.3625ZM334.15936 34.45625L335.90936 34.175Q336.05 35.221874 336.72186 35.784374Q337.39374 36.33125 338.59686 36.33125Q339.8 36.33125 340.3781 35.846874Q340.97186 35.346874 340.97186 34.690624Q340.97186 34.096874 340.45624 33.753124Q340.09686 33.51875 338.65936 33.159374Q336.72186 32.659374 335.97186 32.315624Q335.2375 31.95625 334.84686 31.33125Q334.45624 30.690624 334.45624 29.925Q334.45624 29.2375 334.76874 28.64375Q335.09686 28.05 335.64374 27.659374Q336.05 27.3625 336.7531 27.159374Q337.47186 26.940624 338.28436 26.940624Q339.5031 26.940624 340.425 27.3Q341.34686 27.64375 341.78436 28.253124Q342.22186 28.846874 342.39374 29.846874L340.675 30.08125Q340.55 29.284374 339.9875 28.846874Q339.425 28.39375 338.40936 28.39375Q337.1906 28.39375 336.675 28.8Q336.15936 29.190624 336.15936 29.721874Q336.15936 30.065624 336.3781 30.346874Q336.58124 30.628124 337.05 30.815624Q337.3156 30.909374 338.59686 31.253124Q340.47186 31.753124 341.20624 32.08125Q341.9406 32.39375 342.3625 33.003124Q342.78436 33.596874 342.78436 34.503124Q342.78436 35.378124 342.26874 36.159374Q341.7531 36.940624 340.78436 37.3625Q339.8156 37.784374 338.59686 37.784374Q336.58124 37.784374 335.51874 36.940624Q334.45624 36.096874 334.15936 34.45625ZM350.8781 25.253124L350.8781 23.2375L352.64374 23.2375L352.64374 25.253124L350.8781 25.253124ZM350.8781 37.55L350.8781 27.175L352.64374 27.175L352.64374 37.55L350.8781 37.55ZM354.8625 37.55L354.8625 27.175L356.4406 27.175L356.4406 28.628124Q356.925 27.878124 357.7375 27.409374Q358.55 26.940624 359.58124 26.940624Q360.7375 26.940624 361.47186 27.425Q362.20624 27.89375 362.51874 28.753124Q363.7531 26.940624 365.72186 26.940624Q367.26874 26.940624 368.09686 27.8Q368.925 28.659374 368.925 30.425L368.925 37.55L367.175 37.55L367.175 31.01875Q367.175 29.95625 367.0031 29.503124Q366.83124 29.034374 366.3781 28.753124Q365.9406 28.471874 365.33124 28.471874Q364.2375 28.471874 363.5031 29.20625Q362.78436 29.925 362.78436 31.51875L362.78436 37.55L361.03436 37.55L361.03436 30.815624Q361.03436 29.64375 360.59686 29.065624Q360.175 28.471874 359.1906 28.471874Q358.45624 28.471874 357.8156 28.8625Q357.1906 29.253124 356.90936 30.003124Q356.6281 30.753124 356.6281 32.175L356.6281 37.55L354.8625 37.55ZM370.8625 41.51875L370.8625 27.175L372.47186 27.175L372.47186 28.51875Q373.03436 27.7375 373.7375 27.346874Q374.45624 26.940624 375.47186 26.940624Q376.8 26.940624 377.8156 27.628124Q378.83124 28.315624 379.34686 29.565624Q379.8781 30.8 379.8781 32.284374Q379.8781 33.878124 379.3 35.159374Q378.7375 36.425 377.64374 37.1125Q376.55 37.784374 375.34686 37.784374Q374.47186 37.784374 373.76874 37.409374Q373.08124 37.034374 372.6281 36.471874L372.6281 41.51875L370.8625 41.51875ZM372.45624 32.425Q372.45624 34.425 373.26874 35.378124Q374.08124 36.33125 375.2375 36.33125Q376.40936 36.33125 377.2375 35.346874Q378.08124 34.3625 378.08124 32.26875Q378.08124 30.3 377.2531 29.315624Q376.4406 28.315624 375.3156 28.315624Q374.1906 28.315624 373.3156 29.378124Q372.45624 30.425 372.45624 32.425ZM381.83124 37.55L381.83124 23.2375L383.58124 23.2375L383.58124 37.55L381.83124 37.55ZM392.97186 34.20625L394.78436 34.440624Q394.3625 36.01875 393.1906 36.909374Q392.03436 37.784374 390.22186 37.784374Q387.95624 37.784374 386.6125 36.39375Q385.28436 34.9875 385.28436 32.45625Q385.28436 29.83125 386.6281 28.39375Q387.97186 26.940624 390.1281 26.940624Q392.20624 26.940624 393.51874 28.3625Q394.84686 29.76875 394.84686 32.346874Q394.84686 32.503124 394.83124 32.815624L387.09686 32.815624Q387.1906 34.51875 388.0656 35.425Q388.9406 36.33125 390.2375 36.33125Q391.20624 36.33125 391.8781 35.83125Q392.5656 35.315624 392.97186 34.20625ZM387.1906 31.3625L392.9875 31.3625Q392.8781 30.065624 392.33124 29.409374Q391.4875 28.39375 390.14374 28.39375Q388.9406 28.39375 388.1125 29.20625Q387.28436 30.003124 387.1906 31.3625ZM396.8625 37.55L396.8625 27.175L398.4406 27.175L398.4406 28.628124Q398.925 27.878124 399.7375 27.409374Q400.55 26.940624 401.58124 26.940624Q402.7375 26.940624 403.47186 27.425Q404.20624 27.89375 404.51874 28.753124Q405.7531 26.940624 407.72186 26.940624Q409.26874 26.940624 410.09686 27.8Q410.925 28.659374 410.925 30.425L410.925 37.55L409.175 37.55L409.175 31.01875Q409.175 29.95625 409.0031 29.503124Q408.83124 29.034374 408.3781 28.753124Q407.9406 28.471874 407.33124 28.471874Q406.2375 28.471874 405.5031 29.20625Q404.78436 29.925 404.78436 31.51875L404.78436 37.55L403.03436 37.55L403.03436 30.815624Q403.03436 29.64375 402.59686 29.065624Q402.175 28.471874 401.1906 28.471874Q400.45624 28.471874 399.8156 28.8625Q399.1906 29.253124 398.90936 30.003124Q398.6281 30.753124 398.6281 32.175L398.6281 37.55L396.8625 37.55ZM419.97186 34.20625L421.78436 34.440624Q421.3625 36.01875 420.1906 36.909374Q419.03436 37.784374 417.22186 37.784374Q414.95624 37.784374 413.6125 36.39375Q412.28436 34.9875 412.28436 32.45625Q412.28436 29.83125 413.6281 28.39375Q414.97186 26.940624 417.1281 26.940624Q419.20624 26.940624 420.51874 28.3625Q421.84686 29.76875 421.84686 32.346874Q421.84686 32.503124 421.83124 32.815624L414.09686 32.815624Q414.1906 34.51875 415.0656 35.425Q415.9406 36.33125 417.2375 36.33125Q418.20624 36.33125 418.8781 35.83125Q419.5656 35.315624 419.97186 34.20625ZM414.1906 31.3625L419.9875 31.3625Q419.8781 30.065624 419.33124 29.409374Q418.4875 28.39375 417.14374 28.39375Q415.9406 28.39375 415.1125 29.20625Q414.28436 30.003124 414.1906 31.3625ZM423.8625 37.55L423.8625 27.175L425.45624 27.175L425.45624 28.659374Q426.59686 26.940624 428.7531 26.940624Q429.6906 26.940624 430.47186 27.284374Q431.26874 27.6125 431.65936 28.159374Q432.05 28.70625 432.20624 29.45625Q432.3 29.95625 432.3 31.175L432.3 37.55L430.53436 37.55L430.53436 31.2375Q430.53436 30.159374 430.33124 29.628124Q430.1281 29.096874 429.59686 28.784374Q429.08124 28.471874 428.3781 28.471874Q427.2531 28.471874 426.4406 29.190624Q425.6281 29.89375 425.6281 31.878124L425.6281 37.55L423.8625 37.55ZM437.70624 35.971874L437.95624 37.534374Q437.22186 37.690624 436.6281 37.690624Q435.675 37.690624 435.14374 37.39375Q434.6281 37.08125 434.40936 36.596874Q434.1906 36.096874 434.1906 34.51875L434.1906 28.55L432.90936 28.55L432.90936 27.175L434.1906 27.175L434.1906 24.6125L435.9406 23.55L435.9406 27.175L437.70624 27.175L437.70624 28.55L435.9406 28.55L435.9406 34.6125Q435.9406 35.3625 436.03436 35.58125Q436.1281 35.784374 436.33124 35.925Q436.55 36.05 436.9406 36.05Q437.22186 36.05 437.70624 35.971874ZM446.97186 34.20625L448.78436 34.440624Q448.3625 36.01875 447.1906 36.909374Q446.03436 37.784374 444.22186 37.784374Q441.95624 37.784374 440.6125 36.39375Q439.28436 34.9875 439.28436 32.45625Q439.28436 29.83125 440.6281 28.39375Q441.97186 26.940624 444.1281 26.940624Q446.20624 26.940624 447.51874 28.3625Q448.84686 29.76875 448.84686 32.346874Q448.84686 32.503124 448.83124 32.815624L441.09686 32.815624Q441.1906 34.51875 442.0656 35.425Q442.9406 36.33125 444.2375 36.33125Q445.20624 36.33125 445.8781 35.83125Q446.5656 35.315624 446.97186 34.20625ZM441.1906 31.3625L446.9875 31.3625Q446.8781 30.065624 446.33124 29.409374Q445.4875 28.39375 444.14374 28.39375Q442.9406 28.39375 442.1125 29.20625Q441.28436 30.003124 441.1906 31.3625ZM457.59686 37.55L457.59686 36.2375Q456.6125 37.784374 454.6906 37.784374Q453.45624 37.784374 452.40936 37.096874Q451.3781 36.409374 450.8 35.190624Q450.2375 33.971874 450.2375 32.378124Q450.2375 30.815624 450.7531 29.55Q451.26874 28.284374 452.3 27.6125Q453.34686 26.940624 454.6125 26.940624Q455.55 26.940624 456.28436 27.346874Q457.01874 27.7375 457.4875 28.3625L457.4875 23.2375L459.22186 23.2375L459.22186 37.55L457.59686 37.55ZM452.03436 32.378124Q452.03436 34.3625 452.8781 35.346874Q453.72186 36.33125 454.8625 36.33125Q456.01874 36.33125 456.8156 35.39375Q457.6281 34.45625 457.6281 32.51875Q457.6281 30.39375 456.8 29.39375Q455.9875 28.39375 454.78436 28.39375Q453.6125 28.39375 452.8156 29.3625Q452.03436 30.315624 452.03436 32.378124Z" fill-rule="nonzero"/></svg>