<svg version="1.1" viewBox="0.0 0.0 600.0 371.0" fill="none" stroke="none" stroke-linecap="square" stroke-miterlimit="10" width="600" height="371" xmlns:xlink="http://www.w3.org/1999/xlink" xmlns="http://www.w3.org/2000/svg"><path fill="#ffffff" d="M0 0L600.0 0L600.0 371.0L0 371.0L0 0Z" fill-rule="nonzero"/><path stroke="#333333" stroke-width="1.0" stroke-linecap="butt" d="M45.5 300.5L581.5 300.5" fill-rule="nonzero"/><path stroke="#cccccc" stroke-width="1.0" stroke-linecap="butt" d="M45.5 229.5L581.5 229.5" fill-rule="nonzero"/><path stroke="#cccccc" stroke-width="1.0" stroke-linecap="butt" d="M45.5 159.5L581.5 159.5" fill-rule="nonzero"/><path stroke="#cccccc" stroke-width="1.0" stroke-linecap="butt" d="M45.5 88.5L581.5 88.5" fill-rule="nonzero"/><clipPath id="id_0"><path d="M45.55 88.28333L581.45 88.28333L581.45 300.45L45.55 300.45L45.55 88.28333Z" clip-rule="nonzero"/></clipPath><path stroke="#000000" stroke-width="2.0" stroke-linecap="butt" stroke-opacity="0.0" clip-path="url(#id_0)" d="M112.0 300.0L81.0 300.0L81.0 159.0C81.0 157.89543 81.89543 157.0 83.0 157.0L110.0 157.0C111.10457 157.0 112.0 157.89543 112.0 159.0Z" fill-rule="nonzero"/><path fill="#4285f4" clip-path="url(#id_0)" d="M112.0 300.0L81.0 300.0L81.0 159.0C81.0 157.89543 81.89543 157.0 83.0 157.0L110.0 157.0C111.10457 157.0 112.0 157.89543 112.0 159.0Z" fill-rule="nonzero"/><path stroke="#000000" stroke-width="2.0" stroke-linecap="butt" stroke-opacity="0.0" clip-path="url(#id_0)" d="M212.0 300.0L181.0 300.0L181.0 125.0C181.0 123.89543 181.89543 123.0 183.0 123.0L210.0 123.0C211.10457 123.0 212.0 123.89543 212.0 125.0Z" fill-rule="nonzero"/><path fill="#4285f4" clip-path="url(#id_0)" d="M212.0 300.0L181.0 300.0L181.0 125.0C181.0 123.89543 181.89543 123.0 183.0 123.0L210.0 123.0C211.10457 123.0 212.0 123.89543 212.0 125.0Z" fill-rule="nonzero"/><path stroke="#000000" stroke-width="2.0" stroke-linecap="butt" stroke-opacity="0.0" clip-path="url(#id_0)" d="M313.0 300.0L282.0 300.0L282.0 113.0C282.0 111.89543 282.89542 111.0 284.0 111.0L311.0 111.0C312.10458 111.0 313.0 111.89543 313.0 113.0Z" fill-rule="nonzero"/><path fill="#4285f4" clip-path="url(#id_0)" d="M313.0 300.0L282.0 300.0L282.0 113.0C282.0 111.89543 282.89542 111.0 284.0 111.0L311.0 111.0C312.10458 111.0 313.0 111.89543 313.0 113.0Z" fill-rule="nonzero"/><path stroke="#000000" stroke-width="2.0" stroke-linecap="butt" stroke-opacity="0.0" clip-path="url(#id_0)" d="M413.0 300.0L382.0 300.0L382.0 107.0C382.0 105.89543 382.89542 105.0 384.0 105.0L411.0 105.0C412.10458 105.0 413.0 105.89543 413.0 107.0Z" fill-rule="nonzero"/><path fill="#4285f4" clip-path="url(#id_0)" d="M413.0 300.0L382.0 300.0L382.0 107.0C382.0 105.89543 382.89542 105.0 384.0 105.0L411.0 105.0C412.10458 105.0 413.0 105.89543 413.0 107.0Z" fill-rule="nonzero"/><path stroke="#000000" stroke-width="2.0" stroke-linecap="butt" stroke-opacity="0.0" clip-path="url(#id_0)" d="M513.0 300.0L482.0 300.0L482.0 108.0C482.0 106.89543 482.89542 106.0 484.0 106.0L511.0 106.0C512.10455 106.0 513.0 106.89543 513.0 108.0Z" fill-rule="nonzero"/><path fill="#4285f4" clip-path="url(#id_0)" d="M513.0 300.0L482.0 300.0L482.0 108.0C482.0 106.89543 482.89542 106.0 484.0 106.0L511.0 106.0C512.10455 106.0 513.0 106.89543 513.0 108.0Z" fill-rule="nonzero"/><path stroke="#000000" stroke-width="2.0" stroke-linecap="butt" stroke-opacity="0.0" clip-path="url(#id_0)" d="M145.0 300.0L114.0 300.0L114.0 108.0C114.0 106.89543 114.89543 106.0 116.0 106.0L143.0 106.0C144.10457 106.0 145.0 106.89543 145.0 108.0Z" fill-rule="nonzero"/><path fill="#ea4335" clip-path="url(#id_0)" d="M145.0 300.0L114.0 300.0L114.0 108.0C114.0 106.89543 114.89543 106.0 116.0 106.0L143.0 106.0C144.10457 106.0 145.0 106.89543 145.0 108.0Z" fill-rule="nonzero"/><path stroke="#000000" stroke-width="2.0" stroke-linecap="butt" stroke-opacity="0.0" clip-path="url(#id_0)" d="M245.0 300.0L214.0 300.0L214.0 145.0C214.0 143.89543 214.89543 143.0 216.0 143.0L243.0 143.0C244.10457 143.0 245.0 143.89543 245.0 145.0Z" fill-rule="nonzero"/><path fill="#ea4335" clip-path="url(#id_0)" d="M245.0 300.0L214.0 300.0L214.0 145.0C214.0 143.89543 214.89543 143.0 216.0 143.0L243.0 143.0C244.10457 143.0 245.0 143.89543 245.0 145.0Z" fill-rule="nonzero"/><path stroke="#000000" stroke-width="2.0" stroke-linecap="butt" stroke-opacity="0.0" clip-path="url(#id_0)" d="M346.0 300.0L315.0 300.0L315.0 125.0C315.0 123.89543 315.89542 123.0 317.0 123.0L344.0 123.0C345.10458 123.0 346.0 123.89543 346.0 125.0Z" fill-rule="nonzero"/><path fill="#ea4335" clip-path="url(#id_0)" d="M346.0 300.0L315.0 300.0L315.0 125.0C315.0 123.89543 315.89542 123.0 317.0 123.0L344.0 123.0C345.10458 123.0 346.0 123.89543 346.0 125.0Z" fill-rule="nonzero"/><path stroke="#000000" stroke-width="2.0" stroke-linecap="butt" stroke-opacity="0.0" clip-path="url(#id_0)" d="M446.0 300.0L415.0 300.0L415.0 126.0C415.0 124.89543 415.89542 124.0 417.0 124.0L444.0 124.0C445.10458 124.0 446.0 124.89543 446.0 126.0Z" fill-rule="nonzero"/><path fill="#ea4335" clip-path="url(#id_0)" d="M446.0 300.0L415.0 300.0L415.0 126.0C415.0 124.89543 415.89542 124.0 417.0 124.0L444.0 124.0C445.10458 124.0 446.0 124.89543 446.0 126.0Z" fill-rule="nonzero"/><path stroke="#000000" stroke-width="2.0" stroke-linecap="butt" stroke-opacity="0.0" clip-path="url(#id_0)" d="M546.0 300.0L515.0 300.0L515.0 104.0C515.0 102.89543 515.89545 102.0 517.0 102.0L544.0 102.0C545.10455 102.0 546.0 102.89543 546.0 104.0Z" fill-rule="nonzero"/><path fill="#ea4335" clip-path="url(#id_0)" d="M546.0 300.0L515.0 300.0L515.0 104.0C515.0 102.89543 515.89545 102.0 517.0 102.0L544.0 102.0C545.10455 102.0 546.0 102.89543 546.0 104.0Z" fill-rule="nonzero"/><path fill="#000000" d="M288.59375 348.5125L288.75 349.4344Q288.29688 349.52814 287.95312 349.52814Q287.375 349.52814 287.0625 349.35626Q286.75 349.16876 286.60938 348.8719Q286.48438 348.575 286.48438 347.6219L286.48438 344.04376L285.71875 344.04376L285.71875 343.23126L286.48438 343.23126L286.48438 341.6844L287.53125 341.0594L287.53125 343.23126L288.59375 343.23126L288.59375 344.04376L287.53125 344.04376L287.53125 347.6844Q287.53125 348.1375 287.57812 348.2625Q287.64062 348.3875 287.76562 348.46564Q287.89062 348.54376 288.125 348.54376Q288.3125 348.54376 288.59375 348.5125ZM293.35938 348.6844Q292.76562 349.1844 292.21875 349.3875Q291.6875 349.59064 291.0625 349.59064Q290.03125 349.59064 289.48438 349.09064Q288.9375 348.59064 288.9375 347.8094Q288.9375 347.35626 289.14062 346.98126Q289.34375 346.59064 289.6875 346.3719Q290.03125 346.1375 290.45312 346.02814Q290.75 345.9344 291.39062 345.85626Q292.65625 345.71564 293.26562 345.4969Q293.26562 345.27814 293.26562 345.23126Q293.26562 344.575 292.96875 344.3094Q292.5625 343.96564 291.76562 343.96564Q291.03125 343.96564 290.67188 344.23126Q290.3125 344.48126 290.14062 345.1375L289.10938 344.9969Q289.25 344.34064 289.57812 343.9344Q289.90625 343.52814 290.51562 343.3094Q291.125 343.09064 291.92188 343.09064Q292.71875 343.09064 293.21875 343.27814Q293.71875 343.46564 293.95312 343.7469Q294.1875 344.02814 294.28125 344.46564Q294.32812 344.73126 294.32812 345.4344L294.32812 346.84064Q294.32812 348.3094 294.39062 348.7Q294.46875 349.09064 294.67188 349.45L293.5625 349.45Q293.40625 349.1219 293.35938 348.6844ZM293.26562 346.325Q292.6875 346.5594 291.54688 346.73126Q290.89062 346.825 290.625 346.95Q290.35938 347.0594 290.20312 347.27814Q290.0625 347.4969 290.0625 347.77814Q290.0625 348.2 290.375 348.48126Q290.70312 348.7625 291.3125 348.7625Q291.92188 348.7625 292.39062 348.4969Q292.875 348.23126 293.09375 347.7625Q293.26562 347.40314 293.26562 346.71564L293.26562 346.325ZM297.26562 349.45L296.28125 349.45L296.28125 340.85626L297.34375 340.85626L297.34375 343.91876Q298.01562 343.09064 299.04688 343.09064Q299.625 343.09064 300.125 343.325Q300.64062 343.54376 300.96875 343.96564Q301.3125 344.3875 301.5 344.98126Q301.6875 345.575 301.6875 346.2469Q301.6875 347.84064 300.89062 348.71564Q300.09375 349.59064 299.0 349.59064Q297.89062 349.59064 297.26562 348.66876L297.26562 349.45ZM297.25 346.29376Q297.25 347.40314 297.5625 347.90314Q298.0625 348.71564 298.90625 348.71564Q299.59375 348.71564 300.09375 348.1219Q300.60938 347.52814 300.60938 346.325Q300.60938 345.10626 300.125 344.52814Q299.64062 343.95 298.95312 343.95Q298.26562 343.95 297.75 344.5594Q297.25 345.15314 297.25 346.29376ZM303.26562 349.45L303.26562 340.85626L304.32812 340.85626L304.32812 349.45L303.26562 349.45ZM310.54688 347.45L311.64062 347.575Q311.39062 348.52814 310.6875 349.0594Q309.98438 349.59064 308.90625 349.59064Q307.54688 349.59064 306.73438 348.7469Q305.9375 347.90314 305.9375 346.3875Q305.9375 344.825 306.75 343.96564Q307.5625 343.09064 308.84375 343.09064Q310.09375 343.09064 310.875 343.9344Q311.67188 344.77814 311.67188 346.325Q311.67188 346.41876 311.67188 346.60626L307.03125 346.60626Q307.09375 347.6375 307.60938 348.1844Q308.125 348.71564 308.90625 348.71564Q309.48438 348.71564 309.89062 348.41876Q310.3125 348.10626 310.54688 347.45ZM307.09375 345.7469L310.5625 345.7469Q310.5 344.95 310.17188 344.5594Q309.65625 343.95 308.85938 343.95Q308.125 343.95 307.625 344.4344Q307.14062 344.91876 307.09375 345.7469ZM312.3125 351.84064L312.3125 351.075L319.3125 351.075L319.3125 351.84064L312.3125 351.84064ZM319.875 347.59064L320.90625 347.4344Q321.0 348.0594 321.39062 348.3875Q321.79688 348.71564 322.53125 348.71564Q323.25 348.71564 323.59375 348.4344Q323.95312 348.1375 323.95312 347.73126Q323.95312 347.3719 323.64062 347.16876Q323.42188 347.02814 322.5625 346.8094Q321.40625 346.5125 320.95312 346.3094Q320.51562 346.09064 320.28125 345.71564Q320.04688 345.34064 320.04688 344.8719Q320.04688 344.46564 320.23438 344.10626Q320.42188 343.7469 320.75 343.5125Q321.0 343.34064 321.42188 343.21564Q321.84375 343.09064 322.34375 343.09064Q323.0625 343.09064 323.60938 343.3094Q324.17188 343.5125 324.4375 343.8719Q324.70312 344.23126 324.79688 344.825L323.76562 344.96564Q323.70312 344.4969 323.35938 344.23126Q323.03125 343.95 322.40625 343.95Q321.6875 343.95 321.375 344.2Q321.0625 344.4344 321.0625 344.7625Q321.0625 344.96564 321.1875 345.1219Q321.32812 345.29376 321.59375 345.40314Q321.75 345.46564 322.53125 345.66876Q323.65625 345.98126 324.09375 346.16876Q324.53125 346.35626 324.78125 346.71564Q325.03125 347.075 325.03125 347.6219Q325.03125 348.15314 324.71875 348.6219Q324.42188 349.075 323.84375 349.34064Q323.26562 349.59064 322.53125 349.59064Q321.3125 349.59064 320.67188 349.09064Q320.04688 348.575 319.875 347.59064ZM327.29688 342.075L327.29688 340.85626L328.35938 340.85626L328.35938 342.075L327.29688 342.075ZM327.29688 349.45L327.29688 343.23126L328.35938 343.23126L328.35938 349.45L327.29688 349.45ZM329.73438 349.45L329.73438 348.59064L333.70312 344.04376Q333.01562 344.075 332.5 344.075L329.96875 344.075L329.96875 343.23126L335.0625 343.23126L335.0625 343.91876L331.6875 347.8719L331.03125 348.59064Q331.75 348.54376 332.35938 348.54376L335.25 348.54376L335.25 349.45L329.73438 349.45ZM339.54688 347.45L340.64062 347.575Q340.39062 348.52814 339.6875 349.0594Q338.98438 349.59064 337.90625 349.59064Q336.54688 349.59064 335.73438 348.7469Q334.9375 347.90314 334.9375 346.3875Q334.9375 344.825 335.75 343.96564Q336.5625 343.09064 337.84375 343.09064Q339.09375 343.09064 339.875 343.9344Q340.67188 344.77814 340.67188 346.325Q340.67188 346.41876 340.67188 346.60626L336.03125 346.60626Q336.09375 347.6375 336.60938 348.1844Q337.125 348.71564 337.90625 348.71564Q338.48438 348.71564 338.89062 348.41876Q339.3125 348.10626 339.54688 347.45ZM336.09375 345.7469L339.5625 345.7469Q339.5 344.95 339.17188 344.5594Q338.65625 343.95 337.85938 343.95Q337.125 343.95 336.625 344.4344Q336.14062 344.91876 336.09375 345.7469Z" fill-rule="nonzero"/><path fill="#000000" d="M33.05 300.21564Q33.05 298.6844 33.3625 297.7625Q33.675 296.825 34.284374 296.325Q34.909374 295.825 35.846874 295.825Q36.534374 295.825 37.05 296.10626Q37.58125 296.3875 37.925 296.91876Q38.26875 297.4344 38.45625 298.1844Q38.64375 298.9344 38.64375 300.21564Q38.64375 301.73126 38.33125 302.65314Q38.034374 303.575 37.409374 304.09064Q36.8 304.59064 35.846874 304.59064Q34.6125 304.59064 33.89375 303.7Q33.05 302.6375 33.05 300.21564ZM34.128124 300.21564Q34.128124 302.325 34.628124 303.02814Q35.128124 303.73126 35.846874 303.73126Q36.58125 303.73126 37.065624 303.02814Q37.565624 302.325 37.565624 300.21564Q37.565624 298.09064 37.065624 297.40314Q36.58125 296.7 35.83125 296.7Q35.1125 296.7 34.675 297.3094Q34.128124 298.09064 34.128124 300.21564Z" fill-rule="nonzero"/><path fill="#000000" d="M37.01875 233.72778L35.971874 233.72778L35.971874 227.00903Q35.58125 227.36841 34.95625 227.74341Q34.346874 228.10278 33.8625 228.27466L33.8625 227.25903Q34.7375 226.83716 35.39375 226.25903Q36.065624 225.66528 36.346874 225.10278L37.01875 225.10278L37.01875 233.72778Z" fill-rule="nonzero"/><path fill="#000000" d="M38.596874 161.98993L38.596874 163.00555L32.909374 163.00555Q32.909374 162.63055 33.034374 162.27118Q33.253124 161.69305 33.721874 161.13055Q34.20625 160.56805 35.1125 159.83368Q36.51875 158.67743 37.003124 158.00555Q37.503124 157.33368 37.503124 156.73993Q37.503124 156.11493 37.05 155.69305Q36.596874 155.25555 35.878124 155.25555Q35.1125 155.25555 34.659374 155.70868Q34.20625 156.1618 34.190624 156.9743L33.1125 156.86493Q33.221874 155.64618 33.940624 155.02118Q34.675 154.38055 35.909374 154.38055Q37.14375 154.38055 37.8625 155.06805Q38.58125 155.75555 38.58125 156.77118Q38.58125 157.2868 38.3625 157.7868Q38.159374 158.27118 37.659374 158.83368Q37.175 159.38055 36.05 160.33368Q35.096874 161.13055 34.815624 161.42743Q34.55 161.70868 34.378124 161.98993L38.596874 161.98993Z" fill-rule="nonzero"/><path fill="#000000" d="M33.05 90.01771L34.1125 89.87708Q34.284374 90.76771 34.721874 91.17396Q35.159374 91.56458 35.784374 91.56458Q36.534374 91.56458 37.05 91.04896Q37.565624 90.53333 37.565624 89.76771Q37.565624 89.04896 37.08125 88.58021Q36.6125 88.09583 35.878124 88.09583Q35.58125 88.09583 35.128124 88.22083L35.253124 87.28333Q35.3625 87.29896 35.425 87.29896Q36.096874 87.29896 36.628124 86.95521Q37.175 86.59583 37.175 85.86146Q37.175 85.28333 36.784374 84.90833Q36.39375 84.51771 35.76875 84.51771Q35.159374 84.51771 34.7375 84.90833Q34.33125 85.29896 34.221874 86.06458L33.159374 85.87708Q33.346874 84.83021 34.034374 84.25208Q34.721874 83.65833 35.7375 83.65833Q36.440624 83.65833 37.034374 83.97083Q37.628124 84.26771 37.940624 84.78333Q38.253124 85.29896 38.253124 85.89271Q38.253124 86.43958 37.95625 86.90833Q37.659374 87.36146 37.08125 87.62708Q37.83125 87.79896 38.253124 88.36146Q38.675 88.90833 38.675 89.75208Q38.675 90.87708 37.846874 91.65833Q37.034374 92.43958 35.784374 92.43958Q34.659374 92.43958 33.909374 91.76771Q33.159374 91.08021 33.05 90.01771Z" fill-rule="nonzero"/><path fill="#000000" d="M93.1323 317.45L92.08543 317.45L92.08543 310.73126Q91.6948 311.09064 91.0698 311.46564Q90.46043 311.825 89.97605 311.9969L89.97605 310.98126Q90.85105 310.5594 91.5073 309.98126Q92.17918 309.3875 92.46043 308.825L93.1323 308.825L93.1323 317.45ZM96.16355 313.21564Q96.16355 311.6844 96.47605 310.7625Q96.78855 309.825 97.39793 309.325Q98.02293 308.825 98.96043 308.825Q99.64793 308.825 100.16355 309.10626Q100.6948 309.3875 101.03855 309.91876Q101.3823 310.4344 101.5698 311.1844Q101.7573 311.9344 101.7573 313.21564Q101.7573 314.73126 101.4448 315.65314Q101.14793 316.575 100.52293 317.09064Q99.91355 317.59064 98.96043 317.59064Q97.72605 317.59064 97.0073 316.7Q96.16355 315.6375 96.16355 313.21564ZM97.24168 313.21564Q97.24168 315.325 97.74168 316.02814Q98.24168 316.73126 98.96043 316.73126Q99.6948 316.73126 100.17918 316.02814Q100.67918 315.325 100.67918 313.21564Q100.67918 311.09064 100.17918 310.40314Q99.6948 309.7 98.9448 309.7Q98.22605 309.7 97.78855 310.3094Q97.24168 311.09064 97.24168 313.21564ZM103.16355 313.21564Q103.16355 311.6844 103.47605 310.7625Q103.78855 309.825 104.39793 309.325Q105.02293 308.825 105.96043 308.825Q106.64793 308.825 107.16355 309.10626Q107.6948 309.3875 108.03855 309.91876Q108.3823 310.4344 108.5698 311.1844Q108.7573 311.9344 108.7573 313.21564Q108.7573 314.73126 108.4448 315.65314Q108.14793 316.575 107.52293 317.09064Q106.91355 317.59064 105.96043 317.59064Q104.72605 317.59064 104.0073 316.7Q103.16355 315.6375 103.16355 313.21564ZM104.24168 313.21564Q104.24168 315.325 104.74168 316.02814Q105.24168 316.73126 105.96043 316.73126Q106.6948 316.73126 107.17918 316.02814Q107.67918 315.325 107.67918 313.21564Q107.67918 311.09064 107.17918 310.40314Q106.6948 309.7 105.9448 309.7Q105.22605 309.7 104.78855 310.3094Q104.24168 311.09064 104.24168 313.21564ZM110.16355 313.21564Q110.16355 311.6844 110.47605 310.7625Q110.78855 309.825 111.39793 309.325Q112.02293 308.825 112.96043 308.825Q113.64793 308.825 114.16355 309.10626Q114.6948 309.3875 115.03855 309.91876Q115.3823 310.4344 115.5698 311.1844Q115.7573 311.9344 115.7573 313.21564Q115.7573 314.73126 115.4448 315.65314Q115.14793 316.575 114.52293 317.09064Q113.91355 317.59064 112.96043 317.59064Q111.72605 317.59064 111.0073 316.7Q110.16355 315.6375 110.16355 313.21564ZM111.24168 313.21564Q111.24168 315.325 111.74168 316.02814Q112.24168 316.73126 112.96043 316.73126Q113.6948 316.73126 114.17918 316.02814Q114.67918 315.325 114.67918 313.21564Q114.67918 311.09064 114.17918 310.40314Q113.6948 309.7 112.9448 309.7Q112.22605 309.7 111.78855 310.3094Q111.24168 311.09064 111.24168 313.21564ZM117.16355 313.21564Q117.16355 311.6844 117.47605 310.7625Q117.78855 309.825 118.39793 309.325Q119.02293 308.825 119.96043 308.825Q120.64793 308.825 121.16355 309.10626Q121.6948 309.3875 122.03855 309.91876Q122.3823 310.4344 122.5698 311.1844Q122.7573 311.9344 122.7573 313.21564Q122.7573 314.73126 122.4448 315.65314Q122.14793 316.575 121.52293 317.09064Q120.91355 317.59064 119.96043 317.59064Q118.72605 317.59064 118.0073 316.7Q117.16355 315.6375 117.16355 313.21564ZM118.24168 313.21564Q118.24168 315.325 118.74168 316.02814Q119.24168 316.73126 119.96043 316.73126Q120.6948 316.73126 121.17918 316.02814Q121.67918 315.325 121.67918 313.21564Q121.67918 311.09064 121.17918 310.40314Q120.6948 309.7 119.9448 309.7Q119.22605 309.7 118.78855 310.3094Q118.24168 311.09064 118.24168 313.21564ZM124.16355 313.21564Q124.16355 311.6844 124.47605 310.7625Q124.78855 309.825 125.39793 309.325Q126.02293 308.825 126.96043 308.825Q127.64793 308.825 128.16354 309.10626Q128.6948 309.3875 129.03854 309.91876Q129.3823 310.4344 129.5698 311.1844Q129.7573 311.9344 129.7573 313.21564Q129.7573 314.73126 129.4448 315.65314Q129.14792 316.575 128.52292 317.09064Q127.91355 317.59064 126.96043 317.59064Q125.72605 317.59064 125.0073 316.7Q124.16355 315.6375 124.16355 313.21564ZM125.24168 313.21564Q125.24168 315.325 125.74168 316.02814Q126.24168 316.73126 126.96043 316.73126Q127.6948 316.73126 128.17917 316.02814Q128.67917 315.325 128.67917 313.21564Q128.67917 311.09064 128.17917 310.40314Q127.6948 309.7 126.9448 309.7Q126.22605 309.7 125.78855 310.3094Q125.24168 311.09064 125.24168 313.21564ZM131.16354 313.21564Q131.16354 311.6844 131.47604 310.7625Q131.78854 309.825 132.39792 309.325Q133.02292 308.825 133.96042 308.825Q134.64792 308.825 135.16354 309.10626Q135.6948 309.3875 136.03854 309.91876Q136.3823 310.4344 136.5698 311.1844Q136.7573 311.9344 136.7573 313.21564Q136.7573 314.73126 136.4448 315.65314Q136.14792 316.575 135.52292 317.09064Q134.91354 317.59064 133.96042 317.59064Q132.72604 317.59064 132.0073 316.7Q131.16354 315.6375 131.16354 313.21564ZM132.24167 313.21564Q132.24167 315.325 132.74167 316.02814Q133.24167 316.73126 133.96042 316.73126Q134.6948 316.73126 135.17917 316.02814Q135.67917 315.325 135.67917 313.21564Q135.67917 311.09064 135.17917 310.40314Q134.6948 309.7 133.9448 309.7Q133.22604 309.7 132.78854 310.3094Q132.24167 311.09064 132.24167 313.21564Z" fill-rule="nonzero"/><path fill="#000000" d="M194.87865 316.4344L194.87865 317.45L189.19115 317.45Q189.19115 317.075 189.31615 316.71564Q189.5349 316.1375 190.00365 315.575Q190.48802 315.0125 191.39427 314.27814Q192.80052 313.1219 193.2849 312.45Q193.7849 311.77814 193.7849 311.1844Q193.7849 310.5594 193.33177 310.1375Q192.87865 309.7 192.1599 309.7Q191.39427 309.7 190.94115 310.15314Q190.48802 310.60626 190.4724 311.41876L189.39427 311.3094Q189.50365 310.09064 190.2224 309.46564Q190.95677 308.825 192.19115 308.825Q193.42552 308.825 194.14427 309.5125Q194.86302 310.2 194.86302 311.21564Q194.86302 311.73126 194.64427 312.23126Q194.44115 312.71564 193.94115 313.27814Q193.45677 313.825 192.33177 314.77814Q191.37865 315.575 191.0974 315.8719Q190.83177 316.15314 190.6599 316.4344L194.87865 316.4344ZM196.33177 313.21564Q196.33177 311.6844 196.64427 310.7625Q196.95677 309.825 197.56615 309.325Q198.19115 308.825 199.12865 308.825Q199.81615 308.825 200.33177 309.10626Q200.86302 309.3875 201.20677 309.91876Q201.55052 310.4344 201.73802 311.1844Q201.92552 311.9344 201.92552 313.21564Q201.92552 314.73126 201.61302 315.65314Q201.31615 316.575 200.69115 317.09064Q200.08177 317.59064 199.12865 317.59064Q197.89427 317.59064 197.17552 316.7Q196.33177 315.6375 196.33177 313.21564ZM197.4099 313.21564Q197.4099 315.325 197.9099 316.02814Q198.4099 316.73126 199.12865 316.73126Q199.86302 316.73126 200.3474 316.02814Q200.8474 315.325 200.8474 313.21564Q200.8474 311.09064 200.3474 310.40314Q199.86302 309.7 199.11302 309.7Q198.39427 309.7 197.95677 310.3094Q197.4099 311.09064 197.4099 313.21564ZM203.33177 313.21564Q203.33177 311.6844 203.64427 310.7625Q203.95677 309.825 204.56615 309.325Q205.19115 308.825 206.12865 308.825Q206.81615 308.825 207.33177 309.10626Q207.86302 309.3875 208.20677 309.91876Q208.55052 310.4344 208.73802 311.1844Q208.92552 311.9344 208.92552 313.21564Q208.92552 314.73126 208.61302 315.65314Q208.31615 316.575 207.69115 317.09064Q207.08177 317.59064 206.12865 317.59064Q204.89427 317.59064 204.17552 316.7Q203.33177 315.6375 203.33177 313.21564ZM204.4099 313.21564Q204.4099 315.325 204.9099 316.02814Q205.4099 316.73126 206.12865 316.73126Q206.86302 316.73126 207.3474 316.02814Q207.8474 315.325 207.8474 313.21564Q207.8474 311.09064 207.3474 310.40314Q206.86302 309.7 206.11302 309.7Q205.39427 309.7 204.95677 310.3094Q204.4099 311.09064 204.4099 313.21564ZM210.33177 313.21564Q210.33177 311.6844 210.64427 310.7625Q210.95677 309.825 211.56615 309.325Q212.19115 308.825 213.12865 308.825Q213.81615 308.825 214.33177 309.10626Q214.86302 309.3875 215.20677 309.91876Q215.55052 310.4344 215.73802 311.1844Q215.92552 311.9344 215.92552 313.21564Q215.92552 314.73126 215.61302 315.65314Q215.31615 316.575 214.69115 317.09064Q214.08177 317.59064 213.12865 317.59064Q211.89427 317.59064 211.17552 316.7Q210.33177 315.6375 210.33177 313.21564ZM211.4099 313.21564Q211.4099 315.325 211.9099 316.02814Q212.4099 316.73126 213.12865 316.73126Q213.86302 316.73126 214.3474 316.02814Q214.8474 315.325 214.8474 313.21564Q214.8474 311.09064 214.3474 310.40314Q213.86302 309.7 213.11302 309.7Q212.39427 309.7 211.95677 310.3094Q211.4099 311.09064 211.4099 313.21564ZM217.33177 313.21564Q217.33177 311.6844 217.64427 310.7625Q217.95677 309.825 218.56615 309.325Q219.19115 308.825 220.12865 308.825Q220.81615 308.825 221.33177 309.10626Q221.86302 309.3875 222.20677 309.91876Q222.55052 310.4344 222.73802 311.1844Q222.92552 311.9344 222.92552 313.21564Q222.92552 314.73126 222.61302 315.65314Q222.31615 316.575 221.69115 317.09064Q221.08177 317.59064 220.12865 317.59064Q218.89427 317.59064 218.17552 316.7Q217.33177 315.6375 217.33177 313.21564ZM218.4099 313.21564Q218.4099 315.325 218.9099 316.02814Q219.4099 316.73126 220.12865 316.73126Q220.86302 316.73126 221.3474 316.02814Q221.8474 315.325 221.8474 313.21564Q221.8474 311.09064 221.3474 310.40314Q220.86302 309.7 220.11302 309.7Q219.39427 309.7 218.95677 310.3094Q218.4099 311.09064 218.4099 313.21564ZM224.33177 313.21564Q224.33177 311.6844 224.64427 310.7625Q224.95677 309.825 225.56615 309.325Q226.19115 308.825 227.12865 308.825Q227.81615 308.825 228.33177 309.10626Q228.86302 309.3875 229.20677 309.91876Q229.55052 310.4344 229.73802 311.1844Q229.92552 311.9344 229.92552 313.21564Q229.92552 314.73126 229.61302 315.65314Q229.31615 316.575 228.69115 317.09064Q228.08177 317.59064 227.12865 317.59064Q225.89427 317.59064 225.17552 316.7Q224.33177 315.6375 224.33177 313.21564ZM225.4099 313.21564Q225.4099 315.325 225.9099 316.02814Q226.4099 316.73126 227.12865 316.73126Q227.86302 316.73126 228.3474 316.02814Q228.8474 315.325 228.8474 313.21564Q228.8474 311.09064 228.3474 310.40314Q227.86302 309.7 227.11302 309.7Q226.39427 309.7 225.95677 310.3094Q225.4099 311.09064 225.4099 313.21564ZM231.33177 313.21564Q231.33177 311.6844 231.64427 310.7625Q231.95677 309.825 232.56615 309.325Q233.19115 308.825 234.12865 308.825Q234.81615 308.825 235.33177 309.10626Q235.86302 309.3875 236.20677 309.91876Q236.55052 310.4344 236.73802 311.1844Q236.92552 311.9344 236.92552 313.21564Q236.92552 314.73126 236.61302 315.65314Q236.31615 316.575 235.69115 317.09064Q235.08177 317.59064 234.12865 317.59064Q232.89427 317.59064 232.17552 316.7Q231.33177 315.6375 231.33177 313.21564ZM232.4099 313.21564Q232.4099 315.325 232.9099 316.02814Q233.4099 316.73126 234.12865 316.73126Q234.86302 316.73126 235.3474 316.02814Q235.8474 315.325 235.8474 313.21564Q235.8474 311.09064 235.3474 310.40314Q234.86302 309.7 234.11302 309.7Q233.39427 309.7 232.95677 310.3094Q232.4099 311.09064 232.4099 313.21564Z" fill-rule="nonzero"/><path fill="#000000" d="M289.5 315.1844L290.5625 315.04376Q290.73438 315.9344 291.17188 316.34064Q291.60938 316.73126 292.23438 316.73126Q292.98438 316.73126 293.5 316.21564Q294.01562 315.7 294.01562 314.9344Q294.01562 314.21564 293.53125 313.7469Q293.0625 313.2625 292.32812 313.2625Q292.03125 313.2625 291.57812 313.3875L291.70312 312.45Q291.8125 312.46564 291.875 312.46564Q292.54688 312.46564 293.07812 312.1219Q293.625 311.7625 293.625 311.02814Q293.625 310.45 293.23438 310.075Q292.84375 309.6844 292.21875 309.6844Q291.60938 309.6844 291.1875 310.075Q290.78125 310.46564 290.67188 311.23126L289.60938 311.04376Q289.79688 309.9969 290.48438 309.41876Q291.17188 308.825 292.1875 308.825Q292.89062 308.825 293.48438 309.1375Q294.07812 309.4344 294.39062 309.95Q294.70312 310.46564 294.70312 311.0594Q294.70312 311.60626 294.40625 312.075Q294.10938 312.52814 293.53125 312.79376Q294.28125 312.96564 294.70312 313.52814Q295.125 314.075 295.125 314.91876Q295.125 316.04376 294.29688 316.825Q293.48438 317.60626 292.23438 317.60626Q291.10938 317.60626 290.35938 316.9344Q289.60938 316.2469 289.5 315.1844ZM296.5 313.21564Q296.5 311.6844 296.8125 310.7625Q297.125 309.825 297.73438 309.325Q298.35938 308.825 299.29688 308.825Q299.98438 308.825 300.5 309.10626Q301.03125 309.3875 301.375 309.91876Q301.71875 310.4344 301.90625 311.1844Q302.09375 311.9344 302.09375 313.21564Q302.09375 314.73126 301.78125 315.65314Q301.48438 316.575 300.85938 317.09064Q300.25 317.59064 299.29688 317.59064Q298.0625 317.59064 297.34375 316.7Q296.5 315.6375 296.5 313.21564ZM297.57812 313.21564Q297.57812 315.325 298.07812 316.02814Q298.57812 316.73126 299.29688 316.73126Q300.03125 316.73126 300.51562 316.02814Q301.01562 315.325 301.01562 313.21564Q301.01562 311.09064 300.51562 310.40314Q300.03125 309.7 299.28125 309.7Q298.5625 309.7 298.125 310.3094Q297.57812 311.09064 297.57812 313.21564ZM303.5 313.21564Q303.5 311.6844 303.8125 310.7625Q304.125 309.825 304.73438 309.325Q305.35938 308.825 306.29688 308.825Q306.98438 308.825 307.5 309.10626Q308.03125 309.3875 308.375 309.91876Q308.71875 310.4344 308.90625 311.1844Q309.09375 311.9344 309.09375 313.21564Q309.09375 314.73126 308.78125 315.65314Q308.48438 316.575 307.85938 317.09064Q307.25 317.59064 306.29688 317.59064Q305.0625 317.59064 304.34375 316.7Q303.5 315.6375 303.5 313.21564ZM304.57812 313.21564Q304.57812 315.325 305.07812 316.02814Q305.57812 316.73126 306.29688 316.73126Q307.03125 316.73126 307.51562 316.02814Q308.01562 315.325 308.01562 313.21564Q308.01562 311.09064 307.51562 310.40314Q307.03125 309.7 306.28125 309.7Q305.5625 309.7 305.125 310.3094Q304.57812 311.09064 304.57812 313.21564ZM310.5 313.21564Q310.5 311.6844 310.8125 310.7625Q311.125 309.825 311.73438 309.325Q312.35938 308.825 313.29688 308.825Q313.98438 308.825 314.5 309.10626Q315.03125 309.3875 315.375 309.91876Q315.71875 310.4344 315.90625 311.1844Q316.09375 311.9344 316.09375 313.21564Q316.09375 314.73126 315.78125 315.65314Q315.48438 316.575 314.85938 317.09064Q314.25 317.59064 313.29688 317.59064Q312.0625 317.59064 311.34375 316.7Q310.5 315.6375 310.5 313.21564ZM311.57812 313.21564Q311.57812 315.325 312.07812 316.02814Q312.57812 316.73126 313.29688 316.73126Q314.03125 316.73126 314.51562 316.02814Q315.01562 315.325 315.01562 313.21564Q315.01562 311.09064 314.51562 310.40314Q314.03125 309.7 313.28125 309.7Q312.5625 309.7 312.125 310.3094Q311.57812 311.09064 311.57812 313.21564ZM317.5 313.21564Q317.5 311.6844 317.8125 310.7625Q318.125 309.825 318.73438 309.325Q319.35938 308.825 320.29688 308.825Q320.98438 308.825 321.5 309.10626Q322.03125 309.3875 322.375 309.91876Q322.71875 310.4344 322.90625 311.1844Q323.09375 311.9344 323.09375 313.21564Q323.09375 314.73126 322.78125 315.65314Q322.48438 316.575 321.85938 317.09064Q321.25 317.59064 320.29688 317.59064Q319.0625 317.59064 318.34375 316.7Q317.5 315.6375 317.5 313.21564ZM318.57812 313.21564Q318.57812 315.325 319.07812 316.02814Q319.57812 316.73126 320.29688 316.73126Q321.03125 316.73126 321.51562 316.02814Q322.01562 315.325 322.01562 313.21564Q322.01562 311.09064 321.51562 310.40314Q321.03125 309.7 320.28125 309.7Q319.5625 309.7 319.125 310.3094Q318.57812 311.09064 318.57812 313.21564ZM324.5 313.21564Q324.5 311.6844 324.8125 310.7625Q325.125 309.825 325.73438 309.325Q326.35938 308.825 327.29688 308.825Q327.98438 308.825 328.5 309.10626Q329.03125 309.3875 329.375 309.91876Q329.71875 310.4344 329.90625 311.1844Q330.09375 311.9344 330.09375 313.21564Q330.09375 314.73126 329.78125 315.65314Q329.48438 316.575 328.85938 317.09064Q328.25 317.59064 327.29688 317.59064Q326.0625 317.59064 325.34375 316.7Q324.5 315.6375 324.5 313.21564ZM325.57812 313.21564Q325.57812 315.325 326.07812 316.02814Q326.57812 316.73126 327.29688 316.73126Q328.03125 316.73126 328.51562 316.02814Q329.01562 315.325 329.01562 313.21564Q329.01562 311.09064 328.51562 310.40314Q328.03125 309.7 327.28125 309.7Q326.5625 309.7 326.125 310.3094Q325.57812 311.09064 325.57812 313.21564ZM331.5 313.21564Q331.5 311.6844 331.8125 310.7625Q332.125 309.825 332.73438 309.325Q333.35938 308.825 334.29688 308.825Q334.98438 308.825 335.5 309.10626Q336.03125 309.3875 336.375 309.91876Q336.71875 310.4344 336.90625 311.1844Q337.09375 311.9344 337.09375 313.21564Q337.09375 314.73126 336.78125 315.65314Q336.48438 316.575 335.85938 317.09064Q335.25 317.59064 334.29688 317.59064Q333.0625 317.59064 332.34375 316.7Q331.5 315.6375 331.5 313.21564ZM332.57812 313.21564Q332.57812 315.325 333.07812 316.02814Q333.57812 316.73126 334.29688 316.73126Q335.03125 316.73126 335.51562 316.02814Q336.01562 315.325 336.01562 313.21564Q336.01562 311.09064 335.51562 310.40314Q335.03125 309.7 334.28125 309.7Q333.5625 309.7 333.125 310.3094Q332.57812 311.09064 332.57812 313.21564Z" fill-rule="nonzero"/><path fill="#000000" d="M393.0432 317.45L393.0432 315.3875L389.32446 315.3875L389.32446 314.41876L393.24634 308.85626L394.1057 308.85626L394.1057 314.41876L395.26196 314.41876L395.26196 315.3875L394.1057 315.3875L394.1057 317.45L393.0432 317.45ZM393.0432 314.41876L393.0432 310.5594L390.3557 314.41876L393.0432 314.41876ZM396.6682 313.21564Q396.6682 311.6844 396.9807 310.7625Q397.2932 309.825 397.9026 309.325Q398.5276 308.825 399.4651 308.825Q400.1526 308.825 400.6682 309.10626Q401.19946 309.3875 401.5432 309.91876Q401.88696 310.4344 402.07446 311.1844Q402.26196 311.9344 402.26196 313.21564Q402.26196 314.73126 401.94946 315.65314Q401.6526 316.575 401.0276 317.09064Q400.4182 317.59064 399.4651 317.59064Q398.2307 317.59064 397.51196 316.7Q396.6682 315.6375 396.6682 313.21564ZM397.74634 313.21564Q397.74634 315.325 398.24634 316.02814Q398.74634 316.73126 399.4651 316.73126Q400.19946 316.73126 400.68384 316.02814Q401.18384 315.325 401.18384 313.21564Q401.18384 311.09064 400.68384 310.40314Q400.19946 309.7 399.44946 309.7Q398.7307 309.7 398.2932 310.3094Q397.74634 311.09064 397.74634 313.21564ZM403.6682 313.21564Q403.6682 311.6844 403.9807 310.7625Q404.2932 309.825 404.9026 309.325Q405.5276 308.825 406.4651 308.825Q407.1526 308.825 407.6682 309.10626Q408.19946 309.3875 408.5432 309.91876Q408.88696 310.4344 409.07446 311.1844Q409.26196 311.9344 409.26196 313.21564Q409.26196 314.73126 408.94946 315.65314Q408.6526 316.575 408.0276 317.09064Q407.4182 317.59064 406.4651 317.59064Q405.2307 317.59064 404.51196 316.7Q403.6682 315.6375 403.6682 313.21564ZM404.74634 313.21564Q404.74634 315.325 405.24634 316.02814Q405.74634 316.73126 406.4651 316.73126Q407.19946 316.73126 407.68384 316.02814Q408.18384 315.325 408.18384 313.21564Q408.18384 311.09064 407.68384 310.40314Q407.19946 309.7 406.44946 309.7Q405.7307 309.7 405.2932 310.3094Q404.74634 311.09064 404.74634 313.21564ZM410.6682 313.21564Q410.6682 311.6844 410.9807 310.7625Q411.2932 309.825 411.9026 309.325Q412.5276 308.825 413.4651 308.825Q414.1526 308.825 414.6682 309.10626Q415.19946 309.3875 415.5432 309.91876Q415.88696 310.4344 416.07446 311.1844Q416.26196 311.9344 416.26196 313.21564Q416.26196 314.73126 415.94946 315.65314Q415.6526 316.575 415.0276 317.09064Q414.4182 317.59064 413.4651 317.59064Q412.2307 317.59064 411.51196 316.7Q410.6682 315.6375 410.6682 313.21564ZM411.74634 313.21564Q411.74634 315.325 412.24634 316.02814Q412.74634 316.73126 413.4651 316.73126Q414.19946 316.73126 414.68384 316.02814Q415.18384 315.325 415.18384 313.21564Q415.18384 311.09064 414.68384 310.40314Q414.19946 309.7 413.44946 309.7Q412.7307 309.7 412.2932 310.3094Q411.74634 311.09064 411.74634 313.21564ZM417.6682 313.21564Q417.6682 311.6844 417.9807 310.7625Q418.2932 309.825 418.9026 309.325Q419.5276 308.825 420.4651 308.825Q421.1526 308.825 421.6682 309.10626Q422.19946 309.3875 422.5432 309.91876Q422.88696 310.4344 423.07446 311.1844Q423.26196 311.9344 423.26196 313.21564Q423.26196 314.73126 422.94946 315.65314Q422.6526 316.575 422.0276 317.09064Q421.4182 317.59064 420.4651 317.59064Q419.2307 317.59064 418.51196 316.7Q417.6682 315.6375 417.6682 313.21564ZM418.74634 313.21564Q418.74634 315.325 419.24634 316.02814Q419.74634 316.73126 420.4651 316.73126Q421.19946 316.73126 421.68384 316.02814Q422.18384 315.325 422.18384 313.21564Q422.18384 311.09064 421.68384 310.40314Q421.19946 309.7 420.44946 309.7Q419.7307 309.7 419.2932 310.3094Q418.74634 311.09064 418.74634 313.21564ZM424.6682 313.21564Q424.6682 311.6844 424.9807 310.7625Q425.2932 309.825 425.9026 309.325Q426.5276 308.825 427.4651 308.825Q428.1526 308.825 428.6682 309.10626Q429.19946 309.3875 429.5432 309.91876Q429.88696 310.4344 430.07446 311.1844Q430.26196 311.9344 430.26196 313.21564Q430.26196 314.73126 429.94946 315.65314Q429.6526 316.575 429.0276 317.09064Q428.4182 317.59064 427.4651 317.59064Q426.2307 317.59064 425.51196 316.7Q424.6682 315.6375 424.6682 313.21564ZM425.74634 313.21564Q425.74634 315.325 426.24634 316.02814Q426.74634 316.73126 427.4651 316.73126Q428.19946 316.73126 428.68384 316.02814Q429.18384 315.325 429.18384 313.21564Q429.18384 311.09064 428.68384 310.40314Q428.19946 309.7 427.44946 309.7Q426.7307 309.7 426.2932 310.3094Q425.74634 311.09064 425.74634 313.21564ZM431.6682 313.21564Q431.6682 311.6844 431.9807 310.7625Q432.2932 309.825 432.9026 309.325Q433.5276 308.825 434.4651 308.825Q435.1526 308.825 435.6682 309.10626Q436.19946 309.3875 436.5432 309.91876Q436.88696 310.4344 437.07446 311.1844Q437.26196 311.9344 437.26196 313.21564Q437.26196 314.73126 436.94946 315.65314Q436.6526 316.575 436.0276 317.09064Q435.4182 317.59064 434.4651 317.59064Q433.2307 317.59064 432.51196 316.7Q431.6682 315.6375 431.6682 313.21564ZM432.74634 313.21564Q432.74634 315.325 433.24634 316.02814Q433.74634 316.73126 434.4651 316.73126Q435.19946 316.73126 435.68384 316.02814Q436.18384 315.325 436.18384 313.21564Q436.18384 311.09064 435.68384 310.40314Q435.19946 309.7 434.44946 309.7Q433.7307 309.7 433.2932 310.3094Q432.74634 311.09064 432.74634 313.21564Z" fill-rule="nonzero"/><path fill="#000000" d="M489.83646 315.2L490.94583 315.10626Q491.07083 315.91876 491.50833 316.325Q491.96146 316.73126 492.60208 316.73126Q493.35208 316.73126 493.88333 316.15314Q494.41458 315.575 494.41458 314.6375Q494.41458 313.73126 493.89896 313.21564Q493.39896 312.6844 492.57083 312.6844Q492.07083 312.6844 491.64896 312.91876Q491.2427 313.15314 491.00833 313.5125L490.02396 313.3875L490.85208 308.98126L495.13333 308.98126L495.13333 309.98126L491.69583 309.98126L491.2427 312.29376Q492.00833 311.7469 492.85208 311.7469Q493.97708 311.7469 494.7427 312.52814Q495.52396 313.3094 495.52396 314.54376Q495.52396 315.7 494.85208 316.5594Q494.02396 317.59064 492.60208 317.59064Q491.4302 317.59064 490.6802 316.9344Q489.94583 316.27814 489.83646 315.2ZM496.83646 313.21564Q496.83646 311.6844 497.14896 310.7625Q497.46146 309.825 498.07083 309.325Q498.69583 308.825 499.63333 308.825Q500.32083 308.825 500.83646 309.10626Q501.3677 309.3875 501.71146 309.91876Q502.0552 310.4344 502.2427 311.1844Q502.4302 311.9344 502.4302 313.21564Q502.4302 314.73126 502.1177 315.65314Q501.82083 316.575 501.19583 317.09064Q500.58646 317.59064 499.63333 317.59064Q498.39896 317.59064 497.6802 316.7Q496.83646 315.6375 496.83646 313.21564ZM497.91458 313.21564Q497.91458 315.325 498.41458 316.02814Q498.91458 316.73126 499.63333 316.73126Q500.3677 316.73126 500.85208 316.02814Q501.35208 315.325 501.35208 313.21564Q501.35208 311.09064 500.85208 310.40314Q500.3677 309.7 499.6177 309.7Q498.89896 309.7 498.46146 310.3094Q497.91458 311.09064 497.91458 313.21564ZM503.83646 313.21564Q503.83646 311.6844 504.14896 310.7625Q504.46146 309.825 505.07083 309.325Q505.69583 308.825 506.63333 308.825Q507.32083 308.825 507.83646 309.10626Q508.3677 309.3875 508.71146 309.91876Q509.0552 310.4344 509.2427 311.1844Q509.4302 311.9344 509.4302 313.21564Q509.4302 314.73126 509.1177 315.65314Q508.82083 316.575 508.19583 317.09064Q507.58646 317.59064 506.63333 317.59064Q505.39896 317.59064 504.6802 316.7Q503.83646 315.6375 503.83646 313.21564ZM504.91458 313.21564Q504.91458 315.325 505.41458 316.02814Q505.91458 316.73126 506.63333 316.73126Q507.3677 316.73126 507.85208 316.02814Q508.35208 315.325 508.35208 313.21564Q508.35208 311.09064 507.85208 310.40314Q507.3677 309.7 506.6177 309.7Q505.89896 309.7 505.46146 310.3094Q504.91458 311.09064 504.91458 313.21564ZM510.83646 313.21564Q510.83646 311.6844 511.14896 310.7625Q511.46146 309.825 512.0708 309.325Q512.6958 308.825 513.6333 308.825Q514.3208 308.825 514.8364 309.10626Q515.3677 309.3875 515.7114 309.91876Q516.0552 310.4344 516.2427 311.1844Q516.4302 311.9344 516.4302 313.21564Q516.4302 314.73126 516.1177 315.65314Q515.8208 316.575 515.1958 317.09064Q514.5864 317.59064 513.6333 317.59064Q512.3989 317.59064 511.6802 316.7Q510.83646 315.6375 510.83646 313.21564ZM511.91458 313.21564Q511.91458 315.325 512.41455 316.02814Q512.91455 316.73126 513.6333 316.73126Q514.3677 316.73126 514.85205 316.02814Q515.35205 315.325 515.35205 313.21564Q515.35205 311.09064 514.85205 310.40314Q514.3677 309.7 513.6177 309.7Q512.8989 309.7 512.4614 310.3094Q511.91458 311.09064 511.91458 313.21564ZM517.8364 313.21564Q517.8364 311.6844 518.1489 310.7625Q518.4614 309.825 519.0708 309.325Q519.6958 308.825 520.6333 308.825Q521.3208 308.825 521.8364 309.10626Q522.3677 309.3875 522.7114 309.91876Q523.0552 310.4344 523.2427 311.1844Q523.4302 311.9344 523.4302 313.21564Q523.4302 314.73126 523.1177 315.65314Q522.8208 316.575 522.1958 317.09064Q521.5864 317.59064 520.6333 317.59064Q519.3989 317.59064 518.6802 316.7Q517.8364 315.6375 517.8364 313.21564ZM518.91455 313.21564Q518.91455 315.325 519.41455 316.02814Q519.91455 316.73126 520.6333 316.73126Q521.3677 316.73126 521.85205 316.02814Q522.35205 315.325 522.35205 313.21564Q522.35205 311.09064 521.85205 310.40314Q521.3677 309.7 520.6177 309.7Q519.8989 309.7 519.4614 310.3094Q518.91455 311.09064 518.91455 313.21564ZM524.8364 313.21564Q524.8364 311.6844 525.1489 310.7625Q525.4614 309.825 526.0708 309.325Q526.6958 308.825 527.6333 308.825Q528.3208 308.825 528.8364 309.10626Q529.3677 309.3875 529.7114 309.91876Q530.0552 310.4344 530.2427 311.1844Q530.4302 311.9344 530.4302 313.21564Q530.4302 314.73126 530.1177 315.65314Q529.8208 316.575 529.1958 317.09064Q528.5864 317.59064 527.6333 317.59064Q526.3989 317.59064 525.6802 316.7Q524.8364 315.6375 524.8364 313.21564ZM525.91455 313.21564Q525.91455 315.325 526.41455 316.02814Q526.91455 316.73126 527.6333 316.73126Q528.3677 316.73126 528.85205 316.02814Q529.35205 315.325 529.35205 313.21564Q529.35205 311.09064 528.85205 310.40314Q528.3677 309.7 527.6177 309.7Q526.8989 309.7 526.4614 310.3094Q525.91455 311.09064 525.91455 313.21564ZM531.8364 313.21564Q531.8364 311.6844 532.1489 310.7625Q532.4614 309.825 533.0708 309.325Q533.6958 308.825 534.6333 308.825Q535.3208 308.825 535.8364 309.10626Q536.3677 309.3875 536.7114 309.91876Q537.0552 310.4344 537.2427 311.1844Q537.4302 311.9344 537.4302 313.21564Q537.4302 314.73126 537.1177 315.65314Q536.8208 316.575 536.1958 317.09064Q535.5864 317.59064 534.6333 317.59064Q533.3989 317.59064 532.6802 316.7Q531.8364 315.6375 531.8364 313.21564ZM532.91455 313.21564Q532.91455 315.325 533.41455 316.02814Q533.91455 316.73126 534.6333 316.73126Q535.3677 316.73126 535.85205 316.02814Q536.35205 315.325 536.35205 313.21564Q536.35205 311.09064 535.85205 310.40314Q535.3677 309.7 534.6177 309.7Q533.8989 309.7 533.4614 310.3094Q532.91455 311.09064 532.91455 313.21564Z" fill-rule="nonzero"/><path fill="#4285f4" d="M223.0 56.916668C223.0 56.364384 223.44771 55.916668 224.0 55.916668L234.0 55.916668C234.55229 55.916668 235.0 56.364384 235.0 56.916668L235.0 66.916664C235.0 67.46895 234.55229 67.916664 234.0 67.916664L224.0 67.916664C223.44771 67.916664 223.0 67.46895 223.0 66.916664Z" fill-rule="nonzero"/><path fill="#1a1a1a" d="M247.82812 65.916664L247.82812 65.135414Q247.23438 66.05729 246.09375 66.05729Q245.34375 66.05729 244.71875 65.65104Q244.09375 65.229164 243.75 64.49479Q243.40625 63.760414 243.40625 62.80729Q243.40625 61.885414 243.71875 61.11979Q244.03125 60.354164 244.65625 59.96354Q245.28125 59.55729 246.04688 59.55729Q246.60938 59.55729 247.04688 59.791664Q247.48438 60.02604 247.76562 60.40104L247.76562 57.322914L248.8125 57.322914L248.8125 65.916664L247.82812 65.916664ZM244.5 62.80729Q244.5 64.010414 245.0 64.604164Q245.5 65.18229 246.1875 65.18229Q246.875 65.18229 247.35938 64.61979Q247.84375 64.05729 247.84375 62.90104Q247.84375 61.61979 247.34375 61.02604Q246.85938 60.43229 246.14062 60.43229Q245.4375 60.43229 244.96875 61.010414Q244.5 61.572914 244.5 62.80729ZM250.79688 58.541664L250.79688 57.322914L251.85938 57.322914L251.85938 58.541664L250.79688 58.541664ZM250.79688 65.916664L250.79688 59.697914L251.85938 59.697914L251.85938 65.916664L250.79688 65.916664ZM253.79688 65.916664L253.79688 59.697914L254.73438 59.697914L254.73438 60.572914Q255.03125 60.104164 255.51562 59.83854Q256.0 59.55729 256.625 59.55729Q257.3125 59.55729 257.75 59.83854Q258.20312 60.11979 258.375 60.635414Q259.125 59.55729 260.29688 59.55729Q261.23438 59.55729 261.71875 60.072914Q262.21875 60.572914 262.21875 61.65104L262.21875 65.916664L261.17188 65.916664L261.17188 61.99479Q261.17188 61.36979 261.0625 61.08854Q260.96875 60.80729 260.70312 60.635414Q260.4375 60.46354 260.0625 60.46354Q259.40625 60.46354 258.96875 60.90104Q258.54688 61.33854 258.54688 62.30729L258.54688 65.916664L257.48438 65.916664L257.48438 61.86979Q257.48438 61.166664 257.21875 60.822914Q256.96875 60.46354 256.39062 60.46354Q255.9375 60.46354 255.5625 60.697914Q255.1875 60.93229 255.01562 61.385414Q254.84375 61.83854 254.84375 62.68229L254.84375 65.916664L253.79688 65.916664ZM270.34375 60.86979L264.67188 60.86979L264.67188 59.885414L270.34375 59.885414L270.34375 60.86979ZM270.34375 63.479164L264.67188 63.479164L264.67188 62.49479L270.34375 62.49479L270.34375 63.479164ZM275.46875 65.916664L274.42188 65.916664L274.42188 59.197914Q274.03125 59.55729 273.40625 59.93229Q272.79688 60.291664 272.3125 60.46354L272.3125 59.447914Q273.1875 59.02604 273.84375 58.447914Q274.51562 57.854164 274.79688 57.291664L275.46875 57.291664L275.46875 65.916664ZM284.04688 64.90104L284.04688 65.916664L278.35938 65.916664Q278.35938 65.541664 278.48438 65.18229Q278.70312 64.604164 279.17188 64.041664Q279.65625 63.479164 280.5625 62.74479Q281.96875 61.58854 282.45312 60.916664Q282.95312 60.24479 282.95312 59.65104Q282.95312 59.02604 282.5 58.604164Q282.04688 58.166664 281.32812 58.166664Q280.5625 58.166664 280.10938 58.61979Q279.65625 59.072914 279.64062 59.885414L278.5625 59.77604Q278.67188 58.55729 279.39062 57.93229Q280.125 57.291664 281.35938 57.291664Q282.59375 57.291664 283.3125 57.979164Q284.03125 58.666664 284.03125 59.68229Q284.03125 60.197914 283.8125 60.697914Q283.60938 61.18229 283.10938 61.74479Q282.625 62.291664 281.5 63.24479Q280.54688 64.041664 280.26562 64.33854Q280.0 64.61979 279.82812 64.90104L284.04688 64.90104ZM287.125 61.260414Q286.46875 61.010414 286.14062 60.572914Q285.82812 60.11979 285.82812 59.510414Q285.82812 58.572914 286.5 57.93229Q287.1875 57.291664 288.29688 57.291664Q289.42188 57.291664 290.10938 57.947914Q290.79688 58.604164 290.79688 59.541664Q290.79688 60.135414 290.48438 60.572914Q290.17188 61.010414 289.53125 61.260414Q290.32812 61.510414 290.73438 62.08854Q291.14062 62.666664 291.14062 63.46354Q291.14062 64.55729 290.35938 65.30729Q289.59375 66.05729 288.3125 66.05729Q287.04688 66.05729 286.26562 65.30729Q285.48438 64.55729 285.48438 63.43229Q285.48438 62.58854 285.90625 62.02604Q286.34375 61.46354 287.125 61.260414ZM286.90625 59.46354Q286.90625 60.072914 287.29688 60.46354Q287.70312 60.854164 288.32812 60.854164Q288.9375 60.854164 289.32812 60.479164Q289.71875 60.08854 289.71875 59.52604Q289.71875 58.947914 289.3125 58.55729Q288.90625 58.15104 288.3125 58.15104Q287.70312 58.15104 287.29688 58.541664Q286.90625 58.93229 286.90625 59.46354ZM286.57812 63.43229Q286.57812 63.885414 286.78125 64.30729Q287.0 64.729164 287.42188 64.96354Q287.84375 65.197914 288.32812 65.197914Q289.07812 65.197914 289.5625 64.71354Q290.0625 64.229164 290.0625 63.479164Q290.0625 62.71354 289.5625 62.21354Q289.0625 61.71354 288.29688 61.71354Q287.54688 61.71354 287.0625 62.21354Q286.57812 62.697914 286.57812 63.43229Z" fill-rule="nonzero"/><path fill="#ea4335" d="M308.0 56.916668C308.0 56.364384 308.44772 55.916668 309.0 55.916668L319.0 55.916668C319.55228 55.916668 320.0 56.364384 320.0 56.916668L320.0 66.916664C320.0 67.46895 319.55228 67.916664 319.0 67.916664L309.0 67.916664C308.44772 67.916664 308.0 67.46895 308.0 66.916664Z" fill-rule="nonzero"/><path fill="#1a1a1a" d="M332.82812 65.916664L332.82812 65.135414Q332.23438 66.05729 331.09375 66.05729Q330.34375 66.05729 329.71875 65.65104Q329.09375 65.229164 328.75 64.49479Q328.40625 63.760414 328.40625 62.80729Q328.40625 61.885414 328.71875 61.11979Q329.03125 60.354164 329.65625 59.96354Q330.28125 59.55729 331.04688 59.55729Q331.60938 59.55729 332.04688 59.791664Q332.48438 60.02604 332.76562 60.40104L332.76562 57.322914L333.8125 57.322914L333.8125 65.916664L332.82812 65.916664ZM329.5 62.80729Q329.5 64.010414 330.0 64.604164Q330.5 65.18229 331.1875 65.18229Q331.875 65.18229 332.35938 64.61979Q332.84375 64.05729 332.84375 62.90104Q332.84375 61.61979 332.34375 61.02604Q331.85938 60.43229 331.14062 60.43229Q330.4375 60.43229 329.96875 61.010414Q329.5 61.572914 329.5 62.80729ZM335.79688 58.541664L335.79688 57.322914L336.85938 57.322914L336.85938 58.541664L335.79688 58.541664ZM335.79688 65.916664L335.79688 59.697914L336.85938 59.697914L336.85938 65.916664L335.79688 65.916664ZM338.79688 65.916664L338.79688 59.697914L339.73438 59.697914L339.73438 60.572914Q340.03125 60.104164 340.51562 59.83854Q341.0 59.55729 341.625 59.55729Q342.3125 59.55729 342.75 59.83854Q343.20312 60.11979 343.375 60.635414Q344.125 59.55729 345.29688 59.55729Q346.23438 59.55729 346.71875 60.072914Q347.21875 60.572914 347.21875 61.65104L347.21875 65.916664L346.17188 65.916664L346.17188 61.99479Q346.17188 61.36979 346.0625 61.08854Q345.96875 60.80729 345.70312 60.635414Q345.4375 60.46354 345.0625 60.46354Q344.40625 60.46354 343.96875 60.90104Q343.54688 61.33854 343.54688 62.30729L343.54688 65.916664L342.48438 65.916664L342.48438 61.86979Q342.48438 61.166664 342.21875 60.822914Q341.96875 60.46354 341.39062 60.46354Q340.9375 60.46354 340.5625 60.697914Q340.1875 60.93229 340.01562 61.385414Q339.84375 61.83854 339.84375 62.68229L339.84375 65.916664L338.79688 65.916664ZM355.34375 60.86979L349.67188 60.86979L349.67188 59.885414L355.34375 59.885414L355.34375 60.86979ZM355.34375 63.479164L349.67188 63.479164L349.67188 62.49479L355.34375 62.49479L355.34375 63.479164ZM362.04688 64.90104L362.04688 65.916664L356.35938 65.916664Q356.35938 65.541664 356.48438 65.18229Q356.70312 64.604164 357.17188 64.041664Q357.65625 63.479164 358.5625 62.74479Q359.96875 61.58854 360.45312 60.916664Q360.95312 60.24479 360.95312 59.65104Q360.95312 59.02604 360.5 58.604164Q360.04688 58.166664 359.32812 58.166664Q358.5625 58.166664 358.10938 58.61979Q357.65625 59.072914 357.64062 59.885414L356.5625 59.77604Q356.67188 58.55729 357.39062 57.93229Q358.125 57.291664 359.35938 57.291664Q360.59375 57.291664 361.3125 57.979164Q362.03125 58.666664 362.03125 59.68229Q362.03125 60.197914 361.8125 60.697914Q361.60938 61.18229 361.10938 61.74479Q360.625 62.291664 359.5 63.24479Q358.54688 64.041664 358.26562 64.33854Q358.0 64.61979 357.82812 64.90104L362.04688 64.90104ZM363.5 63.666664L364.60938 63.572914Q364.73438 64.385414 365.17188 64.791664Q365.625 65.197914 366.26562 65.197914Q367.01562 65.197914 367.54688 64.61979Q368.07812 64.041664 368.07812 63.104164Q368.07812 62.197914 367.5625 61.68229Q367.0625 61.15104 366.23438 61.15104Q365.73438 61.15104 365.3125 61.385414Q364.90625 61.61979 364.67188 61.979164L363.6875 61.854164L364.51562 57.447914L368.79688 57.447914L368.79688 58.447914L365.35938 58.447914L364.90625 60.760414Q365.67188 60.21354 366.51562 60.21354Q367.64062 60.21354 368.40625 60.99479Q369.1875 61.77604 369.1875 63.010414Q369.1875 64.166664 368.51562 65.02604Q367.6875 66.05729 366.26562 66.05729Q365.09375 66.05729 364.34375 65.40104Q363.60938 64.74479 363.5 63.666664ZM375.96875 59.43229L374.92188 59.510414Q374.78125 58.885414 374.53125 58.604164Q374.09375 58.15104 373.46875 58.15104Q372.96875 58.15104 372.57812 58.43229Q372.09375 58.80729 371.79688 59.510414Q371.51562 60.197914 371.5 61.479164Q371.875 60.90104 372.42188 60.61979Q372.98438 60.33854 373.59375 60.33854Q374.64062 60.33854 375.375 61.11979Q376.125 61.90104 376.125 63.11979Q376.125 63.93229 375.76562 64.635414Q375.42188 65.322914 374.8125 65.697914Q374.20312 66.05729 373.4375 66.05729Q372.10938 66.05729 371.28125 65.08854Q370.45312 64.11979 370.45312 61.90104Q370.45312 59.40104 371.375 58.27604Q372.17188 57.291664 373.53125 57.291664Q374.54688 57.291664 375.1875 57.86979Q375.84375 58.43229 375.96875 59.43229ZM371.67188 63.135414Q371.67188 63.68229 371.89062 64.18229Q372.125 64.666664 372.53125 64.93229Q372.95312 65.197914 373.42188 65.197914Q374.07812 65.197914 374.5625 64.666664Q375.04688 64.11979 375.04688 63.197914Q375.04688 62.30729 374.5625 61.791664Q374.09375 61.27604 373.375 61.27604Q372.65625 61.27604 372.15625 61.791664Q371.67188 62.30729 371.67188 63.135414Z" fill-rule="nonzero"/><path fill="#757575" d="M20.128124 37.55L20.128124 23.2375L30.4875 23.2375L30.4875 24.925L22.034374 24.925L22.034374 29.3L29.940624 29.3L29.940624 30.9875L22.034374 30.9875L22.034374 35.8625L30.815624 35.8625L30.815624 37.55L20.128124 37.55ZM33.284374 37.55L33.284374 28.55L31.7375 28.55L31.7375 27.175L33.284374 27.175L33.284374 26.08125Q33.284374 25.034374 33.471874 24.51875Q33.721874 23.83125 34.3625 23.409374Q35.003124 22.9875 36.159374 22.9875Q36.909374 22.9875 37.8 23.159374L37.534374 24.690624Q36.9875 24.596874 36.503124 24.596874Q35.70625 24.596874 35.3625 24.940624Q35.034374 25.284374 35.034374 26.221874L35.034374 27.175L37.065624 27.175L37.065624 28.55L35.034374 28.55L35.034374 37.55L33.284374 37.55ZM39.284374 37.55L39.284374 28.55L37.7375 28.55L37.7375 27.175L39.284374 27.175L39.284374 26.08125Q39.284374 25.034374 39.471874 24.51875Q39.721874 23.83125 40.3625 23.409374Q41.003124 22.9875 42.159374 22.9875Q42.909374 22.9875 43.8 23.159374L43.534374 24.690624Q42.9875 24.596874 42.503124 24.596874Q41.70625 24.596874 41.3625 24.940624Q41.034374 25.284374 41.034374 26.221874L41.034374 27.175L43.065624 27.175L43.065624 28.55L41.034374 28.55L41.034374 37.55L39.284374 37.55ZM51.971874 34.20625L53.784374 34.440624Q53.3625 36.01875 52.190624 36.909374Q51.034374 37.784374 49.221874 37.784374Q46.95625 37.784374 45.6125 36.39375Q44.284374 34.9875 44.284374 32.45625Q44.284374 29.83125 45.628124 28.39375Q46.971874 26.940624 49.128124 26.940624Q51.20625 26.940624 52.51875 28.3625Q53.846874 29.76875 53.846874 32.346874Q53.846874 32.503124 53.83125 32.815624L46.096874 32.815624Q46.190624 34.51875 47.065624 35.425Q47.940624 36.33125 49.2375 36.33125Q50.20625 36.33125 50.878124 35.83125Q51.565624 35.315624 51.971874 34.20625ZM46.190624 31.3625L51.9875 31.3625Q51.878124 30.065624 51.33125 29.409374Q50.4875 28.39375 49.14375 28.39375Q47.940624 28.39375 47.1125 29.20625Q46.284374 30.003124 46.190624 31.3625ZM62.64375 33.753124L64.3625 33.971874Q64.08125 35.76875 62.909374 36.784374Q61.753124 37.784374 60.05 37.784374Q57.925 37.784374 56.628124 36.39375Q55.33125 35.003124 55.33125 32.409374Q55.33125 30.721874 55.878124 29.471874Q56.440624 28.20625 57.58125 27.58125Q58.721874 26.940624 60.065624 26.940624Q61.753124 26.940624 62.815624 27.8Q63.89375 28.659374 64.20625 30.221874L62.4875 30.4875Q62.253124 29.440624 61.628124 28.925Q61.003124 28.39375 60.128124 28.39375Q58.8 28.39375 57.971874 29.346874Q57.14375 30.3 57.14375 32.346874Q57.14375 34.440624 57.940624 35.39375Q58.7375 36.33125 60.034374 36.33125Q61.065624 36.33125 61.753124 35.70625Q62.45625 35.065624 62.64375 33.753124ZM69.70625 35.971874L69.95625 37.534374Q69.22188 37.690624 68.62813 37.690624Q67.675 37.690624 67.14375 37.39375Q66.62813 37.08125 66.40938 36.596874Q66.19063 36.096874 66.19063 34.51875L66.19063 28.55L64.90938 28.55L64.90938 27.175L66.19063 27.175L66.19063 24.6125L67.94063 23.55L67.94063 27.175L69.70625 27.175L69.70625 28.55L67.94063 28.55L67.94063 34.6125Q67.94063 35.3625 68.03438 35.58125Q68.12813 35.784374 68.33125 35.925Q68.55 36.05 68.94063 36.05Q69.22188 36.05 69.70625 35.971874ZM77.22188 32.3625Q77.22188 29.4875 78.81563 28.096874Q80.15938 26.940624 82.08125 26.940624Q84.22188 26.940624 85.56563 28.346874Q86.925 29.753124 86.925 32.221874Q86.925 34.221874 86.33125 35.378124Q85.7375 36.51875 84.58125 37.159374Q83.44063 37.784374 82.08125 37.784374Q79.89375 37.784374 78.55 36.39375Q77.22188 34.9875 77.22188 32.3625ZM79.01875 32.3625Q79.01875 34.3625 79.87813 35.346874Q80.75313 36.33125 82.08125 36.33125Q83.39375 36.33125 84.25313 35.346874Q85.12813 34.346874 85.12813 32.3Q85.12813 30.378124 84.25313 29.39375Q83.37813 28.39375 82.08125 28.39375Q80.75313 28.39375 79.87813 29.39375Q79.01875 30.378124 79.01875 32.3625ZM89.28438 37.55L89.28438 28.55L87.7375 28.55L87.7375 27.175L89.28438 27.175L89.28438 26.08125Q89.28438 25.034374 89.47188 24.51875Q89.72188 23.83125 90.3625 23.409374Q91.00313 22.9875 92.15938 22.9875Q92.90938 22.9875 93.8 23.159374L93.53438 24.690624Q92.9875 24.596874 92.50313 24.596874Q91.70625 24.596874 91.3625 24.940624Q91.03438 25.284374 91.03438 26.221874L91.03438 27.175L93.06563 27.175L93.06563 28.55L91.03438 28.55L91.03438 37.55L89.28438 37.55ZM107.59688 37.55L107.59688 36.2375Q106.6125 37.784374 104.69063 37.784374Q103.45625 37.784374 102.40938 37.096874Q101.37813 36.409374 100.8 35.190624Q100.2375 33.971874 100.2375 32.378124Q100.2375 30.815624 100.75313 29.55Q101.26875 28.284374 102.3 27.6125Q103.34688 26.940624 104.6125 26.940624Q105.55 26.940624 106.28438 27.346874Q107.01875 27.7375 107.4875 28.3625L107.4875 23.2375L109.22188 23.2375L109.22188 37.55L107.59688 37.55ZM102.03438 32.378124Q102.03438 34.3625 102.87813 35.346874Q103.72188 36.33125 104.8625 36.33125Q106.01875 36.33125 106.81563 35.39375Q107.62813 34.45625 107.62813 32.51875Q107.62813 30.39375 106.8 29.39375Q105.9875 28.39375 104.78438 28.39375Q103.6125 28.39375 102.81563 29.3625Q102.03438 30.315624 102.03438 32.378124ZM111.87813 25.253124L111.87813 23.2375L113.64375 23.2375L113.64375 25.253124L111.87813 25.253124ZM111.87813 37.55L111.87813 27.175L113.64375 27.175L113.64375 37.55L111.87813 37.55ZM115.8625 37.55L115.8625 27.175L117.44063 27.175L117.44063 28.628124Q117.925 27.878124 118.7375 27.409374Q119.55 26.940624 120.58125 26.940624Q121.7375 26.940624 122.47188 27.425Q123.20625 27.89375 123.51875 28.753124Q124.75313 26.940624 126.72188 26.940624Q128.26875 26.940624 129.09688 27.8Q129.925 28.659374 129.925 30.425L129.925 37.55L128.175 37.55L128.175 31.01875Q128.175 29.95625 128.00313 29.503124Q127.83125 29.034374 127.37813 28.753124Q126.94063 28.471874 126.33125 28.471874Q125.2375 28.471874 124.50313 29.20625Q123.78438 29.925 123.78438 31.51875L123.78438 37.55L122.03438 37.55L122.03438 30.815624Q122.03438 29.64375 121.59688 29.065624Q121.175 28.471874 120.19063 28.471874Q119.45625 28.471874 118.81563 28.8625Q118.19063 29.253124 117.90938 30.003124Q117.62813 30.753124 117.62813 32.175L117.62813 37.55L115.8625 37.55ZM138.97188 34.20625L140.78438 34.440624Q140.3625 36.01875 139.19063 36.909374Q138.03438 37.784374 136.22188 37.784374Q133.95625 37.784374 132.6125 36.39375Q131.28438 34.9875 131.28438 32.45625Q131.28438 29.83125 132.62813 28.39375Q133.97188 26.940624 136.12813 26.940624Q138.20625 26.940624 139.51875 28.3625Q140.84688 29.76875 140.84688 32.346874Q140.84688 32.503124 140.83125 32.815624L133.09688 32.815624Q133.19063 34.51875 134.06563 35.425Q134.94063 36.33125 136.2375 36.33125Q137.20625 36.33125 137.87813 35.83125Q138.56563 35.315624 138.97188 34.20625ZM133.19063 31.3625L138.9875 31.3625Q138.87813 30.065624 138.33125 29.409374Q137.4875 28.39375 136.14375 28.39375Q134.94063 28.39375 134.1125 29.20625Q133.28438 30.003124 133.19063 31.3625ZM142.8625 37.55L142.8625 27.175L144.45625 27.175L144.45625 28.659374Q145.59688 26.940624 147.75313 26.940624Q148.69063 26.940624 149.47188 27.284374Q150.26875 27.6125 150.65938 28.159374Q151.05 28.70625 151.20625 29.45625Q151.3 29.95625 151.3 31.175L151.3 37.55L149.53438 37.55L149.53438 31.2375Q149.53438 30.159374 149.33125 29.628124Q149.12813 29.096874 148.59688 28.784374Q148.08125 28.471874 147.37813 28.471874Q146.25313 28.471874 145.44063 29.190624Q144.62813 29.89375 144.62813 31.878124L144.62813 37.55L142.8625 37.55ZM156.70625 35.971874L156.95625 37.534374Q156.22188 37.690624 155.62813 37.690624Q154.675 37.690624 154.14375 37.39375Q153.62813 37.08125 153.40938 36.596874Q153.19063 36.096874 153.19063 34.51875L153.19063 28.55L151.90938 28.55L151.90938 27.175L153.19063 27.175L153.19063 24.6125L154.94063 23.55L154.94063 27.175L156.70625 27.175L156.70625 28.55L154.94063 28.55L154.94063 34.6125Q154.94063 35.3625 155.03438 35.58125Q155.12813 35.784374 155.33125 35.925Q155.55 36.05 155.94063 36.05Q156.22188 36.05 156.70625 35.971874ZM158.87813 25.253124L158.87813 23.2375L160.64375 23.2375L160.64375 25.253124L158.87813 25.253124ZM158.87813 37.55L158.87813 27.175L160.64375 27.175L160.64375 37.55L158.87813 37.55ZM162.22188 32.3625Q162.22188 29.4875 163.81563 28.096874Q165.15938 26.940624 167.08125 26.940624Q169.22188 26.940624 170.56563 28.346874Q171.925 29.753124 171.925 32.221874Q171.925 34.221874 171.33125 35.378124Q170.7375 36.51875 169.58125 37.159374Q168.44063 37.784374 167.08125 37.784374Q164.89375 37.784374 163.55 36.39375Q162.22188 34.9875 162.22188 32.3625ZM164.01875 32.3625Q164.01875 34.3625 164.87813 35.346874Q165.75313 36.33125 167.08125 36.33125Q168.39375 36.33125 169.25313 35.346874Q170.12813 34.346874 170.12813 32.3Q170.12813 30.378124 169.25313 29.39375Q168.37813 28.39375 167.08125 28.39375Q165.75313 28.39375 164.87813 29.39375Q164.01875 30.378124 164.01875 32.3625ZM173.8625 37.55L173.8625 27.175L175.45625 27.175L175.45625 28.659374Q176.59688 26.940624 178.75313 26.940624Q179.69063 26.940624 180.47188 27.284374Q181.26875 27.6125 181.65938 28.159374Q182.05 28.70625 182.20625 29.45625Q182.3 29.95625 182.3 31.175L182.3 37.55L180.53438 37.55L180.53438 31.2375Q180.53438 30.159374 180.33125 29.628124Q180.12813 29.096874 179.59688 28.784374Q179.08125 28.471874 178.37813 28.471874Q177.25313 28.471874 176.44063 29.190624Q175.62813 29.89375 175.62813 31.878124L175.62813 37.55L173.8625 37.55ZM189.15938 34.45625L190.90938 34.175Q191.05 35.221874 191.72188 35.784374Q192.39375 36.33125 193.59688 36.33125Q194.8 36.33125 195.37813 35.846874Q195.97188 35.346874 195.97188 34.690624Q195.97188 34.096874 195.45625 33.753124Q195.09688 33.51875 193.65938 33.159374Q191.72188 32.659374 190.97188 32.315624Q190.2375 31.95625 189.84688 31.33125Q189.45625 30.690624 189.45625 29.925Q189.45625 29.2375 189.76875 28.64375Q190.09688 28.05 190.64375 27.659374Q191.05 27.3625 191.75313 27.159374Q192.47188 26.940624 193.28438 26.940624Q194.50313 26.940624 195.425 27.3Q196.34688 27.64375 196.78438 28.253124Q197.22188 28.846874 197.39375 29.846874L195.675 30.08125Q195.55 29.284374 194.9875 28.846874Q194.425 28.39375 193.40938 28.39375Q192.19063 28.39375 191.675 28.8Q191.15938 29.190624 191.15938 29.721874Q191.15938 30.065624 191.37813 30.346874Q191.58125 30.628124 192.05 30.815624Q192.31563 30.909374 193.59688 31.253124Q195.47188 31.753124 196.20625 32.08125Q196.94063 32.39375 197.3625 33.003124Q197.78438 33.596874 197.78438 34.503124Q197.78438 35.378124 197.26875 36.159374Q196.75313 36.940624 195.78438 37.3625Q194.81563 37.784374 193.59688 37.784374Q191.58125 37.784374 190.51875 36.940624Q189.45625 36.096874 189.15938 34.45625ZM199.87813 25.253124L199.87813 23.2375L201.64375 23.2375L201.64375 25.253124L199.87813 25.253124ZM199.87813 37.55L199.87813 27.175L201.64375 27.175L201.64375 37.55L199.87813 37.55ZM202.94063 37.55L202.94063 36.128124L209.55 28.55Q208.425 28.596874 207.56563 28.596874L203.33125 28.596874L203.33125 27.175L211.81563 27.175L211.81563 28.346874L206.19063 34.925L205.1125 36.128124Q206.28438 36.034374 207.33125 36.034374L212.12813 36.034374L212.12813 37.55L202.94063 37.55ZM219.97188 34.20625L221.78438 34.440624Q221.3625 36.01875 220.19063 36.909374Q219.03438 37.784374 217.22188 37.784374Q214.95625 37.784374 213.6125 36.39375Q212.28438 34.9875 212.28438 32.45625Q212.28438 29.83125 213.62813 28.39375Q214.97188 26.940624 217.12813 26.940624Q219.20625 26.940624 220.51875 28.3625Q221.84688 29.76875 221.84688 32.346874Q221.84688 32.503124 221.83125 32.815624L214.09688 32.815624Q214.19063 34.51875 215.06563 35.425Q215.94063 36.33125 217.2375 36.33125Q218.20625 36.33125 218.87813 35.83125Q219.56563 35.315624 219.97188 34.20625ZM214.19063 31.3625L219.9875 31.3625Q219.87813 30.065624 219.33125 29.409374Q218.4875 28.39375 217.14375 28.39375Q215.94063 28.39375 215.1125 29.20625Q214.28438 30.003124 214.19063 31.3625ZM229.22188 32.3625Q229.22188 29.4875 230.81563 28.096874Q232.15938 26.940624 234.08125 26.940624Q236.22188 26.940624 237.56563 28.346874Q238.925 29.753124 238.925 32.221874Q238.925 34.221874 238.33125 35.378124Q237.7375 36.51875 236.58125 37.159374Q235.44063 37.784374 234.08125 37.784374Q231.89375 37.784374 230.55 36.39375Q229.22188 34.9875 229.22188 32.3625ZM231.01875 32.3625Q231.01875 34.3625 231.87813 35.346874Q232.75313 36.33125 234.08125 36.33125Q235.39375 36.33125 236.25313 35.346874Q237.12813 34.346874 237.12813 32.3Q237.12813 30.378124 236.25313 29.39375Q235.37813 28.39375 234.08125 28.39375Q232.75313 28.39375 231.87813 29.39375Q231.01875 30.378124 231.01875 32.3625ZM240.8625 37.55L240.8625 27.175L242.45625 27.175L242.45625 28.659374Q243.59688 26.940624 245.75313 26.940624Q246.69063 26.940624 247.47188 27.284374Q248.26875 27.6125 248.65938 28.159374Q249.05 28.70625 249.20625 29.45625Q249.3 29.95625 249.3 31.175L249.3 37.55L247.53438 37.55L247.53438 31.2375Q247.53438 30.159374 247.33125 29.628124Q247.12813 29.096874 246.59688 28.784374Q246.08125 28.471874 245.37813 28.471874Q244.25313 28.471874 243.44063 29.190624Q242.62813 29.89375 242.62813 31.878124L242.62813 37.55L240.8625 37.55ZM256.45624 32.95625L258.2375 32.8Q258.3625 33.8625 258.8156 34.55Q259.28436 35.2375 260.2531 35.675Q261.2375 36.096874 262.47186 36.096874Q263.55 36.096874 264.3781 35.784374Q265.20624 35.45625 265.6125 34.89375Q266.01874 34.33125 266.01874 33.659374Q266.01874 32.9875 265.6281 32.4875Q265.2375 31.9875 264.34686 31.64375Q263.76874 31.409374 261.78436 30.940624Q259.8156 30.471874 259.03436 30.05Q258.0031 29.51875 257.5031 28.721874Q257.0031 27.925 257.0031 26.940624Q257.0031 25.846874 257.6125 24.909374Q258.22186 23.971874 259.40936 23.4875Q260.59686 22.9875 262.03436 22.9875Q263.6281 22.9875 264.84686 23.503124Q266.0656 24.01875 266.70624 25.01875Q267.3625 26.003124 267.40936 27.26875L265.59686 27.409374Q265.45624 26.05 264.6125 25.3625Q263.76874 24.659374 262.1125 24.659374Q260.39374 24.659374 259.59686 25.3Q258.8156 25.925 258.8156 26.8Q258.8156 27.58125 259.3781 28.08125Q259.925 28.58125 262.2375 29.096874Q264.55 29.6125 265.40936 30.003124Q266.65936 30.58125 267.2531 31.471874Q267.84686 32.346874 267.84686 33.503124Q267.84686 34.64375 267.1906 35.659374Q266.53436 36.675 265.3 37.2375Q264.08124 37.8 262.55 37.8Q260.6125 37.8 259.3 37.2375Q257.9875 36.659374 257.2375 35.51875Q256.4875 34.378124 256.45624 32.95625ZM270.40936 37.55L270.40936 23.2375L272.3156 23.2375L272.3156 37.55L270.40936 37.55ZM276.03436 37.55L276.03436 23.2375L278.89374 23.2375L282.26874 33.3625Q282.7375 34.784374 282.95624 35.4875Q283.20624 34.70625 283.72186 33.190624L287.14374 23.2375L289.6906 23.2375L289.6906 37.55L287.8781 37.55L287.8781 25.565624L283.70624 37.55L282.0031 37.55L277.8625 25.3625L277.8625 37.55L276.03436 37.55ZM293.09686 37.55L293.09686 23.2375L298.01874 23.2375Q299.6906 23.2375 300.58124 23.440624Q301.8 23.721874 302.675 24.45625Q303.8 25.425 304.3625 26.909374Q304.925 28.39375 304.925 30.315624Q304.925 31.940624 304.55 33.20625Q304.175 34.45625 303.5656 35.284374Q302.97186 36.1125 302.26874 36.596874Q301.5656 37.065624 300.5656 37.315624Q299.5656 37.55 298.2531 37.55L293.09686 37.55ZM294.9875 35.8625L298.05 35.8625Q299.45624 35.8625 300.2531 35.596874Q301.0656 35.33125 301.55 34.846874Q302.22186 34.175 302.59686 33.05Q302.97186 31.909374 302.97186 30.284374Q302.97186 28.034374 302.2375 26.83125Q301.5031 25.628124 300.4406 25.221874Q299.6906 24.925 298.0031 24.925L294.9875 24.925L294.9875 35.8625ZM312.8781 25.253124L312.8781 23.2375L314.64374 23.2375L314.64374 25.253124L312.8781 25.253124ZM312.8781 37.55L312.8781 27.175L314.64374 27.175L314.64374 37.55L312.8781 37.55ZM316.8625 37.55L316.8625 27.175L318.4406 27.175L318.4406 28.628124Q318.925 27.878124 319.7375 27.409374Q320.55 26.940624 321.58124 26.940624Q322.7375 26.940624 323.47186 27.425Q324.20624 27.89375 324.51874 28.753124Q325.7531 26.940624 327.72186 26.940624Q329.26874 26.940624 330.09686 27.8Q330.925 28.659374 330.925 30.425L330.925 37.55L329.175 37.55L329.175 31.01875Q329.175 29.95625 329.0031 29.503124Q328.83124 29.034374 328.3781 28.753124Q327.9406 28.471874 327.33124 28.471874Q326.2375 28.471874 325.5031 29.20625Q324.78436 29.925 324.78436 31.51875L324.78436 37.55L323.03436 37.55L323.03436 30.815624Q323.03436 29.64375 322.59686 29.065624Q322.175 28.471874 321.1906 28.471874Q320.45624 28.471874 319.8156 28.8625Q319.1906 29.253124 318.90936 30.003124Q318.6281 30.753124 318.6281 32.175L318.6281 37.55L316.8625 37.55ZM332.8625 41.51875L332.8625 27.175L334.47186 27.175L334.47186 28.51875Q335.03436 27.7375 335.7375 27.346874Q336.45624 26.940624 337.47186 26.940624Q338.8 26.940624 339.8156 27.628124Q340.83124 28.315624 341.34686 29.565624Q341.8781 30.8 341.8781 32.284374Q341.8781 33.878124 341.3 35.159374Q340.7375 36.425 339.64374 37.1125Q338.55 37.784374 337.34686 37.784374Q336.47186 37.784374 335.76874 37.409374Q335.08124 37.034374 334.6281 36.471874L334.6281 41.51875L332.8625 41.51875ZM334.45624 32.425Q334.45624 34.425 335.26874 35.378124Q336.08124 36.33125 337.2375 36.33125Q338.40936 36.33125 339.2375 35.346874Q340.08124 34.3625 340.08124 32.26875Q340.08124 30.3 339.2531 29.315624Q338.4406 28.315624 337.3156 28.315624Q336.1906 28.315624 335.3156 29.378124Q334.45624 30.425 334.45624 32.425ZM343.83124 37.55L343.83124 23.2375L345.58124 23.2375L345.58124 37.55L343.83124 37.55ZM354.97186 34.20625L356.78436 34.440624Q356.3625 36.01875 355.1906 36.909374Q354.03436 37.784374 352.22186 37.784374Q349.95624 37.784374 348.6125 36.39375Q347.28436 34.9875 347.28436 32.45625Q347.28436 29.83125 348.6281 28.39375Q349.97186 26.940624 352.1281 26.940624Q354.20624 26.940624 355.51874 28.3625Q356.84686 29.76875 356.84686 32.346874Q356.84686 32.503124 356.83124 32.815624L349.09686 32.815624Q349.1906 34.51875 350.0656 35.425Q350.9406 36.33125 352.2375 36.33125Q353.20624 36.33125 353.8781 35.83125Q354.5656 35.315624 354.97186 34.20625ZM349.1906 31.3625L354.9875 31.3625Q354.8781 30.065624 354.33124 29.409374Q353.4875 28.39375 352.14374 28.39375Q350.9406 28.39375 350.1125 29.20625Q349.28436 30.003124 349.1906 31.3625ZM358.8625 37.55L358.8625 27.175L360.4406 27.175L360.4406 28.628124Q360.925 27.878124 361.7375 27.409374Q362.55 26.940624 363.58124 26.940624Q364.7375 26.940624 365.47186 27.425Q366.20624 27.89375 366.51874 28.753124Q367.7531 26.940624 369.72186 26.940624Q371.26874 26.940624 372.09686 27.8Q372.925 28.659374 372.925 30.425L372.925 37.55L371.175 37.55L371.175 31.01875Q371.175 29.95625 371.0031 29.503124Q370.83124 29.034374 370.3781 28.753124Q369.9406 28.471874 369.33124 28.471874Q368.2375 28.471874 367.5031 29.20625Q366.78436 29.925 366.78436 31.51875L366.78436 37.55L365.03436 37.55L365.03436 30.815624Q365.03436 29.64375 364.59686 29.065624Q364.175 28.471874 363.1906 28.471874Q362.45624 28.471874 361.8156 28.8625Q361.1906 29.253124 360.90936 30.003124Q360.6281 30.753124 360.6281 32.175L360.6281 37.55L358.8625 37.55ZM381.97186 34.20625L383.78436 34.440624Q383.3625 36.01875 382.1906 36.909374Q381.03436 37.784374 379.22186 37.784374Q376.95624 37.784374 375.6125 36.39375Q374.28436 34.9875 374.28436 32.45625Q374.28436 29.83125 375.6281 28.39375Q376.97186 26.940624 379.1281 26.940624Q381.20624 26.940624 382.51874 28.3625Q383.84686 29.76875 383.84686 32.346874Q383.84686 32.503124 383.83124 32.815624L376.09686 32.815624Q376.1906 34.51875 377.0656 35.425Q377.9406 36.33125 379.2375 36.33125Q380.20624 36.33125 380.8781 35.83125Q381.5656 35.315624 381.97186 34.20625ZM376.1906 31.3625L381.9875 31.3625Q381.8781 30.065624 381.33124 29.409374Q380.4875 28.39375 379.14374 28.39375Q377.9406 28.39375 377.1125 29.20625Q376.28436 30.003124 376.1906 31.3625ZM385.8625 37.55L385.8625 27.175L387.45624 27.175L387.45624 28.659374Q388.59686 26.940624 390.7531 26.940624Q391.6906 26.940624 392.47186 27.284374Q393.26874 27.6125 393.65936 28.159374Q394.05 28.70625 394.20624 29.45625Q394.3 29.95625 394.3 31.175L394.3 37.55L392.53436 37.55L392.53436 31.2375Q392.53436 30.159374 392.33124 29.628124Q392.1281 29.096874 391.59686 28.784374Q391.08124 28.471874 390.3781 28.471874Q389.2531 28.471874 388.4406 29.190624Q387.6281 29.89375 387.6281 31.878124L387.6281 37.55L385.8625 37.55ZM399.70624 35.971874L399.95624 37.534374Q399.22186 37.690624 398.6281 37.690624Q397.675 37.690624 397.14374 37.39375Q396.6281 37.08125 396.40936 36.596874Q396.1906 36.096874 396.1906 34.51875L396.1906 28.55L394.90936 28.55L394.90936 27.175L396.1906 27.175L396.1906 24.6125L397.9406 23.55L397.9406 27.175L399.70624 27.175L399.70624 28.55L397.9406 28.55L397.9406 34.6125Q397.9406 35.3625 398.03436 35.58125Q398.1281 35.784374 398.33124 35.925Q398.55 36.05 398.9406 36.05Q399.22186 36.05 399.70624 35.971874ZM408.64374 36.26875Q407.65936 37.096874 406.7531 37.440624Q405.84686 37.784374 404.8156 37.784374Q403.1125 37.784374 402.1906 36.95625Q401.26874 36.1125 401.26874 34.815624Q401.26874 34.05 401.6125 33.425Q401.97186 32.8 402.53436 32.425Q403.09686 32.034374 403.8 31.83125Q404.3156 31.70625 405.3625 31.565624Q407.4875 31.315624 408.4875 30.971874Q408.5031 30.6125 408.5031 30.503124Q408.5031 29.440624 408.0031 28.9875Q407.33124 28.39375 406.0031 28.39375Q404.7531 28.39375 404.15936 28.83125Q403.58124 29.26875 403.3 30.378124L401.58124 30.14375Q401.8156 29.034374 402.34686 28.3625Q402.8781 27.675 403.89374 27.315624Q404.90936 26.940624 406.2531 26.940624Q407.58124 26.940624 408.40936 27.253124Q409.2375 27.565624 409.6281 28.05Q410.01874 28.51875 410.175 29.2375Q410.26874 29.690624 410.26874 30.8625L410.26874 33.20625Q410.26874 35.659374 410.3781 36.315624Q410.4875 36.95625 410.83124 37.55L408.9875 37.55Q408.72186 37.003124 408.64374 36.26875ZM408.4875 32.346874Q407.53436 32.7375 405.6125 33.003124Q404.53436 33.159374 404.08124 33.3625Q403.64374 33.55 403.39374 33.925Q403.14374 34.3 403.14374 34.76875Q403.14374 35.471874 403.675 35.940624Q404.20624 36.409374 405.2375 36.409374Q406.2531 36.409374 407.03436 35.971874Q407.83124 35.51875 408.20624 34.753124Q408.4875 34.14375 408.4875 32.9875L408.4875 32.346874ZM416.70624 35.971874L416.95624 37.534374Q416.22186 37.690624 415.6281 37.690624Q414.675 37.690624 414.14374 37.39375Q413.6281 37.08125 413.40936 36.596874Q413.1906 36.096874 413.1906 34.51875L413.1906 28.55L411.90936 28.55L411.90936 27.175L413.1906 27.175L413.1906 24.6125L414.9406 23.55L414.9406 27.175L416.70624 27.175L416.70624 28.55L414.9406 28.55L414.9406 34.6125Q414.9406 35.3625 415.03436 35.58125Q415.1281 35.784374 415.33124 35.925Q415.55 36.05 415.9406 36.05Q416.22186 36.05 416.70624 35.971874ZM418.8781 25.253124L418.8781 23.2375L420.64374 23.2375L420.64374 25.253124L418.8781 25.253124ZM418.8781 37.55L418.8781 27.175L420.64374 27.175L420.64374 37.55L418.8781 37.55ZM422.22186 32.3625Q422.22186 29.4875 423.8156 28.096874Q425.15936 26.940624 427.08124 26.940624Q429.22186 26.940624 430.5656 28.346874Q431.925 29.753124 431.925 32.221874Q431.925 34.221874 431.33124 35.378124Q430.7375 36.51875 429.58124 37.159374Q428.4406 37.784374 427.08124 37.784374Q424.89374 37.784374 423.55 36.39375Q422.22186 34.9875 422.22186 32.3625ZM424.01874 32.3625Q424.01874 34.3625 424.8781 35.346874Q425.7531 36.33125 427.08124 36.33125Q428.39374 36.33125 429.2531 35.346874Q430.1281 34.346874 430.1281 32.3Q430.1281 30.378124 429.2531 29.39375Q428.3781 28.39375 427.08124 28.39375Q425.7531 28.39375 424.8781 29.39375Q424.01874 30.378124 424.01874 32.3625ZM433.8625 37.55L433.8625 27.175L435.45624 27.175L435.45624 28.659374Q436.59686 26.940624 438.7531 26.940624Q439.6906 26.940624 440.47186 27.284374Q441.26874 27.6125 441.65936 28.159374Q442.05 28.70625 442.20624 29.45625Q442.3 29.95625 442.3 31.175L442.3 37.55L440.53436 37.55L440.53436 31.2375Q440.53436 30.159374 440.33124 29.628124Q440.1281 29.096874 439.59686 28.784374Q439.08124 28.471874 438.3781 28.471874Q437.2531 28.471874 436.4406 29.190624Q435.6281 29.89375 435.6281 31.878124L435.6281 37.55L433.8625 37.55Z" fill-rule="nonzero"/></svg>