<svg version="1.1" viewBox="0.0 0.0 600.0 371.0" fill="none" stroke="none" stroke-linecap="square" stroke-miterlimit="10" width="600" height="371" xmlns:xlink="http://www.w3.org/1999/xlink" xmlns="http://www.w3.org/2000/svg"><path fill="#ffffff" d="M0 0L600.0 0L600.0 371.0L0 371.0L0 0Z" fill-rule="nonzero"/><path stroke="#333333" stroke-width="1.0" stroke-linecap="butt" d="M45.5 300.5L581.5 300.5" fill-rule="nonzero"/><path stroke="#cccccc" stroke-width="1.0" stroke-linecap="butt" d="M45.5 247.5L581.5 247.5" fill-rule="nonzero"/><path stroke="#cccccc" stroke-width="1.0" stroke-linecap="butt" d="M45.5 194.5L581.5 194.5" fill-rule="nonzero"/><path stroke="#cccccc" stroke-width="1.0" stroke-linecap="butt" d="M45.5 141.5L581.5 141.5" fill-rule="nonzero"/><path stroke="#cccccc" stroke-width="1.0" stroke-linecap="butt" d="M45.5 88.5L581.5 88.5" fill-rule="nonzero"/><clipPath id="id_0"><path d="M45.55 88.28333L581.45 88.28333L581.45 300.45L45.55 300.45L45.55 88.28333Z" clip-rule="nonzero"/></clipPath><path stroke="#000000" stroke-width="2.0" stroke-linecap="butt" stroke-opacity="0.0" clip-path="url(#id_0)" d="M101.0 300.0L81.0 300.0L81.0 156.0C81.0 154.89543 81.89543 154.0 83.0 154.0L99.0 154.0C100.10457 154.0 101.0 154.89543 101.0 156.0Z" fill-rule="nonzero"/><path fill="#4285f4" clip-path="url(#id_0)" d="M101.0 300.0L81.0 300.0L81.0 156.0C81.0 154.89543 81.89543 154.0 83.0 154.0L99.0 154.0C100.10457 154.0 101.0 154.89543 101.0 156.0Z" fill-rule="nonzero"/><path stroke="#000000" stroke-width="2.0" stroke-linecap="butt" stroke-opacity="0.0" clip-path="url(#id_0)" d="M201.0 300.0L181.0 300.0L181.0 135.0C181.0 133.89543 181.89543 133.0 183.0 133.0L199.0 133.0C200.10457 133.0 201.0 133.89543 201.0 135.0Z" fill-rule="nonzero"/><path fill="#4285f4" clip-path="url(#id_0)" d="M201.0 300.0L181.0 300.0L181.0 135.0C181.0 133.89543 181.89543 133.0 183.0 133.0L199.0 133.0C200.10457 133.0 201.0 133.89543 201.0 135.0Z" fill-rule="nonzero"/><path stroke="#000000" stroke-width="2.0" stroke-linecap="butt" stroke-opacity="0.0" clip-path="url(#id_0)" d="M302.0 300.0L282.0 300.0L282.0 167.0C282.0 165.89543 282.89542 165.0 284.0 165.0L300.0 165.0C301.10458 165.0 302.0 165.89543 302.0 167.0Z" fill-rule="nonzero"/><path fill="#4285f4" clip-path="url(#id_0)" d="M302.0 300.0L282.0 300.0L282.0 167.0C282.0 165.89543 282.89542 165.0 284.0 165.0L300.0 165.0C301.10458 165.0 302.0 165.89543 302.0 167.0Z" fill-rule="nonzero"/><path stroke="#000000" stroke-width="2.0" stroke-linecap="butt" stroke-opacity="0.0" clip-path="url(#id_0)" d="M402.0 300.0L382.0 300.0L382.0 166.0C382.0 164.89543 382.89542 164.0 384.0 164.0L400.0 164.0C401.10458 164.0 402.0 164.89543 402.0 166.0Z" fill-rule="nonzero"/><path fill="#4285f4" clip-path="url(#id_0)" d="M402.0 300.0L382.0 300.0L382.0 166.0C382.0 164.89543 382.89542 164.0 384.0 164.0L400.0 164.0C401.10458 164.0 402.0 164.89543 402.0 166.0Z" fill-rule="nonzero"/><path stroke="#000000" stroke-width="2.0" stroke-linecap="butt" stroke-opacity="0.0" clip-path="url(#id_0)" d="M502.0 300.0L482.0 300.0L482.0 149.0C482.0 147.89543 482.89542 147.0 484.0 147.0L500.0 147.0C501.10458 147.0 502.0 147.89543 502.0 149.0Z" fill-rule="nonzero"/><path fill="#4285f4" clip-path="url(#id_0)" d="M502.0 300.0L482.0 300.0L482.0 149.0C482.0 147.89543 482.89542 147.0 484.0 147.0L500.0 147.0C501.10458 147.0 502.0 147.89543 502.0 149.0Z" fill-rule="nonzero"/><path stroke="#000000" stroke-width="2.0" stroke-linecap="butt" stroke-opacity="0.0" clip-path="url(#id_0)" d="M123.0 300.0L103.0 300.0L103.0 126.0C103.0 124.89543 103.89543 124.0 105.0 124.0L121.0 124.0C122.10457 124.0 123.0 124.89543 123.0 126.0Z" fill-rule="nonzero"/><path fill="#ea4335" clip-path="url(#id_0)" d="M123.0 300.0L103.0 300.0L103.0 126.0C103.0 124.89543 103.89543 124.0 105.0 124.0L121.0 124.0C122.10457 124.0 123.0 124.89543 123.0 126.0Z" fill-rule="nonzero"/><path stroke="#000000" stroke-width="2.0" stroke-linecap="butt" stroke-opacity="0.0" clip-path="url(#id_0)" d="M223.0 300.0L203.0 300.0L203.0 149.0C203.0 147.89543 203.89543 147.0 205.0 147.0L221.0 147.0C222.10457 147.0 223.0 147.89543 223.0 149.0Z" fill-rule="nonzero"/><path fill="#ea4335" clip-path="url(#id_0)" d="M223.0 300.0L203.0 300.0L203.0 149.0C203.0 147.89543 203.89543 147.0 205.0 147.0L221.0 147.0C222.10457 147.0 223.0 147.89543 223.0 149.0Z" fill-rule="nonzero"/><path stroke="#000000" stroke-width="2.0" stroke-linecap="butt" stroke-opacity="0.0" clip-path="url(#id_0)" d="M324.0 300.0L304.0 300.0L304.0 202.0C304.0 200.89543 304.89542 200.0 306.0 200.0L322.0 200.0C323.10458 200.0 324.0 200.89543 324.0 202.0Z" fill-rule="nonzero"/><path fill="#ea4335" clip-path="url(#id_0)" d="M324.0 300.0L304.0 300.0L304.0 202.0C304.0 200.89543 304.89542 200.0 306.0 200.0L322.0 200.0C323.10458 200.0 324.0 200.89543 324.0 202.0Z" fill-rule="nonzero"/><path stroke="#000000" stroke-width="2.0" stroke-linecap="butt" stroke-opacity="0.0" clip-path="url(#id_0)" d="M424.0 300.0L404.0 300.0L404.0 146.0C404.0 144.89543 404.89542 144.0 406.0 144.0L422.0 144.0C423.10458 144.0 424.0 144.89543 424.0 146.0Z" fill-rule="nonzero"/><path fill="#ea4335" clip-path="url(#id_0)" d="M424.0 300.0L404.0 300.0L404.0 146.0C404.0 144.89543 404.89542 144.0 406.0 144.0L422.0 144.0C423.10458 144.0 424.0 144.89543 424.0 146.0Z" fill-rule="nonzero"/><path stroke="#000000" stroke-width="2.0" stroke-linecap="butt" stroke-opacity="0.0" clip-path="url(#id_0)" d="M524.0 300.0L504.0 300.0L504.0 168.0C504.0 166.89543 504.89542 166.0 506.0 166.0L522.0 166.0C523.10455 166.0 524.0 166.89543 524.0 168.0Z" fill-rule="nonzero"/><path fill="#ea4335" clip-path="url(#id_0)" d="M524.0 300.0L504.0 300.0L504.0 168.0C504.0 166.89543 504.89542 166.0 506.0 166.0L522.0 166.0C523.10455 166.0 524.0 166.89543 524.0 168.0Z" fill-rule="nonzero"/><path stroke="#000000" stroke-width="2.0" stroke-linecap="butt" stroke-opacity="0.0" clip-path="url(#id_0)" d="M145.0 300.0L125.0 300.0L125.0 154.0C125.0 152.89543 125.89543 152.0 127.0 152.0L143.0 152.0C144.10457 152.0 145.0 152.89543 145.0 154.0Z" fill-rule="nonzero"/><path fill="#fbbc04" clip-path="url(#id_0)" d="M145.0 300.0L125.0 300.0L125.0 154.0C125.0 152.89543 125.89543 152.0 127.0 152.0L143.0 152.0C144.10457 152.0 145.0 152.89543 145.0 154.0Z" fill-rule="nonzero"/><path stroke="#000000" stroke-width="2.0" stroke-linecap="butt" stroke-opacity="0.0" clip-path="url(#id_0)" d="M245.0 300.0L225.0 300.0L225.0 150.0C225.0 148.89543 225.89543 148.0 227.0 148.0L243.0 148.0C244.10457 148.0 245.0 148.89543 245.0 150.0Z" fill-rule="nonzero"/><path fill="#fbbc04" clip-path="url(#id_0)" d="M245.0 300.0L225.0 300.0L225.0 150.0C225.0 148.89543 225.89543 148.0 227.0 148.0L243.0 148.0C244.10457 148.0 245.0 148.89543 245.0 150.0Z" fill-rule="nonzero"/><path stroke="#000000" stroke-width="2.0" stroke-linecap="butt" stroke-opacity="0.0" clip-path="url(#id_0)" d="M346.0 300.0L326.0 300.0L326.0 157.0C326.0 155.89543 326.89542 155.0 328.0 155.0L344.0 155.0C345.10458 155.0 346.0 155.89543 346.0 157.0Z" fill-rule="nonzero"/><path fill="#fbbc04" clip-path="url(#id_0)" d="M346.0 300.0L326.0 300.0L326.0 157.0C326.0 155.89543 326.89542 155.0 328.0 155.0L344.0 155.0C345.10458 155.0 346.0 155.89543 346.0 157.0Z" fill-rule="nonzero"/><path stroke="#000000" stroke-width="2.0" stroke-linecap="butt" stroke-opacity="0.0" clip-path="url(#id_0)" d="M446.0 300.0L426.0 300.0L426.0 192.0C426.0 190.89543 426.89542 190.0 428.0 190.0L444.0 190.0C445.10458 190.0 446.0 190.89543 446.0 192.0Z" fill-rule="nonzero"/><path fill="#fbbc04" clip-path="url(#id_0)" d="M446.0 300.0L426.0 300.0L426.0 192.0C426.0 190.89543 426.89542 190.0 428.0 190.0L444.0 190.0C445.10458 190.0 446.0 190.89543 446.0 192.0Z" fill-rule="nonzero"/><path stroke="#000000" stroke-width="2.0" stroke-linecap="butt" stroke-opacity="0.0" clip-path="url(#id_0)" d="M546.0 300.0L526.0 300.0L526.0 133.0C526.0 131.89543 526.89545 131.0 528.0 131.0L544.0 131.0C545.10455 131.0 546.0 131.89543 546.0 133.0Z" fill-rule="nonzero"/><path fill="#fbbc04" clip-path="url(#id_0)" d="M546.0 300.0L526.0 300.0L526.0 133.0C526.0 131.89543 526.89545 131.0 528.0 131.0L544.0 131.0C545.10455 131.0 546.0 131.89543 546.0 133.0Z" fill-rule="nonzero"/><path fill="#000000" d="M290.59375 348.5125L290.75 349.4344Q290.29688 349.52814 289.95312 349.52814Q289.375 349.52814 289.0625 349.35626Q288.75 349.16876 288.60938 348.8719Q288.48438 348.575 288.48438 347.6219L288.48438 344.04376L287.71875 344.04376L287.71875 343.23126L288.48438 343.23126L288.48438 341.6844L289.53125 341.0594L289.53125 343.23126L290.59375 343.23126L290.59375 344.04376L289.53125 344.04376L289.53125 347.6844Q289.53125 348.1375 289.57812 348.2625Q289.64062 348.3875 289.76562 348.46564Q289.89062 348.54376 290.125 348.54376Q290.3125 348.54376 290.59375 348.5125ZM295.35938 348.6844Q294.76562 349.1844 294.21875 349.3875Q293.6875 349.59064 293.0625 349.59064Q292.03125 349.59064 291.48438 349.09064Q290.9375 348.59064 290.9375 347.8094Q290.9375 347.35626 291.14062 346.98126Q291.34375 346.59064 291.6875 346.3719Q292.03125 346.1375 292.45312 346.02814Q292.75 345.9344 293.39062 345.85626Q294.65625 345.71564 295.26562 345.4969Q295.26562 345.27814 295.26562 345.23126Q295.26562 344.575 294.96875 344.3094Q294.5625 343.96564 293.76562 343.96564Q293.03125 343.96564 292.67188 344.23126Q292.3125 344.48126 292.14062 345.1375L291.10938 344.9969Q291.25 344.34064 291.57812 343.9344Q291.90625 343.52814 292.51562 343.3094Q293.125 343.09064 293.92188 343.09064Q294.71875 343.09064 295.21875 343.27814Q295.71875 343.46564 295.95312 343.7469Q296.1875 344.02814 296.28125 344.46564Q296.32812 344.73126 296.32812 345.4344L296.32812 346.84064Q296.32812 348.3094 296.39062 348.7Q296.46875 349.09064 296.67188 349.45L295.5625 349.45Q295.40625 349.1219 295.35938 348.6844ZM295.26562 346.325Q294.6875 346.5594 293.54688 346.73126Q292.89062 346.825 292.625 346.95Q292.35938 347.0594 292.20312 347.27814Q292.0625 347.4969 292.0625 347.77814Q292.0625 348.2 292.375 348.48126Q292.70312 348.7625 293.3125 348.7625Q293.92188 348.7625 294.39062 348.4969Q294.875 348.23126 295.09375 347.7625Q295.26562 347.40314 295.26562 346.71564L295.26562 346.325ZM299.26562 349.45L298.28125 349.45L298.28125 340.85626L299.34375 340.85626L299.34375 343.91876Q300.01562 343.09064 301.04688 343.09064Q301.625 343.09064 302.125 343.325Q302.64062 343.54376 302.96875 343.96564Q303.3125 344.3875 303.5 344.98126Q303.6875 345.575 303.6875 346.2469Q303.6875 347.84064 302.89062 348.71564Q302.09375 349.59064 301.0 349.59064Q299.89062 349.59064 299.26562 348.66876L299.26562 349.45ZM299.25 346.29376Q299.25 347.40314 299.5625 347.90314Q300.0625 348.71564 300.90625 348.71564Q301.59375 348.71564 302.09375 348.1219Q302.60938 347.52814 302.60938 346.325Q302.60938 345.10626 302.125 344.52814Q301.64062 343.95 300.95312 343.95Q300.26562 343.95 299.75 344.5594Q299.25 345.15314 299.25 346.29376ZM305.26562 349.45L305.26562 340.85626L306.32812 340.85626L306.32812 349.45L305.26562 349.45ZM312.54688 347.45L313.64062 347.575Q313.39062 348.52814 312.6875 349.0594Q311.98438 349.59064 310.90625 349.59064Q309.54688 349.59064 308.73438 348.7469Q307.9375 347.90314 307.9375 346.3875Q307.9375 344.825 308.75 343.96564Q309.5625 343.09064 310.84375 343.09064Q312.09375 343.09064 312.875 343.9344Q313.67188 344.77814 313.67188 346.325Q313.67188 346.41876 313.67188 346.60626L309.03125 346.60626Q309.09375 347.6375 309.60938 348.1844Q310.125 348.71564 310.90625 348.71564Q311.48438 348.71564 311.89062 348.41876Q312.3125 348.10626 312.54688 347.45ZM309.09375 345.7469L312.5625 345.7469Q312.5 344.95 312.17188 344.5594Q311.65625 343.95 310.85938 343.95Q310.125 343.95 309.625 344.4344Q309.14062 344.91876 309.09375 345.7469ZM317.875 347.59064L318.90625 347.4344Q319.0 348.0594 319.39062 348.3875Q319.79688 348.71564 320.53125 348.71564Q321.25 348.71564 321.59375 348.4344Q321.95312 348.1375 321.95312 347.73126Q321.95312 347.3719 321.64062 347.16876Q321.42188 347.02814 320.5625 346.8094Q319.40625 346.5125 318.95312 346.3094Q318.51562 346.09064 318.28125 345.71564Q318.04688 345.34064 318.04688 344.8719Q318.04688 344.46564 318.23438 344.10626Q318.42188 343.7469 318.75 343.5125Q319.0 343.34064 319.42188 343.21564Q319.84375 343.09064 320.34375 343.09064Q321.0625 343.09064 321.60938 343.3094Q322.17188 343.5125 322.4375 343.8719Q322.70312 344.23126 322.79688 344.825L321.76562 344.96564Q321.70312 344.4969 321.35938 344.23126Q321.03125 343.95 320.40625 343.95Q319.6875 343.95 319.375 344.2Q319.0625 344.4344 319.0625 344.7625Q319.0625 344.96564 319.1875 345.1219Q319.32812 345.29376 319.59375 345.40314Q319.75 345.46564 320.53125 345.66876Q321.65625 345.98126 322.09375 346.16876Q322.53125 346.35626 322.78125 346.71564Q323.03125 347.075 323.03125 347.6219Q323.03125 348.15314 322.71875 348.6219Q322.42188 349.075 321.84375 349.34064Q321.26562 349.59064 320.53125 349.59064Q319.3125 349.59064 318.67188 349.09064Q318.04688 348.575 317.875 347.59064ZM325.29688 342.075L325.29688 340.85626L326.35938 340.85626L326.35938 342.075L325.29688 342.075ZM325.29688 349.45L325.29688 343.23126L326.35938 343.23126L326.35938 349.45L325.29688 349.45ZM327.73438 349.45L327.73438 348.59064L331.70312 344.04376Q331.01562 344.075 330.5 344.075L327.96875 344.075L327.96875 343.23126L333.0625 343.23126L333.0625 343.91876L329.6875 347.8719L329.03125 348.59064Q329.75 348.54376 330.35938 348.54376L333.25 348.54376L333.25 349.45L327.73438 349.45ZM337.54688 347.45L338.64062 347.575Q338.39062 348.52814 337.6875 349.0594Q336.98438 349.59064 335.90625 349.59064Q334.54688 349.59064 333.73438 348.7469Q332.9375 347.90314 332.9375 346.3875Q332.9375 344.825 333.75 343.96564Q334.5625 343.09064 335.84375 343.09064Q337.09375 343.09064 337.875 343.9344Q338.67188 344.77814 338.67188 346.325Q338.67188 346.41876 338.67188 346.60626L334.03125 346.60626Q334.09375 347.6375 334.60938 348.1844Q335.125 348.71564 335.90625 348.71564Q336.48438 348.71564 336.89062 348.41876Q337.3125 348.10626 337.54688 347.45ZM334.09375 345.7469L337.5625 345.7469Q337.5 344.95 337.17188 344.5594Q336.65625 343.95 335.85938 343.95Q335.125 343.95 334.625 344.4344Q334.14062 344.91876 334.09375 345.7469Z" fill-rule="nonzero"/><path fill="#000000" d="M23.05 300.21564Q23.05 298.6844 23.3625 297.7625Q23.675 296.825 24.284374 296.325Q24.909374 295.825 25.846874 295.825Q26.534374 295.825 27.05 296.10626Q27.58125 296.3875 27.925 296.91876Q28.26875 297.4344 28.45625 298.1844Q28.64375 298.9344 28.64375 300.21564Q28.64375 301.73126 28.33125 302.65314Q28.034374 303.575 27.409374 304.09064Q26.8 304.59064 25.846874 304.59064Q24.6125 304.59064 23.89375 303.7Q23.05 302.6375 23.05 300.21564ZM24.128124 300.21564Q24.128124 302.325 24.628124 303.02814Q25.128124 303.73126 25.846874 303.73126Q26.58125 303.73126 27.065624 303.02814Q27.565624 302.325 27.565624 300.21564Q27.565624 298.09064 27.065624 297.40314Q26.58125 296.7 25.83125 296.7Q25.1125 296.7 24.675 297.3094Q24.128124 298.09064 24.128124 300.21564ZM30.64375 304.45L30.64375 303.2469L31.846874 303.2469L31.846874 304.45L30.64375 304.45ZM33.05 300.21564Q33.05 298.6844 33.3625 297.7625Q33.675 296.825 34.284374 296.325Q34.909374 295.825 35.846874 295.825Q36.534374 295.825 37.05 296.10626Q37.58125 296.3875 37.925 296.91876Q38.26875 297.4344 38.45625 298.1844Q38.64375 298.9344 38.64375 300.21564Q38.64375 301.73126 38.33125 302.65314Q38.034374 303.575 37.409374 304.09064Q36.8 304.59064 35.846874 304.59064Q34.6125 304.59064 33.89375 303.7Q33.05 302.6375 33.05 300.21564ZM34.128124 300.21564Q34.128124 302.325 34.628124 303.02814Q35.128124 303.73126 35.846874 303.73126Q36.58125 303.73126 37.065624 303.02814Q37.565624 302.325 37.565624 300.21564Q37.565624 298.09064 37.065624 297.40314Q36.58125 296.7 35.83125 296.7Q35.1125 296.7 34.675 297.3094Q34.128124 298.09064 34.128124 300.21564Z" fill-rule="nonzero"/><path fill="#000000" d="M23.05 247.17397Q23.05 245.64272 23.3625 244.72084Q23.675 243.78334 24.284374 243.28334Q24.909374 242.78334 25.846874 242.78334Q26.534374 242.78334 27.05 243.06459Q27.58125 243.34584 27.925 243.87709Q28.26875 244.39272 28.45625 245.14272Q28.64375 245.89272 28.64375 247.17397Q28.64375 248.68959 28.33125 249.61147Q28.034374 250.53334 27.409374 251.04897Q26.8 251.54897 25.846874 251.54897Q24.6125 251.54897 23.89375 250.65834Q23.05 249.59584 23.05 247.17397ZM24.128124 247.17397Q24.128124 249.28334 24.628124 249.98647Q25.128124 250.68959 25.846874 250.68959Q26.58125 250.68959 27.065624 249.98647Q27.565624 249.28334 27.565624 247.17397Q27.565624 245.04897 27.065624 244.36147Q26.58125 243.65834 25.83125 243.65834Q25.1125 243.65834 24.675 244.26772Q24.128124 245.04897 24.128124 247.17397ZM30.64375 251.40834L30.64375 250.20522L31.846874 250.20522L31.846874 251.40834L30.64375 251.40834ZM33.05 249.15834L34.159374 249.06459Q34.284374 249.87709 34.721874 250.28334Q35.175 250.68959 35.815624 250.68959Q36.565624 250.68959 37.096874 250.11147Q37.628124 249.53334 37.628124 248.59584Q37.628124 247.68959 37.1125 247.17397Q36.6125 246.64272 35.784374 246.64272Q35.284374 246.64272 34.8625 246.87709Q34.45625 247.11147 34.221874 247.47084L33.2375 247.34584L34.065624 242.93959L38.346874 242.93959L38.346874 243.93959L34.909374 243.93959L34.45625 246.25209Q35.221874 245.70522 36.065624 245.70522Q37.190624 245.70522 37.95625 246.48647Q38.7375 247.26772 38.7375 248.50209Q38.7375 249.65834 38.065624 250.51772Q37.2375 251.54897 35.815624 251.54897Q34.64375 251.54897 33.89375 250.89272Q33.159374 250.23647 33.05 249.15834Z" fill-rule="nonzero"/><path fill="#000000" d="M27.01875 198.36667L25.971874 198.36667L25.971874 191.64792Q25.58125 192.0073 24.95625 192.3823Q24.346874 192.74167 23.8625 192.91354L23.8625 191.89792Q24.7375 191.47604 25.39375 190.89792Q26.065624 190.30417 26.346874 189.74167L27.01875 189.74167L27.01875 198.36667ZM30.64375 198.36667L30.64375 197.16354L31.846874 197.16354L31.846874 198.36667L30.64375 198.36667ZM33.05 194.1323Q33.05 192.60104 33.3625 191.67917Q33.675 190.74167 34.284374 190.24167Q34.909374 189.74167 35.846874 189.74167Q36.534374 189.74167 37.05 190.02292Q37.58125 190.30417 37.925 190.83542Q38.26875 191.35104 38.45625 192.10104Q38.64375 192.85104 38.64375 194.1323Q38.64375 195.64792 38.33125 196.5698Q38.034374 197.49167 37.409374 198.0073Q36.8 198.5073 35.846874 198.5073Q34.6125 198.5073 33.89375 197.61667Q33.05 196.55417 33.05 194.1323ZM34.128124 194.1323Q34.128124 196.24167 34.628124 196.9448Q35.128124 197.64792 35.846874 197.64792Q36.58125 197.64792 37.065624 196.9448Q37.565624 196.24167 37.565624 194.1323Q37.565624 192.0073 37.065624 191.3198Q36.58125 190.61667 35.83125 190.61667Q35.1125 190.61667 34.675 191.22604Q34.128124 192.0073 34.128124 194.1323Z" fill-rule="nonzero"/><path fill="#000000" d="M27.01875 145.325L25.971874 145.325L25.971874 138.60625Q25.58125 138.96562 24.95625 139.34062Q24.346874 139.7 23.8625 139.87187L23.8625 138.85625Q24.7375 138.43437 25.39375 137.85625Q26.065624 137.2625 26.346874 136.7L27.01875 136.7L27.01875 145.325ZM30.64375 145.325L30.64375 144.12187L31.846874 144.12187L31.846874 145.325L30.64375 145.325ZM33.05 143.075L34.159374 142.98125Q34.284374 143.79375 34.721874 144.2Q35.175 144.60625 35.815624 144.60625Q36.565624 144.60625 37.096874 144.02812Q37.628124 143.45 37.628124 142.5125Q37.628124 141.60625 37.1125 141.09062Q36.6125 140.55937 35.784374 140.55937Q35.284374 140.55937 34.8625 140.79375Q34.45625 141.02812 34.221874 141.3875L33.2375 141.2625L34.065624 136.85625L38.346874 136.85625L38.346874 137.85625L34.909374 137.85625L34.45625 140.16875Q35.221874 139.62187 36.065624 139.62187Q37.190624 139.62187 37.95625 140.40312Q38.7375 141.18437 38.7375 142.41875Q38.7375 143.575 38.065624 144.43437Q37.2375 145.46562 35.815624 145.46562Q34.64375 145.46562 33.89375 144.80937Q33.159374 144.15312 33.05 143.075Z" fill-rule="nonzero"/><path fill="#000000" d="M28.596874 91.26771L28.596874 92.28333L22.909374 92.28333Q22.909374 91.90833 23.034374 91.54896Q23.253124 90.97083 23.721874 90.40833Q24.20625 89.84583 25.1125 89.11146Q26.51875 87.95521 27.003124 87.28333Q27.503124 86.61146 27.503124 86.01771Q27.503124 85.39271 27.05 84.97083Q26.596874 84.53333 25.878124 84.53333Q25.1125 84.53333 24.659374 84.98646Q24.20625 85.43958 24.190624 86.25208L23.1125 86.14271Q23.221874 84.92396 23.940624 84.29896Q24.675 83.65833 25.909374 83.65833Q27.14375 83.65833 27.8625 84.34583Q28.58125 85.03333 28.58125 86.04896Q28.58125 86.56458 28.3625 87.06458Q28.159374 87.54896 27.659374 88.11146Q27.175 88.65833 26.05 89.61146Q25.096874 90.40833 24.815624 90.70521Q24.55 90.98646 24.378124 91.26771L28.596874 91.26771ZM30.64375 92.28333L30.64375 91.08021L31.846874 91.08021L31.846874 92.28333L30.64375 92.28333ZM33.05 88.04896Q33.05 86.51771 33.3625 85.59583Q33.675 84.65833 34.284374 84.15833Q34.909374 83.65833 35.846874 83.65833Q36.534374 83.65833 37.05 83.93958Q37.58125 84.22083 37.925 84.75208Q38.26875 85.26771 38.45625 86.01771Q38.64375 86.76771 38.64375 88.04896Q38.64375 89.56458 38.33125 90.48646Q38.034374 91.40833 37.409374 91.92396Q36.8 92.42396 35.846874 92.42396Q34.6125 92.42396 33.89375 91.53333Q33.05 90.47083 33.05 88.04896ZM34.128124 88.04896Q34.128124 90.15833 34.628124 90.86146Q35.128124 91.56458 35.846874 91.56458Q36.58125 91.56458 37.065624 90.86146Q37.565624 90.15833 37.565624 88.04896Q37.565624 85.92396 37.065624 85.23646Q36.58125 84.53333 35.83125 84.53333Q35.1125 84.53333 34.675 85.14271Q34.128124 85.92396 34.128124 88.04896Z" fill-rule="nonzero"/><path fill="#000000" d="M93.1323 317.45L92.08543 317.45L92.08543 310.73126Q91.6948 311.09064 91.0698 311.46564Q90.46043 311.825 89.97605 311.9969L89.97605 310.98126Q90.85105 310.5594 91.5073 309.98126Q92.17918 309.3875 92.46043 308.825L93.1323 308.825L93.1323 317.45ZM96.16355 313.21564Q96.16355 311.6844 96.47605 310.7625Q96.78855 309.825 97.39793 309.325Q98.02293 308.825 98.96043 308.825Q99.64793 308.825 100.16355 309.10626Q100.6948 309.3875 101.03855 309.91876Q101.3823 310.4344 101.5698 311.1844Q101.7573 311.9344 101.7573 313.21564Q101.7573 314.73126 101.4448 315.65314Q101.14793 316.575 100.52293 317.09064Q99.91355 317.59064 98.96043 317.59064Q97.72605 317.59064 97.0073 316.7Q96.16355 315.6375 96.16355 313.21564ZM97.24168 313.21564Q97.24168 315.325 97.74168 316.02814Q98.24168 316.73126 98.96043 316.73126Q99.6948 316.73126 100.17918 316.02814Q100.67918 315.325 100.67918 313.21564Q100.67918 311.09064 100.17918 310.40314Q99.6948 309.7 98.9448 309.7Q98.22605 309.7 97.78855 310.3094Q97.24168 311.09064 97.24168 313.21564ZM103.16355 313.21564Q103.16355 311.6844 103.47605 310.7625Q103.78855 309.825 104.39793 309.325Q105.02293 308.825 105.96043 308.825Q106.64793 308.825 107.16355 309.10626Q107.6948 309.3875 108.03855 309.91876Q108.3823 310.4344 108.5698 311.1844Q108.7573 311.9344 108.7573 313.21564Q108.7573 314.73126 108.4448 315.65314Q108.14793 316.575 107.52293 317.09064Q106.91355 317.59064 105.96043 317.59064Q104.72605 317.59064 104.0073 316.7Q103.16355 315.6375 103.16355 313.21564ZM104.24168 313.21564Q104.24168 315.325 104.74168 316.02814Q105.24168 316.73126 105.96043 316.73126Q106.6948 316.73126 107.17918 316.02814Q107.67918 315.325 107.67918 313.21564Q107.67918 311.09064 107.17918 310.40314Q106.6948 309.7 105.9448 309.7Q105.22605 309.7 104.78855 310.3094Q104.24168 311.09064 104.24168 313.21564ZM110.16355 313.21564Q110.16355 311.6844 110.47605 310.7625Q110.78855 309.825 111.39793 309.325Q112.02293 308.825 112.96043 308.825Q113.64793 308.825 114.16355 309.10626Q114.6948 309.3875 115.03855 309.91876Q115.3823 310.4344 115.5698 311.1844Q115.7573 311.9344 115.7573 313.21564Q115.7573 314.73126 115.4448 315.65314Q115.14793 316.575 114.52293 317.09064Q113.91355 317.59064 112.96043 317.59064Q111.72605 317.59064 111.0073 316.7Q110.16355 315.6375 110.16355 313.21564ZM111.24168 313.21564Q111.24168 315.325 111.74168 316.02814Q112.24168 316.73126 112.96043 316.73126Q113.6948 316.73126 114.17918 316.02814Q114.67918 315.325 114.67918 313.21564Q114.67918 311.09064 114.17918 310.40314Q113.6948 309.7 112.9448 309.7Q112.22605 309.7 111.78855 310.3094Q111.24168 311.09064 111.24168 313.21564ZM117.16355 313.21564Q117.16355 311.6844 117.47605 310.7625Q117.78855 309.825 118.39793 309.325Q119.02293 308.825 119.96043 308.825Q120.64793 308.825 121.16355 309.10626Q121.6948 309.3875 122.03855 309.91876Q122.3823 310.4344 122.5698 311.1844Q122.7573 311.9344 122.7573 313.21564Q122.7573 314.73126 122.4448 315.65314Q122.14793 316.575 121.52293 317.09064Q120.91355 317.59064 119.96043 317.59064Q118.72605 317.59064 118.0073 316.7Q117.16355 315.6375 117.16355 313.21564ZM118.24168 313.21564Q118.24168 315.325 118.74168 316.02814Q119.24168 316.73126 119.96043 316.73126Q120.6948 316.73126 121.17918 316.02814Q121.67918 315.325 121.67918 313.21564Q121.67918 311.09064 121.17918 310.40314Q120.6948 309.7 119.9448 309.7Q119.22605 309.7 118.78855 310.3094Q118.24168 311.09064 118.24168 313.21564ZM124.16355 313.21564Q124.16355 311.6844 124.47605 310.7625Q124.78855 309.825 125.39793 309.325Q126.02293 308.825 126.96043 308.825Q127.64793 308.825 128.16354 309.10626Q128.6948 309.3875 129.03854 309.91876Q129.3823 310.4344 129.5698 311.1844Q129.7573 311.9344 129.7573 313.21564Q129.7573 314.73126 129.4448 315.65314Q129.14792 316.575 128.52292 317.09064Q127.91355 317.59064 126.96043 317.59064Q125.72605 317.59064 125.0073 316.7Q124.16355 315.6375 124.16355 313.21564ZM125.24168 313.21564Q125.24168 315.325 125.74168 316.02814Q126.24168 316.73126 126.96043 316.73126Q127.6948 316.73126 128.17917 316.02814Q128.67917 315.325 128.67917 313.21564Q128.67917 311.09064 128.17917 310.40314Q127.6948 309.7 126.9448 309.7Q126.22605 309.7 125.78855 310.3094Q125.24168 311.09064 125.24168 313.21564ZM131.16354 313.21564Q131.16354 311.6844 131.47604 310.7625Q131.78854 309.825 132.39792 309.325Q133.02292 308.825 133.96042 308.825Q134.64792 308.825 135.16354 309.10626Q135.6948 309.3875 136.03854 309.91876Q136.3823 310.4344 136.5698 311.1844Q136.7573 311.9344 136.7573 313.21564Q136.7573 314.73126 136.4448 315.65314Q136.14792 316.575 135.52292 317.09064Q134.91354 317.59064 133.96042 317.59064Q132.72604 317.59064 132.0073 316.7Q131.16354 315.6375 131.16354 313.21564ZM132.24167 313.21564Q132.24167 315.325 132.74167 316.02814Q133.24167 316.73126 133.96042 316.73126Q134.6948 316.73126 135.17917 316.02814Q135.67917 315.325 135.67917 313.21564Q135.67917 311.09064 135.17917 310.40314Q134.6948 309.7 133.9448 309.7Q133.22604 309.7 132.78854 310.3094Q132.24167 311.09064 132.24167 313.21564Z" fill-rule="nonzero"/><path fill="#000000" d="M194.87865 316.4344L194.87865 317.45L189.19115 317.45Q189.19115 317.075 189.31615 316.71564Q189.5349 316.1375 190.00365 315.575Q190.48802 315.0125 191.39427 314.27814Q192.80052 313.1219 193.2849 312.45Q193.7849 311.77814 193.7849 311.1844Q193.7849 310.5594 193.33177 310.1375Q192.87865 309.7 192.1599 309.7Q191.39427 309.7 190.94115 310.15314Q190.48802 310.60626 190.4724 311.41876L189.39427 311.3094Q189.50365 310.09064 190.2224 309.46564Q190.95677 308.825 192.19115 308.825Q193.42552 308.825 194.14427 309.5125Q194.86302 310.2 194.86302 311.21564Q194.86302 311.73126 194.64427 312.23126Q194.44115 312.71564 193.94115 313.27814Q193.45677 313.825 192.33177 314.77814Q191.37865 315.575 191.0974 315.8719Q190.83177 316.15314 190.6599 316.4344L194.87865 316.4344ZM196.33177 313.21564Q196.33177 311.6844 196.64427 310.7625Q196.95677 309.825 197.56615 309.325Q198.19115 308.825 199.12865 308.825Q199.81615 308.825 200.33177 309.10626Q200.86302 309.3875 201.20677 309.91876Q201.55052 310.4344 201.73802 311.1844Q201.92552 311.9344 201.92552 313.21564Q201.92552 314.73126 201.61302 315.65314Q201.31615 316.575 200.69115 317.09064Q200.08177 317.59064 199.12865 317.59064Q197.89427 317.59064 197.17552 316.7Q196.33177 315.6375 196.33177 313.21564ZM197.4099 313.21564Q197.4099 315.325 197.9099 316.02814Q198.4099 316.73126 199.12865 316.73126Q199.86302 316.73126 200.3474 316.02814Q200.8474 315.325 200.8474 313.21564Q200.8474 311.09064 200.3474 310.40314Q199.86302 309.7 199.11302 309.7Q198.39427 309.7 197.95677 310.3094Q197.4099 311.09064 197.4099 313.21564ZM203.33177 313.21564Q203.33177 311.6844 203.64427 310.7625Q203.95677 309.825 204.56615 309.325Q205.19115 308.825 206.12865 308.825Q206.81615 308.825 207.33177 309.10626Q207.86302 309.3875 208.20677 309.91876Q208.55052 310.4344 208.73802 311.1844Q208.92552 311.9344 208.92552 313.21564Q208.92552 314.73126 208.61302 315.65314Q208.31615 316.575 207.69115 317.09064Q207.08177 317.59064 206.12865 317.59064Q204.89427 317.59064 204.17552 316.7Q203.33177 315.6375 203.33177 313.21564ZM204.4099 313.21564Q204.4099 315.325 204.9099 316.02814Q205.4099 316.73126 206.12865 316.73126Q206.86302 316.73126 207.3474 316.02814Q207.8474 315.325 207.8474 313.21564Q207.8474 311.09064 207.3474 310.40314Q206.86302 309.7 206.11302 309.7Q205.39427 309.7 204.95677 310.3094Q204.4099 311.09064 204.4099 313.21564ZM210.33177 313.21564Q210.33177 311.6844 210.64427 310.7625Q210.95677 309.825 211.56615 309.325Q212.19115 308.825 213.12865 308.825Q213.81615 308.825 214.33177 309.10626Q214.86302 309.3875 215.20677 309.91876Q215.55052 310.4344 215.73802 311.1844Q215.92552 311.9344 215.92552 313.21564Q215.92552 314.73126 215.61302 315.65314Q215.31615 316.575 214.69115 317.09064Q214.08177 317.59064 213.12865 317.59064Q211.89427 317.59064 211.17552 316.7Q210.33177 315.6375 210.33177 313.21564ZM211.4099 313.21564Q211.4099 315.325 211.9099 316.02814Q212.4099 316.73126 213.12865 316.73126Q213.86302 316.73126 214.3474 316.02814Q214.8474 315.325 214.8474 313.21564Q214.8474 311.09064 214.3474 310.40314Q213.86302 309.7 213.11302 309.7Q212.39427 309.7 211.95677 310.3094Q211.4099 311.09064 211.4099 313.21564ZM217.33177 313.21564Q217.33177 311.6844 217.64427 310.7625Q217.95677 309.825 218.56615 309.325Q219.19115 308.825 220.12865 308.825Q220.81615 308.825 221.33177 309.10626Q221.86302 309.3875 222.20677 309.91876Q222.55052 310.4344 222.73802 311.1844Q222.92552 311.9344 222.92552 313.21564Q222.92552 314.73126 222.61302 315.65314Q222.31615 316.575 221.69115 317.09064Q221.08177 317.59064 220.12865 317.59064Q218.89427 317.59064 218.17552 316.7Q217.33177 315.6375 217.33177 313.21564ZM218.4099 313.21564Q218.4099 315.325 218.9099 316.02814Q219.4099 316.73126 220.12865 316.73126Q220.86302 316.73126 221.3474 316.02814Q221.8474 315.325 221.8474 313.21564Q221.8474 311.09064 221.3474 310.40314Q220.86302 309.7 220.11302 309.7Q219.39427 309.7 218.95677 310.3094Q218.4099 311.09064 218.4099 313.21564ZM224.33177 313.21564Q224.33177 311.6844 224.64427 310.7625Q224.95677 309.825 225.56615 309.325Q226.19115 308.825 227.12865 308.825Q227.81615 308.825 228.33177 309.10626Q228.86302 309.3875 229.20677 309.91876Q229.55052 310.4344 229.73802 311.1844Q229.92552 311.9344 229.92552 313.21564Q229.92552 314.73126 229.61302 315.65314Q229.31615 316.575 228.69115 317.09064Q228.08177 317.59064 227.12865 317.59064Q225.89427 317.59064 225.17552 316.7Q224.33177 315.6375 224.33177 313.21564ZM225.4099 313.21564Q225.4099 315.325 225.9099 316.02814Q226.4099 316.73126 227.12865 316.73126Q227.86302 316.73126 228.3474 316.02814Q228.8474 315.325 228.8474 313.21564Q228.8474 311.09064 228.3474 310.40314Q227.86302 309.7 227.11302 309.7Q226.39427 309.7 225.95677 310.3094Q225.4099 311.09064 225.4099 313.21564ZM231.33177 313.21564Q231.33177 311.6844 231.64427 310.7625Q231.95677 309.825 232.56615 309.325Q233.19115 308.825 234.12865 308.825Q234.81615 308.825 235.33177 309.10626Q235.86302 309.3875 236.20677 309.91876Q236.55052 310.4344 236.73802 311.1844Q236.92552 311.9344 236.92552 313.21564Q236.92552 314.73126 236.61302 315.65314Q236.31615 316.575 235.69115 317.09064Q235.08177 317.59064 234.12865 317.59064Q232.89427 317.59064 232.17552 316.7Q231.33177 315.6375 231.33177 313.21564ZM232.4099 313.21564Q232.4099 315.325 232.9099 316.02814Q233.4099 316.73126 234.12865 316.73126Q234.86302 316.73126 235.3474 316.02814Q235.8474 315.325 235.8474 313.21564Q235.8474 311.09064 235.3474 310.40314Q234.86302 309.7 234.11302 309.7Q233.39427 309.7 232.95677 310.3094Q232.4099 311.09064 232.4099 313.21564Z" fill-rule="nonzero"/><path fill="#000000" d="M289.5 315.1844L290.5625 315.04376Q290.73438 315.9344 291.17188 316.34064Q291.60938 316.73126 292.23438 316.73126Q292.98438 316.73126 293.5 316.21564Q294.01562 315.7 294.01562 314.9344Q294.01562 314.21564 293.53125 313.7469Q293.0625 313.2625 292.32812 313.2625Q292.03125 313.2625 291.57812 313.3875L291.70312 312.45Q291.8125 312.46564 291.875 312.46564Q292.54688 312.46564 293.07812 312.1219Q293.625 311.7625 293.625 311.02814Q293.625 310.45 293.23438 310.075Q292.84375 309.6844 292.21875 309.6844Q291.60938 309.6844 291.1875 310.075Q290.78125 310.46564 290.67188 311.23126L289.60938 311.04376Q289.79688 309.9969 290.48438 309.41876Q291.17188 308.825 292.1875 308.825Q292.89062 308.825 293.48438 309.1375Q294.07812 309.4344 294.39062 309.95Q294.70312 310.46564 294.70312 311.0594Q294.70312 311.60626 294.40625 312.075Q294.10938 312.52814 293.53125 312.79376Q294.28125 312.96564 294.70312 313.52814Q295.125 314.075 295.125 314.91876Q295.125 316.04376 294.29688 316.825Q293.48438 317.60626 292.23438 317.60626Q291.10938 317.60626 290.35938 316.9344Q289.60938 316.2469 289.5 315.1844ZM296.5 313.21564Q296.5 311.6844 296.8125 310.7625Q297.125 309.825 297.73438 309.325Q298.35938 308.825 299.29688 308.825Q299.98438 308.825 300.5 309.10626Q301.03125 309.3875 301.375 309.91876Q301.71875 310.4344 301.90625 311.1844Q302.09375 311.9344 302.09375 313.21564Q302.09375 314.73126 301.78125 315.65314Q301.48438 316.575 300.85938 317.09064Q300.25 317.59064 299.29688 317.59064Q298.0625 317.59064 297.34375 316.7Q296.5 315.6375 296.5 313.21564ZM297.57812 313.21564Q297.57812 315.325 298.07812 316.02814Q298.57812 316.73126 299.29688 316.73126Q300.03125 316.73126 300.51562 316.02814Q301.01562 315.325 301.01562 313.21564Q301.01562 311.09064 300.51562 310.40314Q300.03125 309.7 299.28125 309.7Q298.5625 309.7 298.125 310.3094Q297.57812 311.09064 297.57812 313.21564ZM303.5 313.21564Q303.5 311.6844 303.8125 310.7625Q304.125 309.825 304.73438 309.325Q305.35938 308.825 306.29688 308.825Q306.98438 308.825 307.5 309.10626Q308.03125 309.3875 308.375 309.91876Q308.71875 310.4344 308.90625 311.1844Q309.09375 311.9344 309.09375 313.21564Q309.09375 314.73126 308.78125 315.65314Q308.48438 316.575 307.85938 317.09064Q307.25 317.59064 306.29688 317.59064Q305.0625 317.59064 304.34375 316.7Q303.5 315.6375 303.5 313.21564ZM304.57812 313.21564Q304.57812 315.325 305.07812 316.02814Q305.57812 316.73126 306.29688 316.73126Q307.03125 316.73126 307.51562 316.02814Q308.01562 315.325 308.01562 313.21564Q308.01562 311.09064 307.51562 310.40314Q307.03125 309.7 306.28125 309.7Q305.5625 309.7 305.125 310.3094Q304.57812 311.09064 304.57812 313.21564ZM310.5 313.21564Q310.5 311.6844 310.8125 310.7625Q311.125 309.825 311.73438 309.325Q312.35938 308.825 313.29688 308.825Q313.98438 308.825 314.5 309.10626Q315.03125 309.3875 315.375 309.91876Q315.71875 310.4344 315.90625 311.1844Q316.09375 311.9344 316.09375 313.21564Q316.09375 314.73126 315.78125 315.65314Q315.48438 316.575 314.85938 317.09064Q314.25 317.59064 313.29688 317.59064Q312.0625 317.59064 311.34375 316.7Q310.5 315.6375 310.5 313.21564ZM311.57812 313.21564Q311.57812 315.325 312.07812 316.02814Q312.57812 316.73126 313.29688 316.73126Q314.03125 316.73126 314.51562 316.02814Q315.01562 315.325 315.01562 313.21564Q315.01562 311.09064 314.51562 310.40314Q314.03125 309.7 313.28125 309.7Q312.5625 309.7 312.125 310.3094Q311.57812 311.09064 311.57812 313.21564ZM317.5 313.21564Q317.5 311.6844 317.8125 310.7625Q318.125 309.825 318.73438 309.325Q319.35938 308.825 320.29688 308.825Q320.98438 308.825 321.5 309.10626Q322.03125 309.3875 322.375 309.91876Q322.71875 310.4344 322.90625 311.1844Q323.09375 311.9344 323.09375 313.21564Q323.09375 314.73126 322.78125 315.65314Q322.48438 316.575 321.85938 317.09064Q321.25 317.59064 320.29688 317.59064Q319.0625 317.59064 318.34375 316.7Q317.5 315.6375 317.5 313.21564ZM318.57812 313.21564Q318.57812 315.325 319.07812 316.02814Q319.57812 316.73126 320.29688 316.73126Q321.03125 316.73126 321.51562 316.02814Q322.01562 315.325 322.01562 313.21564Q322.01562 311.09064 321.51562 310.40314Q321.03125 309.7 320.28125 309.7Q319.5625 309.7 319.125 310.3094Q318.57812 311.09064 318.57812 313.21564ZM324.5 313.21564Q324.5 311.6844 324.8125 310.7625Q325.125 309.825 325.73438 309.325Q326.35938 308.825 327.29688 308.825Q327.98438 308.825 328.5 309.10626Q329.03125 309.3875 329.375 309.91876Q329.71875 310.4344 329.90625 311.1844Q330.09375 311.9344 330.09375 313.21564Q330.09375 314.73126 329.78125 315.65314Q329.48438 316.575 328.85938 317.09064Q328.25 317.59064 327.29688 317.59064Q326.0625 317.59064 325.34375 316.7Q324.5 315.6375 324.5 313.21564ZM325.57812 313.21564Q325.57812 315.325 326.07812 316.02814Q326.57812 316.73126 327.29688 316.73126Q328.03125 316.73126 328.51562 316.02814Q329.01562 315.325 329.01562 313.21564Q329.01562 311.09064 328.51562 310.40314Q328.03125 309.7 327.28125 309.7Q326.5625 309.7 326.125 310.3094Q325.57812 311.09064 325.57812 313.21564ZM331.5 313.21564Q331.5 311.6844 331.8125 310.7625Q332.125 309.825 332.73438 309.325Q333.35938 308.825 334.29688 308.825Q334.98438 308.825 335.5 309.10626Q336.03125 309.3875 336.375 309.91876Q336.71875 310.4344 336.90625 311.1844Q337.09375 311.9344 337.09375 313.21564Q337.09375 314.73126 336.78125 315.65314Q336.48438 316.575 335.85938 317.09064Q335.25 317.59064 334.29688 317.59064Q333.0625 317.59064 332.34375 316.7Q331.5 315.6375 331.5 313.21564ZM332.57812 313.21564Q332.57812 315.325 333.07812 316.02814Q333.57812 316.73126 334.29688 316.73126Q335.03125 316.73126 335.51562 316.02814Q336.01562 315.325 336.01562 313.21564Q336.01562 311.09064 335.51562 310.40314Q335.03125 309.7 334.28125 309.7Q333.5625 309.7 333.125 310.3094Q332.57812 311.09064 332.57812 313.21564Z" fill-rule="nonzero"/><path fill="#000000" d="M393.0432 317.45L393.0432 315.3875L389.32446 315.3875L389.32446 314.41876L393.24634 308.85626L394.1057 308.85626L394.1057 314.41876L395.26196 314.41876L395.26196 315.3875L394.1057 315.3875L394.1057 317.45L393.0432 317.45ZM393.0432 314.41876L393.0432 310.5594L390.3557 314.41876L393.0432 314.41876ZM396.6682 313.21564Q396.6682 311.6844 396.9807 310.7625Q397.2932 309.825 397.9026 309.325Q398.5276 308.825 399.4651 308.825Q400.1526 308.825 400.6682 309.10626Q401.19946 309.3875 401.5432 309.91876Q401.88696 310.4344 402.07446 311.1844Q402.26196 311.9344 402.26196 313.21564Q402.26196 314.73126 401.94946 315.65314Q401.6526 316.575 401.0276 317.09064Q400.4182 317.59064 399.4651 317.59064Q398.2307 317.59064 397.51196 316.7Q396.6682 315.6375 396.6682 313.21564ZM397.74634 313.21564Q397.74634 315.325 398.24634 316.02814Q398.74634 316.73126 399.4651 316.73126Q400.19946 316.73126 400.68384 316.02814Q401.18384 315.325 401.18384 313.21564Q401.18384 311.09064 400.68384 310.40314Q400.19946 309.7 399.44946 309.7Q398.7307 309.7 398.2932 310.3094Q397.74634 311.09064 397.74634 313.21564ZM403.6682 313.21564Q403.6682 311.6844 403.9807 310.7625Q404.2932 309.825 404.9026 309.325Q405.5276 308.825 406.4651 308.825Q407.1526 308.825 407.6682 309.10626Q408.19946 309.3875 408.5432 309.91876Q408.88696 310.4344 409.07446 311.1844Q409.26196 311.9344 409.26196 313.21564Q409.26196 314.73126 408.94946 315.65314Q408.6526 316.575 408.0276 317.09064Q407.4182 317.59064 406.4651 317.59064Q405.2307 317.59064 404.51196 316.7Q403.6682 315.6375 403.6682 313.21564ZM404.74634 313.21564Q404.74634 315.325 405.24634 316.02814Q405.74634 316.73126 406.4651 316.73126Q407.19946 316.73126 407.68384 316.02814Q408.18384 315.325 408.18384 313.21564Q408.18384 311.09064 407.68384 310.40314Q407.19946 309.7 406.44946 309.7Q405.7307 309.7 405.2932 310.3094Q404.74634 311.09064 404.74634 313.21564ZM410.6682 313.21564Q410.6682 311.6844 410.9807 310.7625Q411.2932 309.825 411.9026 309.325Q412.5276 308.825 413.4651 308.825Q414.1526 308.825 414.6682 309.10626Q415.19946 309.3875 415.5432 309.91876Q415.88696 310.4344 416.07446 311.1844Q416.26196 311.9344 416.26196 313.21564Q416.26196 314.73126 415.94946 315.65314Q415.6526 316.575 415.0276 317.09064Q414.4182 317.59064 413.4651 317.59064Q412.2307 317.59064 411.51196 316.7Q410.6682 315.6375 410.6682 313.21564ZM411.74634 313.21564Q411.74634 315.325 412.24634 316.02814Q412.74634 316.73126 413.4651 316.73126Q414.19946 316.73126 414.68384 316.02814Q415.18384 315.325 415.18384 313.21564Q415.18384 311.09064 414.68384 310.40314Q414.19946 309.7 413.44946 309.7Q412.7307 309.7 412.2932 310.3094Q411.74634 311.09064 411.74634 313.21564ZM417.6682 313.21564Q417.6682 311.6844 417.9807 310.7625Q418.2932 309.825 418.9026 309.325Q419.5276 308.825 420.4651 308.825Q421.1526 308.825 421.6682 309.10626Q422.19946 309.3875 422.5432 309.91876Q422.88696 310.4344 423.07446 311.1844Q423.26196 311.9344 423.26196 313.21564Q423.26196 314.73126 422.94946 315.65314Q422.6526 316.575 422.0276 317.09064Q421.4182 317.59064 420.4651 317.59064Q419.2307 317.59064 418.51196 316.7Q417.6682 315.6375 417.6682 313.21564ZM418.74634 313.21564Q418.74634 315.325 419.24634 316.02814Q419.74634 316.73126 420.4651 316.73126Q421.19946 316.73126 421.68384 316.02814Q422.18384 315.325 422.18384 313.21564Q422.18384 311.09064 421.68384 310.40314Q421.19946 309.7 420.44946 309.7Q419.7307 309.7 419.2932 310.3094Q418.74634 311.09064 418.74634 313.21564ZM424.6682 313.21564Q424.6682 311.6844 424.9807 310.7625Q425.2932 309.825 425.9026 309.325Q426.5276 308.825 427.4651 308.825Q428.1526 308.825 428.6682 309.10626Q429.19946 309.3875 429.5432 309.91876Q429.88696 310.4344 430.07446 311.1844Q430.26196 311.9344 430.26196 313.21564Q430.26196 314.73126 429.94946 315.65314Q429.6526 316.575 429.0276 317.09064Q428.4182 317.59064 427.4651 317.59064Q426.2307 317.59064 425.51196 316.7Q424.6682 315.6375 424.6682 313.21564ZM425.74634 313.21564Q425.74634 315.325 426.24634 316.02814Q426.74634 316.73126 427.4651 316.73126Q428.19946 316.73126 428.68384 316.02814Q429.18384 315.325 429.18384 313.21564Q429.18384 311.09064 428.68384 310.40314Q428.19946 309.7 427.44946 309.7Q426.7307 309.7 426.2932 310.3094Q425.74634 311.09064 425.74634 313.21564ZM431.6682 313.21564Q431.6682 311.6844 431.9807 310.7625Q432.2932 309.825 432.9026 309.325Q433.5276 308.825 434.4651 308.825Q435.1526 308.825 435.6682 309.10626Q436.19946 309.3875 436.5432 309.91876Q436.88696 310.4344 437.07446 311.1844Q437.26196 311.9344 437.26196 313.21564Q437.26196 314.73126 436.94946 315.65314Q436.6526 316.575 436.0276 317.09064Q435.4182 317.59064 434.4651 317.59064Q433.2307 317.59064 432.51196 316.7Q431.6682 315.6375 431.6682 313.21564ZM432.74634 313.21564Q432.74634 315.325 433.24634 316.02814Q433.74634 316.73126 434.4651 316.73126Q435.19946 316.73126 435.68384 316.02814Q436.18384 315.325 436.18384 313.21564Q436.18384 311.09064 435.68384 310.40314Q435.19946 309.7 434.44946 309.7Q433.7307 309.7 433.2932 310.3094Q432.74634 311.09064 432.74634 313.21564Z" fill-rule="nonzero"/><path fill="#000000" d="M489.83646 315.2L490.94583 315.10626Q491.07083 315.91876 491.50833 316.325Q491.96146 316.73126 492.60208 316.73126Q493.35208 316.73126 493.88333 316.15314Q494.41458 315.575 494.41458 314.6375Q494.41458 313.73126 493.89896 313.21564Q493.39896 312.6844 492.57083 312.6844Q492.07083 312.6844 491.64896 312.91876Q491.2427 313.15314 491.00833 313.5125L490.02396 313.3875L490.85208 308.98126L495.13333 308.98126L495.13333 309.98126L491.69583 309.98126L491.2427 312.29376Q492.00833 311.7469 492.85208 311.7469Q493.97708 311.7469 494.7427 312.52814Q495.52396 313.3094 495.52396 314.54376Q495.52396 315.7 494.85208 316.5594Q494.02396 317.59064 492.60208 317.59064Q491.4302 317.59064 490.6802 316.9344Q489.94583 316.27814 489.83646 315.2ZM496.83646 313.21564Q496.83646 311.6844 497.14896 310.7625Q497.46146 309.825 498.07083 309.325Q498.69583 308.825 499.63333 308.825Q500.32083 308.825 500.83646 309.10626Q501.3677 309.3875 501.71146 309.91876Q502.0552 310.4344 502.2427 311.1844Q502.4302 311.9344 502.4302 313.21564Q502.4302 314.73126 502.1177 315.65314Q501.82083 316.575 501.19583 317.09064Q500.58646 317.59064 499.63333 317.59064Q498.39896 317.59064 497.6802 316.7Q496.83646 315.6375 496.83646 313.21564ZM497.91458 313.21564Q497.91458 315.325 498.41458 316.02814Q498.91458 316.73126 499.63333 316.73126Q500.3677 316.73126 500.85208 316.02814Q501.35208 315.325 501.35208 313.21564Q501.35208 311.09064 500.85208 310.40314Q500.3677 309.7 499.6177 309.7Q498.89896 309.7 498.46146 310.3094Q497.91458 311.09064 497.91458 313.21564ZM503.83646 313.21564Q503.83646 311.6844 504.14896 310.7625Q504.46146 309.825 505.07083 309.325Q505.69583 308.825 506.63333 308.825Q507.32083 308.825 507.83646 309.10626Q508.3677 309.3875 508.71146 309.91876Q509.0552 310.4344 509.2427 311.1844Q509.4302 311.9344 509.4302 313.21564Q509.4302 314.73126 509.1177 315.65314Q508.82083 316.575 508.19583 317.09064Q507.58646 317.59064 506.63333 317.59064Q505.39896 317.59064 504.6802 316.7Q503.83646 315.6375 503.83646 313.21564ZM504.91458 313.21564Q504.91458 315.325 505.41458 316.02814Q505.91458 316.73126 506.63333 316.73126Q507.3677 316.73126 507.85208 316.02814Q508.35208 315.325 508.35208 313.21564Q508.35208 311.09064 507.85208 310.40314Q507.3677 309.7 506.6177 309.7Q505.89896 309.7 505.46146 310.3094Q504.91458 311.09064 504.91458 313.21564ZM510.83646 313.21564Q510.83646 311.6844 511.14896 310.7625Q511.46146 309.825 512.0708 309.325Q512.6958 308.825 513.6333 308.825Q514.3208 308.825 514.8364 309.10626Q515.3677 309.3875 515.7114 309.91876Q516.0552 310.4344 516.2427 311.1844Q516.4302 311.9344 516.4302 313.21564Q516.4302 314.73126 516.1177 315.65314Q515.8208 316.575 515.1958 317.09064Q514.5864 317.59064 513.6333 317.59064Q512.3989 317.59064 511.6802 316.7Q510.83646 315.6375 510.83646 313.21564ZM511.91458 313.21564Q511.91458 315.325 512.41455 316.02814Q512.91455 316.73126 513.6333 316.73126Q514.3677 316.73126 514.85205 316.02814Q515.35205 315.325 515.35205 313.21564Q515.35205 311.09064 514.85205 310.40314Q514.3677 309.7 513.6177 309.7Q512.8989 309.7 512.4614 310.3094Q511.91458 311.09064 511.91458 313.21564ZM517.8364 313.21564Q517.8364 311.6844 518.1489 310.7625Q518.4614 309.825 519.0708 309.325Q519.6958 308.825 520.6333 308.825Q521.3208 308.825 521.8364 309.10626Q522.3677 309.3875 522.7114 309.91876Q523.0552 310.4344 523.2427 311.1844Q523.4302 311.9344 523.4302 313.21564Q523.4302 314.73126 523.1177 315.65314Q522.8208 316.575 522.1958 317.09064Q521.5864 317.59064 520.6333 317.59064Q519.3989 317.59064 518.6802 316.7Q517.8364 315.6375 517.8364 313.21564ZM518.91455 313.21564Q518.91455 315.325 519.41455 316.02814Q519.91455 316.73126 520.6333 316.73126Q521.3677 316.73126 521.85205 316.02814Q522.35205 315.325 522.35205 313.21564Q522.35205 311.09064 521.85205 310.40314Q521.3677 309.7 520.6177 309.7Q519.8989 309.7 519.4614 310.3094Q518.91455 311.09064 518.91455 313.21564ZM524.8364 313.21564Q524.8364 311.6844 525.1489 310.7625Q525.4614 309.825 526.0708 309.325Q526.6958 308.825 527.6333 308.825Q528.3208 308.825 528.8364 309.10626Q529.3677 309.3875 529.7114 309.91876Q530.0552 310.4344 530.2427 311.1844Q530.4302 311.9344 530.4302 313.21564Q530.4302 314.73126 530.1177 315.65314Q529.8208 316.575 529.1958 317.09064Q528.5864 317.59064 527.6333 317.59064Q526.3989 317.59064 525.6802 316.7Q524.8364 315.6375 524.8364 313.21564ZM525.91455 313.21564Q525.91455 315.325 526.41455 316.02814Q526.91455 316.73126 527.6333 316.73126Q528.3677 316.73126 528.85205 316.02814Q529.35205 315.325 529.35205 313.21564Q529.35205 311.09064 528.85205 310.40314Q528.3677 309.7 527.6177 309.7Q526.8989 309.7 526.4614 310.3094Q525.91455 311.09064 525.91455 313.21564ZM531.8364 313.21564Q531.8364 311.6844 532.1489 310.7625Q532.4614 309.825 533.0708 309.325Q533.6958 308.825 534.6333 308.825Q535.3208 308.825 535.8364 309.10626Q536.3677 309.3875 536.7114 309.91876Q537.0552 310.4344 537.2427 311.1844Q537.4302 311.9344 537.4302 313.21564Q537.4302 314.73126 537.1177 315.65314Q536.8208 316.575 536.1958 317.09064Q535.5864 317.59064 534.6333 317.59064Q533.3989 317.59064 532.6802 316.7Q531.8364 315.6375 531.8364 313.21564ZM532.91455 313.21564Q532.91455 315.325 533.41455 316.02814Q533.91455 316.73126 534.6333 316.73126Q535.3677 316.73126 535.85205 316.02814Q536.35205 315.325 536.35205 313.21564Q536.35205 311.09064 535.85205 310.40314Q535.3677 309.7 534.6177 309.7Q533.8989 309.7 533.4614 310.3094Q532.91455 311.09064 532.91455 313.21564Z" fill-rule="nonzero"/><path fill="#4285f4" d="M233.0 56.916668C233.0 56.364384 233.44771 55.916668 234.0 55.916668L244.0 55.916668C244.55229 55.916668 245.0 56.364384 245.0 56.916668L245.0 66.916664C245.0 67.46895 244.55229 67.916664 244.0 67.916664L234.0 67.916664C233.44771 67.916664 233.0 67.46895 233.0 66.916664Z" fill-rule="nonzero"/><path fill="#1a1a1a" d="M256.10938 65.916664L256.10938 58.33854L253.28125 58.33854L253.28125 57.322914L260.09375 57.322914L260.09375 58.33854L257.25 58.33854L257.25 65.916664L256.10938 65.916664ZM260.5 61.68229Q260.5 60.15104 260.8125 59.229164Q261.125 58.291664 261.73438 57.791664Q262.35938 57.291664 263.29688 57.291664Q263.98438 57.291664 264.5 57.572914Q265.03125 57.854164 265.375 58.385414Q265.71875 58.90104 265.90625 59.65104Q266.09375 60.40104 266.09375 61.68229Q266.09375 63.197914 265.78125 64.11979Q265.48438 65.041664 264.85938 65.55729Q264.25 66.05729 263.29688 66.05729Q262.0625 66.05729 261.34375 65.166664Q260.5 64.104164 260.5 61.68229ZM261.57812 61.68229Q261.57812 63.791664 262.07812 64.49479Q262.57812 65.197914 263.29688 65.197914Q264.03125 65.197914 264.51562 64.49479Q265.01562 63.791664 265.01562 61.68229Q265.01562 59.55729 264.51562 58.86979Q264.03125 58.166664 263.28125 58.166664Q262.5625 58.166664 262.125 58.77604Q261.57812 59.55729 261.57812 61.68229Z" fill-rule="nonzero"/><path fill="#ea4335" d="M283.0 56.916668C283.0 56.364384 283.44772 55.916668 284.0 55.916668L294.0 55.916668C294.55228 55.916668 295.0 56.364384 295.0 56.916668L295.0 66.916664C295.0 67.46895 294.55228 67.916664 294.0 67.916664L284.0 67.916664C283.44772 67.916664 283.0 67.46895 283.0 66.916664Z" fill-rule="nonzero"/><path fill="#1a1a1a" d="M306.10938 65.916664L306.10938 58.33854L303.28125 58.33854L303.28125 57.322914L310.09375 57.322914L310.09375 58.33854L307.25 58.33854L307.25 65.916664L306.10938 65.916664ZM314.46875 65.916664L313.42188 65.916664L313.42188 59.197914Q313.03125 59.55729 312.40625 59.93229Q311.79688 60.291664 311.3125 60.46354L311.3125 59.447914Q312.1875 59.02604 312.84375 58.447914Q313.51562 57.854164 313.79688 57.291664L314.46875 57.291664L314.46875 65.916664Z" fill-rule="nonzero"/><path fill="#fbbc04" d="M333.0 56.916668C333.0 56.364384 333.44772 55.916668 334.0 55.916668L344.0 55.916668C344.55228 55.916668 345.0 56.364384 345.0 56.916668L345.0 66.916664C345.0 67.46895 344.55228 67.916664 344.0 67.916664L334.0 67.916664C333.44772 67.916664 333.0 67.46895 333.0 66.916664Z" fill-rule="nonzero"/><path fill="#1a1a1a" d="M356.10938 65.916664L356.10938 58.33854L353.28125 58.33854L353.28125 57.322914L360.09375 57.322914L360.09375 58.33854L357.25 58.33854L357.25 65.916664L356.10938 65.916664ZM366.04688 64.90104L366.04688 65.916664L360.35938 65.916664Q360.35938 65.541664 360.48438 65.18229Q360.70312 64.604164 361.17188 64.041664Q361.65625 63.479164 362.5625 62.74479Q363.96875 61.58854 364.45312 60.916664Q364.95312 60.24479 364.95312 59.65104Q364.95312 59.02604 364.5 58.604164Q364.04688 58.166664 363.32812 58.166664Q362.5625 58.166664 362.10938 58.61979Q361.65625 59.072914 361.64062 59.885414L360.5625 59.77604Q360.67188 58.55729 361.39062 57.93229Q362.125 57.291664 363.35938 57.291664Q364.59375 57.291664 365.3125 57.979164Q366.03125 58.666664 366.03125 59.68229Q366.03125 60.197914 365.8125 60.697914Q365.60938 61.18229 365.10938 61.74479Q364.625 62.291664 363.5 63.24479Q362.54688 64.041664 362.26562 64.33854Q362.0 64.61979 361.82812 64.90104L366.04688 64.90104Z" fill-rule="nonzero"/><path fill="#757575" d="M20.128124 37.55L20.128124 23.2375L30.4875 23.2375L30.4875 24.925L22.034374 24.925L22.034374 29.3L29.940624 29.3L29.940624 30.9875L22.034374 30.9875L22.034374 35.8625L30.815624 35.8625L30.815624 37.55L20.128124 37.55ZM33.284374 37.55L33.284374 28.55L31.7375 28.55L31.7375 27.175L33.284374 27.175L33.284374 26.08125Q33.284374 25.034374 33.471874 24.51875Q33.721874 23.83125 34.3625 23.409374Q35.003124 22.9875 36.159374 22.9875Q36.909374 22.9875 37.8 23.159374L37.534374 24.690624Q36.9875 24.596874 36.503124 24.596874Q35.70625 24.596874 35.3625 24.940624Q35.034374 25.284374 35.034374 26.221874L35.034374 27.175L37.065624 27.175L37.065624 28.55L35.034374 28.55L35.034374 37.55L33.284374 37.55ZM39.284374 37.55L39.284374 28.55L37.7375 28.55L37.7375 27.175L39.284374 27.175L39.284374 26.08125Q39.284374 25.034374 39.471874 24.51875Q39.721874 23.83125 40.3625 23.409374Q41.003124 22.9875 42.159374 22.9875Q42.909374 22.9875 43.8 23.159374L43.534374 24.690624Q42.9875 24.596874 42.503124 24.596874Q41.70625 24.596874 41.3625 24.940624Q41.034374 25.284374 41.034374 26.221874L41.034374 27.175L43.065624 27.175L43.065624 28.55L41.034374 28.55L41.034374 37.55L39.284374 37.55ZM51.971874 34.20625L53.784374 34.440624Q53.3625 36.01875 52.190624 36.909374Q51.034374 37.784374 49.221874 37.784374Q46.95625 37.784374 45.6125 36.39375Q44.284374 34.9875 44.284374 32.45625Q44.284374 29.83125 45.628124 28.39375Q46.971874 26.940624 49.128124 26.940624Q51.20625 26.940624 52.51875 28.3625Q53.846874 29.76875 53.846874 32.346874Q53.846874 32.503124 53.83125 32.815624L46.096874 32.815624Q46.190624 34.51875 47.065624 35.425Q47.940624 36.33125 49.2375 36.33125Q50.20625 36.33125 50.878124 35.83125Q51.565624 35.315624 51.971874 34.20625ZM46.190624 31.3625L51.9875 31.3625Q51.878124 30.065624 51.33125 29.409374Q50.4875 28.39375 49.14375 28.39375Q47.940624 28.39375 47.1125 29.20625Q46.284374 30.003124 46.190624 31.3625ZM62.64375 33.753124L64.3625 33.971874Q64.08125 35.76875 62.909374 36.784374Q61.753124 37.784374 60.05 37.784374Q57.925 37.784374 56.628124 36.39375Q55.33125 35.003124 55.33125 32.409374Q55.33125 30.721874 55.878124 29.471874Q56.440624 28.20625 57.58125 27.58125Q58.721874 26.940624 60.065624 26.940624Q61.753124 26.940624 62.815624 27.8Q63.89375 28.659374 64.20625 30.221874L62.4875 30.4875Q62.253124 29.440624 61.628124 28.925Q61.003124 28.39375 60.128124 28.39375Q58.8 28.39375 57.971874 29.346874Q57.14375 30.3 57.14375 32.346874Q57.14375 34.440624 57.940624 35.39375Q58.7375 36.33125 60.034374 36.33125Q61.065624 36.33125 61.753124 35.70625Q62.45625 35.065624 62.64375 33.753124ZM69.70625 35.971874L69.95625 37.534374Q69.22188 37.690624 68.62813 37.690624Q67.675 37.690624 67.14375 37.39375Q66.62813 37.08125 66.40938 36.596874Q66.19063 36.096874 66.19063 34.51875L66.19063 28.55L64.90938 28.55L64.90938 27.175L66.19063 27.175L66.19063 24.6125L67.94063 23.55L67.94063 27.175L69.70625 27.175L69.70625 28.55L67.94063 28.55L67.94063 34.6125Q67.94063 35.3625 68.03438 35.58125Q68.12813 35.784374 68.33125 35.925Q68.55 36.05 68.94063 36.05Q69.22188 36.05 69.70625 35.971874ZM71.15938 34.45625L72.90938 34.175Q73.05 35.221874 73.72188 35.784374Q74.39375 36.33125 75.59688 36.33125Q76.8 36.33125 77.37813 35.846874Q77.97188 35.346874 77.97188 34.690624Q77.97188 34.096874 77.45625 33.753124Q77.09688 33.51875 75.65938 33.159374Q73.72188 32.659374 72.97188 32.315624Q72.2375 31.95625 71.84688 31.33125Q71.45625 30.690624 71.45625 29.925Q71.45625 29.2375 71.76875 28.64375Q72.09688 28.05 72.64375 27.659374Q73.05 27.3625 73.75313 27.159374Q74.47188 26.940624 75.28438 26.940624Q76.50313 26.940624 77.425 27.3Q78.34688 27.64375 78.78438 28.253124Q79.22188 28.846874 79.39375 29.846874L77.675 30.08125Q77.55 29.284374 76.9875 28.846874Q76.425 28.39375 75.40938 28.39375Q74.19063 28.39375 73.675 28.8Q73.15938 29.190624 73.15938 29.721874Q73.15938 30.065624 73.37813 30.346874Q73.58125 30.628124 74.05 30.815624Q74.31563 30.909374 75.59688 31.253124Q77.47188 31.753124 78.20625 32.08125Q78.94063 32.39375 79.3625 33.003124Q79.78438 33.596874 79.78438 34.503124Q79.78438 35.378124 79.26875 36.159374Q78.75313 36.940624 77.78438 37.3625Q76.81563 37.784374 75.59688 37.784374Q73.58125 37.784374 72.51875 36.940624Q71.45625 36.096874 71.15938 34.45625ZM87.22188 32.3625Q87.22188 29.4875 88.81563 28.096874Q90.15938 26.940624 92.08125 26.940624Q94.22188 26.940624 95.56563 28.346874Q96.925 29.753124 96.925 32.221874Q96.925 34.221874 96.33125 35.378124Q95.7375 36.51875 94.58125 37.159374Q93.44063 37.784374 92.08125 37.784374Q89.89375 37.784374 88.55 36.39375Q87.22188 34.9875 87.22188 32.3625ZM89.01875 32.3625Q89.01875 34.3625 89.87813 35.346874Q90.75313 36.33125 92.08125 36.33125Q93.39375 36.33125 94.25313 35.346874Q95.12813 34.346874 95.12813 32.3Q95.12813 30.378124 94.25313 29.39375Q93.37813 28.39375 92.08125 28.39375Q90.75313 28.39375 89.87813 29.39375Q89.01875 30.378124 89.01875 32.3625ZM99.28438 37.55L99.28438 28.55L97.7375 28.55L97.7375 27.175L99.28438 27.175L99.28438 26.08125Q99.28438 25.034374 99.47188 24.51875Q99.72188 23.83125 100.3625 23.409374Q101.00313 22.9875 102.15938 22.9875Q102.90938 22.9875 103.8 23.159374L103.53438 24.690624Q102.9875 24.596874 102.50313 24.596874Q101.70625 24.596874 101.3625 24.940624Q101.03438 25.284374 101.03438 26.221874L101.03438 27.175L103.06563 27.175L103.06563 28.55L101.03438 28.55L101.03438 37.55L99.28438 37.55ZM117.59688 37.55L117.59688 36.2375Q116.6125 37.784374 114.69063 37.784374Q113.45625 37.784374 112.40938 37.096874Q111.37813 36.409374 110.8 35.190624Q110.2375 33.971874 110.2375 32.378124Q110.2375 30.815624 110.75313 29.55Q111.26875 28.284374 112.3 27.6125Q113.34688 26.940624 114.6125 26.940624Q115.55 26.940624 116.28438 27.346874Q117.01875 27.7375 117.4875 28.3625L117.4875 23.2375L119.22188 23.2375L119.22188 37.55L117.59688 37.55ZM112.03438 32.378124Q112.03438 34.3625 112.87813 35.346874Q113.72188 36.33125 114.8625 36.33125Q116.01875 36.33125 116.81563 35.39375Q117.62813 34.45625 117.62813 32.51875Q117.62813 30.39375 116.8 29.39375Q115.9875 28.39375 114.78438 28.39375Q113.6125 28.39375 112.81563 29.3625Q112.03438 30.315624 112.03438 32.378124ZM121.87813 25.253124L121.87813 23.2375L123.64375 23.2375L123.64375 25.253124L121.87813 25.253124ZM121.87813 37.55L121.87813 27.175L123.64375 27.175L123.64375 37.55L121.87813 37.55ZM126.28438 37.55L126.28438 28.55L124.7375 28.55L124.7375 27.175L126.28438 27.175L126.28438 26.08125Q126.28438 25.034374 126.47188 24.51875Q126.72188 23.83125 127.3625 23.409374Q128.00313 22.9875 129.15938 22.9875Q129.90938 22.9875 130.8 23.159374L130.53438 24.690624Q129.9875 24.596874 129.50313 24.596874Q128.70625 24.596874 128.3625 24.940624Q128.03438 25.284374 128.03438 26.221874L128.03438 27.175L130.06563 27.175L130.06563 28.55L128.03438 28.55L128.03438 37.55L126.28438 37.55ZM132.28438 37.55L132.28438 28.55L130.7375 28.55L130.7375 27.175L132.28438 27.175L132.28438 26.08125Q132.28438 25.034374 132.47188 24.51875Q132.72188 23.83125 133.3625 23.409374Q134.00313 22.9875 135.15938 22.9875Q135.90938 22.9875 136.8 23.159374L136.53438 24.690624Q135.9875 24.596874 135.50313 24.596874Q134.70625 24.596874 134.3625 24.940624Q134.03438 25.284374 134.03438 26.221874L134.03438 27.175L136.06563 27.175L136.06563 28.55L134.03438 28.55L134.03438 37.55L132.28438 37.55ZM144.97188 34.20625L146.78438 34.440624Q146.3625 36.01875 145.19063 36.909374Q144.03438 37.784374 142.22188 37.784374Q139.95625 37.784374 138.6125 36.39375Q137.28438 34.9875 137.28438 32.45625Q137.28438 29.83125 138.62813 28.39375Q139.97188 26.940624 142.12813 26.940624Q144.20625 26.940624 145.51875 28.3625Q146.84688 29.76875 146.84688 32.346874Q146.84688 32.503124 146.83125 32.815624L139.09688 32.815624Q139.19063 34.51875 140.06563 35.425Q140.94063 36.33125 142.2375 36.33125Q143.20625 36.33125 143.87813 35.83125Q144.56563 35.315624 144.97188 34.20625ZM139.19063 31.3625L144.9875 31.3625Q144.87813 30.065624 144.33125 29.409374Q143.4875 28.39375 142.14375 28.39375Q140.94063 28.39375 140.1125 29.20625Q139.28438 30.003124 139.19063 31.3625ZM148.84688 37.55L148.84688 27.175L150.425 27.175L150.425 28.753124Q151.03438 27.64375 151.55 27.3Q152.06563 26.940624 152.675 26.940624Q153.56563 26.940624 154.4875 27.503124L153.87813 29.14375Q153.2375 28.753124 152.59688 28.753124Q152.01875 28.753124 151.55 29.1125Q151.09688 29.45625 150.89375 30.065624Q150.6125 31.003124 150.6125 32.1125L150.6125 37.55L148.84688 37.55ZM162.97188 34.20625L164.78438 34.440624Q164.3625 36.01875 163.19063 36.909374Q162.03438 37.784374 160.22188 37.784374Q157.95625 37.784374 156.6125 36.39375Q155.28438 34.9875 155.28438 32.45625Q155.28438 29.83125 156.62813 28.39375Q157.97188 26.940624 160.12813 26.940624Q162.20625 26.940624 163.51875 28.3625Q164.84688 29.76875 164.84688 32.346874Q164.84688 32.503124 164.83125 32.815624L157.09688 32.815624Q157.19063 34.51875 158.06563 35.425Q158.94063 36.33125 160.2375 36.33125Q161.20625 36.33125 161.87813 35.83125Q162.56563 35.315624 162.97188 34.20625ZM157.19063 31.3625L162.9875 31.3625Q162.87813 30.065624 162.33125 29.409374Q161.4875 28.39375 160.14375 28.39375Q158.94063 28.39375 158.1125 29.20625Q157.28438 30.003124 157.19063 31.3625ZM166.8625 37.55L166.8625 27.175L168.45625 27.175L168.45625 28.659374Q169.59688 26.940624 171.75313 26.940624Q172.69063 26.940624 173.47188 27.284374Q174.26875 27.6125 174.65938 28.159374Q175.05 28.70625 175.20625 29.45625Q175.3 29.95625 175.3 31.175L175.3 37.55L173.53438 37.55L173.53438 31.2375Q173.53438 30.159374 173.33125 29.628124Q173.12813 29.096874 172.59688 28.784374Q172.08125 28.471874 171.37813 28.471874Q170.25313 28.471874 169.44063 29.190624Q168.62813 29.89375 168.62813 31.878124L168.62813 37.55L166.8625 37.55ZM180.70625 35.971874L180.95625 37.534374Q180.22188 37.690624 179.62813 37.690624Q178.675 37.690624 178.14375 37.39375Q177.62813 37.08125 177.40938 36.596874Q177.19063 36.096874 177.19063 34.51875L177.19063 28.55L175.90938 28.55L175.90938 27.175L177.19063 27.175L177.19063 24.6125L178.94063 23.55L178.94063 27.175L180.70625 27.175L180.70625 28.55L178.94063 28.55L178.94063 34.6125Q178.94063 35.3625 179.03438 35.58125Q179.12813 35.784374 179.33125 35.925Q179.55 36.05 179.94063 36.05Q180.22188 36.05 180.70625 35.971874ZM195.64375 33.753124L197.3625 33.971874Q197.08125 35.76875 195.90938 36.784374Q194.75313 37.784374 193.05 37.784374Q190.925 37.784374 189.62813 36.39375Q188.33125 35.003124 188.33125 32.409374Q188.33125 30.721874 188.87813 29.471874Q189.44063 28.20625 190.58125 27.58125Q191.72188 26.940624 193.06563 26.940624Q194.75313 26.940624 195.81563 27.8Q196.89375 28.659374 197.20625 30.221874L195.4875 30.4875Q195.25313 29.440624 194.62813 28.925Q194.00313 28.39375 193.12813 28.39375Q191.8 28.39375 190.97188 29.346874Q190.14375 30.3 190.14375 32.346874Q190.14375 34.440624 190.94063 35.39375Q191.7375 36.33125 193.03438 36.33125Q194.06563 36.33125 194.75313 35.70625Q195.45625 35.065624 195.64375 33.753124ZM205.64375 36.26875Q204.65938 37.096874 203.75313 37.440624Q202.84688 37.784374 201.81563 37.784374Q200.1125 37.784374 199.19063 36.95625Q198.26875 36.1125 198.26875 34.815624Q198.26875 34.05 198.6125 33.425Q198.97188 32.8 199.53438 32.425Q200.09688 32.034374 200.8 31.83125Q201.31563 31.70625 202.3625 31.565624Q204.4875 31.315624 205.4875 30.971874Q205.50313 30.6125 205.50313 30.503124Q205.50313 29.440624 205.00313 28.9875Q204.33125 28.39375 203.00313 28.39375Q201.75313 28.39375 201.15938 28.83125Q200.58125 29.26875 200.3 30.378124L198.58125 30.14375Q198.81563 29.034374 199.34688 28.3625Q199.87813 27.675 200.89375 27.315624Q201.90938 26.940624 203.25313 26.940624Q204.58125 26.940624 205.40938 27.253124Q206.2375 27.565624 206.62813 28.05Q207.01875 28.51875 207.175 29.2375Q207.26875 29.690624 207.26875 30.8625L207.26875 33.20625Q207.26875 35.659374 207.37813 36.315624Q207.4875 36.95625 207.83125 37.55L205.9875 37.55Q205.72188 37.003124 205.64375 36.26875ZM205.4875 32.346874Q204.53438 32.7375 202.6125 33.003124Q201.53438 33.159374 201.08125 33.3625Q200.64375 33.55 200.39375 33.925Q200.14375 34.3 200.14375 34.76875Q200.14375 35.471874 200.675 35.940624Q201.20625 36.409374 202.2375 36.409374Q203.25313 36.409374 204.03438 35.971874Q204.83125 35.51875 205.20625 34.753124Q205.4875 34.14375 205.4875 32.9875L205.4875 32.346874ZM216.64375 33.753124L218.3625 33.971874Q218.08125 35.76875 216.90938 36.784374Q215.75313 37.784374 214.05 37.784374Q211.925 37.784374 210.62813 36.39375Q209.33125 35.003124 209.33125 32.409374Q209.33125 30.721874 209.87813 29.471874Q210.44063 28.20625 211.58125 27.58125Q212.72188 26.940624 214.06563 26.940624Q215.75313 26.940624 216.81563 27.8Q217.89375 28.659374 218.20625 30.221874L216.4875 30.4875Q216.25313 29.440624 215.62813 28.925Q215.00313 28.39375 214.12813 28.39375Q212.8 28.39375 211.97188 29.346874Q211.14375 30.3 211.14375 32.346874Q211.14375 34.440624 211.94063 35.39375Q212.7375 36.33125 214.03438 36.33125Q215.06563 36.33125 215.75313 35.70625Q216.45625 35.065624 216.64375 33.753124ZM219.8625 37.55L219.8625 23.2375L221.62813 23.2375L221.62813 28.3625Q222.8625 26.940624 224.7375 26.940624Q225.87813 26.940624 226.72188 27.39375Q227.58125 27.846874 227.94063 28.659374Q228.31563 29.45625 228.31563 30.971874L228.31563 37.55L226.56563 37.55L226.56563 30.971874Q226.56563 29.659374 225.9875 29.065624Q225.40938 28.45625 224.37813 28.45625Q223.59688 28.45625 222.89375 28.8625Q222.20625 29.26875 221.90938 29.971874Q221.62813 30.659374 221.62813 31.878124L221.62813 37.55L219.8625 37.55ZM236.97188 34.20625L238.78438 34.440624Q238.3625 36.01875 237.19063 36.909374Q236.03438 37.784374 234.22188 37.784374Q231.95625 37.784374 230.6125 36.39375Q229.28438 34.9875 229.28438 32.45625Q229.28438 29.83125 230.62813 28.39375Q231.97188 26.940624 234.12813 26.940624Q236.20625 26.940624 237.51875 28.3625Q238.84688 29.76875 238.84688 32.346874Q238.84688 32.503124 238.83125 32.815624L231.09688 32.815624Q231.19063 34.51875 232.06563 35.425Q232.94063 36.33125 234.2375 36.33125Q235.20625 36.33125 235.87813 35.83125Q236.56563 35.315624 236.97188 34.20625ZM231.19063 31.3625L236.9875 31.3625Q236.87813 30.065624 236.33125 29.409374Q235.4875 28.39375 234.14375 28.39375Q232.94063 28.39375 232.1125 29.20625Q231.28438 30.003124 231.19063 31.3625ZM247.28438 37.55L247.28438 28.55L245.7375 28.55L245.7375 27.175L247.28438 27.175L247.28438 26.08125Q247.28438 25.034374 247.47188 24.51875Q247.72188 23.83125 248.3625 23.409374Q249.00313 22.9875 250.15938 22.9875Q250.90938 22.9875 251.8 23.159374L251.53438 24.690624Q250.9875 24.596874 250.50313 24.596874Q249.70625 24.596874 249.3625 24.940624Q249.03438 25.284374 249.03438 26.221874L249.03438 27.175L251.06563 27.175L251.06563 28.55L249.03438 28.55L249.03438 37.55L247.28438 37.55ZM252.87813 25.253124L252.87813 23.2375L254.64375 23.2375L254.64375 25.253124L252.87813 25.253124ZM252.87813 37.55L252.87813 27.175L254.64375 27.175L254.64375 37.55L252.87813 37.55ZM256.83124 37.55L256.83124 23.2375L258.58124 23.2375L258.58124 37.55L256.83124 37.55ZM260.83124 37.55L260.83124 23.2375L262.58124 23.2375L262.58124 37.55L260.83124 37.55ZM270.83124 37.55L270.83124 23.2375L272.58124 23.2375L272.58124 37.55L270.83124 37.55ZM281.97186 34.20625L283.78436 34.440624Q283.3625 36.01875 282.1906 36.909374Q281.03436 37.784374 279.22186 37.784374Q276.95624 37.784374 275.6125 36.39375Q274.28436 34.9875 274.28436 32.45625Q274.28436 29.83125 275.6281 28.39375Q276.97186 26.940624 279.1281 26.940624Q281.20624 26.940624 282.51874 28.3625Q283.84686 29.76875 283.84686 32.346874Q283.84686 32.503124 283.83124 32.815624L276.09686 32.815624Q276.1906 34.51875 277.0656 35.425Q277.9406 36.33125 279.2375 36.33125Q280.20624 36.33125 280.8781 35.83125Q281.5656 35.315624 281.97186 34.20625ZM276.1906 31.3625L281.9875 31.3625Q281.8781 30.065624 281.33124 29.409374Q280.4875 28.39375 279.14374 28.39375Q277.9406 28.39375 277.1125 29.20625Q276.28436 30.003124 276.1906 31.3625ZM288.7531 37.55L284.8 27.175L286.65936 27.175L288.89374 33.39375Q289.2531 34.39375 289.55 35.471874Q289.78436 34.659374 290.20624 33.503124L292.5031 27.175L294.3156 27.175L290.39374 37.55L288.7531 37.55ZM301.97186 34.20625L303.78436 34.440624Q303.3625 36.01875 302.1906 36.909374Q301.03436 37.784374 299.22186 37.784374Q296.95624 37.784374 295.6125 36.39375Q294.28436 34.9875 294.28436 32.45625Q294.28436 29.83125 295.6281 28.39375Q296.97186 26.940624 299.1281 26.940624Q301.20624 26.940624 302.51874 28.3625Q303.84686 29.76875 303.84686 32.346874Q303.84686 32.503124 303.83124 32.815624L296.09686 32.815624Q296.1906 34.51875 297.0656 35.425Q297.9406 36.33125 299.2375 36.33125Q300.20624 36.33125 300.8781 35.83125Q301.5656 35.315624 301.97186 34.20625ZM296.1906 31.3625L301.9875 31.3625Q301.8781 30.065624 301.33124 29.409374Q300.4875 28.39375 299.14374 28.39375Q297.9406 28.39375 297.1125 29.20625Q296.28436 30.003124 296.1906 31.3625ZM305.83124 37.55L305.83124 23.2375L307.58124 23.2375L307.58124 37.55L305.83124 37.55ZM309.15936 34.45625L310.90936 34.175Q311.05 35.221874 311.72186 35.784374Q312.39374 36.33125 313.59686 36.33125Q314.8 36.33125 315.3781 35.846874Q315.97186 35.346874 315.97186 34.690624Q315.97186 34.096874 315.45624 33.753124Q315.09686 33.51875 313.65936 33.159374Q311.72186 32.659374 310.97186 32.315624Q310.2375 31.95625 309.84686 31.33125Q309.45624 30.690624 309.45624 29.925Q309.45624 29.2375 309.76874 28.64375Q310.09686 28.05 310.64374 27.659374Q311.05 27.3625 311.7531 27.159374Q312.47186 26.940624 313.28436 26.940624Q314.5031 26.940624 315.425 27.3Q316.34686 27.64375 316.78436 28.253124Q317.22186 28.846874 317.39374 29.846874L315.675 30.08125Q315.55 29.284374 314.9875 28.846874Q314.425 28.39375 313.40936 28.39375Q312.1906 28.39375 311.675 28.8Q311.15936 29.190624 311.15936 29.721874Q311.15936 30.065624 311.3781 30.346874Q311.58124 30.628124 312.05 30.815624Q312.3156 30.909374 313.59686 31.253124Q315.47186 31.753124 316.20624 32.08125Q316.9406 32.39375 317.3625 33.003124Q317.78436 33.596874 317.78436 34.503124Q317.78436 35.378124 317.26874 36.159374Q316.7531 36.940624 315.78436 37.3625Q314.8156 37.784374 313.59686 37.784374Q311.58124 37.784374 310.51874 36.940624Q309.45624 36.096874 309.15936 34.45625Z" fill-rule="nonzero"/></svg>