<svg version="1.1" viewBox="0.0 0.0 600.0 371.0" fill="none" stroke="none" stroke-linecap="square" stroke-miterlimit="10" width="600" height="371" xmlns:xlink="http://www.w3.org/1999/xlink" xmlns="http://www.w3.org/2000/svg"><path fill="#ffffff" d="M0 0L600.0 0L600.0 371.0L0 371.0L0 0Z" fill-rule="nonzero"/><path stroke="#333333" stroke-width="1.0" stroke-linecap="butt" d="M45.5 300.5L581.5 300.5" fill-rule="nonzero"/><path stroke="#cccccc" stroke-width="1.0" stroke-linecap="butt" d="M45.5 229.5L581.5 229.5" fill-rule="nonzero"/><path stroke="#cccccc" stroke-width="1.0" stroke-linecap="butt" d="M45.5 159.5L581.5 159.5" fill-rule="nonzero"/><path stroke="#cccccc" stroke-width="1.0" stroke-linecap="butt" d="M45.5 88.5L581.5 88.5" fill-rule="nonzero"/><clipPath id="id_0"><path d="M45.55 88.28333L581.45 88.28333L581.45 300.45L45.55 300.45L45.55 88.28333Z" clip-rule="nonzero"/></clipPath><path stroke="#000000" stroke-width="2.0" stroke-linecap="butt" stroke-opacity="0.0" clip-path="url(#id_0)" d="M112.0 300.0L81.0 300.0L81.0 159.0C81.0 157.89543 81.89543 157.0 83.0 157.0L110.0 157.0C111.10457 157.0 112.0 157.89543 112.0 159.0Z" fill-rule="nonzero"/><path fill="#4285f4" clip-path="url(#id_0)" d="M112.0 300.0L81.0 300.0L81.0 159.0C81.0 157.89543 81.89543 157.0 83.0 157.0L110.0 157.0C111.10457 157.0 112.0 157.89543 112.0 159.0Z" fill-rule="nonzero"/><path stroke="#000000" stroke-width="2.0" stroke-linecap="butt" stroke-opacity="0.0" clip-path="url(#id_0)" d="M212.0 300.0L181.0 300.0L181.0 125.0C181.0 123.89543 181.89543 123.0 183.0 123.0L210.0 123.0C211.10457 123.0 212.0 123.89543 212.0 125.0Z" fill-rule="nonzero"/><path fill="#4285f4" clip-path="url(#id_0)" d="M212.0 300.0L181.0 300.0L181.0 125.0C181.0 123.89543 181.89543 123.0 183.0 123.0L210.0 123.0C211.10457 123.0 212.0 123.89543 212.0 125.0Z" fill-rule="nonzero"/><path stroke="#000000" stroke-width="2.0" stroke-linecap="butt" stroke-opacity="0.0" clip-path="url(#id_0)" d="M313.0 300.0L282.0 300.0L282.0 113.0C282.0 111.89543 282.89542 111.0 284.0 111.0L311.0 111.0C312.10458 111.0 313.0 111.89543 313.0 113.0Z" fill-rule="nonzero"/><path fill="#4285f4" clip-path="url(#id_0)" d="M313.0 300.0L282.0 300.0L282.0 113.0C282.0 111.89543 282.89542 111.0 284.0 111.0L311.0 111.0C312.10458 111.0 313.0 111.89543 313.0 113.0Z" fill-rule="nonzero"/><path stroke="#000000" stroke-width="2.0" stroke-linecap="butt" stroke-opacity="0.0" clip-path="url(#id_0)" d="M413.0 300.0L382.0 300.0L382.0 107.0C382.0 105.89543 382.89542 105.0 384.0 105.0L411.0 105.0C412.10458 105.0 413.0 105.89543 413.0 107.0Z" fill-rule="nonzero"/><path fill="#4285f4" clip-path="url(#id_0)" d="M413.0 300.0L382.0 300.0L382.0 107.0C382.0 105.89543 382.89542 105.0 384.0 105.0L411.0 105.0C412.10458 105.0 413.0 105.89543 413.0 107.0Z" fill-rule="nonzero"/><path stroke="#000000" stroke-width="2.0" stroke-linecap="butt" stroke-opacity="0.0" clip-path="url(#id_0)" d="M513.0 300.0L482.0 300.0L482.0 108.0C482.0 106.89543 482.89542 106.0 484.0 106.0L511.0 106.0C512.10455 106.0 513.0 106.89543 513.0 108.0Z" fill-rule="nonzero"/><path fill="#4285f4" clip-path="url(#id_0)" d="M513.0 300.0L482.0 300.0L482.0 108.0C482.0 106.89543 482.89542 106.0 484.0 106.0L511.0 106.0C512.10455 106.0 513.0 106.89543 513.0 108.0Z" fill-rule="nonzero"/><path stroke="#000000" stroke-width="2.0" stroke-linecap="butt" stroke-opacity="0.0" clip-path="url(#id_0)" d="M145.0 300.0L114.0 300.0L114.0 139.0C114.0 137.89543 114.89543 137.0 116.0 137.0L143.0 137.0C144.10457 137.0 145.0 137.89543 145.0 139.0Z" fill-rule="nonzero"/><path fill="#ea4335" clip-path="url(#id_0)" d="M145.0 300.0L114.0 300.0L114.0 139.0C114.0 137.89543 114.89543 137.0 116.0 137.0L143.0 137.0C144.10457 137.0 145.0 137.89543 145.0 139.0Z" fill-rule="nonzero"/><path stroke="#000000" stroke-width="2.0" stroke-linecap="butt" stroke-opacity="0.0" clip-path="url(#id_0)" d="M245.0 300.0L214.0 300.0L214.0 126.0C214.0 124.89543 214.89543 124.0 216.0 124.0L243.0 124.0C244.10457 124.0 245.0 124.89543 245.0 126.0Z" fill-rule="nonzero"/><path fill="#ea4335" clip-path="url(#id_0)" d="M245.0 300.0L214.0 300.0L214.0 126.0C214.0 124.89543 214.89543 124.0 216.0 124.0L243.0 124.0C244.10457 124.0 245.0 124.89543 245.0 126.0Z" fill-rule="nonzero"/><path stroke="#000000" stroke-width="2.0" stroke-linecap="butt" stroke-opacity="0.0" clip-path="url(#id_0)" d="M346.0 300.0L315.0 300.0L315.0 144.0C315.0 142.89543 315.89542 142.0 317.0 142.0L344.0 142.0C345.10458 142.0 346.0 142.89543 346.0 144.0Z" fill-rule="nonzero"/><path fill="#ea4335" clip-path="url(#id_0)" d="M346.0 300.0L315.0 300.0L315.0 144.0C315.0 142.89543 315.89542 142.0 317.0 142.0L344.0 142.0C345.10458 142.0 346.0 142.89543 346.0 144.0Z" fill-rule="nonzero"/><path stroke="#000000" stroke-width="2.0" stroke-linecap="butt" stroke-opacity="0.0" clip-path="url(#id_0)" d="M446.0 300.0L415.0 300.0L415.0 111.0C415.0 109.89543 415.89542 109.0 417.0 109.0L444.0 109.0C445.10458 109.0 446.0 109.89543 446.0 111.0Z" fill-rule="nonzero"/><path fill="#ea4335" clip-path="url(#id_0)" d="M446.0 300.0L415.0 300.0L415.0 111.0C415.0 109.89543 415.89542 109.0 417.0 109.0L444.0 109.0C445.10458 109.0 446.0 109.89543 446.0 111.0Z" fill-rule="nonzero"/><path stroke="#000000" stroke-width="2.0" stroke-linecap="butt" stroke-opacity="0.0" clip-path="url(#id_0)" d="M546.0 300.0L515.0 300.0L515.0 111.0C515.0 109.89543 515.89545 109.0 517.0 109.0L544.0 109.0C545.10455 109.0 546.0 109.89543 546.0 111.0Z" fill-rule="nonzero"/><path fill="#ea4335" clip-path="url(#id_0)" d="M546.0 300.0L515.0 300.0L515.0 111.0C515.0 109.89543 515.89545 109.0 517.0 109.0L544.0 109.0C545.10455 109.0 546.0 109.89543 546.0 111.0Z" fill-rule="nonzero"/><path fill="#000000" d="M288.59375 348.5125L288.75 349.4344Q288.29688 349.52814 287.95312 349.52814Q287.375 349.52814 287.0625 349.35626Q286.75 349.16876 286.60938 348.8719Q286.48438 348.575 286.48438 347.6219L286.48438 344.04376L285.71875 344.04376L285.71875 343.23126L286.48438 343.23126L286.48438 341.6844L287.53125 341.0594L287.53125 343.23126L288.59375 343.23126L288.59375 344.04376L287.53125 344.04376L287.53125 347.6844Q287.53125 348.1375 287.57812 348.2625Q287.64062 348.3875 287.76562 348.46564Q287.89062 348.54376 288.125 348.54376Q288.3125 348.54376 288.59375 348.5125ZM293.35938 348.6844Q292.76562 349.1844 292.21875 349.3875Q291.6875 349.59064 291.0625 349.59064Q290.03125 349.59064 289.48438 349.09064Q288.9375 348.59064 288.9375 347.8094Q288.9375 347.35626 289.14062 346.98126Q289.34375 346.59064 289.6875 346.3719Q290.03125 346.1375 290.45312 346.02814Q290.75 345.9344 291.39062 345.85626Q292.65625 345.71564 293.26562 345.4969Q293.26562 345.27814 293.26562 345.23126Q293.26562 344.575 292.96875 344.3094Q292.5625 343.96564 291.76562 343.96564Q291.03125 343.96564 290.67188 344.23126Q290.3125 344.48126 290.14062 345.1375L289.10938 344.9969Q289.25 344.34064 289.57812 343.9344Q289.90625 343.52814 290.51562 343.3094Q291.125 343.09064 291.92188 343.09064Q292.71875 343.09064 293.21875 343.27814Q293.71875 343.46564 293.95312 343.7469Q294.1875 344.02814 294.28125 344.46564Q294.32812 344.73126 294.32812 345.4344L294.32812 346.84064Q294.32812 348.3094 294.39062 348.7Q294.46875 349.09064 294.67188 349.45L293.5625 349.45Q293.40625 349.1219 293.35938 348.6844ZM293.26562 346.325Q292.6875 346.5594 291.54688 346.73126Q290.89062 346.825 290.625 346.95Q290.35938 347.0594 290.20312 347.27814Q290.0625 347.4969 290.0625 347.77814Q290.0625 348.2 290.375 348.48126Q290.70312 348.7625 291.3125 348.7625Q291.92188 348.7625 292.39062 348.4969Q292.875 348.23126 293.09375 347.7625Q293.26562 347.40314 293.26562 346.71564L293.26562 346.325ZM297.26562 349.45L296.28125 349.45L296.28125 340.85626L297.34375 340.85626L297.34375 343.91876Q298.01562 343.09064 299.04688 343.09064Q299.625 343.09064 300.125 343.325Q300.64062 343.54376 300.96875 343.96564Q301.3125 344.3875 301.5 344.98126Q301.6875 345.575 301.6875 346.2469Q301.6875 347.84064 300.89062 348.71564Q300.09375 349.59064 299.0 349.59064Q297.89062 349.59064 297.26562 348.66876L297.26562 349.45ZM297.25 346.29376Q297.25 347.40314 297.5625 347.90314Q298.0625 348.71564 298.90625 348.71564Q299.59375 348.71564 300.09375 348.1219Q300.60938 347.52814 300.60938 346.325Q300.60938 345.10626 300.125 344.52814Q299.64062 343.95 298.95312 343.95Q298.26562 343.95 297.75 344.5594Q297.25 345.15314 297.25 346.29376ZM303.26562 349.45L303.26562 340.85626L304.32812 340.85626L304.32812 349.45L303.26562 349.45ZM310.54688 347.45L311.64062 347.575Q311.39062 348.52814 310.6875 349.0594Q309.98438 349.59064 308.90625 349.59064Q307.54688 349.59064 306.73438 348.7469Q305.9375 347.90314 305.9375 346.3875Q305.9375 344.825 306.75 343.96564Q307.5625 343.09064 308.84375 343.09064Q310.09375 343.09064 310.875 343.9344Q311.67188 344.77814 311.67188 346.325Q311.67188 346.41876 311.67188 346.60626L307.03125 346.60626Q307.09375 347.6375 307.60938 348.1844Q308.125 348.71564 308.90625 348.71564Q309.48438 348.71564 309.89062 348.41876Q310.3125 348.10626 310.54688 347.45ZM307.09375 345.7469L310.5625 345.7469Q310.5 344.95 310.17188 344.5594Q309.65625 343.95 308.85938 343.95Q308.125 343.95 307.625 344.4344Q307.14062 344.91876 307.09375 345.7469ZM312.3125 351.84064L312.3125 351.075L319.3125 351.075L319.3125 351.84064L312.3125 351.84064ZM319.875 347.59064L320.90625 347.4344Q321.0 348.0594 321.39062 348.3875Q321.79688 348.71564 322.53125 348.71564Q323.25 348.71564 323.59375 348.4344Q323.95312 348.1375 323.95312 347.73126Q323.95312 347.3719 323.64062 347.16876Q323.42188 347.02814 322.5625 346.8094Q321.40625 346.5125 320.95312 346.3094Q320.51562 346.09064 320.28125 345.71564Q320.04688 345.34064 320.04688 344.8719Q320.04688 344.46564 320.23438 344.10626Q320.42188 343.7469 320.75 343.5125Q321.0 343.34064 321.42188 343.21564Q321.84375 343.09064 322.34375 343.09064Q323.0625 343.09064 323.60938 343.3094Q324.17188 343.5125 324.4375 343.8719Q324.70312 344.23126 324.79688 344.825L323.76562 344.96564Q323.70312 344.4969 323.35938 344.23126Q323.03125 343.95 322.40625 343.95Q321.6875 343.95 321.375 344.2Q321.0625 344.4344 321.0625 344.7625Q321.0625 344.96564 321.1875 345.1219Q321.32812 345.29376 321.59375 345.40314Q321.75 345.46564 322.53125 345.66876Q323.65625 345.98126 324.09375 346.16876Q324.53125 346.35626 324.78125 346.71564Q325.03125 347.075 325.03125 347.6219Q325.03125 348.15314 324.71875 348.6219Q324.42188 349.075 323.84375 349.34064Q323.26562 349.59064 322.53125 349.59064Q321.3125 349.59064 320.67188 349.09064Q320.04688 348.575 319.875 347.59064ZM327.29688 342.075L327.29688 340.85626L328.35938 340.85626L328.35938 342.075L327.29688 342.075ZM327.29688 349.45L327.29688 343.23126L328.35938 343.23126L328.35938 349.45L327.29688 349.45ZM329.73438 349.45L329.73438 348.59064L333.70312 344.04376Q333.01562 344.075 332.5 344.075L329.96875 344.075L329.96875 343.23126L335.0625 343.23126L335.0625 343.91876L331.6875 347.8719L331.03125 348.59064Q331.75 348.54376 332.35938 348.54376L335.25 348.54376L335.25 349.45L329.73438 349.45ZM339.54688 347.45L340.64062 347.575Q340.39062 348.52814 339.6875 349.0594Q338.98438 349.59064 337.90625 349.59064Q336.54688 349.59064 335.73438 348.7469Q334.9375 347.90314 334.9375 346.3875Q334.9375 344.825 335.75 343.96564Q336.5625 343.09064 337.84375 343.09064Q339.09375 343.09064 339.875 343.9344Q340.67188 344.77814 340.67188 346.325Q340.67188 346.41876 340.67188 346.60626L336.03125 346.60626Q336.09375 347.6375 336.60938 348.1844Q337.125 348.71564 337.90625 348.71564Q338.48438 348.71564 338.89062 348.41876Q339.3125 348.10626 339.54688 347.45ZM336.09375 345.7469L339.5625 345.7469Q339.5 344.95 339.17188 344.5594Q338.65625 343.95 337.85938 343.95Q337.125 343.95 336.625 344.4344Q336.14062 344.91876 336.09375 345.7469Z" fill-rule="nonzero"/><path fill="#000000" d="M33.05 300.21564Q33.05 298.6844 33.3625 297.7625Q33.675 296.825 34.284374 296.325Q34.909374 295.825 35.846874 295.825Q36.534374 295.825 37.05 296.10626Q37.58125 296.3875 37.925 296.91876Q38.26875 297.4344 38.45625 298.1844Q38.64375 298.9344 38.64375 300.21564Q38.64375 301.73126 38.33125 302.65314Q38.034374 303.575 37.409374 304.09064Q36.8 304.59064 35.846874 304.59064Q34.6125 304.59064 33.89375 303.7Q33.05 302.6375 33.05 300.21564ZM34.128124 300.21564Q34.128124 302.325 34.628124 303.02814Q35.128124 303.73126 35.846874 303.73126Q36.58125 303.73126 37.065624 303.02814Q37.565624 302.325 37.565624 300.21564Q37.565624 298.09064 37.065624 297.40314Q36.58125 296.7 35.83125 296.7Q35.1125 296.7 34.675 297.3094Q34.128124 298.09064 34.128124 300.21564Z" fill-rule="nonzero"/><path fill="#000000" d="M37.01875 233.72778L35.971874 233.72778L35.971874 227.00903Q35.58125 227.36841 34.95625 227.74341Q34.346874 228.10278 33.8625 228.27466L33.8625 227.25903Q34.7375 226.83716 35.39375 226.25903Q36.065624 225.66528 36.346874 225.10278L37.01875 225.10278L37.01875 233.72778Z" fill-rule="nonzero"/><path fill="#000000" d="M38.596874 161.98993L38.596874 163.00555L32.909374 163.00555Q32.909374 162.63055 33.034374 162.27118Q33.253124 161.69305 33.721874 161.13055Q34.20625 160.56805 35.1125 159.83368Q36.51875 158.67743 37.003124 158.00555Q37.503124 157.33368 37.503124 156.73993Q37.503124 156.11493 37.05 155.69305Q36.596874 155.25555 35.878124 155.25555Q35.1125 155.25555 34.659374 155.70868Q34.20625 156.1618 34.190624 156.9743L33.1125 156.86493Q33.221874 155.64618 33.940624 155.02118Q34.675 154.38055 35.909374 154.38055Q37.14375 154.38055 37.8625 155.06805Q38.58125 155.75555 38.58125 156.77118Q38.58125 157.2868 38.3625 157.7868Q38.159374 158.27118 37.659374 158.83368Q37.175 159.38055 36.05 160.33368Q35.096874 161.13055 34.815624 161.42743Q34.55 161.70868 34.378124 161.98993L38.596874 161.98993Z" fill-rule="nonzero"/><path fill="#000000" d="M33.05 90.01771L34.1125 89.87708Q34.284374 90.76771 34.721874 91.17396Q35.159374 91.56458 35.784374 91.56458Q36.534374 91.56458 37.05 91.04896Q37.565624 90.53333 37.565624 89.76771Q37.565624 89.04896 37.08125 88.58021Q36.6125 88.09583 35.878124 88.09583Q35.58125 88.09583 35.128124 88.22083L35.253124 87.28333Q35.3625 87.29896 35.425 87.29896Q36.096874 87.29896 36.628124 86.95521Q37.175 86.59583 37.175 85.86146Q37.175 85.28333 36.784374 84.90833Q36.39375 84.51771 35.76875 84.51771Q35.159374 84.51771 34.7375 84.90833Q34.33125 85.29896 34.221874 86.06458L33.159374 85.87708Q33.346874 84.83021 34.034374 84.25208Q34.721874 83.65833 35.7375 83.65833Q36.440624 83.65833 37.034374 83.97083Q37.628124 84.26771 37.940624 84.78333Q38.253124 85.29896 38.253124 85.89271Q38.253124 86.43958 37.95625 86.90833Q37.659374 87.36146 37.08125 87.62708Q37.83125 87.79896 38.253124 88.36146Q38.675 88.90833 38.675 89.75208Q38.675 90.87708 37.846874 91.65833Q37.034374 92.43958 35.784374 92.43958Q34.659374 92.43958 33.909374 91.76771Q33.159374 91.08021 33.05 90.01771Z" fill-rule="nonzero"/><path fill="#000000" d="M93.1323 317.45L92.08543 317.45L92.08543 310.73126Q91.6948 311.09064 91.0698 311.46564Q90.46043 311.825 89.97605 311.9969L89.97605 310.98126Q90.85105 310.5594 91.5073 309.98126Q92.17918 309.3875 92.46043 308.825L93.1323 308.825L93.1323 317.45ZM96.16355 313.21564Q96.16355 311.6844 96.47605 310.7625Q96.78855 309.825 97.39793 309.325Q98.02293 308.825 98.96043 308.825Q99.64793 308.825 100.16355 309.10626Q100.6948 309.3875 101.03855 309.91876Q101.3823 310.4344 101.5698 311.1844Q101.7573 311.9344 101.7573 313.21564Q101.7573 314.73126 101.4448 315.65314Q101.14793 316.575 100.52293 317.09064Q99.91355 317.59064 98.96043 317.59064Q97.72605 317.59064 97.0073 316.7Q96.16355 315.6375 96.16355 313.21564ZM97.24168 313.21564Q97.24168 315.325 97.74168 316.02814Q98.24168 316.73126 98.96043 316.73126Q99.6948 316.73126 100.17918 316.02814Q100.67918 315.325 100.67918 313.21564Q100.67918 311.09064 100.17918 310.40314Q99.6948 309.7 98.9448 309.7Q98.22605 309.7 97.78855 310.3094Q97.24168 311.09064 97.24168 313.21564ZM103.16355 313.21564Q103.16355 311.6844 103.47605 310.7625Q103.78855 309.825 104.39793 309.325Q105.02293 308.825 105.96043 308.825Q106.64793 308.825 107.16355 309.10626Q107.6948 309.3875 108.03855 309.91876Q108.3823 310.4344 108.5698 311.1844Q108.7573 311.9344 108.7573 313.21564Q108.7573 314.73126 108.4448 315.65314Q108.14793 316.575 107.52293 317.09064Q106.91355 317.59064 105.96043 317.59064Q104.72605 317.59064 104.0073 316.7Q103.16355 315.6375 103.16355 313.21564ZM104.24168 313.21564Q104.24168 315.325 104.74168 316.02814Q105.24168 316.73126 105.96043 316.73126Q106.6948 316.73126 107.17918 316.02814Q107.67918 315.325 107.67918 313.21564Q107.67918 311.09064 107.17918 310.40314Q106.6948 309.7 105.9448 309.7Q105.22605 309.7 104.78855 310.3094Q104.24168 311.09064 104.24168 313.21564ZM110.16355 313.21564Q110.16355 311.6844 110.47605 310.7625Q110.78855 309.825 111.39793 309.325Q112.02293 308.825 112.96043 308.825Q113.64793 308.825 114.16355 309.10626Q114.6948 309.3875 115.03855 309.91876Q115.3823 310.4344 115.5698 311.1844Q115.7573 311.9344 115.7573 313.21564Q115.7573 314.73126 115.4448 315.65314Q115.14793 316.575 114.52293 317.09064Q113.91355 317.59064 112.96043 317.59064Q111.72605 317.59064 111.0073 316.7Q110.16355 315.6375 110.16355 313.21564ZM111.24168 313.21564Q111.24168 315.325 111.74168 316.02814Q112.24168 316.73126 112.96043 316.73126Q113.6948 316.73126 114.17918 316.02814Q114.67918 315.325 114.67918 313.21564Q114.67918 311.09064 114.17918 310.40314Q113.6948 309.7 112.9448 309.7Q112.22605 309.7 111.78855 310.3094Q111.24168 311.09064 111.24168 313.21564ZM117.16355 313.21564Q117.16355 311.6844 117.47605 310.7625Q117.78855 309.825 118.39793 309.325Q119.02293 308.825 119.96043 308.825Q120.64793 308.825 121.16355 309.10626Q121.6948 309.3875 122.03855 309.91876Q122.3823 310.4344 122.5698 311.1844Q122.7573 311.9344 122.7573 313.21564Q122.7573 314.73126 122.4448 315.65314Q122.14793 316.575 121.52293 317.09064Q120.91355 317.59064 119.96043 317.59064Q118.72605 317.59064 118.0073 316.7Q117.16355 315.6375 117.16355 313.21564ZM118.24168 313.21564Q118.24168 315.325 118.74168 316.02814Q119.24168 316.73126 119.96043 316.73126Q120.6948 316.73126 121.17918 316.02814Q121.67918 315.325 121.67918 313.21564Q121.67918 311.09064 121.17918 310.40314Q120.6948 309.7 119.9448 309.7Q119.22605 309.7 118.78855 310.3094Q118.24168 311.09064 118.24168 313.21564ZM124.16355 313.21564Q124.16355 311.6844 124.47605 310.7625Q124.78855 309.825 125.39793 309.325Q126.02293 308.825 126.96043 308.825Q127.64793 308.825 128.16354 309.10626Q128.6948 309.3875 129.03854 309.91876Q129.3823 310.4344 129.5698 311.1844Q129.7573 311.9344 129.7573 313.21564Q129.7573 314.73126 129.4448 315.65314Q129.14792 316.575 128.52292 317.09064Q127.91355 317.59064 126.96043 317.59064Q125.72605 317.59064 125.0073 316.7Q124.16355 315.6375 124.16355 313.21564ZM125.24168 313.21564Q125.24168 315.325 125.74168 316.02814Q126.24168 316.73126 126.96043 316.73126Q127.6948 316.73126 128.17917 316.02814Q128.67917 315.325 128.67917 313.21564Q128.67917 311.09064 128.17917 310.40314Q127.6948 309.7 126.9448 309.7Q126.22605 309.7 125.78855 310.3094Q125.24168 311.09064 125.24168 313.21564ZM131.16354 313.21564Q131.16354 311.6844 131.47604 310.7625Q131.78854 309.825 132.39792 309.325Q133.02292 308.825 133.96042 308.825Q134.64792 308.825 135.16354 309.10626Q135.6948 309.3875 136.03854 309.91876Q136.3823 310.4344 136.5698 311.1844Q136.7573 311.9344 136.7573 313.21564Q136.7573 314.73126 136.4448 315.65314Q136.14792 316.575 135.52292 317.09064Q134.91354 317.59064 133.96042 317.59064Q132.72604 317.59064 132.0073 316.7Q131.16354 315.6375 131.16354 313.21564ZM132.24167 313.21564Q132.24167 315.325 132.74167 316.02814Q133.24167 316.73126 133.96042 316.73126Q134.6948 316.73126 135.17917 316.02814Q135.67917 315.325 135.67917 313.21564Q135.67917 311.09064 135.17917 310.40314Q134.6948 309.7 133.9448 309.7Q133.22604 309.7 132.78854 310.3094Q132.24167 311.09064 132.24167 313.21564Z" fill-rule="nonzero"/><path fill="#000000" d="M194.87865 316.4344L194.87865 317.45L189.19115 317.45Q189.19115 317.075 189.31615 316.71564Q189.5349 316.1375 190.00365 315.575Q190.48802 315.0125 191.39427 314.27814Q192.80052 313.1219 193.2849 312.45Q193.7849 311.77814 193.7849 311.1844Q193.7849 310.5594 193.33177 310.1375Q192.87865 309.7 192.1599 309.7Q191.39427 309.7 190.94115 310.15314Q190.48802 310.60626 190.4724 311.41876L189.39427 311.3094Q189.50365 310.09064 190.2224 309.46564Q190.95677 308.825 192.19115 308.825Q193.42552 308.825 194.14427 309.5125Q194.86302 310.2 194.86302 311.21564Q194.86302 311.73126 194.64427 312.23126Q194.44115 312.71564 193.94115 313.27814Q193.45677 313.825 192.33177 314.77814Q191.37865 315.575 191.0974 315.8719Q190.83177 316.15314 190.6599 316.4344L194.87865 316.4344ZM196.33177 313.21564Q196.33177 311.6844 196.64427 310.7625Q196.95677 309.825 197.56615 309.325Q198.19115 308.825 199.12865 308.825Q199.81615 308.825 200.33177 309.10626Q200.86302 309.3875 201.20677 309.91876Q201.55052 310.4344 201.73802 311.1844Q201.92552 311.9344 201.92552 313.21564Q201.92552 314.73126 201.61302 315.65314Q201.31615 316.575 200.69115 317.09064Q200.08177 317.59064 199.12865 317.59064Q197.89427 317.59064 197.17552 316.7Q196.33177 315.6375 196.33177 313.21564ZM197.4099 313.21564Q197.4099 315.325 197.9099 316.02814Q198.4099 316.73126 199.12865 316.73126Q199.86302 316.73126 200.3474 316.02814Q200.8474 315.325 200.8474 313.21564Q200.8474 311.09064 200.3474 310.40314Q199.86302 309.7 199.11302 309.7Q198.39427 309.7 197.95677 310.3094Q197.4099 311.09064 197.4099 313.21564ZM203.33177 313.21564Q203.33177 311.6844 203.64427 310.7625Q203.95677 309.825 204.56615 309.325Q205.19115 308.825 206.12865 308.825Q206.81615 308.825 207.33177 309.10626Q207.86302 309.3875 208.20677 309.91876Q208.55052 310.4344 208.73802 311.1844Q208.92552 311.9344 208.92552 313.21564Q208.92552 314.73126 208.61302 315.65314Q208.31615 316.575 207.69115 317.09064Q207.08177 317.59064 206.12865 317.59064Q204.89427 317.59064 204.17552 316.7Q203.33177 315.6375 203.33177 313.21564ZM204.4099 313.21564Q204.4099 315.325 204.9099 316.02814Q205.4099 316.73126 206.12865 316.73126Q206.86302 316.73126 207.3474 316.02814Q207.8474 315.325 207.8474 313.21564Q207.8474 311.09064 207.3474 310.40314Q206.86302 309.7 206.11302 309.7Q205.39427 309.7 204.95677 310.3094Q204.4099 311.09064 204.4099 313.21564ZM210.33177 313.21564Q210.33177 311.6844 210.64427 310.7625Q210.95677 309.825 211.56615 309.325Q212.19115 308.825 213.12865 308.825Q213.81615 308.825 214.33177 309.10626Q214.86302 309.3875 215.20677 309.91876Q215.55052 310.4344 215.73802 311.1844Q215.92552 311.9344 215.92552 313.21564Q215.92552 314.73126 215.61302 315.65314Q215.31615 316.575 214.69115 317.09064Q214.08177 317.59064 213.12865 317.59064Q211.89427 317.59064 211.17552 316.7Q210.33177 315.6375 210.33177 313.21564ZM211.4099 313.21564Q211.4099 315.325 211.9099 316.02814Q212.4099 316.73126 213.12865 316.73126Q213.86302 316.73126 214.3474 316.02814Q214.8474 315.325 214.8474 313.21564Q214.8474 311.09064 214.3474 310.40314Q213.86302 309.7 213.11302 309.7Q212.39427 309.7 211.95677 310.3094Q211.4099 311.09064 211.4099 313.21564ZM217.33177 313.21564Q217.33177 311.6844 217.64427 310.7625Q217.95677 309.825 218.56615 309.325Q219.19115 308.825 220.12865 308.825Q220.81615 308.825 221.33177 309.10626Q221.86302 309.3875 222.20677 309.91876Q222.55052 310.4344 222.73802 311.1844Q222.92552 311.9344 222.92552 313.21564Q222.92552 314.73126 222.61302 315.65314Q222.31615 316.575 221.69115 317.09064Q221.08177 317.59064 220.12865 317.59064Q218.89427 317.59064 218.17552 316.7Q217.33177 315.6375 217.33177 313.21564ZM218.4099 313.21564Q218.4099 315.325 218.9099 316.02814Q219.4099 316.73126 220.12865 316.73126Q220.86302 316.73126 221.3474 316.02814Q221.8474 315.325 221.8474 313.21564Q221.8474 311.09064 221.3474 310.40314Q220.86302 309.7 220.11302 309.7Q219.39427 309.7 218.95677 310.3094Q218.4099 311.09064 218.4099 313.21564ZM224.33177 313.21564Q224.33177 311.6844 224.64427 310.7625Q224.95677 309.825 225.56615 309.325Q226.19115 308.825 227.12865 308.825Q227.81615 308.825 228.33177 309.10626Q228.86302 309.3875 229.20677 309.91876Q229.55052 310.4344 229.73802 311.1844Q229.92552 311.9344 229.92552 313.21564Q229.92552 314.73126 229.61302 315.65314Q229.31615 316.575 228.69115 317.09064Q228.08177 317.59064 227.12865 317.59064Q225.89427 317.59064 225.17552 316.7Q224.33177 315.6375 224.33177 313.21564ZM225.4099 313.21564Q225.4099 315.325 225.9099 316.02814Q226.4099 316.73126 227.12865 316.73126Q227.86302 316.73126 228.3474 316.02814Q228.8474 315.325 228.8474 313.21564Q228.8474 311.09064 228.3474 310.40314Q227.86302 309.7 227.11302 309.7Q226.39427 309.7 225.95677 310.3094Q225.4099 311.09064 225.4099 313.21564ZM231.33177 313.21564Q231.33177 311.6844 231.64427 310.7625Q231.95677 309.825 232.56615 309.325Q233.19115 308.825 234.12865 308.825Q234.81615 308.825 235.33177 309.10626Q235.86302 309.3875 236.20677 309.91876Q236.55052 310.4344 236.73802 311.1844Q236.92552 311.9344 236.92552 313.21564Q236.92552 314.73126 236.61302 315.65314Q236.31615 316.575 235.69115 317.09064Q235.08177 317.59064 234.12865 317.59064Q232.89427 317.59064 232.17552 316.7Q231.33177 315.6375 231.33177 313.21564ZM232.4099 313.21564Q232.4099 315.325 232.9099 316.02814Q233.4099 316.73126 234.12865 316.73126Q234.86302 316.73126 235.3474 316.02814Q235.8474 315.325 235.8474 313.21564Q235.8474 311.09064 235.3474 310.40314Q234.86302 309.7 234.11302 309.7Q233.39427 309.7 232.95677 310.3094Q232.4099 311.09064 232.4099 313.21564Z" fill-rule="nonzero"/><path fill="#000000" d="M289.5 315.1844L290.5625 315.04376Q290.73438 315.9344 291.17188 316.34064Q291.60938 316.73126 292.23438 316.73126Q292.98438 316.73126 293.5 316.21564Q294.01562 315.7 294.01562 314.9344Q294.01562 314.21564 293.53125 313.7469Q293.0625 313.2625 292.32812 313.2625Q292.03125 313.2625 291.57812 313.3875L291.70312 312.45Q291.8125 312.46564 291.875 312.46564Q292.54688 312.46564 293.07812 312.1219Q293.625 311.7625 293.625 311.02814Q293.625 310.45 293.23438 310.075Q292.84375 309.6844 292.21875 309.6844Q291.60938 309.6844 291.1875 310.075Q290.78125 310.46564 290.67188 311.23126L289.60938 311.04376Q289.79688 309.9969 290.48438 309.41876Q291.17188 308.825 292.1875 308.825Q292.89062 308.825 293.48438 309.1375Q294.07812 309.4344 294.39062 309.95Q294.70312 310.46564 294.70312 311.0594Q294.70312 311.60626 294.40625 312.075Q294.10938 312.52814 293.53125 312.79376Q294.28125 312.96564 294.70312 313.52814Q295.125 314.075 295.125 314.91876Q295.125 316.04376 294.29688 316.825Q293.48438 317.60626 292.23438 317.60626Q291.10938 317.60626 290.35938 316.9344Q289.60938 316.2469 289.5 315.1844ZM296.5 313.21564Q296.5 311.6844 296.8125 310.7625Q297.125 309.825 297.73438 309.325Q298.35938 308.825 299.29688 308.825Q299.98438 308.825 300.5 309.10626Q301.03125 309.3875 301.375 309.91876Q301.71875 310.4344 301.90625 311.1844Q302.09375 311.9344 302.09375 313.21564Q302.09375 314.73126 301.78125 315.65314Q301.48438 316.575 300.85938 317.09064Q300.25 317.59064 299.29688 317.59064Q298.0625 317.59064 297.34375 316.7Q296.5 315.6375 296.5 313.21564ZM297.57812 313.21564Q297.57812 315.325 298.07812 316.02814Q298.57812 316.73126 299.29688 316.73126Q300.03125 316.73126 300.51562 316.02814Q301.01562 315.325 301.01562 313.21564Q301.01562 311.09064 300.51562 310.40314Q300.03125 309.7 299.28125 309.7Q298.5625 309.7 298.125 310.3094Q297.57812 311.09064 297.57812 313.21564ZM303.5 313.21564Q303.5 311.6844 303.8125 310.7625Q304.125 309.825 304.73438 309.325Q305.35938 308.825 306.29688 308.825Q306.98438 308.825 307.5 309.10626Q308.03125 309.3875 308.375 309.91876Q308.71875 310.4344 308.90625 311.1844Q309.09375 311.9344 309.09375 313.21564Q309.09375 314.73126 308.78125 315.65314Q308.48438 316.575 307.85938 317.09064Q307.25 317.59064 306.29688 317.59064Q305.0625 317.59064 304.34375 316.7Q303.5 315.6375 303.5 313.21564ZM304.57812 313.21564Q304.57812 315.325 305.07812 316.02814Q305.57812 316.73126 306.29688 316.73126Q307.03125 316.73126 307.51562 316.02814Q308.01562 315.325 308.01562 313.21564Q308.01562 311.09064 307.51562 310.40314Q307.03125 309.7 306.28125 309.7Q305.5625 309.7 305.125 310.3094Q304.57812 311.09064 304.57812 313.21564ZM310.5 313.21564Q310.5 311.6844 310.8125 310.7625Q311.125 309.825 311.73438 309.325Q312.35938 308.825 313.29688 308.825Q313.98438 308.825 314.5 309.10626Q315.03125 309.3875 315.375 309.91876Q315.71875 310.4344 315.90625 311.1844Q316.09375 311.9344 316.09375 313.21564Q316.09375 314.73126 315.78125 315.65314Q315.48438 316.575 314.85938 317.09064Q314.25 317.59064 313.29688 317.59064Q312.0625 317.59064 311.34375 316.7Q310.5 315.6375 310.5 313.21564ZM311.57812 313.21564Q311.57812 315.325 312.07812 316.02814Q312.57812 316.73126 313.29688 316.73126Q314.03125 316.73126 314.51562 316.02814Q315.01562 315.325 315.01562 313.21564Q315.01562 311.09064 314.51562 310.40314Q314.03125 309.7 313.28125 309.7Q312.5625 309.7 312.125 310.3094Q311.57812 311.09064 311.57812 313.21564ZM317.5 313.21564Q317.5 311.6844 317.8125 310.7625Q318.125 309.825 318.73438 309.325Q319.35938 308.825 320.29688 308.825Q320.98438 308.825 321.5 309.10626Q322.03125 309.3875 322.375 309.91876Q322.71875 310.4344 322.90625 311.1844Q323.09375 311.9344 323.09375 313.21564Q323.09375 314.73126 322.78125 315.65314Q322.48438 316.575 321.85938 317.09064Q321.25 317.59064 320.29688 317.59064Q319.0625 317.59064 318.34375 316.7Q317.5 315.6375 317.5 313.21564ZM318.57812 313.21564Q318.57812 315.325 319.07812 316.02814Q319.57812 316.73126 320.29688 316.73126Q321.03125 316.73126 321.51562 316.02814Q322.01562 315.325 322.01562 313.21564Q322.01562 311.09064 321.51562 310.40314Q321.03125 309.7 320.28125 309.7Q319.5625 309.7 319.125 310.3094Q318.57812 311.09064 318.57812 313.21564ZM324.5 313.21564Q324.5 311.6844 324.8125 310.7625Q325.125 309.825 325.73438 309.325Q326.35938 308.825 327.29688 308.825Q327.98438 308.825 328.5 309.10626Q329.03125 309.3875 329.375 309.91876Q329.71875 310.4344 329.90625 311.1844Q330.09375 311.9344 330.09375 313.21564Q330.09375 314.73126 329.78125 315.65314Q329.48438 316.575 328.85938 317.09064Q328.25 317.59064 327.29688 317.59064Q326.0625 317.59064 325.34375 316.7Q324.5 315.6375 324.5 313.21564ZM325.57812 313.21564Q325.57812 315.325 326.07812 316.02814Q326.57812 316.73126 327.29688 316.73126Q328.03125 316.73126 328.51562 316.02814Q329.01562 315.325 329.01562 313.21564Q329.01562 311.09064 328.51562 310.40314Q328.03125 309.7 327.28125 309.7Q326.5625 309.7 326.125 310.3094Q325.57812 311.09064 325.57812 313.21564ZM331.5 313.21564Q331.5 311.6844 331.8125 310.7625Q332.125 309.825 332.73438 309.325Q333.35938 308.825 334.29688 308.825Q334.98438 308.825 335.5 309.10626Q336.03125 309.3875 336.375 309.91876Q336.71875 310.4344 336.90625 311.1844Q337.09375 311.9344 337.09375 313.21564Q337.09375 314.73126 336.78125 315.65314Q336.48438 316.575 335.85938 317.09064Q335.25 317.59064 334.29688 317.59064Q333.0625 317.59064 332.34375 316.7Q331.5 315.6375 331.5 313.21564ZM332.57812 313.21564Q332.57812 315.325 333.07812 316.02814Q333.57812 316.73126 334.29688 316.73126Q335.03125 316.73126 335.51562 316.02814Q336.01562 315.325 336.01562 313.21564Q336.01562 311.09064 335.51562 310.40314Q335.03125 309.7 334.28125 309.7Q333.5625 309.7 333.125 310.3094Q332.57812 311.09064 332.57812 313.21564Z" fill-rule="nonzero"/><path fill="#000000" d="M393.0432 317.45L393.0432 315.3875L389.32446 315.3875L389.32446 314.41876L393.24634 308.85626L394.1057 308.85626L394.1057 314.41876L395.26196 314.41876L395.26196 315.3875L394.1057 315.3875L394.1057 317.45L393.0432 317.45ZM393.0432 314.41876L393.0432 310.5594L390.3557 314.41876L393.0432 314.41876ZM396.6682 313.21564Q396.6682 311.6844 396.9807 310.7625Q397.2932 309.825 397.9026 309.325Q398.5276 308.825 399.4651 308.825Q400.1526 308.825 400.6682 309.10626Q401.19946 309.3875 401.5432 309.91876Q401.88696 310.4344 402.07446 311.1844Q402.26196 311.9344 402.26196 313.21564Q402.26196 314.73126 401.94946 315.65314Q401.6526 316.575 401.0276 317.09064Q400.4182 317.59064 399.4651 317.59064Q398.2307 317.59064 397.51196 316.7Q396.6682 315.6375 396.6682 313.21564ZM397.74634 313.21564Q397.74634 315.325 398.24634 316.02814Q398.74634 316.73126 399.4651 316.73126Q400.19946 316.73126 400.68384 316.02814Q401.18384 315.325 401.18384 313.21564Q401.18384 311.09064 400.68384 310.40314Q400.19946 309.7 399.44946 309.7Q398.7307 309.7 398.2932 310.3094Q397.74634 311.09064 397.74634 313.21564ZM403.6682 313.21564Q403.6682 311.6844 403.9807 310.7625Q404.2932 309.825 404.9026 309.325Q405.5276 308.825 406.4651 308.825Q407.1526 308.825 407.6682 309.10626Q408.19946 309.3875 408.5432 309.91876Q408.88696 310.4344 409.07446 311.1844Q409.26196 311.9344 409.26196 313.21564Q409.26196 314.73126 408.94946 315.65314Q408.6526 316.575 408.0276 317.09064Q407.4182 317.59064 406.4651 317.59064Q405.2307 317.59064 404.51196 316.7Q403.6682 315.6375 403.6682 313.21564ZM404.74634 313.21564Q404.74634 315.325 405.24634 316.02814Q405.74634 316.73126 406.4651 316.73126Q407.19946 316.73126 407.68384 316.02814Q408.18384 315.325 408.18384 313.21564Q408.18384 311.09064 407.68384 310.40314Q407.19946 309.7 406.44946 309.7Q405.7307 309.7 405.2932 310.3094Q404.74634 311.09064 404.74634 313.21564ZM410.6682 313.21564Q410.6682 311.6844 410.9807 310.7625Q411.2932 309.825 411.9026 309.325Q412.5276 308.825 413.4651 308.825Q414.1526 308.825 414.6682 309.10626Q415.19946 309.3875 415.5432 309.91876Q415.88696 310.4344 416.07446 311.1844Q416.26196 311.9344 416.26196 313.21564Q416.26196 314.73126 415.94946 315.65314Q415.6526 316.575 415.0276 317.09064Q414.4182 317.59064 413.4651 317.59064Q412.2307 317.59064 411.51196 316.7Q410.6682 315.6375 410.6682 313.21564ZM411.74634 313.21564Q411.74634 315.325 412.24634 316.02814Q412.74634 316.73126 413.4651 316.73126Q414.19946 316.73126 414.68384 316.02814Q415.18384 315.325 415.18384 313.21564Q415.18384 311.09064 414.68384 310.40314Q414.19946 309.7 413.44946 309.7Q412.7307 309.7 412.2932 310.3094Q411.74634 311.09064 411.74634 313.21564ZM417.6682 313.21564Q417.6682 311.6844 417.9807 310.7625Q418.2932 309.825 418.9026 309.325Q419.5276 308.825 420.4651 308.825Q421.1526 308.825 421.6682 309.10626Q422.19946 309.3875 422.5432 309.91876Q422.88696 310.4344 423.07446 311.1844Q423.26196 311.9344 423.26196 313.21564Q423.26196 314.73126 422.94946 315.65314Q422.6526 316.575 422.0276 317.09064Q421.4182 317.59064 420.4651 317.59064Q419.2307 317.59064 418.51196 316.7Q417.6682 315.6375 417.6682 313.21564ZM418.74634 313.21564Q418.74634 315.325 419.24634 316.02814Q419.74634 316.73126 420.4651 316.73126Q421.19946 316.73126 421.68384 316.02814Q422.18384 315.325 422.18384 313.21564Q422.18384 311.09064 421.68384 310.40314Q421.19946 309.7 420.44946 309.7Q419.7307 309.7 419.2932 310.3094Q418.74634 311.09064 418.74634 313.21564ZM424.6682 313.21564Q424.6682 311.6844 424.9807 310.7625Q425.2932 309.825 425.9026 309.325Q426.5276 308.825 427.4651 308.825Q428.1526 308.825 428.6682 309.10626Q429.19946 309.3875 429.5432 309.91876Q429.88696 310.4344 430.07446 311.1844Q430.26196 311.9344 430.26196 313.21564Q430.26196 314.73126 429.94946 315.65314Q429.6526 316.575 429.0276 317.09064Q428.4182 317.59064 427.4651 317.59064Q426.2307 317.59064 425.51196 316.7Q424.6682 315.6375 424.6682 313.21564ZM425.74634 313.21564Q425.74634 315.325 426.24634 316.02814Q426.74634 316.73126 427.4651 316.73126Q428.19946 316.73126 428.68384 316.02814Q429.18384 315.325 429.18384 313.21564Q429.18384 311.09064 428.68384 310.40314Q428.19946 309.7 427.44946 309.7Q426.7307 309.7 426.2932 310.3094Q425.74634 311.09064 425.74634 313.21564ZM431.6682 313.21564Q431.6682 311.6844 431.9807 310.7625Q432.2932 309.825 432.9026 309.325Q433.5276 308.825 434.4651 308.825Q435.1526 308.825 435.6682 309.10626Q436.19946 309.3875 436.5432 309.91876Q436.88696 310.4344 437.07446 311.1844Q437.26196 311.9344 437.26196 313.21564Q437.26196 314.73126 436.94946 315.65314Q436.6526 316.575 436.0276 317.09064Q435.4182 317.59064 434.4651 317.59064Q433.2307 317.59064 432.51196 316.7Q431.6682 315.6375 431.6682 313.21564ZM432.74634 313.21564Q432.74634 315.325 433.24634 316.02814Q433.74634 316.73126 434.4651 316.73126Q435.19946 316.73126 435.68384 316.02814Q436.18384 315.325 436.18384 313.21564Q436.18384 311.09064 435.68384 310.40314Q435.19946 309.7 434.44946 309.7Q433.7307 309.7 433.2932 310.3094Q432.74634 311.09064 432.74634 313.21564Z" fill-rule="nonzero"/><path fill="#000000" d="M489.83646 315.2L490.94583 315.10626Q491.07083 315.91876 491.50833 316.325Q491.96146 316.73126 492.60208 316.73126Q493.35208 316.73126 493.88333 316.15314Q494.41458 315.575 494.41458 314.6375Q494.41458 313.73126 493.89896 313.21564Q493.39896 312.6844 492.57083 312.6844Q492.07083 312.6844 491.64896 312.91876Q491.2427 313.15314 491.00833 313.5125L490.02396 313.3875L490.85208 308.98126L495.13333 308.98126L495.13333 309.98126L491.69583 309.98126L491.2427 312.29376Q492.00833 311.7469 492.85208 311.7469Q493.97708 311.7469 494.7427 312.52814Q495.52396 313.3094 495.52396 314.54376Q495.52396 315.7 494.85208 316.5594Q494.02396 317.59064 492.60208 317.59064Q491.4302 317.59064 490.6802 316.9344Q489.94583 316.27814 489.83646 315.2ZM496.83646 313.21564Q496.83646 311.6844 497.14896 310.7625Q497.46146 309.825 498.07083 309.325Q498.69583 308.825 499.63333 308.825Q500.32083 308.825 500.83646 309.10626Q501.3677 309.3875 501.71146 309.91876Q502.0552 310.4344 502.2427 311.1844Q502.4302 311.9344 502.4302 313.21564Q502.4302 314.73126 502.1177 315.65314Q501.82083 316.575 501.19583 317.09064Q500.58646 317.59064 499.63333 317.59064Q498.39896 317.59064 497.6802 316.7Q496.83646 315.6375 496.83646 313.21564ZM497.91458 313.21564Q497.91458 315.325 498.41458 316.02814Q498.91458 316.73126 499.63333 316.73126Q500.3677 316.73126 500.85208 316.02814Q501.35208 315.325 501.35208 313.21564Q501.35208 311.09064 500.85208 310.40314Q500.3677 309.7 499.6177 309.7Q498.89896 309.7 498.46146 310.3094Q497.91458 311.09064 497.91458 313.21564ZM503.83646 313.21564Q503.83646 311.6844 504.14896 310.7625Q504.46146 309.825 505.07083 309.325Q505.69583 308.825 506.63333 308.825Q507.32083 308.825 507.83646 309.10626Q508.3677 309.3875 508.71146 309.91876Q509.0552 310.4344 509.2427 311.1844Q509.4302 311.9344 509.4302 313.21564Q509.4302 314.73126 509.1177 315.65314Q508.82083 316.575 508.19583 317.09064Q507.58646 317.59064 506.63333 317.59064Q505.39896 317.59064 504.6802 316.7Q503.83646 315.6375 503.83646 313.21564ZM504.91458 313.21564Q504.91458 315.325 505.41458 316.02814Q505.91458 316.73126 506.63333 316.73126Q507.3677 316.73126 507.85208 316.02814Q508.35208 315.325 508.35208 313.21564Q508.35208 311.09064 507.85208 310.40314Q507.3677 309.7 506.6177 309.7Q505.89896 309.7 505.46146 310.3094Q504.91458 311.09064 504.91458 313.21564ZM510.83646 313.21564Q510.83646 311.6844 511.14896 310.7625Q511.46146 309.825 512.0708 309.325Q512.6958 308.825 513.6333 308.825Q514.3208 308.825 514.8364 309.10626Q515.3677 309.3875 515.7114 309.91876Q516.0552 310.4344 516.2427 311.1844Q516.4302 311.9344 516.4302 313.21564Q516.4302 314.73126 516.1177 315.65314Q515.8208 316.575 515.1958 317.09064Q514.5864 317.59064 513.6333 317.59064Q512.3989 317.59064 511.6802 316.7Q510.83646 315.6375 510.83646 313.21564ZM511.91458 313.21564Q511.91458 315.325 512.41455 316.02814Q512.91455 316.73126 513.6333 316.73126Q514.3677 316.73126 514.85205 316.02814Q515.35205 315.325 515.35205 313.21564Q515.35205 311.09064 514.85205 310.40314Q514.3677 309.7 513.6177 309.7Q512.8989 309.7 512.4614 310.3094Q511.91458 311.09064 511.91458 313.21564ZM517.8364 313.21564Q517.8364 311.6844 518.1489 310.7625Q518.4614 309.825 519.0708 309.325Q519.6958 308.825 520.6333 308.825Q521.3208 308.825 521.8364 309.10626Q522.3677 309.3875 522.7114 309.91876Q523.0552 310.4344 523.2427 311.1844Q523.4302 311.9344 523.4302 313.21564Q523.4302 314.73126 523.1177 315.65314Q522.8208 316.575 522.1958 317.09064Q521.5864 317.59064 520.6333 317.59064Q519.3989 317.59064 518.6802 316.7Q517.8364 315.6375 517.8364 313.21564ZM518.91455 313.21564Q518.91455 315.325 519.41455 316.02814Q519.91455 316.73126 520.6333 316.73126Q521.3677 316.73126 521.85205 316.02814Q522.35205 315.325 522.35205 313.21564Q522.35205 311.09064 521.85205 310.40314Q521.3677 309.7 520.6177 309.7Q519.8989 309.7 519.4614 310.3094Q518.91455 311.09064 518.91455 313.21564ZM524.8364 313.21564Q524.8364 311.6844 525.1489 310.7625Q525.4614 309.825 526.0708 309.325Q526.6958 308.825 527.6333 308.825Q528.3208 308.825 528.8364 309.10626Q529.3677 309.3875 529.7114 309.91876Q530.0552 310.4344 530.2427 311.1844Q530.4302 311.9344 530.4302 313.21564Q530.4302 314.73126 530.1177 315.65314Q529.8208 316.575 529.1958 317.09064Q528.5864 317.59064 527.6333 317.59064Q526.3989 317.59064 525.6802 316.7Q524.8364 315.6375 524.8364 313.21564ZM525.91455 313.21564Q525.91455 315.325 526.41455 316.02814Q526.91455 316.73126 527.6333 316.73126Q528.3677 316.73126 528.85205 316.02814Q529.35205 315.325 529.35205 313.21564Q529.35205 311.09064 528.85205 310.40314Q528.3677 309.7 527.6177 309.7Q526.8989 309.7 526.4614 310.3094Q525.91455 311.09064 525.91455 313.21564ZM531.8364 313.21564Q531.8364 311.6844 532.1489 310.7625Q532.4614 309.825 533.0708 309.325Q533.6958 308.825 534.6333 308.825Q535.3208 308.825 535.8364 309.10626Q536.3677 309.3875 536.7114 309.91876Q537.0552 310.4344 537.2427 311.1844Q537.4302 311.9344 537.4302 313.21564Q537.4302 314.73126 537.1177 315.65314Q536.8208 316.575 536.1958 317.09064Q535.5864 317.59064 534.6333 317.59064Q533.3989 317.59064 532.6802 316.7Q531.8364 315.6375 531.8364 313.21564ZM532.91455 313.21564Q532.91455 315.325 533.41455 316.02814Q533.91455 316.73126 534.6333 316.73126Q535.3677 316.73126 535.85205 316.02814Q536.35205 315.325 536.35205 313.21564Q536.35205 311.09064 535.85205 310.40314Q535.3677 309.7 534.6177 309.7Q533.8989 309.7 533.4614 310.3094Q532.91455 311.09064 532.91455 313.21564Z" fill-rule="nonzero"/><path fill="#4285f4" d="M217.0 56.916668C217.0 56.364384 217.44771 55.916668 218.0 55.916668L228.0 55.916668C228.55229 55.916668 229.0 56.364384 229.0 56.916668L229.0 66.916664C229.0 67.46895 228.55229 67.916664 228.0 67.916664L218.0 67.916664C217.44771 67.916664 217.0 67.46895 217.0 66.916664Z" fill-rule="nonzero"/><path fill="#1a1a1a" d="M237.54688 63.15104L238.60938 63.05729Q238.6875 63.71354 238.96875 64.11979Q239.25 64.52604 239.82812 64.791664Q240.42188 65.041664 241.15625 65.041664Q241.79688 65.041664 242.29688 64.854164Q242.79688 64.65104 243.03125 64.322914Q243.28125 63.979164 243.28125 63.58854Q243.28125 63.18229 243.04688 62.885414Q242.8125 62.572914 242.28125 62.36979Q241.92188 62.229164 240.73438 61.947914Q239.5625 61.666664 239.09375 61.416664Q238.46875 61.08854 238.17188 60.61979Q237.875 60.135414 237.875 59.541664Q237.875 58.90104 238.23438 58.33854Q238.60938 57.760414 239.3125 57.479164Q240.03125 57.18229 240.89062 57.18229Q241.84375 57.18229 242.57812 57.49479Q243.3125 57.791664 243.70312 58.40104Q244.09375 58.99479 244.125 59.74479L243.03125 59.822914Q242.9375 59.010414 242.42188 58.604164Q241.92188 58.18229 240.9375 58.18229Q239.90625 58.18229 239.4375 58.55729Q238.96875 58.93229 238.96875 59.46354Q238.96875 59.93229 239.29688 60.229164Q239.625 60.52604 241.0 60.83854Q242.39062 61.15104 242.90625 61.385414Q243.65625 61.74479 244.01562 62.27604Q244.375 62.791664 244.375 63.49479Q244.375 64.18229 243.98438 64.791664Q243.59375 65.385414 242.85938 65.729164Q242.125 66.05729 241.20312 66.05729Q240.03125 66.05729 239.23438 65.729164Q238.45312 65.385414 238.0 64.697914Q237.5625 64.010414 237.54688 63.15104ZM246.125 65.916664L246.125 57.322914L247.25 57.322914L247.25 65.916664L246.125 65.916664ZM248.89062 65.916664L248.89062 57.322914L250.60938 57.322914L252.64062 63.40104Q252.92188 64.260414 253.04688 64.68229Q253.1875 64.21354 253.5 63.30729L255.5625 57.322914L257.09375 57.322914L257.09375 65.916664L256.0 65.916664L256.0 58.729164L253.5 65.916664L252.46875 65.916664L249.98438 58.604164L249.98438 65.916664L248.89062 65.916664ZM257.92188 65.916664L257.92188 57.322914L260.89062 57.322914Q261.89062 57.322914 262.42188 57.447914Q263.15625 57.61979 263.67188 58.05729Q264.35938 58.635414 264.6875 59.541664Q265.03125 60.43229 265.03125 61.572914Q265.03125 62.55729 264.79688 63.30729Q264.57812 64.05729 264.21875 64.55729Q263.85938 65.05729 263.42188 65.33854Q263.0 65.61979 262.40625 65.77604Q261.8125 65.916664 261.03125 65.916664L257.92188 65.916664ZM259.0625 64.90104L260.89062 64.90104Q261.75 64.90104 262.23438 64.74479Q262.71875 64.58854 263.0 64.291664Q263.40625 63.90104 263.625 63.21354Q263.85938 62.52604 263.85938 61.55729Q263.85938 60.21354 263.40625 59.49479Q262.96875 58.760414 262.34375 58.510414Q261.875 58.33854 260.875 58.33854L259.0625 58.33854L259.0625 64.90104ZM275.04688 64.90104L275.04688 65.916664L269.35938 65.916664Q269.35938 65.541664 269.48438 65.18229Q269.70312 64.604164 270.17188 64.041664Q270.65625 63.479164 271.5625 62.74479Q272.96875 61.58854 273.45312 60.916664Q273.95312 60.24479 273.95312 59.65104Q273.95312 59.02604 273.5 58.604164Q273.04688 58.166664 272.32812 58.166664Q271.5625 58.166664 271.10938 58.61979Q270.65625 59.072914 270.64062 59.885414L269.5625 59.77604Q269.67188 58.55729 270.39062 57.93229Q271.125 57.291664 272.35938 57.291664Q273.59375 57.291664 274.3125 57.979164Q275.03125 58.666664 275.03125 59.68229Q275.03125 60.197914 274.8125 60.697914Q274.60938 61.18229 274.10938 61.74479Q273.625 62.291664 272.5 63.24479Q271.54688 64.041664 271.26562 64.33854Q271.0 64.61979 270.82812 64.90104L275.04688 64.90104ZM276.5 63.666664L277.60938 63.572914Q277.73438 64.385414 278.17188 64.791664Q278.625 65.197914 279.26562 65.197914Q280.01562 65.197914 280.54688 64.61979Q281.07812 64.041664 281.07812 63.104164Q281.07812 62.197914 280.5625 61.68229Q280.0625 61.15104 279.23438 61.15104Q278.73438 61.15104 278.3125 61.385414Q277.90625 61.61979 277.67188 61.979164L276.6875 61.854164L277.51562 57.447914L281.79688 57.447914L281.79688 58.447914L278.35938 58.447914L277.90625 60.760414Q278.67188 60.21354 279.51562 60.21354Q280.64062 60.21354 281.40625 60.99479Q282.1875 61.77604 282.1875 63.010414Q282.1875 64.166664 281.51562 65.02604Q280.6875 66.05729 279.26562 66.05729Q278.09375 66.05729 277.34375 65.40104Q276.60938 64.74479 276.5 63.666664ZM288.96875 59.43229L287.92188 59.510414Q287.78125 58.885414 287.53125 58.604164Q287.09375 58.15104 286.46875 58.15104Q285.96875 58.15104 285.57812 58.43229Q285.09375 58.80729 284.79688 59.510414Q284.51562 60.197914 284.5 61.479164Q284.875 60.90104 285.42188 60.61979Q285.98438 60.33854 286.59375 60.33854Q287.64062 60.33854 288.375 61.11979Q289.125 61.90104 289.125 63.11979Q289.125 63.93229 288.76562 64.635414Q288.42188 65.322914 287.8125 65.697914Q287.20312 66.05729 286.4375 66.05729Q285.10938 66.05729 284.28125 65.08854Q283.45312 64.11979 283.45312 61.90104Q283.45312 59.40104 284.375 58.27604Q285.17188 57.291664 286.53125 57.291664Q287.54688 57.291664 288.1875 57.86979Q288.84375 58.43229 288.96875 59.43229ZM284.67188 63.135414Q284.67188 63.68229 284.89062 64.18229Q285.125 64.666664 285.53125 64.93229Q285.95312 65.197914 286.42188 65.197914Q287.07812 65.197914 287.5625 64.666664Q288.04688 64.11979 288.04688 63.197914Q288.04688 62.30729 287.5625 61.791664Q287.09375 61.27604 286.375 61.27604Q285.65625 61.27604 285.15625 61.791664Q284.67188 62.30729 284.67188 63.135414Z" fill-rule="nonzero"/><path fill="#ea4335" d="M306.0 56.916668C306.0 56.364384 306.44772 55.916668 307.0 55.916668L317.0 55.916668C317.55228 55.916668 318.0 56.364384 318.0 56.916668L318.0 66.916664C318.0 67.46895 317.55228 67.916664 317.0 67.916664L307.0 67.916664C306.44772 67.916664 306.0 67.46895 306.0 66.916664Z" fill-rule="nonzero"/><path fill="#1a1a1a" d="M326.54688 63.15104L327.60938 63.05729Q327.6875 63.71354 327.96875 64.11979Q328.25 64.52604 328.82812 64.791664Q329.42188 65.041664 330.15625 65.041664Q330.79688 65.041664 331.29688 64.854164Q331.79688 64.65104 332.03125 64.322914Q332.28125 63.979164 332.28125 63.58854Q332.28125 63.18229 332.04688 62.885414Q331.8125 62.572914 331.28125 62.36979Q330.92188 62.229164 329.73438 61.947914Q328.5625 61.666664 328.09375 61.416664Q327.46875 61.08854 327.17188 60.61979Q326.875 60.135414 326.875 59.541664Q326.875 58.90104 327.23438 58.33854Q327.60938 57.760414 328.3125 57.479164Q329.03125 57.18229 329.89062 57.18229Q330.84375 57.18229 331.57812 57.49479Q332.3125 57.791664 332.70312 58.40104Q333.09375 58.99479 333.125 59.74479L332.03125 59.822914Q331.9375 59.010414 331.42188 58.604164Q330.92188 58.18229 329.9375 58.18229Q328.90625 58.18229 328.4375 58.55729Q327.96875 58.93229 327.96875 59.46354Q327.96875 59.93229 328.29688 60.229164Q328.625 60.52604 330.0 60.83854Q331.39062 61.15104 331.90625 61.385414Q332.65625 61.74479 333.01562 62.27604Q333.375 62.791664 333.375 63.49479Q333.375 64.18229 332.98438 64.791664Q332.59375 65.385414 331.85938 65.729164Q331.125 66.05729 330.20312 66.05729Q329.03125 66.05729 328.23438 65.729164Q327.45312 65.385414 327.0 64.697914Q326.5625 64.010414 326.54688 63.15104ZM335.125 65.916664L335.125 57.322914L336.25 57.322914L336.25 65.916664L335.125 65.916664ZM337.89062 65.916664L337.89062 57.322914L339.60938 57.322914L341.64062 63.40104Q341.92188 64.260414 342.04688 64.68229Q342.1875 64.21354 342.5 63.30729L344.5625 57.322914L346.09375 57.322914L346.09375 65.916664L345.0 65.916664L345.0 58.729164L342.5 65.916664L341.46875 65.916664L338.98438 58.604164L338.98438 65.916664L337.89062 65.916664ZM346.92188 65.916664L346.92188 57.322914L349.89062 57.322914Q350.89062 57.322914 351.42188 57.447914Q352.15625 57.61979 352.67188 58.05729Q353.35938 58.635414 353.6875 59.541664Q354.03125 60.43229 354.03125 61.572914Q354.03125 62.55729 353.79688 63.30729Q353.57812 64.05729 353.21875 64.55729Q352.85938 65.05729 352.42188 65.33854Q352.0 65.61979 351.40625 65.77604Q350.8125 65.916664 350.03125 65.916664L346.92188 65.916664ZM348.0625 64.90104L349.89062 64.90104Q350.75 64.90104 351.23438 64.74479Q351.71875 64.58854 352.0 64.291664Q352.40625 63.90104 352.625 63.21354Q352.85938 62.52604 352.85938 61.55729Q352.85938 60.21354 352.40625 59.49479Q351.96875 58.760414 351.34375 58.510414Q350.875 58.33854 349.875 58.33854L348.0625 58.33854L348.0625 64.90104ZM354.8125 68.30729L354.8125 67.541664L361.8125 67.541664L361.8125 68.30729L354.8125 68.30729ZM366.46875 65.916664L365.42188 65.916664L365.42188 59.197914Q365.03125 59.55729 364.40625 59.93229Q363.79688 60.291664 363.3125 60.46354L363.3125 59.447914Q364.1875 59.02604 364.84375 58.447914Q365.51562 57.854164 365.79688 57.291664L366.46875 57.291664L366.46875 65.916664ZM375.04688 64.90104L375.04688 65.916664L369.35938 65.916664Q369.35938 65.541664 369.48438 65.18229Q369.70312 64.604164 370.17188 64.041664Q370.65625 63.479164 371.5625 62.74479Q372.96875 61.58854 373.45312 60.916664Q373.95312 60.24479 373.95312 59.65104Q373.95312 59.02604 373.5 58.604164Q373.04688 58.166664 372.32812 58.166664Q371.5625 58.166664 371.10938 58.61979Q370.65625 59.072914 370.64062 59.885414L369.5625 59.77604Q369.67188 58.55729 370.39062 57.93229Q371.125 57.291664 372.35938 57.291664Q373.59375 57.291664 374.3125 57.979164Q375.03125 58.666664 375.03125 59.68229Q375.03125 60.197914 374.8125 60.697914Q374.60938 61.18229 374.10938 61.74479Q373.625 62.291664 372.5 63.24479Q371.54688 64.041664 371.26562 64.33854Q371.0 64.61979 370.82812 64.90104L375.04688 64.90104ZM378.125 61.260414Q377.46875 61.010414 377.14062 60.572914Q376.82812 60.11979 376.82812 59.510414Q376.82812 58.572914 377.5 57.93229Q378.1875 57.291664 379.29688 57.291664Q380.42188 57.291664 381.10938 57.947914Q381.79688 58.604164 381.79688 59.541664Q381.79688 60.135414 381.48438 60.572914Q381.17188 61.010414 380.53125 61.260414Q381.32812 61.510414 381.73438 62.08854Q382.14062 62.666664 382.14062 63.46354Q382.14062 64.55729 381.35938 65.30729Q380.59375 66.05729 379.3125 66.05729Q378.04688 66.05729 377.26562 65.30729Q376.48438 64.55729 376.48438 63.43229Q376.48438 62.58854 376.90625 62.02604Q377.34375 61.46354 378.125 61.260414ZM377.90625 59.46354Q377.90625 60.072914 378.29688 60.46354Q378.70312 60.854164 379.32812 60.854164Q379.9375 60.854164 380.32812 60.479164Q380.71875 60.08854 380.71875 59.52604Q380.71875 58.947914 380.3125 58.55729Q379.90625 58.15104 379.3125 58.15104Q378.70312 58.15104 378.29688 58.541664Q377.90625 58.93229 377.90625 59.46354ZM377.57812 63.43229Q377.57812 63.885414 377.78125 64.30729Q378.0 64.729164 378.42188 64.96354Q378.84375 65.197914 379.32812 65.197914Q380.07812 65.197914 380.5625 64.71354Q381.0625 64.229164 381.0625 63.479164Q381.0625 62.71354 380.5625 62.21354Q380.0625 61.71354 379.29688 61.71354Q378.54688 61.71354 378.0625 62.21354Q377.57812 62.697914 377.57812 63.43229Z" fill-rule="nonzero"/><path fill="#757575" d="M19.45625 32.95625L21.2375 32.8Q21.3625 33.8625 21.815624 34.55Q22.284374 35.2375 23.253124 35.675Q24.2375 36.096874 25.471874 36.096874Q26.55 36.096874 27.378124 35.784374Q28.20625 35.45625 28.6125 34.89375Q29.01875 34.33125 29.01875 33.659374Q29.01875 32.9875 28.628124 32.4875Q28.2375 31.9875 27.346874 31.64375Q26.76875 31.409374 24.784374 30.940624Q22.815624 30.471874 22.034374 30.05Q21.003124 29.51875 20.503124 28.721874Q20.003124 27.925 20.003124 26.940624Q20.003124 25.846874 20.6125 24.909374Q21.221874 23.971874 22.409374 23.4875Q23.596874 22.9875 25.034374 22.9875Q26.628124 22.9875 27.846874 23.503124Q29.065624 24.01875 29.70625 25.01875Q30.3625 26.003124 30.409374 27.26875L28.596874 27.409374Q28.45625 26.05 27.6125 25.3625Q26.76875 24.659374 25.1125 24.659374Q23.39375 24.659374 22.596874 25.3Q21.815624 25.925 21.815624 26.8Q21.815624 27.58125 22.378124 28.08125Q22.925 28.58125 25.2375 29.096874Q27.55 29.6125 28.409374 30.003124Q29.659374 30.58125 30.253124 31.471874Q30.846874 32.346874 30.846874 33.503124Q30.846874 34.64375 30.190624 35.659374Q29.534374 36.675 28.3 37.2375Q27.08125 37.8 25.55 37.8Q23.6125 37.8 22.3 37.2375Q20.9875 36.659374 20.2375 35.51875Q19.4875 34.378124 19.45625 32.95625ZM33.409374 37.55L33.409374 23.2375L35.315624 23.2375L35.315624 37.55L33.409374 37.55ZM39.034374 37.55L39.034374 23.2375L41.89375 23.2375L45.26875 33.3625Q45.7375 34.784374 45.95625 35.4875Q46.20625 34.70625 46.721874 33.190624L50.14375 23.2375L52.690624 23.2375L52.690624 37.55L50.878124 37.55L50.878124 25.565624L46.70625 37.55L45.003124 37.55L40.8625 25.3625L40.8625 37.55L39.034374 37.55ZM56.096874 37.55L56.096874 23.2375L61.01875 23.2375Q62.690624 23.2375 63.58125 23.440624Q64.8 23.721874 65.675 24.45625Q66.8 25.425 67.3625 26.909374Q67.925 28.39375 67.925 30.315624Q67.925 31.940624 67.55 33.20625Q67.175 34.45625 66.56563 35.284374Q65.97188 36.1125 65.26875 36.596874Q64.56563 37.065624 63.565624 37.315624Q62.565624 37.55 61.253124 37.55L56.096874 37.55ZM57.9875 35.8625L61.05 35.8625Q62.45625 35.8625 63.253124 35.596874Q64.06563 35.33125 64.55 34.846874Q65.22188 34.175 65.59688 33.05Q65.97188 31.909374 65.97188 30.284374Q65.97188 28.034374 65.2375 26.83125Q64.50313 25.628124 63.440624 25.221874Q62.690624 24.925 61.003124 24.925L57.9875 24.925L57.9875 35.8625ZM84.6125 35.8625L84.6125 37.55L75.15938 37.55Q75.14375 36.909374 75.3625 36.33125Q75.72188 35.3625 76.51875 34.425Q77.31563 33.4875 78.81563 32.253124Q81.15938 30.346874 81.97188 29.2375Q82.8 28.1125 82.8 27.1125Q82.8 26.065624 82.05 25.346874Q81.3 24.628124 80.09688 24.628124Q78.83125 24.628124 78.06563 25.39375Q77.3 26.159374 77.3 27.503124L75.4875 27.315624Q75.675 25.3 76.87813 24.2375Q78.09688 23.175 80.14375 23.175Q82.19063 23.175 83.39375 24.315624Q84.59688 25.45625 84.59688 27.14375Q84.59688 28.003124 84.2375 28.846874Q83.89375 29.675 83.08125 30.596874Q82.26875 31.503124 80.37813 33.1125Q78.78438 34.440624 78.33125 34.909374Q77.89375 35.378124 77.59688 35.8625L84.6125 35.8625ZM86.37813 33.8L88.22188 33.64375Q88.425 34.9875 89.175 35.675Q89.925 36.346874 90.9875 36.346874Q92.25313 36.346874 93.12813 35.39375Q94.00313 34.440624 94.00313 32.846874Q94.00313 31.346874 93.15938 30.4875Q92.31563 29.6125 90.95625 29.6125Q90.09688 29.6125 89.40938 30.003124Q88.7375 30.378124 88.34688 31.003124L86.69063 30.784374L88.08125 23.425L95.20625 23.425L95.20625 25.1125L89.4875 25.1125L88.72188 28.95625Q90.00313 28.05 91.425 28.05Q93.3 28.05 94.58125 29.3625Q95.87813 30.659374 95.87813 32.690624Q95.87813 34.64375 94.7375 36.05Q93.3625 37.8 90.9875 37.8Q89.03438 37.8 87.78438 36.70625Q86.55 35.6125 86.37813 33.8ZM106.50313 26.7375L104.75313 26.878124Q104.51875 25.846874 104.09688 25.378124Q103.37813 24.6125 102.33125 24.6125Q101.4875 24.6125 100.8625 25.08125Q100.03438 25.690624 99.55 26.8625Q99.06563 28.01875 99.05 30.159374Q99.69063 29.20625 100.59688 28.7375Q101.51875 28.26875 102.53438 28.26875Q104.28438 28.26875 105.51875 29.565624Q106.75313 30.846874 106.75313 32.89375Q106.75313 34.253124 106.175 35.409374Q105.59688 36.565624 104.58125 37.190624Q103.56563 37.8 102.26875 37.8Q100.08125 37.8 98.69063 36.190624Q97.3 34.565624 97.3 30.846874Q97.3 26.70625 98.83125 24.815624Q100.175 23.175 102.44063 23.175Q104.12813 23.175 105.20625 24.128124Q106.28438 25.065624 106.50313 26.7375ZM99.33125 32.909374Q99.33125 33.815624 99.70625 34.64375Q100.09688 35.471874 100.78438 35.909374Q101.4875 36.346874 102.2375 36.346874Q103.3625 36.346874 104.15938 35.45625Q104.95625 34.55 104.95625 33.003124Q104.95625 31.51875 104.15938 30.675Q103.37813 29.815624 102.175 29.815624Q100.9875 29.815624 100.15938 30.675Q99.33125 31.51875 99.33125 32.909374ZM121.64375 36.26875Q120.65938 37.096874 119.75313 37.440624Q118.84688 37.784374 117.81563 37.784374Q116.1125 37.784374 115.19063 36.95625Q114.26875 36.1125 114.26875 34.815624Q114.26875 34.05 114.6125 33.425Q114.97188 32.8 115.53438 32.425Q116.09688 32.034374 116.8 31.83125Q117.31563 31.70625 118.3625 31.565624Q120.4875 31.315624 121.4875 30.971874Q121.50313 30.6125 121.50313 30.503124Q121.50313 29.440624 121.00313 28.9875Q120.33125 28.39375 119.00313 28.39375Q117.75313 28.39375 117.15938 28.83125Q116.58125 29.26875 116.3 30.378124L114.58125 30.14375Q114.81563 29.034374 115.34688 28.3625Q115.87813 27.675 116.89375 27.315624Q117.90938 26.940624 119.25313 26.940624Q120.58125 26.940624 121.40938 27.253124Q122.2375 27.565624 122.62813 28.05Q123.01875 28.51875 123.175 29.2375Q123.26875 29.690624 123.26875 30.8625L123.26875 33.20625Q123.26875 35.659374 123.37813 36.315624Q123.4875 36.95625 123.83125 37.55L121.9875 37.55Q121.72188 37.003124 121.64375 36.26875ZM121.4875 32.346874Q120.53438 32.7375 118.6125 33.003124Q117.53438 33.159374 117.08125 33.3625Q116.64375 33.55 116.39375 33.925Q116.14375 34.3 116.14375 34.76875Q116.14375 35.471874 116.675 35.940624Q117.20625 36.409374 118.2375 36.409374Q119.25313 36.409374 120.03438 35.971874Q120.83125 35.51875 121.20625 34.753124Q121.4875 34.14375 121.4875 32.9875L121.4875 32.346874ZM125.8625 37.55L125.8625 27.175L127.45625 27.175L127.45625 28.659374Q128.59688 26.940624 130.75313 26.940624Q131.69063 26.940624 132.47188 27.284374Q133.26875 27.6125 133.65938 28.159374Q134.05 28.70625 134.20625 29.45625Q134.3 29.95625 134.3 31.175L134.3 37.55L132.53438 37.55L132.53438 31.2375Q132.53438 30.159374 132.33125 29.628124Q132.12813 29.096874 131.59688 28.784374Q131.08125 28.471874 130.37813 28.471874Q129.25313 28.471874 128.44063 29.190624Q127.62813 29.89375 127.62813 31.878124L127.62813 37.55L125.8625 37.55ZM142.59688 37.55L142.59688 36.2375Q141.6125 37.784374 139.69063 37.784374Q138.45625 37.784374 137.40938 37.096874Q136.37813 36.409374 135.8 35.190624Q135.2375 33.971874 135.2375 32.378124Q135.2375 30.815624 135.75313 29.55Q136.26875 28.284374 137.3 27.6125Q138.34688 26.940624 139.6125 26.940624Q140.55 26.940624 141.28438 27.346874Q142.01875 27.7375 142.4875 28.3625L142.4875 23.2375L144.22188 23.2375L144.22188 37.55L142.59688 37.55ZM137.03438 32.378124Q137.03438 34.3625 137.87813 35.346874Q138.72188 36.33125 139.8625 36.33125Q141.01875 36.33125 141.81563 35.39375Q142.62813 34.45625 142.62813 32.51875Q142.62813 30.39375 141.8 29.39375Q140.9875 28.39375 139.78438 28.39375Q138.6125 28.39375 137.81563 29.3625Q137.03438 30.315624 137.03438 32.378124ZM152.45625 32.95625L154.2375 32.8Q154.3625 33.8625 154.81563 34.55Q155.28438 35.2375 156.25313 35.675Q157.2375 36.096874 158.47188 36.096874Q159.55 36.096874 160.37813 35.784374Q161.20625 35.45625 161.6125 34.89375Q162.01875 34.33125 162.01875 33.659374Q162.01875 32.9875 161.62813 32.4875Q161.2375 31.9875 160.34688 31.64375Q159.76875 31.409374 157.78438 30.940624Q155.81563 30.471874 155.03438 30.05Q154.00313 29.51875 153.50313 28.721874Q153.00313 27.925 153.00313 26.940624Q153.00313 25.846874 153.6125 24.909374Q154.22188 23.971874 155.40938 23.4875Q156.59688 22.9875 158.03438 22.9875Q159.62813 22.9875 160.84688 23.503124Q162.06563 24.01875 162.70625 25.01875Q163.3625 26.003124 163.40938 27.26875L161.59688 27.409374Q161.45625 26.05 160.6125 25.3625Q159.76875 24.659374 158.1125 24.659374Q156.39375 24.659374 155.59688 25.3Q154.81563 25.925 154.81563 26.8Q154.81563 27.58125 155.37813 28.08125Q155.925 28.58125 158.2375 29.096874Q160.55 29.6125 161.40938 30.003124Q162.65938 30.58125 163.25313 31.471874Q163.84688 32.346874 163.84688 33.503124Q163.84688 34.64375 163.19063 35.659374Q162.53438 36.675 161.3 37.2375Q160.08125 37.8 158.55 37.8Q156.6125 37.8 155.3 37.2375Q153.9875 36.659374 153.2375 35.51875Q152.4875 34.378124 152.45625 32.95625ZM166.40938 37.55L166.40938 23.2375L168.31563 23.2375L168.31563 37.55L166.40938 37.55ZM172.03438 37.55L172.03438 23.2375L174.89375 23.2375L178.26875 33.3625Q178.7375 34.784374 178.95625 35.4875Q179.20625 34.70625 179.72188 33.190624L183.14375 23.2375L185.69063 23.2375L185.69063 37.55L183.87813 37.55L183.87813 25.565624L179.70625 37.55L178.00313 37.55L173.8625 25.3625L173.8625 37.55L172.03438 37.55ZM189.09688 37.55L189.09688 23.2375L194.01875 23.2375Q195.69063 23.2375 196.58125 23.440624Q197.8 23.721874 198.675 24.45625Q199.8 25.425 200.3625 26.909374Q200.925 28.39375 200.925 30.315624Q200.925 31.940624 200.55 33.20625Q200.175 34.45625 199.56563 35.284374Q198.97188 36.1125 198.26875 36.596874Q197.56563 37.065624 196.56563 37.315624Q195.56563 37.55 194.25313 37.55L189.09688 37.55ZM190.9875 35.8625L194.05 35.8625Q195.45625 35.8625 196.25313 35.596874Q197.06563 35.33125 197.55 34.846874Q198.22188 34.175 198.59688 33.05Q198.97188 31.909374 198.97188 30.284374Q198.97188 28.034374 198.2375 26.83125Q197.50313 25.628124 196.44063 25.221874Q195.69063 24.925 194.00313 24.925L190.9875 24.925L190.9875 35.8625ZM201.25313 41.51875L201.25313 40.253124L212.89375 40.253124L212.89375 41.51875L201.25313 41.51875ZM220.00313 37.55L218.2375 37.55L218.2375 26.346874Q217.6125 26.95625 216.58125 27.565624Q215.55 28.159374 214.72188 28.471874L214.72188 26.76875Q216.20625 26.08125 217.3 25.096874Q218.40938 24.096874 218.8625 23.175L220.00313 23.175L220.00313 37.55ZM233.6125 35.8625L233.6125 37.55L224.15938 37.55Q224.14375 36.909374 224.3625 36.33125Q224.72188 35.3625 225.51875 34.425Q226.31563 33.4875 227.81563 32.253124Q230.15938 30.346874 230.97188 29.2375Q231.8 28.1125 231.8 27.1125Q231.8 26.065624 231.05 25.346874Q230.3 24.628124 229.09688 24.628124Q227.83125 24.628124 227.06563 25.39375Q226.3 26.159374 226.3 27.503124L224.4875 27.315624Q224.675 25.3 225.87813 24.2375Q227.09688 23.175 229.14375 23.175Q231.19063 23.175 232.39375 24.315624Q233.59688 25.45625 233.59688 27.14375Q233.59688 28.003124 233.2375 28.846874Q232.89375 29.675 232.08125 30.596874Q231.26875 31.503124 229.37813 33.1125Q227.78438 34.440624 227.33125 34.909374Q226.89375 35.378124 226.59688 35.8625L233.6125 35.8625ZM238.08125 29.784374Q236.9875 29.378124 236.45625 28.64375Q235.94063 27.89375 235.94063 26.8625Q235.94063 25.3 237.06563 24.2375Q238.19063 23.175 240.05 23.175Q241.925 23.175 243.06563 24.26875Q244.20625 25.346874 244.20625 26.909374Q244.20625 27.909374 243.675 28.64375Q243.15938 29.378124 242.09688 29.784374Q243.425 30.221874 244.1125 31.175Q244.8 32.128124 244.8 33.45625Q244.8 35.3 243.4875 36.55Q242.19063 37.8 240.08125 37.8Q237.95625 37.8 236.65938 36.55Q235.3625 35.284374 235.3625 33.409374Q235.3625 32.01875 236.06563 31.08125Q236.78438 30.128124 238.08125 29.784374ZM237.7375 26.8Q237.7375 27.815624 238.39375 28.471874Q239.05 29.1125 240.08125 29.1125Q241.09688 29.1125 241.75313 28.471874Q242.40938 27.83125 242.40938 26.909374Q242.40938 25.940624 241.7375 25.284374Q241.06563 24.6125 240.06563 24.6125Q239.06563 24.6125 238.39375 25.26875Q237.7375 25.909374 237.7375 26.8ZM237.175 33.425Q237.175 34.175 237.51875 34.878124Q237.87813 35.58125 238.58125 35.971874Q239.28438 36.346874 240.09688 36.346874Q241.3625 36.346874 242.175 35.534374Q243.00313 34.721874 243.00313 33.471874Q243.00313 32.20625 242.15938 31.378124Q241.31563 30.55 240.03438 30.55Q238.8 30.55 237.9875 31.378124Q237.175 32.190624 237.175 33.425Z" fill-rule="nonzero"/></svg>