<svg version="1.1" viewBox="0.0 0.0 600.0 371.0" fill="none" stroke="none" stroke-linecap="square" stroke-miterlimit="10" width="600" height="371" xmlns:xlink="http://www.w3.org/1999/xlink" xmlns="http://www.w3.org/2000/svg"><path fill="#ffffff" d="M0 0L600.0 0L600.0 371.0L0 371.0L0 0Z" fill-rule="nonzero"/><path stroke="#333333" stroke-width="1.0" stroke-linecap="butt" d="M45.5 300.5L581.5 300.5" fill-rule="nonzero"/><path stroke="#cccccc" stroke-width="1.0" stroke-linecap="butt" d="M45.5 247.5L581.5 247.5" fill-rule="nonzero"/><path stroke="#cccccc" stroke-width="1.0" stroke-linecap="butt" d="M45.5 194.5L581.5 194.5" fill-rule="nonzero"/><path stroke="#cccccc" stroke-width="1.0" stroke-linecap="butt" d="M45.5 141.5L581.5 141.5" fill-rule="nonzero"/><path stroke="#cccccc" stroke-width="1.0" stroke-linecap="butt" d="M45.5 88.5L581.5 88.5" fill-rule="nonzero"/><clipPath id="id_0"><path d="M45.55 88.28333L581.45 88.28333L581.45 300.45L45.55 300.45L45.55 88.28333Z" clip-rule="nonzero"/></clipPath><path stroke="#000000" stroke-width="2.0" stroke-linecap="butt" stroke-opacity="0.0" clip-path="url(#id_0)" d="M96.0 300.0L82.0 300.0L82.0 178.0C82.0 176.89543 82.89543 176.0 84.0 176.0L94.0 176.0C95.10457 176.0 96.0 176.89543 96.0 178.0Z" fill-rule="nonzero"/><path fill="#4285f4" clip-path="url(#id_0)" d="M96.0 300.0L82.0 300.0L82.0 178.0C82.0 176.89543 82.89543 176.0 84.0 176.0L94.0 176.0C95.10457 176.0 96.0 176.89543 96.0 178.0Z" fill-rule="nonzero"/><path stroke="#000000" stroke-width="2.0" stroke-linecap="butt" stroke-opacity="0.0" clip-path="url(#id_0)" d="M196.0 300.0L182.0 300.0L182.0 139.0C182.0 137.89543 182.89543 137.0 184.0 137.0L194.0 137.0C195.10457 137.0 196.0 137.89543 196.0 139.0Z" fill-rule="nonzero"/><path fill="#4285f4" clip-path="url(#id_0)" d="M196.0 300.0L182.0 300.0L182.0 139.0C182.0 137.89543 182.89543 137.0 184.0 137.0L194.0 137.0C195.10457 137.0 196.0 137.89543 196.0 139.0Z" fill-rule="nonzero"/><path stroke="#000000" stroke-width="2.0" stroke-linecap="butt" stroke-opacity="0.0" clip-path="url(#id_0)" d="M297.0 300.0L283.0 300.0L283.0 162.0C283.0 160.89543 283.89542 160.0 285.0 160.0L295.0 160.0C296.10458 160.0 297.0 160.89543 297.0 162.0Z" fill-rule="nonzero"/><path fill="#4285f4" clip-path="url(#id_0)" d="M297.0 300.0L283.0 300.0L283.0 162.0C283.0 160.89543 283.89542 160.0 285.0 160.0L295.0 160.0C296.10458 160.0 297.0 160.89543 297.0 162.0Z" fill-rule="nonzero"/><path stroke="#000000" stroke-width="2.0" stroke-linecap="butt" stroke-opacity="0.0" clip-path="url(#id_0)" d="M397.0 300.0L383.0 300.0L383.0 147.0C383.0 145.89543 383.89542 145.0 385.0 145.0L395.0 145.0C396.10458 145.0 397.0 145.89543 397.0 147.0Z" fill-rule="nonzero"/><path fill="#4285f4" clip-path="url(#id_0)" d="M397.0 300.0L383.0 300.0L383.0 147.0C383.0 145.89543 383.89542 145.0 385.0 145.0L395.0 145.0C396.10458 145.0 397.0 145.89543 397.0 147.0Z" fill-rule="nonzero"/><path stroke="#000000" stroke-width="2.0" stroke-linecap="butt" stroke-opacity="0.0" clip-path="url(#id_0)" d="M497.0 300.0L483.0 300.0L483.0 181.0C483.0 179.89543 483.89542 179.0 485.0 179.0L495.0 179.0C496.10458 179.0 497.0 179.89543 497.0 181.0Z" fill-rule="nonzero"/><path fill="#4285f4" clip-path="url(#id_0)" d="M497.0 300.0L483.0 300.0L483.0 181.0C483.0 179.89543 483.89542 179.0 485.0 179.0L495.0 179.0C496.10458 179.0 497.0 179.89543 497.0 181.0Z" fill-rule="nonzero"/><path stroke="#000000" stroke-width="2.0" stroke-linecap="butt" stroke-opacity="0.0" clip-path="url(#id_0)" d="M112.0 300.0L98.0 300.0L98.0 123.0C98.0 121.89543 98.89543 121.0 100.0 121.0L110.0 121.0C111.10457 121.0 112.0 121.89543 112.0 123.0Z" fill-rule="nonzero"/><path fill="#ea4335" clip-path="url(#id_0)" d="M112.0 300.0L98.0 300.0L98.0 123.0C98.0 121.89543 98.89543 121.0 100.0 121.0L110.0 121.0C111.10457 121.0 112.0 121.89543 112.0 123.0Z" fill-rule="nonzero"/><path stroke="#000000" stroke-width="2.0" stroke-linecap="butt" stroke-opacity="0.0" clip-path="url(#id_0)" d="M212.0 300.0L198.0 300.0L198.0 183.0C198.0 181.89543 198.89543 181.0 200.0 181.0L210.0 181.0C211.10457 181.0 212.0 181.89543 212.0 183.0Z" fill-rule="nonzero"/><path fill="#ea4335" clip-path="url(#id_0)" d="M212.0 300.0L198.0 300.0L198.0 183.0C198.0 181.89543 198.89543 181.0 200.0 181.0L210.0 181.0C211.10457 181.0 212.0 181.89543 212.0 183.0Z" fill-rule="nonzero"/><path stroke="#000000" stroke-width="2.0" stroke-linecap="butt" stroke-opacity="0.0" clip-path="url(#id_0)" d="M313.0 300.0L299.0 300.0L299.0 174.0C299.0 172.89543 299.89542 172.0 301.0 172.0L311.0 172.0C312.10458 172.0 313.0 172.89543 313.0 174.0Z" fill-rule="nonzero"/><path fill="#ea4335" clip-path="url(#id_0)" d="M313.0 300.0L299.0 300.0L299.0 174.0C299.0 172.89543 299.89542 172.0 301.0 172.0L311.0 172.0C312.10458 172.0 313.0 172.89543 313.0 174.0Z" fill-rule="nonzero"/><path stroke="#000000" stroke-width="2.0" stroke-linecap="butt" stroke-opacity="0.0" clip-path="url(#id_0)" d="M413.0 300.0L399.0 300.0L399.0 174.0C399.0 172.89543 399.89542 172.0 401.0 172.0L411.0 172.0C412.10458 172.0 413.0 172.89543 413.0 174.0Z" fill-rule="nonzero"/><path fill="#ea4335" clip-path="url(#id_0)" d="M413.0 300.0L399.0 300.0L399.0 174.0C399.0 172.89543 399.89542 172.0 401.0 172.0L411.0 172.0C412.10458 172.0 413.0 172.89543 413.0 174.0Z" fill-rule="nonzero"/><path stroke="#000000" stroke-width="2.0" stroke-linecap="butt" stroke-opacity="0.0" clip-path="url(#id_0)" d="M513.0 300.0L499.0 300.0L499.0 157.0C499.0 155.89543 499.89542 155.0 501.0 155.0L511.0 155.0C512.10455 155.0 513.0 155.89543 513.0 157.0Z" fill-rule="nonzero"/><path fill="#ea4335" clip-path="url(#id_0)" d="M513.0 300.0L499.0 300.0L499.0 157.0C499.0 155.89543 499.89542 155.0 501.0 155.0L511.0 155.0C512.10455 155.0 513.0 155.89543 513.0 157.0Z" fill-rule="nonzero"/><path stroke="#000000" stroke-width="2.0" stroke-linecap="butt" stroke-opacity="0.0" clip-path="url(#id_0)" d="M128.0 300.0L114.0 300.0L114.0 156.0C114.0 154.89543 114.89543 154.0 116.0 154.0L126.0 154.0C127.10457 154.0 128.0 154.89543 128.0 156.0Z" fill-rule="nonzero"/><path fill="#fbbc04" clip-path="url(#id_0)" d="M128.0 300.0L114.0 300.0L114.0 156.0C114.0 154.89543 114.89543 154.0 116.0 154.0L126.0 154.0C127.10457 154.0 128.0 154.89543 128.0 156.0Z" fill-rule="nonzero"/><path stroke="#000000" stroke-width="2.0" stroke-linecap="butt" stroke-opacity="0.0" clip-path="url(#id_0)" d="M228.0 300.0L214.0 300.0L214.0 135.0C214.0 133.89543 214.89543 133.0 216.0 133.0L226.0 133.0C227.10457 133.0 228.0 133.89543 228.0 135.0Z" fill-rule="nonzero"/><path fill="#fbbc04" clip-path="url(#id_0)" d="M228.0 300.0L214.0 300.0L214.0 135.0C214.0 133.89543 214.89543 133.0 216.0 133.0L226.0 133.0C227.10457 133.0 228.0 133.89543 228.0 135.0Z" fill-rule="nonzero"/><path stroke="#000000" stroke-width="2.0" stroke-linecap="butt" stroke-opacity="0.0" clip-path="url(#id_0)" d="M329.0 300.0L315.0 300.0L315.0 167.0C315.0 165.89543 315.89542 165.0 317.0 165.0L327.0 165.0C328.10458 165.0 329.0 165.89543 329.0 167.0Z" fill-rule="nonzero"/><path fill="#fbbc04" clip-path="url(#id_0)" d="M329.0 300.0L315.0 300.0L315.0 167.0C315.0 165.89543 315.89542 165.0 317.0 165.0L327.0 165.0C328.10458 165.0 329.0 165.89543 329.0 167.0Z" fill-rule="nonzero"/><path stroke="#000000" stroke-width="2.0" stroke-linecap="butt" stroke-opacity="0.0" clip-path="url(#id_0)" d="M429.0 300.0L415.0 300.0L415.0 166.0C415.0 164.89543 415.89542 164.0 417.0 164.0L427.0 164.0C428.10458 164.0 429.0 164.89543 429.0 166.0Z" fill-rule="nonzero"/><path fill="#fbbc04" clip-path="url(#id_0)" d="M429.0 300.0L415.0 300.0L415.0 166.0C415.0 164.89543 415.89542 164.0 417.0 164.0L427.0 164.0C428.10458 164.0 429.0 164.89543 429.0 166.0Z" fill-rule="nonzero"/><path stroke="#000000" stroke-width="2.0" stroke-linecap="butt" stroke-opacity="0.0" clip-path="url(#id_0)" d="M529.0 300.0L515.0 300.0L515.0 149.0C515.0 147.89543 515.89545 147.0 517.0 147.0L527.0 147.0C528.10455 147.0 529.0 147.89543 529.0 149.0Z" fill-rule="nonzero"/><path fill="#fbbc04" clip-path="url(#id_0)" d="M529.0 300.0L515.0 300.0L515.0 149.0C515.0 147.89543 515.89545 147.0 517.0 147.0L527.0 147.0C528.10455 147.0 529.0 147.89543 529.0 149.0Z" fill-rule="nonzero"/><path stroke="#000000" stroke-width="2.0" stroke-linecap="butt" stroke-opacity="0.0" clip-path="url(#id_0)" d="M144.0 300.0L130.0 300.0L130.0 147.0C130.0 145.89543 130.89543 145.0 132.0 145.0L142.0 145.0C143.10457 145.0 144.0 145.89543 144.0 147.0Z" fill-rule="nonzero"/><path fill="#34a853" clip-path="url(#id_0)" d="M144.0 300.0L130.0 300.0L130.0 147.0C130.0 145.89543 130.89543 145.0 132.0 145.0L142.0 145.0C143.10457 145.0 144.0 145.89543 144.0 147.0Z" fill-rule="nonzero"/><path stroke="#000000" stroke-width="2.0" stroke-linecap="butt" stroke-opacity="0.0" clip-path="url(#id_0)" d="M244.0 300.0L230.0 300.0L230.0 148.0C230.0 146.89543 230.89543 146.0 232.0 146.0L242.0 146.0C243.10457 146.0 244.0 146.89543 244.0 148.0Z" fill-rule="nonzero"/><path fill="#34a853" clip-path="url(#id_0)" d="M244.0 300.0L230.0 300.0L230.0 148.0C230.0 146.89543 230.89543 146.0 232.0 146.0L242.0 146.0C243.10457 146.0 244.0 146.89543 244.0 148.0Z" fill-rule="nonzero"/><path stroke="#000000" stroke-width="2.0" stroke-linecap="butt" stroke-opacity="0.0" clip-path="url(#id_0)" d="M345.0 300.0L331.0 300.0L331.0 181.0C331.0 179.89543 331.89542 179.0 333.0 179.0L343.0 179.0C344.10458 179.0 345.0 179.89543 345.0 181.0Z" fill-rule="nonzero"/><path fill="#34a853" clip-path="url(#id_0)" d="M345.0 300.0L331.0 300.0L331.0 181.0C331.0 179.89543 331.89542 179.0 333.0 179.0L343.0 179.0C344.10458 179.0 345.0 179.89543 345.0 181.0Z" fill-rule="nonzero"/><path stroke="#000000" stroke-width="2.0" stroke-linecap="butt" stroke-opacity="0.0" clip-path="url(#id_0)" d="M445.0 300.0L431.0 300.0L431.0 199.0C431.0 197.89543 431.89542 197.0 433.0 197.0L443.0 197.0C444.10458 197.0 445.0 197.89543 445.0 199.0Z" fill-rule="nonzero"/><path fill="#34a853" clip-path="url(#id_0)" d="M445.0 300.0L431.0 300.0L431.0 199.0C431.0 197.89543 431.89542 197.0 433.0 197.0L443.0 197.0C444.10458 197.0 445.0 197.89543 445.0 199.0Z" fill-rule="nonzero"/><path stroke="#000000" stroke-width="2.0" stroke-linecap="butt" stroke-opacity="0.0" clip-path="url(#id_0)" d="M545.0 300.0L531.0 300.0L531.0 159.0C531.0 157.89543 531.89545 157.0 533.0 157.0L543.0 157.0C544.10455 157.0 545.0 157.89543 545.0 159.0Z" fill-rule="nonzero"/><path fill="#34a853" clip-path="url(#id_0)" d="M545.0 300.0L531.0 300.0L531.0 159.0C531.0 157.89543 531.89545 157.0 533.0 157.0L543.0 157.0C544.10455 157.0 545.0 157.89543 545.0 159.0Z" fill-rule="nonzero"/><path fill="#000000" d="M288.59375 348.5125L288.75 349.4344Q288.29688 349.52814 287.95312 349.52814Q287.375 349.52814 287.0625 349.35626Q286.75 349.16876 286.60938 348.8719Q286.48438 348.575 286.48438 347.6219L286.48438 344.04376L285.71875 344.04376L285.71875 343.23126L286.48438 343.23126L286.48438 341.6844L287.53125 341.0594L287.53125 343.23126L288.59375 343.23126L288.59375 344.04376L287.53125 344.04376L287.53125 347.6844Q287.53125 348.1375 287.57812 348.2625Q287.64062 348.3875 287.76562 348.46564Q287.89062 348.54376 288.125 348.54376Q288.3125 348.54376 288.59375 348.5125ZM293.35938 348.6844Q292.76562 349.1844 292.21875 349.3875Q291.6875 349.59064 291.0625 349.59064Q290.03125 349.59064 289.48438 349.09064Q288.9375 348.59064 288.9375 347.8094Q288.9375 347.35626 289.14062 346.98126Q289.34375 346.59064 289.6875 346.3719Q290.03125 346.1375 290.45312 346.02814Q290.75 345.9344 291.39062 345.85626Q292.65625 345.71564 293.26562 345.4969Q293.26562 345.27814 293.26562 345.23126Q293.26562 344.575 292.96875 344.3094Q292.5625 343.96564 291.76562 343.96564Q291.03125 343.96564 290.67188 344.23126Q290.3125 344.48126 290.14062 345.1375L289.10938 344.9969Q289.25 344.34064 289.57812 343.9344Q289.90625 343.52814 290.51562 343.3094Q291.125 343.09064 291.92188 343.09064Q292.71875 343.09064 293.21875 343.27814Q293.71875 343.46564 293.95312 343.7469Q294.1875 344.02814 294.28125 344.46564Q294.32812 344.73126 294.32812 345.4344L294.32812 346.84064Q294.32812 348.3094 294.39062 348.7Q294.46875 349.09064 294.67188 349.45L293.5625 349.45Q293.40625 349.1219 293.35938 348.6844ZM293.26562 346.325Q292.6875 346.5594 291.54688 346.73126Q290.89062 346.825 290.625 346.95Q290.35938 347.0594 290.20312 347.27814Q290.0625 347.4969 290.0625 347.77814Q290.0625 348.2 290.375 348.48126Q290.70312 348.7625 291.3125 348.7625Q291.92188 348.7625 292.39062 348.4969Q292.875 348.23126 293.09375 347.7625Q293.26562 347.40314 293.26562 346.71564L293.26562 346.325ZM297.26562 349.45L296.28125 349.45L296.28125 340.85626L297.34375 340.85626L297.34375 343.91876Q298.01562 343.09064 299.04688 343.09064Q299.625 343.09064 300.125 343.325Q300.64062 343.54376 300.96875 343.96564Q301.3125 344.3875 301.5 344.98126Q301.6875 345.575 301.6875 346.2469Q301.6875 347.84064 300.89062 348.71564Q300.09375 349.59064 299.0 349.59064Q297.89062 349.59064 297.26562 348.66876L297.26562 349.45ZM297.25 346.29376Q297.25 347.40314 297.5625 347.90314Q298.0625 348.71564 298.90625 348.71564Q299.59375 348.71564 300.09375 348.1219Q300.60938 347.52814 300.60938 346.325Q300.60938 345.10626 300.125 344.52814Q299.64062 343.95 298.95312 343.95Q298.26562 343.95 297.75 344.5594Q297.25 345.15314 297.25 346.29376ZM303.26562 349.45L303.26562 340.85626L304.32812 340.85626L304.32812 349.45L303.26562 349.45ZM310.54688 347.45L311.64062 347.575Q311.39062 348.52814 310.6875 349.0594Q309.98438 349.59064 308.90625 349.59064Q307.54688 349.59064 306.73438 348.7469Q305.9375 347.90314 305.9375 346.3875Q305.9375 344.825 306.75 343.96564Q307.5625 343.09064 308.84375 343.09064Q310.09375 343.09064 310.875 343.9344Q311.67188 344.77814 311.67188 346.325Q311.67188 346.41876 311.67188 346.60626L307.03125 346.60626Q307.09375 347.6375 307.60938 348.1844Q308.125 348.71564 308.90625 348.71564Q309.48438 348.71564 309.89062 348.41876Q310.3125 348.10626 310.54688 347.45ZM307.09375 345.7469L310.5625 345.7469Q310.5 344.95 310.17188 344.5594Q309.65625 343.95 308.85938 343.95Q308.125 343.95 307.625 344.4344Q307.14062 344.91876 307.09375 345.7469ZM312.3125 351.84064L312.3125 351.075L319.3125 351.075L319.3125 351.84064L312.3125 351.84064ZM319.875 347.59064L320.90625 347.4344Q321.0 348.0594 321.39062 348.3875Q321.79688 348.71564 322.53125 348.71564Q323.25 348.71564 323.59375 348.4344Q323.95312 348.1375 323.95312 347.73126Q323.95312 347.3719 323.64062 347.16876Q323.42188 347.02814 322.5625 346.8094Q321.40625 346.5125 320.95312 346.3094Q320.51562 346.09064 320.28125 345.71564Q320.04688 345.34064 320.04688 344.8719Q320.04688 344.46564 320.23438 344.10626Q320.42188 343.7469 320.75 343.5125Q321.0 343.34064 321.42188 343.21564Q321.84375 343.09064 322.34375 343.09064Q323.0625 343.09064 323.60938 343.3094Q324.17188 343.5125 324.4375 343.8719Q324.70312 344.23126 324.79688 344.825L323.76562 344.96564Q323.70312 344.4969 323.35938 344.23126Q323.03125 343.95 322.40625 343.95Q321.6875 343.95 321.375 344.2Q321.0625 344.4344 321.0625 344.7625Q321.0625 344.96564 321.1875 345.1219Q321.32812 345.29376 321.59375 345.40314Q321.75 345.46564 322.53125 345.66876Q323.65625 345.98126 324.09375 346.16876Q324.53125 346.35626 324.78125 346.71564Q325.03125 347.075 325.03125 347.6219Q325.03125 348.15314 324.71875 348.6219Q324.42188 349.075 323.84375 349.34064Q323.26562 349.59064 322.53125 349.59064Q321.3125 349.59064 320.67188 349.09064Q320.04688 348.575 319.875 347.59064ZM327.29688 342.075L327.29688 340.85626L328.35938 340.85626L328.35938 342.075L327.29688 342.075ZM327.29688 349.45L327.29688 343.23126L328.35938 343.23126L328.35938 349.45L327.29688 349.45ZM329.73438 349.45L329.73438 348.59064L333.70312 344.04376Q333.01562 344.075 332.5 344.075L329.96875 344.075L329.96875 343.23126L335.0625 343.23126L335.0625 343.91876L331.6875 347.8719L331.03125 348.59064Q331.75 348.54376 332.35938 348.54376L335.25 348.54376L335.25 349.45L329.73438 349.45ZM339.54688 347.45L340.64062 347.575Q340.39062 348.52814 339.6875 349.0594Q338.98438 349.59064 337.90625 349.59064Q336.54688 349.59064 335.73438 348.7469Q334.9375 347.90314 334.9375 346.3875Q334.9375 344.825 335.75 343.96564Q336.5625 343.09064 337.84375 343.09064Q339.09375 343.09064 339.875 343.9344Q340.67188 344.77814 340.67188 346.325Q340.67188 346.41876 340.67188 346.60626L336.03125 346.60626Q336.09375 347.6375 336.60938 348.1844Q337.125 348.71564 337.90625 348.71564Q338.48438 348.71564 338.89062 348.41876Q339.3125 348.10626 339.54688 347.45ZM336.09375 345.7469L339.5625 345.7469Q339.5 344.95 339.17188 344.5594Q338.65625 343.95 337.85938 343.95Q337.125 343.95 336.625 344.4344Q336.14062 344.91876 336.09375 345.7469Z" fill-rule="nonzero"/><path fill="#000000" d="M23.05 300.21564Q23.05 298.6844 23.3625 297.7625Q23.675 296.825 24.284374 296.325Q24.909374 295.825 25.846874 295.825Q26.534374 295.825 27.05 296.10626Q27.58125 296.3875 27.925 296.91876Q28.26875 297.4344 28.45625 298.1844Q28.64375 298.9344 28.64375 300.21564Q28.64375 301.73126 28.33125 302.65314Q28.034374 303.575 27.409374 304.09064Q26.8 304.59064 25.846874 304.59064Q24.6125 304.59064 23.89375 303.7Q23.05 302.6375 23.05 300.21564ZM24.128124 300.21564Q24.128124 302.325 24.628124 303.02814Q25.128124 303.73126 25.846874 303.73126Q26.58125 303.73126 27.065624 303.02814Q27.565624 302.325 27.565624 300.21564Q27.565624 298.09064 27.065624 297.40314Q26.58125 296.7 25.83125 296.7Q25.1125 296.7 24.675 297.3094Q24.128124 298.09064 24.128124 300.21564ZM30.64375 304.45L30.64375 303.2469L31.846874 303.2469L31.846874 304.45L30.64375 304.45ZM33.05 300.21564Q33.05 298.6844 33.3625 297.7625Q33.675 296.825 34.284374 296.325Q34.909374 295.825 35.846874 295.825Q36.534374 295.825 37.05 296.10626Q37.58125 296.3875 37.925 296.91876Q38.26875 297.4344 38.45625 298.1844Q38.64375 298.9344 38.64375 300.21564Q38.64375 301.73126 38.33125 302.65314Q38.034374 303.575 37.409374 304.09064Q36.8 304.59064 35.846874 304.59064Q34.6125 304.59064 33.89375 303.7Q33.05 302.6375 33.05 300.21564ZM34.128124 300.21564Q34.128124 302.325 34.628124 303.02814Q35.128124 303.73126 35.846874 303.73126Q36.58125 303.73126 37.065624 303.02814Q37.565624 302.325 37.565624 300.21564Q37.565624 298.09064 37.065624 297.40314Q36.58125 296.7 35.83125 296.7Q35.1125 296.7 34.675 297.3094Q34.128124 298.09064 34.128124 300.21564Z" fill-rule="nonzero"/><path fill="#000000" d="M23.05 247.17397Q23.05 245.64272 23.3625 244.72084Q23.675 243.78334 24.284374 243.28334Q24.909374 242.78334 25.846874 242.78334Q26.534374 242.78334 27.05 243.06459Q27.58125 243.34584 27.925 243.87709Q28.26875 244.39272 28.45625 245.14272Q28.64375 245.89272 28.64375 247.17397Q28.64375 248.68959 28.33125 249.61147Q28.034374 250.53334 27.409374 251.04897Q26.8 251.54897 25.846874 251.54897Q24.6125 251.54897 23.89375 250.65834Q23.05 249.59584 23.05 247.17397ZM24.128124 247.17397Q24.128124 249.28334 24.628124 249.98647Q25.128124 250.68959 25.846874 250.68959Q26.58125 250.68959 27.065624 249.98647Q27.565624 249.28334 27.565624 247.17397Q27.565624 245.04897 27.065624 244.36147Q26.58125 243.65834 25.83125 243.65834Q25.1125 243.65834 24.675 244.26772Q24.128124 245.04897 24.128124 247.17397ZM30.64375 251.40834L30.64375 250.20522L31.846874 250.20522L31.846874 251.40834L30.64375 251.40834ZM33.05 249.15834L34.159374 249.06459Q34.284374 249.87709 34.721874 250.28334Q35.175 250.68959 35.815624 250.68959Q36.565624 250.68959 37.096874 250.11147Q37.628124 249.53334 37.628124 248.59584Q37.628124 247.68959 37.1125 247.17397Q36.6125 246.64272 35.784374 246.64272Q35.284374 246.64272 34.8625 246.87709Q34.45625 247.11147 34.221874 247.47084L33.2375 247.34584L34.065624 242.93959L38.346874 242.93959L38.346874 243.93959L34.909374 243.93959L34.45625 246.25209Q35.221874 245.70522 36.065624 245.70522Q37.190624 245.70522 37.95625 246.48647Q38.7375 247.26772 38.7375 248.50209Q38.7375 249.65834 38.065624 250.51772Q37.2375 251.54897 35.815624 251.54897Q34.64375 251.54897 33.89375 250.89272Q33.159374 250.23647 33.05 249.15834Z" fill-rule="nonzero"/><path fill="#000000" d="M27.01875 198.36667L25.971874 198.36667L25.971874 191.64792Q25.58125 192.0073 24.95625 192.3823Q24.346874 192.74167 23.8625 192.91354L23.8625 191.89792Q24.7375 191.47604 25.39375 190.89792Q26.065624 190.30417 26.346874 189.74167L27.01875 189.74167L27.01875 198.36667ZM30.64375 198.36667L30.64375 197.16354L31.846874 197.16354L31.846874 198.36667L30.64375 198.36667ZM33.05 194.1323Q33.05 192.60104 33.3625 191.67917Q33.675 190.74167 34.284374 190.24167Q34.909374 189.74167 35.846874 189.74167Q36.534374 189.74167 37.05 190.02292Q37.58125 190.30417 37.925 190.83542Q38.26875 191.35104 38.45625 192.10104Q38.64375 192.85104 38.64375 194.1323Q38.64375 195.64792 38.33125 196.5698Q38.034374 197.49167 37.409374 198.0073Q36.8 198.5073 35.846874 198.5073Q34.6125 198.5073 33.89375 197.61667Q33.05 196.55417 33.05 194.1323ZM34.128124 194.1323Q34.128124 196.24167 34.628124 196.9448Q35.128124 197.64792 35.846874 197.64792Q36.58125 197.64792 37.065624 196.9448Q37.565624 196.24167 37.565624 194.1323Q37.565624 192.0073 37.065624 191.3198Q36.58125 190.61667 35.83125 190.61667Q35.1125 190.61667 34.675 191.22604Q34.128124 192.0073 34.128124 194.1323Z" fill-rule="nonzero"/><path fill="#000000" d="M27.01875 145.325L25.971874 145.325L25.971874 138.60625Q25.58125 138.96562 24.95625 139.34062Q24.346874 139.7 23.8625 139.87187L23.8625 138.85625Q24.7375 138.43437 25.39375 137.85625Q26.065624 137.2625 26.346874 136.7L27.01875 136.7L27.01875 145.325ZM30.64375 145.325L30.64375 144.12187L31.846874 144.12187L31.846874 145.325L30.64375 145.325ZM33.05 143.075L34.159374 142.98125Q34.284374 143.79375 34.721874 144.2Q35.175 144.60625 35.815624 144.60625Q36.565624 144.60625 37.096874 144.02812Q37.628124 143.45 37.628124 142.5125Q37.628124 141.60625 37.1125 141.09062Q36.6125 140.55937 35.784374 140.55937Q35.284374 140.55937 34.8625 140.79375Q34.45625 141.02812 34.221874 141.3875L33.2375 141.2625L34.065624 136.85625L38.346874 136.85625L38.346874 137.85625L34.909374 137.85625L34.45625 140.16875Q35.221874 139.62187 36.065624 139.62187Q37.190624 139.62187 37.95625 140.40312Q38.7375 141.18437 38.7375 142.41875Q38.7375 143.575 38.065624 144.43437Q37.2375 145.46562 35.815624 145.46562Q34.64375 145.46562 33.89375 144.80937Q33.159374 144.15312 33.05 143.075Z" fill-rule="nonzero"/><path fill="#000000" d="M28.596874 91.26771L28.596874 92.28333L22.909374 92.28333Q22.909374 91.90833 23.034374 91.54896Q23.253124 90.97083 23.721874 90.40833Q24.20625 89.84583 25.1125 89.11146Q26.51875 87.95521 27.003124 87.28333Q27.503124 86.61146 27.503124 86.01771Q27.503124 85.39271 27.05 84.97083Q26.596874 84.53333 25.878124 84.53333Q25.1125 84.53333 24.659374 84.98646Q24.20625 85.43958 24.190624 86.25208L23.1125 86.14271Q23.221874 84.92396 23.940624 84.29896Q24.675 83.65833 25.909374 83.65833Q27.14375 83.65833 27.8625 84.34583Q28.58125 85.03333 28.58125 86.04896Q28.58125 86.56458 28.3625 87.06458Q28.159374 87.54896 27.659374 88.11146Q27.175 88.65833 26.05 89.61146Q25.096874 90.40833 24.815624 90.70521Q24.55 90.98646 24.378124 91.26771L28.596874 91.26771ZM30.64375 92.28333L30.64375 91.08021L31.846874 91.08021L31.846874 92.28333L30.64375 92.28333ZM33.05 88.04896Q33.05 86.51771 33.3625 85.59583Q33.675 84.65833 34.284374 84.15833Q34.909374 83.65833 35.846874 83.65833Q36.534374 83.65833 37.05 83.93958Q37.58125 84.22083 37.925 84.75208Q38.26875 85.26771 38.45625 86.01771Q38.64375 86.76771 38.64375 88.04896Q38.64375 89.56458 38.33125 90.48646Q38.034374 91.40833 37.409374 91.92396Q36.8 92.42396 35.846874 92.42396Q34.6125 92.42396 33.89375 91.53333Q33.05 90.47083 33.05 88.04896ZM34.128124 88.04896Q34.128124 90.15833 34.628124 90.86146Q35.128124 91.56458 35.846874 91.56458Q36.58125 91.56458 37.065624 90.86146Q37.565624 90.15833 37.565624 88.04896Q37.565624 85.92396 37.065624 85.23646Q36.58125 84.53333 35.83125 84.53333Q35.1125 84.53333 34.675 85.14271Q34.128124 85.92396 34.128124 88.04896Z" fill-rule="nonzero"/><path fill="#000000" d="M93.1323 317.45L92.08543 317.45L92.08543 310.73126Q91.6948 311.09064 91.0698 311.46564Q90.46043 311.825 89.97605 311.9969L89.97605 310.98126Q90.85105 310.5594 91.5073 309.98126Q92.17918 309.3875 92.46043 308.825L93.1323 308.825L93.1323 317.45ZM96.16355 313.21564Q96.16355 311.6844 96.47605 310.7625Q96.78855 309.825 97.39793 309.325Q98.02293 308.825 98.96043 308.825Q99.64793 308.825 100.16355 309.10626Q100.6948 309.3875 101.03855 309.91876Q101.3823 310.4344 101.5698 311.1844Q101.7573 311.9344 101.7573 313.21564Q101.7573 314.73126 101.4448 315.65314Q101.14793 316.575 100.52293 317.09064Q99.91355 317.59064 98.96043 317.59064Q97.72605 317.59064 97.0073 316.7Q96.16355 315.6375 96.16355 313.21564ZM97.24168 313.21564Q97.24168 315.325 97.74168 316.02814Q98.24168 316.73126 98.96043 316.73126Q99.6948 316.73126 100.17918 316.02814Q100.67918 315.325 100.67918 313.21564Q100.67918 311.09064 100.17918 310.40314Q99.6948 309.7 98.9448 309.7Q98.22605 309.7 97.78855 310.3094Q97.24168 311.09064 97.24168 313.21564ZM103.16355 313.21564Q103.16355 311.6844 103.47605 310.7625Q103.78855 309.825 104.39793 309.325Q105.02293 308.825 105.96043 308.825Q106.64793 308.825 107.16355 309.10626Q107.6948 309.3875 108.03855 309.91876Q108.3823 310.4344 108.5698 311.1844Q108.7573 311.9344 108.7573 313.21564Q108.7573 314.73126 108.4448 315.65314Q108.14793 316.575 107.52293 317.09064Q106.91355 317.59064 105.96043 317.59064Q104.72605 317.59064 104.0073 316.7Q103.16355 315.6375 103.16355 313.21564ZM104.24168 313.21564Q104.24168 315.325 104.74168 316.02814Q105.24168 316.73126 105.96043 316.73126Q106.6948 316.73126 107.17918 316.02814Q107.67918 315.325 107.67918 313.21564Q107.67918 311.09064 107.17918 310.40314Q106.6948 309.7 105.9448 309.7Q105.22605 309.7 104.78855 310.3094Q104.24168 311.09064 104.24168 313.21564ZM110.16355 313.21564Q110.16355 311.6844 110.47605 310.7625Q110.78855 309.825 111.39793 309.325Q112.02293 308.825 112.96043 308.825Q113.64793 308.825 114.16355 309.10626Q114.6948 309.3875 115.03855 309.91876Q115.3823 310.4344 115.5698 311.1844Q115.7573 311.9344 115.7573 313.21564Q115.7573 314.73126 115.4448 315.65314Q115.14793 316.575 114.52293 317.09064Q113.91355 317.59064 112.96043 317.59064Q111.72605 317.59064 111.0073 316.7Q110.16355 315.6375 110.16355 313.21564ZM111.24168 313.21564Q111.24168 315.325 111.74168 316.02814Q112.24168 316.73126 112.96043 316.73126Q113.6948 316.73126 114.17918 316.02814Q114.67918 315.325 114.67918 313.21564Q114.67918 311.09064 114.17918 310.40314Q113.6948 309.7 112.9448 309.7Q112.22605 309.7 111.78855 310.3094Q111.24168 311.09064 111.24168 313.21564ZM117.16355 313.21564Q117.16355 311.6844 117.47605 310.7625Q117.78855 309.825 118.39793 309.325Q119.02293 308.825 119.96043 308.825Q120.64793 308.825 121.16355 309.10626Q121.6948 309.3875 122.03855 309.91876Q122.3823 310.4344 122.5698 311.1844Q122.7573 311.9344 122.7573 313.21564Q122.7573 314.73126 122.4448 315.65314Q122.14793 316.575 121.52293 317.09064Q120.91355 317.59064 119.96043 317.59064Q118.72605 317.59064 118.0073 316.7Q117.16355 315.6375 117.16355 313.21564ZM118.24168 313.21564Q118.24168 315.325 118.74168 316.02814Q119.24168 316.73126 119.96043 316.73126Q120.6948 316.73126 121.17918 316.02814Q121.67918 315.325 121.67918 313.21564Q121.67918 311.09064 121.17918 310.40314Q120.6948 309.7 119.9448 309.7Q119.22605 309.7 118.78855 310.3094Q118.24168 311.09064 118.24168 313.21564ZM124.16355 313.21564Q124.16355 311.6844 124.47605 310.7625Q124.78855 309.825 125.39793 309.325Q126.02293 308.825 126.96043 308.825Q127.64793 308.825 128.16354 309.10626Q128.6948 309.3875 129.03854 309.91876Q129.3823 310.4344 129.5698 311.1844Q129.7573 311.9344 129.7573 313.21564Q129.7573 314.73126 129.4448 315.65314Q129.14792 316.575 128.52292 317.09064Q127.91355 317.59064 126.96043 317.59064Q125.72605 317.59064 125.0073 316.7Q124.16355 315.6375 124.16355 313.21564ZM125.24168 313.21564Q125.24168 315.325 125.74168 316.02814Q126.24168 316.73126 126.96043 316.73126Q127.6948 316.73126 128.17917 316.02814Q128.67917 315.325 128.67917 313.21564Q128.67917 311.09064 128.17917 310.40314Q127.6948 309.7 126.9448 309.7Q126.22605 309.7 125.78855 310.3094Q125.24168 311.09064 125.24168 313.21564ZM131.16354 313.21564Q131.16354 311.6844 131.47604 310.7625Q131.78854 309.825 132.39792 309.325Q133.02292 308.825 133.96042 308.825Q134.64792 308.825 135.16354 309.10626Q135.6948 309.3875 136.03854 309.91876Q136.3823 310.4344 136.5698 311.1844Q136.7573 311.9344 136.7573 313.21564Q136.7573 314.73126 136.4448 315.65314Q136.14792 316.575 135.52292 317.09064Q134.91354 317.59064 133.96042 317.59064Q132.72604 317.59064 132.0073 316.7Q131.16354 315.6375 131.16354 313.21564ZM132.24167 313.21564Q132.24167 315.325 132.74167 316.02814Q133.24167 316.73126 133.96042 316.73126Q134.6948 316.73126 135.17917 316.02814Q135.67917 315.325 135.67917 313.21564Q135.67917 311.09064 135.17917 310.40314Q134.6948 309.7 133.9448 309.7Q133.22604 309.7 132.78854 310.3094Q132.24167 311.09064 132.24167 313.21564Z" fill-rule="nonzero"/><path fill="#000000" d="M194.87865 316.4344L194.87865 317.45L189.19115 317.45Q189.19115 317.075 189.31615 316.71564Q189.5349 316.1375 190.00365 315.575Q190.48802 315.0125 191.39427 314.27814Q192.80052 313.1219 193.2849 312.45Q193.7849 311.77814 193.7849 311.1844Q193.7849 310.5594 193.33177 310.1375Q192.87865 309.7 192.1599 309.7Q191.39427 309.7 190.94115 310.15314Q190.48802 310.60626 190.4724 311.41876L189.39427 311.3094Q189.50365 310.09064 190.2224 309.46564Q190.95677 308.825 192.19115 308.825Q193.42552 308.825 194.14427 309.5125Q194.86302 310.2 194.86302 311.21564Q194.86302 311.73126 194.64427 312.23126Q194.44115 312.71564 193.94115 313.27814Q193.45677 313.825 192.33177 314.77814Q191.37865 315.575 191.0974 315.8719Q190.83177 316.15314 190.6599 316.4344L194.87865 316.4344ZM196.33177 313.21564Q196.33177 311.6844 196.64427 310.7625Q196.95677 309.825 197.56615 309.325Q198.19115 308.825 199.12865 308.825Q199.81615 308.825 200.33177 309.10626Q200.86302 309.3875 201.20677 309.91876Q201.55052 310.4344 201.73802 311.1844Q201.92552 311.9344 201.92552 313.21564Q201.92552 314.73126 201.61302 315.65314Q201.31615 316.575 200.69115 317.09064Q200.08177 317.59064 199.12865 317.59064Q197.89427 317.59064 197.17552 316.7Q196.33177 315.6375 196.33177 313.21564ZM197.4099 313.21564Q197.4099 315.325 197.9099 316.02814Q198.4099 316.73126 199.12865 316.73126Q199.86302 316.73126 200.3474 316.02814Q200.8474 315.325 200.8474 313.21564Q200.8474 311.09064 200.3474 310.40314Q199.86302 309.7 199.11302 309.7Q198.39427 309.7 197.95677 310.3094Q197.4099 311.09064 197.4099 313.21564ZM203.33177 313.21564Q203.33177 311.6844 203.64427 310.7625Q203.95677 309.825 204.56615 309.325Q205.19115 308.825 206.12865 308.825Q206.81615 308.825 207.33177 309.10626Q207.86302 309.3875 208.20677 309.91876Q208.55052 310.4344 208.73802 311.1844Q208.92552 311.9344 208.92552 313.21564Q208.92552 314.73126 208.61302 315.65314Q208.31615 316.575 207.69115 317.09064Q207.08177 317.59064 206.12865 317.59064Q204.89427 317.59064 204.17552 316.7Q203.33177 315.6375 203.33177 313.21564ZM204.4099 313.21564Q204.4099 315.325 204.9099 316.02814Q205.4099 316.73126 206.12865 316.73126Q206.86302 316.73126 207.3474 316.02814Q207.8474 315.325 207.8474 313.21564Q207.8474 311.09064 207.3474 310.40314Q206.86302 309.7 206.11302 309.7Q205.39427 309.7 204.95677 310.3094Q204.4099 311.09064 204.4099 313.21564ZM210.33177 313.21564Q210.33177 311.6844 210.64427 310.7625Q210.95677 309.825 211.56615 309.325Q212.19115 308.825 213.12865 308.825Q213.81615 308.825 214.33177 309.10626Q214.86302 309.3875 215.20677 309.91876Q215.55052 310.4344 215.73802 311.1844Q215.92552 311.9344 215.92552 313.21564Q215.92552 314.73126 215.61302 315.65314Q215.31615 316.575 214.69115 317.09064Q214.08177 317.59064 213.12865 317.59064Q211.89427 317.59064 211.17552 316.7Q210.33177 315.6375 210.33177 313.21564ZM211.4099 313.21564Q211.4099 315.325 211.9099 316.02814Q212.4099 316.73126 213.12865 316.73126Q213.86302 316.73126 214.3474 316.02814Q214.8474 315.325 214.8474 313.21564Q214.8474 311.09064 214.3474 310.40314Q213.86302 309.7 213.11302 309.7Q212.39427 309.7 211.95677 310.3094Q211.4099 311.09064 211.4099 313.21564ZM217.33177 313.21564Q217.33177 311.6844 217.64427 310.7625Q217.95677 309.825 218.56615 309.325Q219.19115 308.825 220.12865 308.825Q220.81615 308.825 221.33177 309.10626Q221.86302 309.3875 222.20677 309.91876Q222.55052 310.4344 222.73802 311.1844Q222.92552 311.9344 222.92552 313.21564Q222.92552 314.73126 222.61302 315.65314Q222.31615 316.575 221.69115 317.09064Q221.08177 317.59064 220.12865 317.59064Q218.89427 317.59064 218.17552 316.7Q217.33177 315.6375 217.33177 313.21564ZM218.4099 313.21564Q218.4099 315.325 218.9099 316.02814Q219.4099 316.73126 220.12865 316.73126Q220.86302 316.73126 221.3474 316.02814Q221.8474 315.325 221.8474 313.21564Q221.8474 311.09064 221.3474 310.40314Q220.86302 309.7 220.11302 309.7Q219.39427 309.7 218.95677 310.3094Q218.4099 311.09064 218.4099 313.21564ZM224.33177 313.21564Q224.33177 311.6844 224.64427 310.7625Q224.95677 309.825 225.56615 309.325Q226.19115 308.825 227.12865 308.825Q227.81615 308.825 228.33177 309.10626Q228.86302 309.3875 229.20677 309.91876Q229.55052 310.4344 229.73802 311.1844Q229.92552 311.9344 229.92552 313.21564Q229.92552 314.73126 229.61302 315.65314Q229.31615 316.575 228.69115 317.09064Q228.08177 317.59064 227.12865 317.59064Q225.89427 317.59064 225.17552 316.7Q224.33177 315.6375 224.33177 313.21564ZM225.4099 313.21564Q225.4099 315.325 225.9099 316.02814Q226.4099 316.73126 227.12865 316.73126Q227.86302 316.73126 228.3474 316.02814Q228.8474 315.325 228.8474 313.21564Q228.8474 311.09064 228.3474 310.40314Q227.86302 309.7 227.11302 309.7Q226.39427 309.7 225.95677 310.3094Q225.4099 311.09064 225.4099 313.21564ZM231.33177 313.21564Q231.33177 311.6844 231.64427 310.7625Q231.95677 309.825 232.56615 309.325Q233.19115 308.825 234.12865 308.825Q234.81615 308.825 235.33177 309.10626Q235.86302 309.3875 236.20677 309.91876Q236.55052 310.4344 236.73802 311.1844Q236.92552 311.9344 236.92552 313.21564Q236.92552 314.73126 236.61302 315.65314Q236.31615 316.575 235.69115 317.09064Q235.08177 317.59064 234.12865 317.59064Q232.89427 317.59064 232.17552 316.7Q231.33177 315.6375 231.33177 313.21564ZM232.4099 313.21564Q232.4099 315.325 232.9099 316.02814Q233.4099 316.73126 234.12865 316.73126Q234.86302 316.73126 235.3474 316.02814Q235.8474 315.325 235.8474 313.21564Q235.8474 311.09064 235.3474 310.40314Q234.86302 309.7 234.11302 309.7Q233.39427 309.7 232.95677 310.3094Q232.4099 311.09064 232.4099 313.21564Z" fill-rule="nonzero"/><path fill="#000000" d="M289.5 315.1844L290.5625 315.04376Q290.73438 315.9344 291.17188 316.34064Q291.60938 316.73126 292.23438 316.73126Q292.98438 316.73126 293.5 316.21564Q294.01562 315.7 294.01562 314.9344Q294.01562 314.21564 293.53125 313.7469Q293.0625 313.2625 292.32812 313.2625Q292.03125 313.2625 291.57812 313.3875L291.70312 312.45Q291.8125 312.46564 291.875 312.46564Q292.54688 312.46564 293.07812 312.1219Q293.625 311.7625 293.625 311.02814Q293.625 310.45 293.23438 310.075Q292.84375 309.6844 292.21875 309.6844Q291.60938 309.6844 291.1875 310.075Q290.78125 310.46564 290.67188 311.23126L289.60938 311.04376Q289.79688 309.9969 290.48438 309.41876Q291.17188 308.825 292.1875 308.825Q292.89062 308.825 293.48438 309.1375Q294.07812 309.4344 294.39062 309.95Q294.70312 310.46564 294.70312 311.0594Q294.70312 311.60626 294.40625 312.075Q294.10938 312.52814 293.53125 312.79376Q294.28125 312.96564 294.70312 313.52814Q295.125 314.075 295.125 314.91876Q295.125 316.04376 294.29688 316.825Q293.48438 317.60626 292.23438 317.60626Q291.10938 317.60626 290.35938 316.9344Q289.60938 316.2469 289.5 315.1844ZM296.5 313.21564Q296.5 311.6844 296.8125 310.7625Q297.125 309.825 297.73438 309.325Q298.35938 308.825 299.29688 308.825Q299.98438 308.825 300.5 309.10626Q301.03125 309.3875 301.375 309.91876Q301.71875 310.4344 301.90625 311.1844Q302.09375 311.9344 302.09375 313.21564Q302.09375 314.73126 301.78125 315.65314Q301.48438 316.575 300.85938 317.09064Q300.25 317.59064 299.29688 317.59064Q298.0625 317.59064 297.34375 316.7Q296.5 315.6375 296.5 313.21564ZM297.57812 313.21564Q297.57812 315.325 298.07812 316.02814Q298.57812 316.73126 299.29688 316.73126Q300.03125 316.73126 300.51562 316.02814Q301.01562 315.325 301.01562 313.21564Q301.01562 311.09064 300.51562 310.40314Q300.03125 309.7 299.28125 309.7Q298.5625 309.7 298.125 310.3094Q297.57812 311.09064 297.57812 313.21564ZM303.5 313.21564Q303.5 311.6844 303.8125 310.7625Q304.125 309.825 304.73438 309.325Q305.35938 308.825 306.29688 308.825Q306.98438 308.825 307.5 309.10626Q308.03125 309.3875 308.375 309.91876Q308.71875 310.4344 308.90625 311.1844Q309.09375 311.9344 309.09375 313.21564Q309.09375 314.73126 308.78125 315.65314Q308.48438 316.575 307.85938 317.09064Q307.25 317.59064 306.29688 317.59064Q305.0625 317.59064 304.34375 316.7Q303.5 315.6375 303.5 313.21564ZM304.57812 313.21564Q304.57812 315.325 305.07812 316.02814Q305.57812 316.73126 306.29688 316.73126Q307.03125 316.73126 307.51562 316.02814Q308.01562 315.325 308.01562 313.21564Q308.01562 311.09064 307.51562 310.40314Q307.03125 309.7 306.28125 309.7Q305.5625 309.7 305.125 310.3094Q304.57812 311.09064 304.57812 313.21564ZM310.5 313.21564Q310.5 311.6844 310.8125 310.7625Q311.125 309.825 311.73438 309.325Q312.35938 308.825 313.29688 308.825Q313.98438 308.825 314.5 309.10626Q315.03125 309.3875 315.375 309.91876Q315.71875 310.4344 315.90625 311.1844Q316.09375 311.9344 316.09375 313.21564Q316.09375 314.73126 315.78125 315.65314Q315.48438 316.575 314.85938 317.09064Q314.25 317.59064 313.29688 317.59064Q312.0625 317.59064 311.34375 316.7Q310.5 315.6375 310.5 313.21564ZM311.57812 313.21564Q311.57812 315.325 312.07812 316.02814Q312.57812 316.73126 313.29688 316.73126Q314.03125 316.73126 314.51562 316.02814Q315.01562 315.325 315.01562 313.21564Q315.01562 311.09064 314.51562 310.40314Q314.03125 309.7 313.28125 309.7Q312.5625 309.7 312.125 310.3094Q311.57812 311.09064 311.57812 313.21564ZM317.5 313.21564Q317.5 311.6844 317.8125 310.7625Q318.125 309.825 318.73438 309.325Q319.35938 308.825 320.29688 308.825Q320.98438 308.825 321.5 309.10626Q322.03125 309.3875 322.375 309.91876Q322.71875 310.4344 322.90625 311.1844Q323.09375 311.9344 323.09375 313.21564Q323.09375 314.73126 322.78125 315.65314Q322.48438 316.575 321.85938 317.09064Q321.25 317.59064 320.29688 317.59064Q319.0625 317.59064 318.34375 316.7Q317.5 315.6375 317.5 313.21564ZM318.57812 313.21564Q318.57812 315.325 319.07812 316.02814Q319.57812 316.73126 320.29688 316.73126Q321.03125 316.73126 321.51562 316.02814Q322.01562 315.325 322.01562 313.21564Q322.01562 311.09064 321.51562 310.40314Q321.03125 309.7 320.28125 309.7Q319.5625 309.7 319.125 310.3094Q318.57812 311.09064 318.57812 313.21564ZM324.5 313.21564Q324.5 311.6844 324.8125 310.7625Q325.125 309.825 325.73438 309.325Q326.35938 308.825 327.29688 308.825Q327.98438 308.825 328.5 309.10626Q329.03125 309.3875 329.375 309.91876Q329.71875 310.4344 329.90625 311.1844Q330.09375 311.9344 330.09375 313.21564Q330.09375 314.73126 329.78125 315.65314Q329.48438 316.575 328.85938 317.09064Q328.25 317.59064 327.29688 317.59064Q326.0625 317.59064 325.34375 316.7Q324.5 315.6375 324.5 313.21564ZM325.57812 313.21564Q325.57812 315.325 326.07812 316.02814Q326.57812 316.73126 327.29688 316.73126Q328.03125 316.73126 328.51562 316.02814Q329.01562 315.325 329.01562 313.21564Q329.01562 311.09064 328.51562 310.40314Q328.03125 309.7 327.28125 309.7Q326.5625 309.7 326.125 310.3094Q325.57812 311.09064 325.57812 313.21564ZM331.5 313.21564Q331.5 311.6844 331.8125 310.7625Q332.125 309.825 332.73438 309.325Q333.35938 308.825 334.29688 308.825Q334.98438 308.825 335.5 309.10626Q336.03125 309.3875 336.375 309.91876Q336.71875 310.4344 336.90625 311.1844Q337.09375 311.9344 337.09375 313.21564Q337.09375 314.73126 336.78125 315.65314Q336.48438 316.575 335.85938 317.09064Q335.25 317.59064 334.29688 317.59064Q333.0625 317.59064 332.34375 316.7Q331.5 315.6375 331.5 313.21564ZM332.57812 313.21564Q332.57812 315.325 333.07812 316.02814Q333.57812 316.73126 334.29688 316.73126Q335.03125 316.73126 335.51562 316.02814Q336.01562 315.325 336.01562 313.21564Q336.01562 311.09064 335.51562 310.40314Q335.03125 309.7 334.28125 309.7Q333.5625 309.7 333.125 310.3094Q332.57812 311.09064 332.57812 313.21564Z" fill-rule="nonzero"/><path fill="#000000" d="M393.0432 317.45L393.0432 315.3875L389.32446 315.3875L389.32446 314.41876L393.24634 308.85626L394.1057 308.85626L394.1057 314.41876L395.26196 314.41876L395.26196 315.3875L394.1057 315.3875L394.1057 317.45L393.0432 317.45ZM393.0432 314.41876L393.0432 310.5594L390.3557 314.41876L393.0432 314.41876ZM396.6682 313.21564Q396.6682 311.6844 396.9807 310.7625Q397.2932 309.825 397.9026 309.325Q398.5276 308.825 399.4651 308.825Q400.1526 308.825 400.6682 309.10626Q401.19946 309.3875 401.5432 309.91876Q401.88696 310.4344 402.07446 311.1844Q402.26196 311.9344 402.26196 313.21564Q402.26196 314.73126 401.94946 315.65314Q401.6526 316.575 401.0276 317.09064Q400.4182 317.59064 399.4651 317.59064Q398.2307 317.59064 397.51196 316.7Q396.6682 315.6375 396.6682 313.21564ZM397.74634 313.21564Q397.74634 315.325 398.24634 316.02814Q398.74634 316.73126 399.4651 316.73126Q400.19946 316.73126 400.68384 316.02814Q401.18384 315.325 401.18384 313.21564Q401.18384 311.09064 400.68384 310.40314Q400.19946 309.7 399.44946 309.7Q398.7307 309.7 398.2932 310.3094Q397.74634 311.09064 397.74634 313.21564ZM403.6682 313.21564Q403.6682 311.6844 403.9807 310.7625Q404.2932 309.825 404.9026 309.325Q405.5276 308.825 406.4651 308.825Q407.1526 308.825 407.6682 309.10626Q408.19946 309.3875 408.5432 309.91876Q408.88696 310.4344 409.07446 311.1844Q409.26196 311.9344 409.26196 313.21564Q409.26196 314.73126 408.94946 315.65314Q408.6526 316.575 408.0276 317.09064Q407.4182 317.59064 406.4651 317.59064Q405.2307 317.59064 404.51196 316.7Q403.6682 315.6375 403.6682 313.21564ZM404.74634 313.21564Q404.74634 315.325 405.24634 316.02814Q405.74634 316.73126 406.4651 316.73126Q407.19946 316.73126 407.68384 316.02814Q408.18384 315.325 408.18384 313.21564Q408.18384 311.09064 407.68384 310.40314Q407.19946 309.7 406.44946 309.7Q405.7307 309.7 405.2932 310.3094Q404.74634 311.09064 404.74634 313.21564ZM410.6682 313.21564Q410.6682 311.6844 410.9807 310.7625Q411.2932 309.825 411.9026 309.325Q412.5276 308.825 413.4651 308.825Q414.1526 308.825 414.6682 309.10626Q415.19946 309.3875 415.5432 309.91876Q415.88696 310.4344 416.07446 311.1844Q416.26196 311.9344 416.26196 313.21564Q416.26196 314.73126 415.94946 315.65314Q415.6526 316.575 415.0276 317.09064Q414.4182 317.59064 413.4651 317.59064Q412.2307 317.59064 411.51196 316.7Q410.6682 315.6375 410.6682 313.21564ZM411.74634 313.21564Q411.74634 315.325 412.24634 316.02814Q412.74634 316.73126 413.4651 316.73126Q414.19946 316.73126 414.68384 316.02814Q415.18384 315.325 415.18384 313.21564Q415.18384 311.09064 414.68384 310.40314Q414.19946 309.7 413.44946 309.7Q412.7307 309.7 412.2932 310.3094Q411.74634 311.09064 411.74634 313.21564ZM417.6682 313.21564Q417.6682 311.6844 417.9807 310.7625Q418.2932 309.825 418.9026 309.325Q419.5276 308.825 420.4651 308.825Q421.1526 308.825 421.6682 309.10626Q422.19946 309.3875 422.5432 309.91876Q422.88696 310.4344 423.07446 311.1844Q423.26196 311.9344 423.26196 313.21564Q423.26196 314.73126 422.94946 315.65314Q422.6526 316.575 422.0276 317.09064Q421.4182 317.59064 420.4651 317.59064Q419.2307 317.59064 418.51196 316.7Q417.6682 315.6375 417.6682 313.21564ZM418.74634 313.21564Q418.74634 315.325 419.24634 316.02814Q419.74634 316.73126 420.4651 316.73126Q421.19946 316.73126 421.68384 316.02814Q422.18384 315.325 422.18384 313.21564Q422.18384 311.09064 421.68384 310.40314Q421.19946 309.7 420.44946 309.7Q419.7307 309.7 419.2932 310.3094Q418.74634 311.09064 418.74634 313.21564ZM424.6682 313.21564Q424.6682 311.6844 424.9807 310.7625Q425.2932 309.825 425.9026 309.325Q426.5276 308.825 427.4651 308.825Q428.1526 308.825 428.6682 309.10626Q429.19946 309.3875 429.5432 309.91876Q429.88696 310.4344 430.07446 311.1844Q430.26196 311.9344 430.26196 313.21564Q430.26196 314.73126 429.94946 315.65314Q429.6526 316.575 429.0276 317.09064Q428.4182 317.59064 427.4651 317.59064Q426.2307 317.59064 425.51196 316.7Q424.6682 315.6375 424.6682 313.21564ZM425.74634 313.21564Q425.74634 315.325 426.24634 316.02814Q426.74634 316.73126 427.4651 316.73126Q428.19946 316.73126 428.68384 316.02814Q429.18384 315.325 429.18384 313.21564Q429.18384 311.09064 428.68384 310.40314Q428.19946 309.7 427.44946 309.7Q426.7307 309.7 426.2932 310.3094Q425.74634 311.09064 425.74634 313.21564ZM431.6682 313.21564Q431.6682 311.6844 431.9807 310.7625Q432.2932 309.825 432.9026 309.325Q433.5276 308.825 434.4651 308.825Q435.1526 308.825 435.6682 309.10626Q436.19946 309.3875 436.5432 309.91876Q436.88696 310.4344 437.07446 311.1844Q437.26196 311.9344 437.26196 313.21564Q437.26196 314.73126 436.94946 315.65314Q436.6526 316.575 436.0276 317.09064Q435.4182 317.59064 434.4651 317.59064Q433.2307 317.59064 432.51196 316.7Q431.6682 315.6375 431.6682 313.21564ZM432.74634 313.21564Q432.74634 315.325 433.24634 316.02814Q433.74634 316.73126 434.4651 316.73126Q435.19946 316.73126 435.68384 316.02814Q436.18384 315.325 436.18384 313.21564Q436.18384 311.09064 435.68384 310.40314Q435.19946 309.7 434.44946 309.7Q433.7307 309.7 433.2932 310.3094Q432.74634 311.09064 432.74634 313.21564Z" fill-rule="nonzero"/><path fill="#000000" d="M489.83646 315.2L490.94583 315.10626Q491.07083 315.91876 491.50833 316.325Q491.96146 316.73126 492.60208 316.73126Q493.35208 316.73126 493.88333 316.15314Q494.41458 315.575 494.41458 314.6375Q494.41458 313.73126 493.89896 313.21564Q493.39896 312.6844 492.57083 312.6844Q492.07083 312.6844 491.64896 312.91876Q491.2427 313.15314 491.00833 313.5125L490.02396 313.3875L490.85208 308.98126L495.13333 308.98126L495.13333 309.98126L491.69583 309.98126L491.2427 312.29376Q492.00833 311.7469 492.85208 311.7469Q493.97708 311.7469 494.7427 312.52814Q495.52396 313.3094 495.52396 314.54376Q495.52396 315.7 494.85208 316.5594Q494.02396 317.59064 492.60208 317.59064Q491.4302 317.59064 490.6802 316.9344Q489.94583 316.27814 489.83646 315.2ZM496.83646 313.21564Q496.83646 311.6844 497.14896 310.7625Q497.46146 309.825 498.07083 309.325Q498.69583 308.825 499.63333 308.825Q500.32083 308.825 500.83646 309.10626Q501.3677 309.3875 501.71146 309.91876Q502.0552 310.4344 502.2427 311.1844Q502.4302 311.9344 502.4302 313.21564Q502.4302 314.73126 502.1177 315.65314Q501.82083 316.575 501.19583 317.09064Q500.58646 317.59064 499.63333 317.59064Q498.39896 317.59064 497.6802 316.7Q496.83646 315.6375 496.83646 313.21564ZM497.91458 313.21564Q497.91458 315.325 498.41458 316.02814Q498.91458 316.73126 499.63333 316.73126Q500.3677 316.73126 500.85208 316.02814Q501.35208 315.325 501.35208 313.21564Q501.35208 311.09064 500.85208 310.40314Q500.3677 309.7 499.6177 309.7Q498.89896 309.7 498.46146 310.3094Q497.91458 311.09064 497.91458 313.21564ZM503.83646 313.21564Q503.83646 311.6844 504.14896 310.7625Q504.46146 309.825 505.07083 309.325Q505.69583 308.825 506.63333 308.825Q507.32083 308.825 507.83646 309.10626Q508.3677 309.3875 508.71146 309.91876Q509.0552 310.4344 509.2427 311.1844Q509.4302 311.9344 509.4302 313.21564Q509.4302 314.73126 509.1177 315.65314Q508.82083 316.575 508.19583 317.09064Q507.58646 317.59064 506.63333 317.59064Q505.39896 317.59064 504.6802 316.7Q503.83646 315.6375 503.83646 313.21564ZM504.91458 313.21564Q504.91458 315.325 505.41458 316.02814Q505.91458 316.73126 506.63333 316.73126Q507.3677 316.73126 507.85208 316.02814Q508.35208 315.325 508.35208 313.21564Q508.35208 311.09064 507.85208 310.40314Q507.3677 309.7 506.6177 309.7Q505.89896 309.7 505.46146 310.3094Q504.91458 311.09064 504.91458 313.21564ZM510.83646 313.21564Q510.83646 311.6844 511.14896 310.7625Q511.46146 309.825 512.0708 309.325Q512.6958 308.825 513.6333 308.825Q514.3208 308.825 514.8364 309.10626Q515.3677 309.3875 515.7114 309.91876Q516.0552 310.4344 516.2427 311.1844Q516.4302 311.9344 516.4302 313.21564Q516.4302 314.73126 516.1177 315.65314Q515.8208 316.575 515.1958 317.09064Q514.5864 317.59064 513.6333 317.59064Q512.3989 317.59064 511.6802 316.7Q510.83646 315.6375 510.83646 313.21564ZM511.91458 313.21564Q511.91458 315.325 512.41455 316.02814Q512.91455 316.73126 513.6333 316.73126Q514.3677 316.73126 514.85205 316.02814Q515.35205 315.325 515.35205 313.21564Q515.35205 311.09064 514.85205 310.40314Q514.3677 309.7 513.6177 309.7Q512.8989 309.7 512.4614 310.3094Q511.91458 311.09064 511.91458 313.21564ZM517.8364 313.21564Q517.8364 311.6844 518.1489 310.7625Q518.4614 309.825 519.0708 309.325Q519.6958 308.825 520.6333 308.825Q521.3208 308.825 521.8364 309.10626Q522.3677 309.3875 522.7114 309.91876Q523.0552 310.4344 523.2427 311.1844Q523.4302 311.9344 523.4302 313.21564Q523.4302 314.73126 523.1177 315.65314Q522.8208 316.575 522.1958 317.09064Q521.5864 317.59064 520.6333 317.59064Q519.3989 317.59064 518.6802 316.7Q517.8364 315.6375 517.8364 313.21564ZM518.91455 313.21564Q518.91455 315.325 519.41455 316.02814Q519.91455 316.73126 520.6333 316.73126Q521.3677 316.73126 521.85205 316.02814Q522.35205 315.325 522.35205 313.21564Q522.35205 311.09064 521.85205 310.40314Q521.3677 309.7 520.6177 309.7Q519.8989 309.7 519.4614 310.3094Q518.91455 311.09064 518.91455 313.21564ZM524.8364 313.21564Q524.8364 311.6844 525.1489 310.7625Q525.4614 309.825 526.0708 309.325Q526.6958 308.825 527.6333 308.825Q528.3208 308.825 528.8364 309.10626Q529.3677 309.3875 529.7114 309.91876Q530.0552 310.4344 530.2427 311.1844Q530.4302 311.9344 530.4302 313.21564Q530.4302 314.73126 530.1177 315.65314Q529.8208 316.575 529.1958 317.09064Q528.5864 317.59064 527.6333 317.59064Q526.3989 317.59064 525.6802 316.7Q524.8364 315.6375 524.8364 313.21564ZM525.91455 313.21564Q525.91455 315.325 526.41455 316.02814Q526.91455 316.73126 527.6333 316.73126Q528.3677 316.73126 528.85205 316.02814Q529.35205 315.325 529.35205 313.21564Q529.35205 311.09064 528.85205 310.40314Q528.3677 309.7 527.6177 309.7Q526.8989 309.7 526.4614 310.3094Q525.91455 311.09064 525.91455 313.21564ZM531.8364 313.21564Q531.8364 311.6844 532.1489 310.7625Q532.4614 309.825 533.0708 309.325Q533.6958 308.825 534.6333 308.825Q535.3208 308.825 535.8364 309.10626Q536.3677 309.3875 536.7114 309.91876Q537.0552 310.4344 537.2427 311.1844Q537.4302 311.9344 537.4302 313.21564Q537.4302 314.73126 537.1177 315.65314Q536.8208 316.575 536.1958 317.09064Q535.5864 317.59064 534.6333 317.59064Q533.3989 317.59064 532.6802 316.7Q531.8364 315.6375 531.8364 313.21564ZM532.91455 313.21564Q532.91455 315.325 533.41455 316.02814Q533.91455 316.73126 534.6333 316.73126Q535.3677 316.73126 535.85205 316.02814Q536.35205 315.325 536.35205 313.21564Q536.35205 311.09064 535.85205 310.40314Q535.3677 309.7 534.6177 309.7Q533.8989 309.7 533.4614 310.3094Q532.91455 311.09064 532.91455 313.21564Z" fill-rule="nonzero"/><path fill="#4285f4" d="M114.0 56.916668C114.0 56.364384 114.447716 55.916668 115.0 55.916668L125.0 55.916668C125.552284 55.916668 126.0 56.364384 126.0 56.916668L126.0 66.916664C126.0 67.46895 125.552284 67.916664 125.0 67.916664L115.0 67.916664C114.447716 67.916664 114.0 67.46895 114.0 66.916664Z" fill-rule="nonzero"/><path fill="#1a1a1a" d="M138.82812 65.916664L138.82812 65.135414Q138.23438 66.05729 137.09375 66.05729Q136.34375 66.05729 135.71875 65.65104Q135.09375 65.229164 134.75 64.49479Q134.40625 63.760414 134.40625 62.80729Q134.40625 61.885414 134.71875 61.11979Q135.03125 60.354164 135.65625 59.96354Q136.28125 59.55729 137.04688 59.55729Q137.60938 59.55729 138.04688 59.791664Q138.48438 60.02604 138.76562 60.40104L138.76562 57.322914L139.8125 57.322914L139.8125 65.916664L138.82812 65.916664ZM135.5 62.80729Q135.5 64.010414 136.0 64.604164Q136.5 65.18229 137.1875 65.18229Q137.875 65.18229 138.35938 64.61979Q138.84375 64.05729 138.84375 62.90104Q138.84375 61.61979 138.34375 61.02604Q137.85938 60.43229 137.14062 60.43229Q136.4375 60.43229 135.96875 61.010414Q135.5 61.572914 135.5 62.80729ZM141.79688 58.541664L141.79688 57.322914L142.85938 57.322914L142.85938 58.541664L141.79688 58.541664ZM141.79688 65.916664L141.79688 59.697914L142.85938 59.697914L142.85938 65.916664L141.79688 65.916664ZM144.375 64.05729L145.40625 63.90104Q145.5 64.52604 145.89062 64.854164Q146.29688 65.18229 147.03125 65.18229Q147.75 65.18229 148.09375 64.90104Q148.45312 64.604164 148.45312 64.197914Q148.45312 63.83854 148.14062 63.635414Q147.92188 63.49479 147.0625 63.27604Q145.90625 62.979164 145.45312 62.77604Q145.01562 62.55729 144.78125 62.18229Q144.54688 61.80729 144.54688 61.33854Q144.54688 60.93229 144.73438 60.572914Q144.92188 60.21354 145.25 59.979164Q145.5 59.80729 145.92188 59.68229Q146.34375 59.55729 146.84375 59.55729Q147.5625 59.55729 148.10938 59.77604Q148.67188 59.979164 148.9375 60.33854Q149.20312 60.697914 149.29688 61.291664L148.26562 61.43229Q148.20312 60.96354 147.85938 60.697914Q147.53125 60.416664 146.90625 60.416664Q146.1875 60.416664 145.875 60.666664Q145.5625 60.90104 145.5625 61.229164Q145.5625 61.43229 145.6875 61.58854Q145.82812 61.760414 146.09375 61.86979Q146.25 61.93229 147.03125 62.135414Q148.15625 62.447914 148.59375 62.635414Q149.03125 62.822914 149.28125 63.18229Q149.53125 63.541664 149.53125 64.08854Q149.53125 64.61979 149.21875 65.08854Q148.92188 65.541664 148.34375 65.80729Q147.76562 66.05729 147.03125 66.05729Q145.8125 66.05729 145.17188 65.55729Q144.54688 65.041664 144.375 64.05729ZM154.09375 64.979164L154.25 65.90104Q153.79688 65.99479 153.45312 65.99479Q152.875 65.99479 152.5625 65.822914Q152.25 65.635414 152.10938 65.33854Q151.98438 65.041664 151.98438 64.08854L151.98438 60.510414L151.21875 60.510414L151.21875 59.697914L151.98438 59.697914L151.98438 58.15104L153.03125 57.52604L153.03125 59.697914L154.09375 59.697914L154.09375 60.510414L153.03125 60.510414L153.03125 64.15104Q153.03125 64.604164 153.07812 64.729164Q153.14062 64.854164 153.26562 64.93229Q153.39062 65.010414 153.625 65.010414Q153.8125 65.010414 154.09375 64.979164ZM158.85938 65.15104Q158.26562 65.65104 157.71875 65.854164Q157.1875 66.05729 156.5625 66.05729Q155.53125 66.05729 154.98438 65.55729Q154.4375 65.05729 154.4375 64.27604Q154.4375 63.822914 154.64062 63.447914Q154.84375 63.05729 155.1875 62.83854Q155.53125 62.604164 155.95312 62.49479Q156.25 62.40104 156.89062 62.322914Q158.15625 62.18229 158.76562 61.96354Q158.76562 61.74479 158.76562 61.697914Q158.76562 61.041664 158.46875 60.77604Q158.0625 60.43229 157.26562 60.43229Q156.53125 60.43229 156.17188 60.697914Q155.8125 60.947914 155.64062 61.604164L154.60938 61.46354Q154.75 60.80729 155.07812 60.40104Q155.40625 59.99479 156.01562 59.77604Q156.625 59.55729 157.42188 59.55729Q158.21875 59.55729 158.71875 59.74479Q159.21875 59.93229 159.45312 60.21354Q159.6875 60.49479 159.78125 60.93229Q159.82812 61.197914 159.82812 61.90104L159.82812 63.30729Q159.82812 64.77604 159.89062 65.166664Q159.96875 65.55729 160.17188 65.916664L159.0625 65.916664Q158.90625 65.58854 158.85938 65.15104ZM158.76562 62.791664Q158.1875 63.02604 157.04688 63.197914Q156.39062 63.291664 156.125 63.416664Q155.85938 63.52604 155.70312 63.74479Q155.5625 63.96354 155.5625 64.24479Q155.5625 64.666664 155.875 64.947914Q156.20312 65.229164 156.8125 65.229164Q157.42188 65.229164 157.89062 64.96354Q158.375 64.697914 158.59375 64.229164Q158.76562 63.86979 158.76562 63.18229L158.76562 62.791664ZM161.79688 65.916664L161.79688 59.697914L162.73438 59.697914L162.73438 60.572914Q163.42188 59.55729 164.71875 59.55729Q165.28125 59.55729 165.75 59.760414Q166.23438 59.96354 166.46875 60.291664Q166.70312 60.61979 166.79688 61.05729Q166.84375 61.354164 166.84375 62.08854L166.84375 65.916664L165.79688 65.916664L165.79688 62.135414Q165.79688 61.479164 165.67188 61.166664Q165.54688 60.854164 165.23438 60.666664Q164.92188 60.46354 164.5 60.46354Q163.82812 60.46354 163.32812 60.90104Q162.84375 61.322914 162.84375 62.510414L162.84375 65.916664L161.79688 65.916664ZM172.85938 63.635414L173.89062 63.77604Q173.71875 64.83854 173.01562 65.447914Q172.3125 66.05729 171.29688 66.05729Q170.01562 66.05729 169.23438 65.229164Q168.46875 64.385414 168.46875 62.822914Q168.46875 61.822914 168.79688 61.072914Q169.14062 60.30729 169.8125 59.93229Q170.5 59.55729 171.3125 59.55729Q172.3125 59.55729 172.95312 60.072914Q173.60938 60.572914 173.79688 61.52604L172.76562 61.68229Q172.625 61.05729 172.25 60.74479Q171.875 60.416664 171.34375 60.416664Q170.54688 60.416664 170.04688 60.99479Q169.54688 61.55729 169.54688 62.791664Q169.54688 64.05729 170.03125 64.61979Q170.51562 65.18229 171.28125 65.18229Q171.90625 65.18229 172.3125 64.80729Q172.73438 64.43229 172.85938 63.635414ZM179.04688 63.916664L180.14062 64.041664Q179.89062 64.99479 179.1875 65.52604Q178.48438 66.05729 177.40625 66.05729Q176.04688 66.05729 175.23438 65.21354Q174.4375 64.36979 174.4375 62.854164Q174.4375 61.291664 175.25 60.43229Q176.0625 59.55729 177.34375 59.55729Q178.59375 59.55729 179.375 60.40104Q180.17188 61.24479 180.17188 62.791664Q180.17188 62.885414 180.17188 63.072914L175.53125 63.072914Q175.59375 64.104164 176.10938 64.65104Q176.625 65.18229 177.40625 65.18229Q177.98438 65.18229 178.39062 64.885414Q178.8125 64.572914 179.04688 63.916664ZM175.59375 62.21354L179.0625 62.21354Q179.0 61.416664 178.67188 61.02604Q178.15625 60.416664 177.35938 60.416664Q176.625 60.416664 176.125 60.90104Q175.64062 61.385414 175.59375 62.21354ZM187.34375 60.86979L181.67188 60.86979L181.67188 59.885414L187.34375 59.885414L187.34375 60.86979ZM187.34375 63.479164L181.67188 63.479164L181.67188 62.49479L187.34375 62.49479L187.34375 63.479164ZM192.46875 65.916664L191.42188 65.916664L191.42188 59.197914Q191.03125 59.55729 190.40625 59.93229Q189.79688 60.291664 189.3125 60.46354L189.3125 59.447914Q190.1875 59.02604 190.84375 58.447914Q191.51562 57.854164 191.79688 57.291664L192.46875 57.291664L192.46875 65.916664Z" fill-rule="nonzero"/><path fill="#ea4335" d="M211.0 56.916668C211.0 56.364384 211.44771 55.916668 212.0 55.916668L222.0 55.916668C222.55229 55.916668 223.0 56.364384 223.0 56.916668L223.0 66.916664C223.0 67.46895 222.55229 67.916664 222.0 67.916664L212.0 67.916664C211.44771 67.916664 211.0 67.46895 211.0 66.916664Z" fill-rule="nonzero"/><path fill="#1a1a1a" d="M235.82812 65.916664L235.82812 65.135414Q235.23438 66.05729 234.09375 66.05729Q233.34375 66.05729 232.71875 65.65104Q232.09375 65.229164 231.75 64.49479Q231.40625 63.760414 231.40625 62.80729Q231.40625 61.885414 231.71875 61.11979Q232.03125 60.354164 232.65625 59.96354Q233.28125 59.55729 234.04688 59.55729Q234.60938 59.55729 235.04688 59.791664Q235.48438 60.02604 235.76562 60.40104L235.76562 57.322914L236.8125 57.322914L236.8125 65.916664L235.82812 65.916664ZM232.5 62.80729Q232.5 64.010414 233.0 64.604164Q233.5 65.18229 234.1875 65.18229Q234.875 65.18229 235.35938 64.61979Q235.84375 64.05729 235.84375 62.90104Q235.84375 61.61979 235.34375 61.02604Q234.85938 60.43229 234.14062 60.43229Q233.4375 60.43229 232.96875 61.010414Q232.5 61.572914 232.5 62.80729ZM238.79688 58.541664L238.79688 57.322914L239.85938 57.322914L239.85938 58.541664L238.79688 58.541664ZM238.79688 65.916664L238.79688 59.697914L239.85938 59.697914L239.85938 65.916664L238.79688 65.916664ZM241.375 64.05729L242.40625 63.90104Q242.5 64.52604 242.89062 64.854164Q243.29688 65.18229 244.03125 65.18229Q244.75 65.18229 245.09375 64.90104Q245.45312 64.604164 245.45312 64.197914Q245.45312 63.83854 245.14062 63.635414Q244.92188 63.49479 244.0625 63.27604Q242.90625 62.979164 242.45312 62.77604Q242.01562 62.55729 241.78125 62.18229Q241.54688 61.80729 241.54688 61.33854Q241.54688 60.93229 241.73438 60.572914Q241.92188 60.21354 242.25 59.979164Q242.5 59.80729 242.92188 59.68229Q243.34375 59.55729 243.84375 59.55729Q244.5625 59.55729 245.10938 59.77604Q245.67188 59.979164 245.9375 60.33854Q246.20312 60.697914 246.29688 61.291664L245.26562 61.43229Q245.20312 60.96354 244.85938 60.697914Q244.53125 60.416664 243.90625 60.416664Q243.1875 60.416664 242.875 60.666664Q242.5625 60.90104 242.5625 61.229164Q242.5625 61.43229 242.6875 61.58854Q242.82812 61.760414 243.09375 61.86979Q243.25 61.93229 244.03125 62.135414Q245.15625 62.447914 245.59375 62.635414Q246.03125 62.822914 246.28125 63.18229Q246.53125 63.541664 246.53125 64.08854Q246.53125 64.61979 246.21875 65.08854Q245.92188 65.541664 245.34375 65.80729Q244.76562 66.05729 244.03125 66.05729Q242.8125 66.05729 242.17188 65.55729Q241.54688 65.041664 241.375 64.05729ZM251.09375 64.979164L251.25 65.90104Q250.79688 65.99479 250.45312 65.99479Q249.875 65.99479 249.5625 65.822914Q249.25 65.635414 249.10938 65.33854Q248.98438 65.041664 248.98438 64.08854L248.98438 60.510414L248.21875 60.510414L248.21875 59.697914L248.98438 59.697914L248.98438 58.15104L250.03125 57.52604L250.03125 59.697914L251.09375 59.697914L251.09375 60.510414L250.03125 60.510414L250.03125 64.15104Q250.03125 64.604164 250.07812 64.729164Q250.14062 64.854164 250.26562 64.93229Q250.39062 65.010414 250.625 65.010414Q250.8125 65.010414 251.09375 64.979164ZM255.85938 65.15104Q255.26562 65.65104 254.71875 65.854164Q254.1875 66.05729 253.5625 66.05729Q252.53125 66.05729 251.98438 65.55729Q251.4375 65.05729 251.4375 64.27604Q251.4375 63.822914 251.64062 63.447914Q251.84375 63.05729 252.1875 62.83854Q252.53125 62.604164 252.95312 62.49479Q253.25 62.40104 253.89062 62.322914Q255.15625 62.18229 255.76562 61.96354Q255.76562 61.74479 255.76562 61.697914Q255.76562 61.041664 255.46875 60.77604Q255.0625 60.43229 254.26562 60.43229Q253.53125 60.43229 253.17188 60.697914Q252.8125 60.947914 252.64062 61.604164L251.60938 61.46354Q251.75 60.80729 252.07812 60.40104Q252.40625 59.99479 253.01562 59.77604Q253.625 59.55729 254.42188 59.55729Q255.21875 59.55729 255.71875 59.74479Q256.21875 59.93229 256.45312 60.21354Q256.6875 60.49479 256.78125 60.93229Q256.82812 61.197914 256.82812 61.90104L256.82812 63.30729Q256.82812 64.77604 256.89062 65.166664Q256.96875 65.55729 257.17188 65.916664L256.0625 65.916664Q255.90625 65.58854 255.85938 65.15104ZM255.76562 62.791664Q255.1875 63.02604 254.04688 63.197914Q253.39062 63.291664 253.125 63.416664Q252.85938 63.52604 252.70312 63.74479Q252.5625 63.96354 252.5625 64.24479Q252.5625 64.666664 252.875 64.947914Q253.20312 65.229164 253.8125 65.229164Q254.42188 65.229164 254.89062 64.96354Q255.375 64.697914 255.59375 64.229164Q255.76562 63.86979 255.76562 63.18229L255.76562 62.791664ZM258.79688 65.916664L258.79688 59.697914L259.73438 59.697914L259.73438 60.572914Q260.42188 59.55729 261.71875 59.55729Q262.28125 59.55729 262.75 59.760414Q263.23438 59.96354 263.46875 60.291664Q263.70312 60.61979 263.79688 61.05729Q263.84375 61.354164 263.84375 62.08854L263.84375 65.916664L262.79688 65.916664L262.79688 62.135414Q262.79688 61.479164 262.67188 61.166664Q262.54688 60.854164 262.23438 60.666664Q261.92188 60.46354 261.5 60.46354Q260.82812 60.46354 260.32812 60.90104Q259.84375 61.322914 259.84375 62.510414L259.84375 65.916664L258.79688 65.916664ZM269.85938 63.635414L270.89062 63.77604Q270.71875 64.83854 270.01562 65.447914Q269.3125 66.05729 268.29688 66.05729Q267.01562 66.05729 266.23438 65.229164Q265.46875 64.385414 265.46875 62.822914Q265.46875 61.822914 265.79688 61.072914Q266.14062 60.30729 266.8125 59.93229Q267.5 59.55729 268.3125 59.55729Q269.3125 59.55729 269.95312 60.072914Q270.60938 60.572914 270.79688 61.52604L269.76562 61.68229Q269.625 61.05729 269.25 60.74479Q268.875 60.416664 268.34375 60.416664Q267.54688 60.416664 267.04688 60.99479Q266.54688 61.55729 266.54688 62.791664Q266.54688 64.05729 267.03125 64.61979Q267.51562 65.18229 268.28125 65.18229Q268.90625 65.18229 269.3125 64.80729Q269.73438 64.43229 269.85938 63.635414ZM276.04688 63.916664L277.14062 64.041664Q276.89062 64.99479 276.1875 65.52604Q275.48438 66.05729 274.40625 66.05729Q273.04688 66.05729 272.23438 65.21354Q271.4375 64.36979 271.4375 62.854164Q271.4375 61.291664 272.25 60.43229Q273.0625 59.55729 274.34375 59.55729Q275.59375 59.55729 276.375 60.40104Q277.17188 61.24479 277.17188 62.791664Q277.17188 62.885414 277.17188 63.072914L272.53125 63.072914Q272.59375 64.104164 273.10938 64.65104Q273.625 65.18229 274.40625 65.18229Q274.98438 65.18229 275.39062 64.885414Q275.8125 64.572914 276.04688 63.916664ZM272.59375 62.21354L276.0625 62.21354Q276.0 61.416664 275.67188 61.02604Q275.15625 60.416664 274.35938 60.416664Q273.625 60.416664 273.125 60.90104Q272.64062 61.385414 272.59375 62.21354ZM284.34375 60.86979L278.67188 60.86979L278.67188 59.885414L284.34375 59.885414L284.34375 60.86979ZM284.34375 63.479164L278.67188 63.479164L278.67188 62.49479L284.34375 62.49479L284.34375 63.479164ZM291.04688 64.90104L291.04688 65.916664L285.35938 65.916664Q285.35938 65.541664 285.48438 65.18229Q285.70312 64.604164 286.17188 64.041664Q286.65625 63.479164 287.5625 62.74479Q288.96875 61.58854 289.45312 60.916664Q289.95312 60.24479 289.95312 59.65104Q289.95312 59.02604 289.5 58.604164Q289.04688 58.166664 288.32812 58.166664Q287.5625 58.166664 287.10938 58.61979Q286.65625 59.072914 286.64062 59.885414L285.5625 59.77604Q285.67188 58.55729 286.39062 57.93229Q287.125 57.291664 288.35938 57.291664Q289.59375 57.291664 290.3125 57.979164Q291.03125 58.666664 291.03125 59.68229Q291.03125 60.197914 290.8125 60.697914Q290.60938 61.18229 290.10938 61.74479Q289.625 62.291664 288.5 63.24479Q287.54688 64.041664 287.26562 64.33854Q287.0 64.61979 286.82812 64.90104L291.04688 64.90104Z" fill-rule="nonzero"/><path fill="#fbbc04" d="M308.0 56.916668C308.0 56.364384 308.44772 55.916668 309.0 55.916668L319.0 55.916668C319.55228 55.916668 320.0 56.364384 320.0 56.916668L320.0 66.916664C320.0 67.46895 319.55228 67.916664 319.0 67.916664L309.0 67.916664C308.44772 67.916664 308.0 67.46895 308.0 66.916664Z" fill-rule="nonzero"/><path fill="#1a1a1a" d="M332.82812 65.916664L332.82812 65.135414Q332.23438 66.05729 331.09375 66.05729Q330.34375 66.05729 329.71875 65.65104Q329.09375 65.229164 328.75 64.49479Q328.40625 63.760414 328.40625 62.80729Q328.40625 61.885414 328.71875 61.11979Q329.03125 60.354164 329.65625 59.96354Q330.28125 59.55729 331.04688 59.55729Q331.60938 59.55729 332.04688 59.791664Q332.48438 60.02604 332.76562 60.40104L332.76562 57.322914L333.8125 57.322914L333.8125 65.916664L332.82812 65.916664ZM329.5 62.80729Q329.5 64.010414 330.0 64.604164Q330.5 65.18229 331.1875 65.18229Q331.875 65.18229 332.35938 64.61979Q332.84375 64.05729 332.84375 62.90104Q332.84375 61.61979 332.34375 61.02604Q331.85938 60.43229 331.14062 60.43229Q330.4375 60.43229 329.96875 61.010414Q329.5 61.572914 329.5 62.80729ZM335.79688 58.541664L335.79688 57.322914L336.85938 57.322914L336.85938 58.541664L335.79688 58.541664ZM335.79688 65.916664L335.79688 59.697914L336.85938 59.697914L336.85938 65.916664L335.79688 65.916664ZM338.375 64.05729L339.40625 63.90104Q339.5 64.52604 339.89062 64.854164Q340.29688 65.18229 341.03125 65.18229Q341.75 65.18229 342.09375 64.90104Q342.45312 64.604164 342.45312 64.197914Q342.45312 63.83854 342.14062 63.635414Q341.92188 63.49479 341.0625 63.27604Q339.90625 62.979164 339.45312 62.77604Q339.01562 62.55729 338.78125 62.18229Q338.54688 61.80729 338.54688 61.33854Q338.54688 60.93229 338.73438 60.572914Q338.92188 60.21354 339.25 59.979164Q339.5 59.80729 339.92188 59.68229Q340.34375 59.55729 340.84375 59.55729Q341.5625 59.55729 342.10938 59.77604Q342.67188 59.979164 342.9375 60.33854Q343.20312 60.697914 343.29688 61.291664L342.26562 61.43229Q342.20312 60.96354 341.85938 60.697914Q341.53125 60.416664 340.90625 60.416664Q340.1875 60.416664 339.875 60.666664Q339.5625 60.90104 339.5625 61.229164Q339.5625 61.43229 339.6875 61.58854Q339.82812 61.760414 340.09375 61.86979Q340.25 61.93229 341.03125 62.135414Q342.15625 62.447914 342.59375 62.635414Q343.03125 62.822914 343.28125 63.18229Q343.53125 63.541664 343.53125 64.08854Q343.53125 64.61979 343.21875 65.08854Q342.92188 65.541664 342.34375 65.80729Q341.76562 66.05729 341.03125 66.05729Q339.8125 66.05729 339.17188 65.55729Q338.54688 65.041664 338.375 64.05729ZM348.09375 64.979164L348.25 65.90104Q347.79688 65.99479 347.45312 65.99479Q346.875 65.99479 346.5625 65.822914Q346.25 65.635414 346.10938 65.33854Q345.98438 65.041664 345.98438 64.08854L345.98438 60.510414L345.21875 60.510414L345.21875 59.697914L345.98438 59.697914L345.98438 58.15104L347.03125 57.52604L347.03125 59.697914L348.09375 59.697914L348.09375 60.510414L347.03125 60.510414L347.03125 64.15104Q347.03125 64.604164 347.07812 64.729164Q347.14062 64.854164 347.26562 64.93229Q347.39062 65.010414 347.625 65.010414Q347.8125 65.010414 348.09375 64.979164ZM352.85938 65.15104Q352.26562 65.65104 351.71875 65.854164Q351.1875 66.05729 350.5625 66.05729Q349.53125 66.05729 348.98438 65.55729Q348.4375 65.05729 348.4375 64.27604Q348.4375 63.822914 348.64062 63.447914Q348.84375 63.05729 349.1875 62.83854Q349.53125 62.604164 349.95312 62.49479Q350.25 62.40104 350.89062 62.322914Q352.15625 62.18229 352.76562 61.96354Q352.76562 61.74479 352.76562 61.697914Q352.76562 61.041664 352.46875 60.77604Q352.0625 60.43229 351.26562 60.43229Q350.53125 60.43229 350.17188 60.697914Q349.8125 60.947914 349.64062 61.604164L348.60938 61.46354Q348.75 60.80729 349.07812 60.40104Q349.40625 59.99479 350.01562 59.77604Q350.625 59.55729 351.42188 59.55729Q352.21875 59.55729 352.71875 59.74479Q353.21875 59.93229 353.45312 60.21354Q353.6875 60.49479 353.78125 60.93229Q353.82812 61.197914 353.82812 61.90104L353.82812 63.30729Q353.82812 64.77604 353.89062 65.166664Q353.96875 65.55729 354.17188 65.916664L353.0625 65.916664Q352.90625 65.58854 352.85938 65.15104ZM352.76562 62.791664Q352.1875 63.02604 351.04688 63.197914Q350.39062 63.291664 350.125 63.416664Q349.85938 63.52604 349.70312 63.74479Q349.5625 63.96354 349.5625 64.24479Q349.5625 64.666664 349.875 64.947914Q350.20312 65.229164 350.8125 65.229164Q351.42188 65.229164 351.89062 64.96354Q352.375 64.697914 352.59375 64.229164Q352.76562 63.86979 352.76562 63.18229L352.76562 62.791664ZM355.79688 65.916664L355.79688 59.697914L356.73438 59.697914L356.73438 60.572914Q357.42188 59.55729 358.71875 59.55729Q359.28125 59.55729 359.75 59.760414Q360.23438 59.96354 360.46875 60.291664Q360.70312 60.61979 360.79688 61.05729Q360.84375 61.354164 360.84375 62.08854L360.84375 65.916664L359.79688 65.916664L359.79688 62.135414Q359.79688 61.479164 359.67188 61.166664Q359.54688 60.854164 359.23438 60.666664Q358.92188 60.46354 358.5 60.46354Q357.82812 60.46354 357.32812 60.90104Q356.84375 61.322914 356.84375 62.510414L356.84375 65.916664L355.79688 65.916664ZM366.85938 63.635414L367.89062 63.77604Q367.71875 64.83854 367.01562 65.447914Q366.3125 66.05729 365.29688 66.05729Q364.01562 66.05729 363.23438 65.229164Q362.46875 64.385414 362.46875 62.822914Q362.46875 61.822914 362.79688 61.072914Q363.14062 60.30729 363.8125 59.93229Q364.5 59.55729 365.3125 59.55729Q366.3125 59.55729 366.95312 60.072914Q367.60938 60.572914 367.79688 61.52604L366.76562 61.68229Q366.625 61.05729 366.25 60.74479Q365.875 60.416664 365.34375 60.416664Q364.54688 60.416664 364.04688 60.99479Q363.54688 61.55729 363.54688 62.791664Q363.54688 64.05729 364.03125 64.61979Q364.51562 65.18229 365.28125 65.18229Q365.90625 65.18229 366.3125 64.80729Q366.73438 64.43229 366.85938 63.635414ZM373.04688 63.916664L374.14062 64.041664Q373.89062 64.99479 373.1875 65.52604Q372.48438 66.05729 371.40625 66.05729Q370.04688 66.05729 369.23438 65.21354Q368.4375 64.36979 368.4375 62.854164Q368.4375 61.291664 369.25 60.43229Q370.0625 59.55729 371.34375 59.55729Q372.59375 59.55729 373.375 60.40104Q374.17188 61.24479 374.17188 62.791664Q374.17188 62.885414 374.17188 63.072914L369.53125 63.072914Q369.59375 64.104164 370.10938 64.65104Q370.625 65.18229 371.40625 65.18229Q371.98438 65.18229 372.39062 64.885414Q372.8125 64.572914 373.04688 63.916664ZM369.59375 62.21354L373.0625 62.21354Q373.0 61.416664 372.67188 61.02604Q372.15625 60.416664 371.35938 60.416664Q370.625 60.416664 370.125 60.90104Q369.64062 61.385414 369.59375 62.21354ZM381.34375 60.86979L375.67188 60.86979L375.67188 59.885414L381.34375 59.885414L381.34375 60.86979ZM381.34375 63.479164L375.67188 63.479164L375.67188 62.49479L381.34375 62.49479L381.34375 63.479164ZM385.875 65.916664L385.875 63.854164L382.15625 63.854164L382.15625 62.885414L386.07812 57.322914L386.9375 57.322914L386.9375 62.885414L388.09375 62.885414L388.09375 63.854164L386.9375 63.854164L386.9375 65.916664L385.875 65.916664ZM385.875 62.885414L385.875 59.02604L383.1875 62.885414L385.875 62.885414Z" fill-rule="nonzero"/><path fill="#34a853" d="M405.0 56.916668C405.0 56.364384 405.44772 55.916668 406.0 55.916668L416.0 55.916668C416.55228 55.916668 417.0 56.364384 417.0 56.916668L417.0 66.916664C417.0 67.46895 416.55228 67.916664 416.0 67.916664L406.0 67.916664C405.44772 67.916664 405.0 67.46895 405.0 66.916664Z" fill-rule="nonzero"/><path fill="#1a1a1a" d="M429.82812 65.916664L429.82812 65.135414Q429.23438 66.05729 428.09375 66.05729Q427.34375 66.05729 426.71875 65.65104Q426.09375 65.229164 425.75 64.49479Q425.40625 63.760414 425.40625 62.80729Q425.40625 61.885414 425.71875 61.11979Q426.03125 60.354164 426.65625 59.96354Q427.28125 59.55729 428.04688 59.55729Q428.60938 59.55729 429.04688 59.791664Q429.48438 60.02604 429.76562 60.40104L429.76562 57.322914L430.8125 57.322914L430.8125 65.916664L429.82812 65.916664ZM426.5 62.80729Q426.5 64.010414 427.0 64.604164Q427.5 65.18229 428.1875 65.18229Q428.875 65.18229 429.35938 64.61979Q429.84375 64.05729 429.84375 62.90104Q429.84375 61.61979 429.34375 61.02604Q428.85938 60.43229 428.14062 60.43229Q427.4375 60.43229 426.96875 61.010414Q426.5 61.572914 426.5 62.80729ZM432.79688 58.541664L432.79688 57.322914L433.85938 57.322914L433.85938 58.541664L432.79688 58.541664ZM432.79688 65.916664L432.79688 59.697914L433.85938 59.697914L433.85938 65.916664L432.79688 65.916664ZM435.375 64.05729L436.40625 63.90104Q436.5 64.52604 436.89062 64.854164Q437.29688 65.18229 438.03125 65.18229Q438.75 65.18229 439.09375 64.90104Q439.45312 64.604164 439.45312 64.197914Q439.45312 63.83854 439.14062 63.635414Q438.92188 63.49479 438.0625 63.27604Q436.90625 62.979164 436.45312 62.77604Q436.01562 62.55729 435.78125 62.18229Q435.54688 61.80729 435.54688 61.33854Q435.54688 60.93229 435.73438 60.572914Q435.92188 60.21354 436.25 59.979164Q436.5 59.80729 436.92188 59.68229Q437.34375 59.55729 437.84375 59.55729Q438.5625 59.55729 439.10938 59.77604Q439.67188 59.979164 439.9375 60.33854Q440.20312 60.697914 440.29688 61.291664L439.26562 61.43229Q439.20312 60.96354 438.85938 60.697914Q438.53125 60.416664 437.90625 60.416664Q437.1875 60.416664 436.875 60.666664Q436.5625 60.90104 436.5625 61.229164Q436.5625 61.43229 436.6875 61.58854Q436.82812 61.760414 437.09375 61.86979Q437.25 61.93229 438.03125 62.135414Q439.15625 62.447914 439.59375 62.635414Q440.03125 62.822914 440.28125 63.18229Q440.53125 63.541664 440.53125 64.08854Q440.53125 64.61979 440.21875 65.08854Q439.92188 65.541664 439.34375 65.80729Q438.76562 66.05729 438.03125 66.05729Q436.8125 66.05729 436.17188 65.55729Q435.54688 65.041664 435.375 64.05729ZM445.09375 64.979164L445.25 65.90104Q444.79688 65.99479 444.45312 65.99479Q443.875 65.99479 443.5625 65.822914Q443.25 65.635414 443.10938 65.33854Q442.98438 65.041664 442.98438 64.08854L442.98438 60.510414L442.21875 60.510414L442.21875 59.697914L442.98438 59.697914L442.98438 58.15104L444.03125 57.52604L444.03125 59.697914L445.09375 59.697914L445.09375 60.510414L444.03125 60.510414L444.03125 64.15104Q444.03125 64.604164 444.07812 64.729164Q444.14062 64.854164 444.26562 64.93229Q444.39062 65.010414 444.625 65.010414Q444.8125 65.010414 445.09375 64.979164ZM449.85938 65.15104Q449.26562 65.65104 448.71875 65.854164Q448.1875 66.05729 447.5625 66.05729Q446.53125 66.05729 445.98438 65.55729Q445.4375 65.05729 445.4375 64.27604Q445.4375 63.822914 445.64062 63.447914Q445.84375 63.05729 446.1875 62.83854Q446.53125 62.604164 446.95312 62.49479Q447.25 62.40104 447.89062 62.322914Q449.15625 62.18229 449.76562 61.96354Q449.76562 61.74479 449.76562 61.697914Q449.76562 61.041664 449.46875 60.77604Q449.0625 60.43229 448.26562 60.43229Q447.53125 60.43229 447.17188 60.697914Q446.8125 60.947914 446.64062 61.604164L445.60938 61.46354Q445.75 60.80729 446.07812 60.40104Q446.40625 59.99479 447.01562 59.77604Q447.625 59.55729 448.42188 59.55729Q449.21875 59.55729 449.71875 59.74479Q450.21875 59.93229 450.45312 60.21354Q450.6875 60.49479 450.78125 60.93229Q450.82812 61.197914 450.82812 61.90104L450.82812 63.30729Q450.82812 64.77604 450.89062 65.166664Q450.96875 65.55729 451.17188 65.916664L450.0625 65.916664Q449.90625 65.58854 449.85938 65.15104ZM449.76562 62.791664Q449.1875 63.02604 448.04688 63.197914Q447.39062 63.291664 447.125 63.416664Q446.85938 63.52604 446.70312 63.74479Q446.5625 63.96354 446.5625 64.24479Q446.5625 64.666664 446.875 64.947914Q447.20312 65.229164 447.8125 65.229164Q448.42188 65.229164 448.89062 64.96354Q449.375 64.697914 449.59375 64.229164Q449.76562 63.86979 449.76562 63.18229L449.76562 62.791664ZM452.79688 65.916664L452.79688 59.697914L453.73438 59.697914L453.73438 60.572914Q454.42188 59.55729 455.71875 59.55729Q456.28125 59.55729 456.75 59.760414Q457.23438 59.96354 457.46875 60.291664Q457.70312 60.61979 457.79688 61.05729Q457.84375 61.354164 457.84375 62.08854L457.84375 65.916664L456.79688 65.916664L456.79688 62.135414Q456.79688 61.479164 456.67188 61.166664Q456.54688 60.854164 456.23438 60.666664Q455.92188 60.46354 455.5 60.46354Q454.82812 60.46354 454.32812 60.90104Q453.84375 61.322914 453.84375 62.510414L453.84375 65.916664L452.79688 65.916664ZM463.85938 63.635414L464.89062 63.77604Q464.71875 64.83854 464.01562 65.447914Q463.3125 66.05729 462.29688 66.05729Q461.01562 66.05729 460.23438 65.229164Q459.46875 64.385414 459.46875 62.822914Q459.46875 61.822914 459.79688 61.072914Q460.14062 60.30729 460.8125 59.93229Q461.5 59.55729 462.3125 59.55729Q463.3125 59.55729 463.95312 60.072914Q464.60938 60.572914 464.79688 61.52604L463.76562 61.68229Q463.625 61.05729 463.25 60.74479Q462.875 60.416664 462.34375 60.416664Q461.54688 60.416664 461.04688 60.99479Q460.54688 61.55729 460.54688 62.791664Q460.54688 64.05729 461.03125 64.61979Q461.51562 65.18229 462.28125 65.18229Q462.90625 65.18229 463.3125 64.80729Q463.73438 64.43229 463.85938 63.635414ZM470.04688 63.916664L471.14062 64.041664Q470.89062 64.99479 470.1875 65.52604Q469.48438 66.05729 468.40625 66.05729Q467.04688 66.05729 466.23438 65.21354Q465.4375 64.36979 465.4375 62.854164Q465.4375 61.291664 466.25 60.43229Q467.0625 59.55729 468.34375 59.55729Q469.59375 59.55729 470.375 60.40104Q471.17188 61.24479 471.17188 62.791664Q471.17188 62.885414 471.17188 63.072914L466.53125 63.072914Q466.59375 64.104164 467.10938 64.65104Q467.625 65.18229 468.40625 65.18229Q468.98438 65.18229 469.39062 64.885414Q469.8125 64.572914 470.04688 63.916664ZM466.59375 62.21354L470.0625 62.21354Q470.0 61.416664 469.67188 61.02604Q469.15625 60.416664 468.35938 60.416664Q467.625 60.416664 467.125 60.90104Q466.64062 61.385414 466.59375 62.21354ZM478.34375 60.86979L472.67188 60.86979L472.67188 59.885414L478.34375 59.885414L478.34375 60.86979ZM478.34375 63.479164L472.67188 63.479164L472.67188 62.49479L478.34375 62.49479L478.34375 63.479164ZM481.125 61.260414Q480.46875 61.010414 480.14062 60.572914Q479.82812 60.11979 479.82812 59.510414Q479.82812 58.572914 480.5 57.93229Q481.1875 57.291664 482.29688 57.291664Q483.42188 57.291664 484.10938 57.947914Q484.79688 58.604164 484.79688 59.541664Q484.79688 60.135414 484.48438 60.572914Q484.17188 61.010414 483.53125 61.260414Q484.32812 61.510414 484.73438 62.08854Q485.14062 62.666664 485.14062 63.46354Q485.14062 64.55729 484.35938 65.30729Q483.59375 66.05729 482.3125 66.05729Q481.04688 66.05729 480.26562 65.30729Q479.48438 64.55729 479.48438 63.43229Q479.48438 62.58854 479.90625 62.02604Q480.34375 61.46354 481.125 61.260414ZM480.90625 59.46354Q480.90625 60.072914 481.29688 60.46354Q481.70312 60.854164 482.32812 60.854164Q482.9375 60.854164 483.32812 60.479164Q483.71875 60.08854 483.71875 59.52604Q483.71875 58.947914 483.3125 58.55729Q482.90625 58.15104 482.3125 58.15104Q481.70312 58.15104 481.29688 58.541664Q480.90625 58.93229 480.90625 59.46354ZM480.57812 63.43229Q480.57812 63.885414 480.78125 64.30729Q481.0 64.729164 481.42188 64.96354Q481.84375 65.197914 482.32812 65.197914Q483.07812 65.197914 483.5625 64.71354Q484.0625 64.229164 484.0625 63.479164Q484.0625 62.71354 483.5625 62.21354Q483.0625 61.71354 482.29688 61.71354Q481.54688 61.71354 481.0625 62.21354Q480.57812 62.697914 480.57812 63.43229Z" fill-rule="nonzero"/><path fill="#757575" d="M19.45625 32.95625L21.2375 32.8Q21.3625 33.8625 21.815624 34.55Q22.284374 35.2375 23.253124 35.675Q24.2375 36.096874 25.471874 36.096874Q26.55 36.096874 27.378124 35.784374Q28.20625 35.45625 28.6125 34.89375Q29.01875 34.33125 29.01875 33.659374Q29.01875 32.9875 28.628124 32.4875Q28.2375 31.9875 27.346874 31.64375Q26.76875 31.409374 24.784374 30.940624Q22.815624 30.471874 22.034374 30.05Q21.003124 29.51875 20.503124 28.721874Q20.003124 27.925 20.003124 26.940624Q20.003124 25.846874 20.6125 24.909374Q21.221874 23.971874 22.409374 23.4875Q23.596874 22.9875 25.034374 22.9875Q26.628124 22.9875 27.846874 23.503124Q29.065624 24.01875 29.70625 25.01875Q30.3625 26.003124 30.409374 27.26875L28.596874 27.409374Q28.45625 26.05 27.6125 25.3625Q26.76875 24.659374 25.1125 24.659374Q23.39375 24.659374 22.596874 25.3Q21.815624 25.925 21.815624 26.8Q21.815624 27.58125 22.378124 28.08125Q22.925 28.58125 25.2375 29.096874Q27.55 29.6125 28.409374 30.003124Q29.659374 30.58125 30.253124 31.471874Q30.846874 32.346874 30.846874 33.503124Q30.846874 34.64375 30.190624 35.659374Q29.534374 36.675 28.3 37.2375Q27.08125 37.8 25.55 37.8Q23.6125 37.8 22.3 37.2375Q20.9875 36.659374 20.2375 35.51875Q19.4875 34.378124 19.45625 32.95625ZM32.8625 41.51875L32.8625 27.175L34.471874 27.175L34.471874 28.51875Q35.034374 27.7375 35.7375 27.346874Q36.45625 26.940624 37.471874 26.940624Q38.8 26.940624 39.815624 27.628124Q40.83125 28.315624 41.346874 29.565624Q41.878124 30.8 41.878124 32.284374Q41.878124 33.878124 41.3 35.159374Q40.7375 36.425 39.64375 37.1125Q38.55 37.784374 37.346874 37.784374Q36.471874 37.784374 35.76875 37.409374Q35.08125 37.034374 34.628124 36.471874L34.628124 41.51875L32.8625 41.51875ZM34.45625 32.425Q34.45625 34.425 35.26875 35.378124Q36.08125 36.33125 37.2375 36.33125Q38.409374 36.33125 39.2375 35.346874Q40.08125 34.3625 40.08125 32.26875Q40.08125 30.3 39.253124 29.315624Q38.440624 28.315624 37.315624 28.315624Q36.190624 28.315624 35.315624 29.378124Q34.45625 30.425 34.45625 32.425ZM50.971874 34.20625L52.784374 34.440624Q52.3625 36.01875 51.190624 36.909374Q50.034374 37.784374 48.221874 37.784374Q45.95625 37.784374 44.6125 36.39375Q43.284374 34.9875 43.284374 32.45625Q43.284374 29.83125 44.628124 28.39375Q45.971874 26.940624 48.128124 26.940624Q50.20625 26.940624 51.51875 28.3625Q52.846874 29.76875 52.846874 32.346874Q52.846874 32.503124 52.83125 32.815624L45.096874 32.815624Q45.190624 34.51875 46.065624 35.425Q46.940624 36.33125 48.2375 36.33125Q49.20625 36.33125 49.878124 35.83125Q50.565624 35.315624 50.971874 34.20625ZM45.190624 31.3625L50.9875 31.3625Q50.878124 30.065624 50.33125 29.409374Q49.4875 28.39375 48.14375 28.39375Q46.940624 28.39375 46.1125 29.20625Q45.284374 30.003124 45.190624 31.3625ZM61.971874 34.20625L63.784374 34.440624Q63.3625 36.01875 62.190624 36.909374Q61.034374 37.784374 59.221874 37.784374Q56.95625 37.784374 55.6125 36.39375Q54.284374 34.9875 54.284374 32.45625Q54.284374 29.83125 55.628124 28.39375Q56.971874 26.940624 59.128124 26.940624Q61.20625 26.940624 62.51875 28.3625Q63.846874 29.76875 63.846874 32.346874Q63.846874 32.503124 63.83125 32.815624L56.096874 32.815624Q56.190624 34.51875 57.065624 35.425Q57.940624 36.33125 59.2375 36.33125Q60.20625 36.33125 60.878124 35.83125Q61.565624 35.315624 61.971874 34.20625ZM56.190624 31.3625L61.9875 31.3625Q61.878124 30.065624 61.33125 29.409374Q60.4875 28.39375 59.14375 28.39375Q57.940624 28.39375 57.1125 29.20625Q56.284374 30.003124 56.190624 31.3625ZM72.59688 37.55L72.59688 36.2375Q71.6125 37.784374 69.69063 37.784374Q68.45625 37.784374 67.40938 37.096874Q66.37813 36.409374 65.8 35.190624Q65.2375 33.971874 65.2375 32.378124Q65.2375 30.815624 65.75313 29.55Q66.26875 28.284374 67.3 27.6125Q68.34688 26.940624 69.6125 26.940624Q70.55 26.940624 71.28438 27.346874Q72.01875 27.7375 72.4875 28.3625L72.4875 23.2375L74.22188 23.2375L74.22188 37.55L72.59688 37.55ZM67.03438 32.378124Q67.03438 34.3625 67.87813 35.346874Q68.72188 36.33125 69.8625 36.33125Q71.01875 36.33125 71.81563 35.39375Q72.62813 34.45625 72.62813 32.51875Q72.62813 30.39375 71.8 29.39375Q70.9875 28.39375 69.78438 28.39375Q68.6125 28.39375 67.81563 29.3625Q67.03438 30.315624 67.03438 32.378124ZM83.65938 37.55L83.65938 36.01875Q82.45625 37.784374 80.37813 37.784374Q79.45625 37.784374 78.65938 37.440624Q77.8625 37.08125 77.47188 36.55Q77.09688 36.01875 76.94063 35.2375Q76.83125 34.721874 76.83125 33.596874L76.83125 27.175L78.58125 27.175L78.58125 32.925Q78.58125 34.3 78.69063 34.784374Q78.8625 35.471874 79.39375 35.878124Q79.94063 36.26875 80.72188 36.26875Q81.51875 36.26875 82.20625 35.8625Q82.90938 35.45625 83.19063 34.76875Q83.4875 34.065624 83.4875 32.7375L83.4875 27.175L85.2375 27.175L85.2375 37.55L83.65938 37.55ZM86.8625 41.51875L86.8625 27.175L88.47188 27.175L88.47188 28.51875Q89.03438 27.7375 89.7375 27.346874Q90.45625 26.940624 91.47188 26.940624Q92.8 26.940624 93.81563 27.628124Q94.83125 28.315624 95.34688 29.565624Q95.87813 30.8 95.87813 32.284374Q95.87813 33.878124 95.3 35.159374Q94.7375 36.425 93.64375 37.1125Q92.55 37.784374 91.34688 37.784374Q90.47188 37.784374 89.76875 37.409374Q89.08125 37.034374 88.62813 36.471874L88.62813 41.51875L86.8625 41.51875ZM88.45625 32.425Q88.45625 34.425 89.26875 35.378124Q90.08125 36.33125 91.2375 36.33125Q92.40938 36.33125 93.2375 35.346874Q94.08125 34.3625 94.08125 32.26875Q94.08125 30.3 93.25313 29.315624Q92.44063 28.315624 91.31563 28.315624Q90.19063 28.315624 89.31563 29.378124Q88.45625 30.425 88.45625 32.425ZM104.28438 37.55L104.28438 28.55L102.7375 28.55L102.7375 27.175L104.28438 27.175L104.28438 26.08125Q104.28438 25.034374 104.47188 24.51875Q104.72188 23.83125 105.3625 23.409374Q106.00313 22.9875 107.15938 22.9875Q107.90938 22.9875 108.8 23.159374L108.53438 24.690624Q107.9875 24.596874 107.50313 24.596874Q106.70625 24.596874 106.3625 24.940624Q106.03438 25.284374 106.03438 26.221874L106.03438 27.175L108.06563 27.175L108.06563 28.55L106.03438 28.55L106.03438 37.55L104.28438 37.55ZM109.22188 32.3625Q109.22188 29.4875 110.81563 28.096874Q112.15938 26.940624 114.08125 26.940624Q116.22188 26.940624 117.56563 28.346874Q118.925 29.753124 118.925 32.221874Q118.925 34.221874 118.33125 35.378124Q117.7375 36.51875 116.58125 37.159374Q115.44063 37.784374 114.08125 37.784374Q111.89375 37.784374 110.55 36.39375Q109.22188 34.9875 109.22188 32.3625ZM111.01875 32.3625Q111.01875 34.3625 111.87813 35.346874Q112.75313 36.33125 114.08125 36.33125Q115.39375 36.33125 116.25313 35.346874Q117.12813 34.346874 117.12813 32.3Q117.12813 30.378124 116.25313 29.39375Q115.37813 28.39375 114.08125 28.39375Q112.75313 28.39375 111.87813 29.39375Q111.01875 30.378124 111.01875 32.3625ZM120.84688 37.55L120.84688 27.175L122.425 27.175L122.425 28.753124Q123.03438 27.64375 123.55 27.3Q124.06563 26.940624 124.675 26.940624Q125.56563 26.940624 126.4875 27.503124L125.87813 29.14375Q125.2375 28.753124 124.59688 28.753124Q124.01875 28.753124 123.55 29.1125Q123.09688 29.45625 122.89375 30.065624Q122.6125 31.003124 122.6125 32.1125L122.6125 37.55L120.84688 37.55ZM140.59688 37.55L140.59688 36.2375Q139.6125 37.784374 137.69063 37.784374Q136.45625 37.784374 135.40938 37.096874Q134.37813 36.409374 133.8 35.190624Q133.2375 33.971874 133.2375 32.378124Q133.2375 30.815624 133.75313 29.55Q134.26875 28.284374 135.3 27.6125Q136.34688 26.940624 137.6125 26.940624Q138.55 26.940624 139.28438 27.346874Q140.01875 27.7375 140.4875 28.3625L140.4875 23.2375L142.22188 23.2375L142.22188 37.55L140.59688 37.55ZM135.03438 32.378124Q135.03438 34.3625 135.87813 35.346874Q136.72188 36.33125 137.8625 36.33125Q139.01875 36.33125 139.81563 35.39375Q140.62813 34.45625 140.62813 32.51875Q140.62813 30.39375 139.8 29.39375Q138.9875 28.39375 137.78438 28.39375Q136.6125 28.39375 135.81563 29.3625Q135.03438 30.315624 135.03438 32.378124ZM144.87813 25.253124L144.87813 23.2375L146.64375 23.2375L146.64375 25.253124L144.87813 25.253124ZM144.87813 37.55L144.87813 27.175L146.64375 27.175L146.64375 37.55L144.87813 37.55ZM149.28438 37.55L149.28438 28.55L147.7375 28.55L147.7375 27.175L149.28438 27.175L149.28438 26.08125Q149.28438 25.034374 149.47188 24.51875Q149.72188 23.83125 150.3625 23.409374Q151.00313 22.9875 152.15938 22.9875Q152.90938 22.9875 153.8 23.159374L153.53438 24.690624Q152.9875 24.596874 152.50313 24.596874Q151.70625 24.596874 151.3625 24.940624Q151.03438 25.284374 151.03438 26.221874L151.03438 27.175L153.06563 27.175L153.06563 28.55L151.03438 28.55L151.03438 37.55L149.28438 37.55ZM155.28438 37.55L155.28438 28.55L153.7375 28.55L153.7375 27.175L155.28438 27.175L155.28438 26.08125Q155.28438 25.034374 155.47188 24.51875Q155.72188 23.83125 156.3625 23.409374Q157.00313 22.9875 158.15938 22.9875Q158.90938 22.9875 159.8 23.159374L159.53438 24.690624Q158.9875 24.596874 158.50313 24.596874Q157.70625 24.596874 157.3625 24.940624Q157.03438 25.284374 157.03438 26.221874L157.03438 27.175L159.06563 27.175L159.06563 28.55L157.03438 28.55L157.03438 37.55L155.28438 37.55ZM167.97188 34.20625L169.78438 34.440624Q169.3625 36.01875 168.19063 36.909374Q167.03438 37.784374 165.22188 37.784374Q162.95625 37.784374 161.6125 36.39375Q160.28438 34.9875 160.28438 32.45625Q160.28438 29.83125 161.62813 28.39375Q162.97188 26.940624 165.12813 26.940624Q167.20625 26.940624 168.51875 28.3625Q169.84688 29.76875 169.84688 32.346874Q169.84688 32.503124 169.83125 32.815624L162.09688 32.815624Q162.19063 34.51875 163.06563 35.425Q163.94063 36.33125 165.2375 36.33125Q166.20625 36.33125 166.87813 35.83125Q167.56563 35.315624 167.97188 34.20625ZM162.19063 31.3625L167.9875 31.3625Q167.87813 30.065624 167.33125 29.409374Q166.4875 28.39375 165.14375 28.39375Q163.94063 28.39375 163.1125 29.20625Q162.28438 30.003124 162.19063 31.3625ZM171.84688 37.55L171.84688 27.175L173.425 27.175L173.425 28.753124Q174.03438 27.64375 174.55 27.3Q175.06563 26.940624 175.675 26.940624Q176.56563 26.940624 177.4875 27.503124L176.87813 29.14375Q176.2375 28.753124 175.59688 28.753124Q175.01875 28.753124 174.55 29.1125Q174.09688 29.45625 173.89375 30.065624Q173.6125 31.003124 173.6125 32.1125L173.6125 37.55L171.84688 37.55ZM185.97188 34.20625L187.78438 34.440624Q187.3625 36.01875 186.19063 36.909374Q185.03438 37.784374 183.22188 37.784374Q180.95625 37.784374 179.6125 36.39375Q178.28438 34.9875 178.28438 32.45625Q178.28438 29.83125 179.62813 28.39375Q180.97188 26.940624 183.12813 26.940624Q185.20625 26.940624 186.51875 28.3625Q187.84688 29.76875 187.84688 32.346874Q187.84688 32.503124 187.83125 32.815624L180.09688 32.815624Q180.19063 34.51875 181.06563 35.425Q181.94063 36.33125 183.2375 36.33125Q184.20625 36.33125 184.87813 35.83125Q185.56563 35.315624 185.97188 34.20625ZM180.19063 31.3625L185.9875 31.3625Q185.87813 30.065624 185.33125 29.409374Q184.4875 28.39375 183.14375 28.39375Q181.94063 28.39375 181.1125 29.20625Q180.28438 30.003124 180.19063 31.3625ZM189.8625 37.55L189.8625 27.175L191.45625 27.175L191.45625 28.659374Q192.59688 26.940624 194.75313 26.940624Q195.69063 26.940624 196.47188 27.284374Q197.26875 27.6125 197.65938 28.159374Q198.05 28.70625 198.20625 29.45625Q198.3 29.95625 198.3 31.175L198.3 37.55L196.53438 37.55L196.53438 31.2375Q196.53438 30.159374 196.33125 29.628124Q196.12813 29.096874 195.59688 28.784374Q195.08125 28.471874 194.37813 28.471874Q193.25313 28.471874 192.44063 29.190624Q191.62813 29.89375 191.62813 31.878124L191.62813 37.55L189.8625 37.55ZM203.70625 35.971874L203.95625 37.534374Q203.22188 37.690624 202.62813 37.690624Q201.675 37.690624 201.14375 37.39375Q200.62813 37.08125 200.40938 36.596874Q200.19063 36.096874 200.19063 34.51875L200.19063 28.55L198.90938 28.55L198.90938 27.175L200.19063 27.175L200.19063 24.6125L201.94063 23.55L201.94063 27.175L203.70625 27.175L203.70625 28.55L201.94063 28.55L201.94063 34.6125Q201.94063 35.3625 202.03438 35.58125Q202.12813 35.784374 202.33125 35.925Q202.55 36.05 202.94063 36.05Q203.22188 36.05 203.70625 35.971874ZM215.70625 35.971874L215.95625 37.534374Q215.22188 37.690624 214.62813 37.690624Q213.675 37.690624 213.14375 37.39375Q212.62813 37.08125 212.40938 36.596874Q212.19063 36.096874 212.19063 34.51875L212.19063 28.55L210.90938 28.55L210.90938 27.175L212.19063 27.175L212.19063 24.6125L213.94063 23.55L213.94063 27.175L215.70625 27.175L215.70625 28.55L213.94063 28.55L213.94063 34.6125Q213.94063 35.3625 214.03438 35.58125Q214.12813 35.784374 214.33125 35.925Q214.55 36.05 214.94063 36.05Q215.22188 36.05 215.70625 35.971874ZM224.64375 36.26875Q223.65938 37.096874 222.75313 37.440624Q221.84688 37.784374 220.81563 37.784374Q219.1125 37.784374 218.19063 36.95625Q217.26875 36.1125 217.26875 34.815624Q217.26875 34.05 217.6125 33.425Q217.97188 32.8 218.53438 32.425Q219.09688 32.034374 219.8 31.83125Q220.31563 31.70625 221.3625 31.565624Q223.4875 31.315624 224.4875 30.971874Q224.50313 30.6125 224.50313 30.503124Q224.50313 29.440624 224.00313 28.9875Q223.33125 28.39375 222.00313 28.39375Q220.75313 28.39375 220.15938 28.83125Q219.58125 29.26875 219.3 30.378124L217.58125 30.14375Q217.81563 29.034374 218.34688 28.3625Q218.87813 27.675 219.89375 27.315624Q220.90938 26.940624 222.25313 26.940624Q223.58125 26.940624 224.40938 27.253124Q225.2375 27.565624 225.62813 28.05Q226.01875 28.51875 226.175 29.2375Q226.26875 29.690624 226.26875 30.8625L226.26875 33.20625Q226.26875 35.659374 226.37813 36.315624Q226.4875 36.95625 226.83125 37.55L224.9875 37.55Q224.72188 37.003124 224.64375 36.26875ZM224.4875 32.346874Q223.53438 32.7375 221.6125 33.003124Q220.53438 33.159374 220.08125 33.3625Q219.64375 33.55 219.39375 33.925Q219.14375 34.3 219.14375 34.76875Q219.14375 35.471874 219.675 35.940624Q220.20625 36.409374 221.2375 36.409374Q222.25313 36.409374 223.03438 35.971874Q223.83125 35.51875 224.20625 34.753124Q224.4875 34.14375 224.4875 32.9875L224.4875 32.346874ZM230.4875 37.55L228.8625 37.55L228.8625 23.2375L230.6125 23.2375L230.6125 28.346874Q231.7375 26.940624 233.45625 26.940624Q234.40938 26.940624 235.26875 27.33125Q236.12813 27.721874 236.675 28.425Q237.22188 29.1125 237.53438 30.096874Q237.84688 31.08125 237.84688 32.20625Q237.84688 34.878124 236.53438 36.33125Q235.22188 37.784374 233.37813 37.784374Q231.53438 37.784374 230.4875 36.253124L230.4875 37.55ZM230.47188 32.284374Q230.47188 34.14375 230.97188 34.9875Q231.81563 36.33125 233.22188 36.33125Q234.37813 36.33125 235.20625 35.33125Q236.05 34.33125 236.05 32.346874Q236.05 30.315624 235.2375 29.3625Q234.44063 28.39375 233.3 28.39375Q232.14375 28.39375 231.3 29.39375Q230.47188 30.39375 230.47188 32.284374ZM239.83125 37.55L239.83125 23.2375L241.58125 23.2375L241.58125 37.55L239.83125 37.55ZM250.97188 34.20625L252.78438 34.440624Q252.3625 36.01875 251.19063 36.909374Q250.03438 37.784374 248.22188 37.784374Q245.95625 37.784374 244.6125 36.39375Q243.28438 34.9875 243.28438 32.45625Q243.28438 29.83125 244.62813 28.39375Q245.97188 26.940624 248.12813 26.940624Q250.20625 26.940624 251.51875 28.3625Q252.84688 29.76875 252.84688 32.346874Q252.84688 32.503124 252.83125 32.815624L245.09688 32.815624Q245.19063 34.51875 246.06563 35.425Q246.94063 36.33125 248.2375 36.33125Q249.20625 36.33125 249.87813 35.83125Q250.56563 35.315624 250.97188 34.20625ZM245.19063 31.3625L250.9875 31.3625Q250.87813 30.065624 250.33125 29.409374Q249.4875 28.39375 248.14375 28.39375Q246.94063 28.39375 246.1125 29.20625Q245.28438 30.003124 245.19063 31.3625ZM260.15936 34.45625L261.90936 34.175Q262.05 35.221874 262.72186 35.784374Q263.39374 36.33125 264.59686 36.33125Q265.8 36.33125 266.3781 35.846874Q266.97186 35.346874 266.97186 34.690624Q266.97186 34.096874 266.45624 33.753124Q266.09686 33.51875 264.65936 33.159374Q262.72186 32.659374 261.97186 32.315624Q261.2375 31.95625 260.84686 31.33125Q260.45624 30.690624 260.45624 29.925Q260.45624 29.2375 260.76874 28.64375Q261.09686 28.05 261.64374 27.659374Q262.05 27.3625 262.7531 27.159374Q263.47186 26.940624 264.28436 26.940624Q265.5031 26.940624 266.425 27.3Q267.34686 27.64375 267.78436 28.253124Q268.22186 28.846874 268.39374 29.846874L266.675 30.08125Q266.55 29.284374 265.9875 28.846874Q265.425 28.39375 264.40936 28.39375Q263.1906 28.39375 262.675 28.8Q262.15936 29.190624 262.15936 29.721874Q262.15936 30.065624 262.3781 30.346874Q262.58124 30.628124 263.05 30.815624Q263.3156 30.909374 264.59686 31.253124Q266.47186 31.753124 267.20624 32.08125Q267.9406 32.39375 268.3625 33.003124Q268.78436 33.596874 268.78436 34.503124Q268.78436 35.378124 268.26874 36.159374Q267.7531 36.940624 266.78436 37.3625Q265.8156 37.784374 264.59686 37.784374Q262.58124 37.784374 261.51874 36.940624Q260.45624 36.096874 260.15936 34.45625ZM270.8781 25.253124L270.8781 23.2375L272.64374 23.2375L272.64374 25.253124L270.8781 25.253124ZM270.8781 37.55L270.8781 27.175L272.64374 27.175L272.64374 37.55L270.8781 37.55ZM273.9406 37.55L273.9406 36.128124L280.55 28.55Q279.425 28.596874 278.5656 28.596874L274.33124 28.596874L274.33124 27.175L282.8156 27.175L282.8156 28.346874L277.1906 34.925L276.1125 36.128124Q277.28436 36.034374 278.33124 36.034374L283.1281 36.034374L283.1281 37.55L273.9406 37.55ZM290.97186 34.20625L292.78436 34.440624Q292.3625 36.01875 291.1906 36.909374Q290.03436 37.784374 288.22186 37.784374Q285.95624 37.784374 284.6125 36.39375Q283.28436 34.9875 283.28436 32.45625Q283.28436 29.83125 284.6281 28.39375Q285.97186 26.940624 288.1281 26.940624Q290.20624 26.940624 291.51874 28.3625Q292.84686 29.76875 292.84686 32.346874Q292.84686 32.503124 292.83124 32.815624L285.09686 32.815624Q285.1906 34.51875 286.0656 35.425Q286.9406 36.33125 288.2375 36.33125Q289.20624 36.33125 289.8781 35.83125Q290.5656 35.315624 290.97186 34.20625ZM285.1906 31.3625L290.9875 31.3625Q290.8781 30.065624 290.33124 29.409374Q289.4875 28.39375 288.14374 28.39375Q286.9406 28.39375 286.1125 29.20625Q285.28436 30.003124 285.1906 31.3625Z" fill-rule="nonzero"/></svg>