<svg version="1.1" viewBox="0.0 0.0 600.0 371.0" fill="none" stroke="none" stroke-linecap="square" stroke-miterlimit="10" width="600" height="371" xmlns:xlink="http://www.w3.org/1999/xlink" xmlns="http://www.w3.org/2000/svg"><path fill="#ffffff" d="M0 0L600.0 0L600.0 371.0L0 371.0L0 0Z" fill-rule="nonzero"/><path stroke="#cccccc" stroke-width="1.0" stroke-linecap="butt" d="M145.5 61.5L145.5 300.5" fill-rule="nonzero"/><path stroke="#cccccc" stroke-width="1.0" stroke-linecap="butt" d="M218.5 61.5L218.5 300.5" fill-rule="nonzero"/><path stroke="#cccccc" stroke-width="1.0" stroke-linecap="butt" d="M290.5 61.5L290.5 300.5" fill-rule="nonzero"/><path stroke="#cccccc" stroke-width="1.0" stroke-linecap="butt" d="M363.5 61.5L363.5 300.5" fill-rule="nonzero"/><path stroke="#cccccc" stroke-width="1.0" stroke-linecap="butt" d="M436.5 61.5L436.5 300.5" fill-rule="nonzero"/><path stroke="#cccccc" stroke-width="1.0" stroke-linecap="butt" d="M508.5 61.5L508.5 300.5" fill-rule="nonzero"/><path stroke="#cccccc" stroke-width="1.0" stroke-linecap="butt" d="M581.5 61.5L581.5 300.5" fill-rule="nonzero"/><path stroke="#cccccc" stroke-width="1.0" stroke-linecap="butt" d="M80.5 300.5L581.5 300.5" fill-rule="nonzero"/><path stroke="#cccccc" stroke-width="1.0" stroke-linecap="butt" d="M80.5 252.5L581.5 252.5" fill-rule="nonzero"/><path stroke="#cccccc" stroke-width="1.0" stroke-linecap="butt" d="M80.5 205.5L581.5 205.5" fill-rule="nonzero"/><path stroke="#cccccc" stroke-width="1.0" stroke-linecap="butt" d="M80.5 157.5L581.5 157.5" fill-rule="nonzero"/><path stroke="#cccccc" stroke-width="1.0" stroke-linecap="butt" d="M80.5 109.5L581.5 109.5" fill-rule="nonzero"/><path stroke="#cccccc" stroke-width="1.0" stroke-linecap="butt" d="M80.5 61.5L581.5 61.5" fill-rule="nonzero"/><clipPath id="id_0"><path d="M80.55 61.916668L581.45 61.916668L581.45 300.45L80.55 300.45L80.55 61.916668Z" clip-rule="nonzero"/></clipPath><path stroke="#4285f4" stroke-width="2.0" stroke-linecap="butt" clip-path="url(#id_0)" d="M87.45352 279.45908L101.982834 221.25693L131.04144 200.266L189.15868 151.6052L305.39316 90.540665L537.86206 136.33907" fill-rule="nonzero"/><path fill="#4285f4" clip-path="url(#id_0)" d="M91.95352 279.45908C91.95352 281.94434 89.938805 283.95908 87.45352 283.95908C84.96825 283.95908 82.95352 281.94434 82.95352 279.45908C82.95352 276.9738 84.96825 274.95908 87.45352 274.95908C89.938805 274.95908 91.95352 276.9738 91.95352 279.45908Z" fill-rule="nonzero"/><path fill="#4285f4" clip-path="url(#id_0)" d="M106.482834 221.25693C106.482834 223.74222 104.46812 225.75693 101.982834 225.75693C99.49755 225.75693 97.482834 223.74222 97.482834 221.25693C97.482834 218.77165 99.49755 216.75693 101.982834 216.75693C104.46812 216.75693 106.482834 218.77165 106.482834 221.25693Z" fill-rule="nonzero"/><path fill="#4285f4" clip-path="url(#id_0)" d="M135.54144 200.266C135.54144 202.75128 133.52673 204.766 131.04144 204.766C128.55617 204.766 126.54145 202.75128 126.54145 200.266C126.54145 197.78072 128.55617 195.766 131.04144 195.766C133.52673 195.766 135.54144 197.78072 135.54144 200.266Z" fill-rule="nonzero"/><path fill="#4285f4" clip-path="url(#id_0)" d="M193.65868 151.6052C193.65868 154.09048 191.64397 156.1052 189.15868 156.1052C186.6734 156.1052 184.65868 154.09048 184.65868 151.6052C184.65868 149.11992 186.6734 147.1052 189.15868 147.1052C191.64397 147.1052 193.65868 149.11992 193.65868 151.6052Z" fill-rule="nonzero"/><path fill="#4285f4" clip-path="url(#id_0)" d="M309.89316 90.540665C309.89316 93.02595 307.87842 95.040665 305.39316 95.040665C302.90787 95.040665 300.89316 93.02595 300.89316 90.540665C300.89316 88.05538 302.90787 86.040665 305.39316 86.040665C307.87842 86.040665 309.89316 88.05538 309.89316 90.540665Z" fill-rule="nonzero"/><path fill="#4285f4" clip-path="url(#id_0)" d="M542.36206 136.33907C542.36206 138.82434 540.34735 140.83907 537.86206 140.83907C535.3768 140.83907 533.36206 138.82434 533.36206 136.33907C533.36206 133.85379 535.3768 131.83907 537.86206 131.83907C540.34735 131.83907 542.36206 133.85379 542.36206 136.33907Z" fill-rule="nonzero"/><path fill="#000000" d="M315.875 347.59064L316.90625 347.4344Q317.0 348.0594 317.39062 348.3875Q317.79688 348.71564 318.53125 348.71564Q319.25 348.71564 319.59375 348.4344Q319.95312 348.1375 319.95312 347.73126Q319.95312 347.3719 319.64062 347.16876Q319.42188 347.02814 318.5625 346.8094Q317.40625 346.5125 316.95312 346.3094Q316.51562 346.09064 316.28125 345.71564Q316.04688 345.34064 316.04688 344.8719Q316.04688 344.46564 316.23438 344.10626Q316.42188 343.7469 316.75 343.5125Q317.0 343.34064 317.42188 343.21564Q317.84375 343.09064 318.34375 343.09064Q319.0625 343.09064 319.60938 343.3094Q320.17188 343.5125 320.4375 343.8719Q320.70312 344.23126 320.79688 344.825L319.76562 344.96564Q319.70312 344.4969 319.35938 344.23126Q319.03125 343.95 318.40625 343.95Q317.6875 343.95 317.375 344.2Q317.0625 344.4344 317.0625 344.7625Q317.0625 344.96564 317.1875 345.1219Q317.32812 345.29376 317.59375 345.40314Q317.75 345.46564 318.53125 345.66876Q319.65625 345.98126 320.09375 346.16876Q320.53125 346.35626 320.78125 346.71564Q321.03125 347.075 321.03125 347.6219Q321.03125 348.15314 320.71875 348.6219Q320.42188 349.075 319.84375 349.34064Q319.26562 349.59064 318.53125 349.59064Q317.3125 349.59064 316.67188 349.09064Q316.04688 348.575 315.875 347.59064ZM325.59375 348.5125L325.75 349.4344Q325.29688 349.52814 324.95312 349.52814Q324.375 349.52814 324.0625 349.35626Q323.75 349.16876 323.60938 348.8719Q323.48438 348.575 323.48438 347.6219L323.48438 344.04376L322.71875 344.04376L322.71875 343.23126L323.48438 343.23126L323.48438 341.6844L324.53125 341.0594L324.53125 343.23126L325.59375 343.23126L325.59375 344.04376L324.53125 344.04376L324.53125 347.6844Q324.53125 348.1375 324.57812 348.2625Q324.64062 348.3875 324.76562 348.46564Q324.89062 348.54376 325.125 348.54376Q325.3125 348.54376 325.59375 348.5125ZM326.28125 349.45L326.28125 343.23126L327.23438 343.23126L327.23438 344.16876Q327.59375 343.5125 327.89062 343.3094Q328.20312 343.09064 328.57812 343.09064Q329.10938 343.09064 329.65625 343.41876L329.29688 344.40314Q328.90625 344.16876 328.53125 344.16876Q328.17188 344.16876 327.89062 344.3875Q327.625 344.59064 327.51562 344.96564Q327.32812 345.52814 327.32812 346.1844L327.32812 349.45L326.28125 349.45ZM330.29688 342.075L330.29688 340.85626L331.35938 340.85626L331.35938 342.075L330.29688 342.075ZM330.29688 349.45L330.29688 343.23126L331.35938 343.23126L331.35938 349.45L330.29688 349.45ZM337.32812 349.45L337.32812 348.66876Q336.73438 349.59064 335.59375 349.59064Q334.84375 349.59064 334.21875 349.1844Q333.59375 348.7625 333.25 348.02814Q332.90625 347.29376 332.90625 346.34064Q332.90625 345.41876 333.21875 344.65314Q333.53125 343.8875 334.15625 343.4969Q334.78125 343.09064 335.54688 343.09064Q336.10938 343.09064 336.54688 343.325Q336.98438 343.5594 337.26562 343.9344L337.26562 340.85626L338.3125 340.85626L338.3125 349.45L337.32812 349.45ZM334.0 346.34064Q334.0 347.54376 334.5 348.1375Q335.0 348.71564 335.6875 348.71564Q336.375 348.71564 336.85938 348.15314Q337.34375 347.59064 337.34375 346.4344Q337.34375 345.15314 336.84375 344.5594Q336.35938 343.96564 335.64062 343.96564Q334.9375 343.96564 334.46875 344.54376Q334.0 345.10626 334.0 346.34064ZM344.54688 347.45L345.64062 347.575Q345.39062 348.52814 344.6875 349.0594Q343.98438 349.59064 342.90625 349.59064Q341.54688 349.59064 340.73438 348.7469Q339.9375 347.90314 339.9375 346.3875Q339.9375 344.825 340.75 343.96564Q341.5625 343.09064 342.84375 343.09064Q344.09375 343.09064 344.875 343.9344Q345.67188 344.77814 345.67188 346.325Q345.67188 346.41876 345.67188 346.60626L341.03125 346.60626Q341.09375 347.6375 341.60938 348.1844Q342.125 348.71564 342.90625 348.71564Q343.48438 348.71564 343.89062 348.41876Q344.3125 348.10626 344.54688 347.45ZM341.09375 345.7469L344.5625 345.7469Q344.5 344.95 344.17188 344.5594Q343.65625 343.95 342.85938 343.95Q342.125 343.95 341.625 344.4344Q341.14062 344.91876 341.09375 345.7469Z" fill-rule="nonzero"/><path fill="#000000" d="M28.784388 230.82396Q29.284388 231.41771 29.487513 231.96458Q29.690638 232.49583 29.690638 233.12083Q29.690638 234.15208 29.190638 234.69896Q28.690638 235.24583 27.909388 235.24583Q27.456263 235.24583 27.081263 235.04271Q26.690638 234.83958 26.471888 234.49583Q26.237513 234.15208 26.128138 233.73021Q26.034388 233.43333 25.956263 232.79271Q25.815638 231.52708 25.596888 230.91771Q25.378138 230.91771 25.331263 230.91771Q24.675013 230.91771 24.409388 231.21458Q24.065638 231.62083 24.065638 232.41771Q24.065638 233.15208 24.331263 233.51146Q24.581263 233.87083 25.237513 234.04271L25.096888 235.07396Q24.440638 234.93333 24.034388 234.60521Q23.628138 234.27708 23.409388 233.66771Q23.190638 233.05833 23.190638 232.26146Q23.190638 231.46458 23.378138 230.96458Q23.565638 230.46458 23.846888 230.23021Q24.128138 229.99583 24.565638 229.90208Q24.831263 229.85521 25.534388 229.85521L26.940638 229.85521Q28.409388 229.85521 28.800013 229.79271Q29.190638 229.71458 29.550013 229.51146L29.550013 230.62083Q29.221888 230.77708 28.784388 230.82396ZM26.425013 230.91771Q26.659388 231.49583 26.831263 232.63646Q26.925013 233.29271 27.050013 233.55833Q27.159388 233.82396 27.378138 233.98021Q27.596888 234.12083 27.878138 234.12083Q28.300013 234.12083 28.581263 233.80833Q28.862513 233.48021 28.862513 232.87083Q28.862513 232.26146 28.596888 231.79271Q28.331263 231.30833 27.862513 231.08958Q27.503138 230.91771 26.815638 230.91771L26.425013 230.91771ZM29.550013 226.16771L23.331263 228.52708L23.331263 227.41771L27.050013 226.07396Q27.659388 225.87083 28.300013 225.68333Q27.815638 225.54271 27.128138 225.29271L23.331263 223.90208L23.331263 222.82396L29.550013 225.18333L29.550013 226.16771ZM27.550013 218.63646L27.675013 217.54271Q28.628138 217.79271 29.159388 218.49583Q29.690638 219.19896 29.690638 220.27708Q29.690638 221.63646 28.846888 222.44896Q28.003138 223.24583 26.487513 223.24583Q24.925013 223.24583 24.065638 222.43333Q23.190638 221.62083 23.190638 220.33958Q23.190638 219.08958 24.034388 218.30833Q24.878138 217.51146 26.425013 217.51146Q26.518763 217.51146 26.706263 217.51146L26.706263 222.15208Q27.737513 222.08958 28.284388 221.57396Q28.815638 221.05833 28.815638 220.27708Q28.815638 219.69896 28.518763 219.29271Q28.206263 218.87083 27.550013 218.63646ZM25.846888 222.08958L25.846888 218.62083Q25.050013 218.68333 24.659388 219.01146Q24.050013 219.52708 24.050013 220.32396Q24.050013 221.05833 24.534388 221.55833Q25.018763 222.04271 25.846888 222.08958ZM29.550013 215.90208L23.331263 215.90208L23.331263 214.94896L24.268763 214.94896Q23.612513 214.58958 23.409388 214.29271Q23.190638 213.98021 23.190638 213.60521Q23.190638 213.07396 23.518763 212.52708L24.503138 212.88646Q24.268763 213.27708 24.268763 213.65208Q24.268763 214.01146 24.487513 214.29271Q24.690638 214.55833 25.065638 214.66771Q25.628138 214.85521 26.284388 214.85521L29.550013 214.85521L29.550013 215.90208ZM28.784388 207.82396Q29.284388 208.41771 29.487513 208.96458Q29.690638 209.49583 29.690638 210.12083Q29.690638 211.15208 29.190638 211.69896Q28.690638 212.24583 27.909388 212.24583Q27.456263 212.24583 27.081263 212.04271Q26.690638 211.83958 26.471888 211.49583Q26.237513 211.15208 26.128138 210.73021Q26.034388 210.43333 25.956263 209.79271Q25.815638 208.52708 25.596888 207.91771Q25.378138 207.91771 25.331263 207.91771Q24.675013 207.91771 24.409388 208.21458Q24.065638 208.62083 24.065638 209.41771Q24.065638 210.15208 24.331263 210.51146Q24.581263 210.87083 25.237513 211.04271L25.096888 212.07396Q24.440638 211.93333 24.034388 211.60521Q23.628138 211.27708 23.409388 210.66771Q23.190638 210.05833 23.190638 209.26146Q23.190638 208.46458 23.378138 207.96458Q23.565638 207.46458 23.846888 207.23021Q24.128138 206.99583 24.565638 206.90208Q24.831263 206.85521 25.534388 206.85521L26.940638 206.85521Q28.409388 206.85521 28.800013 206.79271Q29.190638 206.71458 29.550013 206.51146L29.550013 207.62083Q29.221888 207.77708 28.784388 207.82396ZM26.425013 207.91771Q26.659388 208.49583 26.831263 209.63646Q26.925013 210.29271 27.050013 210.55833Q27.159388 210.82396 27.378138 210.98021Q27.596888 211.12083 27.878138 211.12083Q28.300013 211.12083 28.581263 210.80833Q28.862513 210.48021 28.862513 209.87083Q28.862513 209.26146 28.596888 208.79271Q28.331263 208.30833 27.862513 208.08958Q27.503138 207.91771 26.815638 207.91771L26.425013 207.91771ZM30.065638 205.08958L30.221888 204.05833Q30.690638 203.99583 30.909388 203.69896Q31.206263 203.30833 31.206263 202.63646Q31.206263 201.90208 30.909388 201.51146Q30.612513 201.10521 30.096888 200.96458Q29.768763 200.87083 28.737513 200.88646Q29.550013 201.57396 29.550013 202.60521Q29.550013 203.88646 28.628138 204.58958Q27.690638 205.29271 26.409388 205.29271Q25.518763 205.29271 24.768763 204.98021Q24.003138 204.65208 23.596888 204.04271Q23.190638 203.43333 23.190638 202.60521Q23.190638 201.49583 24.081263 200.77708L23.331263 200.77708L23.331263 199.80833L28.706263 199.80833Q30.159388 199.80833 30.768763 200.10521Q31.378138 200.40208 31.721888 201.04271Q32.08126 201.68333 32.08126 202.62083Q32.08126 203.73021 31.581263 204.41771Q31.081263 205.10521 30.065638 205.08958ZM26.331263 204.21458Q27.550013 204.21458 28.112513 203.73021Q28.675013 203.24583 28.675013 202.51146Q28.675013 201.77708 28.112513 201.29271Q27.550013 200.79271 26.362513 200.79271Q25.221888 200.79271 24.643763 201.30833Q24.065638 201.80833 24.065638 202.52708Q24.065638 203.23021 24.643763 203.73021Q25.206263 204.21458 26.331263 204.21458ZM27.550013 193.63646L27.675013 192.54271Q28.628138 192.79271 29.159388 193.49583Q29.690638 194.19896 29.690638 195.27708Q29.690638 196.63646 28.846888 197.44896Q28.003138 198.24583 26.487513 198.24583Q24.925013 198.24583 24.065638 197.43333Q23.190638 196.62083 23.190638 195.33958Q23.190638 194.08958 24.034388 193.30833Q24.878138 192.51146 26.425013 192.51146Q26.518763 192.51146 26.706263 192.51146L26.706263 197.15208Q27.737513 197.08958 28.284388 196.57396Q28.815638 196.05833 28.815638 195.27708Q28.815638 194.69896 28.518763 194.29271Q28.206263 193.87083 27.550013 193.63646ZM25.846888 197.08958L25.846888 193.62083Q25.050013 193.68333 24.659388 194.01146Q24.050013 194.52708 24.050013 195.32396Q24.050013 196.05833 24.534388 196.55833Q25.018763 197.04271 25.846888 197.08958ZM27.690638 188.30833L27.534388 187.27708Q28.159388 187.18333 28.487513 186.79271Q28.815638 186.38646 28.815638 185.65208Q28.815638 184.93333 28.534388 184.58958Q28.237513 184.23021 27.831263 184.23021Q27.471888 184.23021 27.268763 184.54271Q27.128138 184.76146 26.909388 185.62083Q26.612513 186.77708 26.409388 187.23021Q26.190638 187.66771 25.815638 187.90208Q25.440638 188.13646 24.971888 188.13646Q24.565638 188.13646 24.206263 187.94896Q23.846888 187.76146 23.612513 187.43333Q23.440638 187.18333 23.315638 186.76146Q23.190638 186.33958 23.190638 185.83958Q23.190638 185.12083 23.409388 184.57396Q23.612513 184.01146 23.971888 183.74583Q24.331263 183.48021 24.925013 183.38646L25.065638 184.41771Q24.596888 184.48021 24.331263 184.82396Q24.050013 185.15208 24.050013 185.77708Q24.050013 186.49583 24.300013 186.80833Q24.534388 187.12083 24.862513 187.12083Q25.065638 187.12083 25.221888 186.99583Q25.393763 186.85521 25.503138 186.58958Q25.565638 186.43333 25.768763 185.65208Q26.081263 184.52708 26.268763 184.08958Q26.456263 183.65208 26.815638 183.40208Q27.175013 183.15208 27.721888 183.15208Q28.253138 183.15208 28.721888 183.46458Q29.175013 183.76146 29.440638 184.33958Q29.690638 184.91771 29.690638 185.65208Q29.690638 186.87083 29.190638 187.51146Q28.675013 188.13646 27.690638 188.30833ZM31.940638 180.88646L23.331263 180.88646L23.331263 179.93333L24.128138 179.93333Q23.659388 179.58958 23.425013 179.16771Q23.190638 178.73021 23.190638 178.12083Q23.190638 177.32396 23.596888 176.71458Q24.003138 176.10521 24.753138 175.80833Q25.503138 175.49583 26.393763 175.49583Q27.346888 175.49583 28.112513 175.83958Q28.878138 176.16771 29.284388 176.82396Q29.690638 177.48021 29.690638 178.19896Q29.690638 178.73021 29.471888 179.15208Q29.237513 179.57396 28.909388 179.83958L31.940638 179.83958L31.940638 180.88646ZM26.471888 179.93333Q27.675013 179.93333 28.253138 179.44896Q28.815638 178.96458 28.815638 178.27708Q28.815638 177.57396 28.221888 177.07396Q27.628138 176.57396 26.378138 176.57396Q25.190638 176.57396 24.612513 177.05833Q24.018763 177.54271 24.018763 178.23021Q24.018763 178.90208 24.643763 179.41771Q25.268763 179.93333 26.471888 179.93333ZM27.550013 169.63646L27.675013 168.54271Q28.628138 168.79271 29.159388 169.49583Q29.690638 170.19896 29.690638 171.27708Q29.690638 172.63646 28.846888 173.44896Q28.003138 174.24583 26.487513 174.24583Q24.925013 174.24583 24.065638 173.43333Q23.190638 172.62083 23.190638 171.33958Q23.190638 170.08958 24.034388 169.30833Q24.878138 168.51146 26.425013 168.51146Q26.518763 168.51146 26.706263 168.51146L26.706263 173.15208Q27.737513 173.08958 28.284388 172.57396Q28.815638 172.05833 28.815638 171.27708Q28.815638 170.69896 28.518763 170.29271Q28.206263 169.87083 27.550013 169.63646ZM25.846888 173.08958L25.846888 169.62083Q25.050013 169.68333 24.659388 170.01146Q24.050013 170.52708 24.050013 171.32396Q24.050013 172.05833 24.534388 172.55833Q25.018763 173.04271 25.846888 173.08958ZM27.550013 162.63646L27.675013 161.54271Q28.628138 161.79271 29.159388 162.49583Q29.690638 163.19896 29.690638 164.27708Q29.690638 165.63646 28.846888 166.44896Q28.003138 167.24583 26.487513 167.24583Q24.925013 167.24583 24.065638 166.43333Q23.190638 165.62083 23.190638 164.33958Q23.190638 163.08958 24.034388 162.30833Q24.878138 161.51146 26.425013 161.51146Q26.518763 161.51146 26.706263 161.51146L26.706263 166.15208Q27.737513 166.08958 28.284388 165.57396Q28.815638 165.05833 28.815638 164.27708Q28.815638 163.69896 28.518763 163.29271Q28.206263 162.87083 27.550013 162.63646ZM25.846888 166.08958L25.846888 162.62083Q25.050013 162.68333 24.659388 163.01146Q24.050013 163.52708 24.050013 164.32396Q24.050013 165.05833 24.534388 165.55833Q25.018763 166.04271 25.846888 166.08958ZM29.550013 155.85521L28.768763 155.85521Q29.690638 156.44896 29.690638 157.58958Q29.690638 158.33958 29.284388 158.96458Q28.862513 159.58958 28.128138 159.93333Q27.393763 160.27708 26.440638 160.27708Q25.518763 160.27708 24.753138 159.96458Q23.987513 159.65208 23.596888 159.02708Q23.190638 158.40208 23.190638 157.63646Q23.190638 157.07396 23.425013 156.63646Q23.659388 156.19896 24.034388 155.91771L20.956263 155.91771L20.956263 154.87083L29.550013 154.87083L29.550013 155.85521ZM26.440638 159.18333Q27.643763 159.18333 28.237513 158.68333Q28.815638 158.18333 28.815638 157.49583Q28.815638 156.80833 28.253138 156.32396Q27.690638 155.83958 26.534388 155.83958Q25.253138 155.83958 24.659388 156.33958Q24.065638 156.82396 24.065638 157.54271Q24.065638 158.24583 24.643763 158.71458Q25.206263 159.18333 26.440638 159.18333ZM29.550013 148.80833L28.628138 148.80833Q29.690638 149.54271 29.690638 150.79271Q29.690638 151.33958 29.487513 151.82396Q29.268763 152.29271 28.956263 152.52708Q28.628138 152.76146 28.159388 152.85521Q27.862513 152.91771 27.175013 152.91771L23.331263 152.91771L23.331263 151.85521L26.784388 151.85521Q27.596888 151.85521 27.893763 151.79271Q28.300013 151.69896 28.550013 151.38646Q28.784388 151.05833 28.784388 150.57396Q28.784388 150.10521 28.550013 149.69896Q28.300013 149.27708 27.878138 149.10521Q27.456263 148.91771 26.659388 148.91771L23.331263 148.91771L23.331263 147.87083L29.550013 147.87083L29.550013 148.80833ZM31.940638 145.88646L23.331263 145.88646L23.331263 144.93333L24.128138 144.93333Q23.659388 144.58958 23.425013 144.16771Q23.190638 143.73021 23.190638 143.12083Q23.190638 142.32396 23.596888 141.71458Q24.003138 141.10521 24.753138 140.80833Q25.503138 140.49583 26.393763 140.49583Q27.346888 140.49583 28.112513 140.83958Q28.878138 141.16771 29.284388 141.82396Q29.690638 142.48021 29.690638 143.19896Q29.690638 143.73021 29.471888 144.15208Q29.237513 144.57396 28.909388 144.83958L31.940638 144.83958L31.940638 145.88646ZM26.471888 144.93333Q27.675013 144.93333 28.253138 144.44896Q28.815638 143.96458 28.815638 143.27708Q28.815638 142.57396 28.221888 142.07396Q27.628138 141.57396 26.378138 141.57396Q25.190638 141.57396 24.612513 142.05833Q24.018763 142.54271 24.018763 143.23021Q24.018763 143.90208 24.643763 144.41771Q25.268763 144.93333 26.471888 144.93333Z" fill-rule="nonzero"/><path fill="#000000" d="M56.596874 303.4344L56.596874 304.45L50.909374 304.45Q50.909374 304.075 51.034374 303.71564Q51.253124 303.1375 51.721874 302.575Q52.20625 302.0125 53.1125 301.27814Q54.51875 300.1219 55.003124 299.45Q55.503124 298.77814 55.503124 298.1844Q55.503124 297.5594 55.05 297.1375Q54.596874 296.7 53.878124 296.7Q53.1125 296.7 52.659374 297.15314Q52.20625 297.60626 52.190624 298.41876L51.1125 298.3094Q51.221874 297.09064 51.940624 296.46564Q52.675 295.825 53.909374 295.825Q55.14375 295.825 55.8625 296.5125Q56.58125 297.2 56.58125 298.21564Q56.58125 298.73126 56.3625 299.23126Q56.159374 299.71564 55.659374 300.27814Q55.175 300.825 54.05 301.77814Q53.096874 302.575 52.815624 302.8719Q52.55 303.15314 52.378124 303.4344L56.596874 303.4344ZM58.64375 304.45L58.64375 303.2469L59.846874 303.2469L59.846874 304.45L58.64375 304.45ZM64.425 304.45L64.425 302.3875L60.70625 302.3875L60.70625 301.41876L64.62813 295.85626L65.4875 295.85626L65.4875 301.41876L66.64375 301.41876L66.64375 302.3875L65.4875 302.3875L65.4875 304.45L64.425 304.45ZM64.425 301.41876L64.425 297.5594L61.7375 301.41876L64.425 301.41876ZM68.05 302.2L69.15938 302.10626Q69.28438 302.91876 69.72188 303.325Q70.175 303.73126 70.81563 303.73126Q71.56563 303.73126 72.09688 303.15314Q72.62813 302.575 72.62813 301.6375Q72.62813 300.73126 72.1125 300.21564Q71.6125 299.6844 70.78438 299.6844Q70.28438 299.6844 69.8625 299.91876Q69.45625 300.15314 69.22188 300.5125L68.2375 300.3875L69.06563 295.98126L73.34688 295.98126L73.34688 296.98126L69.90938 296.98126L69.45625 299.29376Q70.22188 298.7469 71.06563 298.7469Q72.19063 298.7469 72.95625 299.52814Q73.7375 300.3094 73.7375 301.54376Q73.7375 302.7 73.06563 303.5594Q72.2375 304.59064 70.81563 304.59064Q69.64375 304.59064 68.89375 303.9344Q68.15938 303.27814 68.05 302.2Z" fill-rule="nonzero"/><path fill="#000000" d="M56.596874 255.72772L56.596874 256.74335L50.909374 256.74335Q50.909374 256.36835 51.034374 256.00897Q51.253124 255.43085 51.721874 254.86835Q52.20625 254.30585 53.1125 253.57147Q54.51875 252.41522 55.003124 251.74335Q55.503124 251.07147 55.503124 250.47772Q55.503124 249.85272 55.05 249.43085Q54.596874 248.99335 53.878124 248.99335Q53.1125 248.99335 52.659374 249.44647Q52.20625 249.8996 52.190624 250.7121L51.1125 250.60272Q51.221874 249.38397 51.940624 248.75897Q52.675 248.11835 53.909374 248.11835Q55.14375 248.11835 55.8625 248.80585Q56.58125 249.49335 56.58125 250.50897Q56.58125 251.0246 56.3625 251.5246Q56.159374 252.00897 55.659374 252.57147Q55.175 253.11835 54.05 254.07147Q53.096874 254.86835 52.815624 255.16522Q52.55 255.44647 52.378124 255.72772L56.596874 255.72772ZM58.64375 256.74335L58.64375 255.54022L59.846874 255.54022L59.846874 256.74335L58.64375 256.74335ZM61.05 254.49335L62.159374 254.3996Q62.284374 255.2121 62.721874 255.61835Q63.175 256.0246 63.815624 256.0246Q64.56563 256.0246 65.09688 255.44647Q65.62813 254.86835 65.62813 253.93085Q65.62813 253.0246 65.1125 252.50897Q64.6125 251.97772 63.784374 251.97772Q63.284374 251.97772 62.8625 252.2121Q62.45625 252.44647 62.221874 252.80585L61.2375 252.68085L62.065624 248.2746L66.34688 248.2746L66.34688 249.2746L62.909374 249.2746L62.45625 251.5871Q63.221874 251.04022 64.06563 251.04022Q65.19063 251.04022 65.95625 251.82147Q66.7375 252.60272 66.7375 253.8371Q66.7375 254.99335 66.06563 255.85272Q65.2375 256.88397 63.815624 256.88397Q62.64375 256.88397 61.89375 256.22772Q61.159374 255.57147 61.05 254.49335ZM68.05 252.50897Q68.05 250.97772 68.3625 250.05585Q68.675 249.11835 69.28438 248.61835Q69.90938 248.11835 70.84688 248.11835Q71.53438 248.11835 72.05 248.3996Q72.58125 248.68085 72.925 249.2121Q73.26875 249.72772 73.45625 250.47772Q73.64375 251.22772 73.64375 252.50897Q73.64375 254.0246 73.33125 254.94647Q73.03438 255.86835 72.40938 256.38397Q71.8 256.88397 70.84688 256.88397Q69.6125 256.88397 68.89375 255.99335Q68.05 254.93085 68.05 252.50897ZM69.12813 252.50897Q69.12813 254.61835 69.62813 255.32147Q70.12813 256.0246 70.84688 256.0246Q71.58125 256.0246 72.06563 255.32147Q72.56563 254.61835 72.56563 252.50897Q72.56563 250.38397 72.06563 249.69647Q71.58125 248.99335 70.83125 248.99335Q70.1125 248.99335 69.675 249.60272Q69.12813 250.38397 69.12813 252.50897Z" fill-rule="nonzero"/><path fill="#000000" d="M56.596874 208.02104L56.596874 209.03667L50.909374 209.03667Q50.909374 208.66167 51.034374 208.30229Q51.253124 207.72417 51.721874 207.16167Q52.20625 206.59917 53.1125 205.86479Q54.51875 204.70854 55.003124 204.03667Q55.503124 203.36479 55.503124 202.77104Q55.503124 202.14604 55.05 201.72417Q54.596874 201.28667 53.878124 201.28667Q53.1125 201.28667 52.659374 201.73979Q52.20625 202.19292 52.190624 203.00542L51.1125 202.89604Q51.221874 201.67729 51.940624 201.05229Q52.675 200.41167 53.909374 200.41167Q55.14375 200.41167 55.8625 201.09917Q56.58125 201.78667 56.58125 202.80229Q56.58125 203.31792 56.3625 203.81792Q56.159374 204.30229 55.659374 204.86479Q55.175 205.41167 54.05 206.36479Q53.096874 207.16167 52.815624 207.45854Q52.55 207.73979 52.378124 208.02104L56.596874 208.02104ZM58.64375 209.03667L58.64375 207.83354L59.846874 207.83354L59.846874 209.03667L58.64375 209.03667ZM61.05 206.78667L62.159374 206.69292Q62.284374 207.50542 62.721874 207.91167Q63.175 208.31792 63.815624 208.31792Q64.56563 208.31792 65.09688 207.73979Q65.62813 207.16167 65.62813 206.22417Q65.62813 205.31792 65.1125 204.80229Q64.6125 204.27104 63.784374 204.27104Q63.284374 204.27104 62.8625 204.50542Q62.45625 204.73979 62.221874 205.09917L61.2375 204.97417L62.065624 200.56792L66.34688 200.56792L66.34688 201.56792L62.909374 201.56792L62.45625 203.88042Q63.221874 203.33354 64.06563 203.33354Q65.19063 203.33354 65.95625 204.11479Q66.7375 204.89604 66.7375 206.13042Q66.7375 207.28667 66.06563 208.14604Q65.2375 209.17729 63.815624 209.17729Q62.64375 209.17729 61.89375 208.52104Q61.159374 207.86479 61.05 206.78667ZM68.05 206.78667L69.15938 206.69292Q69.28438 207.50542 69.72188 207.91167Q70.175 208.31792 70.81563 208.31792Q71.56563 208.31792 72.09688 207.73979Q72.62813 207.16167 72.62813 206.22417Q72.62813 205.31792 72.1125 204.80229Q71.6125 204.27104 70.78438 204.27104Q70.28438 204.27104 69.8625 204.50542Q69.45625 204.73979 69.22188 205.09917L68.2375 204.97417L69.06563 200.56792L73.34688 200.56792L73.34688 201.56792L69.90938 201.56792L69.45625 203.88042Q70.22188 203.33354 71.06563 203.33354Q72.19063 203.33354 72.95625 204.11479Q73.7375 204.89604 73.7375 206.13042Q73.7375 207.28667 73.06563 208.14604Q72.2375 209.17729 70.81563 209.17729Q69.64375 209.17729 68.89375 208.52104Q68.15938 207.86479 68.05 206.78667Z" fill-rule="nonzero"/><path fill="#000000" d="M56.596874 160.31438L56.596874 161.33L50.909374 161.33Q50.909374 160.955 51.034374 160.59563Q51.253124 160.0175 51.721874 159.455Q52.20625 158.8925 53.1125 158.15813Q54.51875 157.00188 55.003124 156.33Q55.503124 155.65813 55.503124 155.06438Q55.503124 154.43938 55.05 154.0175Q54.596874 153.58 53.878124 153.58Q53.1125 153.58 52.659374 154.03313Q52.20625 154.48625 52.190624 155.29875L51.1125 155.18938Q51.221874 153.97063 51.940624 153.34563Q52.675 152.705 53.909374 152.705Q55.14375 152.705 55.8625 153.3925Q56.58125 154.08 56.58125 155.09563Q56.58125 155.61125 56.3625 156.11125Q56.159374 156.59563 55.659374 157.15813Q55.175 157.705 54.05 158.65813Q53.096874 159.455 52.815624 159.75188Q52.55 160.03313 52.378124 160.31438L56.596874 160.31438ZM58.64375 161.33L58.64375 160.12688L59.846874 160.12688L59.846874 161.33L58.64375 161.33ZM66.51875 154.84563L65.47188 154.92375Q65.33125 154.29875 65.08125 154.0175Q64.64375 153.56438 64.01875 153.56438Q63.51875 153.56438 63.128124 153.84563Q62.64375 154.22063 62.346874 154.92375Q62.065624 155.61125 62.05 156.8925Q62.425 156.31438 62.971874 156.03313Q63.534374 155.75188 64.14375 155.75188Q65.19063 155.75188 65.925 156.53313Q66.675 157.31438 66.675 158.53313Q66.675 159.34563 66.31563 160.04875Q65.97188 160.73625 65.3625 161.11125Q64.75313 161.47063 63.9875 161.47063Q62.659374 161.47063 61.83125 160.50188Q61.003124 159.53313 61.003124 157.31438Q61.003124 154.81438 61.925 153.68938Q62.721874 152.705 64.08125 152.705Q65.09688 152.705 65.7375 153.28313Q66.39375 153.84563 66.51875 154.84563ZM62.221874 158.54875Q62.221874 159.09563 62.440624 159.59563Q62.675 160.08 63.08125 160.34563Q63.503124 160.61125 63.971874 160.61125Q64.62813 160.61125 65.1125 160.08Q65.59688 159.53313 65.59688 158.61125Q65.59688 157.72063 65.1125 157.205Q64.64375 156.68938 63.925 156.68938Q63.20625 156.68938 62.70625 157.205Q62.221874 157.72063 62.221874 158.54875ZM68.05 157.09563Q68.05 155.56438 68.3625 154.6425Q68.675 153.705 69.28438 153.205Q69.90938 152.705 70.84688 152.705Q71.53438 152.705 72.05 152.98625Q72.58125 153.2675 72.925 153.79875Q73.26875 154.31438 73.45625 155.06438Q73.64375 155.81438 73.64375 157.09563Q73.64375 158.61125 73.33125 159.53313Q73.03438 160.455 72.40938 160.97063Q71.8 161.47063 70.84688 161.47063Q69.6125 161.47063 68.89375 160.58Q68.05 159.5175 68.05 157.09563ZM69.12813 157.09563Q69.12813 159.205 69.62813 159.90813Q70.12813 160.61125 70.84688 160.61125Q71.58125 160.61125 72.06563 159.90813Q72.56563 159.205 72.56563 157.09563Q72.56563 154.97063 72.06563 154.28313Q71.58125 153.58 70.83125 153.58Q70.1125 153.58 69.675 154.18938Q69.12813 154.97063 69.12813 157.09563Z" fill-rule="nonzero"/><path fill="#000000" d="M56.596874 112.60771L56.596874 113.62334L50.909374 113.62334Q50.909374 113.24834 51.034374 112.88896Q51.253124 112.31084 51.721874 111.74834Q52.20625 111.18584 53.1125 110.45146Q54.51875 109.29521 55.003124 108.62334Q55.503124 107.95146 55.503124 107.35771Q55.503124 106.73271 55.05 106.31084Q54.596874 105.87334 53.878124 105.87334Q53.1125 105.87334 52.659374 106.32646Q52.20625 106.77959 52.190624 107.59209L51.1125 107.48271Q51.221874 106.26396 51.940624 105.63896Q52.675 104.99834 53.909374 104.99834Q55.14375 104.99834 55.8625 105.68584Q56.58125 106.37334 56.58125 107.38896Q56.58125 107.90459 56.3625 108.40459Q56.159374 108.88896 55.659374 109.45146Q55.175 109.99834 54.05 110.95146Q53.096874 111.74834 52.815624 112.04521Q52.55 112.32646 52.378124 112.60771L56.596874 112.60771ZM58.64375 113.62334L58.64375 112.42021L59.846874 112.42021L59.846874 113.62334L58.64375 113.62334ZM66.51875 107.13896L65.47188 107.21709Q65.33125 106.59209 65.08125 106.31084Q64.64375 105.85771 64.01875 105.85771Q63.51875 105.85771 63.128124 106.13896Q62.64375 106.51396 62.346874 107.21709Q62.065624 107.90459 62.05 109.18584Q62.425 108.60771 62.971874 108.32646Q63.534374 108.04521 64.14375 108.04521Q65.19063 108.04521 65.925 108.82646Q66.675 109.60771 66.675 110.82646Q66.675 111.63896 66.31563 112.34209Q65.97188 113.02959 65.3625 113.40459Q64.75313 113.76396 63.9875 113.76396Q62.659374 113.76396 61.83125 112.79521Q61.003124 111.82646 61.003124 109.60771Q61.003124 107.10771 61.925 105.98271Q62.721874 104.99834 64.08125 104.99834Q65.09688 104.99834 65.7375 105.57646Q66.39375 106.13896 66.51875 107.13896ZM62.221874 110.84209Q62.221874 111.38896 62.440624 111.88896Q62.675 112.37334 63.08125 112.63896Q63.503124 112.90459 63.971874 112.90459Q64.62813 112.90459 65.1125 112.37334Q65.59688 111.82646 65.59688 110.90459Q65.59688 110.01396 65.1125 109.49834Q64.64375 108.98271 63.925 108.98271Q63.20625 108.98271 62.70625 109.49834Q62.221874 110.01396 62.221874 110.84209ZM68.05 111.37334L69.15938 111.27959Q69.28438 112.09209 69.72188 112.49834Q70.175 112.90459 70.81563 112.90459Q71.56563 112.90459 72.09688 112.32646Q72.62813 111.74834 72.62813 110.81084Q72.62813 109.90459 72.1125 109.38896Q71.6125 108.85771 70.78438 108.85771Q70.28438 108.85771 69.8625 109.09209Q69.45625 109.32646 69.22188 109.68584L68.2375 109.56084L69.06563 105.15459L73.34688 105.15459L73.34688 106.15459L69.90938 106.15459L69.45625 108.46709Q70.22188 107.92021 71.06563 107.92021Q72.19063 107.92021 72.95625 108.70146Q73.7375 109.48271 73.7375 110.71709Q73.7375 111.87334 73.06563 112.73271Q72.2375 113.76396 70.81563 113.76396Q69.64375 113.76396 68.89375 113.10771Q68.15938 112.45146 68.05 111.37334Z" fill-rule="nonzero"/><path fill="#000000" d="M56.596874 64.90104L56.596874 65.916664L50.909374 65.916664Q50.909374 65.541664 51.034374 65.18229Q51.253124 64.604164 51.721874 64.041664Q52.20625 63.479164 53.1125 62.74479Q54.51875 61.58854 55.003124 60.916664Q55.503124 60.24479 55.503124 59.65104Q55.503124 59.02604 55.05 58.604164Q54.596874 58.166664 53.878124 58.166664Q53.1125 58.166664 52.659374 58.61979Q52.20625 59.072914 52.190624 59.885414L51.1125 59.77604Q51.221874 58.55729 51.940624 57.93229Q52.675 57.291664 53.909374 57.291664Q55.14375 57.291664 55.8625 57.979164Q56.58125 58.666664 56.58125 59.68229Q56.58125 60.197914 56.3625 60.697914Q56.159374 61.18229 55.659374 61.74479Q55.175 62.291664 54.05 63.24479Q53.096874 64.041664 52.815624 64.33854Q52.55 64.61979 52.378124 64.90104L56.596874 64.90104ZM58.64375 65.916664L58.64375 64.71354L59.846874 64.71354L59.846874 65.916664L58.64375 65.916664ZM61.1125 58.447914L61.1125 57.43229L66.675 57.43229L66.675 58.260414Q65.8625 59.135414 65.05 60.58854Q64.25313 62.02604 63.815624 63.55729Q63.4875 64.635414 63.409374 65.916664L62.315624 65.916664Q62.33125 64.90104 62.70625 63.46354Q63.096874 62.02604 63.8 60.697914Q64.51875 59.36979 65.33125 58.447914L61.1125 58.447914ZM68.05 61.68229Q68.05 60.15104 68.3625 59.229164Q68.675 58.291664 69.28438 57.791664Q69.90938 57.291664 70.84688 57.291664Q71.53438 57.291664 72.05 57.572914Q72.58125 57.854164 72.925 58.385414Q73.26875 58.90104 73.45625 59.65104Q73.64375 60.40104 73.64375 61.68229Q73.64375 63.197914 73.33125 64.11979Q73.03438 65.041664 72.40938 65.55729Q71.8 66.05729 70.84688 66.05729Q69.6125 66.05729 68.89375 65.166664Q68.05 64.104164 68.05 61.68229ZM69.12813 61.68229Q69.12813 63.791664 69.62813 64.49479Q70.12813 65.197914 70.84688 65.197914Q71.58125 65.197914 72.06563 64.49479Q72.56563 63.791664 72.56563 61.68229Q72.56563 59.55729 72.06563 58.86979Q71.58125 58.166664 70.83125 58.166664Q70.1125 58.166664 69.675 58.77604Q69.12813 59.55729 69.12813 61.68229Z" fill-rule="nonzero"/><path fill="#000000" d="M142.57076 315.2L143.68013 315.10626Q143.80513 315.91876 144.24263 316.325Q144.69576 316.73126 145.33638 316.73126Q146.08638 316.73126 146.61763 316.15314Q147.14888 315.575 147.14888 314.6375Q147.14888 313.73126 146.63326 313.21564Q146.13326 312.6844 145.30513 312.6844Q144.80513 312.6844 144.38326 312.91876Q143.977 313.15314 143.74263 313.5125L142.75826 313.3875L143.58638 308.98126L147.86763 308.98126L147.86763 309.98126L144.43013 309.98126L143.977 312.29376Q144.74263 311.7469 145.58638 311.7469Q146.71138 311.7469 147.477 312.52814Q148.25826 313.3094 148.25826 314.54376Q148.25826 315.7 147.58638 316.5594Q146.75826 317.59064 145.33638 317.59064Q144.1645 317.59064 143.4145 316.9344Q142.68013 316.27814 142.57076 315.2Z" fill-rule="nonzero"/><path fill="#000000" d="M215.68605 317.45L214.63918 317.45L214.63918 310.73126Q214.24855 311.09064 213.62355 311.46564Q213.01418 311.825 212.5298 311.9969L212.5298 310.98126Q213.4048 310.5594 214.06105 309.98126Q214.73293 309.3875 215.01418 308.825L215.68605 308.825L215.68605 317.45ZM218.7173 313.21564Q218.7173 311.6844 219.0298 310.7625Q219.3423 309.825 219.95168 309.325Q220.57668 308.825 221.51418 308.825Q222.20168 308.825 222.7173 309.10626Q223.24855 309.3875 223.5923 309.91876Q223.93605 310.4344 224.12355 311.1844Q224.31105 311.9344 224.31105 313.21564Q224.31105 314.73126 223.99855 315.65314Q223.70168 316.575 223.07668 317.09064Q222.4673 317.59064 221.51418 317.59064Q220.2798 317.59064 219.56105 316.7Q218.7173 315.6375 218.7173 313.21564ZM219.79543 313.21564Q219.79543 315.325 220.29543 316.02814Q220.79543 316.73126 221.51418 316.73126Q222.24855 316.73126 222.73293 316.02814Q223.23293 315.325 223.23293 313.21564Q223.23293 311.09064 222.73293 310.40314Q222.24855 309.7 221.49855 309.7Q220.7798 309.7 220.3423 310.3094Q219.79543 311.09064 219.79543 313.21564Z" fill-rule="nonzero"/><path fill="#000000" d="M288.33258 317.45L287.2857 317.45L287.2857 310.73126Q286.89508 311.09064 286.27008 311.46564Q285.6607 311.825 285.17633 311.9969L285.17633 310.98126Q286.05133 310.5594 286.70758 309.98126Q287.37946 309.3875 287.6607 308.825L288.33258 308.825L288.33258 317.45ZM291.36383 315.2L292.4732 315.10626Q292.5982 315.91876 293.0357 316.325Q293.48883 316.73126 294.12946 316.73126Q294.87946 316.73126 295.4107 316.15314Q295.94196 315.575 295.94196 314.6375Q295.94196 313.73126 295.42633 313.21564Q294.92633 312.6844 294.0982 312.6844Q293.5982 312.6844 293.17633 312.91876Q292.77008 313.15314 292.5357 313.5125L291.55133 313.3875L292.37946 308.98126L296.6607 308.98126L296.6607 309.98126L293.2232 309.98126L292.77008 312.29376Q293.5357 311.7469 294.37946 311.7469Q295.50446 311.7469 296.27008 312.52814Q297.05133 313.3094 297.05133 314.54376Q297.05133 315.7 296.37946 316.5594Q295.55133 317.59064 294.12946 317.59064Q292.95758 317.59064 292.20758 316.9344Q291.4732 316.27814 291.36383 315.2Z" fill-rule="nonzero"/><path fill="#000000" d="M362.55725 316.4344L362.55725 317.45L356.86975 317.45Q356.86975 317.075 356.99475 316.71564Q357.2135 316.1375 357.68225 315.575Q358.16663 315.0125 359.07288 314.27814Q360.47913 313.1219 360.9635 312.45Q361.4635 311.77814 361.4635 311.1844Q361.4635 310.5594 361.01038 310.1375Q360.55725 309.7 359.8385 309.7Q359.07288 309.7 358.61975 310.15314Q358.16663 310.60626 358.151 311.41876L357.07288 311.3094Q357.18225 310.09064 357.901 309.46564Q358.63538 308.825 359.86975 308.825Q361.10413 308.825 361.82288 309.5125Q362.54163 310.2 362.54163 311.21564Q362.54163 311.73126 362.32288 312.23126Q362.11975 312.71564 361.61975 313.27814Q361.13538 313.825 360.01038 314.77814Q359.05725 315.575 358.776 315.8719Q358.51038 316.15314 358.3385 316.4344L362.55725 316.4344ZM364.01038 313.21564Q364.01038 311.6844 364.32288 310.7625Q364.63538 309.825 365.24475 309.325Q365.86975 308.825 366.80725 308.825Q367.49475 308.825 368.01038 309.10626Q368.54163 309.3875 368.88538 309.91876Q369.22913 310.4344 369.41663 311.1844Q369.60413 311.9344 369.60413 313.21564Q369.60413 314.73126 369.29163 315.65314Q368.99475 316.575 368.36975 317.09064Q367.76038 317.59064 366.80725 317.59064Q365.57288 317.59064 364.85413 316.7Q364.01038 315.6375 364.01038 313.21564ZM365.0885 313.21564Q365.0885 315.325 365.5885 316.02814Q366.0885 316.73126 366.80725 316.73126Q367.54163 316.73126 368.026 316.02814Q368.526 315.325 368.526 313.21564Q368.526 311.09064 368.026 310.40314Q367.54163 309.7 366.79163 309.7Q366.07288 309.7 365.63538 310.3094Q365.0885 311.09064 365.0885 313.21564Z" fill-rule="nonzero"/><path fill="#000000" d="M435.2038 316.4344L435.2038 317.45L429.5163 317.45Q429.5163 317.075 429.6413 316.71564Q429.86005 316.1375 430.3288 315.575Q430.81317 315.0125 431.71942 314.27814Q433.12567 313.1219 433.61005 312.45Q434.11005 311.77814 434.11005 311.1844Q434.11005 310.5594 433.65692 310.1375Q433.2038 309.7 432.48505 309.7Q431.71942 309.7 431.2663 310.15314Q430.81317 310.60626 430.79755 311.41876L429.71942 311.3094Q429.8288 310.09064 430.54755 309.46564Q431.28192 308.825 432.5163 308.825Q433.75067 308.825 434.46942 309.5125Q435.18817 310.2 435.18817 311.21564Q435.18817 311.73126 434.96942 312.23126Q434.7663 312.71564 434.2663 313.27814Q433.78192 313.825 432.65692 314.77814Q431.7038 315.575 431.42255 315.8719Q431.15692 316.15314 430.98505 316.4344L435.2038 316.4344ZM436.65692 315.2L437.7663 315.10626Q437.8913 315.91876 438.3288 316.325Q438.78192 316.73126 439.42255 316.73126Q440.17255 316.73126 440.7038 316.15314Q441.23505 315.575 441.23505 314.6375Q441.23505 313.73126 440.71942 313.21564Q440.21942 312.6844 439.3913 312.6844Q438.8913 312.6844 438.46942 312.91876Q438.06317 313.15314 437.8288 313.5125L436.84442 313.3875L437.67255 308.98126L441.9538 308.98126L441.9538 309.98126L438.5163 309.98126L438.06317 312.29376Q438.8288 311.7469 439.67255 311.7469Q440.79755 311.7469 441.56317 312.52814Q442.34442 313.3094 442.34442 314.54376Q442.34442 315.7 441.67255 316.5594Q440.84442 317.59064 439.42255 317.59064Q438.25067 317.59064 437.50067 316.9344Q436.7663 316.27814 436.65692 315.2Z" fill-rule="nonzero"/><path fill="#000000" d="M502.30347 315.1844L503.36597 315.04376Q503.53784 315.9344 503.97534 316.34064Q504.41284 316.73126 505.03784 316.73126Q505.78784 316.73126 506.30347 316.21564Q506.8191 315.7 506.8191 314.9344Q506.8191 314.21564 506.33472 313.7469Q505.86597 313.2625 505.1316 313.2625Q504.83472 313.2625 504.3816 313.3875L504.5066 312.45Q504.61597 312.46564 504.67847 312.46564Q505.35034 312.46564 505.8816 312.1219Q506.42847 311.7625 506.42847 311.02814Q506.42847 310.45 506.03784 310.075Q505.64722 309.6844 505.02222 309.6844Q504.41284 309.6844 503.99097 310.075Q503.58472 310.46564 503.47534 311.23126L502.41284 311.04376Q502.60034 309.9969 503.28784 309.41876Q503.97534 308.825 504.99097 308.825Q505.6941 308.825 506.28784 309.1375Q506.8816 309.4344 507.1941 309.95Q507.5066 310.46564 507.5066 311.0594Q507.5066 311.60626 507.20972 312.075Q506.91284 312.52814 506.33472 312.79376Q507.08472 312.96564 507.5066 313.52814Q507.92847 314.075 507.92847 314.91876Q507.92847 316.04376 507.10034 316.825Q506.28784 317.60626 505.03784 317.60626Q503.91284 317.60626 503.16284 316.9344Q502.41284 316.2469 502.30347 315.1844ZM509.30347 313.21564Q509.30347 311.6844 509.61597 310.7625Q509.92847 309.825 510.53784 309.325Q511.16284 308.825 512.10034 308.825Q512.78784 308.825 513.30347 309.10626Q513.8347 309.3875 514.17847 309.91876Q514.5222 310.4344 514.7097 311.1844Q514.8972 311.9344 514.8972 313.21564Q514.8972 314.73126 514.5847 315.65314Q514.28784 316.575 513.66284 317.09064Q513.05347 317.59064 512.10034 317.59064Q510.86597 317.59064 510.14722 316.7Q509.30347 315.6375 509.30347 313.21564ZM510.3816 313.21564Q510.3816 315.325 510.8816 316.02814Q511.3816 316.73126 512.10034 316.73126Q512.8347 316.73126 513.3191 316.02814Q513.8191 315.325 513.8191 313.21564Q513.8191 311.09064 513.3191 310.40314Q512.8347 309.7 512.0847 309.7Q511.36597 309.7 510.92847 310.3094Q510.3816 311.09064 510.3816 313.21564Z" fill-rule="nonzero"/><path fill="#000000" d="M574.95 315.1844L576.0125 315.04376Q576.1844 315.9344 576.6219 316.34064Q577.0594 316.73126 577.6844 316.73126Q578.4344 316.73126 578.95 316.21564Q579.46564 315.7 579.46564 314.9344Q579.46564 314.21564 578.98126 313.7469Q578.5125 313.2625 577.77814 313.2625Q577.48126 313.2625 577.02814 313.3875L577.15314 312.45Q577.2625 312.46564 577.325 312.46564Q577.9969 312.46564 578.52814 312.1219Q579.075 311.7625 579.075 311.02814Q579.075 310.45 578.6844 310.075Q578.29376 309.6844 577.66876 309.6844Q577.0594 309.6844 576.6375 310.075Q576.23126 310.46564 576.1219 311.23126L575.0594 311.04376Q575.2469 309.9969 575.9344 309.41876Q576.6219 308.825 577.6375 308.825Q578.34064 308.825 578.9344 309.1375Q579.52814 309.4344 579.84064 309.95Q580.15314 310.46564 580.15314 311.0594Q580.15314 311.60626 579.85626 312.075Q579.5594 312.52814 578.98126 312.79376Q579.73126 312.96564 580.15314 313.52814Q580.575 314.075 580.575 314.91876Q580.575 316.04376 579.7469 316.825Q578.9344 317.60626 577.6844 317.60626Q576.5594 317.60626 575.8094 316.9344Q575.0594 316.2469 574.95 315.1844ZM581.95 315.2L583.0594 315.10626Q583.1844 315.91876 583.6219 316.325Q584.075 316.73126 584.71564 316.73126Q585.46564 316.73126 585.9969 316.15314Q586.52814 315.575 586.52814 314.6375Q586.52814 313.73126 586.0125 313.21564Q585.5125 312.6844 584.6844 312.6844Q584.1844 312.6844 583.7625 312.91876Q583.35626 313.15314 583.1219 313.5125L582.1375 313.3875L582.96564 308.98126L587.2469 308.98126L587.2469 309.98126L583.8094 309.98126L583.35626 312.29376Q584.1219 311.7469 584.96564 311.7469Q586.09064 311.7469 586.85626 312.52814Q587.6375 313.3094 587.6375 314.54376Q587.6375 315.7 586.96564 316.5594Q586.1375 317.59064 584.71564 317.59064Q583.54376 317.59064 582.79376 316.9344Q582.0594 316.27814 581.95 315.2Z" fill-rule="nonzero"/><path fill="#757575" d="M26.64375 36.26875Q25.659374 37.096874 24.753124 37.440624Q23.846874 37.784374 22.815624 37.784374Q21.1125 37.784374 20.190624 36.95625Q19.26875 36.1125 19.26875 34.815624Q19.26875 34.05 19.6125 33.425Q19.971874 32.8 20.534374 32.425Q21.096874 32.034374 21.8 31.83125Q22.315624 31.70625 23.3625 31.565624Q25.4875 31.315624 26.4875 30.971874Q26.503124 30.6125 26.503124 30.503124Q26.503124 29.440624 26.003124 28.9875Q25.33125 28.39375 24.003124 28.39375Q22.753124 28.39375 22.159374 28.83125Q21.58125 29.26875 21.3 30.378124L19.58125 30.14375Q19.815624 29.034374 20.346874 28.3625Q20.878124 27.675 21.89375 27.315624Q22.909374 26.940624 24.253124 26.940624Q25.58125 26.940624 26.409374 27.253124Q27.2375 27.565624 27.628124 28.05Q28.01875 28.51875 28.175 29.2375Q28.26875 29.690624 28.26875 30.8625L28.26875 33.20625Q28.26875 35.659374 28.378124 36.315624Q28.4875 36.95625 28.83125 37.55L26.9875 37.55Q26.721874 37.003124 26.64375 36.26875ZM26.4875 32.346874Q25.534374 32.7375 23.6125 33.003124Q22.534374 33.159374 22.08125 33.3625Q21.64375 33.55 21.39375 33.925Q21.14375 34.3 21.14375 34.76875Q21.14375 35.471874 21.675 35.940624Q22.20625 36.409374 23.2375 36.409374Q24.253124 36.409374 25.034374 35.971874Q25.83125 35.51875 26.20625 34.753124Q26.4875 34.14375 26.4875 32.9875L26.4875 32.346874ZM33.753124 37.55L29.8 27.175L31.659374 27.175L33.89375 33.39375Q34.253124 34.39375 34.55 35.471874Q34.784374 34.659374 35.20625 33.503124L37.503124 27.175L39.315624 27.175L35.39375 37.55L33.753124 37.55ZM46.971874 34.20625L48.784374 34.440624Q48.3625 36.01875 47.190624 36.909374Q46.034374 37.784374 44.221874 37.784374Q41.95625 37.784374 40.6125 36.39375Q39.284374 34.9875 39.284374 32.45625Q39.284374 29.83125 40.628124 28.39375Q41.971874 26.940624 44.128124 26.940624Q46.20625 26.940624 47.51875 28.3625Q48.846874 29.76875 48.846874 32.346874Q48.846874 32.503124 48.83125 32.815624L41.096874 32.815624Q41.190624 34.51875 42.065624 35.425Q42.940624 36.33125 44.2375 36.33125Q45.20625 36.33125 45.878124 35.83125Q46.565624 35.315624 46.971874 34.20625ZM41.190624 31.3625L46.9875 31.3625Q46.878124 30.065624 46.33125 29.409374Q45.4875 28.39375 44.14375 28.39375Q42.940624 28.39375 42.1125 29.20625Q41.284374 30.003124 41.190624 31.3625ZM50.846874 37.55L50.846874 27.175L52.425 27.175L52.425 28.753124Q53.034374 27.64375 53.55 27.3Q54.065624 26.940624 54.675 26.940624Q55.565624 26.940624 56.4875 27.503124L55.878124 29.14375Q55.2375 28.753124 54.596874 28.753124Q54.01875 28.753124 53.55 29.1125Q53.096874 29.45625 52.89375 30.065624Q52.6125 31.003124 52.6125 32.1125L52.6125 37.55L50.846874 37.55ZM64.64375 36.26875Q63.659374 37.096874 62.753124 37.440624Q61.846874 37.784374 60.815624 37.784374Q59.1125 37.784374 58.190624 36.95625Q57.26875 36.1125 57.26875 34.815624Q57.26875 34.05 57.6125 33.425Q57.971874 32.8 58.534374 32.425Q59.096874 32.034374 59.8 31.83125Q60.315624 31.70625 61.3625 31.565624Q63.4875 31.315624 64.4875 30.971874Q64.50313 30.6125 64.50313 30.503124Q64.50313 29.440624 64.00313 28.9875Q63.33125 28.39375 62.003124 28.39375Q60.753124 28.39375 60.159374 28.83125Q59.58125 29.26875 59.3 30.378124L57.58125 30.14375Q57.815624 29.034374 58.346874 28.3625Q58.878124 27.675 59.89375 27.315624Q60.909374 26.940624 62.253124 26.940624Q63.58125 26.940624 64.40938 27.253124Q65.2375 27.565624 65.62813 28.05Q66.01875 28.51875 66.175 29.2375Q66.26875 29.690624 66.26875 30.8625L66.26875 33.20625Q66.26875 35.659374 66.37813 36.315624Q66.4875 36.95625 66.83125 37.55L64.9875 37.55Q64.72188 37.003124 64.64375 36.26875ZM64.4875 32.346874Q63.534374 32.7375 61.6125 33.003124Q60.534374 33.159374 60.08125 33.3625Q59.64375 33.55 59.39375 33.925Q59.14375 34.3 59.14375 34.76875Q59.14375 35.471874 59.675 35.940624Q60.20625 36.409374 61.2375 36.409374Q62.253124 36.409374 63.034374 35.971874Q63.83125 35.51875 64.20625 34.753124Q64.4875 34.14375 64.4875 32.9875L64.4875 32.346874ZM68.55 38.409374L70.25313 38.659374Q70.3625 39.45625 70.84688 39.815624Q71.50313 40.3 72.64375 40.3Q73.8625 40.3 74.51875 39.815624Q75.19063 39.33125 75.425 38.45625Q75.56563 37.909374 75.55 36.190624Q74.39375 37.55 72.675 37.55Q70.53438 37.55 69.3625 36.003124Q68.19063 34.45625 68.19063 32.3Q68.19063 30.815624 68.72188 29.565624Q69.26875 28.315624 70.28438 27.628124Q71.31563 26.940624 72.69063 26.940624Q74.51875 26.940624 75.72188 28.425L75.72188 27.175L77.33125 27.175L77.33125 36.14375Q77.33125 38.565624 76.83125 39.565624Q76.34688 40.58125 75.26875 41.159374Q74.20625 41.753124 72.64375 41.753124Q70.8 41.753124 69.64375 40.925Q68.50313 40.096874 68.55 38.409374ZM70.00313 32.175Q70.00313 34.221874 70.81563 35.159374Q71.62813 36.096874 72.84688 36.096874Q74.05 36.096874 74.8625 35.159374Q75.69063 34.221874 75.69063 32.2375Q75.69063 30.33125 74.84688 29.3625Q74.00313 28.39375 72.81563 28.39375Q71.64375 28.39375 70.81563 29.346874Q70.00313 30.3 70.00313 32.175ZM86.97188 34.20625L88.78438 34.440624Q88.3625 36.01875 87.19063 36.909374Q86.03438 37.784374 84.22188 37.784374Q81.95625 37.784374 80.6125 36.39375Q79.28438 34.9875 79.28438 32.45625Q79.28438 29.83125 80.62813 28.39375Q81.97188 26.940624 84.12813 26.940624Q86.20625 26.940624 87.51875 28.3625Q88.84688 29.76875 88.84688 32.346874Q88.84688 32.503124 88.83125 32.815624L81.09688 32.815624Q81.19063 34.51875 82.06563 35.425Q82.94063 36.33125 84.2375 36.33125Q85.20625 36.33125 85.87813 35.83125Q86.56563 35.315624 86.97188 34.20625ZM81.19063 31.3625L86.9875 31.3625Q86.87813 30.065624 86.33125 29.409374Q85.4875 28.39375 84.14375 28.39375Q82.94063 28.39375 82.1125 29.20625Q81.28438 30.003124 81.19063 31.3625ZM96.15938 34.45625L97.90938 34.175Q98.05 35.221874 98.72188 35.784374Q99.39375 36.33125 100.59688 36.33125Q101.8 36.33125 102.37813 35.846874Q102.97188 35.346874 102.97188 34.690624Q102.97188 34.096874 102.45625 33.753124Q102.09688 33.51875 100.65938 33.159374Q98.72188 32.659374 97.97188 32.315624Q97.2375 31.95625 96.84688 31.33125Q96.45625 30.690624 96.45625 29.925Q96.45625 29.2375 96.76875 28.64375Q97.09688 28.05 97.64375 27.659374Q98.05 27.3625 98.75313 27.159374Q99.47188 26.940624 100.28438 26.940624Q101.50313 26.940624 102.425 27.3Q103.34688 27.64375 103.78438 28.253124Q104.22188 28.846874 104.39375 29.846874L102.675 30.08125Q102.55 29.284374 101.9875 28.846874Q101.425 28.39375 100.40938 28.39375Q99.19063 28.39375 98.675 28.8Q98.15938 29.190624 98.15938 29.721874Q98.15938 30.065624 98.37813 30.346874Q98.58125 30.628124 99.05 30.815624Q99.31563 30.909374 100.59688 31.253124Q102.47188 31.753124 103.20625 32.08125Q103.94063 32.39375 104.3625 33.003124Q104.78438 33.596874 104.78438 34.503124Q104.78438 35.378124 104.26875 36.159374Q103.75313 36.940624 102.78438 37.3625Q101.81563 37.784374 100.59688 37.784374Q98.58125 37.784374 97.51875 36.940624Q96.45625 36.096874 96.15938 34.45625ZM106.8625 41.51875L106.8625 27.175L108.47188 27.175L108.47188 28.51875Q109.03438 27.7375 109.7375 27.346874Q110.45625 26.940624 111.47188 26.940624Q112.8 26.940624 113.81563 27.628124Q114.83125 28.315624 115.34688 29.565624Q115.87813 30.8 115.87813 32.284374Q115.87813 33.878124 115.3 35.159374Q114.7375 36.425 113.64375 37.1125Q112.55 37.784374 111.34688 37.784374Q110.47188 37.784374 109.76875 37.409374Q109.08125 37.034374 108.62813 36.471874L108.62813 41.51875L106.8625 41.51875ZM108.45625 32.425Q108.45625 34.425 109.26875 35.378124Q110.08125 36.33125 111.2375 36.33125Q112.40938 36.33125 113.2375 35.346874Q114.08125 34.3625 114.08125 32.26875Q114.08125 30.3 113.25313 29.315624Q112.44063 28.315624 111.31563 28.315624Q110.19063 28.315624 109.31563 29.378124Q108.45625 30.425 108.45625 32.425ZM124.97188 34.20625L126.78438 34.440624Q126.3625 36.01875 125.19063 36.909374Q124.03438 37.784374 122.22188 37.784374Q119.95625 37.784374 118.6125 36.39375Q117.28438 34.9875 117.28438 32.45625Q117.28438 29.83125 118.62813 28.39375Q119.97188 26.940624 122.12813 26.940624Q124.20625 26.940624 125.51875 28.3625Q126.84688 29.76875 126.84688 32.346874Q126.84688 32.503124 126.83125 32.815624L119.09688 32.815624Q119.19063 34.51875 120.06563 35.425Q120.94063 36.33125 122.2375 36.33125Q123.20625 36.33125 123.87813 35.83125Q124.56563 35.315624 124.97188 34.20625ZM119.19063 31.3625L124.9875 31.3625Q124.87813 30.065624 124.33125 29.409374Q123.4875 28.39375 122.14375 28.39375Q120.94063 28.39375 120.1125 29.20625Q119.28438 30.003124 119.19063 31.3625ZM135.97188 34.20625L137.78438 34.440624Q137.3625 36.01875 136.19063 36.909374Q135.03438 37.784374 133.22188 37.784374Q130.95625 37.784374 129.6125 36.39375Q128.28438 34.9875 128.28438 32.45625Q128.28438 29.83125 129.62813 28.39375Q130.97188 26.940624 133.12813 26.940624Q135.20625 26.940624 136.51875 28.3625Q137.84688 29.76875 137.84688 32.346874Q137.84688 32.503124 137.83125 32.815624L130.09688 32.815624Q130.19063 34.51875 131.06563 35.425Q131.94063 36.33125 133.2375 36.33125Q134.20625 36.33125 134.87813 35.83125Q135.56563 35.315624 135.97188 34.20625ZM130.19063 31.3625L135.9875 31.3625Q135.87813 30.065624 135.33125 29.409374Q134.4875 28.39375 133.14375 28.39375Q131.94063 28.39375 131.1125 29.20625Q130.28438 30.003124 130.19063 31.3625ZM146.59688 37.55L146.59688 36.2375Q145.6125 37.784374 143.69063 37.784374Q142.45625 37.784374 141.40938 37.096874Q140.37813 36.409374 139.8 35.190624Q139.2375 33.971874 139.2375 32.378124Q139.2375 30.815624 139.75313 29.55Q140.26875 28.284374 141.3 27.6125Q142.34688 26.940624 143.6125 26.940624Q144.55 26.940624 145.28438 27.346874Q146.01875 27.7375 146.4875 28.3625L146.4875 23.2375L148.22188 23.2375L148.22188 37.55L146.59688 37.55ZM141.03438 32.378124Q141.03438 34.3625 141.87813 35.346874Q142.72188 36.33125 143.8625 36.33125Q145.01875 36.33125 145.81563 35.39375Q146.62813 34.45625 146.62813 32.51875Q146.62813 30.39375 145.8 29.39375Q144.9875 28.39375 143.78438 28.39375Q142.6125 28.39375 141.81563 29.3625Q141.03438 30.315624 141.03438 32.378124ZM157.65938 37.55L157.65938 36.01875Q156.45625 37.784374 154.37813 37.784374Q153.45625 37.784374 152.65938 37.440624Q151.8625 37.08125 151.47188 36.55Q151.09688 36.01875 150.94063 35.2375Q150.83125 34.721874 150.83125 33.596874L150.83125 27.175L152.58125 27.175L152.58125 32.925Q152.58125 34.3 152.69063 34.784374Q152.8625 35.471874 153.39375 35.878124Q153.94063 36.26875 154.72188 36.26875Q155.51875 36.26875 156.20625 35.8625Q156.90938 35.45625 157.19063 34.76875Q157.4875 34.065624 157.4875 32.7375L157.4875 27.175L159.2375 27.175L159.2375 37.55L157.65938 37.55ZM160.8625 41.51875L160.8625 27.175L162.47188 27.175L162.47188 28.51875Q163.03438 27.7375 163.7375 27.346874Q164.45625 26.940624 165.47188 26.940624Q166.8 26.940624 167.81563 27.628124Q168.83125 28.315624 169.34688 29.565624Q169.87813 30.8 169.87813 32.284374Q169.87813 33.878124 169.3 35.159374Q168.7375 36.425 167.64375 37.1125Q166.55 37.784374 165.34688 37.784374Q164.47188 37.784374 163.76875 37.409374Q163.08125 37.034374 162.62813 36.471874L162.62813 41.51875L160.8625 41.51875ZM162.45625 32.425Q162.45625 34.425 163.26875 35.378124Q164.08125 36.33125 165.2375 36.33125Q166.40938 36.33125 167.2375 35.346874Q168.08125 34.3625 168.08125 32.26875Q168.08125 30.3 167.25313 29.315624Q166.44063 28.315624 165.31563 28.315624Q164.19063 28.315624 163.31563 29.378124Q162.45625 30.425 162.45625 32.425ZM180.75313 37.55L176.8 27.175L178.65938 27.175L180.89375 33.39375Q181.25313 34.39375 181.55 35.471874Q181.78438 34.659374 182.20625 33.503124L184.50313 27.175L186.31563 27.175L182.39375 37.55L180.75313 37.55ZM186.15938 34.45625L187.90938 34.175Q188.05 35.221874 188.72188 35.784374Q189.39375 36.33125 190.59688 36.33125Q191.8 36.33125 192.37813 35.846874Q192.97188 35.346874 192.97188 34.690624Q192.97188 34.096874 192.45625 33.753124Q192.09688 33.51875 190.65938 33.159374Q188.72188 32.659374 187.97188 32.315624Q187.2375 31.95625 186.84688 31.33125Q186.45625 30.690624 186.45625 29.925Q186.45625 29.2375 186.76875 28.64375Q187.09688 28.05 187.64375 27.659374Q188.05 27.3625 188.75313 27.159374Q189.47188 26.940624 190.28438 26.940624Q191.50313 26.940624 192.425 27.3Q193.34688 27.64375 193.78438 28.253124Q194.22188 28.846874 194.39375 29.846874L192.675 30.08125Q192.55 29.284374 191.9875 28.846874Q191.425 28.39375 190.40938 28.39375Q189.19063 28.39375 188.675 28.8Q188.15938 29.190624 188.15938 29.721874Q188.15938 30.065624 188.37813 30.346874Q188.58125 30.628124 189.05 30.815624Q189.31563 30.909374 190.59688 31.253124Q192.47188 31.753124 193.20625 32.08125Q193.94063 32.39375 194.3625 33.003124Q194.78438 33.596874 194.78438 34.503124Q194.78438 35.378124 194.26875 36.159374Q193.75313 36.940624 192.78438 37.3625Q191.81563 37.784374 190.59688 37.784374Q188.58125 37.784374 187.51875 36.940624Q186.45625 36.096874 186.15938 34.45625ZM202.15938 34.45625L203.90938 34.175Q204.05 35.221874 204.72188 35.784374Q205.39375 36.33125 206.59688 36.33125Q207.8 36.33125 208.37813 35.846874Q208.97188 35.346874 208.97188 34.690624Q208.97188 34.096874 208.45625 33.753124Q208.09688 33.51875 206.65938 33.159374Q204.72188 32.659374 203.97188 32.315624Q203.2375 31.95625 202.84688 31.33125Q202.45625 30.690624 202.45625 29.925Q202.45625 29.2375 202.76875 28.64375Q203.09688 28.05 203.64375 27.659374Q204.05 27.3625 204.75313 27.159374Q205.47188 26.940624 206.28438 26.940624Q207.50313 26.940624 208.425 27.3Q209.34688 27.64375 209.78438 28.253124Q210.22188 28.846874 210.39375 29.846874L208.675 30.08125Q208.55 29.284374 207.9875 28.846874Q207.425 28.39375 206.40938 28.39375Q205.19063 28.39375 204.675 28.8Q204.15938 29.190624 204.15938 29.721874Q204.15938 30.065624 204.37813 30.346874Q204.58125 30.628124 205.05 30.815624Q205.31563 30.909374 206.59688 31.253124Q208.47188 31.753124 209.20625 32.08125Q209.94063 32.39375 210.3625 33.003124Q210.78438 33.596874 210.78438 34.503124Q210.78438 35.378124 210.26875 36.159374Q209.75313 36.940624 208.78438 37.3625Q207.81563 37.784374 206.59688 37.784374Q204.58125 37.784374 203.51875 36.940624Q202.45625 36.096874 202.15938 34.45625ZM216.70625 35.971874L216.95625 37.534374Q216.22188 37.690624 215.62813 37.690624Q214.675 37.690624 214.14375 37.39375Q213.62813 37.08125 213.40938 36.596874Q213.19063 36.096874 213.19063 34.51875L213.19063 28.55L211.90938 28.55L211.90938 27.175L213.19063 27.175L213.19063 24.6125L214.94063 23.55L214.94063 27.175L216.70625 27.175L216.70625 28.55L214.94063 28.55L214.94063 34.6125Q214.94063 35.3625 215.03438 35.58125Q215.12813 35.784374 215.33125 35.925Q215.55 36.05 215.94063 36.05Q216.22188 36.05 216.70625 35.971874ZM218.84688 37.55L218.84688 27.175L220.425 27.175L220.425 28.753124Q221.03438 27.64375 221.55 27.3Q222.06563 26.940624 222.675 26.940624Q223.56563 26.940624 224.4875 27.503124L223.87813 29.14375Q223.2375 28.753124 222.59688 28.753124Q222.01875 28.753124 221.55 29.1125Q221.09688 29.45625 220.89375 30.065624Q220.6125 31.003124 220.6125 32.1125L220.6125 37.55L218.84688 37.55ZM225.87813 25.253124L225.87813 23.2375L227.64375 23.2375L227.64375 25.253124L225.87813 25.253124ZM225.87813 37.55L225.87813 27.175L227.64375 27.175L227.64375 37.55L225.87813 37.55ZM236.59688 37.55L236.59688 36.2375Q235.6125 37.784374 233.69063 37.784374Q232.45625 37.784374 231.40938 37.096874Q230.37813 36.409374 229.8 35.190624Q229.2375 33.971874 229.2375 32.378124Q229.2375 30.815624 229.75313 29.55Q230.26875 28.284374 231.3 27.6125Q232.34688 26.940624 233.6125 26.940624Q234.55 26.940624 235.28438 27.346874Q236.01875 27.7375 236.4875 28.3625L236.4875 23.2375L238.22188 23.2375L238.22188 37.55L236.59688 37.55ZM231.03438 32.378124Q231.03438 34.3625 231.87813 35.346874Q232.72188 36.33125 233.8625 36.33125Q235.01875 36.33125 235.81563 35.39375Q236.62813 34.45625 236.62813 32.51875Q236.62813 30.39375 235.8 29.39375Q234.9875 28.39375 233.78438 28.39375Q232.6125 28.39375 231.81563 29.3625Q231.03438 30.315624 231.03438 32.378124ZM247.97188 34.20625L249.78438 34.440624Q249.3625 36.01875 248.19063 36.909374Q247.03438 37.784374 245.22188 37.784374Q242.95625 37.784374 241.6125 36.39375Q240.28438 34.9875 240.28438 32.45625Q240.28438 29.83125 241.62813 28.39375Q242.97188 26.940624 245.12813 26.940624Q247.20625 26.940624 248.51875 28.3625Q249.84688 29.76875 249.84688 32.346874Q249.84688 32.503124 249.83125 32.815624L242.09688 32.815624Q242.19063 34.51875 243.06563 35.425Q243.94063 36.33125 245.2375 36.33125Q246.20625 36.33125 246.87813 35.83125Q247.56563 35.315624 247.97188 34.20625ZM242.19063 31.3625L247.9875 31.3625Q247.87813 30.065624 247.33125 29.409374Q246.4875 28.39375 245.14375 28.39375Q243.94063 28.39375 243.1125 29.20625Q242.28438 30.003124 242.19063 31.3625Z" fill-rule="nonzero"/></svg>