<svg version="1.1" viewBox="0.0 0.0 600.0 371.0" fill="none" stroke="none" stroke-linecap="square" stroke-miterlimit="10" width="600" height="371" xmlns:xlink="http://www.w3.org/1999/xlink" xmlns="http://www.w3.org/2000/svg"><path fill="#ffffff" d="M0 0L600.0 0L600.0 371.0L0 371.0L0 0Z" fill-rule="nonzero"/><path stroke="#cccccc" stroke-width="1.0" stroke-linecap="butt" d="M179.5 61.5L179.5 300.5" fill-rule="nonzero"/><path stroke="#cccccc" stroke-width="1.0" stroke-linecap="butt" d="M307.5 61.5L307.5 300.5" fill-rule="nonzero"/><path stroke="#cccccc" stroke-width="1.0" stroke-linecap="butt" d="M434.5 61.5L434.5 300.5" fill-rule="nonzero"/><path stroke="#cccccc" stroke-width="1.0" stroke-linecap="butt" d="M562.5 61.5L562.5 300.5" fill-rule="nonzero"/><path stroke="#333333" stroke-width="1.0" stroke-linecap="butt" d="M77.5 300.5L581.5 300.5" fill-rule="nonzero"/><path stroke="#cccccc" stroke-width="1.0" stroke-linecap="butt" d="M77.5 220.5L581.5 220.5" fill-rule="nonzero"/><path stroke="#cccccc" stroke-width="1.0" stroke-linecap="butt" d="M77.5 141.5L581.5 141.5" fill-rule="nonzero"/><path stroke="#cccccc" stroke-width="1.0" stroke-linecap="butt" d="M77.5 61.5L581.5 61.5" fill-rule="nonzero"/><clipPath id="id_0"><path d="M77.55 61.916668L581.45 61.916668L581.45 300.45L77.55 300.45L77.55 61.916668Z" clip-rule="nonzero"/></clipPath><path stroke="#4285f4" stroke-width="2.0" stroke-linecap="butt" clip-path="url(#id_0)" d="M84.36077 266.56238L117.046005 253.47484L182.41646 251.7733L313.15738 225.67775L574.6392 106.45879" fill-rule="nonzero"/><path fill="#4285f4" clip-path="url(#id_0)" d="M88.86077 266.56238C88.86077 269.04764 86.846054 271.06238 84.36077 271.06238C81.875496 271.06238 79.86077 269.04764 79.86077 266.56238C79.86077 264.0771 81.875496 262.06238 84.36077 262.06238C86.846054 262.06238 88.86077 264.0771 88.86077 266.56238Z" fill-rule="nonzero"/><path fill="#4285f4" clip-path="url(#id_0)" d="M121.546005 253.47484C121.546005 255.96011 119.53129 257.97482 117.046005 257.97482C114.56072 257.97482 112.546005 255.96011 112.546005 253.47484C112.546005 250.98955 114.56072 248.97484 117.046005 248.97484C119.53129 248.97484 121.546005 250.98955 121.546005 253.47484Z" fill-rule="nonzero"/><path fill="#4285f4" clip-path="url(#id_0)" d="M186.91646 251.7733C186.91646 254.25858 184.90175 256.2733 182.41646 256.2733C179.93118 256.2733 177.91646 254.25858 177.91646 251.7733C177.91646 249.28801 179.93118 247.2733 182.41646 247.2733C184.90175 247.2733 186.91646 249.28801 186.91646 251.7733Z" fill-rule="nonzero"/><path fill="#4285f4" clip-path="url(#id_0)" d="M317.65738 225.67775C317.65738 228.16302 315.64267 230.17775 313.15738 230.17775C310.6721 230.17775 308.65738 228.16302 308.65738 225.67775C308.65738 223.19247 310.6721 221.17775 313.15738 221.17775C315.64267 221.17775 317.65738 223.19247 317.65738 225.67775Z" fill-rule="nonzero"/><path fill="#4285f4" clip-path="url(#id_0)" d="M579.1392 106.45879C579.1392 108.94407 577.1245 110.95879 574.6392 110.95879C572.15393 110.95879 570.1392 108.94407 570.1392 106.45879C570.1392 103.97351 572.15393 101.95879 574.6392 101.95879C577.1245 101.95879 579.1392 103.97351 579.1392 106.45879Z" fill-rule="nonzero"/><path fill="#000000" d="M301.89062 349.45L301.89062 340.85626L303.60938 340.85626L305.64062 346.9344Q305.92188 347.79376 306.04688 348.21564Q306.1875 347.7469 306.5 346.84064L308.5625 340.85626L310.09375 340.85626L310.09375 349.45L309.0 349.45L309.0 342.2625L306.5 349.45L305.46875 349.45L302.98438 342.1375L302.98438 349.45L301.89062 349.45ZM314.85938 348.6844Q314.26562 349.1844 313.71875 349.3875Q313.1875 349.59064 312.5625 349.59064Q311.53125 349.59064 310.98438 349.09064Q310.4375 348.59064 310.4375 347.8094Q310.4375 347.35626 310.64062 346.98126Q310.84375 346.59064 311.1875 346.3719Q311.53125 346.1375 311.95312 346.02814Q312.25 345.9344 312.89062 345.85626Q314.15625 345.71564 314.76562 345.4969Q314.76562 345.27814 314.76562 345.23126Q314.76562 344.575 314.46875 344.3094Q314.0625 343.96564 313.26562 343.96564Q312.53125 343.96564 312.17188 344.23126Q311.8125 344.48126 311.64062 345.1375L310.60938 344.9969Q310.75 344.34064 311.07812 343.9344Q311.40625 343.52814 312.01562 343.3094Q312.625 343.09064 313.42188 343.09064Q314.21875 343.09064 314.71875 343.27814Q315.21875 343.46564 315.45312 343.7469Q315.6875 344.02814 315.78125 344.46564Q315.82812 344.73126 315.82812 345.4344L315.82812 346.84064Q315.82812 348.3094 315.89062 348.7Q315.96875 349.09064 316.17188 349.45L315.0625 349.45Q314.90625 349.1219 314.85938 348.6844ZM314.76562 346.325Q314.1875 346.5594 313.04688 346.73126Q312.39062 346.825 312.125 346.95Q311.85938 347.0594 311.70312 347.27814Q311.5625 347.4969 311.5625 347.77814Q311.5625 348.2 311.875 348.48126Q312.20312 348.7625 312.8125 348.7625Q313.42188 348.7625 313.89062 348.4969Q314.375 348.23126 314.59375 347.7625Q314.76562 347.40314 314.76562 346.71564L314.76562 346.325ZM320.09375 348.5125L320.25 349.4344Q319.79688 349.52814 319.45312 349.52814Q318.875 349.52814 318.5625 349.35626Q318.25 349.16876 318.10938 348.8719Q317.98438 348.575 317.98438 347.6219L317.98438 344.04376L317.21875 344.04376L317.21875 343.23126L317.98438 343.23126L317.98438 341.6844L319.03125 341.0594L319.03125 343.23126L320.09375 343.23126L320.09375 344.04376L319.03125 344.04376L319.03125 347.6844Q319.03125 348.1375 319.07812 348.2625Q319.14062 348.3875 319.26562 348.46564Q319.39062 348.54376 319.625 348.54376Q319.8125 348.54376 320.09375 348.5125ZM320.78125 349.45L320.78125 343.23126L321.73438 343.23126L321.73438 344.16876Q322.09375 343.5125 322.39062 343.3094Q322.70312 343.09064 323.07812 343.09064Q323.60938 343.09064 324.15625 343.41876L323.79688 344.40314Q323.40625 344.16876 323.03125 344.16876Q322.67188 344.16876 322.39062 344.3875Q322.125 344.59064 322.01562 344.96564Q321.82812 345.52814 321.82812 346.1844L321.82812 349.45L320.78125 349.45ZM324.79688 342.075L324.79688 340.85626L325.85938 340.85626L325.85938 342.075L324.79688 342.075ZM324.79688 349.45L324.79688 343.23126L325.85938 343.23126L325.85938 349.45L324.79688 349.45ZM327.09375 349.45L329.35938 346.21564L327.26562 343.23126L328.57812 343.23126L329.53125 344.6844Q329.79688 345.10626 329.96875 345.3875Q330.21875 344.9969 330.4375 344.7L331.48438 343.23126L332.75 343.23126L330.59375 346.15314L332.90625 349.45L331.625 349.45L330.34375 347.5125L330.0 346.9969L328.35938 349.45L327.09375 349.45ZM335.54688 346.6844L336.60938 346.59064Q336.6875 347.2469 336.96875 347.65314Q337.25 348.0594 337.82812 348.325Q338.42188 348.575 339.15625 348.575Q339.79688 348.575 340.29688 348.3875Q340.79688 348.1844 341.03125 347.85626Q341.28125 347.5125 341.28125 347.1219Q341.28125 346.71564 341.04688 346.41876Q340.8125 346.10626 340.28125 345.90314Q339.92188 345.7625 338.73438 345.48126Q337.5625 345.2 337.09375 344.95Q336.46875 344.6219 336.17188 344.15314Q335.875 343.66876 335.875 343.075Q335.875 342.4344 336.23438 341.8719Q336.60938 341.29376 337.3125 341.0125Q338.03125 340.71564 338.89062 340.71564Q339.84375 340.71564 340.57812 341.02814Q341.3125 341.325 341.70312 341.9344Q342.09375 342.52814 342.125 343.27814L341.03125 343.35626Q340.9375 342.54376 340.42188 342.1375Q339.92188 341.71564 338.9375 341.71564Q337.90625 341.71564 337.4375 342.09064Q336.96875 342.46564 336.96875 342.9969Q336.96875 343.46564 337.29688 343.7625Q337.625 344.0594 339.0 344.3719Q340.39062 344.6844 340.90625 344.91876Q341.65625 345.27814 342.01562 345.8094Q342.375 346.325 342.375 347.02814Q342.375 347.71564 341.98438 348.325Q341.59375 348.91876 340.85938 349.2625Q340.125 349.59064 339.20312 349.59064Q338.03125 349.59064 337.23438 349.2625Q336.45312 348.91876 336.0 348.23126Q335.5625 347.54376 335.54688 346.6844ZM343.79688 342.075L343.79688 340.85626L344.85938 340.85626L344.85938 342.075L343.79688 342.075ZM343.79688 349.45L343.79688 343.23126L344.85938 343.23126L344.85938 349.45L343.79688 349.45ZM346.23438 349.45L346.23438 348.59064L350.20312 344.04376Q349.51562 344.075 349.0 344.075L346.46875 344.075L346.46875 343.23126L351.5625 343.23126L351.5625 343.91876L348.1875 347.8719L347.53125 348.59064Q348.25 348.54376 348.85938 348.54376L351.75 348.54376L351.75 349.45L346.23438 349.45ZM356.04688 347.45L357.14062 347.575Q356.89062 348.52814 356.1875 349.0594Q355.48438 349.59064 354.40625 349.59064Q353.04688 349.59064 352.23438 348.7469Q351.4375 347.90314 351.4375 346.3875Q351.4375 344.825 352.25 343.96564Q353.0625 343.09064 354.34375 343.09064Q355.59375 343.09064 356.375 343.9344Q357.17188 344.77814 357.17188 346.325Q357.17188 346.41876 357.17188 346.60626L352.53125 346.60626Q352.59375 347.6375 353.10938 348.1844Q353.625 348.71564 354.40625 348.71564Q354.98438 348.71564 355.39062 348.41876Q355.8125 348.10626 356.04688 347.45ZM352.59375 345.7469L356.0625 345.7469Q356.0 344.95 355.67188 344.5594Q355.15625 343.95 354.35938 343.95Q353.625 343.95 353.125 344.4344Q352.64062 344.91876 352.59375 345.7469Z" fill-rule="nonzero"/><path fill="#000000" d="M29.550013 279.69897L20.956263 276.4021L20.956263 275.18335L29.550013 271.66772L29.550013 272.94897L26.940638 273.9646L26.940638 277.54272L29.550013 278.49585L29.550013 279.69897ZM26.018763 277.2146L26.018763 274.30835L23.643763 275.19897Q22.565638 275.62085 21.862513 275.80835Q22.690638 275.98022 23.503138 276.2771L26.018763 277.2146ZM29.550013 270.16772L23.331263 272.5271L23.331263 271.41772L27.050013 270.07397Q27.659388 269.87085 28.300013 269.68335Q27.815638 269.54272 27.128138 269.29272L23.331263 267.9021L23.331263 266.82397L29.550013 269.18335L29.550013 270.16772ZM27.550013 262.63647L27.675013 261.54272Q28.628138 261.79272 29.159388 262.49585Q29.690638 263.19897 29.690638 264.2771Q29.690638 265.63647 28.846888 266.44897Q28.003138 267.24585 26.487513 267.24585Q24.925013 267.24585 24.065638 266.43335Q23.190638 265.62085 23.190638 264.3396Q23.190638 263.0896 24.034388 262.30835Q24.878138 261.51147 26.425013 261.51147Q26.518763 261.51147 26.706263 261.51147L26.706263 266.1521Q27.737513 266.0896 28.284388 265.57397Q28.815638 265.05835 28.815638 264.2771Q28.815638 263.69897 28.518763 263.29272Q28.206263 262.87085 27.550013 262.63647ZM25.846888 266.0896L25.846888 262.62085Q25.050013 262.68335 24.659388 263.01147Q24.050013 263.5271 24.050013 264.32397Q24.050013 265.05835 24.534388 265.55835Q25.018763 266.04272 25.846888 266.0896ZM29.550013 259.9021L23.331263 259.9021L23.331263 258.94897L24.268763 258.94897Q23.612513 258.5896 23.409388 258.29272Q23.190638 257.98022 23.190638 257.60522Q23.190638 257.07397 23.518763 256.5271L24.503138 256.88647Q24.268763 257.2771 24.268763 257.6521Q24.268763 258.01147 24.487513 258.29272Q24.690638 258.55835 25.065638 258.66772Q25.628138 258.85522 26.284388 258.85522L29.550013 258.85522L29.550013 259.9021ZM28.784388 251.82396Q29.284388 252.41771 29.487513 252.96458Q29.690638 253.49583 29.690638 254.12083Q29.690638 255.15208 29.190638 255.69896Q28.690638 256.24585 27.909388 256.24585Q27.456263 256.24585 27.081263 256.04272Q26.690638 255.83958 26.471888 255.49583Q26.237513 255.15208 26.128138 254.73021Q26.034388 254.43333 25.956263 253.79271Q25.815638 252.52708 25.596888 251.91771Q25.378138 251.91771 25.331263 251.91771Q24.675013 251.91771 24.409388 252.21458Q24.065638 252.62083 24.065638 253.41771Q24.065638 254.15208 24.331263 254.51146Q24.581263 254.87083 25.237513 255.04271L25.096888 256.07397Q24.440638 255.93333 24.034388 255.60521Q23.628138 255.27708 23.409388 254.66771Q23.190638 254.05833 23.190638 253.26146Q23.190638 252.46458 23.378138 251.96458Q23.565638 251.46458 23.846888 251.23021Q24.128138 250.99583 24.565638 250.90208Q24.831263 250.85521 25.534388 250.85521L26.940638 250.85521Q28.409388 250.85521 28.800013 250.79271Q29.190638 250.71458 29.550013 250.51146L29.550013 251.62083Q29.221888 251.77708 28.784388 251.82396ZM26.425013 251.91771Q26.659388 252.49583 26.831263 253.63646Q26.925013 254.29271 27.050013 254.55833Q27.159388 254.82396 27.378138 254.98021Q27.596888 255.12083 27.878138 255.12083Q28.300013 255.12083 28.581263 254.80833Q28.862513 254.48021 28.862513 253.87083Q28.862513 253.26146 28.596888 252.79271Q28.331263 252.30833 27.862513 252.08958Q27.503138 251.91771 26.815638 251.91771L26.425013 251.91771ZM30.065638 249.08958L30.221888 248.05833Q30.690638 247.99583 30.909388 247.69896Q31.206263 247.30833 31.206263 246.63646Q31.206263 245.90208 30.909388 245.51146Q30.612513 245.10521 30.096888 244.96458Q29.768763 244.87083 28.737513 244.88646Q29.550013 245.57396 29.550013 246.60521Q29.550013 247.88646 28.628138 248.58958Q27.690638 249.29271 26.409388 249.29271Q25.518763 249.29271 24.768763 248.98021Q24.003138 248.65208 23.596888 248.04271Q23.190638 247.43333 23.190638 246.60521Q23.190638 245.49583 24.081263 244.77708L23.331263 244.77708L23.331263 243.80833L28.706263 243.80833Q30.159388 243.80833 30.768763 244.10521Q31.378138 244.40208 31.721888 245.04271Q32.08126 245.68333 32.08126 246.62083Q32.08126 247.73021 31.581263 248.41771Q31.081263 249.10521 30.065638 249.08958ZM26.331263 248.21458Q27.550013 248.21458 28.112513 247.73021Q28.675013 247.24583 28.675013 246.51146Q28.675013 245.77708 28.112513 245.29271Q27.550013 244.79271 26.362513 244.79271Q25.221888 244.79271 24.643763 245.30833Q24.065638 245.80833 24.065638 246.52708Q24.065638 247.23021 24.643763 247.73021Q25.206263 248.21458 26.331263 248.21458ZM27.550013 237.63646L27.675013 236.54271Q28.628138 236.79271 29.159388 237.49583Q29.690638 238.19896 29.690638 239.27708Q29.690638 240.63646 28.846888 241.44896Q28.003138 242.24583 26.487513 242.24583Q24.925013 242.24583 24.065638 241.43333Q23.190638 240.62083 23.190638 239.33958Q23.190638 238.08958 24.034388 237.30833Q24.878138 236.51146 26.425013 236.51146Q26.518763 236.51146 26.706263 236.51146L26.706263 241.15208Q27.737513 241.08958 28.284388 240.57396Q28.815638 240.05833 28.815638 239.27708Q28.815638 238.69896 28.518763 238.29271Q28.206263 237.87083 27.550013 237.63646ZM25.846888 241.08958L25.846888 237.62083Q25.050013 237.68333 24.659388 238.01146Q24.050013 238.52708 24.050013 239.32396Q24.050013 240.05833 24.534388 240.55833Q25.018763 241.04271 25.846888 241.08958ZM29.550013 231.76146L20.956263 231.76146L20.956263 230.60521L27.706263 226.08958L20.956263 226.08958L20.956263 224.99583L29.550013 224.99583L29.550013 226.16771L22.800013 230.68333L29.550013 230.68333L29.550013 231.76146ZM26.440638 223.27708Q24.706263 223.27708 23.878138 222.32396Q23.190638 221.52708 23.190638 220.37083Q23.190638 219.08958 24.034388 218.27708Q24.862513 217.44896 26.346888 217.44896Q27.550013 217.44896 28.237513 217.80833Q28.925013 218.16771 29.315638 218.87083Q29.690638 219.55833 29.690638 220.37083Q29.690638 221.66771 28.862513 222.48021Q28.018763 223.27708 26.440638 223.27708ZM26.440638 222.19896Q27.628138 222.19896 28.221888 221.68333Q28.815638 221.15208 28.815638 220.37083Q28.815638 219.57396 28.221888 219.05833Q27.628138 218.54271 26.409388 218.54271Q25.253138 218.54271 24.659388 219.07396Q24.065638 219.58958 24.065638 220.37083Q24.065638 221.15208 24.659388 221.68333Q25.237513 222.19896 26.440638 222.19896ZM29.550013 215.90208L23.331263 215.90208L23.331263 214.94896L24.268763 214.94896Q23.612513 214.58958 23.409388 214.29271Q23.190638 213.98021 23.190638 213.60521Q23.190638 213.07396 23.518763 212.52708L24.503138 212.88646Q24.268763 213.27708 24.268763 213.65208Q24.268763 214.01146 24.487513 214.29271Q24.690638 214.55833 25.065638 214.66771Q25.628138 214.85521 26.284388 214.85521L29.550013 214.85521L29.550013 215.90208ZM29.550013 211.88646L23.331263 211.88646L23.331263 210.94896L24.206263 210.94896Q23.737513 210.65208 23.471888 210.16771Q23.190638 209.68333 23.190638 209.05833Q23.190638 208.37083 23.471888 207.93333Q23.753138 207.48021 24.268763 207.30833Q23.190638 206.55833 23.190638 205.38646Q23.190638 204.44896 23.706263 203.96458Q24.206263 203.46458 25.284388 203.46458L29.550013 203.46458L29.550013 204.51146L25.628138 204.51146Q25.003138 204.51146 24.721888 204.62083Q24.440638 204.71458 24.268763 204.98021Q24.096888 205.24583 24.096888 205.62083Q24.096888 206.27708 24.534388 206.71458Q24.971888 207.13646 25.940638 207.13646L29.550013 207.13646L29.550013 208.19896L25.503138 208.19896Q24.800013 208.19896 24.456263 208.46458Q24.096888 208.71458 24.096888 209.29271Q24.096888 209.74583 24.331263 210.12083Q24.565638 210.49583 25.018763 210.66771Q25.471888 210.83958 26.315638 210.83958L29.550013 210.83958L29.550013 211.88646ZM28.784388 196.82396Q29.284388 197.41771 29.487513 197.96458Q29.690638 198.49583 29.690638 199.12083Q29.690638 200.15208 29.190638 200.69896Q28.690638 201.24583 27.909388 201.24583Q27.456263 201.24583 27.081263 201.04271Q26.690638 200.83958 26.471888 200.49583Q26.237513 200.15208 26.128138 199.73021Q26.034388 199.43333 25.956263 198.79271Q25.815638 197.52708 25.596888 196.91771Q25.378138 196.91771 25.331263 196.91771Q24.675013 196.91771 24.409388 197.21458Q24.065638 197.62083 24.065638 198.41771Q24.065638 199.15208 24.331263 199.51146Q24.581263 199.87083 25.237513 200.04271L25.096888 201.07396Q24.440638 200.93333 24.034388 200.60521Q23.628138 200.27708 23.409388 199.66771Q23.190638 199.05833 23.190638 198.26146Q23.190638 197.46458 23.378138 196.96458Q23.565638 196.46458 23.846888 196.23021Q24.128138 195.99583 24.565638 195.90208Q24.831263 195.85521 25.534388 195.85521L26.940638 195.85521Q28.409388 195.85521 28.800013 195.79271Q29.190638 195.71458 29.550013 195.51146L29.550013 196.62083Q29.221888 196.77708 28.784388 196.82396ZM26.425013 196.91771Q26.659388 197.49583 26.831263 198.63646Q26.925013 199.29271 27.050013 199.55833Q27.159388 199.82396 27.378138 199.98021Q27.596888 200.12083 27.878138 200.12083Q28.300013 200.12083 28.581263 199.80833Q28.862513 199.48021 28.862513 198.87083Q28.862513 198.26146 28.596888 197.79271Q28.331263 197.30833 27.862513 197.08958Q27.503138 196.91771 26.815638 196.91771L26.425013 196.91771ZM29.550013 193.91771L20.956263 193.91771L20.956263 192.85521L29.550013 192.85521L29.550013 193.91771ZM22.175013 190.88646L20.956263 190.88646L20.956263 189.82396L22.175013 189.82396L22.175013 190.88646ZM29.550013 190.88646L23.331263 190.88646L23.331263 189.82396L29.550013 189.82396L29.550013 190.88646ZM29.550013 188.44896L28.690638 188.44896L24.143763 184.48021Q24.175013 185.16771 24.175013 185.68333L24.175013 188.21458L23.331263 188.21458L23.331263 183.12083L24.018763 183.12083L27.971888 186.49583L28.690638 187.15208Q28.643763 186.43333 28.643763 185.82396L28.643763 182.93333L29.550013 182.93333L29.550013 188.44896ZM27.550013 178.63646L27.675013 177.54271Q28.628138 177.79271 29.159388 178.49583Q29.690638 179.19896 29.690638 180.27708Q29.690638 181.63646 28.846888 182.44896Q28.003138 183.24583 26.487513 183.24583Q24.925013 183.24583 24.065638 182.43333Q23.190638 181.62083 23.190638 180.33958Q23.190638 179.08958 24.034388 178.30833Q24.878138 177.51146 26.425013 177.51146Q26.518763 177.51146 26.706263 177.51146L26.706263 182.15208Q27.737513 182.08958 28.284388 181.57396Q28.815638 181.05833 28.815638 180.27708Q28.815638 179.69896 28.518763 179.29271Q28.206263 178.87083 27.550013 178.63646ZM25.846888 182.08958L25.846888 178.62083Q25.050013 178.68333 24.659388 179.01146Q24.050013 179.52708 24.050013 180.32396Q24.050013 181.05833 24.534388 181.55833Q25.018763 182.04271 25.846888 182.08958ZM29.550013 171.85521L28.768763 171.85521Q29.690638 172.44896 29.690638 173.58958Q29.690638 174.33958 29.284388 174.96458Q28.862513 175.58958 28.128138 175.93333Q27.393763 176.27708 26.440638 176.27708Q25.518763 176.27708 24.753138 175.96458Q23.987513 175.65208 23.596888 175.02708Q23.190638 174.40208 23.190638 173.63646Q23.190638 173.07396 23.425013 172.63646Q23.659388 172.19896 24.034388 171.91771L20.956263 171.91771L20.956263 170.87083L29.550013 170.87083L29.550013 171.85521ZM26.440638 175.18333Q27.643763 175.18333 28.237513 174.68333Q28.815638 174.18333 28.815638 173.49583Q28.815638 172.80833 28.253138 172.32396Q27.690638 171.83958 26.534388 171.83958Q25.253138 171.83958 24.659388 172.33958Q24.065638 172.82396 24.065638 173.54271Q24.065638 174.24583 24.643763 174.71458Q25.206263 175.18333 26.440638 175.18333ZM29.550013 165.76146L20.956263 165.76146L20.956263 162.51146Q20.956263 161.66771 21.034388 161.21458Q21.143763 160.57396 21.440638 160.15208Q21.737513 159.71458 22.268763 159.46458Q22.800013 159.19896 23.440638 159.19896Q24.534388 159.19896 25.300013 159.90208Q26.050013 160.58958 26.050013 162.41771L26.050013 164.62083L29.550013 164.62083L29.550013 165.76146ZM25.050013 164.62083L25.050013 162.40208Q25.050013 161.29271 24.643763 160.83958Q24.221888 160.37083 23.471888 160.37083Q22.940638 160.37083 22.565638 160.65208Q22.175013 160.91771 22.050013 161.35521Q21.971888 161.65208 21.971888 162.41771L21.971888 164.62083L25.050013 164.62083ZM27.550013 153.63646L27.675013 152.54271Q28.628138 152.79271 29.159388 153.49583Q29.690638 154.19896 29.690638 155.27708Q29.690638 156.63646 28.846888 157.44896Q28.003138 158.24583 26.487513 158.24583Q24.925013 158.24583 24.065638 157.43333Q23.190638 156.62083 23.190638 155.33958Q23.190638 154.08958 24.034388 153.30833Q24.878138 152.51146 26.425013 152.51146Q26.518763 152.51146 26.706263 152.51146L26.706263 157.15208Q27.737513 157.08958 28.284388 156.57396Q28.815638 156.05833 28.815638 155.27708Q28.815638 154.69896 28.518763 154.29271Q28.206263 153.87083 27.550013 153.63646ZM25.846888 157.08958L25.846888 153.62083Q25.050013 153.68333 24.659388 154.01146Q24.050013 154.52708 24.050013 155.32396Q24.050013 156.05833 24.534388 156.55833Q25.018763 157.04271 25.846888 157.08958ZM29.550013 150.90208L23.331263 150.90208L23.331263 149.94896L24.268763 149.94896Q23.612513 149.58958 23.409388 149.29271Q23.190638 148.98021 23.190638 148.60521Q23.190638 148.07396 23.518763 147.52708L24.503138 147.88646Q24.268763 148.27708 24.268763 148.65208Q24.268763 149.01146 24.487513 149.29271Q24.690638 149.55833 25.065638 149.66771Q25.628138 149.85521 26.284388 149.85521L29.550013 149.85521L29.550013 150.90208ZM29.550013 146.63646L24.143763 146.63646L24.143763 147.57396L23.331263 147.57396L23.331263 146.63646L22.659388 146.63646Q22.034388 146.63646 21.737513 146.52708Q21.315638 146.37083 21.065638 145.99583Q20.815638 145.60521 20.815638 144.91771Q20.815638 144.46458 20.925013 143.93333L21.831263 144.08958Q21.784388 144.41771 21.784388 144.71458Q21.784388 145.19896 21.987513 145.40208Q22.190638 145.58958 22.753138 145.58958L23.331263 145.58958L23.331263 144.37083L24.143763 144.37083L24.143763 145.58958L29.550013 145.58958L29.550013 146.63646ZM26.440638 144.27708Q24.706263 144.27708 23.878138 143.32396Q23.190638 142.52708 23.190638 141.37083Q23.190638 140.08958 24.034388 139.27708Q24.862513 138.44896 26.346888 138.44896Q27.550013 138.44896 28.237513 138.80833Q28.925013 139.16771 29.315638 139.87083Q29.690638 140.55833 29.690638 141.37083Q29.690638 142.66771 28.862513 143.48021Q28.018763 144.27708 26.440638 144.27708ZM26.440638 143.19896Q27.628138 143.19896 28.221888 142.68333Q28.815638 142.15208 28.815638 141.37083Q28.815638 140.57396 28.221888 140.05833Q27.628138 139.54271 26.409388 139.54271Q25.253138 139.54271 24.659388 140.07396Q24.065638 140.58958 24.065638 141.37083Q24.065638 142.15208 24.659388 142.68333Q25.237513 143.19896 26.440638 143.19896ZM29.550013 136.90208L23.331263 136.90208L23.331263 135.94896L24.268763 135.94896Q23.612513 135.58958 23.409388 135.29271Q23.190638 134.98021 23.190638 134.60521Q23.190638 134.07396 23.518763 133.52708L24.503138 133.88646Q24.268763 134.27708 24.268763 134.65208Q24.268763 135.01146 24.487513 135.29271Q24.690638 135.55833 25.065638 135.66771Q25.628138 135.85521 26.284388 135.85521L29.550013 135.85521L29.550013 136.90208ZM29.550013 132.88646L23.331263 132.88646L23.331263 131.94896L24.206263 131.94896Q23.737513 131.65208 23.471888 131.16771Q23.190638 130.68333 23.190638 130.05833Q23.190638 129.37083 23.471888 128.93333Q23.753138 128.48021 24.268763 128.30833Q23.190638 127.558334 23.190638 126.38646Q23.190638 125.44896 23.706263 124.964584Q24.206263 124.464584 25.284388 124.464584L29.550013 124.464584L29.550013 125.51146L25.628138 125.51146Q25.003138 125.51146 24.721888 125.620834Q24.440638 125.714584 24.268763 125.98021Q24.096888 126.245834 24.096888 126.620834Q24.096888 127.277084 24.534388 127.714584Q24.971888 128.13646 25.940638 128.13646L29.550013 128.13646L29.550013 129.19896L25.503138 129.19896Q24.800013 129.19896 24.456263 129.46458Q24.096888 129.71458 24.096888 130.29271Q24.096888 130.74583 24.331263 131.12083Q24.565638 131.49583 25.018763 131.66771Q25.471888 131.83958 26.315638 131.83958L29.550013 131.83958L29.550013 132.88646ZM28.784388 117.82396Q29.284388 118.41771 29.487513 118.964584Q29.690638 119.495834 29.690638 120.120834Q29.690638 121.152084 29.190638 121.69896Q28.690638 122.245834 27.909388 122.245834Q27.456263 122.245834 27.081263 122.04271Q26.690638 121.839584 26.471888 121.495834Q26.237513 121.152084 26.128138 120.73021Q26.034388 120.433334 25.956263 119.79271Q25.815638 118.527084 25.596888 117.91771Q25.378138 117.91771 25.331263 117.91771Q24.675013 117.91771 24.409388 118.214584Q24.065638 118.620834 24.065638 119.41771Q24.065638 120.152084 24.331263 120.51146Q24.581263 120.870834 25.237513 121.04271L25.096888 122.07396Q24.440638 121.933334 24.034388 121.60521Q23.628138 121.277084 23.409388 120.66771Q23.190638 120.058334 23.190638 119.26146Q23.190638 118.464584 23.378138 117.964584Q23.565638 117.464584 23.846888 117.23021Q24.128138 116.995834 24.565638 116.902084Q24.831263 116.85521 25.534388 116.85521L26.940638 116.85521Q28.409388 116.85521 28.800013 116.79271Q29.190638 116.714584 29.550013 116.51146L29.550013 117.620834Q29.221888 117.777084 28.784388 117.82396ZM26.425013 117.91771Q26.659388 118.495834 26.831263 119.63646Q26.925013 120.29271 27.050013 120.558334Q27.159388 120.82396 27.378138 120.98021Q27.596888 121.120834 27.878138 121.120834Q28.300013 121.120834 28.581263 120.808334Q28.862513 120.48021 28.862513 119.870834Q28.862513 119.26146 28.596888 118.79271Q28.331263 118.308334 27.862513 118.089584Q27.503138 117.91771 26.815638 117.91771L26.425013 117.91771ZM29.550013 114.88646L23.331263 114.88646L23.331263 113.94896L24.206263 113.94896Q23.190638 113.26146 23.190638 111.964584Q23.190638 111.402084 23.393763 110.933334Q23.596888 110.44896 23.925013 110.214584Q24.253138 109.98021 24.690638 109.88646Q24.987513 109.839584 25.721888 109.839584L29.550013 109.839584L29.550013 110.88646L25.768763 110.88646Q25.112513 110.88646 24.800013 111.01146Q24.487513 111.13646 24.300013 111.44896Q24.096888 111.76146 24.096888 112.183334Q24.096888 112.85521 24.534388 113.35521Q24.956263 113.839584 26.143763 113.839584L29.550013 113.839584L29.550013 114.88646ZM27.268763 103.82396L27.409388 102.79271Q28.471888 102.964584 29.081263 103.66771Q29.690638 104.370834 29.690638 105.38646Q29.690638 106.66771 28.862513 107.44896Q28.018763 108.214584 26.456263 108.214584Q25.456263 108.214584 24.706263 107.88646Q23.940638 107.54271 23.565638 106.870834Q23.190638 106.183334 23.190638 105.370834Q23.190638 104.370834 23.706263 103.73021Q24.206263 103.07396 25.159388 102.88646L25.315638 103.91771Q24.690638 104.058334 24.378138 104.433334Q24.050013 104.808334 24.050013 105.339584Q24.050013 106.13646 24.628138 106.63646Q25.190638 107.13646 26.425013 107.13646Q27.690638 107.13646 28.253138 106.652084Q28.815638 106.16771 28.815638 105.402084Q28.815638 104.777084 28.440638 104.370834Q28.065638 103.94896 27.268763 103.82396ZM27.550013 97.63646L27.675013 96.54271Q28.628138 96.79271 29.159388 97.495834Q29.690638 98.19896 29.690638 99.277084Q29.690638 100.63646 28.846888 101.44896Q28.003138 102.245834 26.487513 102.245834Q24.925013 102.245834 24.065638 101.433334Q23.190638 100.620834 23.190638 99.339584Q23.190638 98.089584 24.034388 97.308334Q24.878138 96.51146 26.425013 96.51146Q26.518763 96.51146 26.706263 96.51146L26.706263 101.152084Q27.737513 101.089584 28.284388 100.57396Q28.815638 100.058334 28.815638 99.277084Q28.815638 98.69896 28.518763 98.29271Q28.206263 97.870834 27.550013 97.63646ZM25.846888 101.089584L25.846888 97.620834Q25.050013 97.683334 24.659388 98.01146Q24.050013 98.527084 24.050013 99.32396Q24.050013 100.058334 24.534388 100.558334Q25.018763 101.04271 25.846888 101.089584Z" fill-rule="nonzero"/><path fill="#000000" d="M65.05 300.21564Q65.05 298.6844 65.3625 297.7625Q65.675 296.825 66.28438 296.325Q66.90938 295.825 67.84688 295.825Q68.53438 295.825 69.05 296.10626Q69.58125 296.3875 69.925 296.91876Q70.26875 297.4344 70.45625 298.1844Q70.64375 298.9344 70.64375 300.21564Q70.64375 301.73126 70.33125 302.65314Q70.03438 303.575 69.40938 304.09064Q68.8 304.59064 67.84688 304.59064Q66.6125 304.59064 65.89375 303.7Q65.05 302.6375 65.05 300.21564ZM66.12813 300.21564Q66.12813 302.325 66.62813 303.02814Q67.12813 303.73126 67.84688 303.73126Q68.58125 303.73126 69.06563 303.02814Q69.56563 302.325 69.56563 300.21564Q69.56563 298.09064 69.06563 297.40314Q68.58125 296.7 67.83125 296.7Q67.1125 296.7 66.675 297.3094Q66.12813 298.09064 66.12813 300.21564Z" fill-rule="nonzero"/><path fill="#000000" d="M65.05 222.68889L66.15938 222.59514Q66.28438 223.40764 66.72188 223.81389Q67.175 224.22014 67.81563 224.22014Q68.56563 224.22014 69.09688 223.64201Q69.62813 223.06389 69.62813 222.12639Q69.62813 221.22014 69.1125 220.70451Q68.6125 220.17326 67.78438 220.17326Q67.28438 220.17326 66.8625 220.40764Q66.45625 220.64201 66.22188 221.00139L65.2375 220.87639L66.06563 216.47014L70.34688 216.47014L70.34688 217.47014L66.90938 217.47014L66.45625 219.78264Q67.22188 219.23576 68.06563 219.23576Q69.19063 219.23576 69.95625 220.01701Q70.7375 220.79826 70.7375 222.03264Q70.7375 223.18889 70.06563 224.04826Q69.2375 225.07951 67.81563 225.07951Q66.64375 225.07951 65.89375 224.42326Q65.15938 223.76701 65.05 222.68889Z" fill-rule="nonzero"/><path fill="#000000" d="M62.01875 145.42778L60.971874 145.42778L60.971874 138.70903Q60.58125 139.0684 59.95625 139.4434Q59.346874 139.80278 58.8625 139.97466L58.8625 138.95903Q59.7375 138.53716 60.39375 137.95903Q61.065624 137.36528 61.346874 136.80278L62.01875 136.80278L62.01875 145.42778ZM65.05 141.1934Q65.05 139.66216 65.3625 138.74028Q65.675 137.80278 66.28438 137.30278Q66.90938 136.80278 67.84688 136.80278Q68.53438 136.80278 69.05 137.08403Q69.58125 137.36528 69.925 137.89653Q70.26875 138.41216 70.45625 139.16216Q70.64375 139.91216 70.64375 141.1934Q70.64375 142.70903 70.33125 143.6309Q70.03438 144.55278 69.40938 145.0684Q68.8 145.5684 67.84688 145.5684Q66.6125 145.5684 65.89375 144.67778Q65.05 143.61528 65.05 141.1934ZM66.12813 141.1934Q66.12813 143.30278 66.62813 144.0059Q67.12813 144.70903 67.84688 144.70903Q68.58125 144.70903 69.06563 144.0059Q69.56563 143.30278 69.56563 141.1934Q69.56563 139.0684 69.06563 138.3809Q68.58125 137.67778 67.83125 137.67778Q67.1125 137.67778 66.675 138.28716Q66.12813 139.0684 66.12813 141.1934Z" fill-rule="nonzero"/><path fill="#000000" d="M62.01875 65.916664L60.971874 65.916664L60.971874 59.197914Q60.58125 59.55729 59.95625 59.93229Q59.346874 60.291664 58.8625 60.46354L58.8625 59.447914Q59.7375 59.02604 60.39375 58.447914Q61.065624 57.854164 61.346874 57.291664L62.01875 57.291664L62.01875 65.916664ZM65.05 63.666664L66.15938 63.572914Q66.28438 64.385414 66.72188 64.791664Q67.175 65.197914 67.81563 65.197914Q68.56563 65.197914 69.09688 64.61979Q69.62813 64.041664 69.62813 63.104164Q69.62813 62.197914 69.1125 61.68229Q68.6125 61.15104 67.78438 61.15104Q67.28438 61.15104 66.8625 61.385414Q66.45625 61.61979 66.22188 61.979164L65.2375 61.854164L66.06563 57.447914L70.34688 57.447914L70.34688 58.447914L66.90938 58.447914L66.45625 60.760414Q67.22188 60.21354 68.06563 60.21354Q69.19063 60.21354 69.95625 60.99479Q70.7375 61.77604 70.7375 63.010414Q70.7375 64.166664 70.06563 65.02604Q69.2375 66.05729 67.81563 66.05729Q66.64375 66.05729 65.89375 65.40104Q65.15938 64.74479 65.05 63.666664Z" fill-rule="nonzero"/><path fill="#000000" d="M169.82097 317.45L168.7741 317.45L168.7741 310.73126Q168.38347 311.09064 167.75847 311.46564Q167.1491 311.825 166.66472 311.9969L166.66472 310.98126Q167.53972 310.5594 168.19597 309.98126Q168.86784 309.3875 169.1491 308.825L169.82097 308.825L169.82097 317.45ZM172.85222 313.21564Q172.85222 311.6844 173.16472 310.7625Q173.47722 309.825 174.0866 309.325Q174.7116 308.825 175.6491 308.825Q176.3366 308.825 176.85222 309.10626Q177.38347 309.3875 177.72722 309.91876Q178.07097 310.4344 178.25847 311.1844Q178.44597 311.9344 178.44597 313.21564Q178.44597 314.73126 178.13347 315.65314Q177.8366 316.575 177.2116 317.09064Q176.60222 317.59064 175.6491 317.59064Q174.41472 317.59064 173.69597 316.7Q172.85222 315.6375 172.85222 313.21564ZM173.93034 313.21564Q173.93034 315.325 174.43034 316.02814Q174.93034 316.73126 175.6491 316.73126Q176.38347 316.73126 176.86784 316.02814Q177.36784 315.325 177.36784 313.21564Q177.36784 311.09064 176.86784 310.40314Q176.38347 309.7 175.63347 309.7Q174.91472 309.7 174.47722 310.3094Q173.93034 311.09064 173.93034 313.21564ZM179.85222 313.21564Q179.85222 311.6844 180.16472 310.7625Q180.47722 309.825 181.0866 309.325Q181.7116 308.825 182.6491 308.825Q183.3366 308.825 183.85222 309.10626Q184.38347 309.3875 184.72722 309.91876Q185.07097 310.4344 185.25847 311.1844Q185.44597 311.9344 185.44597 313.21564Q185.44597 314.73126 185.13347 315.65314Q184.8366 316.575 184.2116 317.09064Q183.60222 317.59064 182.6491 317.59064Q181.41472 317.59064 180.69597 316.7Q179.85222 315.6375 179.85222 313.21564ZM180.93034 313.21564Q180.93034 315.325 181.43034 316.02814Q181.93034 316.73126 182.6491 316.73126Q183.38347 316.73126 183.86784 316.02814Q184.36784 315.325 184.36784 313.21564Q184.36784 311.09064 183.86784 310.40314Q183.38347 309.7 182.63347 309.7Q181.91472 309.7 181.47722 310.3094Q180.93034 311.09064 180.93034 313.21564ZM186.85222 313.21564Q186.85222 311.6844 187.16472 310.7625Q187.47722 309.825 188.0866 309.325Q188.7116 308.825 189.6491 308.825Q190.3366 308.825 190.85222 309.10626Q191.38347 309.3875 191.72722 309.91876Q192.07097 310.4344 192.25847 311.1844Q192.44597 311.9344 192.44597 313.21564Q192.44597 314.73126 192.13347 315.65314Q191.8366 316.575 191.2116 317.09064Q190.60222 317.59064 189.6491 317.59064Q188.41472 317.59064 187.69597 316.7Q186.85222 315.6375 186.85222 313.21564ZM187.93034 313.21564Q187.93034 315.325 188.43034 316.02814Q188.93034 316.73126 189.6491 316.73126Q190.38347 316.73126 190.86784 316.02814Q191.36784 315.325 191.36784 313.21564Q191.36784 311.09064 190.86784 310.40314Q190.38347 309.7 189.63347 309.7Q188.91472 309.7 188.47722 310.3094Q187.93034 311.09064 187.93034 313.21564Z" fill-rule="nonzero"/><path fill="#000000" d="M299.07578 316.4344L299.07578 317.45L293.38828 317.45Q293.38828 317.075 293.51328 316.71564Q293.73203 316.1375 294.20078 315.575Q294.68515 315.0125 295.5914 314.27814Q296.99765 313.1219 297.48203 312.45Q297.98203 311.77814 297.98203 311.1844Q297.98203 310.5594 297.5289 310.1375Q297.07578 309.7 296.35703 309.7Q295.5914 309.7 295.13828 310.15314Q294.68515 310.60626 294.66953 311.41876L293.5914 311.3094Q293.70078 310.09064 294.41953 309.46564Q295.1539 308.825 296.38828 308.825Q297.62265 308.825 298.3414 309.5125Q299.06015 310.2 299.06015 311.21564Q299.06015 311.73126 298.8414 312.23126Q298.63828 312.71564 298.13828 313.27814Q297.6539 313.825 296.5289 314.77814Q295.57578 315.575 295.29453 315.8719Q295.0289 316.15314 294.85703 316.4344L299.07578 316.4344ZM300.5289 313.21564Q300.5289 311.6844 300.8414 310.7625Q301.1539 309.825 301.76328 309.325Q302.38828 308.825 303.32578 308.825Q304.01328 308.825 304.5289 309.10626Q305.06015 309.3875 305.4039 309.91876Q305.74765 310.4344 305.93515 311.1844Q306.12265 311.9344 306.12265 313.21564Q306.12265 314.73126 305.81015 315.65314Q305.51328 316.575 304.88828 317.09064Q304.2789 317.59064 303.32578 317.59064Q302.0914 317.59064 301.37265 316.7Q300.5289 315.6375 300.5289 313.21564ZM301.60703 313.21564Q301.60703 315.325 302.10703 316.02814Q302.60703 316.73126 303.32578 316.73126Q304.06015 316.73126 304.54453 316.02814Q305.04453 315.325 305.04453 313.21564Q305.04453 311.09064 304.54453 310.40314Q304.06015 309.7 303.31015 309.7Q302.5914 309.7 302.1539 310.3094Q301.60703 311.09064 301.60703 313.21564ZM307.5289 313.21564Q307.5289 311.6844 307.8414 310.7625Q308.1539 309.825 308.76328 309.325Q309.38828 308.825 310.32578 308.825Q311.01328 308.825 311.5289 309.10626Q312.06015 309.3875 312.4039 309.91876Q312.74765 310.4344 312.93515 311.1844Q313.12265 311.9344 313.12265 313.21564Q313.12265 314.73126 312.81015 315.65314Q312.51328 316.575 311.88828 317.09064Q311.2789 317.59064 310.32578 317.59064Q309.0914 317.59064 308.37265 316.7Q307.5289 315.6375 307.5289 313.21564ZM308.60703 313.21564Q308.60703 315.325 309.10703 316.02814Q309.60703 316.73126 310.32578 316.73126Q311.06015 316.73126 311.54453 316.02814Q312.04453 315.325 312.04453 313.21564Q312.04453 311.09064 311.54453 310.40314Q311.06015 309.7 310.31015 309.7Q309.5914 309.7 309.1539 310.3094Q308.60703 311.09064 308.60703 313.21564ZM314.5289 313.21564Q314.5289 311.6844 314.8414 310.7625Q315.1539 309.825 315.76328 309.325Q316.38828 308.825 317.32578 308.825Q318.01328 308.825 318.5289 309.10626Q319.06015 309.3875 319.4039 309.91876Q319.74765 310.4344 319.93515 311.1844Q320.12265 311.9344 320.12265 313.21564Q320.12265 314.73126 319.81015 315.65314Q319.51328 316.575 318.88828 317.09064Q318.2789 317.59064 317.32578 317.59064Q316.0914 317.59064 315.37265 316.7Q314.5289 315.6375 314.5289 313.21564ZM315.60703 313.21564Q315.60703 315.325 316.10703 316.02814Q316.60703 316.73126 317.32578 316.73126Q318.06015 316.73126 318.54453 316.02814Q319.04453 315.325 319.04453 313.21564Q319.04453 311.09064 318.54453 310.40314Q318.06015 309.7 317.31015 309.7Q316.5914 309.7 316.1539 310.3094Q315.60703 311.09064 315.60703 313.21564Z" fill-rule="nonzero"/><path fill="#000000" d="M421.2056 315.1844L422.2681 315.04376Q422.43997 315.9344 422.87747 316.34064Q423.31497 316.73126 423.93997 316.73126Q424.68997 316.73126 425.2056 316.21564Q425.72122 315.7 425.72122 314.9344Q425.72122 314.21564 425.23685 313.7469Q424.7681 313.2625 424.03372 313.2625Q423.73685 313.2625 423.28372 313.3875L423.40872 312.45Q423.5181 312.46564 423.5806 312.46564Q424.25247 312.46564 424.78372 312.1219Q425.3306 311.7625 425.3306 311.02814Q425.3306 310.45 424.93997 310.075Q424.54935 309.6844 423.92435 309.6844Q423.31497 309.6844 422.8931 310.075Q422.48685 310.46564 422.37747 311.23126L421.31497 311.04376Q421.50247 309.9969 422.18997 309.41876Q422.87747 308.825 423.8931 308.825Q424.59622 308.825 425.18997 309.1375Q425.78372 309.4344 426.09622 309.95Q426.40872 310.46564 426.40872 311.0594Q426.40872 311.60626 426.11185 312.075Q425.81497 312.52814 425.23685 312.79376Q425.98685 312.96564 426.40872 313.52814Q426.8306 314.075 426.8306 314.91876Q426.8306 316.04376 426.00247 316.825Q425.18997 317.60626 423.93997 317.60626Q422.81497 317.60626 422.06497 316.9344Q421.31497 316.2469 421.2056 315.1844ZM428.2056 313.21564Q428.2056 311.6844 428.5181 310.7625Q428.8306 309.825 429.43997 309.325Q430.06497 308.825 431.00247 308.825Q431.68997 308.825 432.2056 309.10626Q432.73685 309.3875 433.0806 309.91876Q433.42435 310.4344 433.61185 311.1844Q433.79935 311.9344 433.79935 313.21564Q433.79935 314.73126 433.48685 315.65314Q433.18997 316.575 432.56497 317.09064Q431.9556 317.59064 431.00247 317.59064Q429.7681 317.59064 429.04935 316.7Q428.2056 315.6375 428.2056 313.21564ZM429.28372 313.21564Q429.28372 315.325 429.78372 316.02814Q430.28372 316.73126 431.00247 316.73126Q431.73685 316.73126 432.22122 316.02814Q432.72122 315.325 432.72122 313.21564Q432.72122 311.09064 432.22122 310.40314Q431.73685 309.7 430.98685 309.7Q430.2681 309.7 429.8306 310.3094Q429.28372 311.09064 429.28372 313.21564ZM435.2056 313.21564Q435.2056 311.6844 435.5181 310.7625Q435.8306 309.825 436.43997 309.325Q437.06497 308.825 438.00247 308.825Q438.68997 308.825 439.2056 309.10626Q439.73685 309.3875 440.0806 309.91876Q440.42435 310.4344 440.61185 311.1844Q440.79935 311.9344 440.79935 313.21564Q440.79935 314.73126 440.48685 315.65314Q440.18997 316.575 439.56497 317.09064Q438.9556 317.59064 438.00247 317.59064Q436.7681 317.59064 436.04935 316.7Q435.2056 315.6375 435.2056 313.21564ZM436.28372 313.21564Q436.28372 315.325 436.78372 316.02814Q437.28372 316.73126 438.00247 316.73126Q438.73685 316.73126 439.22122 316.02814Q439.72122 315.325 439.72122 313.21564Q439.72122 311.09064 439.22122 310.40314Q438.73685 309.7 437.98685 309.7Q437.2681 309.7 436.8306 310.3094Q436.28372 311.09064 436.28372 313.21564ZM442.2056 313.21564Q442.2056 311.6844 442.5181 310.7625Q442.8306 309.825 443.43997 309.325Q444.06497 308.825 445.00247 308.825Q445.68997 308.825 446.2056 309.10626Q446.73685 309.3875 447.0806 309.91876Q447.42435 310.4344 447.61185 311.1844Q447.79935 311.9344 447.79935 313.21564Q447.79935 314.73126 447.48685 315.65314Q447.18997 316.575 446.56497 317.09064Q445.9556 317.59064 445.00247 317.59064Q443.7681 317.59064 443.04935 316.7Q442.2056 315.6375 442.2056 313.21564ZM443.28372 313.21564Q443.28372 315.325 443.78372 316.02814Q444.28372 316.73126 445.00247 316.73126Q445.73685 316.73126 446.22122 316.02814Q446.72122 315.325 446.72122 313.21564Q446.72122 311.09064 446.22122 310.40314Q445.73685 309.7 444.98685 309.7Q444.2681 309.7 443.8306 310.3094Q443.28372 311.09064 443.28372 313.21564Z" fill-rule="nonzero"/><path fill="#000000" d="M552.25726 317.45L552.25726 315.3875L548.5385 315.3875L548.5385 314.41876L552.4604 308.85626L553.31976 308.85626L553.31976 314.41876L554.476 314.41876L554.476 315.3875L553.31976 315.3875L553.31976 317.45L552.25726 317.45ZM552.25726 314.41876L552.25726 310.5594L549.56976 314.41876L552.25726 314.41876ZM555.88226 313.21564Q555.88226 311.6844 556.19476 310.7625Q556.50726 309.825 557.11664 309.325Q557.74164 308.825 558.67914 308.825Q559.36664 308.825 559.88226 309.10626Q560.4135 309.3875 560.75726 309.91876Q561.101 310.4344 561.2885 311.1844Q561.476 311.9344 561.476 313.21564Q561.476 314.73126 561.1635 315.65314Q560.86664 316.575 560.24164 317.09064Q559.63226 317.59064 558.67914 317.59064Q557.44476 317.59064 556.726 316.7Q555.88226 315.6375 555.88226 313.21564ZM556.9604 313.21564Q556.9604 315.325 557.4604 316.02814Q557.9604 316.73126 558.67914 316.73126Q559.4135 316.73126 559.8979 316.02814Q560.3979 315.325 560.3979 313.21564Q560.3979 311.09064 559.8979 310.40314Q559.4135 309.7 558.6635 309.7Q557.94476 309.7 557.50726 310.3094Q556.9604 311.09064 556.9604 313.21564ZM562.88226 313.21564Q562.88226 311.6844 563.19476 310.7625Q563.50726 309.825 564.11664 309.325Q564.74164 308.825 565.67914 308.825Q566.36664 308.825 566.88226 309.10626Q567.4135 309.3875 567.75726 309.91876Q568.101 310.4344 568.2885 311.1844Q568.476 311.9344 568.476 313.21564Q568.476 314.73126 568.1635 315.65314Q567.86664 316.575 567.24164 317.09064Q566.63226 317.59064 565.67914 317.59064Q564.44476 317.59064 563.726 316.7Q562.88226 315.6375 562.88226 313.21564ZM563.9604 313.21564Q563.9604 315.325 564.4604 316.02814Q564.9604 316.73126 565.67914 316.73126Q566.4135 316.73126 566.8979 316.02814Q567.3979 315.325 567.3979 313.21564Q567.3979 311.09064 566.8979 310.40314Q566.4135 309.7 565.6635 309.7Q564.94476 309.7 564.50726 310.3094Q563.9604 311.09064 563.9604 313.21564ZM569.88226 313.21564Q569.88226 311.6844 570.19476 310.7625Q570.50726 309.825 571.11664 309.325Q571.74164 308.825 572.67914 308.825Q573.36664 308.825 573.88226 309.10626Q574.4135 309.3875 574.75726 309.91876Q575.101 310.4344 575.2885 311.1844Q575.476 311.9344 575.476 313.21564Q575.476 314.73126 575.1635 315.65314Q574.86664 316.575 574.24164 317.09064Q573.63226 317.59064 572.67914 317.59064Q571.44476 317.59064 570.726 316.7Q569.88226 315.6375 569.88226 313.21564ZM570.9604 313.21564Q570.9604 315.325 571.4604 316.02814Q571.9604 316.73126 572.67914 316.73126Q573.4135 316.73126 573.8979 316.02814Q574.3979 315.325 574.3979 313.21564Q574.3979 311.09064 573.8979 310.40314Q573.4135 309.7 572.6635 309.7Q571.94476 309.7 571.50726 310.3094Q570.9604 311.09064 570.9604 313.21564Z" fill-rule="nonzero"/><path fill="#757575" d="M18.51875 37.55L24.01875 23.2375L26.065624 23.2375L31.925 37.55L29.76875 37.55L28.096874 33.20625L22.1125 33.20625L20.534374 37.55L18.51875 37.55ZM22.659374 31.675L27.503124 31.675L26.01875 27.70625Q25.33125 25.89375 25.003124 24.7375Q24.721874 26.1125 24.221874 27.471874L22.659374 31.675ZM35.753124 37.55L31.8 27.175L33.659374 27.175L35.89375 33.39375Q36.253124 34.39375 36.55 35.471874Q36.784374 34.659374 37.20625 33.503124L39.503124 27.175L41.315624 27.175L37.39375 37.55L35.753124 37.55ZM48.971874 34.20625L50.784374 34.440624Q50.3625 36.01875 49.190624 36.909374Q48.034374 37.784374 46.221874 37.784374Q43.95625 37.784374 42.6125 36.39375Q41.284374 34.9875 41.284374 32.45625Q41.284374 29.83125 42.628124 28.39375Q43.971874 26.940624 46.128124 26.940624Q48.20625 26.940624 49.51875 28.3625Q50.846874 29.76875 50.846874 32.346874Q50.846874 32.503124 50.83125 32.815624L43.096874 32.815624Q43.190624 34.51875 44.065624 35.425Q44.940624 36.33125 46.2375 36.33125Q47.20625 36.33125 47.878124 35.83125Q48.565624 35.315624 48.971874 34.20625ZM43.190624 31.3625L48.9875 31.3625Q48.878124 30.065624 48.33125 29.409374Q47.4875 28.39375 46.14375 28.39375Q44.940624 28.39375 44.1125 29.20625Q43.284374 30.003124 43.190624 31.3625ZM52.846874 37.55L52.846874 27.175L54.425 27.175L54.425 28.753124Q55.034374 27.64375 55.55 27.3Q56.065624 26.940624 56.675 26.940624Q57.565624 26.940624 58.4875 27.503124L57.878124 29.14375Q57.2375 28.753124 56.596874 28.753124Q56.01875 28.753124 55.55 29.1125Q55.096874 29.45625 54.89375 30.065624Q54.6125 31.003124 54.6125 32.1125L54.6125 37.55L52.846874 37.55ZM66.64375 36.26875Q65.65938 37.096874 64.75313 37.440624Q63.846874 37.784374 62.815624 37.784374Q61.1125 37.784374 60.190624 36.95625Q59.26875 36.1125 59.26875 34.815624Q59.26875 34.05 59.6125 33.425Q59.971874 32.8 60.534374 32.425Q61.096874 32.034374 61.8 31.83125Q62.315624 31.70625 63.3625 31.565624Q65.4875 31.315624 66.4875 30.971874Q66.50313 30.6125 66.50313 30.503124Q66.50313 29.440624 66.00313 28.9875Q65.33125 28.39375 64.00313 28.39375Q62.753124 28.39375 62.159374 28.83125Q61.58125 29.26875 61.3 30.378124L59.58125 30.14375Q59.815624 29.034374 60.346874 28.3625Q60.878124 27.675 61.89375 27.315624Q62.909374 26.940624 64.25313 26.940624Q65.58125 26.940624 66.40938 27.253124Q67.2375 27.565624 67.62813 28.05Q68.01875 28.51875 68.175 29.2375Q68.26875 29.690624 68.26875 30.8625L68.26875 33.20625Q68.26875 35.659374 68.37813 36.315624Q68.4875 36.95625 68.83125 37.55L66.9875 37.55Q66.72188 37.003124 66.64375 36.26875ZM66.4875 32.346874Q65.53438 32.7375 63.6125 33.003124Q62.534374 33.159374 62.08125 33.3625Q61.64375 33.55 61.39375 33.925Q61.14375 34.3 61.14375 34.76875Q61.14375 35.471874 61.675 35.940624Q62.20625 36.409374 63.2375 36.409374Q64.25313 36.409374 65.03438 35.971874Q65.83125 35.51875 66.20625 34.753124Q66.4875 34.14375 66.4875 32.9875L66.4875 32.346874ZM70.55 38.409374L72.25313 38.659374Q72.3625 39.45625 72.84688 39.815624Q73.50313 40.3 74.64375 40.3Q75.8625 40.3 76.51875 39.815624Q77.19063 39.33125 77.425 38.45625Q77.56563 37.909374 77.55 36.190624Q76.39375 37.55 74.675 37.55Q72.53438 37.55 71.3625 36.003124Q70.19063 34.45625 70.19063 32.3Q70.19063 30.815624 70.72188 29.565624Q71.26875 28.315624 72.28438 27.628124Q73.31563 26.940624 74.69063 26.940624Q76.51875 26.940624 77.72188 28.425L77.72188 27.175L79.33125 27.175L79.33125 36.14375Q79.33125 38.565624 78.83125 39.565624Q78.34688 40.58125 77.26875 41.159374Q76.20625 41.753124 74.64375 41.753124Q72.8 41.753124 71.64375 40.925Q70.50313 40.096874 70.55 38.409374ZM72.00313 32.175Q72.00313 34.221874 72.81563 35.159374Q73.62813 36.096874 74.84688 36.096874Q76.05 36.096874 76.8625 35.159374Q77.69063 34.221874 77.69063 32.2375Q77.69063 30.33125 76.84688 29.3625Q76.00313 28.39375 74.81563 28.39375Q73.64375 28.39375 72.81563 29.346874Q72.00313 30.3 72.00313 32.175ZM88.97188 34.20625L90.78438 34.440624Q90.3625 36.01875 89.19063 36.909374Q88.03438 37.784374 86.22188 37.784374Q83.95625 37.784374 82.6125 36.39375Q81.28438 34.9875 81.28438 32.45625Q81.28438 29.83125 82.62813 28.39375Q83.97188 26.940624 86.12813 26.940624Q88.20625 26.940624 89.51875 28.3625Q90.84688 29.76875 90.84688 32.346874Q90.84688 32.503124 90.83125 32.815624L83.09688 32.815624Q83.19063 34.51875 84.06563 35.425Q84.94063 36.33125 86.2375 36.33125Q87.20625 36.33125 87.87813 35.83125Q88.56563 35.315624 88.97188 34.20625ZM83.19063 31.3625L88.9875 31.3625Q88.87813 30.065624 88.33125 29.409374Q87.4875 28.39375 86.14375 28.39375Q84.94063 28.39375 84.1125 29.20625Q83.28438 30.003124 83.19063 31.3625ZM99.08125 37.55L99.08125 23.2375L101.01875 23.2375L108.53438 34.471874L108.53438 23.2375L110.34688 23.2375L110.34688 37.55L108.40938 37.55L100.89375 26.3L100.89375 37.55L99.08125 37.55ZM111.22188 32.3625Q111.22188 29.4875 112.81563 28.096874Q114.15938 26.940624 116.08125 26.940624Q118.22188 26.940624 119.56563 28.346874Q120.925 29.753124 120.925 32.221874Q120.925 34.221874 120.33125 35.378124Q119.7375 36.51875 118.58125 37.159374Q117.44063 37.784374 116.08125 37.784374Q113.89375 37.784374 112.55 36.39375Q111.22188 34.9875 111.22188 32.3625ZM113.01875 32.3625Q113.01875 34.3625 113.87813 35.346874Q114.75313 36.33125 116.08125 36.33125Q117.39375 36.33125 118.25313 35.346874Q119.12813 34.346874 119.12813 32.3Q119.12813 30.378124 118.25313 29.39375Q117.37813 28.39375 116.08125 28.39375Q114.75313 28.39375 113.87813 29.39375Q113.01875 30.378124 113.01875 32.3625ZM122.84688 37.55L122.84688 27.175L124.425 27.175L124.425 28.753124Q125.03438 27.64375 125.55 27.3Q126.06563 26.940624 126.675 26.940624Q127.56563 26.940624 128.4875 27.503124L127.87813 29.14375Q127.2375 28.753124 126.59688 28.753124Q126.01875 28.753124 125.55 29.1125Q125.09688 29.45625 124.89375 30.065624Q124.6125 31.003124 124.6125 32.1125L124.6125 37.55L122.84688 37.55ZM129.8625 37.55L129.8625 27.175L131.44063 27.175L131.44063 28.628124Q131.925 27.878124 132.7375 27.409374Q133.55 26.940624 134.58125 26.940624Q135.7375 26.940624 136.47188 27.425Q137.20625 27.89375 137.51875 28.753124Q138.75313 26.940624 140.72188 26.940624Q142.26875 26.940624 143.09688 27.8Q143.925 28.659374 143.925 30.425L143.925 37.55L142.175 37.55L142.175 31.01875Q142.175 29.95625 142.00313 29.503124Q141.83125 29.034374 141.37813 28.753124Q140.94063 28.471874 140.33125 28.471874Q139.2375 28.471874 138.50313 29.20625Q137.78438 29.925 137.78438 31.51875L137.78438 37.55L136.03438 37.55L136.03438 30.815624Q136.03438 29.64375 135.59688 29.065624Q135.175 28.471874 134.19063 28.471874Q133.45625 28.471874 132.81563 28.8625Q132.19063 29.253124 131.90938 30.003124Q131.62813 30.753124 131.62813 32.175L131.62813 37.55L129.8625 37.55ZM152.64375 36.26875Q151.65938 37.096874 150.75313 37.440624Q149.84688 37.784374 148.81563 37.784374Q147.1125 37.784374 146.19063 36.95625Q145.26875 36.1125 145.26875 34.815624Q145.26875 34.05 145.6125 33.425Q145.97188 32.8 146.53438 32.425Q147.09688 32.034374 147.8 31.83125Q148.31563 31.70625 149.3625 31.565624Q151.4875 31.315624 152.4875 30.971874Q152.50313 30.6125 152.50313 30.503124Q152.50313 29.440624 152.00313 28.9875Q151.33125 28.39375 150.00313 28.39375Q148.75313 28.39375 148.15938 28.83125Q147.58125 29.26875 147.3 30.378124L145.58125 30.14375Q145.81563 29.034374 146.34688 28.3625Q146.87813 27.675 147.89375 27.315624Q148.90938 26.940624 150.25313 26.940624Q151.58125 26.940624 152.40938 27.253124Q153.2375 27.565624 153.62813 28.05Q154.01875 28.51875 154.175 29.2375Q154.26875 29.690624 154.26875 30.8625L154.26875 33.20625Q154.26875 35.659374 154.37813 36.315624Q154.4875 36.95625 154.83125 37.55L152.9875 37.55Q152.72188 37.003124 152.64375 36.26875ZM152.4875 32.346874Q151.53438 32.7375 149.6125 33.003124Q148.53438 33.159374 148.08125 33.3625Q147.64375 33.55 147.39375 33.925Q147.14375 34.3 147.14375 34.76875Q147.14375 35.471874 147.675 35.940624Q148.20625 36.409374 149.2375 36.409374Q150.25313 36.409374 151.03438 35.971874Q151.83125 35.51875 152.20625 34.753124Q152.4875 34.14375 152.4875 32.9875L152.4875 32.346874ZM156.83125 37.55L156.83125 23.2375L158.58125 23.2375L158.58125 37.55L156.83125 37.55ZM160.87813 25.253124L160.87813 23.2375L162.64375 23.2375L162.64375 25.253124L160.87813 25.253124ZM160.87813 37.55L160.87813 27.175L162.64375 27.175L162.64375 37.55L160.87813 37.55ZM163.94063 37.55L163.94063 36.128124L170.55 28.55Q169.425 28.596874 168.56563 28.596874L164.33125 28.596874L164.33125 27.175L172.81563 27.175L172.81563 28.346874L167.19063 34.925L166.1125 36.128124Q167.28438 36.034374 168.33125 36.034374L173.12813 36.034374L173.12813 37.55L163.94063 37.55ZM180.97188 34.20625L182.78438 34.440624Q182.3625 36.01875 181.19063 36.909374Q180.03438 37.784374 178.22188 37.784374Q175.95625 37.784374 174.6125 36.39375Q173.28438 34.9875 173.28438 32.45625Q173.28438 29.83125 174.62813 28.39375Q175.97188 26.940624 178.12813 26.940624Q180.20625 26.940624 181.51875 28.3625Q182.84688 29.76875 182.84688 32.346874Q182.84688 32.503124 182.83125 32.815624L175.09688 32.815624Q175.19063 34.51875 176.06563 35.425Q176.94063 36.33125 178.2375 36.33125Q179.20625 36.33125 179.87813 35.83125Q180.56563 35.315624 180.97188 34.20625ZM175.19063 31.3625L180.9875 31.3625Q180.87813 30.065624 180.33125 29.409374Q179.4875 28.39375 178.14375 28.39375Q176.94063 28.39375 176.1125 29.20625Q175.28438 30.003124 175.19063 31.3625ZM191.59688 37.55L191.59688 36.2375Q190.6125 37.784374 188.69063 37.784374Q187.45625 37.784374 186.40938 37.096874Q185.37813 36.409374 184.8 35.190624Q184.2375 33.971874 184.2375 32.378124Q184.2375 30.815624 184.75313 29.55Q185.26875 28.284374 186.3 27.6125Q187.34688 26.940624 188.6125 26.940624Q189.55 26.940624 190.28438 27.346874Q191.01875 27.7375 191.4875 28.3625L191.4875 23.2375L193.22188 23.2375L193.22188 37.55L191.59688 37.55ZM186.03438 32.378124Q186.03438 34.3625 186.87813 35.346874Q187.72188 36.33125 188.8625 36.33125Q190.01875 36.33125 190.81563 35.39375Q191.62813 34.45625 191.62813 32.51875Q191.62813 30.39375 190.8 29.39375Q189.9875 28.39375 188.78438 28.39375Q187.6125 28.39375 186.81563 29.3625Q186.03438 30.315624 186.03438 32.378124ZM202.09688 37.55L202.09688 23.2375L207.4875 23.2375Q208.925 23.2375 209.675 23.3625Q210.72188 23.55 211.44063 24.05Q212.15938 24.534374 212.58125 25.425Q213.01875 26.315624 213.01875 27.378124Q213.01875 29.20625 211.84688 30.471874Q210.69063 31.721874 207.65938 31.721874L203.9875 31.721874L203.9875 37.55L202.09688 37.55ZM203.9875 30.034374L207.69063 30.034374Q209.51875 30.034374 210.28438 29.3625Q211.06563 28.675 211.06563 27.425Q211.06563 26.534374 210.6125 25.89375Q210.15938 25.253124 209.425 25.05Q208.94063 24.925 207.64375 24.925L203.9875 24.925L203.9875 30.034374ZM221.97188 34.20625L223.78438 34.440624Q223.3625 36.01875 222.19063 36.909374Q221.03438 37.784374 219.22188 37.784374Q216.95625 37.784374 215.6125 36.39375Q214.28438 34.9875 214.28438 32.45625Q214.28438 29.83125 215.62813 28.39375Q216.97188 26.940624 219.12813 26.940624Q221.20625 26.940624 222.51875 28.3625Q223.84688 29.76875 223.84688 32.346874Q223.84688 32.503124 223.83125 32.815624L216.09688 32.815624Q216.19063 34.51875 217.06563 35.425Q217.94063 36.33125 219.2375 36.33125Q220.20625 36.33125 220.87813 35.83125Q221.56563 35.315624 221.97188 34.20625ZM216.19063 31.3625L221.9875 31.3625Q221.87813 30.065624 221.33125 29.409374Q220.4875 28.39375 219.14375 28.39375Q217.94063 28.39375 217.1125 29.20625Q216.28438 30.003124 216.19063 31.3625ZM225.84688 37.55L225.84688 27.175L227.425 27.175L227.425 28.753124Q228.03438 27.64375 228.55 27.3Q229.06563 26.940624 229.675 26.940624Q230.56563 26.940624 231.4875 27.503124L230.87813 29.14375Q230.2375 28.753124 229.59688 28.753124Q229.01875 28.753124 228.55 29.1125Q228.09688 29.45625 227.89375 30.065624Q227.6125 31.003124 227.6125 32.1125L227.6125 37.55L225.84688 37.55ZM233.28438 37.55L233.28438 28.55L231.7375 28.55L231.7375 27.175L233.28438 27.175L233.28438 26.08125Q233.28438 25.034374 233.47188 24.51875Q233.72188 23.83125 234.3625 23.409374Q235.00313 22.9875 236.15938 22.9875Q236.90938 22.9875 237.8 23.159374L237.53438 24.690624Q236.9875 24.596874 236.50313 24.596874Q235.70625 24.596874 235.3625 24.940624Q235.03438 25.284374 235.03438 26.221874L235.03438 27.175L237.06563 27.175L237.06563 28.55L235.03438 28.55L235.03438 37.55L233.28438 37.55ZM238.22188 32.3625Q238.22188 29.4875 239.81563 28.096874Q241.15938 26.940624 243.08125 26.940624Q245.22188 26.940624 246.56563 28.346874Q247.925 29.753124 247.925 32.221874Q247.925 34.221874 247.33125 35.378124Q246.7375 36.51875 245.58125 37.159374Q244.44063 37.784374 243.08125 37.784374Q240.89375 37.784374 239.55 36.39375Q238.22188 34.9875 238.22188 32.3625ZM240.01875 32.3625Q240.01875 34.3625 240.87813 35.346874Q241.75313 36.33125 243.08125 36.33125Q244.39375 36.33125 245.25313 35.346874Q246.12813 34.346874 246.12813 32.3Q246.12813 30.378124 245.25313 29.39375Q244.37813 28.39375 243.08125 28.39375Q241.75313 28.39375 240.87813 29.39375Q240.01875 30.378124 240.01875 32.3625ZM249.84688 37.55L249.84688 27.175L251.425 27.175L251.425 28.753124Q252.03438 27.64375 252.55 27.3Q253.06563 26.940624 253.675 26.940624Q254.56563 26.940624 255.4875 27.503124L254.87813 29.14375Q254.2375 28.753124 253.59688 28.753124Q253.01875 28.753124 252.55 29.1125Q252.09688 29.45625 251.89375 30.065624Q251.6125 31.003124 251.6125 32.1125L251.6125 37.55L249.84688 37.55ZM256.8625 37.55L256.8625 27.175L258.4406 27.175L258.4406 28.628124Q258.925 27.878124 259.7375 27.409374Q260.55 26.940624 261.58124 26.940624Q262.7375 26.940624 263.47186 27.425Q264.20624 27.89375 264.51874 28.753124Q265.7531 26.940624 267.72186 26.940624Q269.26874 26.940624 270.09686 27.8Q270.925 28.659374 270.925 30.425L270.925 37.55L269.175 37.55L269.175 31.01875Q269.175 29.95625 269.0031 29.503124Q268.83124 29.034374 268.3781 28.753124Q267.9406 28.471874 267.33124 28.471874Q266.2375 28.471874 265.5031 29.20625Q264.78436 29.925 264.78436 31.51875L264.78436 37.55L263.03436 37.55L263.03436 30.815624Q263.03436 29.64375 262.59686 29.065624Q262.175 28.471874 261.1906 28.471874Q260.45624 28.471874 259.8156 28.8625Q259.1906 29.253124 258.90936 30.003124Q258.6281 30.753124 258.6281 32.175L258.6281 37.55L256.8625 37.55ZM279.64374 36.26875Q278.65936 37.096874 277.7531 37.440624Q276.84686 37.784374 275.8156 37.784374Q274.1125 37.784374 273.1906 36.95625Q272.26874 36.1125 272.26874 34.815624Q272.26874 34.05 272.6125 33.425Q272.97186 32.8 273.53436 32.425Q274.09686 32.034374 274.8 31.83125Q275.3156 31.70625 276.3625 31.565624Q278.4875 31.315624 279.4875 30.971874Q279.5031 30.6125 279.5031 30.503124Q279.5031 29.440624 279.0031 28.9875Q278.33124 28.39375 277.0031 28.39375Q275.7531 28.39375 275.15936 28.83125Q274.58124 29.26875 274.3 30.378124L272.58124 30.14375Q272.8156 29.034374 273.34686 28.3625Q273.8781 27.675 274.89374 27.315624Q275.90936 26.940624 277.2531 26.940624Q278.58124 26.940624 279.40936 27.253124Q280.2375 27.565624 280.6281 28.05Q281.01874 28.51875 281.175 29.2375Q281.26874 29.690624 281.26874 30.8625L281.26874 33.20625Q281.26874 35.659374 281.3781 36.315624Q281.4875 36.95625 281.83124 37.55L279.9875 37.55Q279.72186 37.003124 279.64374 36.26875ZM279.4875 32.346874Q278.53436 32.7375 276.6125 33.003124Q275.53436 33.159374 275.08124 33.3625Q274.64374 33.55 274.39374 33.925Q274.14374 34.3 274.14374 34.76875Q274.14374 35.471874 274.675 35.940624Q275.20624 36.409374 276.2375 36.409374Q277.2531 36.409374 278.03436 35.971874Q278.83124 35.51875 279.20624 34.753124Q279.4875 34.14375 279.4875 32.9875L279.4875 32.346874ZM283.8625 37.55L283.8625 27.175L285.45624 27.175L285.45624 28.659374Q286.59686 26.940624 288.7531 26.940624Q289.6906 26.940624 290.47186 27.284374Q291.26874 27.6125 291.65936 28.159374Q292.05 28.70625 292.20624 29.45625Q292.3 29.95625 292.3 31.175L292.3 37.55L290.53436 37.55L290.53436 31.2375Q290.53436 30.159374 290.33124 29.628124Q290.1281 29.096874 289.59686 28.784374Q289.08124 28.471874 288.3781 28.471874Q287.2531 28.471874 286.4406 29.190624Q285.6281 29.89375 285.6281 31.878124L285.6281 37.55L283.8625 37.55ZM300.64374 33.753124L302.3625 33.971874Q302.08124 35.76875 300.90936 36.784374Q299.7531 37.784374 298.05 37.784374Q295.925 37.784374 294.6281 36.39375Q293.33124 35.003124 293.33124 32.409374Q293.33124 30.721874 293.8781 29.471874Q294.4406 28.20625 295.58124 27.58125Q296.72186 26.940624 298.0656 26.940624Q299.7531 26.940624 300.8156 27.8Q301.89374 28.659374 302.20624 30.221874L300.4875 30.4875Q300.2531 29.440624 299.6281 28.925Q299.0031 28.39375 298.1281 28.39375Q296.8 28.39375 295.97186 29.346874Q295.14374 30.3 295.14374 32.346874Q295.14374 34.440624 295.9406 35.39375Q296.7375 36.33125 298.03436 36.33125Q299.0656 36.33125 299.7531 35.70625Q300.45624 35.065624 300.64374 33.753124ZM310.97186 34.20625L312.78436 34.440624Q312.3625 36.01875 311.1906 36.909374Q310.03436 37.784374 308.22186 37.784374Q305.95624 37.784374 304.6125 36.39375Q303.28436 34.9875 303.28436 32.45625Q303.28436 29.83125 304.6281 28.39375Q305.97186 26.940624 308.1281 26.940624Q310.20624 26.940624 311.51874 28.3625Q312.84686 29.76875 312.84686 32.346874Q312.84686 32.503124 312.83124 32.815624L305.09686 32.815624Q305.1906 34.51875 306.0656 35.425Q306.9406 36.33125 308.2375 36.33125Q309.20624 36.33125 309.8781 35.83125Q310.5656 35.315624 310.97186 34.20625ZM305.1906 31.3625L310.9875 31.3625Q310.8781 30.065624 310.33124 29.409374Q309.4875 28.39375 308.14374 28.39375Q306.9406 28.39375 306.1125 29.20625Q305.28436 30.003124 305.1906 31.3625ZM323.7531 37.55L319.8 27.175L321.65936 27.175L323.89374 33.39375Q324.2531 34.39375 324.55 35.471874Q324.78436 34.659374 325.20624 33.503124L327.5031 27.175L329.3156 27.175L325.39374 37.55L323.7531 37.55ZM329.15936 34.45625L330.90936 34.175Q331.05 35.221874 331.72186 35.784374Q332.39374 36.33125 333.59686 36.33125Q334.8 36.33125 335.3781 35.846874Q335.97186 35.346874 335.97186 34.690624Q335.97186 34.096874 335.45624 33.753124Q335.09686 33.51875 333.65936 33.159374Q331.72186 32.659374 330.97186 32.315624Q330.2375 31.95625 329.84686 31.33125Q329.45624 30.690624 329.45624 29.925Q329.45624 29.2375 329.76874 28.64375Q330.09686 28.05 330.64374 27.659374Q331.05 27.3625 331.7531 27.159374Q332.47186 26.940624 333.28436 26.940624Q334.5031 26.940624 335.425 27.3Q336.34686 27.64375 336.78436 28.253124Q337.22186 28.846874 337.39374 29.846874L335.675 30.08125Q335.55 29.284374 334.9875 28.846874Q334.425 28.39375 333.40936 28.39375Q332.1906 28.39375 331.675 28.8Q331.15936 29.190624 331.15936 29.721874Q331.15936 30.065624 331.3781 30.346874Q331.58124 30.628124 332.05 30.815624Q332.3156 30.909374 333.59686 31.253124Q335.47186 31.753124 336.20624 32.08125Q336.9406 32.39375 337.3625 33.003124Q337.78436 33.596874 337.78436 34.503124Q337.78436 35.378124 337.26874 36.159374Q336.7531 36.940624 335.78436 37.3625Q334.8156 37.784374 333.59686 37.784374Q331.58124 37.784374 330.51874 36.940624Q329.45624 36.096874 329.15936 34.45625ZM346.03436 37.55L346.03436 23.2375L348.89374 23.2375L352.26874 33.3625Q352.7375 34.784374 352.95624 35.4875Q353.20624 34.70625 353.72186 33.190624L357.14374 23.2375L359.6906 23.2375L359.6906 37.55L357.8781 37.55L357.8781 25.565624L353.70624 37.55L352.0031 37.55L347.8625 25.3625L347.8625 37.55L346.03436 37.55ZM369.64374 36.26875Q368.65936 37.096874 367.7531 37.440624Q366.84686 37.784374 365.8156 37.784374Q364.1125 37.784374 363.1906 36.95625Q362.26874 36.1125 362.26874 34.815624Q362.26874 34.05 362.6125 33.425Q362.97186 32.8 363.53436 32.425Q364.09686 32.034374 364.8 31.83125Q365.3156 31.70625 366.3625 31.565624Q368.4875 31.315624 369.4875 30.971874Q369.5031 30.6125 369.5031 30.503124Q369.5031 29.440624 369.0031 28.9875Q368.33124 28.39375 367.0031 28.39375Q365.7531 28.39375 365.15936 28.83125Q364.58124 29.26875 364.3 30.378124L362.58124 30.14375Q362.8156 29.034374 363.34686 28.3625Q363.8781 27.675 364.89374 27.315624Q365.90936 26.940624 367.2531 26.940624Q368.58124 26.940624 369.40936 27.253124Q370.2375 27.565624 370.6281 28.05Q371.01874 28.51875 371.175 29.2375Q371.26874 29.690624 371.26874 30.8625L371.26874 33.20625Q371.26874 35.659374 371.3781 36.315624Q371.4875 36.95625 371.83124 37.55L369.9875 37.55Q369.72186 37.003124 369.64374 36.26875ZM369.4875 32.346874Q368.53436 32.7375 366.6125 33.003124Q365.53436 33.159374 365.08124 33.3625Q364.64374 33.55 364.39374 33.925Q364.14374 34.3 364.14374 34.76875Q364.14374 35.471874 364.675 35.940624Q365.20624 36.409374 366.2375 36.409374Q367.2531 36.409374 368.03436 35.971874Q368.83124 35.51875 369.20624 34.753124Q369.4875 34.14375 369.4875 32.9875L369.4875 32.346874ZM377.70624 35.971874L377.95624 37.534374Q377.22186 37.690624 376.6281 37.690624Q375.675 37.690624 375.14374 37.39375Q374.6281 37.08125 374.40936 36.596874Q374.1906 36.096874 374.1906 34.51875L374.1906 28.55L372.90936 28.55L372.90936 27.175L374.1906 27.175L374.1906 24.6125L375.9406 23.55L375.9406 27.175L377.70624 27.175L377.70624 28.55L375.9406 28.55L375.9406 34.6125Q375.9406 35.3625 376.03436 35.58125Q376.1281 35.784374 376.33124 35.925Q376.55 36.05 376.9406 36.05Q377.22186 36.05 377.70624 35.971874ZM379.84686 37.55L379.84686 27.175L381.425 27.175L381.425 28.753124Q382.03436 27.64375 382.55 27.3Q383.0656 26.940624 383.675 26.940624Q384.5656 26.940624 385.4875 27.503124L384.8781 29.14375Q384.2375 28.753124 383.59686 28.753124Q383.01874 28.753124 382.55 29.1125Q382.09686 29.45625 381.89374 30.065624Q381.6125 31.003124 381.6125 32.1125L381.6125 37.55L379.84686 37.55ZM386.8781 25.253124L386.8781 23.2375L388.64374 23.2375L388.64374 25.253124L386.8781 25.253124ZM386.8781 37.55L386.8781 27.175L388.64374 27.175L388.64374 37.55L386.8781 37.55ZM389.6906 37.55L393.4875 32.159374L389.9875 27.175L392.175 27.175L393.76874 29.6125Q394.22186 30.3 394.4875 30.76875Q394.925 30.128124 395.28436 29.628124L397.03436 27.175L399.1281 27.175L395.55 32.065624L399.40936 37.55L397.2531 37.55L395.1125 34.33125L394.55 33.45625L391.83124 37.55L389.6906 37.55ZM405.45624 32.95625L407.2375 32.8Q407.3625 33.8625 407.8156 34.55Q408.28436 35.2375 409.2531 35.675Q410.2375 36.096874 411.47186 36.096874Q412.55 36.096874 413.3781 35.784374Q414.20624 35.45625 414.6125 34.89375Q415.01874 34.33125 415.01874 33.659374Q415.01874 32.9875 414.6281 32.4875Q414.2375 31.9875 413.34686 31.64375Q412.76874 31.409374 410.78436 30.940624Q408.8156 30.471874 408.03436 30.05Q407.0031 29.51875 406.5031 28.721874Q406.0031 27.925 406.0031 26.940624Q406.0031 25.846874 406.6125 24.909374Q407.22186 23.971874 408.40936 23.4875Q409.59686 22.9875 411.03436 22.9875Q412.6281 22.9875 413.84686 23.503124Q415.0656 24.01875 415.70624 25.01875Q416.3625 26.003124 416.40936 27.26875L414.59686 27.409374Q414.45624 26.05 413.6125 25.3625Q412.76874 24.659374 411.1125 24.659374Q409.39374 24.659374 408.59686 25.3Q407.8156 25.925 407.8156 26.8Q407.8156 27.58125 408.3781 28.08125Q408.925 28.58125 411.2375 29.096874Q413.55 29.6125 414.40936 30.003124Q415.65936 30.58125 416.2531 31.471874Q416.84686 32.346874 416.84686 33.503124Q416.84686 34.64375 416.1906 35.659374Q415.53436 36.675 414.3 37.2375Q413.08124 37.8 411.55 37.8Q409.6125 37.8 408.3 37.2375Q406.9875 36.659374 406.2375 35.51875Q405.4875 34.378124 405.45624 32.95625ZM418.8781 25.253124L418.8781 23.2375L420.64374 23.2375L420.64374 25.253124L418.8781 25.253124ZM418.8781 37.55L418.8781 27.175L420.64374 27.175L420.64374 37.55L418.8781 37.55ZM421.9406 37.55L421.9406 36.128124L428.55 28.55Q427.425 28.596874 426.5656 28.596874L422.33124 28.596874L422.33124 27.175L430.8156 27.175L430.8156 28.346874L425.1906 34.925L424.1125 36.128124Q425.28436 36.034374 426.33124 36.034374L431.1281 36.034374L431.1281 37.55L421.9406 37.55ZM438.97186 34.20625L440.78436 34.440624Q440.3625 36.01875 439.1906 36.909374Q438.03436 37.784374 436.22186 37.784374Q433.95624 37.784374 432.6125 36.39375Q431.28436 34.9875 431.28436 32.45625Q431.28436 29.83125 432.6281 28.39375Q433.97186 26.940624 436.1281 26.940624Q438.20624 26.940624 439.51874 28.3625Q440.84686 29.76875 440.84686 32.346874Q440.84686 32.503124 440.83124 32.815624L433.09686 32.815624Q433.1906 34.51875 434.0656 35.425Q434.9406 36.33125 436.2375 36.33125Q437.20624 36.33125 437.8781 35.83125Q438.5656 35.315624 438.97186 34.20625ZM433.1906 31.3625L438.9875 31.3625Q438.8781 30.065624 438.33124 29.409374Q437.4875 28.39375 436.14374 28.39375Q434.9406 28.39375 434.1125 29.20625Q433.28436 30.003124 433.1906 31.3625ZM449.28436 37.55L449.28436 28.55L447.7375 28.55L447.7375 27.175L449.28436 27.175L449.28436 26.08125Q449.28436 25.034374 449.47186 24.51875Q449.72186 23.83125 450.3625 23.409374Q451.0031 22.9875 452.15936 22.9875Q452.90936 22.9875 453.8 23.159374L453.53436 24.690624Q452.9875 24.596874 452.5031 24.596874Q451.70624 24.596874 451.3625 24.940624Q451.03436 25.284374 451.03436 26.221874L451.03436 27.175L453.0656 27.175L453.0656 28.55L451.03436 28.55L451.03436 37.55L449.28436 37.55ZM454.22186 32.3625Q454.22186 29.4875 455.8156 28.096874Q457.15936 26.940624 459.08124 26.940624Q461.22186 26.940624 462.5656 28.346874Q463.925 29.753124 463.925 32.221874Q463.925 34.221874 463.33124 35.378124Q462.7375 36.51875 461.58124 37.159374Q460.4406 37.784374 459.08124 37.784374Q456.89374 37.784374 455.55 36.39375Q454.22186 34.9875 454.22186 32.3625ZM456.01874 32.3625Q456.01874 34.3625 456.8781 35.346874Q457.7531 36.33125 459.08124 36.33125Q460.39374 36.33125 461.2531 35.346874Q462.1281 34.346874 462.1281 32.3Q462.1281 30.378124 461.2531 29.39375Q460.3781 28.39375 459.08124 28.39375Q457.7531 28.39375 456.8781 29.39375Q456.01874 30.378124 456.01874 32.3625ZM465.84686 37.55L465.84686 27.175L467.425 27.175L467.425 28.753124Q468.03436 27.64375 468.55 27.3Q469.0656 26.940624 469.675 26.940624Q470.5656 26.940624 471.4875 27.503124L470.8781 29.14375Q470.2375 28.753124 469.59686 28.753124Q469.01874 28.753124 468.55 29.1125Q468.09686 29.45625 467.89374 30.065624Q467.6125 31.003124 467.6125 32.1125L467.6125 37.55L465.84686 37.55ZM478.45624 32.95625L480.2375 32.8Q480.3625 33.8625 480.8156 34.55Q481.28436 35.2375 482.2531 35.675Q483.2375 36.096874 484.47186 36.096874Q485.55 36.096874 486.3781 35.784374Q487.20624 35.45625 487.6125 34.89375Q488.01874 34.33125 488.01874 33.659374Q488.01874 32.9875 487.6281 32.4875Q487.2375 31.9875 486.34686 31.64375Q485.76874 31.409374 483.78436 30.940624Q481.8156 30.471874 481.03436 30.05Q480.0031 29.51875 479.5031 28.721874Q479.0031 27.925 479.0031 26.940624Q479.0031 25.846874 479.6125 24.909374Q480.22186 23.971874 481.40936 23.4875Q482.59686 22.9875 484.03436 22.9875Q485.6281 22.9875 486.84686 23.503124Q488.0656 24.01875 488.70624 25.01875Q489.3625 26.003124 489.40936 27.26875L487.59686 27.409374Q487.45624 26.05 486.6125 25.3625Q485.76874 24.659374 484.1125 24.659374Q482.39374 24.659374 481.59686 25.3Q480.8156 25.925 480.8156 26.8Q480.8156 27.58125 481.3781 28.08125Q481.925 28.58125 484.2375 29.096874Q486.55 29.6125 487.40936 30.003124Q488.65936 30.58125 489.2531 31.471874Q489.84686 32.346874 489.84686 33.503124Q489.84686 34.64375 489.1906 35.659374Q488.53436 36.675 487.3 37.2375Q486.08124 37.8 484.55 37.8Q482.6125 37.8 481.3 37.2375Q479.9875 36.659374 479.2375 35.51875Q478.4875 34.378124 478.45624 32.95625ZM492.40936 37.55L492.40936 23.2375L494.3156 23.2375L494.3156 37.55L492.40936 37.55ZM498.03436 37.55L498.03436 23.2375L500.89374 23.2375L504.26874 33.3625Q504.7375 34.784374 504.95624 35.4875Q505.20624 34.70625 505.72186 33.190624L509.14374 23.2375L511.6906 23.2375L511.6906 37.55L509.8781 37.55L509.8781 25.565624L505.70624 37.55L504.0031 37.55L499.8625 25.3625L499.8625 37.55L498.03436 37.55ZM515.09686 37.55L515.09686 23.2375L520.01874 23.2375Q521.6906 23.2375 522.58124 23.440624Q523.8 23.721874 524.675 24.45625Q525.8 25.425 526.3625 26.909374Q526.925 28.39375 526.925 30.315624Q526.925 31.940624 526.55 33.20625Q526.175 34.45625 525.5656 35.284374Q524.97186 36.1125 524.26874 36.596874Q523.5656 37.065624 522.5656 37.315624Q521.5656 37.55 520.2531 37.55L515.09686 37.55ZM516.9875 35.8625L520.05 35.8625Q521.45624 35.8625 522.2531 35.596874Q523.0656 35.33125 523.55 34.846874Q524.22186 34.175 524.59686 33.05Q524.97186 31.909374 524.97186 30.284374Q524.97186 28.034374 524.2375 26.83125Q523.5031 25.628124 522.4406 25.221874Q521.6906 24.925 520.0031 24.925L516.9875 24.925L516.9875 35.8625Z" fill-rule="nonzero"/></svg>