<svg version="1.1" viewBox="0.0 0.0 600.0 371.0" fill="none" stroke="none" stroke-linecap="square" stroke-miterlimit="10" width="600" height="371" xmlns:xlink="http://www.w3.org/1999/xlink" xmlns="http://www.w3.org/2000/svg"><path fill="#ffffff" d="M0 0L600.0 0L600.0 371.0L0 371.0L0 0Z" fill-rule="nonzero"/><path stroke="#cccccc" stroke-width="1.0" stroke-linecap="butt" d="M184.5 61.5L184.5 300.5" fill-rule="nonzero"/><path stroke="#cccccc" stroke-width="1.0" stroke-linecap="butt" d="M256.5 61.5L256.5 300.5" fill-rule="nonzero"/><path stroke="#cccccc" stroke-width="1.0" stroke-linecap="butt" d="M328.5 61.5L328.5 300.5" fill-rule="nonzero"/><path stroke="#cccccc" stroke-width="1.0" stroke-linecap="butt" d="M401.5 61.5L401.5 300.5" fill-rule="nonzero"/><path stroke="#cccccc" stroke-width="1.0" stroke-linecap="butt" d="M473.5 61.5L473.5 300.5" fill-rule="nonzero"/><path stroke="#cccccc" stroke-width="1.0" stroke-linecap="butt" d="M545.5 61.5L545.5 300.5" fill-rule="nonzero"/><path stroke="#333333" stroke-width="1.0" stroke-linecap="butt" d="M119.5 300.5L581.5 300.5" fill-rule="nonzero"/><path stroke="#cccccc" stroke-width="1.0" stroke-linecap="butt" d="M119.5 240.5L581.5 240.5" fill-rule="nonzero"/><path stroke="#cccccc" stroke-width="1.0" stroke-linecap="butt" d="M119.5 181.5L581.5 181.5" fill-rule="nonzero"/><path stroke="#cccccc" stroke-width="1.0" stroke-linecap="butt" d="M119.5 121.5L581.5 121.5" fill-rule="nonzero"/><path stroke="#cccccc" stroke-width="1.0" stroke-linecap="butt" d="M119.5 61.5L581.5 61.5" fill-rule="nonzero"/><clipPath id="id_0"><path d="M119.55 61.916668L581.45 61.916668L581.45 300.45L119.55 300.45L119.55 61.916668Z" clip-rule="nonzero"/></clipPath><path stroke="#4285f4" stroke-width="2.0" stroke-linecap="butt" clip-path="url(#id_0)" d="M126.34408 270.81305L140.80574 282.6471L169.7291 279.37726L227.57578 280.688L343.26917 283.83966L574.65594 72.24467" fill-rule="nonzero"/><path fill="#4285f4" clip-path="url(#id_0)" d="M130.84407 270.81305C130.84407 273.29834 128.82936 275.31305 126.34408 275.31305C123.858795 275.31305 121.84408 273.29834 121.84408 270.81305C121.84408 268.32776 123.858795 266.31305 126.34408 266.31305C128.82936 266.31305 130.84407 268.32776 130.84407 270.81305Z" fill-rule="nonzero"/><path fill="#4285f4" clip-path="url(#id_0)" d="M145.30574 282.6471C145.30574 285.1324 143.29103 287.1471 140.80574 287.1471C138.32047 287.1471 136.30574 285.1324 136.30574 282.6471C136.30574 280.16183 138.32047 278.1471 140.80574 278.1471C143.29103 278.1471 145.30574 280.16183 145.30574 282.6471Z" fill-rule="nonzero"/><path fill="#4285f4" clip-path="url(#id_0)" d="M174.2291 279.37726C174.2291 281.86255 172.21437 283.87726 169.7291 283.87726C167.2438 283.87726 165.2291 281.86255 165.2291 279.37726C165.2291 276.89197 167.2438 274.87726 169.7291 274.87726C172.21437 274.87726 174.2291 276.89197 174.2291 279.37726Z" fill-rule="nonzero"/><path fill="#4285f4" clip-path="url(#id_0)" d="M232.07578 280.688C232.07578 283.17328 230.06107 285.188 227.57578 285.188C225.0905 285.188 223.07578 283.17328 223.07578 280.688C223.07578 278.2027 225.0905 276.188 227.57578 276.188C230.06107 276.188 232.07578 278.2027 232.07578 280.688Z" fill-rule="nonzero"/><path fill="#4285f4" clip-path="url(#id_0)" d="M347.76917 283.83966C347.76917 286.32495 345.75446 288.33966 343.26917 288.33966C340.78387 288.33966 338.76917 286.32495 338.76917 283.83966C338.76917 281.3544 340.78387 279.33966 343.26917 279.33966C345.75446 279.33966 347.76917 281.3544 347.76917 283.83966Z" fill-rule="nonzero"/><path fill="#4285f4" clip-path="url(#id_0)" d="M579.15594 72.24467C579.15594 74.72995 577.14124 76.74467 574.65594 76.74467C572.17065 76.74467 570.15594 74.72995 570.15594 72.24467C570.15594 69.759384 572.17065 67.74467 574.65594 67.74467C577.14124 67.74467 579.15594 69.759384 579.15594 72.24467Z" fill-rule="nonzero"/><path fill="#000000" d="M335.375 347.59064L336.40625 347.4344Q336.5 348.0594 336.89062 348.3875Q337.29688 348.71564 338.03125 348.71564Q338.75 348.71564 339.09375 348.4344Q339.45312 348.1375 339.45312 347.73126Q339.45312 347.3719 339.14062 347.16876Q338.92188 347.02814 338.0625 346.8094Q336.90625 346.5125 336.45312 346.3094Q336.01562 346.09064 335.78125 345.71564Q335.54688 345.34064 335.54688 344.8719Q335.54688 344.46564 335.73438 344.10626Q335.92188 343.7469 336.25 343.5125Q336.5 343.34064 336.92188 343.21564Q337.34375 343.09064 337.84375 343.09064Q338.5625 343.09064 339.10938 343.3094Q339.67188 343.5125 339.9375 343.8719Q340.20312 344.23126 340.29688 344.825L339.26562 344.96564Q339.20312 344.4969 338.85938 344.23126Q338.53125 343.95 337.90625 343.95Q337.1875 343.95 336.875 344.2Q336.5625 344.4344 336.5625 344.7625Q336.5625 344.96564 336.6875 345.1219Q336.82812 345.29376 337.09375 345.40314Q337.25 345.46564 338.03125 345.66876Q339.15625 345.98126 339.59375 346.16876Q340.03125 346.35626 340.28125 346.71564Q340.53125 347.075 340.53125 347.6219Q340.53125 348.15314 340.21875 348.6219Q339.92188 349.075 339.34375 349.34064Q338.76562 349.59064 338.03125 349.59064Q336.8125 349.59064 336.17188 349.09064Q335.54688 348.575 335.375 347.59064ZM345.09375 348.5125L345.25 349.4344Q344.79688 349.52814 344.45312 349.52814Q343.875 349.52814 343.5625 349.35626Q343.25 349.16876 343.10938 348.8719Q342.98438 348.575 342.98438 347.6219L342.98438 344.04376L342.21875 344.04376L342.21875 343.23126L342.98438 343.23126L342.98438 341.6844L344.03125 341.0594L344.03125 343.23126L345.09375 343.23126L345.09375 344.04376L344.03125 344.04376L344.03125 347.6844Q344.03125 348.1375 344.07812 348.2625Q344.14062 348.3875 344.26562 348.46564Q344.39062 348.54376 344.625 348.54376Q344.8125 348.54376 345.09375 348.5125ZM345.78125 349.45L345.78125 343.23126L346.73438 343.23126L346.73438 344.16876Q347.09375 343.5125 347.39062 343.3094Q347.70312 343.09064 348.07812 343.09064Q348.60938 343.09064 349.15625 343.41876L348.79688 344.40314Q348.40625 344.16876 348.03125 344.16876Q347.67188 344.16876 347.39062 344.3875Q347.125 344.59064 347.01562 344.96564Q346.82812 345.52814 346.82812 346.1844L346.82812 349.45L345.78125 349.45ZM349.79688 342.075L349.79688 340.85626L350.85938 340.85626L350.85938 342.075L349.79688 342.075ZM349.79688 349.45L349.79688 343.23126L350.85938 343.23126L350.85938 349.45L349.79688 349.45ZM356.82812 349.45L356.82812 348.66876Q356.23438 349.59064 355.09375 349.59064Q354.34375 349.59064 353.71875 349.1844Q353.09375 348.7625 352.75 348.02814Q352.40625 347.29376 352.40625 346.34064Q352.40625 345.41876 352.71875 344.65314Q353.03125 343.8875 353.65625 343.4969Q354.28125 343.09064 355.04688 343.09064Q355.60938 343.09064 356.04688 343.325Q356.48438 343.5594 356.76562 343.9344L356.76562 340.85626L357.8125 340.85626L357.8125 349.45L356.82812 349.45ZM353.5 346.34064Q353.5 347.54376 354.0 348.1375Q354.5 348.71564 355.1875 348.71564Q355.875 348.71564 356.35938 348.15314Q356.84375 347.59064 356.84375 346.4344Q356.84375 345.15314 356.34375 344.5594Q355.85938 343.96564 355.14062 343.96564Q354.4375 343.96564 353.96875 344.54376Q353.5 345.10626 353.5 346.34064ZM364.04688 347.45L365.14062 347.575Q364.89062 348.52814 364.1875 349.0594Q363.48438 349.59064 362.40625 349.59064Q361.04688 349.59064 360.23438 348.7469Q359.4375 347.90314 359.4375 346.3875Q359.4375 344.825 360.25 343.96564Q361.0625 343.09064 362.34375 343.09064Q363.59375 343.09064 364.375 343.9344Q365.17188 344.77814 365.17188 346.325Q365.17188 346.41876 365.17188 346.60626L360.53125 346.60626Q360.59375 347.6375 361.10938 348.1844Q361.625 348.71564 362.40625 348.71564Q362.98438 348.71564 363.39062 348.41876Q363.8125 348.10626 364.04688 347.45ZM360.59375 345.7469L364.0625 345.7469Q364.0 344.95 363.67188 344.5594Q363.15625 343.95 362.35938 343.95Q361.625 343.95 361.125 344.4344Q360.64062 344.91876 360.59375 345.7469Z" fill-rule="nonzero"/><path fill="#000000" d="M28.784388 253.82396Q29.284388 254.41771 29.487513 254.96458Q29.690638 255.49583 29.690638 256.12085Q29.690638 257.1521 29.190638 257.69897Q28.690638 258.24585 27.909388 258.24585Q27.456263 258.24585 27.081263 258.04272Q26.690638 257.8396 26.471888 257.49585Q26.237513 257.1521 26.128138 256.73022Q26.034388 256.43335 25.956263 255.79271Q25.815638 254.52708 25.596888 253.91771Q25.378138 253.91771 25.331263 253.91771Q24.675013 253.91771 24.409388 254.21458Q24.065638 254.62083 24.065638 255.41771Q24.065638 256.1521 24.331263 256.51147Q24.581263 256.87085 25.237513 257.04272L25.096888 258.07397Q24.440638 257.93335 24.034388 257.60522Q23.628138 257.2771 23.409388 256.66772Q23.190638 256.05835 23.190638 255.26146Q23.190638 254.46458 23.378138 253.96458Q23.565638 253.46458 23.846888 253.23021Q24.128138 252.99583 24.565638 252.90208Q24.831263 252.85521 25.534388 252.85521L26.940638 252.85521Q28.409388 252.85521 28.800013 252.79271Q29.190638 252.71458 29.550013 252.51146L29.550013 253.62083Q29.221888 253.77708 28.784388 253.82396ZM26.425013 253.91771Q26.659388 254.49583 26.831263 255.63646Q26.925013 256.29272 27.050013 256.55835Q27.159388 256.82397 27.378138 256.98022Q27.596888 257.12085 27.878138 257.12085Q28.300013 257.12085 28.581263 256.80835Q28.862513 256.48022 28.862513 255.87083Q28.862513 255.26146 28.596888 254.79271Q28.331263 254.30833 27.862513 254.08958Q27.503138 253.91771 26.815638 253.91771L26.425013 253.91771ZM29.550013 249.16771L23.331263 251.52708L23.331263 250.41771L27.050013 249.07396Q27.659388 248.87083 28.300013 248.68333Q27.815638 248.54271 27.128138 248.29271L23.331263 246.90208L23.331263 245.82396L29.550013 248.18333L29.550013 249.16771ZM27.550013 241.63646L27.675013 240.54271Q28.628138 240.79271 29.159388 241.49583Q29.690638 242.19896 29.690638 243.27708Q29.690638 244.63646 28.846888 245.44896Q28.003138 246.24583 26.487513 246.24583Q24.925013 246.24583 24.065638 245.43333Q23.190638 244.62083 23.190638 243.33958Q23.190638 242.08958 24.034388 241.30833Q24.878138 240.51146 26.425013 240.51146Q26.518763 240.51146 26.706263 240.51146L26.706263 245.15208Q27.737513 245.08958 28.284388 244.57396Q28.815638 244.05833 28.815638 243.27708Q28.815638 242.69896 28.518763 242.29271Q28.206263 241.87083 27.550013 241.63646ZM25.846888 245.08958L25.846888 241.62083Q25.050013 241.68333 24.659388 242.01146Q24.050013 242.52708 24.050013 243.32396Q24.050013 244.05833 24.534388 244.55833Q25.018763 245.04271 25.846888 245.08958ZM29.550013 238.90208L23.331263 238.90208L23.331263 237.94896L24.268763 237.94896Q23.612513 237.58958 23.409388 237.29271Q23.190638 236.98021 23.190638 236.60521Q23.190638 236.07396 23.518763 235.52708L24.503138 235.88646Q24.268763 236.27708 24.268763 236.65208Q24.268763 237.01146 24.487513 237.29271Q24.690638 237.55833 25.065638 237.66771Q25.628138 237.85521 26.284388 237.85521L29.550013 237.85521L29.550013 238.90208ZM28.784388 230.82396Q29.284388 231.41771 29.487513 231.96458Q29.690638 232.49583 29.690638 233.12083Q29.690638 234.15208 29.190638 234.69896Q28.690638 235.24583 27.909388 235.24583Q27.456263 235.24583 27.081263 235.04271Q26.690638 234.83958 26.471888 234.49583Q26.237513 234.15208 26.128138 233.73021Q26.034388 233.43333 25.956263 232.79271Q25.815638 231.52708 25.596888 230.91771Q25.378138 230.91771 25.331263 230.91771Q24.675013 230.91771 24.409388 231.21458Q24.065638 231.62083 24.065638 232.41771Q24.065638 233.15208 24.331263 233.51146Q24.581263 233.87083 25.237513 234.04271L25.096888 235.07396Q24.440638 234.93333 24.034388 234.60521Q23.628138 234.27708 23.409388 233.66771Q23.190638 233.05833 23.190638 232.26146Q23.190638 231.46458 23.378138 230.96458Q23.565638 230.46458 23.846888 230.23021Q24.128138 229.99583 24.565638 229.90208Q24.831263 229.85521 25.534388 229.85521L26.940638 229.85521Q28.409388 229.85521 28.800013 229.79271Q29.190638 229.71458 29.550013 229.51146L29.550013 230.62083Q29.221888 230.77708 28.784388 230.82396ZM26.425013 230.91771Q26.659388 231.49583 26.831263 232.63646Q26.925013 233.29271 27.050013 233.55833Q27.159388 233.82396 27.378138 233.98021Q27.596888 234.12083 27.878138 234.12083Q28.300013 234.12083 28.581263 233.80833Q28.862513 233.48021 28.862513 232.87083Q28.862513 232.26146 28.596888 231.79271Q28.331263 231.30833 27.862513 231.08958Q27.503138 230.91771 26.815638 230.91771L26.425013 230.91771ZM30.065638 228.08958L30.221888 227.05833Q30.690638 226.99583 30.909388 226.69896Q31.206263 226.30833 31.206263 225.63646Q31.206263 224.90208 30.909388 224.51146Q30.612513 224.10521 30.096888 223.96458Q29.768763 223.87083 28.737513 223.88646Q29.550013 224.57396 29.550013 225.60521Q29.550013 226.88646 28.628138 227.58958Q27.690638 228.29271 26.409388 228.29271Q25.518763 228.29271 24.768763 227.98021Q24.003138 227.65208 23.596888 227.04271Q23.190638 226.43333 23.190638 225.60521Q23.190638 224.49583 24.081263 223.77708L23.331263 223.77708L23.331263 222.80833L28.706263 222.80833Q30.159388 222.80833 30.768763 223.10521Q31.378138 223.40208 31.721888 224.04271Q32.08126 224.68333 32.08126 225.62083Q32.08126 226.73021 31.581263 227.41771Q31.081263 228.10521 30.065638 228.08958ZM26.331263 227.21458Q27.550013 227.21458 28.112513 226.73021Q28.675013 226.24583 28.675013 225.51146Q28.675013 224.77708 28.112513 224.29271Q27.550013 223.79271 26.362513 223.79271Q25.221888 223.79271 24.643763 224.30833Q24.065638 224.80833 24.065638 225.52708Q24.065638 226.23021 24.643763 226.73021Q25.206263 227.21458 26.331263 227.21458ZM27.550013 216.63646L27.675013 215.54271Q28.628138 215.79271 29.159388 216.49583Q29.690638 217.19896 29.690638 218.27708Q29.690638 219.63646 28.846888 220.44896Q28.003138 221.24583 26.487513 221.24583Q24.925013 221.24583 24.065638 220.43333Q23.190638 219.62083 23.190638 218.33958Q23.190638 217.08958 24.034388 216.30833Q24.878138 215.51146 26.425013 215.51146Q26.518763 215.51146 26.706263 215.51146L26.706263 220.15208Q27.737513 220.08958 28.284388 219.57396Q28.815638 219.05833 28.815638 218.27708Q28.815638 217.69896 28.518763 217.29271Q28.206263 216.87083 27.550013 216.63646ZM25.846888 220.08958L25.846888 216.62083Q25.050013 216.68333 24.659388 217.01146Q24.050013 217.52708 24.050013 218.32396Q24.050013 219.05833 24.534388 219.55833Q25.018763 220.04271 25.846888 220.08958ZM29.550013 210.80833L20.956263 210.80833L20.956263 209.66771L28.534388 209.66771L28.534388 205.43333L29.550013 205.43333L29.550013 210.80833ZM29.550013 200.21458L29.550013 201.26146L22.831263 201.26146Q23.190638 201.65208 23.565638 202.27708Q23.925013 202.88646 24.096888 203.37083L23.081263 203.37083Q22.659388 202.49583 22.081263 201.83958Q21.487513 201.16771 20.925013 200.88646L20.925013 200.21458L29.550013 200.21458ZM29.550013 196.76146L20.956263 196.76146L20.956263 193.79271Q20.956263 192.79271 21.081263 192.26146Q21.253138 191.52708 21.690638 191.01146Q22.268763 190.32396 23.175013 189.99583Q24.065638 189.65208 25.206263 189.65208Q26.190638 189.65208 26.940638 189.88646Q27.690638 190.10521 28.190638 190.46458Q28.690638 190.82396 28.971888 191.26146Q29.253138 191.68333 29.409388 192.27708Q29.550013 192.87083 29.550013 193.65208L29.550013 196.76146ZM28.534388 195.62083L28.534388 193.79271Q28.534388 192.93333 28.378138 192.44896Q28.221888 191.96458 27.925013 191.68333Q27.534388 191.27708 26.846888 191.05833Q26.159388 190.82396 25.190638 190.82396Q23.846888 190.82396 23.128138 191.27708Q22.393763 191.71458 22.143763 192.33958Q21.971888 192.80833 21.971888 193.80833L21.971888 195.62083L28.534388 195.62083ZM29.550013 184.91771L20.956263 184.91771L20.956263 183.85521L29.550013 183.85521L29.550013 184.91771ZM26.440638 182.27708Q24.706263 182.27708 23.878138 181.32396Q23.190638 180.52708 23.190638 179.37083Q23.190638 178.08958 24.034388 177.27708Q24.862513 176.44896 26.346888 176.44896Q27.550013 176.44896 28.237513 176.80833Q28.925013 177.16771 29.315638 177.87083Q29.690638 178.55833 29.690638 179.37083Q29.690638 180.66771 28.862513 181.48021Q28.018763 182.27708 26.440638 182.27708ZM26.440638 181.19896Q27.628138 181.19896 28.221888 180.68333Q28.815638 180.15208 28.815638 179.37083Q28.815638 178.57396 28.221888 178.05833Q27.628138 177.54271 26.409388 177.54271Q25.253138 177.54271 24.659388 178.07396Q24.065638 178.58958 24.065638 179.37083Q24.065638 180.15208 24.659388 180.68333Q25.237513 181.19896 26.440638 181.19896ZM28.784388 170.82396Q29.284388 171.41771 29.487513 171.96458Q29.690638 172.49583 29.690638 173.12083Q29.690638 174.15208 29.190638 174.69896Q28.690638 175.24583 27.909388 175.24583Q27.456263 175.24583 27.081263 175.04271Q26.690638 174.83958 26.471888 174.49583Q26.237513 174.15208 26.128138 173.73021Q26.034388 173.43333 25.956263 172.79271Q25.815638 171.52708 25.596888 170.91771Q25.378138 170.91771 25.331263 170.91771Q24.675013 170.91771 24.409388 171.21458Q24.065638 171.62083 24.065638 172.41771Q24.065638 173.15208 24.331263 173.51146Q24.581263 173.87083 25.237513 174.04271L25.096888 175.07396Q24.440638 174.93333 24.034388 174.60521Q23.628138 174.27708 23.409388 173.66771Q23.190638 173.05833 23.190638 172.26146Q23.190638 171.46458 23.378138 170.96458Q23.565638 170.46458 23.846888 170.23021Q24.128138 169.99583 24.565638 169.90208Q24.831263 169.85521 25.534388 169.85521L26.940638 169.85521Q28.409388 169.85521 28.800013 169.79271Q29.190638 169.71458 29.550013 169.51146L29.550013 170.62083Q29.221888 170.77708 28.784388 170.82396ZM26.425013 170.91771Q26.659388 171.49583 26.831263 172.63646Q26.925013 173.29271 27.050013 173.55833Q27.159388 173.82396 27.378138 173.98021Q27.596888 174.12083 27.878138 174.12083Q28.300013 174.12083 28.581263 173.80833Q28.862513 173.48021 28.862513 172.87083Q28.862513 172.26146 28.596888 171.79271Q28.331263 171.30833 27.862513 171.08958Q27.503138 170.91771 26.815638 170.91771L26.425013 170.91771ZM29.550013 163.85521L28.768763 163.85521Q29.690638 164.44896 29.690638 165.58958Q29.690638 166.33958 29.284388 166.96458Q28.862513 167.58958 28.128138 167.93333Q27.393763 168.27708 26.440638 168.27708Q25.518763 168.27708 24.753138 167.96458Q23.987513 167.65208 23.596888 167.02708Q23.190638 166.40208 23.190638 165.63646Q23.190638 165.07396 23.425013 164.63646Q23.659388 164.19896 24.034388 163.91771L20.956263 163.91771L20.956263 162.87083L29.550013 162.87083L29.550013 163.85521ZM26.440638 167.18333Q27.643763 167.18333 28.237513 166.68333Q28.815638 166.18333 28.815638 165.49583Q28.815638 164.80833 28.253138 164.32396Q27.690638 163.83958 26.534388 163.83958Q25.253138 163.83958 24.659388 164.33958Q24.065638 164.82396 24.065638 165.54271Q24.065638 166.24583 24.643763 166.71458Q25.206263 167.18333 26.440638 167.18333ZM29.550013 157.88646L23.331263 157.88646L23.331263 156.94896L24.206263 156.94896Q23.737513 156.65208 23.471888 156.16771Q23.190638 155.68333 23.190638 155.05833Q23.190638 154.37083 23.471888 153.93333Q23.753138 153.48021 24.268763 153.30833Q23.190638 152.55833 23.190638 151.38646Q23.190638 150.44896 23.706263 149.96458Q24.206263 149.46458 25.284388 149.46458L29.550013 149.46458L29.550013 150.51146L25.628138 150.51146Q25.003138 150.51146 24.721888 150.62083Q24.440638 150.71458 24.268763 150.98021Q24.096888 151.24583 24.096888 151.62083Q24.096888 152.27708 24.534388 152.71458Q24.971888 153.13646 25.940638 153.13646L29.550013 153.13646L29.550013 154.19896L25.503138 154.19896Q24.800013 154.19896 24.456263 154.46458Q24.096888 154.71458 24.096888 155.29271Q24.096888 155.74583 24.331263 156.12083Q24.565638 156.49583 25.018763 156.66771Q25.471888 156.83958 26.315638 156.83958L29.550013 156.83958L29.550013 157.88646ZM22.175013 146.88646L20.956263 146.88646L20.956263 145.82396L22.175013 145.82396L22.175013 146.88646ZM29.550013 146.88646L23.331263 146.88646L23.331263 145.82396L29.550013 145.82396L29.550013 146.88646ZM27.690638 144.30833L27.534388 143.27708Q28.159388 143.18333 28.487513 142.79271Q28.815638 142.38646 28.815638 141.65208Q28.815638 140.93333 28.534388 140.58958Q28.237513 140.23021 27.831263 140.23021Q27.471888 140.23021 27.268763 140.54271Q27.128138 140.76146 26.909388 141.62083Q26.612513 142.77708 26.409388 143.23021Q26.190638 143.66771 25.815638 143.90208Q25.440638 144.13646 24.971888 144.13646Q24.565638 144.13646 24.206263 143.94896Q23.846888 143.76146 23.612513 143.43333Q23.440638 143.18333 23.315638 142.76146Q23.190638 142.33958 23.190638 141.83958Q23.190638 141.12083 23.409388 140.57396Q23.612513 140.01146 23.971888 139.74583Q24.331263 139.48021 24.925013 139.38646L25.065638 140.41771Q24.596888 140.48021 24.331263 140.82396Q24.050013 141.15208 24.050013 141.77708Q24.050013 142.49583 24.300013 142.80833Q24.534388 143.12083 24.862513 143.12083Q25.065638 143.12083 25.221888 142.99583Q25.393763 142.85521 25.503138 142.58958Q25.565638 142.43333 25.768763 141.65208Q26.081263 140.52708 26.268763 140.08958Q26.456263 139.65208 26.815638 139.40208Q27.175013 139.15208 27.721888 139.15208Q28.253138 139.15208 28.721888 139.46458Q29.175013 139.76146 29.440638 140.33958Q29.690638 140.91771 29.690638 141.65208Q29.690638 142.87083 29.190638 143.51146Q28.675013 144.13646 27.690638 144.30833ZM27.690638 137.30833L27.534388 136.27708Q28.159388 136.18333 28.487513 135.79271Q28.815638 135.38646 28.815638 134.65208Q28.815638 133.93333 28.534388 133.58958Q28.237513 133.23021 27.831263 133.23021Q27.471888 133.23021 27.268763 133.54271Q27.128138 133.76146 26.909388 134.62083Q26.612513 135.77708 26.409388 136.23021Q26.190638 136.66771 25.815638 136.90208Q25.440638 137.13646 24.971888 137.13646Q24.565638 137.13646 24.206263 136.94896Q23.846888 136.76146 23.612513 136.43333Q23.440638 136.18333 23.315638 135.76146Q23.190638 135.33958 23.190638 134.83958Q23.190638 134.12083 23.409388 133.57396Q23.612513 133.01146 23.971888 132.74583Q24.331263 132.48021 24.925013 132.38646L25.065638 133.41771Q24.596888 133.48021 24.331263 133.82396Q24.050013 134.15208 24.050013 134.77708Q24.050013 135.49583 24.300013 135.80833Q24.534388 136.12083 24.862513 136.12083Q25.065638 136.12083 25.221888 135.99583Q25.393763 135.85521 25.503138 135.58958Q25.565638 135.43333 25.768763 134.65208Q26.081263 133.52708 26.268763 133.08958Q26.456263 132.65208 26.815638 132.40208Q27.175013 132.15208 27.721888 132.15208Q28.253138 132.15208 28.721888 132.46458Q29.175013 132.76146 29.440638 133.33958Q29.690638 133.91771 29.690638 134.65208Q29.690638 135.87083 29.190638 136.51146Q28.675013 137.13646 27.690638 137.30833ZM27.550013 125.63646L27.675013 124.54271Q28.628138 124.79271 29.159388 125.495834Q29.690638 126.19896 29.690638 127.277084Q29.690638 128.63646 28.846888 129.44896Q28.003138 130.24583 26.487513 130.24583Q24.925013 130.24583 24.065638 129.43333Q23.190638 128.62083 23.190638 127.339584Q23.190638 126.089584 24.034388 125.308334Q24.878138 124.51146 26.425013 124.51146Q26.518763 124.51146 26.706263 124.51146L26.706263 129.15208Q27.737513 129.08958 28.284388 128.57396Q28.815638 128.05833 28.815638 127.277084Q28.815638 126.69896 28.518763 126.29271Q28.206263 125.870834 27.550013 125.63646ZM25.846888 129.08958L25.846888 125.620834Q25.050013 125.683334 24.659388 126.01146Q24.050013 126.527084 24.050013 127.32396Q24.050013 128.05833 24.534388 128.55833Q25.018763 129.04271 25.846888 129.08958ZM27.690638 123.308334L27.534388 122.277084Q28.159388 122.183334 28.487513 121.79271Q28.815638 121.38646 28.815638 120.652084Q28.815638 119.933334 28.534388 119.589584Q28.237513 119.23021 27.831263 119.23021Q27.471888 119.23021 27.268763 119.54271Q27.128138 119.76146 26.909388 120.620834Q26.612513 121.777084 26.409388 122.23021Q26.190638 122.66771 25.815638 122.902084Q25.440638 123.13646 24.971888 123.13646Q24.565638 123.13646 24.206263 122.94896Q23.846888 122.76146 23.612513 122.433334Q23.440638 122.183334 23.315638 121.76146Q23.190638 121.339584 23.190638 120.839584Q23.190638 120.120834 23.409388 119.57396Q23.612513 119.01146 23.971888 118.745834Q24.331263 118.48021 24.925013 118.38646L25.065638 119.41771Q24.596888 119.48021 24.331263 119.82396Q24.050013 120.152084 24.050013 120.777084Q24.050013 121.495834 24.300013 121.808334Q24.534388 122.120834 24.862513 122.120834Q25.065638 122.120834 25.221888 121.995834Q25.393763 121.85521 25.503138 121.589584Q25.565638 121.433334 25.768763 120.652084Q26.081263 119.527084 26.268763 119.089584Q26.456263 118.652084 26.815638 118.402084Q27.175013 118.152084 27.721888 118.152084Q28.253138 118.152084 28.721888 118.464584Q29.175013 118.76146 29.440638 119.339584Q29.690638 119.91771 29.690638 120.652084Q29.690638 121.870834 29.190638 122.51146Q28.675013 123.13646 27.690638 123.308334Z" fill-rule="nonzero"/><path fill="#000000" d="M107.05 300.21564Q107.05 298.6844 107.3625 297.7625Q107.675 296.825 108.28438 296.325Q108.90938 295.825 109.84688 295.825Q110.53438 295.825 111.05 296.10626Q111.58125 296.3875 111.925 296.91876Q112.26875 297.4344 112.45625 298.1844Q112.64375 298.9344 112.64375 300.21564Q112.64375 301.73126 112.33125 302.65314Q112.03438 303.575 111.40938 304.09064Q110.8 304.59064 109.84688 304.59064Q108.6125 304.59064 107.89375 303.7Q107.05 302.6375 107.05 300.21564ZM108.12813 300.21564Q108.12813 302.325 108.62813 303.02814Q109.12813 303.73126 109.84688 303.73126Q110.58125 303.73126 111.06563 303.02814Q111.56563 302.325 111.56563 300.21564Q111.56563 298.09064 111.06563 297.40314Q110.58125 296.7 109.83125 296.7Q109.1125 296.7 108.675 297.3094Q108.12813 298.09064 108.12813 300.21564Z" fill-rule="nonzero"/><path fill="#000000" d="M56.596874 243.80104L56.596874 244.81667L50.909374 244.81667Q50.909374 244.44167 51.034374 244.08229Q51.253124 243.50417 51.721874 242.94167Q52.20625 242.37917 53.1125 241.64479Q54.51875 240.48854 55.003124 239.81667Q55.503124 239.14479 55.503124 238.55104Q55.503124 237.92604 55.05 237.50417Q54.596874 237.06667 53.878124 237.06667Q53.1125 237.06667 52.659374 237.51979Q52.20625 237.97292 52.190624 238.78542L51.1125 238.67604Q51.221874 237.45729 51.940624 236.83229Q52.675 236.19167 53.909374 236.19167Q55.14375 236.19167 55.8625 236.87917Q56.58125 237.56667 56.58125 238.58229Q56.58125 239.09792 56.3625 239.59792Q56.159374 240.08229 55.659374 240.64479Q55.175 241.19167 54.05 242.14479Q53.096874 242.94167 52.815624 243.23854Q52.55 243.51979 52.378124 243.80104L56.596874 243.80104ZM58.05 240.58229Q58.05 239.05104 58.3625 238.12917Q58.675 237.19167 59.284374 236.69167Q59.909374 236.19167 60.846874 236.19167Q61.534374 236.19167 62.05 236.47292Q62.58125 236.75417 62.925 237.28542Q63.26875 237.80104 63.45625 238.55104Q63.64375 239.30104 63.64375 240.58229Q63.64375 242.09792 63.33125 243.01979Q63.034374 243.94167 62.409374 244.45729Q61.8 244.95729 60.846874 244.95729Q59.6125 244.95729 58.89375 244.06667Q58.05 243.00417 58.05 240.58229ZM59.128124 240.58229Q59.128124 242.69167 59.628124 243.39479Q60.128124 244.09792 60.846874 244.09792Q61.58125 244.09792 62.065624 243.39479Q62.565624 242.69167 62.565624 240.58229Q62.565624 238.45729 62.065624 237.76979Q61.58125 237.06667 60.83125 237.06667Q60.1125 237.06667 59.675 237.67604Q59.128124 238.45729 59.128124 240.58229ZM65.05 240.58229Q65.05 239.05104 65.3625 238.12917Q65.675 237.19167 66.28438 236.69167Q66.90938 236.19167 67.84688 236.19167Q68.53438 236.19167 69.05 236.47292Q69.58125 236.75417 69.925 237.28542Q70.26875 237.80104 70.45625 238.55104Q70.64375 239.30104 70.64375 240.58229Q70.64375 242.09792 70.33125 243.01979Q70.03438 243.94167 69.40938 244.45729Q68.8 244.95729 67.84688 244.95729Q66.6125 244.95729 65.89375 244.06667Q65.05 243.00417 65.05 240.58229ZM66.12813 240.58229Q66.12813 242.69167 66.62813 243.39479Q67.12813 244.09792 67.84688 244.09792Q68.58125 244.09792 69.06563 243.39479Q69.56563 242.69167 69.56563 240.58229Q69.56563 238.45729 69.06563 237.76979Q68.58125 237.06667 67.83125 237.06667Q67.1125 237.06667 66.675 237.67604Q66.12813 238.45729 66.12813 240.58229ZM72.05 240.58229Q72.05 239.05104 72.3625 238.12917Q72.675 237.19167 73.28438 236.69167Q73.90938 236.19167 74.84688 236.19167Q75.53438 236.19167 76.05 236.47292Q76.58125 236.75417 76.925 237.28542Q77.26875 237.80104 77.45625 238.55104Q77.64375 239.30104 77.64375 240.58229Q77.64375 242.09792 77.33125 243.01979Q77.03438 243.94167 76.40938 244.45729Q75.8 244.95729 74.84688 244.95729Q73.6125 244.95729 72.89375 244.06667Q72.05 243.00417 72.05 240.58229ZM73.12813 240.58229Q73.12813 242.69167 73.62813 243.39479Q74.12813 244.09792 74.84688 244.09792Q75.58125 244.09792 76.06563 243.39479Q76.56563 242.69167 76.56563 240.58229Q76.56563 238.45729 76.06563 237.76979Q75.58125 237.06667 74.83125 237.06667Q74.1125 237.06667 73.675 237.67604Q73.12813 238.45729 73.12813 240.58229ZM79.05 240.58229Q79.05 239.05104 79.3625 238.12917Q79.675 237.19167 80.28438 236.69167Q80.90938 236.19167 81.84688 236.19167Q82.53438 236.19167 83.05 236.47292Q83.58125 236.75417 83.925 237.28542Q84.26875 237.80104 84.45625 238.55104Q84.64375 239.30104 84.64375 240.58229Q84.64375 242.09792 84.33125 243.01979Q84.03438 243.94167 83.40938 244.45729Q82.8 244.95729 81.84688 244.95729Q80.6125 244.95729 79.89375 244.06667Q79.05 243.00417 79.05 240.58229ZM80.12813 240.58229Q80.12813 242.69167 80.62813 243.39479Q81.12813 244.09792 81.84688 244.09792Q82.58125 244.09792 83.06563 243.39479Q83.56563 242.69167 83.56563 240.58229Q83.56563 238.45729 83.06563 237.76979Q82.58125 237.06667 81.83125 237.06667Q81.1125 237.06667 80.675 237.67604Q80.12813 238.45729 80.12813 240.58229ZM86.05 240.58229Q86.05 239.05104 86.3625 238.12917Q86.675 237.19167 87.28438 236.69167Q87.90938 236.19167 88.84688 236.19167Q89.53438 236.19167 90.05 236.47292Q90.58125 236.75417 90.925 237.28542Q91.26875 237.80104 91.45625 238.55104Q91.64375 239.30104 91.64375 240.58229Q91.64375 242.09792 91.33125 243.01979Q91.03438 243.94167 90.40938 244.45729Q89.8 244.95729 88.84688 244.95729Q87.6125 244.95729 86.89375 244.06667Q86.05 243.00417 86.05 240.58229ZM87.12813 240.58229Q87.12813 242.69167 87.62813 243.39479Q88.12813 244.09792 88.84688 244.09792Q89.58125 244.09792 90.06563 243.39479Q90.56563 242.69167 90.56563 240.58229Q90.56563 238.45729 90.06563 237.76979Q89.58125 237.06667 88.83125 237.06667Q88.1125 237.06667 87.675 237.67604Q87.12813 238.45729 87.12813 240.58229ZM93.05 240.58229Q93.05 239.05104 93.3625 238.12917Q93.675 237.19167 94.28438 236.69167Q94.90938 236.19167 95.84688 236.19167Q96.53438 236.19167 97.05 236.47292Q97.58125 236.75417 97.925 237.28542Q98.26875 237.80104 98.45625 238.55104Q98.64375 239.30104 98.64375 240.58229Q98.64375 242.09792 98.33125 243.01979Q98.03438 243.94167 97.40938 244.45729Q96.8 244.95729 95.84688 244.95729Q94.6125 244.95729 93.89375 244.06667Q93.05 243.00417 93.05 240.58229ZM94.12813 240.58229Q94.12813 242.69167 94.62813 243.39479Q95.12813 244.09792 95.84688 244.09792Q96.58125 244.09792 97.06563 243.39479Q97.56563 242.69167 97.56563 240.58229Q97.56563 238.45729 97.06563 237.76979Q96.58125 237.06667 95.83125 237.06667Q95.1125 237.06667 94.675 237.67604Q94.12813 238.45729 94.12813 240.58229ZM100.05 240.58229Q100.05 239.05104 100.3625 238.12917Q100.675 237.19167 101.28438 236.69167Q101.90938 236.19167 102.84688 236.19167Q103.53438 236.19167 104.05 236.47292Q104.58125 236.75417 104.925 237.28542Q105.26875 237.80104 105.45625 238.55104Q105.64375 239.30104 105.64375 240.58229Q105.64375 242.09792 105.33125 243.01979Q105.03438 243.94167 104.40938 244.45729Q103.8 244.95729 102.84688 244.95729Q101.6125 244.95729 100.89375 244.06667Q100.05 243.00417 100.05 240.58229ZM101.12813 240.58229Q101.12813 242.69167 101.62813 243.39479Q102.12813 244.09792 102.84688 244.09792Q103.58125 244.09792 104.06563 243.39479Q104.56563 242.69167 104.56563 240.58229Q104.56563 238.45729 104.06563 237.76979Q103.58125 237.06667 102.83125 237.06667Q102.1125 237.06667 101.675 237.67604Q101.12813 238.45729 101.12813 240.58229ZM107.05 240.58229Q107.05 239.05104 107.3625 238.12917Q107.675 237.19167 108.28438 236.69167Q108.90938 236.19167 109.84688 236.19167Q110.53438 236.19167 111.05 236.47292Q111.58125 236.75417 111.925 237.28542Q112.26875 237.80104 112.45625 238.55104Q112.64375 239.30104 112.64375 240.58229Q112.64375 242.09792 112.33125 243.01979Q112.03438 243.94167 111.40938 244.45729Q110.8 244.95729 109.84688 244.95729Q108.6125 244.95729 107.89375 244.06667Q107.05 243.00417 107.05 240.58229ZM108.12813 240.58229Q108.12813 242.69167 108.62813 243.39479Q109.12813 244.09792 109.84688 244.09792Q110.58125 244.09792 111.06563 243.39479Q111.56563 242.69167 111.56563 240.58229Q111.56563 238.45729 111.06563 237.76979Q110.58125 237.06667 109.83125 237.06667Q109.1125 237.06667 108.675 237.67604Q108.12813 238.45729 108.12813 240.58229Z" fill-rule="nonzero"/><path fill="#000000" d="M54.425 185.18333L54.425 183.12083L50.70625 183.12083L50.70625 182.15208L54.628124 176.58958L55.4875 176.58958L55.4875 182.15208L56.64375 182.15208L56.64375 183.12083L55.4875 183.12083L55.4875 185.18333L54.425 185.18333ZM54.425 182.15208L54.425 178.29271L51.7375 182.15208L54.425 182.15208ZM58.05 180.94896Q58.05 179.41771 58.3625 178.49583Q58.675 177.55833 59.284374 177.05833Q59.909374 176.55833 60.846874 176.55833Q61.534374 176.55833 62.05 176.83958Q62.58125 177.12083 62.925 177.65208Q63.26875 178.16771 63.45625 178.91771Q63.64375 179.66771 63.64375 180.94896Q63.64375 182.46458 63.33125 183.38646Q63.034374 184.30833 62.409374 184.82396Q61.8 185.32396 60.846874 185.32396Q59.6125 185.32396 58.89375 184.43333Q58.05 183.37083 58.05 180.94896ZM59.128124 180.94896Q59.128124 183.05833 59.628124 183.76146Q60.128124 184.46458 60.846874 184.46458Q61.58125 184.46458 62.065624 183.76146Q62.565624 183.05833 62.565624 180.94896Q62.565624 178.82396 62.065624 178.13646Q61.58125 177.43333 60.83125 177.43333Q60.1125 177.43333 59.675 178.04271Q59.128124 178.82396 59.128124 180.94896ZM65.05 180.94896Q65.05 179.41771 65.3625 178.49583Q65.675 177.55833 66.28438 177.05833Q66.90938 176.55833 67.84688 176.55833Q68.53438 176.55833 69.05 176.83958Q69.58125 177.12083 69.925 177.65208Q70.26875 178.16771 70.45625 178.91771Q70.64375 179.66771 70.64375 180.94896Q70.64375 182.46458 70.33125 183.38646Q70.03438 184.30833 69.40938 184.82396Q68.8 185.32396 67.84688 185.32396Q66.6125 185.32396 65.89375 184.43333Q65.05 183.37083 65.05 180.94896ZM66.12813 180.94896Q66.12813 183.05833 66.62813 183.76146Q67.12813 184.46458 67.84688 184.46458Q68.58125 184.46458 69.06563 183.76146Q69.56563 183.05833 69.56563 180.94896Q69.56563 178.82396 69.06563 178.13646Q68.58125 177.43333 67.83125 177.43333Q67.1125 177.43333 66.675 178.04271Q66.12813 178.82396 66.12813 180.94896ZM72.05 180.94896Q72.05 179.41771 72.3625 178.49583Q72.675 177.55833 73.28438 177.05833Q73.90938 176.55833 74.84688 176.55833Q75.53438 176.55833 76.05 176.83958Q76.58125 177.12083 76.925 177.65208Q77.26875 178.16771 77.45625 178.91771Q77.64375 179.66771 77.64375 180.94896Q77.64375 182.46458 77.33125 183.38646Q77.03438 184.30833 76.40938 184.82396Q75.8 185.32396 74.84688 185.32396Q73.6125 185.32396 72.89375 184.43333Q72.05 183.37083 72.05 180.94896ZM73.12813 180.94896Q73.12813 183.05833 73.62813 183.76146Q74.12813 184.46458 74.84688 184.46458Q75.58125 184.46458 76.06563 183.76146Q76.56563 183.05833 76.56563 180.94896Q76.56563 178.82396 76.06563 178.13646Q75.58125 177.43333 74.83125 177.43333Q74.1125 177.43333 73.675 178.04271Q73.12813 178.82396 73.12813 180.94896ZM79.05 180.94896Q79.05 179.41771 79.3625 178.49583Q79.675 177.55833 80.28438 177.05833Q80.90938 176.55833 81.84688 176.55833Q82.53438 176.55833 83.05 176.83958Q83.58125 177.12083 83.925 177.65208Q84.26875 178.16771 84.45625 178.91771Q84.64375 179.66771 84.64375 180.94896Q84.64375 182.46458 84.33125 183.38646Q84.03438 184.30833 83.40938 184.82396Q82.8 185.32396 81.84688 185.32396Q80.6125 185.32396 79.89375 184.43333Q79.05 183.37083 79.05 180.94896ZM80.12813 180.94896Q80.12813 183.05833 80.62813 183.76146Q81.12813 184.46458 81.84688 184.46458Q82.58125 184.46458 83.06563 183.76146Q83.56563 183.05833 83.56563 180.94896Q83.56563 178.82396 83.06563 178.13646Q82.58125 177.43333 81.83125 177.43333Q81.1125 177.43333 80.675 178.04271Q80.12813 178.82396 80.12813 180.94896ZM86.05 180.94896Q86.05 179.41771 86.3625 178.49583Q86.675 177.55833 87.28438 177.05833Q87.90938 176.55833 88.84688 176.55833Q89.53438 176.55833 90.05 176.83958Q90.58125 177.12083 90.925 177.65208Q91.26875 178.16771 91.45625 178.91771Q91.64375 179.66771 91.64375 180.94896Q91.64375 182.46458 91.33125 183.38646Q91.03438 184.30833 90.40938 184.82396Q89.8 185.32396 88.84688 185.32396Q87.6125 185.32396 86.89375 184.43333Q86.05 183.37083 86.05 180.94896ZM87.12813 180.94896Q87.12813 183.05833 87.62813 183.76146Q88.12813 184.46458 88.84688 184.46458Q89.58125 184.46458 90.06563 183.76146Q90.56563 183.05833 90.56563 180.94896Q90.56563 178.82396 90.06563 178.13646Q89.58125 177.43333 88.83125 177.43333Q88.1125 177.43333 87.675 178.04271Q87.12813 178.82396 87.12813 180.94896ZM93.05 180.94896Q93.05 179.41771 93.3625 178.49583Q93.675 177.55833 94.28438 177.05833Q94.90938 176.55833 95.84688 176.55833Q96.53438 176.55833 97.05 176.83958Q97.58125 177.12083 97.925 177.65208Q98.26875 178.16771 98.45625 178.91771Q98.64375 179.66771 98.64375 180.94896Q98.64375 182.46458 98.33125 183.38646Q98.03438 184.30833 97.40938 184.82396Q96.8 185.32396 95.84688 185.32396Q94.6125 185.32396 93.89375 184.43333Q93.05 183.37083 93.05 180.94896ZM94.12813 180.94896Q94.12813 183.05833 94.62813 183.76146Q95.12813 184.46458 95.84688 184.46458Q96.58125 184.46458 97.06563 183.76146Q97.56563 183.05833 97.56563 180.94896Q97.56563 178.82396 97.06563 178.13646Q96.58125 177.43333 95.83125 177.43333Q95.1125 177.43333 94.675 178.04271Q94.12813 178.82396 94.12813 180.94896ZM100.05 180.94896Q100.05 179.41771 100.3625 178.49583Q100.675 177.55833 101.28438 177.05833Q101.90938 176.55833 102.84688 176.55833Q103.53438 176.55833 104.05 176.83958Q104.58125 177.12083 104.925 177.65208Q105.26875 178.16771 105.45625 178.91771Q105.64375 179.66771 105.64375 180.94896Q105.64375 182.46458 105.33125 183.38646Q105.03438 184.30833 104.40938 184.82396Q103.8 185.32396 102.84688 185.32396Q101.6125 185.32396 100.89375 184.43333Q100.05 183.37083 100.05 180.94896ZM101.12813 180.94896Q101.12813 183.05833 101.62813 183.76146Q102.12813 184.46458 102.84688 184.46458Q103.58125 184.46458 104.06563 183.76146Q104.56563 183.05833 104.56563 180.94896Q104.56563 178.82396 104.06563 178.13646Q103.58125 177.43333 102.83125 177.43333Q102.1125 177.43333 101.675 178.04271Q101.12813 178.82396 101.12813 180.94896ZM107.05 180.94896Q107.05 179.41771 107.3625 178.49583Q107.675 177.55833 108.28438 177.05833Q108.90938 176.55833 109.84688 176.55833Q110.53438 176.55833 111.05 176.83958Q111.58125 177.12083 111.925 177.65208Q112.26875 178.16771 112.45625 178.91771Q112.64375 179.66771 112.64375 180.94896Q112.64375 182.46458 112.33125 183.38646Q112.03438 184.30833 111.40938 184.82396Q110.8 185.32396 109.84688 185.32396Q108.6125 185.32396 107.89375 184.43333Q107.05 183.37083 107.05 180.94896ZM108.12813 180.94896Q108.12813 183.05833 108.62813 183.76146Q109.12813 184.46458 109.84688 184.46458Q110.58125 184.46458 111.06563 183.76146Q111.56563 183.05833 111.56563 180.94896Q111.56563 178.82396 111.06563 178.13646Q110.58125 177.43333 109.83125 177.43333Q109.1125 177.43333 108.675 178.04271Q108.12813 178.82396 108.12813 180.94896Z" fill-rule="nonzero"/><path fill="#000000" d="M56.51875 119.06563L55.471874 119.14375Q55.33125 118.51875 55.08125 118.2375Q54.64375 117.78438 54.01875 117.78438Q53.51875 117.78438 53.128124 118.06563Q52.64375 118.44063 52.346874 119.14375Q52.065624 119.83125 52.05 121.1125Q52.425 120.53438 52.971874 120.25313Q53.534374 119.97188 54.14375 119.97188Q55.190624 119.97188 55.925 120.75313Q56.675 121.53438 56.675 122.75313Q56.675 123.56563 56.315624 124.26875Q55.971874 124.95625 55.3625 125.33125Q54.753124 125.69063 53.9875 125.69063Q52.659374 125.69063 51.83125 124.72188Q51.003124 123.75313 51.003124 121.53438Q51.003124 119.03438 51.925 117.90938Q52.721874 116.925 54.08125 116.925Q55.096874 116.925 55.7375 117.50313Q56.39375 118.06563 56.51875 119.06563ZM52.221874 122.76875Q52.221874 123.31563 52.440624 123.81563Q52.675 124.3 53.08125 124.56563Q53.503124 124.83125 53.971874 124.83125Q54.628124 124.83125 55.1125 124.3Q55.596874 123.75313 55.596874 122.83125Q55.596874 121.94063 55.1125 121.425Q54.64375 120.90938 53.925 120.90938Q53.20625 120.90938 52.70625 121.425Q52.221874 121.94063 52.221874 122.76875ZM58.05 121.31563Q58.05 119.78438 58.3625 118.8625Q58.675 117.925 59.284374 117.425Q59.909374 116.925 60.846874 116.925Q61.534374 116.925 62.05 117.20625Q62.58125 117.4875 62.925 118.01875Q63.26875 118.53438 63.45625 119.28438Q63.64375 120.03438 63.64375 121.31563Q63.64375 122.83125 63.33125 123.75313Q63.034374 124.675 62.409374 125.19063Q61.8 125.69063 60.846874 125.69063Q59.6125 125.69063 58.89375 124.8Q58.05 123.7375 58.05 121.31563ZM59.128124 121.31563Q59.128124 123.425 59.628124 124.12813Q60.128124 124.83125 60.846874 124.83125Q61.58125 124.83125 62.065624 124.12813Q62.565624 123.425 62.565624 121.31563Q62.565624 119.19063 62.065624 118.50313Q61.58125 117.8 60.83125 117.8Q60.1125 117.8 59.675 118.40938Q59.128124 119.19063 59.128124 121.31563ZM65.05 121.31563Q65.05 119.78438 65.3625 118.8625Q65.675 117.925 66.28438 117.425Q66.90938 116.925 67.84688 116.925Q68.53438 116.925 69.05 117.20625Q69.58125 117.4875 69.925 118.01875Q70.26875 118.53438 70.45625 119.28438Q70.64375 120.03438 70.64375 121.31563Q70.64375 122.83125 70.33125 123.75313Q70.03438 124.675 69.40938 125.19063Q68.8 125.69063 67.84688 125.69063Q66.6125 125.69063 65.89375 124.8Q65.05 123.7375 65.05 121.31563ZM66.12813 121.31563Q66.12813 123.425 66.62813 124.12813Q67.12813 124.83125 67.84688 124.83125Q68.58125 124.83125 69.06563 124.12813Q69.56563 123.425 69.56563 121.31563Q69.56563 119.19063 69.06563 118.50313Q68.58125 117.8 67.83125 117.8Q67.1125 117.8 66.675 118.40938Q66.12813 119.19063 66.12813 121.31563ZM72.05 121.31563Q72.05 119.78438 72.3625 118.8625Q72.675 117.925 73.28438 117.425Q73.90938 116.925 74.84688 116.925Q75.53438 116.925 76.05 117.20625Q76.58125 117.4875 76.925 118.01875Q77.26875 118.53438 77.45625 119.28438Q77.64375 120.03438 77.64375 121.31563Q77.64375 122.83125 77.33125 123.75313Q77.03438 124.675 76.40938 125.19063Q75.8 125.69063 74.84688 125.69063Q73.6125 125.69063 72.89375 124.8Q72.05 123.7375 72.05 121.31563ZM73.12813 121.31563Q73.12813 123.425 73.62813 124.12813Q74.12813 124.83125 74.84688 124.83125Q75.58125 124.83125 76.06563 124.12813Q76.56563 123.425 76.56563 121.31563Q76.56563 119.19063 76.06563 118.50313Q75.58125 117.8 74.83125 117.8Q74.1125 117.8 73.675 118.40938Q73.12813 119.19063 73.12813 121.31563ZM79.05 121.31563Q79.05 119.78438 79.3625 118.8625Q79.675 117.925 80.28438 117.425Q80.90938 116.925 81.84688 116.925Q82.53438 116.925 83.05 117.20625Q83.58125 117.4875 83.925 118.01875Q84.26875 118.53438 84.45625 119.28438Q84.64375 120.03438 84.64375 121.31563Q84.64375 122.83125 84.33125 123.75313Q84.03438 124.675 83.40938 125.19063Q82.8 125.69063 81.84688 125.69063Q80.6125 125.69063 79.89375 124.8Q79.05 123.7375 79.05 121.31563ZM80.12813 121.31563Q80.12813 123.425 80.62813 124.12813Q81.12813 124.83125 81.84688 124.83125Q82.58125 124.83125 83.06563 124.12813Q83.56563 123.425 83.56563 121.31563Q83.56563 119.19063 83.06563 118.50313Q82.58125 117.8 81.83125 117.8Q81.1125 117.8 80.675 118.40938Q80.12813 119.19063 80.12813 121.31563ZM86.05 121.31563Q86.05 119.78438 86.3625 118.8625Q86.675 117.925 87.28438 117.425Q87.90938 116.925 88.84688 116.925Q89.53438 116.925 90.05 117.20625Q90.58125 117.4875 90.925 118.01875Q91.26875 118.53438 91.45625 119.28438Q91.64375 120.03438 91.64375 121.31563Q91.64375 122.83125 91.33125 123.75313Q91.03438 124.675 90.40938 125.19063Q89.8 125.69063 88.84688 125.69063Q87.6125 125.69063 86.89375 124.8Q86.05 123.7375 86.05 121.31563ZM87.12813 121.31563Q87.12813 123.425 87.62813 124.12813Q88.12813 124.83125 88.84688 124.83125Q89.58125 124.83125 90.06563 124.12813Q90.56563 123.425 90.56563 121.31563Q90.56563 119.19063 90.06563 118.50313Q89.58125 117.8 88.83125 117.8Q88.1125 117.8 87.675 118.40938Q87.12813 119.19063 87.12813 121.31563ZM93.05 121.31563Q93.05 119.78438 93.3625 118.8625Q93.675 117.925 94.28438 117.425Q94.90938 116.925 95.84688 116.925Q96.53438 116.925 97.05 117.20625Q97.58125 117.4875 97.925 118.01875Q98.26875 118.53438 98.45625 119.28438Q98.64375 120.03438 98.64375 121.31563Q98.64375 122.83125 98.33125 123.75313Q98.03438 124.675 97.40938 125.19063Q96.8 125.69063 95.84688 125.69063Q94.6125 125.69063 93.89375 124.8Q93.05 123.7375 93.05 121.31563ZM94.12813 121.31563Q94.12813 123.425 94.62813 124.12813Q95.12813 124.83125 95.84688 124.83125Q96.58125 124.83125 97.06563 124.12813Q97.56563 123.425 97.56563 121.31563Q97.56563 119.19063 97.06563 118.50313Q96.58125 117.8 95.83125 117.8Q95.1125 117.8 94.675 118.40938Q94.12813 119.19063 94.12813 121.31563ZM100.05 121.31563Q100.05 119.78438 100.3625 118.8625Q100.675 117.925 101.28438 117.425Q101.90938 116.925 102.84688 116.925Q103.53438 116.925 104.05 117.20625Q104.58125 117.4875 104.925 118.01875Q105.26875 118.53438 105.45625 119.28438Q105.64375 120.03438 105.64375 121.31563Q105.64375 122.83125 105.33125 123.75313Q105.03438 124.675 104.40938 125.19063Q103.8 125.69063 102.84688 125.69063Q101.6125 125.69063 100.89375 124.8Q100.05 123.7375 100.05 121.31563ZM101.12813 121.31563Q101.12813 123.425 101.62813 124.12813Q102.12813 124.83125 102.84688 124.83125Q103.58125 124.83125 104.06563 124.12813Q104.56563 123.425 104.56563 121.31563Q104.56563 119.19063 104.06563 118.50313Q103.58125 117.8 102.83125 117.8Q102.1125 117.8 101.675 118.40938Q101.12813 119.19063 101.12813 121.31563ZM107.05 121.31563Q107.05 119.78438 107.3625 118.8625Q107.675 117.925 108.28438 117.425Q108.90938 116.925 109.84688 116.925Q110.53438 116.925 111.05 117.20625Q111.58125 117.4875 111.925 118.01875Q112.26875 118.53438 112.45625 119.28438Q112.64375 120.03438 112.64375 121.31563Q112.64375 122.83125 112.33125 123.75313Q112.03438 124.675 111.40938 125.19063Q110.8 125.69063 109.84688 125.69063Q108.6125 125.69063 107.89375 124.8Q107.05 123.7375 107.05 121.31563ZM108.12813 121.31563Q108.12813 123.425 108.62813 124.12813Q109.12813 124.83125 109.84688 124.83125Q110.58125 124.83125 111.06563 124.12813Q111.56563 123.425 111.56563 121.31563Q111.56563 119.19063 111.06563 118.50313Q110.58125 117.8 109.83125 117.8Q109.1125 117.8 108.675 118.40938Q108.12813 119.19063 108.12813 121.31563Z" fill-rule="nonzero"/><path fill="#000000" d="M52.675 61.260414Q52.01875 61.010414 51.690624 60.572914Q51.378124 60.11979 51.378124 59.510414Q51.378124 58.572914 52.05 57.93229Q52.7375 57.291664 53.846874 57.291664Q54.971874 57.291664 55.659374 57.947914Q56.346874 58.604164 56.346874 59.541664Q56.346874 60.135414 56.034374 60.572914Q55.721874 61.010414 55.08125 61.260414Q55.878124 61.510414 56.284374 62.08854Q56.690624 62.666664 56.690624 63.46354Q56.690624 64.55729 55.909374 65.30729Q55.14375 66.05729 53.8625 66.05729Q52.596874 66.05729 51.815624 65.30729Q51.034374 64.55729 51.034374 63.43229Q51.034374 62.58854 51.45625 62.02604Q51.89375 61.46354 52.675 61.260414ZM52.45625 59.46354Q52.45625 60.072914 52.846874 60.46354Q53.253124 60.854164 53.878124 60.854164Q54.4875 60.854164 54.878124 60.479164Q55.26875 60.08854 55.26875 59.52604Q55.26875 58.947914 54.8625 58.55729Q54.45625 58.15104 53.8625 58.15104Q53.253124 58.15104 52.846874 58.541664Q52.45625 58.93229 52.45625 59.46354ZM52.128124 63.43229Q52.128124 63.885414 52.33125 64.30729Q52.55 64.729164 52.971874 64.96354Q53.39375 65.197914 53.878124 65.197914Q54.628124 65.197914 55.1125 64.71354Q55.6125 64.229164 55.6125 63.479164Q55.6125 62.71354 55.1125 62.21354Q54.6125 61.71354 53.846874 61.71354Q53.096874 61.71354 52.6125 62.21354Q52.128124 62.697914 52.128124 63.43229ZM58.05 61.68229Q58.05 60.15104 58.3625 59.229164Q58.675 58.291664 59.284374 57.791664Q59.909374 57.291664 60.846874 57.291664Q61.534374 57.291664 62.05 57.572914Q62.58125 57.854164 62.925 58.385414Q63.26875 58.90104 63.45625 59.65104Q63.64375 60.40104 63.64375 61.68229Q63.64375 63.197914 63.33125 64.11979Q63.034374 65.041664 62.409374 65.55729Q61.8 66.05729 60.846874 66.05729Q59.6125 66.05729 58.89375 65.166664Q58.05 64.104164 58.05 61.68229ZM59.128124 61.68229Q59.128124 63.791664 59.628124 64.49479Q60.128124 65.197914 60.846874 65.197914Q61.58125 65.197914 62.065624 64.49479Q62.565624 63.791664 62.565624 61.68229Q62.565624 59.55729 62.065624 58.86979Q61.58125 58.166664 60.83125 58.166664Q60.1125 58.166664 59.675 58.77604Q59.128124 59.55729 59.128124 61.68229ZM65.05 61.68229Q65.05 60.15104 65.3625 59.229164Q65.675 58.291664 66.28438 57.791664Q66.90938 57.291664 67.84688 57.291664Q68.53438 57.291664 69.05 57.572914Q69.58125 57.854164 69.925 58.385414Q70.26875 58.90104 70.45625 59.65104Q70.64375 60.40104 70.64375 61.68229Q70.64375 63.197914 70.33125 64.11979Q70.03438 65.041664 69.40938 65.55729Q68.8 66.05729 67.84688 66.05729Q66.6125 66.05729 65.89375 65.166664Q65.05 64.104164 65.05 61.68229ZM66.12813 61.68229Q66.12813 63.791664 66.62813 64.49479Q67.12813 65.197914 67.84688 65.197914Q68.58125 65.197914 69.06563 64.49479Q69.56563 63.791664 69.56563 61.68229Q69.56563 59.55729 69.06563 58.86979Q68.58125 58.166664 67.83125 58.166664Q67.1125 58.166664 66.675 58.77604Q66.12813 59.55729 66.12813 61.68229ZM72.05 61.68229Q72.05 60.15104 72.3625 59.229164Q72.675 58.291664 73.28438 57.791664Q73.90938 57.291664 74.84688 57.291664Q75.53438 57.291664 76.05 57.572914Q76.58125 57.854164 76.925 58.385414Q77.26875 58.90104 77.45625 59.65104Q77.64375 60.40104 77.64375 61.68229Q77.64375 63.197914 77.33125 64.11979Q77.03438 65.041664 76.40938 65.55729Q75.8 66.05729 74.84688 66.05729Q73.6125 66.05729 72.89375 65.166664Q72.05 64.104164 72.05 61.68229ZM73.12813 61.68229Q73.12813 63.791664 73.62813 64.49479Q74.12813 65.197914 74.84688 65.197914Q75.58125 65.197914 76.06563 64.49479Q76.56563 63.791664 76.56563 61.68229Q76.56563 59.55729 76.06563 58.86979Q75.58125 58.166664 74.83125 58.166664Q74.1125 58.166664 73.675 58.77604Q73.12813 59.55729 73.12813 61.68229ZM79.05 61.68229Q79.05 60.15104 79.3625 59.229164Q79.675 58.291664 80.28438 57.791664Q80.90938 57.291664 81.84688 57.291664Q82.53438 57.291664 83.05 57.572914Q83.58125 57.854164 83.925 58.385414Q84.26875 58.90104 84.45625 59.65104Q84.64375 60.40104 84.64375 61.68229Q84.64375 63.197914 84.33125 64.11979Q84.03438 65.041664 83.40938 65.55729Q82.8 66.05729 81.84688 66.05729Q80.6125 66.05729 79.89375 65.166664Q79.05 64.104164 79.05 61.68229ZM80.12813 61.68229Q80.12813 63.791664 80.62813 64.49479Q81.12813 65.197914 81.84688 65.197914Q82.58125 65.197914 83.06563 64.49479Q83.56563 63.791664 83.56563 61.68229Q83.56563 59.55729 83.06563 58.86979Q82.58125 58.166664 81.83125 58.166664Q81.1125 58.166664 80.675 58.77604Q80.12813 59.55729 80.12813 61.68229ZM86.05 61.68229Q86.05 60.15104 86.3625 59.229164Q86.675 58.291664 87.28438 57.791664Q87.90938 57.291664 88.84688 57.291664Q89.53438 57.291664 90.05 57.572914Q90.58125 57.854164 90.925 58.385414Q91.26875 58.90104 91.45625 59.65104Q91.64375 60.40104 91.64375 61.68229Q91.64375 63.197914 91.33125 64.11979Q91.03438 65.041664 90.40938 65.55729Q89.8 66.05729 88.84688 66.05729Q87.6125 66.05729 86.89375 65.166664Q86.05 64.104164 86.05 61.68229ZM87.12813 61.68229Q87.12813 63.791664 87.62813 64.49479Q88.12813 65.197914 88.84688 65.197914Q89.58125 65.197914 90.06563 64.49479Q90.56563 63.791664 90.56563 61.68229Q90.56563 59.55729 90.06563 58.86979Q89.58125 58.166664 88.83125 58.166664Q88.1125 58.166664 87.675 58.77604Q87.12813 59.55729 87.12813 61.68229ZM93.05 61.68229Q93.05 60.15104 93.3625 59.229164Q93.675 58.291664 94.28438 57.791664Q94.90938 57.291664 95.84688 57.291664Q96.53438 57.291664 97.05 57.572914Q97.58125 57.854164 97.925 58.385414Q98.26875 58.90104 98.45625 59.65104Q98.64375 60.40104 98.64375 61.68229Q98.64375 63.197914 98.33125 64.11979Q98.03438 65.041664 97.40938 65.55729Q96.8 66.05729 95.84688 66.05729Q94.6125 66.05729 93.89375 65.166664Q93.05 64.104164 93.05 61.68229ZM94.12813 61.68229Q94.12813 63.791664 94.62813 64.49479Q95.12813 65.197914 95.84688 65.197914Q96.58125 65.197914 97.06563 64.49479Q97.56563 63.791664 97.56563 61.68229Q97.56563 59.55729 97.06563 58.86979Q96.58125 58.166664 95.83125 58.166664Q95.1125 58.166664 94.675 58.77604Q94.12813 59.55729 94.12813 61.68229ZM100.05 61.68229Q100.05 60.15104 100.3625 59.229164Q100.675 58.291664 101.28438 57.791664Q101.90938 57.291664 102.84688 57.291664Q103.53438 57.291664 104.05 57.572914Q104.58125 57.854164 104.925 58.385414Q105.26875 58.90104 105.45625 59.65104Q105.64375 60.40104 105.64375 61.68229Q105.64375 63.197914 105.33125 64.11979Q105.03438 65.041664 104.40938 65.55729Q103.8 66.05729 102.84688 66.05729Q101.6125 66.05729 100.89375 65.166664Q100.05 64.104164 100.05 61.68229ZM101.12813 61.68229Q101.12813 63.791664 101.62813 64.49479Q102.12813 65.197914 102.84688 65.197914Q103.58125 65.197914 104.06563 64.49479Q104.56563 63.791664 104.56563 61.68229Q104.56563 59.55729 104.06563 58.86979Q103.58125 58.166664 102.83125 58.166664Q102.1125 58.166664 101.675 58.77604Q101.12813 59.55729 101.12813 61.68229ZM107.05 61.68229Q107.05 60.15104 107.3625 59.229164Q107.675 58.291664 108.28438 57.791664Q108.90938 57.291664 109.84688 57.291664Q110.53438 57.291664 111.05 57.572914Q111.58125 57.854164 111.925 58.385414Q112.26875 58.90104 112.45625 59.65104Q112.64375 60.40104 112.64375 61.68229Q112.64375 63.197914 112.33125 64.11979Q112.03438 65.041664 111.40938 65.55729Q110.8 66.05729 109.84688 66.05729Q108.6125 66.05729 107.89375 65.166664Q107.05 64.104164 107.05 61.68229ZM108.12813 61.68229Q108.12813 63.791664 108.62813 64.49479Q109.12813 65.197914 109.84688 65.197914Q110.58125 65.197914 111.06563 64.49479Q111.56563 63.791664 111.56563 61.68229Q111.56563 59.55729 111.06563 58.86979Q110.58125 58.166664 109.83125 58.166664Q109.1125 58.166664 108.675 58.77604Q108.12813 59.55729 108.12813 61.68229Z" fill-rule="nonzero"/><path fill="#000000" d="M181.19077 315.2L182.30014 315.10626Q182.42514 315.91876 182.86264 316.325Q183.31577 316.73126 183.95639 316.73126Q184.70639 316.73126 185.23764 316.15314Q185.76889 315.575 185.76889 314.6375Q185.76889 313.73126 185.25327 313.21564Q184.75327 312.6844 183.92514 312.6844Q183.42514 312.6844 183.00327 312.91876Q182.59702 313.15314 182.36264 313.5125L181.37827 313.3875L182.20639 308.98126L186.48764 308.98126L186.48764 309.98126L183.05014 309.98126L182.59702 312.29376Q183.36264 311.7469 184.20639 311.7469Q185.33139 311.7469 186.09702 312.52814Q186.87827 313.3094 186.87827 314.54376Q186.87827 315.7 186.20639 316.5594Q185.37827 317.59064 183.95639 317.59064Q182.78452 317.59064 182.03452 316.9344Q181.30014 316.27814 181.19077 315.2Z" fill-rule="nonzero"/><path fill="#000000" d="M253.96788 317.45L252.921 317.45L252.921 310.73126Q252.53038 311.09064 251.90538 311.46564Q251.296 311.825 250.81163 311.9969L250.81163 310.98126Q251.68663 310.5594 252.34288 309.98126Q253.01476 309.3875 253.296 308.825L253.96788 308.825L253.96788 317.45ZM256.99915 313.21564Q256.99915 311.6844 257.31165 310.7625Q257.62415 309.825 258.23352 309.325Q258.85852 308.825 259.79602 308.825Q260.48352 308.825 260.99915 309.10626Q261.5304 309.3875 261.87415 309.91876Q262.2179 310.4344 262.4054 311.1844Q262.5929 311.9344 262.5929 313.21564Q262.5929 314.73126 262.2804 315.65314Q261.98352 316.575 261.35852 317.09064Q260.74915 317.59064 259.79602 317.59064Q258.56165 317.59064 257.8429 316.7Q256.99915 315.6375 256.99915 313.21564ZM258.07727 313.21564Q258.07727 315.325 258.57727 316.02814Q259.07727 316.73126 259.79602 316.73126Q260.5304 316.73126 261.01477 316.02814Q261.51477 315.325 261.51477 313.21564Q261.51477 311.09064 261.01477 310.40314Q260.5304 309.7 259.7804 309.7Q259.06165 309.7 258.62415 310.3094Q258.07727 311.09064 258.07727 313.21564Z" fill-rule="nonzero"/><path fill="#000000" d="M326.27625 317.45L325.22937 317.45L325.22937 310.73126Q324.83875 311.09064 324.21375 311.46564Q323.60437 311.825 323.12 311.9969L323.12 310.98126Q323.995 310.5594 324.65125 309.98126Q325.32312 309.3875 325.60437 308.825L326.27625 308.825L326.27625 317.45ZM329.3075 315.2L330.41687 315.10626Q330.54187 315.91876 330.97937 316.325Q331.4325 316.73126 332.07312 316.73126Q332.82312 316.73126 333.35437 316.15314Q333.88562 315.575 333.88562 314.6375Q333.88562 313.73126 333.37 313.21564Q332.87 312.6844 332.04187 312.6844Q331.54187 312.6844 331.12 312.91876Q330.71375 313.15314 330.47937 313.5125L329.495 313.3875L330.32312 308.98126L334.60437 308.98126L334.60437 309.98126L331.16687 309.98126L330.71375 312.29376Q331.47937 311.7469 332.32312 311.7469Q333.44812 311.7469 334.21375 312.52814Q334.995 313.3094 334.995 314.54376Q334.995 315.7 334.32312 316.5594Q333.495 317.59064 332.07312 317.59064Q330.90125 317.59064 330.15125 316.9344Q329.41687 316.27814 329.3075 315.2Z" fill-rule="nonzero"/><path fill="#000000" d="M400.16272 316.4344L400.16272 317.45L394.47522 317.45Q394.47522 317.075 394.60022 316.71564Q394.81897 316.1375 395.28772 315.575Q395.7721 315.0125 396.67834 314.27814Q398.0846 313.1219 398.56897 312.45Q399.06897 311.77814 399.06897 311.1844Q399.06897 310.5594 398.61584 310.1375Q398.16272 309.7 397.44397 309.7Q396.67834 309.7 396.22522 310.15314Q395.7721 310.60626 395.75647 311.41876L394.67834 311.3094Q394.78772 310.09064 395.50647 309.46564Q396.24084 308.825 397.47522 308.825Q398.7096 308.825 399.42834 309.5125Q400.1471 310.2 400.1471 311.21564Q400.1471 311.73126 399.92834 312.23126Q399.72522 312.71564 399.22522 313.27814Q398.74084 313.825 397.61584 314.77814Q396.66272 315.575 396.38147 315.8719Q396.11584 316.15314 395.94397 316.4344L400.16272 316.4344ZM401.61584 313.21564Q401.61584 311.6844 401.92834 310.7625Q402.24084 309.825 402.85022 309.325Q403.47522 308.825 404.41272 308.825Q405.10022 308.825 405.61584 309.10626Q406.1471 309.3875 406.49084 309.91876Q406.8346 310.4344 407.0221 311.1844Q407.2096 311.9344 407.2096 313.21564Q407.2096 314.73126 406.8971 315.65314Q406.60022 316.575 405.97522 317.09064Q405.36584 317.59064 404.41272 317.59064Q403.17834 317.59064 402.4596 316.7Q401.61584 315.6375 401.61584 313.21564ZM402.69397 313.21564Q402.69397 315.325 403.19397 316.02814Q403.69397 316.73126 404.41272 316.73126Q405.1471 316.73126 405.63147 316.02814Q406.13147 315.325 406.13147 313.21564Q406.13147 311.09064 405.63147 310.40314Q405.1471 309.7 404.3971 309.7Q403.67834 309.7 403.24084 310.3094Q402.69397 311.09064 402.69397 313.21564Z" fill-rule="nonzero"/><path fill="#000000" d="M472.4711 316.4344L472.4711 317.45L466.7836 317.45Q466.7836 317.075 466.9086 316.71564Q467.12735 316.1375 467.5961 315.575Q468.08047 315.0125 468.98672 314.27814Q470.39297 313.1219 470.87735 312.45Q471.37735 311.77814 471.37735 311.1844Q471.37735 310.5594 470.92422 310.1375Q470.4711 309.7 469.75235 309.7Q468.98672 309.7 468.5336 310.15314Q468.08047 310.60626 468.06485 311.41876L466.98672 311.3094Q467.0961 310.09064 467.81485 309.46564Q468.54922 308.825 469.7836 308.825Q471.01797 308.825 471.73672 309.5125Q472.45547 310.2 472.45547 311.21564Q472.45547 311.73126 472.23672 312.23126Q472.0336 312.71564 471.5336 313.27814Q471.04922 313.825 469.92422 314.77814Q468.9711 315.575 468.68985 315.8719Q468.42422 316.15314 468.25235 316.4344L472.4711 316.4344ZM473.92422 315.2L475.0336 315.10626Q475.1586 315.91876 475.5961 316.325Q476.04922 316.73126 476.68985 316.73126Q477.43985 316.73126 477.9711 316.15314Q478.50235 315.575 478.50235 314.6375Q478.50235 313.73126 477.98672 313.21564Q477.48672 312.6844 476.6586 312.6844Q476.1586 312.6844 475.73672 312.91876Q475.33047 313.15314 475.0961 313.5125L474.11172 313.3875L474.93985 308.98126L479.2211 308.98126L479.2211 309.98126L475.7836 309.98126L475.33047 312.29376Q476.0961 311.7469 476.93985 311.7469Q478.06485 311.7469 478.83047 312.52814Q479.61172 313.3094 479.61172 314.54376Q479.61172 315.7 478.93985 316.5594Q478.11172 317.59064 476.68985 317.59064Q475.51797 317.59064 474.76797 316.9344Q474.0336 316.27814 473.92422 315.2Z" fill-rule="nonzero"/><path fill="#000000" d="M539.2326 315.1844L540.2951 315.04376Q540.467 315.9344 540.9045 316.34064Q541.342 316.73126 541.967 316.73126Q542.717 316.73126 543.2326 316.21564Q543.7482 315.7 543.7482 314.9344Q543.7482 314.21564 543.26385 313.7469Q542.7951 313.2625 542.0607 313.2625Q541.76385 313.2625 541.3107 313.3875L541.4357 312.45Q541.5451 312.46564 541.6076 312.46564Q542.2795 312.46564 542.8107 312.1219Q543.3576 311.7625 543.3576 311.02814Q543.3576 310.45 542.967 310.075Q542.57635 309.6844 541.95135 309.6844Q541.342 309.6844 540.9201 310.075Q540.51385 310.46564 540.4045 311.23126L539.342 311.04376Q539.5295 309.9969 540.217 309.41876Q540.9045 308.825 541.9201 308.825Q542.6232 308.825 543.217 309.1375Q543.8107 309.4344 544.1232 309.95Q544.4357 310.46564 544.4357 311.0594Q544.4357 311.60626 544.13885 312.075Q543.842 312.52814 543.26385 312.79376Q544.01385 312.96564 544.4357 313.52814Q544.8576 314.075 544.8576 314.91876Q544.8576 316.04376 544.0295 316.825Q543.217 317.60626 541.967 317.60626Q540.842 317.60626 540.092 316.9344Q539.342 316.2469 539.2326 315.1844ZM546.2326 313.21564Q546.2326 311.6844 546.5451 310.7625Q546.8576 309.825 547.467 309.325Q548.092 308.825 549.0295 308.825Q549.717 308.825 550.2326 309.10626Q550.76385 309.3875 551.1076 309.91876Q551.45135 310.4344 551.63885 311.1844Q551.82635 311.9344 551.82635 313.21564Q551.82635 314.73126 551.51385 315.65314Q551.217 316.575 550.592 317.09064Q549.9826 317.59064 549.0295 317.59064Q547.7951 317.59064 547.07635 316.7Q546.2326 315.6375 546.2326 313.21564ZM547.3107 313.21564Q547.3107 315.325 547.8107 316.02814Q548.3107 316.73126 549.0295 316.73126Q549.76385 316.73126 550.2482 316.02814Q550.7482 315.325 550.7482 313.21564Q550.7482 311.09064 550.2482 310.40314Q549.76385 309.7 549.01385 309.7Q548.2951 309.7 547.8576 310.3094Q547.3107 311.09064 547.3107 313.21564Z" fill-rule="nonzero"/><path fill="#757575" d="M26.64375 36.26875Q25.659374 37.096874 24.753124 37.440624Q23.846874 37.784374 22.815624 37.784374Q21.1125 37.784374 20.190624 36.95625Q19.26875 36.1125 19.26875 34.815624Q19.26875 34.05 19.6125 33.425Q19.971874 32.8 20.534374 32.425Q21.096874 32.034374 21.8 31.83125Q22.315624 31.70625 23.3625 31.565624Q25.4875 31.315624 26.4875 30.971874Q26.503124 30.6125 26.503124 30.503124Q26.503124 29.440624 26.003124 28.9875Q25.33125 28.39375 24.003124 28.39375Q22.753124 28.39375 22.159374 28.83125Q21.58125 29.26875 21.3 30.378124L19.58125 30.14375Q19.815624 29.034374 20.346874 28.3625Q20.878124 27.675 21.89375 27.315624Q22.909374 26.940624 24.253124 26.940624Q25.58125 26.940624 26.409374 27.253124Q27.2375 27.565624 27.628124 28.05Q28.01875 28.51875 28.175 29.2375Q28.26875 29.690624 28.26875 30.8625L28.26875 33.20625Q28.26875 35.659374 28.378124 36.315624Q28.4875 36.95625 28.83125 37.55L26.9875 37.55Q26.721874 37.003124 26.64375 36.26875ZM26.4875 32.346874Q25.534374 32.7375 23.6125 33.003124Q22.534374 33.159374 22.08125 33.3625Q21.64375 33.55 21.39375 33.925Q21.14375 34.3 21.14375 34.76875Q21.14375 35.471874 21.675 35.940624Q22.20625 36.409374 23.2375 36.409374Q24.253124 36.409374 25.034374 35.971874Q25.83125 35.51875 26.20625 34.753124Q26.4875 34.14375 26.4875 32.9875L26.4875 32.346874ZM33.753124 37.55L29.8 27.175L31.659374 27.175L33.89375 33.39375Q34.253124 34.39375 34.55 35.471874Q34.784374 34.659374 35.20625 33.503124L37.503124 27.175L39.315624 27.175L35.39375 37.55L33.753124 37.55ZM46.971874 34.20625L48.784374 34.440624Q48.3625 36.01875 47.190624 36.909374Q46.034374 37.784374 44.221874 37.784374Q41.95625 37.784374 40.6125 36.39375Q39.284374 34.9875 39.284374 32.45625Q39.284374 29.83125 40.628124 28.39375Q41.971874 26.940624 44.128124 26.940624Q46.20625 26.940624 47.51875 28.3625Q48.846874 29.76875 48.846874 32.346874Q48.846874 32.503124 48.83125 32.815624L41.096874 32.815624Q41.190624 34.51875 42.065624 35.425Q42.940624 36.33125 44.2375 36.33125Q45.20625 36.33125 45.878124 35.83125Q46.565624 35.315624 46.971874 34.20625ZM41.190624 31.3625L46.9875 31.3625Q46.878124 30.065624 46.33125 29.409374Q45.4875 28.39375 44.14375 28.39375Q42.940624 28.39375 42.1125 29.20625Q41.284374 30.003124 41.190624 31.3625ZM50.846874 37.55L50.846874 27.175L52.425 27.175L52.425 28.753124Q53.034374 27.64375 53.55 27.3Q54.065624 26.940624 54.675 26.940624Q55.565624 26.940624 56.4875 27.503124L55.878124 29.14375Q55.2375 28.753124 54.596874 28.753124Q54.01875 28.753124 53.55 29.1125Q53.096874 29.45625 52.89375 30.065624Q52.6125 31.003124 52.6125 32.1125L52.6125 37.55L50.846874 37.55ZM64.64375 36.26875Q63.659374 37.096874 62.753124 37.440624Q61.846874 37.784374 60.815624 37.784374Q59.1125 37.784374 58.190624 36.95625Q57.26875 36.1125 57.26875 34.815624Q57.26875 34.05 57.6125 33.425Q57.971874 32.8 58.534374 32.425Q59.096874 32.034374 59.8 31.83125Q60.315624 31.70625 61.3625 31.565624Q63.4875 31.315624 64.4875 30.971874Q64.50313 30.6125 64.50313 30.503124Q64.50313 29.440624 64.00313 28.9875Q63.33125 28.39375 62.003124 28.39375Q60.753124 28.39375 60.159374 28.83125Q59.58125 29.26875 59.3 30.378124L57.58125 30.14375Q57.815624 29.034374 58.346874 28.3625Q58.878124 27.675 59.89375 27.315624Q60.909374 26.940624 62.253124 26.940624Q63.58125 26.940624 64.40938 27.253124Q65.2375 27.565624 65.62813 28.05Q66.01875 28.51875 66.175 29.2375Q66.26875 29.690624 66.26875 30.8625L66.26875 33.20625Q66.26875 35.659374 66.37813 36.315624Q66.4875 36.95625 66.83125 37.55L64.9875 37.55Q64.72188 37.003124 64.64375 36.26875ZM64.4875 32.346874Q63.534374 32.7375 61.6125 33.003124Q60.534374 33.159374 60.08125 33.3625Q59.64375 33.55 59.39375 33.925Q59.14375 34.3 59.14375 34.76875Q59.14375 35.471874 59.675 35.940624Q60.20625 36.409374 61.2375 36.409374Q62.253124 36.409374 63.034374 35.971874Q63.83125 35.51875 64.20625 34.753124Q64.4875 34.14375 64.4875 32.9875L64.4875 32.346874ZM68.55 38.409374L70.25313 38.659374Q70.3625 39.45625 70.84688 39.815624Q71.50313 40.3 72.64375 40.3Q73.8625 40.3 74.51875 39.815624Q75.19063 39.33125 75.425 38.45625Q75.56563 37.909374 75.55 36.190624Q74.39375 37.55 72.675 37.55Q70.53438 37.55 69.3625 36.003124Q68.19063 34.45625 68.19063 32.3Q68.19063 30.815624 68.72188 29.565624Q69.26875 28.315624 70.28438 27.628124Q71.31563 26.940624 72.69063 26.940624Q74.51875 26.940624 75.72188 28.425L75.72188 27.175L77.33125 27.175L77.33125 36.14375Q77.33125 38.565624 76.83125 39.565624Q76.34688 40.58125 75.26875 41.159374Q74.20625 41.753124 72.64375 41.753124Q70.8 41.753124 69.64375 40.925Q68.50313 40.096874 68.55 38.409374ZM70.00313 32.175Q70.00313 34.221874 70.81563 35.159374Q71.62813 36.096874 72.84688 36.096874Q74.05 36.096874 74.8625 35.159374Q75.69063 34.221874 75.69063 32.2375Q75.69063 30.33125 74.84688 29.3625Q74.00313 28.39375 72.81563 28.39375Q71.64375 28.39375 70.81563 29.346874Q70.00313 30.3 70.00313 32.175ZM86.97188 34.20625L88.78438 34.440624Q88.3625 36.01875 87.19063 36.909374Q86.03438 37.784374 84.22188 37.784374Q81.95625 37.784374 80.6125 36.39375Q79.28438 34.9875 79.28438 32.45625Q79.28438 29.83125 80.62813 28.39375Q81.97188 26.940624 84.12813 26.940624Q86.20625 26.940624 87.51875 28.3625Q88.84688 29.76875 88.84688 32.346874Q88.84688 32.503124 88.83125 32.815624L81.09688 32.815624Q81.19063 34.51875 82.06563 35.425Q82.94063 36.33125 84.2375 36.33125Q85.20625 36.33125 85.87813 35.83125Q86.56563 35.315624 86.97188 34.20625ZM81.19063 31.3625L86.9875 31.3625Q86.87813 30.065624 86.33125 29.409374Q85.4875 28.39375 84.14375 28.39375Q82.94063 28.39375 82.1125 29.20625Q81.28438 30.003124 81.19063 31.3625ZM97.01875 37.55L97.01875 23.2375L98.90938 23.2375L98.90938 35.8625L105.95625 35.8625L105.95625 37.55L97.01875 37.55ZM114.00313 37.55L112.2375 37.55L112.2375 26.346874Q111.6125 26.95625 110.58125 27.565624Q109.55 28.159374 108.72188 28.471874L108.72188 26.76875Q110.20625 26.08125 111.3 25.096874Q112.40938 24.096874 112.8625 23.175L114.00313 23.175L114.00313 37.55ZM119.09688 37.55L119.09688 23.2375L124.01875 23.2375Q125.69063 23.2375 126.58125 23.440624Q127.8 23.721874 128.675 24.45625Q129.8 25.425 130.3625 26.909374Q130.925 28.39375 130.925 30.315624Q130.925 31.940624 130.55 33.20625Q130.175 34.45625 129.56563 35.284374Q128.97188 36.1125 128.26875 36.596874Q127.56563 37.065624 126.56563 37.315624Q125.56563 37.55 124.25313 37.55L119.09688 37.55ZM120.9875 35.8625L124.05 35.8625Q125.45625 35.8625 126.25313 35.596874Q127.06563 35.33125 127.55 34.846874Q128.22188 34.175 128.59688 33.05Q128.97188 31.909374 128.97188 30.284374Q128.97188 28.034374 128.2375 26.83125Q127.50313 25.628124 126.44063 25.221874Q125.69063 24.925 124.00313 24.925L120.9875 24.925L120.9875 35.8625ZM138.83125 37.55L138.83125 23.2375L140.58125 23.2375L140.58125 37.55L138.83125 37.55ZM142.22188 32.3625Q142.22188 29.4875 143.81563 28.096874Q145.15938 26.940624 147.08125 26.940624Q149.22188 26.940624 150.56563 28.346874Q151.925 29.753124 151.925 32.221874Q151.925 34.221874 151.33125 35.378124Q150.7375 36.51875 149.58125 37.159374Q148.44063 37.784374 147.08125 37.784374Q144.89375 37.784374 143.55 36.39375Q142.22188 34.9875 142.22188 32.3625ZM144.01875 32.3625Q144.01875 34.3625 144.87813 35.346874Q145.75313 36.33125 147.08125 36.33125Q148.39375 36.33125 149.25313 35.346874Q150.12813 34.346874 150.12813 32.3Q150.12813 30.378124 149.25313 29.39375Q148.37813 28.39375 147.08125 28.39375Q145.75313 28.39375 144.87813 29.39375Q144.01875 30.378124 144.01875 32.3625ZM160.64375 36.26875Q159.65938 37.096874 158.75313 37.440624Q157.84688 37.784374 156.81563 37.784374Q155.1125 37.784374 154.19063 36.95625Q153.26875 36.1125 153.26875 34.815624Q153.26875 34.05 153.6125 33.425Q153.97188 32.8 154.53438 32.425Q155.09688 32.034374 155.8 31.83125Q156.31563 31.70625 157.3625 31.565624Q159.4875 31.315624 160.4875 30.971874Q160.50313 30.6125 160.50313 30.503124Q160.50313 29.440624 160.00313 28.9875Q159.33125 28.39375 158.00313 28.39375Q156.75313 28.39375 156.15938 28.83125Q155.58125 29.26875 155.3 30.378124L153.58125 30.14375Q153.81563 29.034374 154.34688 28.3625Q154.87813 27.675 155.89375 27.315624Q156.90938 26.940624 158.25313 26.940624Q159.58125 26.940624 160.40938 27.253124Q161.2375 27.565624 161.62813 28.05Q162.01875 28.51875 162.175 29.2375Q162.26875 29.690624 162.26875 30.8625L162.26875 33.20625Q162.26875 35.659374 162.37813 36.315624Q162.4875 36.95625 162.83125 37.55L160.9875 37.55Q160.72188 37.003124 160.64375 36.26875ZM160.4875 32.346874Q159.53438 32.7375 157.6125 33.003124Q156.53438 33.159374 156.08125 33.3625Q155.64375 33.55 155.39375 33.925Q155.14375 34.3 155.14375 34.76875Q155.14375 35.471874 155.675 35.940624Q156.20625 36.409374 157.2375 36.409374Q158.25313 36.409374 159.03438 35.971874Q159.83125 35.51875 160.20625 34.753124Q160.4875 34.14375 160.4875 32.9875L160.4875 32.346874ZM171.59688 37.55L171.59688 36.2375Q170.6125 37.784374 168.69063 37.784374Q167.45625 37.784374 166.40938 37.096874Q165.37813 36.409374 164.8 35.190624Q164.2375 33.971874 164.2375 32.378124Q164.2375 30.815624 164.75313 29.55Q165.26875 28.284374 166.3 27.6125Q167.34688 26.940624 168.6125 26.940624Q169.55 26.940624 170.28438 27.346874Q171.01875 27.7375 171.4875 28.3625L171.4875 23.2375L173.22188 23.2375L173.22188 37.55L171.59688 37.55ZM166.03438 32.378124Q166.03438 34.3625 166.87813 35.346874Q167.72188 36.33125 168.8625 36.33125Q170.01875 36.33125 170.81563 35.39375Q171.62813 34.45625 171.62813 32.51875Q171.62813 30.39375 170.8 29.39375Q169.9875 28.39375 168.78438 28.39375Q167.6125 28.39375 166.81563 29.3625Q166.03438 30.315624 166.03438 32.378124ZM181.8625 37.55L181.8625 27.175L183.44063 27.175L183.44063 28.628124Q183.925 27.878124 184.7375 27.409374Q185.55 26.940624 186.58125 26.940624Q187.7375 26.940624 188.47188 27.425Q189.20625 27.89375 189.51875 28.753124Q190.75313 26.940624 192.72188 26.940624Q194.26875 26.940624 195.09688 27.8Q195.925 28.659374 195.925 30.425L195.925 37.55L194.175 37.55L194.175 31.01875Q194.175 29.95625 194.00313 29.503124Q193.83125 29.034374 193.37813 28.753124Q192.94063 28.471874 192.33125 28.471874Q191.2375 28.471874 190.50313 29.20625Q189.78438 29.925 189.78438 31.51875L189.78438 37.55L188.03438 37.55L188.03438 30.815624Q188.03438 29.64375 187.59688 29.065624Q187.175 28.471874 186.19063 28.471874Q185.45625 28.471874 184.81563 28.8625Q184.19063 29.253124 183.90938 30.003124Q183.62813 30.753124 183.62813 32.175L183.62813 37.55L181.8625 37.55ZM197.87813 25.253124L197.87813 23.2375L199.64375 23.2375L199.64375 25.253124L197.87813 25.253124ZM197.87813 37.55L197.87813 27.175L199.64375 27.175L199.64375 37.55L197.87813 37.55ZM201.15938 34.45625L202.90938 34.175Q203.05 35.221874 203.72188 35.784374Q204.39375 36.33125 205.59688 36.33125Q206.8 36.33125 207.37813 35.846874Q207.97188 35.346874 207.97188 34.690624Q207.97188 34.096874 207.45625 33.753124Q207.09688 33.51875 205.65938 33.159374Q203.72188 32.659374 202.97188 32.315624Q202.2375 31.95625 201.84688 31.33125Q201.45625 30.690624 201.45625 29.925Q201.45625 29.2375 201.76875 28.64375Q202.09688 28.05 202.64375 27.659374Q203.05 27.3625 203.75313 27.159374Q204.47188 26.940624 205.28438 26.940624Q206.50313 26.940624 207.425 27.3Q208.34688 27.64375 208.78438 28.253124Q209.22188 28.846874 209.39375 29.846874L207.675 30.08125Q207.55 29.284374 206.9875 28.846874Q206.425 28.39375 205.40938 28.39375Q204.19063 28.39375 203.675 28.8Q203.15938 29.190624 203.15938 29.721874Q203.15938 30.065624 203.37813 30.346874Q203.58125 30.628124 204.05 30.815624Q204.31563 30.909374 205.59688 31.253124Q207.47188 31.753124 208.20625 32.08125Q208.94063 32.39375 209.3625 33.003124Q209.78438 33.596874 209.78438 34.503124Q209.78438 35.378124 209.26875 36.159374Q208.75313 36.940624 207.78438 37.3625Q206.81563 37.784374 205.59688 37.784374Q203.58125 37.784374 202.51875 36.940624Q201.45625 36.096874 201.15938 34.45625ZM211.15938 34.45625L212.90938 34.175Q213.05 35.221874 213.72188 35.784374Q214.39375 36.33125 215.59688 36.33125Q216.8 36.33125 217.37813 35.846874Q217.97188 35.346874 217.97188 34.690624Q217.97188 34.096874 217.45625 33.753124Q217.09688 33.51875 215.65938 33.159374Q213.72188 32.659374 212.97188 32.315624Q212.2375 31.95625 211.84688 31.33125Q211.45625 30.690624 211.45625 29.925Q211.45625 29.2375 211.76875 28.64375Q212.09688 28.05 212.64375 27.659374Q213.05 27.3625 213.75313 27.159374Q214.47188 26.940624 215.28438 26.940624Q216.50313 26.940624 217.425 27.3Q218.34688 27.64375 218.78438 28.253124Q219.22188 28.846874 219.39375 29.846874L217.675 30.08125Q217.55 29.284374 216.9875 28.846874Q216.425 28.39375 215.40938 28.39375Q214.19063 28.39375 213.675 28.8Q213.15938 29.190624 213.15938 29.721874Q213.15938 30.065624 213.37813 30.346874Q213.58125 30.628124 214.05 30.815624Q214.31563 30.909374 215.59688 31.253124Q217.47188 31.753124 218.20625 32.08125Q218.94063 32.39375 219.3625 33.003124Q219.78438 33.596874 219.78438 34.503124Q219.78438 35.378124 219.26875 36.159374Q218.75313 36.940624 217.78438 37.3625Q216.81563 37.784374 215.59688 37.784374Q213.58125 37.784374 212.51875 36.940624Q211.45625 36.096874 211.15938 34.45625ZM228.97188 34.20625L230.78438 34.440624Q230.3625 36.01875 229.19063 36.909374Q228.03438 37.784374 226.22188 37.784374Q223.95625 37.784374 222.6125 36.39375Q221.28438 34.9875 221.28438 32.45625Q221.28438 29.83125 222.62813 28.39375Q223.97188 26.940624 226.12813 26.940624Q228.20625 26.940624 229.51875 28.3625Q230.84688 29.76875 230.84688 32.346874Q230.84688 32.503124 230.83125 32.815624L223.09688 32.815624Q223.19063 34.51875 224.06563 35.425Q224.94063 36.33125 226.2375 36.33125Q227.20625 36.33125 227.87813 35.83125Q228.56563 35.315624 228.97188 34.20625ZM223.19063 31.3625L228.9875 31.3625Q228.87813 30.065624 228.33125 29.409374Q227.4875 28.39375 226.14375 28.39375Q224.94063 28.39375 224.1125 29.20625Q223.28438 30.003124 223.19063 31.3625ZM232.15938 34.45625L233.90938 34.175Q234.05 35.221874 234.72188 35.784374Q235.39375 36.33125 236.59688 36.33125Q237.8 36.33125 238.37813 35.846874Q238.97188 35.346874 238.97188 34.690624Q238.97188 34.096874 238.45625 33.753124Q238.09688 33.51875 236.65938 33.159374Q234.72188 32.659374 233.97188 32.315624Q233.2375 31.95625 232.84688 31.33125Q232.45625 30.690624 232.45625 29.925Q232.45625 29.2375 232.76875 28.64375Q233.09688 28.05 233.64375 27.659374Q234.05 27.3625 234.75313 27.159374Q235.47188 26.940624 236.28438 26.940624Q237.50313 26.940624 238.425 27.3Q239.34688 27.64375 239.78438 28.253124Q240.22188 28.846874 240.39375 29.846874L238.675 30.08125Q238.55 29.284374 237.9875 28.846874Q237.425 28.39375 236.40938 28.39375Q235.19063 28.39375 234.675 28.8Q234.15938 29.190624 234.15938 29.721874Q234.15938 30.065624 234.37813 30.346874Q234.58125 30.628124 235.05 30.815624Q235.31563 30.909374 236.59688 31.253124Q238.47188 31.753124 239.20625 32.08125Q239.94063 32.39375 240.3625 33.003124Q240.78438 33.596874 240.78438 34.503124Q240.78438 35.378124 240.26875 36.159374Q239.75313 36.940624 238.78438 37.3625Q237.81563 37.784374 236.59688 37.784374Q234.58125 37.784374 233.51875 36.940624Q232.45625 36.096874 232.15938 34.45625ZM251.75313 37.55L247.8 27.175L249.65938 27.175L251.89375 33.39375Q252.25313 34.39375 252.55 35.471874Q252.78438 34.659374 253.20625 33.503124L255.50313 27.175L257.3156 27.175L253.39375 37.55L251.75313 37.55ZM257.15936 34.45625L258.90936 34.175Q259.05 35.221874 259.72186 35.784374Q260.39374 36.33125 261.59686 36.33125Q262.8 36.33125 263.3781 35.846874Q263.97186 35.346874 263.97186 34.690624Q263.97186 34.096874 263.45624 33.753124Q263.09686 33.51875 261.65936 33.159374Q259.72186 32.659374 258.97186 32.315624Q258.2375 31.95625 257.84686 31.33125Q257.45624 30.690624 257.45624 29.925Q257.45624 29.2375 257.76874 28.64375Q258.09686 28.05 258.64374 27.659374Q259.05 27.3625 259.7531 27.159374Q260.47186 26.940624 261.28436 26.940624Q262.5031 26.940624 263.425 27.3Q264.34686 27.64375 264.78436 28.253124Q265.22186 28.846874 265.39374 29.846874L263.675 30.08125Q263.55 29.284374 262.9875 28.846874Q262.425 28.39375 261.40936 28.39375Q260.1906 28.39375 259.675 28.8Q259.15936 29.190624 259.15936 29.721874Q259.15936 30.065624 259.3781 30.346874Q259.58124 30.628124 260.05 30.815624Q260.3156 30.909374 261.59686 31.253124Q263.47186 31.753124 264.20624 32.08125Q264.9406 32.39375 265.3625 33.003124Q265.78436 33.596874 265.78436 34.503124Q265.78436 35.378124 265.26874 36.159374Q264.7531 36.940624 263.78436 37.3625Q262.8156 37.784374 261.59686 37.784374Q259.58124 37.784374 258.51874 36.940624Q257.45624 36.096874 257.15936 34.45625ZM273.15936 34.45625L274.90936 34.175Q275.05 35.221874 275.72186 35.784374Q276.39374 36.33125 277.59686 36.33125Q278.8 36.33125 279.3781 35.846874Q279.97186 35.346874 279.97186 34.690624Q279.97186 34.096874 279.45624 33.753124Q279.09686 33.51875 277.65936 33.159374Q275.72186 32.659374 274.97186 32.315624Q274.2375 31.95625 273.84686 31.33125Q273.45624 30.690624 273.45624 29.925Q273.45624 29.2375 273.76874 28.64375Q274.09686 28.05 274.64374 27.659374Q275.05 27.3625 275.7531 27.159374Q276.47186 26.940624 277.28436 26.940624Q278.5031 26.940624 279.425 27.3Q280.34686 27.64375 280.78436 28.253124Q281.22186 28.846874 281.39374 29.846874L279.675 30.08125Q279.55 29.284374 278.9875 28.846874Q278.425 28.39375 277.40936 28.39375Q276.1906 28.39375 275.675 28.8Q275.15936 29.190624 275.15936 29.721874Q275.15936 30.065624 275.3781 30.346874Q275.58124 30.628124 276.05 30.815624Q276.3156 30.909374 277.59686 31.253124Q279.47186 31.753124 280.20624 32.08125Q280.9406 32.39375 281.3625 33.003124Q281.78436 33.596874 281.78436 34.503124Q281.78436 35.378124 281.26874 36.159374Q280.7531 36.940624 279.78436 37.3625Q278.8156 37.784374 277.59686 37.784374Q275.58124 37.784374 274.51874 36.940624Q273.45624 36.096874 273.15936 34.45625ZM287.70624 35.971874L287.95624 37.534374Q287.22186 37.690624 286.6281 37.690624Q285.675 37.690624 285.14374 37.39375Q284.6281 37.08125 284.40936 36.596874Q284.1906 36.096874 284.1906 34.51875L284.1906 28.55L282.90936 28.55L282.90936 27.175L284.1906 27.175L284.1906 24.6125L285.9406 23.55L285.9406 27.175L287.70624 27.175L287.70624 28.55L285.9406 28.55L285.9406 34.6125Q285.9406 35.3625 286.03436 35.58125Q286.1281 35.784374 286.33124 35.925Q286.55 36.05 286.9406 36.05Q287.22186 36.05 287.70624 35.971874ZM289.84686 37.55L289.84686 27.175L291.425 27.175L291.425 28.753124Q292.03436 27.64375 292.55 27.3Q293.0656 26.940624 293.675 26.940624Q294.5656 26.940624 295.4875 27.503124L294.8781 29.14375Q294.2375 28.753124 293.59686 28.753124Q293.01874 28.753124 292.55 29.1125Q292.09686 29.45625 291.89374 30.065624Q291.6125 31.003124 291.6125 32.1125L291.6125 37.55L289.84686 37.55ZM296.8781 25.253124L296.8781 23.2375L298.64374 23.2375L298.64374 25.253124L296.8781 25.253124ZM296.8781 37.55L296.8781 27.175L298.64374 27.175L298.64374 37.55L296.8781 37.55ZM307.59686 37.55L307.59686 36.2375Q306.6125 37.784374 304.6906 37.784374Q303.45624 37.784374 302.40936 37.096874Q301.3781 36.409374 300.8 35.190624Q300.2375 33.971874 300.2375 32.378124Q300.2375 30.815624 300.7531 29.55Q301.26874 28.284374 302.3 27.6125Q303.34686 26.940624 304.6125 26.940624Q305.55 26.940624 306.28436 27.346874Q307.01874 27.7375 307.4875 28.3625L307.4875 23.2375L309.22186 23.2375L309.22186 37.55L307.59686 37.55ZM302.03436 32.378124Q302.03436 34.3625 302.8781 35.346874Q303.72186 36.33125 304.8625 36.33125Q306.01874 36.33125 306.8156 35.39375Q307.6281 34.45625 307.6281 32.51875Q307.6281 30.39375 306.8 29.39375Q305.9875 28.39375 304.78436 28.39375Q303.6125 28.39375 302.8156 29.3625Q302.03436 30.315624 302.03436 32.378124ZM318.97186 34.20625L320.78436 34.440624Q320.3625 36.01875 319.1906 36.909374Q318.03436 37.784374 316.22186 37.784374Q313.95624 37.784374 312.6125 36.39375Q311.28436 34.9875 311.28436 32.45625Q311.28436 29.83125 312.6281 28.39375Q313.97186 26.940624 316.1281 26.940624Q318.20624 26.940624 319.51874 28.3625Q320.84686 29.76875 320.84686 32.346874Q320.84686 32.503124 320.83124 32.815624L313.09686 32.815624Q313.1906 34.51875 314.0656 35.425Q314.9406 36.33125 316.2375 36.33125Q317.20624 36.33125 317.8781 35.83125Q318.5656 35.315624 318.97186 34.20625ZM313.1906 31.3625L318.9875 31.3625Q318.8781 30.065624 318.33124 29.409374Q317.4875 28.39375 316.14374 28.39375Q314.9406 28.39375 314.1125 29.20625Q313.28436 30.003124 313.1906 31.3625Z" fill-rule="nonzero"/></svg>