<svg version="1.1" viewBox="0.0 0.0 600.0 371.0" fill="none" stroke="none" stroke-linecap="square" stroke-miterlimit="10" width="600" height="371" xmlns:xlink="http://www.w3.org/1999/xlink" xmlns="http://www.w3.org/2000/svg"><path fill="#ffffff" d="M0 0L600.0 0L600.0 371.0L0 371.0L0 0Z" fill-rule="nonzero"/><path stroke="#333333" stroke-width="1.0" stroke-linecap="butt" d="M77.5 300.5L581.5 300.5" fill-rule="nonzero"/><path stroke="#cccccc" stroke-width="1.0" stroke-linecap="butt" d="M77.5 229.5L581.5 229.5" fill-rule="nonzero"/><path stroke="#cccccc" stroke-width="1.0" stroke-linecap="butt" d="M77.5 159.5L581.5 159.5" fill-rule="nonzero"/><path stroke="#cccccc" stroke-width="1.0" stroke-linecap="butt" d="M77.5 88.5L581.5 88.5" fill-rule="nonzero"/><clipPath id="id_0"><path d="M77.55 88.28333L581.45 88.28333L581.45 300.45L77.55 300.45L77.55 88.28333Z" clip-rule="nonzero"/></clipPath><path stroke="#000000" stroke-width="2.0" stroke-linecap="butt" stroke-opacity="0.0" clip-path="url(#id_0)" d="M125.0 300.0L112.0 300.0L112.0 242.0C112.0 240.89543 112.89543 240.0 114.0 240.0L123.0 240.0C124.10457 240.0 125.0 240.89543 125.0 242.0Z" fill-rule="nonzero"/><path fill="#4285f4" clip-path="url(#id_0)" d="M125.0 300.0L112.0 300.0L112.0 242.0C112.0 240.89543 112.89543 240.0 114.0 240.0L123.0 240.0C124.10457 240.0 125.0 240.89543 125.0 242.0Z" fill-rule="nonzero"/><path stroke="#000000" stroke-width="2.0" stroke-linecap="butt" stroke-opacity="0.0" clip-path="url(#id_0)" d="M219.0 300.0L206.0 300.0L206.0 241.0C206.0 239.89543 206.89543 239.0 208.0 239.0L217.0 239.0C218.10457 239.0 219.0 239.89543 219.0 241.0Z" fill-rule="nonzero"/><path fill="#4285f4" clip-path="url(#id_0)" d="M219.0 300.0L206.0 300.0L206.0 241.0C206.0 239.89543 206.89543 239.0 208.0 239.0L217.0 239.0C218.10457 239.0 219.0 239.89543 219.0 241.0Z" fill-rule="nonzero"/><path stroke="#000000" stroke-width="2.0" stroke-linecap="butt" stroke-opacity="0.0" clip-path="url(#id_0)" d="M314.0 300.0L301.0 300.0L301.0 202.0C301.0 200.89543 301.89542 200.0 303.0 200.0L312.0 200.0C313.10458 200.0 314.0 200.89543 314.0 202.0Z" fill-rule="nonzero"/><path fill="#4285f4" clip-path="url(#id_0)" d="M314.0 300.0L301.0 300.0L301.0 202.0C301.0 200.89543 301.89542 200.0 303.0 200.0L312.0 200.0C313.10458 200.0 314.0 200.89543 314.0 202.0Z" fill-rule="nonzero"/><path stroke="#000000" stroke-width="2.0" stroke-linecap="butt" stroke-opacity="0.0" clip-path="url(#id_0)" d="M408.0 300.0L395.0 300.0L395.0 186.0C395.0 184.89543 395.89542 184.0 397.0 184.0L406.0 184.0C407.10458 184.0 408.0 184.89543 408.0 186.0Z" fill-rule="nonzero"/><path fill="#4285f4" clip-path="url(#id_0)" d="M408.0 300.0L395.0 300.0L395.0 186.0C395.0 184.89543 395.89542 184.0 397.0 184.0L406.0 184.0C407.10458 184.0 408.0 184.89543 408.0 186.0Z" fill-rule="nonzero"/><path stroke="#000000" stroke-width="2.0" stroke-linecap="butt" stroke-opacity="0.0" clip-path="url(#id_0)" d="M502.0 300.0L489.0 300.0L489.0 133.0C489.0 131.89543 489.89542 131.0 491.0 131.0L500.0 131.0C501.10458 131.0 502.0 131.89543 502.0 133.0Z" fill-rule="nonzero"/><path fill="#4285f4" clip-path="url(#id_0)" d="M502.0 300.0L489.0 300.0L489.0 133.0C489.0 131.89543 489.89542 131.0 491.0 131.0L500.0 131.0C501.10458 131.0 502.0 131.89543 502.0 133.0Z" fill-rule="nonzero"/><path stroke="#000000" stroke-width="2.0" stroke-linecap="butt" stroke-opacity="0.0" clip-path="url(#id_0)" d="M140.0 300.0L127.0 300.0L127.0 218.0C127.0 216.89543 127.89543 216.0 129.0 216.0L138.0 216.0C139.10457 216.0 140.0 216.89543 140.0 218.0Z" fill-rule="nonzero"/><path fill="#ea4335" clip-path="url(#id_0)" d="M140.0 300.0L127.0 300.0L127.0 218.0C127.0 216.89543 127.89543 216.0 129.0 216.0L138.0 216.0C139.10457 216.0 140.0 216.89543 140.0 218.0Z" fill-rule="nonzero"/><path stroke="#000000" stroke-width="2.0" stroke-linecap="butt" stroke-opacity="0.0" clip-path="url(#id_0)" d="M234.0 300.0L221.0 300.0L221.0 224.0C221.0 222.89543 221.89543 222.0 223.0 222.0L232.0 222.0C233.10457 222.0 234.0 222.89543 234.0 224.0Z" fill-rule="nonzero"/><path fill="#ea4335" clip-path="url(#id_0)" d="M234.0 300.0L221.0 300.0L221.0 224.0C221.0 222.89543 221.89543 222.0 223.0 222.0L232.0 222.0C233.10457 222.0 234.0 222.89543 234.0 224.0Z" fill-rule="nonzero"/><path stroke="#000000" stroke-width="2.0" stroke-linecap="butt" stroke-opacity="0.0" clip-path="url(#id_0)" d="M329.0 300.0L316.0 300.0L316.0 179.0C316.0 177.89543 316.89542 177.0 318.0 177.0L327.0 177.0C328.10458 177.0 329.0 177.89543 329.0 179.0Z" fill-rule="nonzero"/><path fill="#ea4335" clip-path="url(#id_0)" d="M329.0 300.0L316.0 300.0L316.0 179.0C316.0 177.89543 316.89542 177.0 318.0 177.0L327.0 177.0C328.10458 177.0 329.0 177.89543 329.0 179.0Z" fill-rule="nonzero"/><path stroke="#000000" stroke-width="2.0" stroke-linecap="butt" stroke-opacity="0.0" clip-path="url(#id_0)" d="M423.0 300.0L410.0 300.0L410.0 166.0C410.0 164.89543 410.89542 164.0 412.0 164.0L421.0 164.0C422.10458 164.0 423.0 164.89543 423.0 166.0Z" fill-rule="nonzero"/><path fill="#ea4335" clip-path="url(#id_0)" d="M423.0 300.0L410.0 300.0L410.0 166.0C410.0 164.89543 410.89542 164.0 412.0 164.0L421.0 164.0C422.10458 164.0 423.0 164.89543 423.0 166.0Z" fill-rule="nonzero"/><path stroke="#000000" stroke-width="2.0" stroke-linecap="butt" stroke-opacity="0.0" clip-path="url(#id_0)" d="M517.0 300.0L504.0 300.0L504.0 108.0C504.0 106.89543 504.89542 106.0 506.0 106.0L515.0 106.0C516.10455 106.0 517.0 106.89543 517.0 108.0Z" fill-rule="nonzero"/><path fill="#ea4335" clip-path="url(#id_0)" d="M517.0 300.0L504.0 300.0L504.0 108.0C504.0 106.89543 504.89542 106.0 506.0 106.0L515.0 106.0C516.10455 106.0 517.0 106.89543 517.0 108.0Z" fill-rule="nonzero"/><path stroke="#000000" stroke-width="2.0" stroke-linecap="butt" stroke-opacity="0.0" clip-path="url(#id_0)" d="M155.0 300.0L142.0 300.0L142.0 232.0C142.0 230.89543 142.89543 230.0 144.0 230.0L153.0 230.0C154.10457 230.0 155.0 230.89543 155.0 232.0Z" fill-rule="nonzero"/><path fill="#fbbc04" clip-path="url(#id_0)" d="M155.0 300.0L142.0 300.0L142.0 232.0C142.0 230.89543 142.89543 230.0 144.0 230.0L153.0 230.0C154.10457 230.0 155.0 230.89543 155.0 232.0Z" fill-rule="nonzero"/><path stroke="#000000" stroke-width="2.0" stroke-linecap="butt" stroke-opacity="0.0" clip-path="url(#id_0)" d="M249.0 300.0L236.0 300.0L236.0 243.0C236.0 241.89543 236.89543 241.0 238.0 241.0L247.0 241.0C248.10457 241.0 249.0 241.89543 249.0 243.0Z" fill-rule="nonzero"/><path fill="#fbbc04" clip-path="url(#id_0)" d="M249.0 300.0L236.0 300.0L236.0 243.0C236.0 241.89543 236.89543 241.0 238.0 241.0L247.0 241.0C248.10457 241.0 249.0 241.89543 249.0 243.0Z" fill-rule="nonzero"/><path stroke="#000000" stroke-width="2.0" stroke-linecap="butt" stroke-opacity="0.0" clip-path="url(#id_0)" d="M344.0 300.0L331.0 300.0L331.0 202.0C331.0 200.89543 331.89542 200.0 333.0 200.0L342.0 200.0C343.10458 200.0 344.0 200.89543 344.0 202.0Z" fill-rule="nonzero"/><path fill="#fbbc04" clip-path="url(#id_0)" d="M344.0 300.0L331.0 300.0L331.0 202.0C331.0 200.89543 331.89542 200.0 333.0 200.0L342.0 200.0C343.10458 200.0 344.0 200.89543 344.0 202.0Z" fill-rule="nonzero"/><path stroke="#000000" stroke-width="2.0" stroke-linecap="butt" stroke-opacity="0.0" clip-path="url(#id_0)" d="M438.0 300.0L425.0 300.0L425.0 144.0C425.0 142.89543 425.89542 142.0 427.0 142.0L436.0 142.0C437.10458 142.0 438.0 142.89543 438.0 144.0Z" fill-rule="nonzero"/><path fill="#fbbc04" clip-path="url(#id_0)" d="M438.0 300.0L425.0 300.0L425.0 144.0C425.0 142.89543 425.89542 142.0 427.0 142.0L436.0 142.0C437.10458 142.0 438.0 142.89543 438.0 144.0Z" fill-rule="nonzero"/><path stroke="#000000" stroke-width="2.0" stroke-linecap="butt" stroke-opacity="0.0" clip-path="url(#id_0)" d="M532.0 300.0L519.0 300.0L519.0 92.0C519.0 90.89543 519.89545 90.0 521.0 90.0L530.0 90.0C531.10455 90.0 532.0 90.89543 532.0 92.0Z" fill-rule="nonzero"/><path fill="#fbbc04" clip-path="url(#id_0)" d="M532.0 300.0L519.0 300.0L519.0 92.0C519.0 90.89543 519.89545 90.0 521.0 90.0L530.0 90.0C531.10455 90.0 532.0 90.89543 532.0 92.0Z" fill-rule="nonzero"/><path stroke="#000000" stroke-width="2.0" stroke-linecap="butt" stroke-opacity="0.0" clip-path="url(#id_0)" d="M170.0 300.0L157.0 300.0L157.0 161.0C157.0 159.89543 157.89543 159.0 159.0 159.0L168.0 159.0C169.10457 159.0 170.0 159.89543 170.0 161.0Z" fill-rule="nonzero"/><path fill="#34a853" clip-path="url(#id_0)" d="M170.0 300.0L157.0 300.0L157.0 161.0C157.0 159.89543 157.89543 159.0 159.0 159.0L168.0 159.0C169.10457 159.0 170.0 159.89543 170.0 161.0Z" fill-rule="nonzero"/><path stroke="#000000" stroke-width="2.0" stroke-linecap="butt" stroke-opacity="0.0" clip-path="url(#id_0)" d="M264.0 300.0L251.0 300.0L251.0 211.0C251.0 209.89543 251.89543 209.0 253.0 209.0L262.0 209.0C263.10458 209.0 264.0 209.89543 264.0 211.0Z" fill-rule="nonzero"/><path fill="#34a853" clip-path="url(#id_0)" d="M264.0 300.0L251.0 300.0L251.0 211.0C251.0 209.89543 251.89543 209.0 253.0 209.0L262.0 209.0C263.10458 209.0 264.0 209.89543 264.0 211.0Z" fill-rule="nonzero"/><path stroke="#000000" stroke-width="2.0" stroke-linecap="butt" stroke-opacity="0.0" clip-path="url(#id_0)" d="M359.0 300.0L346.0 300.0L346.0 136.0C346.0 134.89543 346.89542 134.0 348.0 134.0L357.0 134.0C358.10458 134.0 359.0 134.89543 359.0 136.0Z" fill-rule="nonzero"/><path fill="#34a853" clip-path="url(#id_0)" d="M359.0 300.0L346.0 300.0L346.0 136.0C346.0 134.89543 346.89542 134.0 348.0 134.0L357.0 134.0C358.10458 134.0 359.0 134.89543 359.0 136.0Z" fill-rule="nonzero"/><path stroke="#000000" stroke-width="2.0" stroke-linecap="butt" stroke-opacity="0.0" clip-path="url(#id_0)" d="M453.0 300.0L440.0 300.0L440.0 160.0C440.0 158.89543 440.89542 158.0 442.0 158.0L451.0 158.0C452.10458 158.0 453.0 158.89543 453.0 160.0Z" fill-rule="nonzero"/><path fill="#34a853" clip-path="url(#id_0)" d="M453.0 300.0L440.0 300.0L440.0 160.0C440.0 158.89543 440.89542 158.0 442.0 158.0L451.0 158.0C452.10458 158.0 453.0 158.89543 453.0 160.0Z" fill-rule="nonzero"/><path stroke="#000000" stroke-width="2.0" stroke-linecap="butt" stroke-opacity="0.0" clip-path="url(#id_0)" d="M547.0 300.0L534.0 300.0L534.0 92.0C534.0 90.89543 534.89545 90.0 536.0 90.0L545.0 90.0C546.10455 90.0 547.0 90.89543 547.0 92.0Z" fill-rule="nonzero"/><path fill="#34a853" clip-path="url(#id_0)" d="M547.0 300.0L534.0 300.0L534.0 92.0C534.0 90.89543 534.89545 90.0 536.0 90.0L545.0 90.0C546.10455 90.0 547.0 90.89543 547.0 92.0Z" fill-rule="nonzero"/><path fill="#000000" d="M302.39062 349.45L302.39062 340.85626L304.10938 340.85626L306.14062 346.9344Q306.42188 347.79376 306.54688 348.21564Q306.6875 347.7469 307.0 346.84064L309.0625 340.85626L310.59375 340.85626L310.59375 349.45L309.5 349.45L309.5 342.2625L307.0 349.45L305.96875 349.45L303.48438 342.1375L303.48438 349.45L302.39062 349.45ZM315.35938 348.6844Q314.76562 349.1844 314.21875 349.3875Q313.6875 349.59064 313.0625 349.59064Q312.03125 349.59064 311.48438 349.09064Q310.9375 348.59064 310.9375 347.8094Q310.9375 347.35626 311.14062 346.98126Q311.34375 346.59064 311.6875 346.3719Q312.03125 346.1375 312.45312 346.02814Q312.75 345.9344 313.39062 345.85626Q314.65625 345.71564 315.26562 345.4969Q315.26562 345.27814 315.26562 345.23126Q315.26562 344.575 314.96875 344.3094Q314.5625 343.96564 313.76562 343.96564Q313.03125 343.96564 312.67188 344.23126Q312.3125 344.48126 312.14062 345.1375L311.10938 344.9969Q311.25 344.34064 311.57812 343.9344Q311.90625 343.52814 312.51562 343.3094Q313.125 343.09064 313.92188 343.09064Q314.71875 343.09064 315.21875 343.27814Q315.71875 343.46564 315.95312 343.7469Q316.1875 344.02814 316.28125 344.46564Q316.32812 344.73126 316.32812 345.4344L316.32812 346.84064Q316.32812 348.3094 316.39062 348.7Q316.46875 349.09064 316.67188 349.45L315.5625 349.45Q315.40625 349.1219 315.35938 348.6844ZM315.26562 346.325Q314.6875 346.5594 313.54688 346.73126Q312.89062 346.825 312.625 346.95Q312.35938 347.0594 312.20312 347.27814Q312.0625 347.4969 312.0625 347.77814Q312.0625 348.2 312.375 348.48126Q312.70312 348.7625 313.3125 348.7625Q313.92188 348.7625 314.39062 348.4969Q314.875 348.23126 315.09375 347.7625Q315.26562 347.40314 315.26562 346.71564L315.26562 346.325ZM320.59375 348.5125L320.75 349.4344Q320.29688 349.52814 319.95312 349.52814Q319.375 349.52814 319.0625 349.35626Q318.75 349.16876 318.60938 348.8719Q318.48438 348.575 318.48438 347.6219L318.48438 344.04376L317.71875 344.04376L317.71875 343.23126L318.48438 343.23126L318.48438 341.6844L319.53125 341.0594L319.53125 343.23126L320.59375 343.23126L320.59375 344.04376L319.53125 344.04376L319.53125 347.6844Q319.53125 348.1375 319.57812 348.2625Q319.64062 348.3875 319.76562 348.46564Q319.89062 348.54376 320.125 348.54376Q320.3125 348.54376 320.59375 348.5125ZM321.28125 349.45L321.28125 343.23126L322.23438 343.23126L322.23438 344.16876Q322.59375 343.5125 322.89062 343.3094Q323.20312 343.09064 323.57812 343.09064Q324.10938 343.09064 324.65625 343.41876L324.29688 344.40314Q323.90625 344.16876 323.53125 344.16876Q323.17188 344.16876 322.89062 344.3875Q322.625 344.59064 322.51562 344.96564Q322.32812 345.52814 322.32812 346.1844L322.32812 349.45L321.28125 349.45ZM325.29688 342.075L325.29688 340.85626L326.35938 340.85626L326.35938 342.075L325.29688 342.075ZM325.29688 349.45L325.29688 343.23126L326.35938 343.23126L326.35938 349.45L325.29688 349.45ZM327.59375 349.45L329.85938 346.21564L327.76562 343.23126L329.07812 343.23126L330.03125 344.6844Q330.29688 345.10626 330.46875 345.3875Q330.71875 344.9969 330.9375 344.7L331.98438 343.23126L333.25 343.23126L331.09375 346.15314L333.40625 349.45L332.125 349.45L330.84375 347.5125L330.5 346.9969L328.85938 349.45L327.59375 349.45ZM335.875 347.59064L336.90625 347.4344Q337.0 348.0594 337.39062 348.3875Q337.79688 348.71564 338.53125 348.71564Q339.25 348.71564 339.59375 348.4344Q339.95312 348.1375 339.95312 347.73126Q339.95312 347.3719 339.64062 347.16876Q339.42188 347.02814 338.5625 346.8094Q337.40625 346.5125 336.95312 346.3094Q336.51562 346.09064 336.28125 345.71564Q336.04688 345.34064 336.04688 344.8719Q336.04688 344.46564 336.23438 344.10626Q336.42188 343.7469 336.75 343.5125Q337.0 343.34064 337.42188 343.21564Q337.84375 343.09064 338.34375 343.09064Q339.0625 343.09064 339.60938 343.3094Q340.17188 343.5125 340.4375 343.8719Q340.70312 344.23126 340.79688 344.825L339.76562 344.96564Q339.70312 344.4969 339.35938 344.23126Q339.03125 343.95 338.40625 343.95Q337.6875 343.95 337.375 344.2Q337.0625 344.4344 337.0625 344.7625Q337.0625 344.96564 337.1875 345.1219Q337.32812 345.29376 337.59375 345.40314Q337.75 345.46564 338.53125 345.66876Q339.65625 345.98126 340.09375 346.16876Q340.53125 346.35626 340.78125 346.71564Q341.03125 347.075 341.03125 347.6219Q341.03125 348.15314 340.71875 348.6219Q340.42188 349.075 339.84375 349.34064Q339.26562 349.59064 338.53125 349.59064Q337.3125 349.59064 336.67188 349.09064Q336.04688 348.575 335.875 347.59064ZM343.29688 342.075L343.29688 340.85626L344.35938 340.85626L344.35938 342.075L343.29688 342.075ZM343.29688 349.45L343.29688 343.23126L344.35938 343.23126L344.35938 349.45L343.29688 349.45ZM345.73438 349.45L345.73438 348.59064L349.70312 344.04376Q349.01562 344.075 348.5 344.075L345.96875 344.075L345.96875 343.23126L351.0625 343.23126L351.0625 343.91876L347.6875 347.8719L347.03125 348.59064Q347.75 348.54376 348.35938 348.54376L351.25 348.54376L351.25 349.45L345.73438 349.45ZM355.54688 347.45L356.64062 347.575Q356.39062 348.52814 355.6875 349.0594Q354.98438 349.59064 353.90625 349.59064Q352.54688 349.59064 351.73438 348.7469Q350.9375 347.90314 350.9375 346.3875Q350.9375 344.825 351.75 343.96564Q352.5625 343.09064 353.84375 343.09064Q355.09375 343.09064 355.875 343.9344Q356.67188 344.77814 356.67188 346.325Q356.67188 346.41876 356.67188 346.60626L352.03125 346.60626Q352.09375 347.6375 352.60938 348.1844Q353.125 348.71564 353.90625 348.71564Q354.48438 348.71564 354.89062 348.41876Q355.3125 348.10626 355.54688 347.45ZM352.09375 345.7469L355.5625 345.7469Q355.5 344.95 355.17188 344.5594Q354.65625 343.95 353.85938 343.95Q353.125 343.95 352.625 344.4344Q352.14062 344.91876 352.09375 345.7469Z" fill-rule="nonzero"/><path fill="#000000" d="M27.690638 224.99167L27.534388 223.96042Q28.159388 223.86667 28.487513 223.47604Q28.815638 223.0698 28.815638 222.33542Q28.815638 221.61667 28.534388 221.27292Q28.237513 220.91354 27.831263 220.91354Q27.471888 220.91354 27.268763 221.22604Q27.128138 221.4448 26.909388 222.30417Q26.612513 223.46042 26.409388 223.91354Q26.190638 224.35104 25.815638 224.58542Q25.440638 224.8198 24.971888 224.8198Q24.565638 224.8198 24.206263 224.6323Q23.846888 224.4448 23.612513 224.11667Q23.440638 223.86667 23.315638 223.4448Q23.190638 223.02292 23.190638 222.52292Q23.190638 221.80417 23.409388 221.2573Q23.612513 220.6948 23.971888 220.42917Q24.331263 220.16354 24.925013 220.0698L25.065638 221.10104Q24.596888 221.16354 24.331263 221.5073Q24.050013 221.83542 24.050013 222.46042Q24.050013 223.17917 24.300013 223.49167Q24.534388 223.80417 24.862513 223.80417Q25.065638 223.80417 25.221888 223.67917Q25.393763 223.53854 25.503138 223.27292Q25.565638 223.11667 25.768763 222.33542Q26.081263 221.21042 26.268763 220.77292Q26.456263 220.33542 26.815638 220.08542Q27.175013 219.83542 27.721888 219.83542Q28.253138 219.83542 28.721888 220.14792Q29.175013 220.4448 29.440638 221.02292Q29.690638 221.60104 29.690638 222.33542Q29.690638 223.55417 29.190638 224.1948Q28.675013 224.8198 27.690638 224.99167ZM31.940638 217.5698L23.331263 217.5698L23.331263 216.61667L24.128138 216.61667Q23.659388 216.27292 23.425013 215.85104Q23.190638 215.41354 23.190638 214.80417Q23.190638 214.0073 23.596888 213.39792Q24.003138 212.78854 24.753138 212.49167Q25.503138 212.17917 26.393763 212.17917Q27.346888 212.17917 28.112513 212.52292Q28.878138 212.85104 29.284388 213.5073Q29.690638 214.16354 29.690638 214.8823Q29.690638 215.41354 29.471888 215.83542Q29.237513 216.2573 28.909388 216.52292L31.940638 216.52292L31.940638 217.5698ZM26.471888 216.61667Q27.675013 216.61667 28.253138 216.1323Q28.815638 215.64792 28.815638 214.96042Q28.815638 214.2573 28.221888 213.7573Q27.628138 213.2573 26.378138 213.2573Q25.190638 213.2573 24.612513 213.74167Q24.018763 214.22604 24.018763 214.91354Q24.018763 215.58542 24.643763 216.10104Q25.268763 216.61667 26.471888 216.61667ZM27.550013 206.3198L27.675013 205.22604Q28.628138 205.47604 29.159388 206.17917Q29.690638 206.8823 29.690638 207.96042Q29.690638 209.3198 28.846888 210.1323Q28.003138 210.92917 26.487513 210.92917Q24.925013 210.92917 24.065638 210.11667Q23.190638 209.30417 23.190638 208.02292Q23.190638 206.77292 24.034388 205.99167Q24.878138 205.1948 26.425013 205.1948Q26.518763 205.1948 26.706263 205.1948L26.706263 209.83542Q27.737513 209.77292 28.284388 209.2573Q28.815638 208.74167 28.815638 207.96042Q28.815638 207.3823 28.518763 206.97604Q28.206263 206.55417 27.550013 206.3198ZM25.846888 209.77292L25.846888 206.30417Q25.050013 206.36667 24.659388 206.6948Q24.050013 207.21042 24.050013 208.0073Q24.050013 208.74167 24.534388 209.24167Q25.018763 209.72604 25.846888 209.77292ZM27.550013 199.3198L27.675013 198.22604Q28.628138 198.47604 29.159388 199.17917Q29.690638 199.8823 29.690638 200.96042Q29.690638 202.3198 28.846888 203.1323Q28.003138 203.92917 26.487513 203.92917Q24.925013 203.92917 24.065638 203.11667Q23.190638 202.30417 23.190638 201.02292Q23.190638 199.77292 24.034388 198.99167Q24.878138 198.1948 26.425013 198.1948Q26.518763 198.1948 26.706263 198.1948L26.706263 202.83542Q27.737513 202.77292 28.284388 202.2573Q28.815638 201.74167 28.815638 200.96042Q28.815638 200.3823 28.518763 199.97604Q28.206263 199.55417 27.550013 199.3198ZM25.846888 202.77292L25.846888 199.30417Q25.050013 199.36667 24.659388 199.6948Q24.050013 200.21042 24.050013 201.0073Q24.050013 201.74167 24.534388 202.24167Q25.018763 202.72604 25.846888 202.77292ZM29.550013 192.53854L28.768763 192.53854Q29.690638 193.1323 29.690638 194.27292Q29.690638 195.02292 29.284388 195.64792Q28.862513 196.27292 28.128138 196.61667Q27.393763 196.96042 26.440638 196.96042Q25.518763 196.96042 24.753138 196.64792Q23.987513 196.33542 23.596888 195.71042Q23.190638 195.08542 23.190638 194.3198Q23.190638 193.7573 23.425013 193.3198Q23.659388 192.8823 24.034388 192.60104L20.956263 192.60104L20.956263 191.55417L29.550013 191.55417L29.550013 192.53854ZM26.440638 195.86667Q27.643763 195.86667 28.237513 195.36667Q28.815638 194.86667 28.815638 194.17917Q28.815638 193.49167 28.253138 193.0073Q27.690638 192.52292 26.534388 192.52292Q25.253138 192.52292 24.659388 193.02292Q24.065638 193.5073 24.065638 194.22604Q24.065638 194.92917 24.643763 195.39792Q25.206263 195.86667 26.440638 195.86667ZM29.550013 185.49167L28.628138 185.49167Q29.690638 186.22604 29.690638 187.47604Q29.690638 188.02292 29.487513 188.5073Q29.268763 188.97604 28.956263 189.21042Q28.628138 189.4448 28.159388 189.53854Q27.862513 189.60104 27.175013 189.60104L23.331263 189.60104L23.331263 188.53854L26.784388 188.53854Q27.596888 188.53854 27.893763 188.47604Q28.300013 188.3823 28.550013 188.0698Q28.784388 187.74167 28.784388 187.2573Q28.784388 186.78854 28.550013 186.3823Q28.300013 185.96042 27.878138 185.78854Q27.456263 185.60104 26.659388 185.60104L23.331263 185.60104L23.331263 184.55417L29.550013 184.55417L29.550013 185.49167ZM31.940638 182.5698L23.331263 182.5698L23.331263 181.61667L24.128138 181.61667Q23.659388 181.27292 23.425013 180.85104Q23.190638 180.41354 23.190638 179.80417Q23.190638 179.0073 23.596888 178.39792Q24.003138 177.78854 24.753138 177.49167Q25.503138 177.17917 26.393763 177.17917Q27.346888 177.17917 28.112513 177.52292Q28.878138 177.85104 29.284388 178.5073Q29.690638 179.16354 29.690638 179.8823Q29.690638 180.41354 29.471888 180.83542Q29.237513 181.2573 28.909388 181.52292L31.940638 181.52292L31.940638 182.5698ZM26.471888 181.61667Q27.675013 181.61667 28.253138 181.1323Q28.815638 180.64792 28.815638 179.96042Q28.815638 179.2573 28.221888 178.7573Q27.628138 178.2573 26.378138 178.2573Q25.190638 178.2573 24.612513 178.74167Q24.018763 179.22604 24.018763 179.91354Q24.018763 180.58542 24.643763 181.10104Q25.268763 181.61667 26.471888 181.61667Z" fill-rule="nonzero"/><path fill="#000000" d="M65.05 300.21564Q65.05 298.6844 65.3625 297.7625Q65.675 296.825 66.28438 296.325Q66.90938 295.825 67.84688 295.825Q68.53438 295.825 69.05 296.10626Q69.58125 296.3875 69.925 296.91876Q70.26875 297.4344 70.45625 298.1844Q70.64375 298.9344 70.64375 300.21564Q70.64375 301.73126 70.33125 302.65314Q70.03438 303.575 69.40938 304.09064Q68.8 304.59064 67.84688 304.59064Q66.6125 304.59064 65.89375 303.7Q65.05 302.6375 65.05 300.21564ZM66.12813 300.21564Q66.12813 302.325 66.62813 303.02814Q67.12813 303.73126 67.84688 303.73126Q68.58125 303.73126 69.06563 303.02814Q69.56563 302.325 69.56563 300.21564Q69.56563 298.09064 69.06563 297.40314Q68.58125 296.7 67.83125 296.7Q67.1125 296.7 66.675 297.3094Q66.12813 298.09064 66.12813 300.21564Z" fill-rule="nonzero"/><path fill="#000000" d="M70.59688 232.71216L70.59688 233.72778L64.90938 233.72778Q64.90938 233.35278 65.03438 232.99341Q65.25313 232.41528 65.72188 231.85278Q66.20625 231.29028 67.1125 230.55591Q68.51875 229.39966 69.00313 228.72778Q69.50313 228.05591 69.50313 227.46216Q69.50313 226.83716 69.05 226.41528Q68.59688 225.97778 67.87813 225.97778Q67.1125 225.97778 66.65938 226.43091Q66.20625 226.88403 66.19063 227.69653L65.1125 227.58716Q65.22188 226.36841 65.94063 225.74341Q66.675 225.10278 67.90938 225.10278Q69.14375 225.10278 69.8625 225.79028Q70.58125 226.47778 70.58125 227.49341Q70.58125 228.00903 70.3625 228.50903Q70.15938 228.99341 69.65938 229.55591Q69.175 230.10278 68.05 231.05591Q67.09688 231.85278 66.81563 232.14966Q66.55 232.43091 66.37813 232.71216L70.59688 232.71216Z" fill-rule="nonzero"/><path fill="#000000" d="M68.425 163.00555L68.425 160.94305L64.70625 160.94305L64.70625 159.9743L68.62813 154.4118L69.4875 154.4118L69.4875 159.9743L70.64375 159.9743L70.64375 160.94305L69.4875 160.94305L69.4875 163.00555L68.425 163.00555ZM68.425 159.9743L68.425 156.11493L65.7375 159.9743L68.425 159.9743Z" fill-rule="nonzero"/><path fill="#000000" d="M70.51875 85.79896L69.47188 85.87708Q69.33125 85.25208 69.08125 84.97083Q68.64375 84.51771 68.01875 84.51771Q67.51875 84.51771 67.12813 84.79896Q66.64375 85.17396 66.34688 85.87708Q66.06563 86.56458 66.05 87.84583Q66.425 87.26771 66.97188 86.98646Q67.53438 86.70521 68.14375 86.70521Q69.19063 86.70521 69.925 87.48646Q70.675 88.26771 70.675 89.48646Q70.675 90.29896 70.31563 91.00208Q69.97188 91.68958 69.3625 92.06458Q68.75313 92.42396 67.9875 92.42396Q66.65938 92.42396 65.83125 91.45521Q65.00313 90.48646 65.00313 88.26771Q65.00313 85.76771 65.925 84.64271Q66.72188 83.65833 68.08125 83.65833Q69.09688 83.65833 69.7375 84.23646Q70.39375 84.79896 70.51875 85.79896ZM66.22188 89.50208Q66.22188 90.04896 66.44063 90.54896Q66.675 91.03333 67.08125 91.29896Q67.50313 91.56458 67.97188 91.56458Q68.62813 91.56458 69.1125 91.03333Q69.59688 90.48646 69.59688 89.56458Q69.59688 88.67396 69.1125 88.15833Q68.64375 87.64271 67.925 87.64271Q67.20625 87.64271 66.70625 88.15833Q66.22188 88.67396 66.22188 89.50208Z" fill-rule="nonzero"/><path fill="#000000" d="M136.67305 316.4344L136.67305 317.45L130.98555 317.45Q130.98555 317.075 131.11055 316.71564Q131.3293 316.1375 131.79805 315.575Q132.28242 315.0125 133.18867 314.27814Q134.59492 313.1219 135.0793 312.45Q135.5793 311.77814 135.5793 311.1844Q135.5793 310.5594 135.12617 310.1375Q134.67305 309.7 133.9543 309.7Q133.18867 309.7 132.73555 310.15314Q132.28242 310.60626 132.2668 311.41876L131.18867 311.3094Q131.29805 310.09064 132.0168 309.46564Q132.75117 308.825 133.98555 308.825Q135.21992 308.825 135.93867 309.5125Q136.65742 310.2 136.65742 311.21564Q136.65742 311.73126 136.43867 312.23126Q136.23555 312.71564 135.73555 313.27814Q135.25117 313.825 134.12617 314.77814Q133.17305 315.575 132.8918 315.8719Q132.62617 316.15314 132.4543 316.4344L136.67305 316.4344ZM138.12617 315.2L139.23555 315.10626Q139.36055 315.91876 139.79805 316.325Q140.25117 316.73126 140.8918 316.73126Q141.6418 316.73126 142.17305 316.15314Q142.7043 315.575 142.7043 314.6375Q142.7043 313.73126 142.18867 313.21564Q141.68867 312.6844 140.86055 312.6844Q140.36055 312.6844 139.93867 312.91876Q139.53242 313.15314 139.29805 313.5125L138.31367 313.3875L139.1418 308.98126L143.42305 308.98126L143.42305 309.98126L139.98555 309.98126L139.53242 312.29376Q140.29805 311.7469 141.1418 311.7469Q142.2668 311.7469 143.03242 312.52814Q143.81367 313.3094 143.81367 314.54376Q143.81367 315.7 143.1418 316.5594Q142.31367 317.59064 140.8918 317.59064Q139.71992 317.59064 138.96992 316.9344Q138.23555 316.27814 138.12617 315.2ZM150.59492 310.96564L149.54805 311.04376Q149.40742 310.41876 149.15742 310.1375Q148.71992 309.6844 148.09492 309.6844Q147.59492 309.6844 147.2043 309.96564Q146.71992 310.34064 146.42305 311.04376Q146.1418 311.73126 146.12617 313.0125Q146.50117 312.4344 147.04805 312.15314Q147.61055 311.8719 148.21992 311.8719Q149.2668 311.8719 150.00117 312.65314Q150.75117 313.4344 150.75117 314.65314Q150.75117 315.46564 150.3918 316.16876Q150.04805 316.85626 149.43867 317.23126Q148.8293 317.59064 148.06367 317.59064Q146.73555 317.59064 145.90742 316.6219Q145.0793 315.65314 145.0793 313.4344Q145.0793 310.9344 146.00117 309.8094Q146.79805 308.825 148.15742 308.825Q149.17305 308.825 149.81367 309.40314Q150.46992 309.96564 150.59492 310.96564ZM146.29805 314.66876Q146.29805 315.21564 146.5168 315.71564Q146.75117 316.2 147.15742 316.46564Q147.5793 316.73126 148.04805 316.73126Q148.7043 316.73126 149.18867 316.2Q149.67305 315.65314 149.67305 314.73126Q149.67305 313.84064 149.18867 313.325Q148.71992 312.8094 148.00117 312.8094Q147.28242 312.8094 146.78242 313.325Q146.29805 313.84064 146.29805 314.66876Z" fill-rule="nonzero"/><path fill="#000000" d="M225.31308 315.2L226.42245 315.10626Q226.54745 315.91876 226.98495 316.325Q227.43808 316.73126 228.0787 316.73126Q228.8287 316.73126 229.35995 316.15314Q229.8912 315.575 229.8912 314.6375Q229.8912 313.73126 229.37558 313.21564Q228.87558 312.6844 228.04745 312.6844Q227.54745 312.6844 227.12558 312.91876Q226.71933 313.15314 226.48495 313.5125L225.50058 313.3875L226.3287 308.98126L230.60995 308.98126L230.60995 309.98126L227.17245 309.98126L226.71933 312.29376Q227.48495 311.7469 228.3287 311.7469Q229.4537 311.7469 230.21933 312.52814Q231.00058 313.3094 231.00058 314.54376Q231.00058 315.7 230.3287 316.5594Q229.50058 317.59064 228.0787 317.59064Q226.90683 317.59064 226.15683 316.9344Q225.42245 316.27814 225.31308 315.2ZM236.28183 317.45L235.23495 317.45L235.23495 310.73126Q234.84433 311.09064 234.21933 311.46564Q233.60995 311.825 233.12558 311.9969L233.12558 310.98126Q234.00058 310.5594 234.65683 309.98126Q235.3287 309.3875 235.60995 308.825L236.28183 308.825L236.28183 317.45ZM244.85995 316.4344L244.85995 317.45L239.17245 317.45Q239.17245 317.075 239.29745 316.71564Q239.5162 316.1375 239.98495 315.575Q240.46933 315.0125 241.37558 314.27814Q242.78183 313.1219 243.2662 312.45Q243.7662 311.77814 243.7662 311.1844Q243.7662 310.5594 243.31308 310.1375Q242.85995 309.7 242.1412 309.7Q241.37558 309.7 240.92245 310.15314Q240.46933 310.60626 240.4537 311.41876L239.37558 311.3094Q239.48495 310.09064 240.2037 309.46564Q240.93808 308.825 242.17245 308.825Q243.40683 308.825 244.12558 309.5125Q244.84433 310.2 244.84433 311.21564Q244.84433 311.73126 244.62558 312.23126Q244.42245 312.71564 243.92245 313.27814Q243.43808 313.825 242.31308 314.77814Q241.35995 315.575 241.0787 315.8719Q240.81308 316.15314 240.6412 316.4344L244.85995 316.4344Z" fill-rule="nonzero"/><path fill="#000000" d="M319.96875 317.45L318.92188 317.45L318.92188 310.73126Q318.53125 311.09064 317.90625 311.46564Q317.29688 311.825 316.8125 311.9969L316.8125 310.98126Q317.6875 310.5594 318.34375 309.98126Q319.01562 309.3875 319.29688 308.825L319.96875 308.825L319.96875 317.45ZM323.0 313.21564Q323.0 311.6844 323.3125 310.7625Q323.625 309.825 324.23438 309.325Q324.85938 308.825 325.79688 308.825Q326.48438 308.825 327.0 309.10626Q327.53125 309.3875 327.875 309.91876Q328.21875 310.4344 328.40625 311.1844Q328.59375 311.9344 328.59375 313.21564Q328.59375 314.73126 328.28125 315.65314Q327.98438 316.575 327.35938 317.09064Q326.75 317.59064 325.79688 317.59064Q324.5625 317.59064 323.84375 316.7Q323.0 315.6375 323.0 313.21564ZM324.07812 313.21564Q324.07812 315.325 324.57812 316.02814Q325.07812 316.73126 325.79688 316.73126Q326.53125 316.73126 327.01562 316.02814Q327.51562 315.325 327.51562 313.21564Q327.51562 311.09064 327.01562 310.40314Q326.53125 309.7 325.78125 309.7Q325.0625 309.7 324.625 310.3094Q324.07812 311.09064 324.07812 313.21564ZM335.54688 316.4344L335.54688 317.45L329.85938 317.45Q329.85938 317.075 329.98438 316.71564Q330.20312 316.1375 330.67188 315.575Q331.15625 315.0125 332.0625 314.27814Q333.46875 313.1219 333.95312 312.45Q334.45312 311.77814 334.45312 311.1844Q334.45312 310.5594 334.0 310.1375Q333.54688 309.7 332.82812 309.7Q332.0625 309.7 331.60938 310.15314Q331.15625 310.60626 331.14062 311.41876L330.0625 311.3094Q330.17188 310.09064 330.89062 309.46564Q331.625 308.825 332.85938 308.825Q334.09375 308.825 334.8125 309.5125Q335.53125 310.2 335.53125 311.21564Q335.53125 311.73126 335.3125 312.23126Q335.10938 312.71564 334.60938 313.27814Q334.125 313.825 333.0 314.77814Q332.04688 315.575 331.76562 315.8719Q331.5 316.15314 331.32812 316.4344L335.54688 316.4344ZM340.375 317.45L340.375 315.3875L336.65625 315.3875L336.65625 314.41876L340.57812 308.85626L341.4375 308.85626L341.4375 314.41876L342.59375 314.41876L342.59375 315.3875L341.4375 315.3875L341.4375 317.45L340.375 317.45ZM340.375 314.41876L340.375 310.5594L337.6875 314.41876L340.375 314.41876Z" fill-rule="nonzero"/><path fill="#000000" d="M415.7338 316.4344L415.7338 317.45L410.0463 317.45Q410.0463 317.075 410.1713 316.71564Q410.39005 316.1375 410.8588 315.575Q411.34317 315.0125 412.24942 314.27814Q413.65567 313.1219 414.14005 312.45Q414.64005 311.77814 414.64005 311.1844Q414.64005 310.5594 414.18692 310.1375Q413.7338 309.7 413.01505 309.7Q412.24942 309.7 411.7963 310.15314Q411.34317 310.60626 411.32755 311.41876L410.24942 311.3094Q410.3588 310.09064 411.07755 309.46564Q411.81192 308.825 413.0463 308.825Q414.28067 308.825 414.99942 309.5125Q415.71817 310.2 415.71817 311.21564Q415.71817 311.73126 415.49942 312.23126Q415.2963 312.71564 414.7963 313.27814Q414.31192 313.825 413.18692 314.77814Q412.2338 315.575 411.95255 315.8719Q411.68692 316.15314 411.51505 316.4344L415.7338 316.4344ZM417.18692 313.21564Q417.18692 311.6844 417.49942 310.7625Q417.81192 309.825 418.4213 309.325Q419.0463 308.825 419.9838 308.825Q420.6713 308.825 421.18692 309.10626Q421.71817 309.3875 422.06192 309.91876Q422.40567 310.4344 422.59317 311.1844Q422.78067 311.9344 422.78067 313.21564Q422.78067 314.73126 422.46817 315.65314Q422.1713 316.575 421.5463 317.09064Q420.93692 317.59064 419.9838 317.59064Q418.74942 317.59064 418.03067 316.7Q417.18692 315.6375 417.18692 313.21564ZM418.26505 313.21564Q418.26505 315.325 418.76505 316.02814Q419.26505 316.73126 419.9838 316.73126Q420.71817 316.73126 421.20255 316.02814Q421.70255 315.325 421.70255 313.21564Q421.70255 311.09064 421.20255 310.40314Q420.71817 309.7 419.96817 309.7Q419.24942 309.7 418.81192 310.3094Q418.26505 311.09064 418.26505 313.21564ZM427.56192 317.45L427.56192 315.3875L423.84317 315.3875L423.84317 314.41876L427.76505 308.85626L428.62442 308.85626L428.62442 314.41876L429.78067 314.41876L429.78067 315.3875L428.62442 315.3875L428.62442 317.45L427.56192 317.45ZM427.56192 314.41876L427.56192 310.5594L424.87442 314.41876L427.56192 314.41876ZM432.81192 312.79376Q432.15567 312.54376 431.82755 312.10626Q431.51505 311.65314 431.51505 311.04376Q431.51505 310.10626 432.18692 309.46564Q432.87442 308.825 433.9838 308.825Q435.1088 308.825 435.7963 309.48126Q436.4838 310.1375 436.4838 311.075Q436.4838 311.66876 436.1713 312.10626Q435.8588 312.54376 435.21817 312.79376Q436.01505 313.04376 436.4213 313.6219Q436.82755 314.2 436.82755 314.9969Q436.82755 316.09064 436.0463 316.84064Q435.28067 317.59064 433.99942 317.59064Q432.7338 317.59064 431.95255 316.84064Q431.1713 316.09064 431.1713 314.96564Q431.1713 314.1219 431.59317 313.5594Q432.03067 312.9969 432.81192 312.79376ZM432.59317 310.9969Q432.59317 311.60626 432.9838 311.9969Q433.39005 312.3875 434.01505 312.3875Q434.62442 312.3875 435.01505 312.0125Q435.40567 311.6219 435.40567 311.0594Q435.40567 310.48126 434.99942 310.09064Q434.59317 309.6844 433.99942 309.6844Q433.39005 309.6844 432.9838 310.075Q432.59317 310.46564 432.59317 310.9969ZM432.26505 314.96564Q432.26505 315.41876 432.46817 315.84064Q432.68692 316.2625 433.1088 316.4969Q433.53067 316.73126 434.01505 316.73126Q434.76505 316.73126 435.24942 316.2469Q435.74942 315.7625 435.74942 315.0125Q435.74942 314.2469 435.24942 313.7469Q434.74942 313.2469 433.9838 313.2469Q433.2338 313.2469 432.74942 313.7469Q432.26505 314.23126 432.26505 314.96564Z" fill-rule="nonzero"/><path fill="#000000" d="M507.74884 317.45L507.74884 315.3875L504.0301 315.3875L504.0301 314.41876L507.95197 308.85626L508.81134 308.85626L508.81134 314.41876L509.9676 314.41876L509.9676 315.3875L508.81134 315.3875L508.81134 317.45L507.74884 317.45ZM507.74884 314.41876L507.74884 310.5594L505.06134 314.41876L507.74884 314.41876ZM511.37384 313.21564Q511.37384 311.6844 511.68634 310.7625Q511.99884 309.825 512.6082 309.325Q513.2332 308.825 514.1707 308.825Q514.8582 308.825 515.37384 309.10626Q515.9051 309.3875 516.24884 309.91876Q516.5926 310.4344 516.7801 311.1844Q516.9676 311.9344 516.9676 313.21564Q516.9676 314.73126 516.6551 315.65314Q516.3582 316.575 515.7332 317.09064Q515.12384 317.59064 514.1707 317.59064Q512.93634 317.59064 512.2176 316.7Q511.37384 315.6375 511.37384 313.21564ZM512.45197 313.21564Q512.45197 315.325 512.95197 316.02814Q513.45197 316.73126 514.1707 316.73126Q514.9051 316.73126 515.38947 316.02814Q515.88947 315.325 515.88947 313.21564Q515.88947 311.09064 515.38947 310.40314Q514.9051 309.7 514.1551 309.7Q513.43634 309.7 512.99884 310.3094Q512.45197 311.09064 512.45197 313.21564ZM518.5301 315.46564L519.5457 315.3719Q519.6707 316.09064 520.0301 316.41876Q520.4051 316.73126 520.9676 316.73126Q521.45197 316.73126 521.81134 316.5125Q522.18634 316.27814 522.4207 315.91876Q522.6551 315.54376 522.81134 314.91876Q522.9676 314.27814 522.9676 313.6219Q522.9676 313.54376 522.9676 313.40314Q522.6551 313.90314 522.1082 314.23126Q521.56134 314.54376 520.9207 314.54376Q519.8426 314.54376 519.1082 313.77814Q518.37384 312.9969 518.37384 311.73126Q518.37384 310.41876 519.13947 309.6219Q519.9207 308.825 521.07697 308.825Q521.9051 308.825 522.5926 309.27814Q523.2957 309.73126 523.6551 310.575Q524.01447 311.40314 524.01447 312.98126Q524.01447 314.6219 523.6551 315.60626Q523.31134 316.575 522.5926 317.09064Q521.88947 317.59064 520.95197 317.59064Q519.93634 317.59064 519.2957 317.04376Q518.6551 316.48126 518.5301 315.46564ZM522.8426 311.66876Q522.8426 310.7625 522.3582 310.23126Q521.88947 309.7 521.20197 309.7Q520.49884 309.7 519.9676 310.27814Q519.45197 310.84064 519.45197 311.7625Q519.45197 312.575 519.95197 313.09064Q520.45197 313.60626 521.1707 313.60626Q521.9051 313.60626 522.37384 313.09064Q522.8426 312.575 522.8426 311.66876ZM530.8426 310.96564L529.7957 311.04376Q529.6551 310.41876 529.4051 310.1375Q528.9676 309.6844 528.3426 309.6844Q527.8426 309.6844 527.45197 309.96564Q526.9676 310.34064 526.6707 311.04376Q526.38947 311.73126 526.37384 313.0125Q526.74884 312.4344 527.2957 312.15314Q527.8582 311.8719 528.4676 311.8719Q529.51447 311.8719 530.24884 312.65314Q530.99884 313.4344 530.99884 314.65314Q530.99884 315.46564 530.63947 316.16876Q530.2957 316.85626 529.68634 317.23126Q529.07697 317.59064 528.31134 317.59064Q526.9832 317.59064 526.1551 316.6219Q525.32697 315.65314 525.32697 313.4344Q525.32697 310.9344 526.24884 309.8094Q527.0457 308.825 528.4051 308.825Q529.4207 308.825 530.06134 309.40314Q530.7176 309.96564 530.8426 310.96564ZM526.5457 314.66876Q526.5457 315.21564 526.76447 315.71564Q526.99884 316.2 527.4051 316.46564Q527.82697 316.73126 528.2957 316.73126Q528.95197 316.73126 529.43634 316.2Q529.9207 315.65314 529.9207 314.73126Q529.9207 313.84064 529.43634 313.325Q528.9676 312.8094 528.24884 312.8094Q527.5301 312.8094 527.0301 313.325Q526.5457 313.84064 526.5457 314.66876Z" fill-rule="nonzero"/><path fill="#4285f4" d="M155.0 56.916668C155.0 56.364384 155.44771 55.916668 156.0 55.916668L166.0 55.916668C166.55229 55.916668 167.0 56.364384 167.0 56.916668L167.0 66.916664C167.0 67.46895 166.55229 67.916664 166.0 67.916664L156.0 67.916664C155.44771 67.916664 155.0 67.46895 155.0 66.916664Z" fill-rule="nonzero"/><path fill="#1a1a1a" d="M175.9375 65.916664L175.9375 57.322914L179.75 57.322914Q180.90625 57.322914 181.5 57.55729Q182.09375 57.791664 182.45312 58.385414Q182.8125 58.96354 182.8125 59.666664Q182.8125 60.58854 182.21875 61.21354Q181.625 61.83854 180.39062 62.010414Q180.84375 62.229164 181.07812 62.43229Q181.57812 62.885414 182.01562 63.572914L183.51562 65.916664L182.07812 65.916664L180.95312 64.135414Q180.45312 63.354164 180.125 62.947914Q179.8125 62.541664 179.54688 62.385414Q179.29688 62.21354 179.03125 62.135414Q178.84375 62.104164 178.40625 62.104164L177.07812 62.104164L177.07812 65.916664L175.9375 65.916664ZM177.07812 61.11979L179.53125 61.11979Q180.29688 61.11979 180.73438 60.96354Q181.1875 60.791664 181.40625 60.447914Q181.64062 60.08854 181.64062 59.666664Q181.64062 59.05729 181.1875 58.666664Q180.75 58.27604 179.79688 58.27604L177.07812 58.27604L177.07812 61.11979ZM189.04688 63.916664L190.14062 64.041664Q189.89062 64.99479 189.1875 65.52604Q188.48438 66.05729 187.40625 66.05729Q186.04688 66.05729 185.23438 65.21354Q184.4375 64.36979 184.4375 62.854164Q184.4375 61.291664 185.25 60.43229Q186.0625 59.55729 187.34375 59.55729Q188.59375 59.55729 189.375 60.40104Q190.17188 61.24479 190.17188 62.791664Q190.17188 62.885414 190.17188 63.072914L185.53125 63.072914Q185.59375 64.104164 186.10938 64.65104Q186.625 65.18229 187.40625 65.18229Q187.98438 65.18229 188.39062 64.885414Q188.8125 64.572914 189.04688 63.916664ZM185.59375 62.21354L189.0625 62.21354Q189.0 61.416664 188.67188 61.02604Q188.15625 60.416664 187.35938 60.416664Q186.625 60.416664 186.125 60.90104Q185.64062 61.385414 185.59375 62.21354ZM191.40625 62.80729Q191.40625 61.072914 192.35938 60.24479Q193.15625 59.55729 194.3125 59.55729Q195.59375 59.55729 196.40625 60.40104Q197.23438 61.229164 197.23438 62.71354Q197.23438 63.916664 196.875 64.604164Q196.51562 65.291664 195.8125 65.68229Q195.125 66.05729 194.3125 66.05729Q193.01562 66.05729 192.20312 65.229164Q191.40625 64.385414 191.40625 62.80729ZM192.48438 62.80729Q192.48438 63.99479 193.0 64.58854Q193.53125 65.18229 194.3125 65.18229Q195.10938 65.18229 195.625 64.58854Q196.14062 63.99479 196.14062 62.77604Q196.14062 61.61979 195.60938 61.02604Q195.09375 60.43229 194.3125 60.43229Q193.53125 60.43229 193.0 61.02604Q192.48438 61.604164 192.48438 62.80729ZM198.78125 65.916664L198.78125 59.697914L199.73438 59.697914L199.73438 60.635414Q200.09375 59.979164 200.39062 59.77604Q200.70312 59.55729 201.07812 59.55729Q201.60938 59.55729 202.15625 59.885414L201.79688 60.86979Q201.40625 60.635414 201.03125 60.635414Q200.67188 60.635414 200.39062 60.854164Q200.125 61.05729 200.01562 61.43229Q199.82812 61.99479 199.82812 62.65104L199.82812 65.916664L198.78125 65.916664ZM206.82812 65.916664L206.82812 65.135414Q206.23438 66.05729 205.09375 66.05729Q204.34375 66.05729 203.71875 65.65104Q203.09375 65.229164 202.75 64.49479Q202.40625 63.760414 202.40625 62.80729Q202.40625 61.885414 202.71875 61.11979Q203.03125 60.354164 203.65625 59.96354Q204.28125 59.55729 205.04688 59.55729Q205.60938 59.55729 206.04688 59.791664Q206.48438 60.02604 206.76562 60.40104L206.76562 57.322914L207.8125 57.322914L207.8125 65.916664L206.82812 65.916664ZM203.5 62.80729Q203.5 64.010414 204.0 64.604164Q204.5 65.18229 205.1875 65.18229Q205.875 65.18229 206.35938 64.61979Q206.84375 64.05729 206.84375 62.90104Q206.84375 61.61979 206.34375 61.02604Q205.85938 60.43229 205.14062 60.43229Q204.4375 60.43229 203.96875 61.010414Q203.5 61.572914 203.5 62.80729ZM214.04688 63.916664L215.14062 64.041664Q214.89062 64.99479 214.1875 65.52604Q213.48438 66.05729 212.40625 66.05729Q211.04688 66.05729 210.23438 65.21354Q209.4375 64.36979 209.4375 62.854164Q209.4375 61.291664 210.25 60.43229Q211.0625 59.55729 212.34375 59.55729Q213.59375 59.55729 214.375 60.40104Q215.17188 61.24479 215.17188 62.791664Q215.17188 62.885414 215.17188 63.072914L210.53125 63.072914Q210.59375 64.104164 211.10938 64.65104Q211.625 65.18229 212.40625 65.18229Q212.98438 65.18229 213.39062 64.885414Q213.8125 64.572914 214.04688 63.916664ZM210.59375 62.21354L214.0625 62.21354Q214.0 61.416664 213.67188 61.02604Q213.15625 60.416664 212.35938 60.416664Q211.625 60.416664 211.125 60.90104Q210.64062 61.385414 210.59375 62.21354ZM216.78125 65.916664L216.78125 59.697914L217.73438 59.697914L217.73438 60.635414Q218.09375 59.979164 218.39062 59.77604Q218.70312 59.55729 219.07812 59.55729Q219.60938 59.55729 220.15625 59.885414L219.79688 60.86979Q219.40625 60.635414 219.03125 60.635414Q218.67188 60.635414 218.39062 60.854164Q218.125 61.05729 218.01562 61.43229Q217.82812 61.99479 217.82812 62.65104L217.82812 65.916664L216.78125 65.916664ZM225.04688 63.916664L226.14062 64.041664Q225.89062 64.99479 225.1875 65.52604Q224.48438 66.05729 223.40625 66.05729Q222.04688 66.05729 221.23438 65.21354Q220.4375 64.36979 220.4375 62.854164Q220.4375 61.291664 221.25 60.43229Q222.0625 59.55729 223.34375 59.55729Q224.59375 59.55729 225.375 60.40104Q226.17188 61.24479 226.17188 62.791664Q226.17188 62.885414 226.17188 63.072914L221.53125 63.072914Q221.59375 64.104164 222.10938 64.65104Q222.625 65.18229 223.40625 65.18229Q223.98438 65.18229 224.39062 64.885414Q224.8125 64.572914 225.04688 63.916664ZM221.59375 62.21354L225.0625 62.21354Q225.0 61.416664 224.67188 61.02604Q224.15625 60.416664 223.35938 60.416664Q222.625 60.416664 222.125 60.90104Q221.64062 61.385414 221.59375 62.21354ZM231.82812 65.916664L231.82812 65.135414Q231.23438 66.05729 230.09375 66.05729Q229.34375 66.05729 228.71875 65.65104Q228.09375 65.229164 227.75 64.49479Q227.40625 63.760414 227.40625 62.80729Q227.40625 61.885414 227.71875 61.11979Q228.03125 60.354164 228.65625 59.96354Q229.28125 59.55729 230.04688 59.55729Q230.60938 59.55729 231.04688 59.791664Q231.48438 60.02604 231.76562 60.40104L231.76562 57.322914L232.8125 57.322914L232.8125 65.916664L231.82812 65.916664ZM228.5 62.80729Q228.5 64.010414 229.0 64.604164Q229.5 65.18229 230.1875 65.18229Q230.875 65.18229 231.35938 64.61979Q231.84375 64.05729 231.84375 62.90104Q231.84375 61.61979 231.34375 61.02604Q230.85938 60.43229 230.14062 60.43229Q229.4375 60.43229 228.96875 61.010414Q228.5 61.572914 228.5 62.80729Z" fill-rule="nonzero"/><path fill="#ea4335" d="M250.0 56.916668C250.0 56.364384 250.44771 55.916668 251.0 55.916668L261.0 55.916668C261.55228 55.916668 262.0 56.364384 262.0 56.916668L262.0 66.916664C262.0 67.46895 261.55228 67.916664 261.0 67.916664L251.0 67.916664C250.44771 67.916664 250.0 67.46895 250.0 66.916664Z" fill-rule="nonzero"/><path fill="#1a1a1a" d="M276.5625 57.322914L277.70312 57.322914L277.70312 62.291664Q277.70312 63.58854 277.40625 64.354164Q277.10938 65.104164 276.34375 65.58854Q275.57812 66.05729 274.34375 66.05729Q273.14062 66.05729 272.35938 65.65104Q271.59375 65.229164 271.26562 64.447914Q270.9375 63.65104 270.9375 62.291664L270.9375 57.322914L272.07812 57.322914L272.07812 62.27604Q272.07812 63.40104 272.28125 63.93229Q272.5 64.46354 273.0 64.760414Q273.51562 65.041664 274.25 65.041664Q275.5 65.041664 276.03125 64.479164Q276.5625 63.90104 276.5625 62.27604L276.5625 57.322914ZM279.79688 65.916664L279.79688 59.697914L280.73438 59.697914L280.73438 60.572914Q281.42188 59.55729 282.71875 59.55729Q283.28125 59.55729 283.75 59.760414Q284.23438 59.96354 284.46875 60.291664Q284.70312 60.61979 284.79688 61.05729Q284.84375 61.354164 284.84375 62.08854L284.84375 65.916664L283.79688 65.916664L283.79688 62.135414Q283.79688 61.479164 283.67188 61.166664Q283.54688 60.854164 283.23438 60.666664Q282.92188 60.46354 282.5 60.46354Q281.82812 60.46354 281.32812 60.90104Q280.84375 61.322914 280.84375 62.510414L280.84375 65.916664L279.79688 65.916664ZM286.78125 65.916664L286.78125 59.697914L287.73438 59.697914L287.73438 60.635414Q288.09375 59.979164 288.39062 59.77604Q288.70312 59.55729 289.07812 59.55729Q289.60938 59.55729 290.15625 59.885414L289.79688 60.86979Q289.40625 60.635414 289.03125 60.635414Q288.67188 60.635414 288.39062 60.854164Q288.125 61.05729 288.01562 61.43229Q287.82812 61.99479 287.82812 62.65104L287.82812 65.916664L286.78125 65.916664ZM290.40625 62.80729Q290.40625 61.072914 291.35938 60.24479Q292.15625 59.55729 293.3125 59.55729Q294.59375 59.55729 295.40625 60.40104Q296.23438 61.229164 296.23438 62.71354Q296.23438 63.916664 295.875 64.604164Q295.51562 65.291664 294.8125 65.68229Q294.125 66.05729 293.3125 66.05729Q292.01562 66.05729 291.20312 65.229164Q290.40625 64.385414 290.40625 62.80729ZM291.48438 62.80729Q291.48438 63.99479 292.0 64.58854Q292.53125 65.18229 293.3125 65.18229Q294.10938 65.18229 294.625 64.58854Q295.14062 63.99479 295.14062 62.77604Q295.14062 61.61979 294.60938 61.02604Q294.09375 60.43229 293.3125 60.43229Q292.53125 60.43229 292.0 61.02604Q291.48438 61.604164 291.48438 62.80729ZM297.76562 65.916664L297.76562 57.322914L298.82812 57.322914L298.82812 65.916664L297.76562 65.916664ZM300.76562 65.916664L300.76562 57.322914L301.82812 57.322914L301.82812 65.916664L300.76562 65.916664ZM308.04688 63.916664L309.14062 64.041664Q308.89062 64.99479 308.1875 65.52604Q307.48438 66.05729 306.40625 66.05729Q305.04688 66.05729 304.23438 65.21354Q303.4375 64.36979 303.4375 62.854164Q303.4375 61.291664 304.25 60.43229Q305.0625 59.55729 306.34375 59.55729Q307.59375 59.55729 308.375 60.40104Q309.17188 61.24479 309.17188 62.791664Q309.17188 62.885414 309.17188 63.072914L304.53125 63.072914Q304.59375 64.104164 305.10938 64.65104Q305.625 65.18229 306.40625 65.18229Q306.98438 65.18229 307.39062 64.885414Q307.8125 64.572914 308.04688 63.916664ZM304.59375 62.21354L308.0625 62.21354Q308.0 61.416664 307.67188 61.02604Q307.15625 60.416664 306.35938 60.416664Q305.625 60.416664 305.125 60.90104Q304.64062 61.385414 304.59375 62.21354ZM314.82812 65.916664L314.82812 65.135414Q314.23438 66.05729 313.09375 66.05729Q312.34375 66.05729 311.71875 65.65104Q311.09375 65.229164 310.75 64.49479Q310.40625 63.760414 310.40625 62.80729Q310.40625 61.885414 310.71875 61.11979Q311.03125 60.354164 311.65625 59.96354Q312.28125 59.55729 313.04688 59.55729Q313.60938 59.55729 314.04688 59.791664Q314.48438 60.02604 314.76562 60.40104L314.76562 57.322914L315.8125 57.322914L315.8125 65.916664L314.82812 65.916664ZM311.5 62.80729Q311.5 64.010414 312.0 64.604164Q312.5 65.18229 313.1875 65.18229Q313.875 65.18229 314.35938 64.61979Q314.84375 64.05729 314.84375 62.90104Q314.84375 61.61979 314.34375 61.02604Q313.85938 60.43229 313.14062 60.43229Q312.4375 60.43229 311.96875 61.010414Q311.5 61.572914 311.5 62.80729Z" fill-rule="nonzero"/><path fill="#fbbc04" d="M333.0 56.916668C333.0 56.364384 333.44772 55.916668 334.0 55.916668L344.0 55.916668C344.55228 55.916668 345.0 56.364384 345.0 56.916668L345.0 66.916664C345.0 67.46895 344.55228 67.916664 344.0 67.916664L334.0 67.916664C333.44772 67.916664 333.0 67.46895 333.0 66.916664Z" fill-rule="nonzero"/><path fill="#1a1a1a" d="M356.10938 65.916664L356.10938 58.33854L353.28125 58.33854L353.28125 57.322914L360.09375 57.322914L360.09375 58.33854L357.25 58.33854L357.25 65.916664L356.10938 65.916664ZM360.79688 58.541664L360.79688 57.322914L361.85938 57.322914L361.85938 58.541664L360.79688 58.541664ZM360.79688 65.916664L360.79688 59.697914L361.85938 59.697914L361.85938 65.916664L360.79688 65.916664ZM363.76562 65.916664L363.76562 57.322914L364.82812 57.322914L364.82812 65.916664L363.76562 65.916664ZM371.04688 63.916664L372.14062 64.041664Q371.89062 64.99479 371.1875 65.52604Q370.48438 66.05729 369.40625 66.05729Q368.04688 66.05729 367.23438 65.21354Q366.4375 64.36979 366.4375 62.854164Q366.4375 61.291664 367.25 60.43229Q368.0625 59.55729 369.34375 59.55729Q370.59375 59.55729 371.375 60.40104Q372.17188 61.24479 372.17188 62.791664Q372.17188 62.885414 372.17188 63.072914L367.53125 63.072914Q367.59375 64.104164 368.10938 64.65104Q368.625 65.18229 369.40625 65.18229Q369.98438 65.18229 370.39062 64.885414Q370.8125 64.572914 371.04688 63.916664ZM367.59375 62.21354L371.0625 62.21354Q371.0 61.416664 370.67188 61.02604Q370.15625 60.416664 369.35938 60.416664Q368.625 60.416664 368.125 60.90104Q367.64062 61.385414 367.59375 62.21354ZM377.82812 65.916664L377.82812 65.135414Q377.23438 66.05729 376.09375 66.05729Q375.34375 66.05729 374.71875 65.65104Q374.09375 65.229164 373.75 64.49479Q373.40625 63.760414 373.40625 62.80729Q373.40625 61.885414 373.71875 61.11979Q374.03125 60.354164 374.65625 59.96354Q375.28125 59.55729 376.04688 59.55729Q376.60938 59.55729 377.04688 59.791664Q377.48438 60.02604 377.76562 60.40104L377.76562 57.322914L378.8125 57.322914L378.8125 65.916664L377.82812 65.916664ZM374.5 62.80729Q374.5 64.010414 375.0 64.604164Q375.5 65.18229 376.1875 65.18229Q376.875 65.18229 377.35938 64.61979Q377.84375 64.05729 377.84375 62.90104Q377.84375 61.61979 377.34375 61.02604Q376.85938 60.43229 376.14062 60.43229Q375.4375 60.43229 374.96875 61.010414Q374.5 61.572914 374.5 62.80729Z" fill-rule="nonzero"/><path fill="#34a853" d="M396.0 56.916668C396.0 56.364384 396.44772 55.916668 397.0 55.916668L407.0 55.916668C407.55228 55.916668 408.0 56.364384 408.0 56.916668L408.0 66.916664C408.0 67.46895 407.55228 67.916664 407.0 67.916664L397.0 67.916664C396.44772 67.916664 396.0 67.46895 396.0 66.916664Z" fill-rule="nonzero"/><path fill="#1a1a1a" d="M416.54688 63.15104L417.60938 63.05729Q417.6875 63.71354 417.96875 64.11979Q418.25 64.52604 418.82812 64.791664Q419.42188 65.041664 420.15625 65.041664Q420.79688 65.041664 421.29688 64.854164Q421.79688 64.65104 422.03125 64.322914Q422.28125 63.979164 422.28125 63.58854Q422.28125 63.18229 422.04688 62.885414Q421.8125 62.572914 421.28125 62.36979Q420.92188 62.229164 419.73438 61.947914Q418.5625 61.666664 418.09375 61.416664Q417.46875 61.08854 417.17188 60.61979Q416.875 60.135414 416.875 59.541664Q416.875 58.90104 417.23438 58.33854Q417.60938 57.760414 418.3125 57.479164Q419.03125 57.18229 419.89062 57.18229Q420.84375 57.18229 421.57812 57.49479Q422.3125 57.791664 422.70312 58.40104Q423.09375 58.99479 423.125 59.74479L422.03125 59.822914Q421.9375 59.010414 421.42188 58.604164Q420.92188 58.18229 419.9375 58.18229Q418.90625 58.18229 418.4375 58.55729Q417.96875 58.93229 417.96875 59.46354Q417.96875 59.93229 418.29688 60.229164Q418.625 60.52604 420.0 60.83854Q421.39062 61.15104 421.90625 61.385414Q422.65625 61.74479 423.01562 62.27604Q423.375 62.791664 423.375 63.49479Q423.375 64.18229 422.98438 64.791664Q422.59375 65.385414 421.85938 65.729164Q421.125 66.05729 420.20312 66.05729Q419.03125 66.05729 418.23438 65.729164Q417.45312 65.385414 417.0 64.697914Q416.5625 64.010414 416.54688 63.15104ZM425.125 65.916664L425.125 57.322914L426.25 57.322914L426.25 65.916664L425.125 65.916664ZM427.89062 65.916664L427.89062 57.322914L429.60938 57.322914L431.64062 63.40104Q431.92188 64.260414 432.04688 64.68229Q432.1875 64.21354 432.5 63.30729L434.5625 57.322914L436.09375 57.322914L436.09375 65.916664L435.0 65.916664L435.0 58.729164L432.5 65.916664L431.46875 65.916664L428.98438 58.604164L428.98438 65.916664L427.89062 65.916664ZM436.92188 65.916664L436.92188 57.322914L439.89062 57.322914Q440.89062 57.322914 441.42188 57.447914Q442.15625 57.61979 442.67188 58.05729Q443.35938 58.635414 443.6875 59.541664Q444.03125 60.43229 444.03125 61.572914Q444.03125 62.55729 443.79688 63.30729Q443.57812 64.05729 443.21875 64.55729Q442.85938 65.05729 442.42188 65.33854Q442.0 65.61979 441.40625 65.77604Q440.8125 65.916664 440.03125 65.916664L436.92188 65.916664ZM438.0625 64.90104L439.89062 64.90104Q440.75 64.90104 441.23438 64.74479Q441.71875 64.58854 442.0 64.291664Q442.40625 63.90104 442.625 63.21354Q442.85938 62.52604 442.85938 61.55729Q442.85938 60.21354 442.40625 59.49479Q441.96875 58.760414 441.34375 58.510414Q440.875 58.33854 439.875 58.33854L438.0625 58.33854L438.0625 64.90104Z" fill-rule="nonzero"/><path fill="#757575" d="M20.128124 37.55L20.128124 23.2375L26.471874 23.2375Q28.378124 23.2375 29.378124 23.628124Q30.378124 24.003124 30.971874 24.9875Q31.565624 25.95625 31.565624 27.14375Q31.565624 28.659374 30.58125 29.70625Q29.596874 30.753124 27.534374 31.034374Q28.284374 31.39375 28.675 31.753124Q29.503124 32.503124 30.253124 33.659374L32.7375 37.55L30.3625 37.55L28.45625 34.565624Q27.628124 33.284374 27.096874 32.596874Q26.565624 31.909374 26.128124 31.64375Q25.70625 31.3625 25.26875 31.253124Q24.940624 31.190624 24.221874 31.190624L22.01875 31.190624L22.01875 37.55L20.128124 37.55ZM22.01875 29.55L26.096874 29.55Q27.39375 29.55 28.1125 29.284374Q28.846874 29.01875 29.221874 28.425Q29.6125 27.83125 29.6125 27.14375Q29.6125 26.128124 28.878124 25.471874Q28.14375 24.815624 26.55 24.815624L22.01875 24.815624L22.01875 29.55ZM40.971874 34.20625L42.784374 34.440624Q42.3625 36.01875 41.190624 36.909374Q40.034374 37.784374 38.221874 37.784374Q35.95625 37.784374 34.6125 36.39375Q33.284374 34.9875 33.284374 32.45625Q33.284374 29.83125 34.628124 28.39375Q35.971874 26.940624 38.128124 26.940624Q40.20625 26.940624 41.51875 28.3625Q42.846874 29.76875 42.846874 32.346874Q42.846874 32.503124 42.83125 32.815624L35.096874 32.815624Q35.190624 34.51875 36.065624 35.425Q36.940624 36.33125 38.2375 36.33125Q39.20625 36.33125 39.878124 35.83125Q40.565624 35.315624 40.971874 34.20625ZM35.190624 31.3625L40.9875 31.3625Q40.878124 30.065624 40.33125 29.409374Q39.4875 28.39375 38.14375 28.39375Q36.940624 28.39375 36.1125 29.20625Q35.284374 30.003124 35.190624 31.3625ZM44.221874 32.3625Q44.221874 29.4875 45.815624 28.096874Q47.159374 26.940624 49.08125 26.940624Q51.221874 26.940624 52.565624 28.346874Q53.925 29.753124 53.925 32.221874Q53.925 34.221874 53.33125 35.378124Q52.7375 36.51875 51.58125 37.159374Q50.440624 37.784374 49.08125 37.784374Q46.89375 37.784374 45.55 36.39375Q44.221874 34.9875 44.221874 32.3625ZM46.01875 32.3625Q46.01875 34.3625 46.878124 35.346874Q47.753124 36.33125 49.08125 36.33125Q50.39375 36.33125 51.253124 35.346874Q52.128124 34.346874 52.128124 32.3Q52.128124 30.378124 51.253124 29.39375Q50.378124 28.39375 49.08125 28.39375Q47.753124 28.39375 46.878124 29.39375Q46.01875 30.378124 46.01875 32.3625ZM55.846874 37.55L55.846874 27.175L57.425 27.175L57.425 28.753124Q58.034374 27.64375 58.55 27.3Q59.065624 26.940624 59.675 26.940624Q60.565624 26.940624 61.4875 27.503124L60.878124 29.14375Q60.2375 28.753124 59.596874 28.753124Q59.01875 28.753124 58.55 29.1125Q58.096874 29.45625 57.89375 30.065624Q57.6125 31.003124 57.6125 32.1125L57.6125 37.55L55.846874 37.55ZM69.59688 37.55L69.59688 36.2375Q68.6125 37.784374 66.69063 37.784374Q65.45625 37.784374 64.40938 37.096874Q63.378124 36.409374 62.8 35.190624Q62.2375 33.971874 62.2375 32.378124Q62.2375 30.815624 62.753124 29.55Q63.26875 28.284374 64.3 27.6125Q65.34688 26.940624 66.6125 26.940624Q67.55 26.940624 68.28438 27.346874Q69.01875 27.7375 69.4875 28.3625L69.4875 23.2375L71.22188 23.2375L71.22188 37.55L69.59688 37.55ZM64.03438 32.378124Q64.03438 34.3625 64.87813 35.346874Q65.72188 36.33125 66.8625 36.33125Q68.01875 36.33125 68.81563 35.39375Q69.62813 34.45625 69.62813 32.51875Q69.62813 30.39375 68.8 29.39375Q67.9875 28.39375 66.78438 28.39375Q65.6125 28.39375 64.81563 29.3625Q64.03438 30.315624 64.03438 32.378124ZM80.97188 34.20625L82.78438 34.440624Q82.3625 36.01875 81.19063 36.909374Q80.03438 37.784374 78.22188 37.784374Q75.95625 37.784374 74.6125 36.39375Q73.28438 34.9875 73.28438 32.45625Q73.28438 29.83125 74.62813 28.39375Q75.97188 26.940624 78.12813 26.940624Q80.20625 26.940624 81.51875 28.3625Q82.84688 29.76875 82.84688 32.346874Q82.84688 32.503124 82.83125 32.815624L75.09688 32.815624Q75.19063 34.51875 76.06563 35.425Q76.94063 36.33125 78.2375 36.33125Q79.20625 36.33125 79.87813 35.83125Q80.56563 35.315624 80.97188 34.20625ZM75.19063 31.3625L80.9875 31.3625Q80.87813 30.065624 80.33125 29.409374Q79.4875 28.39375 78.14375 28.39375Q76.94063 28.39375 76.1125 29.20625Q75.28438 30.003124 75.19063 31.3625ZM84.84688 37.55L84.84688 27.175L86.425 27.175L86.425 28.753124Q87.03438 27.64375 87.55 27.3Q88.06563 26.940624 88.675 26.940624Q89.56563 26.940624 90.4875 27.503124L89.87813 29.14375Q89.2375 28.753124 88.59688 28.753124Q88.01875 28.753124 87.55 29.1125Q87.09688 29.45625 86.89375 30.065624Q86.6125 31.003124 86.6125 32.1125L86.6125 37.55L84.84688 37.55ZM98.97188 34.20625L100.78438 34.440624Q100.3625 36.01875 99.19063 36.909374Q98.03438 37.784374 96.22188 37.784374Q93.95625 37.784374 92.6125 36.39375Q91.28438 34.9875 91.28438 32.45625Q91.28438 29.83125 92.62813 28.39375Q93.97188 26.940624 96.12813 26.940624Q98.20625 26.940624 99.51875 28.3625Q100.84688 29.76875 100.84688 32.346874Q100.84688 32.503124 100.83125 32.815624L93.09688 32.815624Q93.19063 34.51875 94.06563 35.425Q94.94063 36.33125 96.2375 36.33125Q97.20625 36.33125 97.87813 35.83125Q98.56563 35.315624 98.97188 34.20625ZM93.19063 31.3625L98.9875 31.3625Q98.87813 30.065624 98.33125 29.409374Q97.4875 28.39375 96.14375 28.39375Q94.94063 28.39375 94.1125 29.20625Q93.28438 30.003124 93.19063 31.3625ZM109.59688 37.55L109.59688 36.2375Q108.6125 37.784374 106.69063 37.784374Q105.45625 37.784374 104.40938 37.096874Q103.37813 36.409374 102.8 35.190624Q102.2375 33.971874 102.2375 32.378124Q102.2375 30.815624 102.75313 29.55Q103.26875 28.284374 104.3 27.6125Q105.34688 26.940624 106.6125 26.940624Q107.55 26.940624 108.28438 27.346874Q109.01875 27.7375 109.4875 28.3625L109.4875 23.2375L111.22188 23.2375L111.22188 37.55L109.59688 37.55ZM104.03438 32.378124Q104.03438 34.3625 104.87813 35.346874Q105.72188 36.33125 106.8625 36.33125Q108.01875 36.33125 108.81563 35.39375Q109.62813 34.45625 109.62813 32.51875Q109.62813 30.39375 108.8 29.39375Q107.9875 28.39375 106.78438 28.39375Q105.6125 28.39375 104.81563 29.3625Q104.03438 30.315624 104.03438 32.378124ZM114.33125 37.55L114.33125 35.55L116.33125 35.55L116.33125 37.55Q116.33125 38.659374 115.94063 39.33125Q115.55 40.01875 114.70625 40.378124L114.20625 39.628124Q114.76875 39.39375 115.03438 38.909374Q115.3 38.440624 115.33125 37.55L114.33125 37.55ZM135.4875 23.2375L137.37813 23.2375L137.37813 31.503124Q137.37813 33.659374 136.89375 34.940624Q136.40938 36.20625 135.12813 37.003124Q133.8625 37.8 131.78438 37.8Q129.76875 37.8 128.4875 37.1125Q127.22188 36.409374 126.675 35.096874Q126.12813 33.784374 126.12813 31.503124L126.12813 23.2375L128.01875 23.2375L128.01875 31.4875Q128.01875 33.3625 128.3625 34.253124Q128.70625 35.128124 129.55 35.6125Q130.39375 36.08125 131.62813 36.08125Q133.70625 36.08125 134.59688 35.14375Q135.4875 34.190624 135.4875 31.4875L135.4875 23.2375ZM138.8625 37.55L138.8625 27.175L140.45625 27.175L140.45625 28.659374Q141.59688 26.940624 143.75313 26.940624Q144.69063 26.940624 145.47188 27.284374Q146.26875 27.6125 146.65938 28.159374Q147.05 28.70625 147.20625 29.45625Q147.3 29.95625 147.3 31.175L147.3 37.55L145.53438 37.55L145.53438 31.2375Q145.53438 30.159374 145.33125 29.628124Q145.12813 29.096874 144.59688 28.784374Q144.08125 28.471874 143.37813 28.471874Q142.25313 28.471874 141.44063 29.190624Q140.62813 29.89375 140.62813 31.878124L140.62813 37.55L138.8625 37.55ZM148.84688 37.55L148.84688 27.175L150.425 27.175L150.425 28.753124Q151.03438 27.64375 151.55 27.3Q152.06563 26.940624 152.675 26.940624Q153.56563 26.940624 154.4875 27.503124L153.87813 29.14375Q153.2375 28.753124 152.59688 28.753124Q152.01875 28.753124 151.55 29.1125Q151.09688 29.45625 150.89375 30.065624Q150.6125 31.003124 150.6125 32.1125L150.6125 37.55L148.84688 37.55ZM155.22188 32.3625Q155.22188 29.4875 156.81563 28.096874Q158.15938 26.940624 160.08125 26.940624Q162.22188 26.940624 163.56563 28.346874Q164.925 29.753124 164.925 32.221874Q164.925 34.221874 164.33125 35.378124Q163.7375 36.51875 162.58125 37.159374Q161.44063 37.784374 160.08125 37.784374Q157.89375 37.784374 156.55 36.39375Q155.22188 34.9875 155.22188 32.3625ZM157.01875 32.3625Q157.01875 34.3625 157.87813 35.346874Q158.75313 36.33125 160.08125 36.33125Q161.39375 36.33125 162.25313 35.346874Q163.12813 34.346874 163.12813 32.3Q163.12813 30.378124 162.25313 29.39375Q161.37813 28.39375 160.08125 28.39375Q158.75313 28.39375 157.87813 29.39375Q157.01875 30.378124 157.01875 32.3625ZM166.83125 37.55L166.83125 23.2375L168.58125 23.2375L168.58125 37.55L166.83125 37.55ZM170.83125 37.55L170.83125 23.2375L172.58125 23.2375L172.58125 37.55L170.83125 37.55ZM181.97188 34.20625L183.78438 34.440624Q183.3625 36.01875 182.19063 36.909374Q181.03438 37.784374 179.22188 37.784374Q176.95625 37.784374 175.6125 36.39375Q174.28438 34.9875 174.28438 32.45625Q174.28438 29.83125 175.62813 28.39375Q176.97188 26.940624 179.12813 26.940624Q181.20625 26.940624 182.51875 28.3625Q183.84688 29.76875 183.84688 32.346874Q183.84688 32.503124 183.83125 32.815624L176.09688 32.815624Q176.19063 34.51875 177.06563 35.425Q177.94063 36.33125 179.2375 36.33125Q180.20625 36.33125 180.87813 35.83125Q181.56563 35.315624 181.97188 34.20625ZM176.19063 31.3625L181.9875 31.3625Q181.87813 30.065624 181.33125 29.409374Q180.4875 28.39375 179.14375 28.39375Q177.94063 28.39375 177.1125 29.20625Q176.28438 30.003124 176.19063 31.3625ZM192.59688 37.55L192.59688 36.2375Q191.6125 37.784374 189.69063 37.784374Q188.45625 37.784374 187.40938 37.096874Q186.37813 36.409374 185.8 35.190624Q185.2375 33.971874 185.2375 32.378124Q185.2375 30.815624 185.75313 29.55Q186.26875 28.284374 187.3 27.6125Q188.34688 26.940624 189.6125 26.940624Q190.55 26.940624 191.28438 27.346874Q192.01875 27.7375 192.4875 28.3625L192.4875 23.2375L194.22188 23.2375L194.22188 37.55L192.59688 37.55ZM187.03438 32.378124Q187.03438 34.3625 187.87813 35.346874Q188.72188 36.33125 189.8625 36.33125Q191.01875 36.33125 191.81563 35.39375Q192.62813 34.45625 192.62813 32.51875Q192.62813 30.39375 191.8 29.39375Q190.9875 28.39375 189.78438 28.39375Q188.6125 28.39375 187.81563 29.3625Q187.03438 30.315624 187.03438 32.378124ZM197.33125 37.55L197.33125 35.55L199.33125 35.55L199.33125 37.55Q199.33125 38.659374 198.94063 39.33125Q198.55 40.01875 197.70625 40.378124L197.20625 39.628124Q197.76875 39.39375 198.03438 38.909374Q198.3 38.440624 198.33125 37.55L197.33125 37.55ZM212.7375 37.55L212.7375 24.925L208.01875 24.925L208.01875 23.2375L219.3625 23.2375L219.3625 24.925L214.62813 24.925L214.62813 37.55L212.7375 37.55ZM220.87813 25.253124L220.87813 23.2375L222.64375 23.2375L222.64375 25.253124L220.87813 25.253124ZM220.87813 37.55L220.87813 27.175L222.64375 27.175L222.64375 37.55L220.87813 37.55ZM224.83125 37.55L224.83125 23.2375L226.58125 23.2375L226.58125 37.55L224.83125 37.55ZM235.97188 34.20625L237.78438 34.440624Q237.3625 36.01875 236.19063 36.909374Q235.03438 37.784374 233.22188 37.784374Q230.95625 37.784374 229.6125 36.39375Q228.28438 34.9875 228.28438 32.45625Q228.28438 29.83125 229.62813 28.39375Q230.97188 26.940624 233.12813 26.940624Q235.20625 26.940624 236.51875 28.3625Q237.84688 29.76875 237.84688 32.346874Q237.84688 32.503124 237.83125 32.815624L230.09688 32.815624Q230.19063 34.51875 231.06563 35.425Q231.94063 36.33125 233.2375 36.33125Q234.20625 36.33125 234.87813 35.83125Q235.56563 35.315624 235.97188 34.20625ZM230.19063 31.3625L235.9875 31.3625Q235.87813 30.065624 235.33125 29.409374Q234.4875 28.39375 233.14375 28.39375Q231.94063 28.39375 231.1125 29.20625Q230.28438 30.003124 230.19063 31.3625ZM246.59688 37.55L246.59688 36.2375Q245.6125 37.784374 243.69063 37.784374Q242.45625 37.784374 241.40938 37.096874Q240.37813 36.409374 239.8 35.190624Q239.2375 33.971874 239.2375 32.378124Q239.2375 30.815624 239.75313 29.55Q240.26875 28.284374 241.3 27.6125Q242.34688 26.940624 243.6125 26.940624Q244.55 26.940624 245.28438 27.346874Q246.01875 27.7375 246.4875 28.3625L246.4875 23.2375L248.22188 23.2375L248.22188 37.55L246.59688 37.55ZM241.03438 32.378124Q241.03438 34.3625 241.87813 35.346874Q242.72188 36.33125 243.8625 36.33125Q245.01875 36.33125 245.81563 35.39375Q246.62813 34.45625 246.62813 32.51875Q246.62813 30.39375 245.8 29.39375Q244.9875 28.39375 243.78438 28.39375Q242.6125 28.39375 241.81563 29.3625Q241.03438 30.315624 241.03438 32.378124ZM263.64374 36.26875Q262.65936 37.096874 261.7531 37.440624Q260.84686 37.784374 259.8156 37.784374Q258.1125 37.784374 257.1906 36.95625Q256.26874 36.1125 256.26874 34.815624Q256.26874 34.05 256.6125 33.425Q256.97186 32.8 257.53436 32.425Q258.09686 32.034374 258.8 31.83125Q259.3156 31.70625 260.3625 31.565624Q262.4875 31.315624 263.4875 30.971874Q263.5031 30.6125 263.5031 30.503124Q263.5031 29.440624 263.0031 28.9875Q262.33124 28.39375 261.0031 28.39375Q259.7531 28.39375 259.15936 28.83125Q258.58124 29.26875 258.3 30.378124L256.58124 30.14375Q256.8156 29.034374 257.34686 28.3625Q257.8781 27.675 258.89374 27.315624Q259.90936 26.940624 261.2531 26.940624Q262.58124 26.940624 263.40936 27.253124Q264.2375 27.565624 264.6281 28.05Q265.01874 28.51875 265.175 29.2375Q265.26874 29.690624 265.26874 30.8625L265.26874 33.20625Q265.26874 35.659374 265.3781 36.315624Q265.4875 36.95625 265.83124 37.55L263.9875 37.55Q263.72186 37.003124 263.64374 36.26875ZM263.4875 32.346874Q262.53436 32.7375 260.6125 33.003124Q259.53436 33.159374 259.08124 33.3625Q258.64374 33.55 258.39374 33.925Q258.14374 34.3 258.14374 34.76875Q258.14374 35.471874 258.675 35.940624Q259.20624 36.409374 260.2375 36.409374Q261.2531 36.409374 262.03436 35.971874Q262.83124 35.51875 263.20624 34.753124Q263.4875 34.14375 263.4875 32.9875L263.4875 32.346874ZM267.8625 37.55L267.8625 27.175L269.45624 27.175L269.45624 28.659374Q270.59686 26.940624 272.7531 26.940624Q273.6906 26.940624 274.47186 27.284374Q275.26874 27.6125 275.65936 28.159374Q276.05 28.70625 276.20624 29.45625Q276.3 29.95625 276.3 31.175L276.3 37.55L274.53436 37.55L274.53436 31.2375Q274.53436 30.159374 274.33124 29.628124Q274.1281 29.096874 273.59686 28.784374Q273.08124 28.471874 272.3781 28.471874Q271.2531 28.471874 270.4406 29.190624Q269.6281 29.89375 269.6281 31.878124L269.6281 37.55L267.8625 37.55ZM284.59686 37.55L284.59686 36.2375Q283.6125 37.784374 281.6906 37.784374Q280.45624 37.784374 279.40936 37.096874Q278.3781 36.409374 277.8 35.190624Q277.2375 33.971874 277.2375 32.378124Q277.2375 30.815624 277.7531 29.55Q278.26874 28.284374 279.3 27.6125Q280.34686 26.940624 281.6125 26.940624Q282.55 26.940624 283.28436 27.346874Q284.01874 27.7375 284.4875 28.3625L284.4875 23.2375L286.22186 23.2375L286.22186 37.55L284.59686 37.55ZM279.03436 32.378124Q279.03436 34.3625 279.8781 35.346874Q280.72186 36.33125 281.8625 36.33125Q283.01874 36.33125 283.8156 35.39375Q284.6281 34.45625 284.6281 32.51875Q284.6281 30.39375 283.8 29.39375Q282.9875 28.39375 281.78436 28.39375Q280.6125 28.39375 279.8156 29.3625Q279.03436 30.315624 279.03436 32.378124ZM294.45624 32.95625L296.2375 32.8Q296.3625 33.8625 296.8156 34.55Q297.28436 35.2375 298.2531 35.675Q299.2375 36.096874 300.47186 36.096874Q301.55 36.096874 302.3781 35.784374Q303.20624 35.45625 303.6125 34.89375Q304.01874 34.33125 304.01874 33.659374Q304.01874 32.9875 303.6281 32.4875Q303.2375 31.9875 302.34686 31.64375Q301.76874 31.409374 299.78436 30.940624Q297.8156 30.471874 297.03436 30.05Q296.0031 29.51875 295.5031 28.721874Q295.0031 27.925 295.0031 26.940624Q295.0031 25.846874 295.6125 24.909374Q296.22186 23.971874 297.40936 23.4875Q298.59686 22.9875 300.03436 22.9875Q301.6281 22.9875 302.84686 23.503124Q304.0656 24.01875 304.70624 25.01875Q305.3625 26.003124 305.40936 27.26875L303.59686 27.409374Q303.45624 26.05 302.6125 25.3625Q301.76874 24.659374 300.1125 24.659374Q298.39374 24.659374 297.59686 25.3Q296.8156 25.925 296.8156 26.8Q296.8156 27.58125 297.3781 28.08125Q297.925 28.58125 300.2375 29.096874Q302.55 29.6125 303.40936 30.003124Q304.65936 30.58125 305.2531 31.471874Q305.84686 32.346874 305.84686 33.503124Q305.84686 34.64375 305.1906 35.659374Q304.53436 36.675 303.3 37.2375Q302.08124 37.8 300.55 37.8Q298.6125 37.8 297.3 37.2375Q295.9875 36.659374 295.2375 35.51875Q294.4875 34.378124 294.45624 32.95625ZM308.40936 37.55L308.40936 23.2375L310.3156 23.2375L310.3156 37.55L308.40936 37.55ZM314.03436 37.55L314.03436 23.2375L316.89374 23.2375L320.26874 33.3625Q320.7375 34.784374 320.95624 35.4875Q321.20624 34.70625 321.72186 33.190624L325.14374 23.2375L327.6906 23.2375L327.6906 37.55L325.8781 37.55L325.8781 25.565624L321.70624 37.55L320.0031 37.55L315.8625 25.3625L315.8625 37.55L314.03436 37.55ZM331.09686 37.55L331.09686 23.2375L336.01874 23.2375Q337.6906 23.2375 338.58124 23.440624Q339.8 23.721874 340.675 24.45625Q341.8 25.425 342.3625 26.909374Q342.925 28.39375 342.925 30.315624Q342.925 31.940624 342.55 33.20625Q342.175 34.45625 341.5656 35.284374Q340.97186 36.1125 340.26874 36.596874Q339.5656 37.065624 338.5656 37.315624Q337.5656 37.55 336.2531 37.55L331.09686 37.55ZM332.9875 35.8625L336.05 35.8625Q337.45624 35.8625 338.2531 35.596874Q339.0656 35.33125 339.55 34.846874Q340.22186 34.175 340.59686 33.05Q340.97186 31.909374 340.97186 30.284374Q340.97186 28.034374 340.2375 26.83125Q339.5031 25.628124 338.4406 25.221874Q337.6906 24.925 336.0031 24.925L332.9875 24.925L332.9875 35.8625Z" fill-rule="nonzero"/></svg>