<svg version="1.1" viewBox="0.0 0.0 600.0 371.0" fill="none" stroke="none" stroke-linecap="square" stroke-miterlimit="10" width="600" height="371" xmlns:xlink="http://www.w3.org/1999/xlink" xmlns="http://www.w3.org/2000/svg"><path fill="#ffffff" d="M0 0L600.0 0L600.0 371.0L0 371.0L0 0Z" fill-rule="nonzero"/><path stroke="#cccccc" stroke-width="1.0" stroke-linecap="butt" d="M179.5 61.5L179.5 300.5" fill-rule="nonzero"/><path stroke="#cccccc" stroke-width="1.0" stroke-linecap="butt" d="M307.5 61.5L307.5 300.5" fill-rule="nonzero"/><path stroke="#cccccc" stroke-width="1.0" stroke-linecap="butt" d="M434.5 61.5L434.5 300.5" fill-rule="nonzero"/><path stroke="#cccccc" stroke-width="1.0" stroke-linecap="butt" d="M562.5 61.5L562.5 300.5" fill-rule="nonzero"/><path stroke="#333333" stroke-width="1.0" stroke-linecap="butt" d="M77.5 300.5L581.5 300.5" fill-rule="nonzero"/><path stroke="#cccccc" stroke-width="1.0" stroke-linecap="butt" d="M77.5 220.5L581.5 220.5" fill-rule="nonzero"/><path stroke="#cccccc" stroke-width="1.0" stroke-linecap="butt" d="M77.5 141.5L581.5 141.5" fill-rule="nonzero"/><path stroke="#cccccc" stroke-width="1.0" stroke-linecap="butt" d="M77.5 61.5L581.5 61.5" fill-rule="nonzero"/><clipPath id="id_0"><path d="M77.55 61.916668L581.45 61.916668L581.45 300.45L77.55 300.45L77.55 61.916668Z" clip-rule="nonzero"/></clipPath><path stroke="#4285f4" stroke-width="2.0" stroke-linecap="butt" clip-path="url(#id_0)" d="M84.36077 266.56238L117.046005 253.47484L182.41646 251.7733L313.15738 225.67775L574.6392 106.45879" fill-rule="nonzero"/><path fill="#4285f4" clip-path="url(#id_0)" d="M88.86077 266.56238C88.86077 269.04764 86.846054 271.06238 84.36077 271.06238C81.875496 271.06238 79.86077 269.04764 79.86077 266.56238C79.86077 264.0771 81.875496 262.06238 84.36077 262.06238C86.846054 262.06238 88.86077 264.0771 88.86077 266.56238Z" fill-rule="nonzero"/><path fill="#4285f4" clip-path="url(#id_0)" d="M121.546005 253.47484C121.546005 255.96011 119.53129 257.97482 117.046005 257.97482C114.56072 257.97482 112.546005 255.96011 112.546005 253.47484C112.546005 250.98955 114.56072 248.97484 117.046005 248.97484C119.53129 248.97484 121.546005 250.98955 121.546005 253.47484Z" fill-rule="nonzero"/><path fill="#4285f4" clip-path="url(#id_0)" d="M186.91646 251.7733C186.91646 254.25858 184.90175 256.2733 182.41646 256.2733C179.93118 256.2733 177.91646 254.25858 177.91646 251.7733C177.91646 249.28801 179.93118 247.2733 182.41646 247.2733C184.90175 247.2733 186.91646 249.28801 186.91646 251.7733Z" fill-rule="nonzero"/><path fill="#4285f4" clip-path="url(#id_0)" d="M317.65738 225.67775C317.65738 228.16302 315.64267 230.17775 313.15738 230.17775C310.6721 230.17775 308.65738 228.16302 308.65738 225.67775C308.65738 223.19247 310.6721 221.17775 313.15738 221.17775C315.64267 221.17775 317.65738 223.19247 317.65738 225.67775Z" fill-rule="nonzero"/><path fill="#4285f4" clip-path="url(#id_0)" d="M579.1392 106.45879C579.1392 108.94407 577.1245 110.95879 574.6392 110.95879C572.15393 110.95879 570.1392 108.94407 570.1392 106.45879C570.1392 103.97351 572.15393 101.95879 574.6392 101.95879C577.1245 101.95879 579.1392 103.97351 579.1392 106.45879Z" fill-rule="nonzero"/><path fill="#000000" d="M301.89062 349.45L301.89062 340.85626L303.60938 340.85626L305.64062 346.9344Q305.92188 347.79376 306.04688 348.21564Q306.1875 347.7469 306.5 346.84064L308.5625 340.85626L310.09375 340.85626L310.09375 349.45L309.0 349.45L309.0 342.2625L306.5 349.45L305.46875 349.45L302.98438 342.1375L302.98438 349.45L301.89062 349.45ZM314.85938 348.6844Q314.26562 349.1844 313.71875 349.3875Q313.1875 349.59064 312.5625 349.59064Q311.53125 349.59064 310.98438 349.09064Q310.4375 348.59064 310.4375 347.8094Q310.4375 347.35626 310.64062 346.98126Q310.84375 346.59064 311.1875 346.3719Q311.53125 346.1375 311.95312 346.02814Q312.25 345.9344 312.89062 345.85626Q314.15625 345.71564 314.76562 345.4969Q314.76562 345.27814 314.76562 345.23126Q314.76562 344.575 314.46875 344.3094Q314.0625 343.96564 313.26562 343.96564Q312.53125 343.96564 312.17188 344.23126Q311.8125 344.48126 311.64062 345.1375L310.60938 344.9969Q310.75 344.34064 311.07812 343.9344Q311.40625 343.52814 312.01562 343.3094Q312.625 343.09064 313.42188 343.09064Q314.21875 343.09064 314.71875 343.27814Q315.21875 343.46564 315.45312 343.7469Q315.6875 344.02814 315.78125 344.46564Q315.82812 344.73126 315.82812 345.4344L315.82812 346.84064Q315.82812 348.3094 315.89062 348.7Q315.96875 349.09064 316.17188 349.45L315.0625 349.45Q314.90625 349.1219 314.85938 348.6844ZM314.76562 346.325Q314.1875 346.5594 313.04688 346.73126Q312.39062 346.825 312.125 346.95Q311.85938 347.0594 311.70312 347.27814Q311.5625 347.4969 311.5625 347.77814Q311.5625 348.2 311.875 348.48126Q312.20312 348.7625 312.8125 348.7625Q313.42188 348.7625 313.89062 348.4969Q314.375 348.23126 314.59375 347.7625Q314.76562 347.40314 314.76562 346.71564L314.76562 346.325ZM320.09375 348.5125L320.25 349.4344Q319.79688 349.52814 319.45312 349.52814Q318.875 349.52814 318.5625 349.35626Q318.25 349.16876 318.10938 348.8719Q317.98438 348.575 317.98438 347.6219L317.98438 344.04376L317.21875 344.04376L317.21875 343.23126L317.98438 343.23126L317.98438 341.6844L319.03125 341.0594L319.03125 343.23126L320.09375 343.23126L320.09375 344.04376L319.03125 344.04376L319.03125 347.6844Q319.03125 348.1375 319.07812 348.2625Q319.14062 348.3875 319.26562 348.46564Q319.39062 348.54376 319.625 348.54376Q319.8125 348.54376 320.09375 348.5125ZM320.78125 349.45L320.78125 343.23126L321.73438 343.23126L321.73438 344.16876Q322.09375 343.5125 322.39062 343.3094Q322.70312 343.09064 323.07812 343.09064Q323.60938 343.09064 324.15625 343.41876L323.79688 344.40314Q323.40625 344.16876 323.03125 344.16876Q322.67188 344.16876 322.39062 344.3875Q322.125 344.59064 322.01562 344.96564Q321.82812 345.52814 321.82812 346.1844L321.82812 349.45L320.78125 349.45ZM324.79688 342.075L324.79688 340.85626L325.85938 340.85626L325.85938 342.075L324.79688 342.075ZM324.79688 349.45L324.79688 343.23126L325.85938 343.23126L325.85938 349.45L324.79688 349.45ZM327.09375 349.45L329.35938 346.21564L327.26562 343.23126L328.57812 343.23126L329.53125 344.6844Q329.79688 345.10626 329.96875 345.3875Q330.21875 344.9969 330.4375 344.7L331.48438 343.23126L332.75 343.23126L330.59375 346.15314L332.90625 349.45L331.625 349.45L330.34375 347.5125L330.0 346.9969L328.35938 349.45L327.09375 349.45ZM335.54688 346.6844L336.60938 346.59064Q336.6875 347.2469 336.96875 347.65314Q337.25 348.0594 337.82812 348.325Q338.42188 348.575 339.15625 348.575Q339.79688 348.575 340.29688 348.3875Q340.79688 348.1844 341.03125 347.85626Q341.28125 347.5125 341.28125 347.1219Q341.28125 346.71564 341.04688 346.41876Q340.8125 346.10626 340.28125 345.90314Q339.92188 345.7625 338.73438 345.48126Q337.5625 345.2 337.09375 344.95Q336.46875 344.6219 336.17188 344.15314Q335.875 343.66876 335.875 343.075Q335.875 342.4344 336.23438 341.8719Q336.60938 341.29376 337.3125 341.0125Q338.03125 340.71564 338.89062 340.71564Q339.84375 340.71564 340.57812 341.02814Q341.3125 341.325 341.70312 341.9344Q342.09375 342.52814 342.125 343.27814L341.03125 343.35626Q340.9375 342.54376 340.42188 342.1375Q339.92188 341.71564 338.9375 341.71564Q337.90625 341.71564 337.4375 342.09064Q336.96875 342.46564 336.96875 342.9969Q336.96875 343.46564 337.29688 343.7625Q337.625 344.0594 339.0 344.3719Q340.39062 344.6844 340.90625 344.91876Q341.65625 345.27814 342.01562 345.8094Q342.375 346.325 342.375 347.02814Q342.375 347.71564 341.98438 348.325Q341.59375 348.91876 340.85938 349.2625Q340.125 349.59064 339.20312 349.59064Q338.03125 349.59064 337.23438 349.2625Q336.45312 348.91876 336.0 348.23126Q335.5625 347.54376 335.54688 346.6844ZM343.79688 342.075L343.79688 340.85626L344.85938 340.85626L344.85938 342.075L343.79688 342.075ZM343.79688 349.45L343.79688 343.23126L344.85938 343.23126L344.85938 349.45L343.79688 349.45ZM346.23438 349.45L346.23438 348.59064L350.20312 344.04376Q349.51562 344.075 349.0 344.075L346.46875 344.075L346.46875 343.23126L351.5625 343.23126L351.5625 343.91876L348.1875 347.8719L347.53125 348.59064Q348.25 348.54376 348.85938 348.54376L351.75 348.54376L351.75 349.45L346.23438 349.45ZM356.04688 347.45L357.14062 347.575Q356.89062 348.52814 356.1875 349.0594Q355.48438 349.59064 354.40625 349.59064Q353.04688 349.59064 352.23438 348.7469Q351.4375 347.90314 351.4375 346.3875Q351.4375 344.825 352.25 343.96564Q353.0625 343.09064 354.34375 343.09064Q355.59375 343.09064 356.375 343.9344Q357.17188 344.77814 357.17188 346.325Q357.17188 346.41876 357.17188 346.60626L352.53125 346.60626Q352.59375 347.6375 353.10938 348.1844Q353.625 348.71564 354.40625 348.71564Q354.98438 348.71564 355.39062 348.41876Q355.8125 348.10626 356.04688 347.45ZM352.59375 345.7469L356.0625 345.7469Q356.0 344.95 355.67188 344.5594Q355.15625 343.95 354.35938 343.95Q353.625 343.95 353.125 344.4344Q352.64062 344.91876 352.59375 345.7469Z" fill-rule="nonzero"/><path fill="#000000" d="M29.550013 279.69897L20.956263 276.4021L20.956263 275.18335L29.550013 271.66772L29.550013 272.94897L26.940638 273.9646L26.940638 277.54272L29.550013 278.49585L29.550013 279.69897ZM26.018763 277.2146L26.018763 274.30835L23.643763 275.19897Q22.565638 275.62085 21.862513 275.80835Q22.690638 275.98022 23.503138 276.2771L26.018763 277.2146ZM29.550013 270.16772L23.331263 272.5271L23.331263 271.41772L27.050013 270.07397Q27.659388 269.87085 28.300013 269.68335Q27.815638 269.54272 27.128138 269.29272L23.331263 267.9021L23.331263 266.82397L29.550013 269.18335L29.550013 270.16772ZM27.550013 262.63647L27.675013 261.54272Q28.628138 261.79272 29.159388 262.49585Q29.690638 263.19897 29.690638 264.2771Q29.690638 265.63647 28.846888 266.44897Q28.003138 267.24585 26.487513 267.24585Q24.925013 267.24585 24.065638 266.43335Q23.190638 265.62085 23.190638 264.3396Q23.190638 263.0896 24.034388 262.30835Q24.878138 261.51147 26.425013 261.51147Q26.518763 261.51147 26.706263 261.51147L26.706263 266.1521Q27.737513 266.0896 28.284388 265.57397Q28.815638 265.05835 28.815638 264.2771Q28.815638 263.69897 28.518763 263.29272Q28.206263 262.87085 27.550013 262.63647ZM25.846888 266.0896L25.846888 262.62085Q25.050013 262.68335 24.659388 263.01147Q24.050013 263.5271 24.050013 264.32397Q24.050013 265.05835 24.534388 265.55835Q25.018763 266.04272 25.846888 266.0896ZM29.550013 259.9021L23.331263 259.9021L23.331263 258.94897L24.268763 258.94897Q23.612513 258.5896 23.409388 258.29272Q23.190638 257.98022 23.190638 257.60522Q23.190638 257.07397 23.518763 256.5271L24.503138 256.88647Q24.268763 257.2771 24.268763 257.6521Q24.268763 258.01147 24.487513 258.29272Q24.690638 258.55835 25.065638 258.66772Q25.628138 258.85522 26.284388 258.85522L29.550013 258.85522L29.550013 259.9021ZM28.784388 251.82396Q29.284388 252.41771 29.487513 252.96458Q29.690638 253.49583 29.690638 254.12083Q29.690638 255.15208 29.190638 255.69896Q28.690638 256.24585 27.909388 256.24585Q27.456263 256.24585 27.081263 256.04272Q26.690638 255.83958 26.471888 255.49583Q26.237513 255.15208 26.128138 254.73021Q26.034388 254.43333 25.956263 253.79271Q25.815638 252.52708 25.596888 251.91771Q25.378138 251.91771 25.331263 251.91771Q24.675013 251.91771 24.409388 252.21458Q24.065638 252.62083 24.065638 253.41771Q24.065638 254.15208 24.331263 254.51146Q24.581263 254.87083 25.237513 255.04271L25.096888 256.07397Q24.440638 255.93333 24.034388 255.60521Q23.628138 255.27708 23.409388 254.66771Q23.190638 254.05833 23.190638 253.26146Q23.190638 252.46458 23.378138 251.96458Q23.565638 251.46458 23.846888 251.23021Q24.128138 250.99583 24.565638 250.90208Q24.831263 250.85521 25.534388 250.85521L26.940638 250.85521Q28.409388 250.85521 28.800013 250.79271Q29.190638 250.71458 29.550013 250.51146L29.550013 251.62083Q29.221888 251.77708 28.784388 251.82396ZM26.425013 251.91771Q26.659388 252.49583 26.831263 253.63646Q26.925013 254.29271 27.050013 254.55833Q27.159388 254.82396 27.378138 254.98021Q27.596888 255.12083 27.878138 255.12083Q28.300013 255.12083 28.581263 254.80833Q28.862513 254.48021 28.862513 253.87083Q28.862513 253.26146 28.596888 252.79271Q28.331263 252.30833 27.862513 252.08958Q27.503138 251.91771 26.815638 251.91771L26.425013 251.91771ZM30.065638 249.08958L30.221888 248.05833Q30.690638 247.99583 30.909388 247.69896Q31.206263 247.30833 31.206263 246.63646Q31.206263 245.90208 30.909388 245.51146Q30.612513 245.10521 30.096888 244.96458Q29.768763 244.87083 28.737513 244.88646Q29.550013 245.57396 29.550013 246.60521Q29.550013 247.88646 28.628138 248.58958Q27.690638 249.29271 26.409388 249.29271Q25.518763 249.29271 24.768763 248.98021Q24.003138 248.65208 23.596888 248.04271Q23.190638 247.43333 23.190638 246.60521Q23.190638 245.49583 24.081263 244.77708L23.331263 244.77708L23.331263 243.80833L28.706263 243.80833Q30.159388 243.80833 30.768763 244.10521Q31.378138 244.40208 31.721888 245.04271Q32.08126 245.68333 32.08126 246.62083Q32.08126 247.73021 31.581263 248.41771Q31.081263 249.10521 30.065638 249.08958ZM26.331263 248.21458Q27.550013 248.21458 28.112513 247.73021Q28.675013 247.24583 28.675013 246.51146Q28.675013 245.77708 28.112513 245.29271Q27.550013 244.79271 26.362513 244.79271Q25.221888 244.79271 24.643763 245.30833Q24.065638 245.80833 24.065638 246.52708Q24.065638 247.23021 24.643763 247.73021Q25.206263 248.21458 26.331263 248.21458ZM27.550013 237.63646L27.675013 236.54271Q28.628138 236.79271 29.159388 237.49583Q29.690638 238.19896 29.690638 239.27708Q29.690638 240.63646 28.846888 241.44896Q28.003138 242.24583 26.487513 242.24583Q24.925013 242.24583 24.065638 241.43333Q23.190638 240.62083 23.190638 239.33958Q23.190638 238.08958 24.034388 237.30833Q24.878138 236.51146 26.425013 236.51146Q26.518763 236.51146 26.706263 236.51146L26.706263 241.15208Q27.737513 241.08958 28.284388 240.57396Q28.815638 240.05833 28.815638 239.27708Q28.815638 238.69896 28.518763 238.29271Q28.206263 237.87083 27.550013 237.63646ZM25.846888 241.08958L25.846888 237.62083Q25.050013 237.68333 24.659388 238.01146Q24.050013 238.52708 24.050013 239.32396Q24.050013 240.05833 24.534388 240.55833Q25.018763 241.04271 25.846888 241.08958ZM29.550013 231.76146L20.956263 231.76146L20.956263 230.60521L27.706263 226.08958L20.956263 226.08958L20.956263 224.99583L29.550013 224.99583L29.550013 226.16771L22.800013 230.68333L29.550013 230.68333L29.550013 231.76146ZM26.440638 223.27708Q24.706263 223.27708 23.878138 222.32396Q23.190638 221.52708 23.190638 220.37083Q23.190638 219.08958 24.034388 218.27708Q24.862513 217.44896 26.346888 217.44896Q27.550013 217.44896 28.237513 217.80833Q28.925013 218.16771 29.315638 218.87083Q29.690638 219.55833 29.690638 220.37083Q29.690638 221.66771 28.862513 222.48021Q28.018763 223.27708 26.440638 223.27708ZM26.440638 222.19896Q27.628138 222.19896 28.221888 221.68333Q28.815638 221.15208 28.815638 220.37083Q28.815638 219.57396 28.221888 219.05833Q27.628138 218.54271 26.409388 218.54271Q25.253138 218.54271 24.659388 219.07396Q24.065638 219.58958 24.065638 220.37083Q24.065638 221.15208 24.659388 221.68333Q25.237513 222.19896 26.440638 222.19896ZM29.550013 215.90208L23.331263 215.90208L23.331263 214.94896L24.268763 214.94896Q23.612513 214.58958 23.409388 214.29271Q23.190638 213.98021 23.190638 213.60521Q23.190638 213.07396 23.518763 212.52708L24.503138 212.88646Q24.268763 213.27708 24.268763 213.65208Q24.268763 214.01146 24.487513 214.29271Q24.690638 214.55833 25.065638 214.66771Q25.628138 214.85521 26.284388 214.85521L29.550013 214.85521L29.550013 215.90208ZM29.550013 211.88646L23.331263 211.88646L23.331263 210.94896L24.206263 210.94896Q23.737513 210.65208 23.471888 210.16771Q23.190638 209.68333 23.190638 209.05833Q23.190638 208.37083 23.471888 207.93333Q23.753138 207.48021 24.268763 207.30833Q23.190638 206.55833 23.190638 205.38646Q23.190638 204.44896 23.706263 203.96458Q24.206263 203.46458 25.284388 203.46458L29.550013 203.46458L29.550013 204.51146L25.628138 204.51146Q25.003138 204.51146 24.721888 204.62083Q24.440638 204.71458 24.268763 204.98021Q24.096888 205.24583 24.096888 205.62083Q24.096888 206.27708 24.534388 206.71458Q24.971888 207.13646 25.940638 207.13646L29.550013 207.13646L29.550013 208.19896L25.503138 208.19896Q24.800013 208.19896 24.456263 208.46458Q24.096888 208.71458 24.096888 209.29271Q24.096888 209.74583 24.331263 210.12083Q24.565638 210.49583 25.018763 210.66771Q25.471888 210.83958 26.315638 210.83958L29.550013 210.83958L29.550013 211.88646ZM28.784388 196.82396Q29.284388 197.41771 29.487513 197.96458Q29.690638 198.49583 29.690638 199.12083Q29.690638 200.15208 29.190638 200.69896Q28.690638 201.24583 27.909388 201.24583Q27.456263 201.24583 27.081263 201.04271Q26.690638 200.83958 26.471888 200.49583Q26.237513 200.15208 26.128138 199.73021Q26.034388 199.43333 25.956263 198.79271Q25.815638 197.52708 25.596888 196.91771Q25.378138 196.91771 25.331263 196.91771Q24.675013 196.91771 24.409388 197.21458Q24.065638 197.62083 24.065638 198.41771Q24.065638 199.15208 24.331263 199.51146Q24.581263 199.87083 25.237513 200.04271L25.096888 201.07396Q24.440638 200.93333 24.034388 200.60521Q23.628138 200.27708 23.409388 199.66771Q23.190638 199.05833 23.190638 198.26146Q23.190638 197.46458 23.378138 196.96458Q23.565638 196.46458 23.846888 196.23021Q24.128138 195.99583 24.565638 195.90208Q24.831263 195.85521 25.534388 195.85521L26.940638 195.85521Q28.409388 195.85521 28.800013 195.79271Q29.190638 195.71458 29.550013 195.51146L29.550013 196.62083Q29.221888 196.77708 28.784388 196.82396ZM26.425013 196.91771Q26.659388 197.49583 26.831263 198.63646Q26.925013 199.29271 27.050013 199.55833Q27.159388 199.82396 27.378138 199.98021Q27.596888 200.12083 27.878138 200.12083Q28.300013 200.12083 28.581263 199.80833Q28.862513 199.48021 28.862513 198.87083Q28.862513 198.26146 28.596888 197.79271Q28.331263 197.30833 27.862513 197.08958Q27.503138 196.91771 26.815638 196.91771L26.425013 196.91771ZM29.550013 193.91771L20.956263 193.91771L20.956263 192.85521L29.550013 192.85521L29.550013 193.91771ZM22.175013 190.88646L20.956263 190.88646L20.956263 189.82396L22.175013 189.82396L22.175013 190.88646ZM29.550013 190.88646L23.331263 190.88646L23.331263 189.82396L29.550013 189.82396L29.550013 190.88646ZM29.550013 188.44896L28.690638 188.44896L24.143763 184.48021Q24.175013 185.16771 24.175013 185.68333L24.175013 188.21458L23.331263 188.21458L23.331263 183.12083L24.018763 183.12083L27.971888 186.49583L28.690638 187.15208Q28.643763 186.43333 28.643763 185.82396L28.643763 182.93333L29.550013 182.93333L29.550013 188.44896ZM27.550013 178.63646L27.675013 177.54271Q28.628138 177.79271 29.159388 178.49583Q29.690638 179.19896 29.690638 180.27708Q29.690638 181.63646 28.846888 182.44896Q28.003138 183.24583 26.487513 183.24583Q24.925013 183.24583 24.065638 182.43333Q23.190638 181.62083 23.190638 180.33958Q23.190638 179.08958 24.034388 178.30833Q24.878138 177.51146 26.425013 177.51146Q26.518763 177.51146 26.706263 177.51146L26.706263 182.15208Q27.737513 182.08958 28.284388 181.57396Q28.815638 181.05833 28.815638 180.27708Q28.815638 179.69896 28.518763 179.29271Q28.206263 178.87083 27.550013 178.63646ZM25.846888 182.08958L25.846888 178.62083Q25.050013 178.68333 24.659388 179.01146Q24.050013 179.52708 24.050013 180.32396Q24.050013 181.05833 24.534388 181.55833Q25.018763 182.04271 25.846888 182.08958ZM29.550013 171.85521L28.768763 171.85521Q29.690638 172.44896 29.690638 173.58958Q29.690638 174.33958 29.284388 174.96458Q28.862513 175.58958 28.128138 175.93333Q27.393763 176.27708 26.440638 176.27708Q25.518763 176.27708 24.753138 175.96458Q23.987513 175.65208 23.596888 175.02708Q23.190638 174.40208 23.190638 173.63646Q23.190638 173.07396 23.425013 172.63646Q23.659388 172.19896 24.034388 171.91771L20.956263 171.91771L20.956263 170.87083L29.550013 170.87083L29.550013 171.85521ZM26.440638 175.18333Q27.643763 175.18333 28.237513 174.68333Q28.815638 174.18333 28.815638 173.49583Q28.815638 172.80833 28.253138 172.32396Q27.690638 171.83958 26.534388 171.83958Q25.253138 171.83958 24.659388 172.33958Q24.065638 172.82396 24.065638 173.54271Q24.065638 174.24583 24.643763 174.71458Q25.206263 175.18333 26.440638 175.18333ZM29.550013 165.76146L20.956263 165.76146L20.956263 162.51146Q20.956263 161.66771 21.034388 161.21458Q21.143763 160.57396 21.440638 160.15208Q21.737513 159.71458 22.268763 159.46458Q22.800013 159.19896 23.440638 159.19896Q24.534388 159.19896 25.300013 159.90208Q26.050013 160.58958 26.050013 162.41771L26.050013 164.62083L29.550013 164.62083L29.550013 165.76146ZM25.050013 164.62083L25.050013 162.40208Q25.050013 161.29271 24.643763 160.83958Q24.221888 160.37083 23.471888 160.37083Q22.940638 160.37083 22.565638 160.65208Q22.175013 160.91771 22.050013 161.35521Q21.971888 161.65208 21.971888 162.41771L21.971888 164.62083L25.050013 164.62083ZM27.550013 153.63646L27.675013 152.54271Q28.628138 152.79271 29.159388 153.49583Q29.690638 154.19896 29.690638 155.27708Q29.690638 156.63646 28.846888 157.44896Q28.003138 158.24583 26.487513 158.24583Q24.925013 158.24583 24.065638 157.43333Q23.190638 156.62083 23.190638 155.33958Q23.190638 154.08958 24.034388 153.30833Q24.878138 152.51146 26.425013 152.51146Q26.518763 152.51146 26.706263 152.51146L26.706263 157.15208Q27.737513 157.08958 28.284388 156.57396Q28.815638 156.05833 28.815638 155.27708Q28.815638 154.69896 28.518763 154.29271Q28.206263 153.87083 27.550013 153.63646ZM25.846888 157.08958L25.846888 153.62083Q25.050013 153.68333 24.659388 154.01146Q24.050013 154.52708 24.050013 155.32396Q24.050013 156.05833 24.534388 156.55833Q25.018763 157.04271 25.846888 157.08958ZM29.550013 150.90208L23.331263 150.90208L23.331263 149.94896L24.268763 149.94896Q23.612513 149.58958 23.409388 149.29271Q23.190638 148.98021 23.190638 148.60521Q23.190638 148.07396 23.518763 147.52708L24.503138 147.88646Q24.268763 148.27708 24.268763 148.65208Q24.268763 149.01146 24.487513 149.29271Q24.690638 149.55833 25.065638 149.66771Q25.628138 149.85521 26.284388 149.85521L29.550013 149.85521L29.550013 150.90208ZM29.550013 146.63646L24.143763 146.63646L24.143763 147.57396L23.331263 147.57396L23.331263 146.63646L22.659388 146.63646Q22.034388 146.63646 21.737513 146.52708Q21.315638 146.37083 21.065638 145.99583Q20.815638 145.60521 20.815638 144.91771Q20.815638 144.46458 20.925013 143.93333L21.831263 144.08958Q21.784388 144.41771 21.784388 144.71458Q21.784388 145.19896 21.987513 145.40208Q22.190638 145.58958 22.753138 145.58958L23.331263 145.58958L23.331263 144.37083L24.143763 144.37083L24.143763 145.58958L29.550013 145.58958L29.550013 146.63646ZM26.440638 144.27708Q24.706263 144.27708 23.878138 143.32396Q23.190638 142.52708 23.190638 141.37083Q23.190638 140.08958 24.034388 139.27708Q24.862513 138.44896 26.346888 138.44896Q27.550013 138.44896 28.237513 138.80833Q28.925013 139.16771 29.315638 139.87083Q29.690638 140.55833 29.690638 141.37083Q29.690638 142.66771 28.862513 143.48021Q28.018763 144.27708 26.440638 144.27708ZM26.440638 143.19896Q27.628138 143.19896 28.221888 142.68333Q28.815638 142.15208 28.815638 141.37083Q28.815638 140.57396 28.221888 140.05833Q27.628138 139.54271 26.409388 139.54271Q25.253138 139.54271 24.659388 140.07396Q24.065638 140.58958 24.065638 141.37083Q24.065638 142.15208 24.659388 142.68333Q25.237513 143.19896 26.440638 143.19896ZM29.550013 136.90208L23.331263 136.90208L23.331263 135.94896L24.268763 135.94896Q23.612513 135.58958 23.409388 135.29271Q23.190638 134.98021 23.190638 134.60521Q23.190638 134.07396 23.518763 133.52708L24.503138 133.88646Q24.268763 134.27708 24.268763 134.65208Q24.268763 135.01146 24.487513 135.29271Q24.690638 135.55833 25.065638 135.66771Q25.628138 135.85521 26.284388 135.85521L29.550013 135.85521L29.550013 136.90208ZM29.550013 132.88646L23.331263 132.88646L23.331263 131.94896L24.206263 131.94896Q23.737513 131.65208 23.471888 131.16771Q23.190638 130.68333 23.190638 130.05833Q23.190638 129.37083 23.471888 128.93333Q23.753138 128.48021 24.268763 128.30833Q23.190638 127.558334 23.190638 126.38646Q23.190638 125.44896 23.706263 124.964584Q24.206263 124.464584 25.284388 124.464584L29.550013 124.464584L29.550013 125.51146L25.628138 125.51146Q25.003138 125.51146 24.721888 125.620834Q24.440638 125.714584 24.268763 125.98021Q24.096888 126.245834 24.096888 126.620834Q24.096888 127.277084 24.534388 127.714584Q24.971888 128.13646 25.940638 128.13646L29.550013 128.13646L29.550013 129.19896L25.503138 129.19896Q24.800013 129.19896 24.456263 129.46458Q24.096888 129.71458 24.096888 130.29271Q24.096888 130.74583 24.331263 131.12083Q24.565638 131.49583 25.018763 131.66771Q25.471888 131.83958 26.315638 131.83958L29.550013 131.83958L29.550013 132.88646ZM28.784388 117.82396Q29.284388 118.41771 29.487513 118.964584Q29.690638 119.495834 29.690638 120.120834Q29.690638 121.152084 29.190638 121.69896Q28.690638 122.245834 27.909388 122.245834Q27.456263 122.245834 27.081263 122.04271Q26.690638 121.839584 26.471888 121.495834Q26.237513 121.152084 26.128138 120.73021Q26.034388 120.433334 25.956263 119.79271Q25.815638 118.527084 25.596888 117.91771Q25.378138 117.91771 25.331263 117.91771Q24.675013 117.91771 24.409388 118.214584Q24.065638 118.620834 24.065638 119.41771Q24.065638 120.152084 24.331263 120.51146Q24.581263 120.870834 25.237513 121.04271L25.096888 122.07396Q24.440638 121.933334 24.034388 121.60521Q23.628138 121.277084 23.409388 120.66771Q23.190638 120.058334 23.190638 119.26146Q23.190638 118.464584 23.378138 117.964584Q23.565638 117.464584 23.846888 117.23021Q24.128138 116.995834 24.565638 116.902084Q24.831263 116.85521 25.534388 116.85521L26.940638 116.85521Q28.409388 116.85521 28.800013 116.79271Q29.190638 116.714584 29.550013 116.51146L29.550013 117.620834Q29.221888 117.777084 28.784388 117.82396ZM26.425013 117.91771Q26.659388 118.495834 26.831263 119.63646Q26.925013 120.29271 27.050013 120.558334Q27.159388 120.82396 27.378138 120.98021Q27.596888 121.120834 27.878138 121.120834Q28.300013 121.120834 28.581263 120.808334Q28.862513 120.48021 28.862513 119.870834Q28.862513 119.26146 28.596888 118.79271Q28.331263 118.308334 27.862513 118.089584Q27.503138 117.91771 26.815638 117.91771L26.425013 117.91771ZM29.550013 114.88646L23.331263 114.88646L23.331263 113.94896L24.206263 113.94896Q23.190638 113.26146 23.190638 111.964584Q23.190638 111.402084 23.393763 110.933334Q23.596888 110.44896 23.925013 110.214584Q24.253138 109.98021 24.690638 109.88646Q24.987513 109.839584 25.721888 109.839584L29.550013 109.839584L29.550013 110.88646L25.768763 110.88646Q25.112513 110.88646 24.800013 111.01146Q24.487513 111.13646 24.300013 111.44896Q24.096888 111.76146 24.096888 112.183334Q24.096888 112.85521 24.534388 113.35521Q24.956263 113.839584 26.143763 113.839584L29.550013 113.839584L29.550013 114.88646ZM27.268763 103.82396L27.409388 102.79271Q28.471888 102.964584 29.081263 103.66771Q29.690638 104.370834 29.690638 105.38646Q29.690638 106.66771 28.862513 107.44896Q28.018763 108.214584 26.456263 108.214584Q25.456263 108.214584 24.706263 107.88646Q23.940638 107.54271 23.565638 106.870834Q23.190638 106.183334 23.190638 105.370834Q23.190638 104.370834 23.706263 103.73021Q24.206263 103.07396 25.159388 102.88646L25.315638 103.91771Q24.690638 104.058334 24.378138 104.433334Q24.050013 104.808334 24.050013 105.339584Q24.050013 106.13646 24.628138 106.63646Q25.190638 107.13646 26.425013 107.13646Q27.690638 107.13646 28.253138 106.652084Q28.815638 106.16771 28.815638 105.402084Q28.815638 104.777084 28.440638 104.370834Q28.065638 103.94896 27.268763 103.82396ZM27.550013 97.63646L27.675013 96.54271Q28.628138 96.79271 29.159388 97.495834Q29.690638 98.19896 29.690638 99.277084Q29.690638 100.63646 28.846888 101.44896Q28.003138 102.245834 26.487513 102.245834Q24.925013 102.245834 24.065638 101.433334Q23.190638 100.620834 23.190638 99.339584Q23.190638 98.089584 24.034388 97.308334Q24.878138 96.51146 26.425013 96.51146Q26.518763 96.51146 26.706263 96.51146L26.706263 101.152084Q27.737513 101.089584 28.284388 100.57396Q28.815638 100.058334 28.815638 99.277084Q28.815638 98.69896 28.518763 98.29271Q28.206263 97.870834 27.550013 97.63646ZM25.846888 101.089584L25.846888 97.620834Q25.050013 97.683334 24.659388 98.01146Q24.050013 98.527084 24.050013 99.32396Q24.050013 100.058334 24.534388 100.558334Q25.018763 101.04271 25.846888 101.089584Z" fill-rule="nonzero"/><path fill="#000000" d="M65.05 300.21564Q65.05 298.6844 65.3625 297.7625Q65.675 296.825 66.28438 296.325Q66.90938 295.825 67.84688 295.825Q68.53438 295.825 69.05 296.10626Q69.58125 296.3875 69.925 296.91876Q70.26875 297.4344 70.45625 298.1844Q70.64375 298.9344 70.64375 300.21564Q70.64375 301.73126 70.33125 302.65314Q70.03438 303.575 69.40938 304.09064Q68.8 304.59064 67.84688 304.59064Q66.6125 304.59064 65.89375 303.7Q65.05 302.6375 65.05 300.21564ZM66.12813 300.21564Q66.12813 302.325 66.62813 303.02814Q67.12813 303.73126 67.84688 303.73126Q68.58125 303.73126 69.06563 303.02814Q69.56563 302.325 69.56563 300.21564Q69.56563 298.09064 69.06563 297.40314Q68.58125 296.7 67.83125 296.7Q67.1125 296.7 66.675 297.3094Q66.12813 298.09064 66.12813 300.21564Z" fill-rule="nonzero"/><path fill="#000000" d="M65.05 222.68889L66.15938 222.59514Q66.28438 223.40764 66.72188 223.81389Q67.175 224.22014 67.81563 224.22014Q68.56563 224.22014 69.09688 223.64201Q69.62813 223.06389 69.62813 222.12639Q69.62813 221.22014 69.1125 220.70451Q68.6125 220.17326 67.78438 220.17326Q67.28438 220.17326 66.8625 220.40764Q66.45625 220.64201 66.22188 221.00139L65.2375 220.87639L66.06563 216.47014L70.34688 216.47014L70.34688 217.47014L66.90938 217.47014L66.45625 219.78264Q67.22188 219.23576 68.06563 219.23576Q69.19063 219.23576 69.95625 220.01701Q70.7375 220.79826 70.7375 222.03264Q70.7375 223.18889 70.06563 224.04826Q69.2375 225.07951 67.81563 225.07951Q66.64375 225.07951 65.89375 224.42326Q65.15938 223.76701 65.05 222.68889Z" fill-rule="nonzero"/><path fill="#000000" d="M62.01875 145.42778L60.971874 145.42778L60.971874 138.70903Q60.58125 139.0684 59.95625 139.4434Q59.346874 139.80278 58.8625 139.97466L58.8625 138.95903Q59.7375 138.53716 60.39375 137.95903Q61.065624 137.36528 61.346874 136.80278L62.01875 136.80278L62.01875 145.42778ZM65.05 141.1934Q65.05 139.66216 65.3625 138.74028Q65.675 137.80278 66.28438 137.30278Q66.90938 136.80278 67.84688 136.80278Q68.53438 136.80278 69.05 137.08403Q69.58125 137.36528 69.925 137.89653Q70.26875 138.41216 70.45625 139.16216Q70.64375 139.91216 70.64375 141.1934Q70.64375 142.70903 70.33125 143.6309Q70.03438 144.55278 69.40938 145.0684Q68.8 145.5684 67.84688 145.5684Q66.6125 145.5684 65.89375 144.67778Q65.05 143.61528 65.05 141.1934ZM66.12813 141.1934Q66.12813 143.30278 66.62813 144.0059Q67.12813 144.70903 67.84688 144.70903Q68.58125 144.70903 69.06563 144.0059Q69.56563 143.30278 69.56563 141.1934Q69.56563 139.0684 69.06563 138.3809Q68.58125 137.67778 67.83125 137.67778Q67.1125 137.67778 66.675 138.28716Q66.12813 139.0684 66.12813 141.1934Z" fill-rule="nonzero"/><path fill="#000000" d="M62.01875 65.916664L60.971874 65.916664L60.971874 59.197914Q60.58125 59.55729 59.95625 59.93229Q59.346874 60.291664 58.8625 60.46354L58.8625 59.447914Q59.7375 59.02604 60.39375 58.447914Q61.065624 57.854164 61.346874 57.291664L62.01875 57.291664L62.01875 65.916664ZM65.05 63.666664L66.15938 63.572914Q66.28438 64.385414 66.72188 64.791664Q67.175 65.197914 67.81563 65.197914Q68.56563 65.197914 69.09688 64.61979Q69.62813 64.041664 69.62813 63.104164Q69.62813 62.197914 69.1125 61.68229Q68.6125 61.15104 67.78438 61.15104Q67.28438 61.15104 66.8625 61.385414Q66.45625 61.61979 66.22188 61.979164L65.2375 61.854164L66.06563 57.447914L70.34688 57.447914L70.34688 58.447914L66.90938 58.447914L66.45625 60.760414Q67.22188 60.21354 68.06563 60.21354Q69.19063 60.21354 69.95625 60.99479Q70.7375 61.77604 70.7375 63.010414Q70.7375 64.166664 70.06563 65.02604Q69.2375 66.05729 67.81563 66.05729Q66.64375 66.05729 65.89375 65.40104Q65.15938 64.74479 65.05 63.666664Z" fill-rule="nonzero"/><path fill="#000000" d="M169.82097 317.45L168.7741 317.45L168.7741 310.73126Q168.38347 311.09064 167.75847 311.46564Q167.1491 311.825 166.66472 311.9969L166.66472 310.98126Q167.53972 310.5594 168.19597 309.98126Q168.86784 309.3875 169.1491 308.825L169.82097 308.825L169.82097 317.45ZM172.85222 313.21564Q172.85222 311.6844 173.16472 310.7625Q173.47722 309.825 174.0866 309.325Q174.7116 308.825 175.6491 308.825Q176.3366 308.825 176.85222 309.10626Q177.38347 309.3875 177.72722 309.91876Q178.07097 310.4344 178.25847 311.1844Q178.44597 311.9344 178.44597 313.21564Q178.44597 314.73126 178.13347 315.65314Q177.8366 316.575 177.2116 317.09064Q176.60222 317.59064 175.6491 317.59064Q174.41472 317.59064 173.69597 316.7Q172.85222 315.6375 172.85222 313.21564ZM173.93034 313.21564Q173.93034 315.325 174.43034 316.02814Q174.93034 316.73126 175.6491 316.73126Q176.38347 316.73126 176.86784 316.02814Q177.36784 315.325 177.36784 313.21564Q177.36784 311.09064 176.86784 310.40314Q176.38347 309.7 175.63347 309.7Q174.91472 309.7 174.47722 310.3094Q173.93034 311.09064 173.93034 313.21564ZM179.85222 313.21564Q179.85222 311.6844 180.16472 310.7625Q180.47722 309.825 181.0866 309.325Q181.7116 308.825 182.6491 308.825Q183.3366 308.825 183.85222 309.10626Q184.38347 309.3875 184.72722 309.91876Q185.07097 310.4344 185.25847 311.1844Q185.44597 311.9344 185.44597 313.21564Q185.44597 314.73126 185.13347 315.65314Q184.8366 316.575 184.2116 317.09064Q183.60222 317.59064 182.6491 317.59064Q181.41472 317.59064 180.69597 316.7Q179.85222 315.6375 179.85222 313.21564ZM180.93034 313.21564Q180.93034 315.325 181.43034 316.02814Q181.93034 316.73126 182.6491 316.73126Q183.38347 316.73126 183.86784 316.02814Q184.36784 315.325 184.36784 313.21564Q184.36784 311.09064 183.86784 310.40314Q183.38347 309.7 182.63347 309.7Q181.91472 309.7 181.47722 310.3094Q180.93034 311.09064 180.93034 313.21564ZM186.85222 313.21564Q186.85222 311.6844 187.16472 310.7625Q187.47722 309.825 188.0866 309.325Q188.7116 308.825 189.6491 308.825Q190.3366 308.825 190.85222 309.10626Q191.38347 309.3875 191.72722 309.91876Q192.07097 310.4344 192.25847 311.1844Q192.44597 311.9344 192.44597 313.21564Q192.44597 314.73126 192.13347 315.65314Q191.8366 316.575 191.2116 317.09064Q190.60222 317.59064 189.6491 317.59064Q188.41472 317.59064 187.69597 316.7Q186.85222 315.6375 186.85222 313.21564ZM187.93034 313.21564Q187.93034 315.325 188.43034 316.02814Q188.93034 316.73126 189.6491 316.73126Q190.38347 316.73126 190.86784 316.02814Q191.36784 315.325 191.36784 313.21564Q191.36784 311.09064 190.86784 310.40314Q190.38347 309.7 189.63347 309.7Q188.91472 309.7 188.47722 310.3094Q187.93034 311.09064 187.93034 313.21564Z" fill-rule="nonzero"/><path fill="#000000" d="M299.07578 316.4344L299.07578 317.45L293.38828 317.45Q293.38828 317.075 293.51328 316.71564Q293.73203 316.1375 294.20078 315.575Q294.68515 315.0125 295.5914 314.27814Q296.99765 313.1219 297.48203 312.45Q297.98203 311.77814 297.98203 311.1844Q297.98203 310.5594 297.5289 310.1375Q297.07578 309.7 296.35703 309.7Q295.5914 309.7 295.13828 310.15314Q294.68515 310.60626 294.66953 311.41876L293.5914 311.3094Q293.70078 310.09064 294.41953 309.46564Q295.1539 308.825 296.38828 308.825Q297.62265 308.825 298.3414 309.5125Q299.06015 310.2 299.06015 311.21564Q299.06015 311.73126 298.8414 312.23126Q298.63828 312.71564 298.13828 313.27814Q297.6539 313.825 296.5289 314.77814Q295.57578 315.575 295.29453 315.8719Q295.0289 316.15314 294.85703 316.4344L299.07578 316.4344ZM300.5289 313.21564Q300.5289 311.6844 300.8414 310.7625Q301.1539 309.825 301.76328 309.325Q302.38828 308.825 303.32578 308.825Q304.01328 308.825 304.5289 309.10626Q305.06015 309.3875 305.4039 309.91876Q305.74765 310.4344 305.93515 311.1844Q306.12265 311.9344 306.12265 313.21564Q306.12265 314.73126 305.81015 315.65314Q305.51328 316.575 304.88828 317.09064Q304.2789 317.59064 303.32578 317.59064Q302.0914 317.59064 301.37265 316.7Q300.5289 315.6375 300.5289 313.21564ZM301.60703 313.21564Q301.60703 315.325 302.10703 316.02814Q302.60703 316.73126 303.32578 316.73126Q304.06015 316.73126 304.54453 316.02814Q305.04453 315.325 305.04453 313.21564Q305.04453 311.09064 304.54453 310.40314Q304.06015 309.7 303.31015 309.7Q302.5914 309.7 302.1539 310.3094Q301.60703 311.09064 301.60703 313.21564ZM307.5289 313.21564Q307.5289 311.6844 307.8414 310.7625Q308.1539 309.825 308.76328 309.325Q309.38828 308.825 310.32578 308.825Q311.01328 308.825 311.5289 309.10626Q312.06015 309.3875 312.4039 309.91876Q312.74765 310.4344 312.93515 311.1844Q313.12265 311.9344 313.12265 313.21564Q313.12265 314.73126 312.81015 315.65314Q312.51328 316.575 311.88828 317.09064Q311.2789 317.59064 310.32578 317.59064Q309.0914 317.59064 308.37265 316.7Q307.5289 315.6375 307.5289 313.21564ZM308.60703 313.21564Q308.60703 315.325 309.10703 316.02814Q309.60703 316.73126 310.32578 316.73126Q311.06015 316.73126 311.54453 316.02814Q312.04453 315.325 312.04453 313.21564Q312.04453 311.09064 311.54453 310.40314Q311.06015 309.7 310.31015 309.7Q309.5914 309.7 309.1539 310.3094Q308.60703 311.09064 308.60703 313.21564ZM314.5289 313.21564Q314.5289 311.6844 314.8414 310.7625Q315.1539 309.825 315.76328 309.325Q316.38828 308.825 317.32578 308.825Q318.01328 308.825 318.5289 309.10626Q319.06015 309.3875 319.4039 309.91876Q319.74765 310.4344 319.93515 311.1844Q320.12265 311.9344 320.12265 313.21564Q320.12265 314.73126 319.81015 315.65314Q319.51328 316.575 318.88828 317.09064Q318.2789 317.59064 317.32578 317.59064Q316.0914 317.59064 315.37265 316.7Q314.5289 315.6375 314.5289 313.21564ZM315.60703 313.21564Q315.60703 315.325 316.10703 316.02814Q316.60703 316.73126 317.32578 316.73126Q318.06015 316.73126 318.54453 316.02814Q319.04453 315.325 319.04453 313.21564Q319.04453 311.09064 318.54453 310.40314Q318.06015 309.7 317.31015 309.7Q316.5914 309.7 316.1539 310.3094Q315.60703 311.09064 315.60703 313.21564Z" fill-rule="nonzero"/><path fill="#000000" d="M421.2056 315.1844L422.2681 315.04376Q422.43997 315.9344 422.87747 316.34064Q423.31497 316.73126 423.93997 316.73126Q424.68997 316.73126 425.2056 316.21564Q425.72122 315.7 425.72122 314.9344Q425.72122 314.21564 425.23685 313.7469Q424.7681 313.2625 424.03372 313.2625Q423.73685 313.2625 423.28372 313.3875L423.40872 312.45Q423.5181 312.46564 423.5806 312.46564Q424.25247 312.46564 424.78372 312.1219Q425.3306 311.7625 425.3306 311.02814Q425.3306 310.45 424.93997 310.075Q424.54935 309.6844 423.92435 309.6844Q423.31497 309.6844 422.8931 310.075Q422.48685 310.46564 422.37747 311.23126L421.31497 311.04376Q421.50247 309.9969 422.18997 309.41876Q422.87747 308.825 423.8931 308.825Q424.59622 308.825 425.18997 309.1375Q425.78372 309.4344 426.09622 309.95Q426.40872 310.46564 426.40872 311.0594Q426.40872 311.60626 426.11185 312.075Q425.81497 312.52814 425.23685 312.79376Q425.98685 312.96564 426.40872 313.52814Q426.8306 314.075 426.8306 314.91876Q426.8306 316.04376 426.00247 316.825Q425.18997 317.60626 423.93997 317.60626Q422.81497 317.60626 422.06497 316.9344Q421.31497 316.2469 421.2056 315.1844ZM428.2056 313.21564Q428.2056 311.6844 428.5181 310.7625Q428.8306 309.825 429.43997 309.325Q430.06497 308.825 431.00247 308.825Q431.68997 308.825 432.2056 309.10626Q432.73685 309.3875 433.0806 309.91876Q433.42435 310.4344 433.61185 311.1844Q433.79935 311.9344 433.79935 313.21564Q433.79935 314.73126 433.48685 315.65314Q433.18997 316.575 432.56497 317.09064Q431.9556 317.59064 431.00247 317.59064Q429.7681 317.59064 429.04935 316.7Q428.2056 315.6375 428.2056 313.21564ZM429.28372 313.21564Q429.28372 315.325 429.78372 316.02814Q430.28372 316.73126 431.00247 316.73126Q431.73685 316.73126 432.22122 316.02814Q432.72122 315.325 432.72122 313.21564Q432.72122 311.09064 432.22122 310.40314Q431.73685 309.7 430.98685 309.7Q430.2681 309.7 429.8306 310.3094Q429.28372 311.09064 429.28372 313.21564ZM435.2056 313.21564Q435.2056 311.6844 435.5181 310.7625Q435.8306 309.825 436.43997 309.325Q437.06497 308.825 438.00247 308.825Q438.68997 308.825 439.2056 309.10626Q439.73685 309.3875 440.0806 309.91876Q440.42435 310.4344 440.61185 311.1844Q440.79935 311.9344 440.79935 313.21564Q440.79935 314.73126 440.48685 315.65314Q440.18997 316.575 439.56497 317.09064Q438.9556 317.59064 438.00247 317.59064Q436.7681 317.59064 436.04935 316.7Q435.2056 315.6375 435.2056 313.21564ZM436.28372 313.21564Q436.28372 315.325 436.78372 316.02814Q437.28372 316.73126 438.00247 316.73126Q438.73685 316.73126 439.22122 316.02814Q439.72122 315.325 439.72122 313.21564Q439.72122 311.09064 439.22122 310.40314Q438.73685 309.7 437.98685 309.7Q437.2681 309.7 436.8306 310.3094Q436.28372 311.09064 436.28372 313.21564ZM442.2056 313.21564Q442.2056 311.6844 442.5181 310.7625Q442.8306 309.825 443.43997 309.325Q444.06497 308.825 445.00247 308.825Q445.68997 308.825 446.2056 309.10626Q446.73685 309.3875 447.0806 309.91876Q447.42435 310.4344 447.61185 311.1844Q447.79935 311.9344 447.79935 313.21564Q447.79935 314.73126 447.48685 315.65314Q447.18997 316.575 446.56497 317.09064Q445.9556 317.59064 445.00247 317.59064Q443.7681 317.59064 443.04935 316.7Q442.2056 315.6375 442.2056 313.21564ZM443.28372 313.21564Q443.28372 315.325 443.78372 316.02814Q444.28372 316.73126 445.00247 316.73126Q445.73685 316.73126 446.22122 316.02814Q446.72122 315.325 446.72122 313.21564Q446.72122 311.09064 446.22122 310.40314Q445.73685 309.7 444.98685 309.7Q444.2681 309.7 443.8306 310.3094Q443.28372 311.09064 443.28372 313.21564Z" fill-rule="nonzero"/><path fill="#000000" d="M552.25726 317.45L552.25726 315.3875L548.5385 315.3875L548.5385 314.41876L552.4604 308.85626L553.31976 308.85626L553.31976 314.41876L554.476 314.41876L554.476 315.3875L553.31976 315.3875L553.31976 317.45L552.25726 317.45ZM552.25726 314.41876L552.25726 310.5594L549.56976 314.41876L552.25726 314.41876ZM555.88226 313.21564Q555.88226 311.6844 556.19476 310.7625Q556.50726 309.825 557.11664 309.325Q557.74164 308.825 558.67914 308.825Q559.36664 308.825 559.88226 309.10626Q560.4135 309.3875 560.75726 309.91876Q561.101 310.4344 561.2885 311.1844Q561.476 311.9344 561.476 313.21564Q561.476 314.73126 561.1635 315.65314Q560.86664 316.575 560.24164 317.09064Q559.63226 317.59064 558.67914 317.59064Q557.44476 317.59064 556.726 316.7Q555.88226 315.6375 555.88226 313.21564ZM556.9604 313.21564Q556.9604 315.325 557.4604 316.02814Q557.9604 316.73126 558.67914 316.73126Q559.4135 316.73126 559.8979 316.02814Q560.3979 315.325 560.3979 313.21564Q560.3979 311.09064 559.8979 310.40314Q559.4135 309.7 558.6635 309.7Q557.94476 309.7 557.50726 310.3094Q556.9604 311.09064 556.9604 313.21564ZM562.88226 313.21564Q562.88226 311.6844 563.19476 310.7625Q563.50726 309.825 564.11664 309.325Q564.74164 308.825 565.67914 308.825Q566.36664 308.825 566.88226 309.10626Q567.4135 309.3875 567.75726 309.91876Q568.101 310.4344 568.2885 311.1844Q568.476 311.9344 568.476 313.21564Q568.476 314.73126 568.1635 315.65314Q567.86664 316.575 567.24164 317.09064Q566.63226 317.59064 565.67914 317.59064Q564.44476 317.59064 563.726 316.7Q562.88226 315.6375 562.88226 313.21564ZM563.9604 313.21564Q563.9604 315.325 564.4604 316.02814Q564.9604 316.73126 565.67914 316.73126Q566.4135 316.73126 566.8979 316.02814Q567.3979 315.325 567.3979 313.21564Q567.3979 311.09064 566.8979 310.40314Q566.4135 309.7 565.6635 309.7Q564.94476 309.7 564.50726 310.3094Q563.9604 311.09064 563.9604 313.21564ZM569.88226 313.21564Q569.88226 311.6844 570.19476 310.7625Q570.50726 309.825 571.11664 309.325Q571.74164 308.825 572.67914 308.825Q573.36664 308.825 573.88226 309.10626Q574.4135 309.3875 574.75726 309.91876Q575.101 310.4344 575.2885 311.1844Q575.476 311.9344 575.476 313.21564Q575.476 314.73126 575.1635 315.65314Q574.86664 316.575 574.24164 317.09064Q573.63226 317.59064 572.67914 317.59064Q571.44476 317.59064 570.726 316.7Q569.88226 315.6375 569.88226 313.21564ZM570.9604 313.21564Q570.9604 315.325 571.4604 316.02814Q571.9604 316.73126 572.67914 316.73126Q573.4135 316.73126 573.8979 316.02814Q574.3979 315.325 574.3979 313.21564Q574.3979 311.09064 573.8979 310.40314Q573.4135 309.7 572.6635 309.7Q571.94476 309.7 571.50726 310.3094Q570.9604 311.09064 570.9604 313.21564Z" fill-rule="nonzero"/><path fill="#757575" d="M19.45625 32.95625L21.2375 32.8Q21.3625 33.8625 21.815624 34.55Q22.284374 35.2375 23.253124 35.675Q24.2375 36.096874 25.471874 36.096874Q26.55 36.096874 27.378124 35.784374Q28.20625 35.45625 28.6125 34.89375Q29.01875 34.33125 29.01875 33.659374Q29.01875 32.9875 28.628124 32.4875Q28.2375 31.9875 27.346874 31.64375Q26.76875 31.409374 24.784374 30.940624Q22.815624 30.471874 22.034374 30.05Q21.003124 29.51875 20.503124 28.721874Q20.003124 27.925 20.003124 26.940624Q20.003124 25.846874 20.6125 24.909374Q21.221874 23.971874 22.409374 23.4875Q23.596874 22.9875 25.034374 22.9875Q26.628124 22.9875 27.846874 23.503124Q29.065624 24.01875 29.70625 25.01875Q30.3625 26.003124 30.409374 27.26875L28.596874 27.409374Q28.45625 26.05 27.6125 25.3625Q26.76875 24.659374 25.1125 24.659374Q23.39375 24.659374 22.596874 25.3Q21.815624 25.925 21.815624 26.8Q21.815624 27.58125 22.378124 28.08125Q22.925 28.58125 25.2375 29.096874Q27.55 29.6125 28.409374 30.003124Q29.659374 30.58125 30.253124 31.471874Q30.846874 32.346874 30.846874 33.503124Q30.846874 34.64375 30.190624 35.659374Q29.534374 36.675 28.3 37.2375Q27.08125 37.8 25.55 37.8Q23.6125 37.8 22.3 37.2375Q20.9875 36.659374 20.2375 35.51875Q19.4875 34.378124 19.45625 32.95625ZM33.409374 37.55L33.409374 23.2375L35.315624 23.2375L35.315624 37.55L33.409374 37.55ZM39.034374 37.55L39.034374 23.2375L41.89375 23.2375L45.26875 33.3625Q45.7375 34.784374 45.95625 35.4875Q46.20625 34.70625 46.721874 33.190624L50.14375 23.2375L52.690624 23.2375L52.690624 37.55L50.878124 37.55L50.878124 25.565624L46.70625 37.55L45.003124 37.55L40.8625 25.3625L40.8625 37.55L39.034374 37.55ZM56.096874 37.55L56.096874 23.2375L61.01875 23.2375Q62.690624 23.2375 63.58125 23.440624Q64.8 23.721874 65.675 24.45625Q66.8 25.425 67.3625 26.909374Q67.925 28.39375 67.925 30.315624Q67.925 31.940624 67.55 33.20625Q67.175 34.45625 66.56563 35.284374Q65.97188 36.1125 65.26875 36.596874Q64.56563 37.065624 63.565624 37.315624Q62.565624 37.55 61.253124 37.55L56.096874 37.55ZM57.9875 35.8625L61.05 35.8625Q62.45625 35.8625 63.253124 35.596874Q64.06563 35.33125 64.55 34.846874Q65.22188 34.175 65.59688 33.05Q65.97188 31.909374 65.97188 30.284374Q65.97188 28.034374 65.2375 26.83125Q64.50313 25.628124 63.440624 25.221874Q62.690624 24.925 61.003124 24.925L57.9875 24.925L57.9875 35.8625ZM74.51875 37.55L80.01875 23.2375L82.06563 23.2375L87.925 37.55L85.76875 37.55L84.09688 33.20625L78.1125 33.20625L76.53438 37.55L74.51875 37.55ZM78.65938 31.675L83.50313 31.675L82.01875 27.70625Q81.33125 25.89375 81.00313 24.7375Q80.72188 26.1125 80.22188 27.471874L78.65938 31.675ZM91.75313 37.55L87.8 27.175L89.65938 27.175L91.89375 33.39375Q92.25313 34.39375 92.55 35.471874Q92.78438 34.659374 93.20625 33.503124L95.50313 27.175L97.31563 27.175L93.39375 37.55L91.75313 37.55ZM104.97188 34.20625L106.78438 34.440624Q106.3625 36.01875 105.19063 36.909374Q104.03438 37.784374 102.22188 37.784374Q99.95625 37.784374 98.6125 36.39375Q97.28438 34.9875 97.28438 32.45625Q97.28438 29.83125 98.62813 28.39375Q99.97188 26.940624 102.12813 26.940624Q104.20625 26.940624 105.51875 28.3625Q106.84688 29.76875 106.84688 32.346874Q106.84688 32.503124 106.83125 32.815624L99.09688 32.815624Q99.19063 34.51875 100.06563 35.425Q100.94063 36.33125 102.2375 36.33125Q103.20625 36.33125 103.87813 35.83125Q104.56563 35.315624 104.97188 34.20625ZM99.19063 31.3625L104.9875 31.3625Q104.87813 30.065624 104.33125 29.409374Q103.4875 28.39375 102.14375 28.39375Q100.94063 28.39375 100.1125 29.20625Q99.28438 30.003124 99.19063 31.3625ZM108.84688 37.55L108.84688 27.175L110.425 27.175L110.425 28.753124Q111.03438 27.64375 111.55 27.3Q112.06563 26.940624 112.675 26.940624Q113.56563 26.940624 114.4875 27.503124L113.87813 29.14375Q113.2375 28.753124 112.59688 28.753124Q112.01875 28.753124 111.55 29.1125Q111.09688 29.45625 110.89375 30.065624Q110.6125 31.003124 110.6125 32.1125L110.6125 37.55L108.84688 37.55ZM122.64375 36.26875Q121.65938 37.096874 120.75313 37.440624Q119.84688 37.784374 118.81563 37.784374Q117.1125 37.784374 116.19063 36.95625Q115.26875 36.1125 115.26875 34.815624Q115.26875 34.05 115.6125 33.425Q115.97188 32.8 116.53438 32.425Q117.09688 32.034374 117.8 31.83125Q118.31563 31.70625 119.3625 31.565624Q121.4875 31.315624 122.4875 30.971874Q122.50313 30.6125 122.50313 30.503124Q122.50313 29.440624 122.00313 28.9875Q121.33125 28.39375 120.00313 28.39375Q118.75313 28.39375 118.15938 28.83125Q117.58125 29.26875 117.3 30.378124L115.58125 30.14375Q115.81563 29.034374 116.34688 28.3625Q116.87813 27.675 117.89375 27.315624Q118.90938 26.940624 120.25313 26.940624Q121.58125 26.940624 122.40938 27.253124Q123.2375 27.565624 123.62813 28.05Q124.01875 28.51875 124.175 29.2375Q124.26875 29.690624 124.26875 30.8625L124.26875 33.20625Q124.26875 35.659374 124.37813 36.315624Q124.4875 36.95625 124.83125 37.55L122.9875 37.55Q122.72188 37.003124 122.64375 36.26875ZM122.4875 32.346874Q121.53438 32.7375 119.6125 33.003124Q118.53438 33.159374 118.08125 33.3625Q117.64375 33.55 117.39375 33.925Q117.14375 34.3 117.14375 34.76875Q117.14375 35.471874 117.675 35.940624Q118.20625 36.409374 119.2375 36.409374Q120.25313 36.409374 121.03438 35.971874Q121.83125 35.51875 122.20625 34.753124Q122.4875 34.14375 122.4875 32.9875L122.4875 32.346874ZM126.55 38.409374L128.25313 38.659374Q128.3625 39.45625 128.84688 39.815624Q129.50313 40.3 130.64375 40.3Q131.8625 40.3 132.51875 39.815624Q133.19063 39.33125 133.425 38.45625Q133.56563 37.909374 133.55 36.190624Q132.39375 37.55 130.675 37.55Q128.53438 37.55 127.3625 36.003124Q126.19063 34.45625 126.19063 32.3Q126.19063 30.815624 126.72188 29.565624Q127.26875 28.315624 128.28438 27.628124Q129.31563 26.940624 130.69063 26.940624Q132.51875 26.940624 133.72188 28.425L133.72188 27.175L135.33125 27.175L135.33125 36.14375Q135.33125 38.565624 134.83125 39.565624Q134.34688 40.58125 133.26875 41.159374Q132.20625 41.753124 130.64375 41.753124Q128.8 41.753124 127.64375 40.925Q126.50313 40.096874 126.55 38.409374ZM128.00313 32.175Q128.00313 34.221874 128.81563 35.159374Q129.62813 36.096874 130.84688 36.096874Q132.05 36.096874 132.8625 35.159374Q133.69063 34.221874 133.69063 32.2375Q133.69063 30.33125 132.84688 29.3625Q132.00313 28.39375 130.81563 28.39375Q129.64375 28.39375 128.81563 29.346874Q128.00313 30.3 128.00313 32.175ZM144.97188 34.20625L146.78438 34.440624Q146.3625 36.01875 145.19063 36.909374Q144.03438 37.784374 142.22188 37.784374Q139.95625 37.784374 138.6125 36.39375Q137.28438 34.9875 137.28438 32.45625Q137.28438 29.83125 138.62813 28.39375Q139.97188 26.940624 142.12813 26.940624Q144.20625 26.940624 145.51875 28.3625Q146.84688 29.76875 146.84688 32.346874Q146.84688 32.503124 146.83125 32.815624L139.09688 32.815624Q139.19063 34.51875 140.06563 35.425Q140.94063 36.33125 142.2375 36.33125Q143.20625 36.33125 143.87813 35.83125Q144.56563 35.315624 144.97188 34.20625ZM139.19063 31.3625L144.9875 31.3625Q144.87813 30.065624 144.33125 29.409374Q143.4875 28.39375 142.14375 28.39375Q140.94063 28.39375 140.1125 29.20625Q139.28438 30.003124 139.19063 31.3625ZM155.08125 37.55L155.08125 23.2375L157.01875 23.2375L164.53438 34.471874L164.53438 23.2375L166.34688 23.2375L166.34688 37.55L164.40938 37.55L156.89375 26.3L156.89375 37.55L155.08125 37.55ZM167.22188 32.3625Q167.22188 29.4875 168.81563 28.096874Q170.15938 26.940624 172.08125 26.940624Q174.22188 26.940624 175.56563 28.346874Q176.925 29.753124 176.925 32.221874Q176.925 34.221874 176.33125 35.378124Q175.7375 36.51875 174.58125 37.159374Q173.44063 37.784374 172.08125 37.784374Q169.89375 37.784374 168.55 36.39375Q167.22188 34.9875 167.22188 32.3625ZM169.01875 32.3625Q169.01875 34.3625 169.87813 35.346874Q170.75313 36.33125 172.08125 36.33125Q173.39375 36.33125 174.25313 35.346874Q175.12813 34.346874 175.12813 32.3Q175.12813 30.378124 174.25313 29.39375Q173.37813 28.39375 172.08125 28.39375Q170.75313 28.39375 169.87813 29.39375Q169.01875 30.378124 169.01875 32.3625ZM178.84688 37.55L178.84688 27.175L180.425 27.175L180.425 28.753124Q181.03438 27.64375 181.55 27.3Q182.06563 26.940624 182.675 26.940624Q183.56563 26.940624 184.4875 27.503124L183.87813 29.14375Q183.2375 28.753124 182.59688 28.753124Q182.01875 28.753124 181.55 29.1125Q181.09688 29.45625 180.89375 30.065624Q180.6125 31.003124 180.6125 32.1125L180.6125 37.55L178.84688 37.55ZM185.8625 37.55L185.8625 27.175L187.44063 27.175L187.44063 28.628124Q187.925 27.878124 188.7375 27.409374Q189.55 26.940624 190.58125 26.940624Q191.7375 26.940624 192.47188 27.425Q193.20625 27.89375 193.51875 28.753124Q194.75313 26.940624 196.72188 26.940624Q198.26875 26.940624 199.09688 27.8Q199.925 28.659374 199.925 30.425L199.925 37.55L198.175 37.55L198.175 31.01875Q198.175 29.95625 198.00313 29.503124Q197.83125 29.034374 197.37813 28.753124Q196.94063 28.471874 196.33125 28.471874Q195.2375 28.471874 194.50313 29.20625Q193.78438 29.925 193.78438 31.51875L193.78438 37.55L192.03438 37.55L192.03438 30.815624Q192.03438 29.64375 191.59688 29.065624Q191.175 28.471874 190.19063 28.471874Q189.45625 28.471874 188.81563 28.8625Q188.19063 29.253124 187.90938 30.003124Q187.62813 30.753124 187.62813 32.175L187.62813 37.55L185.8625 37.55ZM208.64375 36.26875Q207.65938 37.096874 206.75313 37.440624Q205.84688 37.784374 204.81563 37.784374Q203.1125 37.784374 202.19063 36.95625Q201.26875 36.1125 201.26875 34.815624Q201.26875 34.05 201.6125 33.425Q201.97188 32.8 202.53438 32.425Q203.09688 32.034374 203.8 31.83125Q204.31563 31.70625 205.3625 31.565624Q207.4875 31.315624 208.4875 30.971874Q208.50313 30.6125 208.50313 30.503124Q208.50313 29.440624 208.00313 28.9875Q207.33125 28.39375 206.00313 28.39375Q204.75313 28.39375 204.15938 28.83125Q203.58125 29.26875 203.3 30.378124L201.58125 30.14375Q201.81563 29.034374 202.34688 28.3625Q202.87813 27.675 203.89375 27.315624Q204.90938 26.940624 206.25313 26.940624Q207.58125 26.940624 208.40938 27.253124Q209.2375 27.565624 209.62813 28.05Q210.01875 28.51875 210.175 29.2375Q210.26875 29.690624 210.26875 30.8625L210.26875 33.20625Q210.26875 35.659374 210.37813 36.315624Q210.4875 36.95625 210.83125 37.55L208.9875 37.55Q208.72188 37.003124 208.64375 36.26875ZM208.4875 32.346874Q207.53438 32.7375 205.6125 33.003124Q204.53438 33.159374 204.08125 33.3625Q203.64375 33.55 203.39375 33.925Q203.14375 34.3 203.14375 34.76875Q203.14375 35.471874 203.675 35.940624Q204.20625 36.409374 205.2375 36.409374Q206.25313 36.409374 207.03438 35.971874Q207.83125 35.51875 208.20625 34.753124Q208.4875 34.14375 208.4875 32.9875L208.4875 32.346874ZM212.83125 37.55L212.83125 23.2375L214.58125 23.2375L214.58125 37.55L212.83125 37.55ZM216.87813 25.253124L216.87813 23.2375L218.64375 23.2375L218.64375 25.253124L216.87813 25.253124ZM216.87813 37.55L216.87813 27.175L218.64375 27.175L218.64375 37.55L216.87813 37.55ZM219.94063 37.55L219.94063 36.128124L226.55 28.55Q225.425 28.596874 224.56563 28.596874L220.33125 28.596874L220.33125 27.175L228.81563 27.175L228.81563 28.346874L223.19063 34.925L222.1125 36.128124Q223.28438 36.034374 224.33125 36.034374L229.12813 36.034374L229.12813 37.55L219.94063 37.55ZM236.97188 34.20625L238.78438 34.440624Q238.3625 36.01875 237.19063 36.909374Q236.03438 37.784374 234.22188 37.784374Q231.95625 37.784374 230.6125 36.39375Q229.28438 34.9875 229.28438 32.45625Q229.28438 29.83125 230.62813 28.39375Q231.97188 26.940624 234.12813 26.940624Q236.20625 26.940624 237.51875 28.3625Q238.84688 29.76875 238.84688 32.346874Q238.84688 32.503124 238.83125 32.815624L231.09688 32.815624Q231.19063 34.51875 232.06563 35.425Q232.94063 36.33125 234.2375 36.33125Q235.20625 36.33125 235.87813 35.83125Q236.56563 35.315624 236.97188 34.20625ZM231.19063 31.3625L236.9875 31.3625Q236.87813 30.065624 236.33125 29.409374Q235.4875 28.39375 234.14375 28.39375Q232.94063 28.39375 232.1125 29.20625Q231.28438 30.003124 231.19063 31.3625ZM247.59688 37.55L247.59688 36.2375Q246.6125 37.784374 244.69063 37.784374Q243.45625 37.784374 242.40938 37.096874Q241.37813 36.409374 240.8 35.190624Q240.2375 33.971874 240.2375 32.378124Q240.2375 30.815624 240.75313 29.55Q241.26875 28.284374 242.3 27.6125Q243.34688 26.940624 244.6125 26.940624Q245.55 26.940624 246.28438 27.346874Q247.01875 27.7375 247.4875 28.3625L247.4875 23.2375L249.22188 23.2375L249.22188 37.55L247.59688 37.55ZM242.03438 32.378124Q242.03438 34.3625 242.87813 35.346874Q243.72188 36.33125 244.8625 36.33125Q246.01875 36.33125 246.81563 35.39375Q247.62813 34.45625 247.62813 32.51875Q247.62813 30.39375 246.8 29.39375Q245.9875 28.39375 244.78438 28.39375Q243.6125 28.39375 242.81563 29.3625Q242.03438 30.315624 242.03438 32.378124ZM258.09686 37.55L258.09686 23.2375L263.4875 23.2375Q264.925 23.2375 265.675 23.3625Q266.72186 23.55 267.4406 24.05Q268.15936 24.534374 268.58124 25.425Q269.01874 26.315624 269.01874 27.378124Q269.01874 29.20625 267.84686 30.471874Q266.6906 31.721874 263.65936 31.721874L259.9875 31.721874L259.9875 37.55L258.09686 37.55ZM259.9875 30.034374L263.6906 30.034374Q265.51874 30.034374 266.28436 29.3625Q267.0656 28.675 267.0656 27.425Q267.0656 26.534374 266.6125 25.89375Q266.15936 25.253124 265.425 25.05Q264.9406 24.925 263.64374 24.925L259.9875 24.925L259.9875 30.034374ZM277.97186 34.20625L279.78436 34.440624Q279.3625 36.01875 278.1906 36.909374Q277.03436 37.784374 275.22186 37.784374Q272.95624 37.784374 271.6125 36.39375Q270.28436 34.9875 270.28436 32.45625Q270.28436 29.83125 271.6281 28.39375Q272.97186 26.940624 275.1281 26.940624Q277.20624 26.940624 278.51874 28.3625Q279.84686 29.76875 279.84686 32.346874Q279.84686 32.503124 279.83124 32.815624L272.09686 32.815624Q272.1906 34.51875 273.0656 35.425Q273.9406 36.33125 275.2375 36.33125Q276.20624 36.33125 276.8781 35.83125Q277.5656 35.315624 277.97186 34.20625ZM272.1906 31.3625L277.9875 31.3625Q277.8781 30.065624 277.33124 29.409374Q276.4875 28.39375 275.14374 28.39375Q273.9406 28.39375 273.1125 29.20625Q272.28436 30.003124 272.1906 31.3625ZM281.84686 37.55L281.84686 27.175L283.425 27.175L283.425 28.753124Q284.03436 27.64375 284.55 27.3Q285.0656 26.940624 285.675 26.940624Q286.5656 26.940624 287.4875 27.503124L286.8781 29.14375Q286.2375 28.753124 285.59686 28.753124Q285.01874 28.753124 284.55 29.1125Q284.09686 29.45625 283.89374 30.065624Q283.6125 31.003124 283.6125 32.1125L283.6125 37.55L281.84686 37.55ZM289.28436 37.55L289.28436 28.55L287.7375 28.55L287.7375 27.175L289.28436 27.175L289.28436 26.08125Q289.28436 25.034374 289.47186 24.51875Q289.72186 23.83125 290.3625 23.409374Q291.0031 22.9875 292.15936 22.9875Q292.90936 22.9875 293.8 23.159374L293.53436 24.690624Q292.9875 24.596874 292.5031 24.596874Q291.70624 24.596874 291.3625 24.940624Q291.03436 25.284374 291.03436 26.221874L291.03436 27.175L293.0656 27.175L293.0656 28.55L291.03436 28.55L291.03436 37.55L289.28436 37.55ZM294.22186 32.3625Q294.22186 29.4875 295.8156 28.096874Q297.15936 26.940624 299.08124 26.940624Q301.22186 26.940624 302.5656 28.346874Q303.925 29.753124 303.925 32.221874Q303.925 34.221874 303.33124 35.378124Q302.7375 36.51875 301.58124 37.159374Q300.4406 37.784374 299.08124 37.784374Q296.89374 37.784374 295.55 36.39375Q294.22186 34.9875 294.22186 32.3625ZM296.01874 32.3625Q296.01874 34.3625 296.8781 35.346874Q297.7531 36.33125 299.08124 36.33125Q300.39374 36.33125 301.2531 35.346874Q302.1281 34.346874 302.1281 32.3Q302.1281 30.378124 301.2531 29.39375Q300.3781 28.39375 299.08124 28.39375Q297.7531 28.39375 296.8781 29.39375Q296.01874 30.378124 296.01874 32.3625ZM305.84686 37.55L305.84686 27.175L307.425 27.175L307.425 28.753124Q308.03436 27.64375 308.55 27.3Q309.0656 26.940624 309.675 26.940624Q310.5656 26.940624 311.4875 27.503124L310.8781 29.14375Q310.2375 28.753124 309.59686 28.753124Q309.01874 28.753124 308.55 29.1125Q308.09686 29.45625 307.89374 30.065624Q307.6125 31.003124 307.6125 32.1125L307.6125 37.55L305.84686 37.55ZM312.8625 37.55L312.8625 27.175L314.4406 27.175L314.4406 28.628124Q314.925 27.878124 315.7375 27.409374Q316.55 26.940624 317.58124 26.940624Q318.7375 26.940624 319.47186 27.425Q320.20624 27.89375 320.51874 28.753124Q321.7531 26.940624 323.72186 26.940624Q325.26874 26.940624 326.09686 27.8Q326.925 28.659374 326.925 30.425L326.925 37.55L325.175 37.55L325.175 31.01875Q325.175 29.95625 325.0031 29.503124Q324.83124 29.034374 324.3781 28.753124Q323.9406 28.471874 323.33124 28.471874Q322.2375 28.471874 321.5031 29.20625Q320.78436 29.925 320.78436 31.51875L320.78436 37.55L319.03436 37.55L319.03436 30.815624Q319.03436 29.64375 318.59686 29.065624Q318.175 28.471874 317.1906 28.471874Q316.45624 28.471874 315.8156 28.8625Q315.1906 29.253124 314.90936 30.003124Q314.6281 30.753124 314.6281 32.175L314.6281 37.55L312.8625 37.55ZM335.64374 36.26875Q334.65936 37.096874 333.7531 37.440624Q332.84686 37.784374 331.8156 37.784374Q330.1125 37.784374 329.1906 36.95625Q328.26874 36.1125 328.26874 34.815624Q328.26874 34.05 328.6125 33.425Q328.97186 32.8 329.53436 32.425Q330.09686 32.034374 330.8 31.83125Q331.3156 31.70625 332.3625 31.565624Q334.4875 31.315624 335.4875 30.971874Q335.5031 30.6125 335.5031 30.503124Q335.5031 29.440624 335.0031 28.9875Q334.33124 28.39375 333.0031 28.39375Q331.7531 28.39375 331.15936 28.83125Q330.58124 29.26875 330.3 30.378124L328.58124 30.14375Q328.8156 29.034374 329.34686 28.3625Q329.8781 27.675 330.89374 27.315624Q331.90936 26.940624 333.2531 26.940624Q334.58124 26.940624 335.40936 27.253124Q336.2375 27.565624 336.6281 28.05Q337.01874 28.51875 337.175 29.2375Q337.26874 29.690624 337.26874 30.8625L337.26874 33.20625Q337.26874 35.659374 337.3781 36.315624Q337.4875 36.95625 337.83124 37.55L335.9875 37.55Q335.72186 37.003124 335.64374 36.26875ZM335.4875 32.346874Q334.53436 32.7375 332.6125 33.003124Q331.53436 33.159374 331.08124 33.3625Q330.64374 33.55 330.39374 33.925Q330.14374 34.3 330.14374 34.76875Q330.14374 35.471874 330.675 35.940624Q331.20624 36.409374 332.2375 36.409374Q333.2531 36.409374 334.03436 35.971874Q334.83124 35.51875 335.20624 34.753124Q335.4875 34.14375 335.4875 32.9875L335.4875 32.346874ZM339.8625 37.55L339.8625 27.175L341.45624 27.175L341.45624 28.659374Q342.59686 26.940624 344.7531 26.940624Q345.6906 26.940624 346.47186 27.284374Q347.26874 27.6125 347.65936 28.159374Q348.05 28.70625 348.20624 29.45625Q348.3 29.95625 348.3 31.175L348.3 37.55L346.53436 37.55L346.53436 31.2375Q346.53436 30.159374 346.33124 29.628124Q346.1281 29.096874 345.59686 28.784374Q345.08124 28.471874 344.3781 28.471874Q343.2531 28.471874 342.4406 29.190624Q341.6281 29.89375 341.6281 31.878124L341.6281 37.55L339.8625 37.55ZM356.64374 33.753124L358.3625 33.971874Q358.08124 35.76875 356.90936 36.784374Q355.7531 37.784374 354.05 37.784374Q351.925 37.784374 350.6281 36.39375Q349.33124 35.003124 349.33124 32.409374Q349.33124 30.721874 349.8781 29.471874Q350.4406 28.20625 351.58124 27.58125Q352.72186 26.940624 354.0656 26.940624Q355.7531 26.940624 356.8156 27.8Q357.89374 28.659374 358.20624 30.221874L356.4875 30.4875Q356.2531 29.440624 355.6281 28.925Q355.0031 28.39375 354.1281 28.39375Q352.8 28.39375 351.97186 29.346874Q351.14374 30.3 351.14374 32.346874Q351.14374 34.440624 351.9406 35.39375Q352.7375 36.33125 354.03436 36.33125Q355.0656 36.33125 355.7531 35.70625Q356.45624 35.065624 356.64374 33.753124ZM366.97186 34.20625L368.78436 34.440624Q368.3625 36.01875 367.1906 36.909374Q366.03436 37.784374 364.22186 37.784374Q361.95624 37.784374 360.6125 36.39375Q359.28436 34.9875 359.28436 32.45625Q359.28436 29.83125 360.6281 28.39375Q361.97186 26.940624 364.1281 26.940624Q366.20624 26.940624 367.51874 28.3625Q368.84686 29.76875 368.84686 32.346874Q368.84686 32.503124 368.83124 32.815624L361.09686 32.815624Q361.1906 34.51875 362.0656 35.425Q362.9406 36.33125 364.2375 36.33125Q365.20624 36.33125 365.8781 35.83125Q366.5656 35.315624 366.97186 34.20625ZM361.1906 31.3625L366.9875 31.3625Q366.8781 30.065624 366.33124 29.409374Q365.4875 28.39375 364.14374 28.39375Q362.9406 28.39375 362.1125 29.20625Q361.28436 30.003124 361.1906 31.3625ZM379.7531 37.55L375.8 27.175L377.65936 27.175L379.89374 33.39375Q380.2531 34.39375 380.55 35.471874Q380.78436 34.659374 381.20624 33.503124L383.5031 27.175L385.3156 27.175L381.39374 37.55L379.7531 37.55ZM385.15936 34.45625L386.90936 34.175Q387.05 35.221874 387.72186 35.784374Q388.39374 36.33125 389.59686 36.33125Q390.8 36.33125 391.3781 35.846874Q391.97186 35.346874 391.97186 34.690624Q391.97186 34.096874 391.45624 33.753124Q391.09686 33.51875 389.65936 33.159374Q387.72186 32.659374 386.97186 32.315624Q386.2375 31.95625 385.84686 31.33125Q385.45624 30.690624 385.45624 29.925Q385.45624 29.2375 385.76874 28.64375Q386.09686 28.05 386.64374 27.659374Q387.05 27.3625 387.7531 27.159374Q388.47186 26.940624 389.28436 26.940624Q390.5031 26.940624 391.425 27.3Q392.34686 27.64375 392.78436 28.253124Q393.22186 28.846874 393.39374 29.846874L391.675 30.08125Q391.55 29.284374 390.9875 28.846874Q390.425 28.39375 389.40936 28.39375Q388.1906 28.39375 387.675 28.8Q387.15936 29.190624 387.15936 29.721874Q387.15936 30.065624 387.3781 30.346874Q387.58124 30.628124 388.05 30.815624Q388.3156 30.909374 389.59686 31.253124Q391.47186 31.753124 392.20624 32.08125Q392.9406 32.39375 393.3625 33.003124Q393.78436 33.596874 393.78436 34.503124Q393.78436 35.378124 393.26874 36.159374Q392.7531 36.940624 391.78436 37.3625Q390.8156 37.784374 389.59686 37.784374Q387.58124 37.784374 386.51874 36.940624Q385.45624 36.096874 385.15936 34.45625ZM402.03436 37.55L402.03436 23.2375L404.89374 23.2375L408.26874 33.3625Q408.7375 34.784374 408.95624 35.4875Q409.20624 34.70625 409.72186 33.190624L413.14374 23.2375L415.6906 23.2375L415.6906 37.55L413.8781 37.55L413.8781 25.565624L409.70624 37.55L408.0031 37.55L403.8625 25.3625L403.8625 37.55L402.03436 37.55ZM425.64374 36.26875Q424.65936 37.096874 423.7531 37.440624Q422.84686 37.784374 421.8156 37.784374Q420.1125 37.784374 419.1906 36.95625Q418.26874 36.1125 418.26874 34.815624Q418.26874 34.05 418.6125 33.425Q418.97186 32.8 419.53436 32.425Q420.09686 32.034374 420.8 31.83125Q421.3156 31.70625 422.3625 31.565624Q424.4875 31.315624 425.4875 30.971874Q425.5031 30.6125 425.5031 30.503124Q425.5031 29.440624 425.0031 28.9875Q424.33124 28.39375 423.0031 28.39375Q421.7531 28.39375 421.15936 28.83125Q420.58124 29.26875 420.3 30.378124L418.58124 30.14375Q418.8156 29.034374 419.34686 28.3625Q419.8781 27.675 420.89374 27.315624Q421.90936 26.940624 423.2531 26.940624Q424.58124 26.940624 425.40936 27.253124Q426.2375 27.565624 426.6281 28.05Q427.01874 28.51875 427.175 29.2375Q427.26874 29.690624 427.26874 30.8625L427.26874 33.20625Q427.26874 35.659374 427.3781 36.315624Q427.4875 36.95625 427.83124 37.55L425.9875 37.55Q425.72186 37.003124 425.64374 36.26875ZM425.4875 32.346874Q424.53436 32.7375 422.6125 33.003124Q421.53436 33.159374 421.08124 33.3625Q420.64374 33.55 420.39374 33.925Q420.14374 34.3 420.14374 34.76875Q420.14374 35.471874 420.675 35.940624Q421.20624 36.409374 422.2375 36.409374Q423.2531 36.409374 424.03436 35.971874Q424.83124 35.51875 425.20624 34.753124Q425.4875 34.14375 425.4875 32.9875L425.4875 32.346874ZM433.70624 35.971874L433.95624 37.534374Q433.22186 37.690624 432.6281 37.690624Q431.675 37.690624 431.14374 37.39375Q430.6281 37.08125 430.40936 36.596874Q430.1906 36.096874 430.1906 34.51875L430.1906 28.55L428.90936 28.55L428.90936 27.175L430.1906 27.175L430.1906 24.6125L431.9406 23.55L431.9406 27.175L433.70624 27.175L433.70624 28.55L431.9406 28.55L431.9406 34.6125Q431.9406 35.3625 432.03436 35.58125Q432.1281 35.784374 432.33124 35.925Q432.55 36.05 432.9406 36.05Q433.22186 36.05 433.70624 35.971874ZM435.84686 37.55L435.84686 27.175L437.425 27.175L437.425 28.753124Q438.03436 27.64375 438.55 27.3Q439.0656 26.940624 439.675 26.940624Q440.5656 26.940624 441.4875 27.503124L440.8781 29.14375Q440.2375 28.753124 439.59686 28.753124Q439.01874 28.753124 438.55 29.1125Q438.09686 29.45625 437.89374 30.065624Q437.6125 31.003124 437.6125 32.1125L437.6125 37.55L435.84686 37.55ZM442.8781 25.253124L442.8781 23.2375L444.64374 23.2375L444.64374 25.253124L442.8781 25.253124ZM442.8781 37.55L442.8781 27.175L444.64374 27.175L444.64374 37.55L442.8781 37.55ZM445.6906 37.55L449.4875 32.159374L445.9875 27.175L448.175 27.175L449.76874 29.6125Q450.22186 30.3 450.4875 30.76875Q450.925 30.128124 451.28436 29.628124L453.03436 27.175L455.1281 27.175L451.55 32.065624L455.40936 37.55L453.2531 37.55L451.1125 34.33125L450.55 33.45625L447.83124 37.55L445.6906 37.55ZM461.45624 32.95625L463.2375 32.8Q463.3625 33.8625 463.8156 34.55Q464.28436 35.2375 465.2531 35.675Q466.2375 36.096874 467.47186 36.096874Q468.55 36.096874 469.3781 35.784374Q470.20624 35.45625 470.6125 34.89375Q471.01874 34.33125 471.01874 33.659374Q471.01874 32.9875 470.6281 32.4875Q470.2375 31.9875 469.34686 31.64375Q468.76874 31.409374 466.78436 30.940624Q464.8156 30.471874 464.03436 30.05Q463.0031 29.51875 462.5031 28.721874Q462.0031 27.925 462.0031 26.940624Q462.0031 25.846874 462.6125 24.909374Q463.22186 23.971874 464.40936 23.4875Q465.59686 22.9875 467.03436 22.9875Q468.6281 22.9875 469.84686 23.503124Q471.0656 24.01875 471.70624 25.01875Q472.3625 26.003124 472.40936 27.26875L470.59686 27.409374Q470.45624 26.05 469.6125 25.3625Q468.76874 24.659374 467.1125 24.659374Q465.39374 24.659374 464.59686 25.3Q463.8156 25.925 463.8156 26.8Q463.8156 27.58125 464.3781 28.08125Q464.925 28.58125 467.2375 29.096874Q469.55 29.6125 470.40936 30.003124Q471.65936 30.58125 472.2531 31.471874Q472.84686 32.346874 472.84686 33.503124Q472.84686 34.64375 472.1906 35.659374Q471.53436 36.675 470.3 37.2375Q469.08124 37.8 467.55 37.8Q465.6125 37.8 464.3 37.2375Q462.9875 36.659374 462.2375 35.51875Q461.4875 34.378124 461.45624 32.95625ZM474.8781 25.253124L474.8781 23.2375L476.64374 23.2375L476.64374 25.253124L474.8781 25.253124ZM474.8781 37.55L474.8781 27.175L476.64374 27.175L476.64374 37.55L474.8781 37.55ZM477.9406 37.55L477.9406 36.128124L484.55 28.55Q483.425 28.596874 482.5656 28.596874L478.33124 28.596874L478.33124 27.175L486.8156 27.175L486.8156 28.346874L481.1906 34.925L480.1125 36.128124Q481.28436 36.034374 482.33124 36.034374L487.1281 36.034374L487.1281 37.55L477.9406 37.55ZM494.97186 34.20625L496.78436 34.440624Q496.3625 36.01875 495.1906 36.909374Q494.03436 37.784374 492.22186 37.784374Q489.95624 37.784374 488.6125 36.39375Q487.28436 34.9875 487.28436 32.45625Q487.28436 29.83125 488.6281 28.39375Q489.97186 26.940624 492.1281 26.940624Q494.20624 26.940624 495.51874 28.3625Q496.84686 29.76875 496.84686 32.346874Q496.84686 32.503124 496.83124 32.815624L489.09686 32.815624Q489.1906 34.51875 490.0656 35.425Q490.9406 36.33125 492.2375 36.33125Q493.20624 36.33125 493.8781 35.83125Q494.5656 35.315624 494.97186 34.20625ZM489.1906 31.3625L494.9875 31.3625Q494.8781 30.065624 494.33124 29.409374Q493.4875 28.39375 492.14374 28.39375Q490.9406 28.39375 490.1125 29.20625Q489.28436 30.003124 489.1906 31.3625Z" fill-rule="nonzero"/></svg>