<svg version="1.1" viewBox="0.0 0.0 600.0 371.0" fill="none" stroke="none" stroke-linecap="square" stroke-miterlimit="10" width="600" height="371" xmlns:xlink="http://www.w3.org/1999/xlink" xmlns="http://www.w3.org/2000/svg"><path fill="#ffffff" d="M0 0L600.0 0L600.0 371.0L0 371.0L0 0Z" fill-rule="nonzero"/><path stroke="#cccccc" stroke-width="1.0" stroke-linecap="butt" d="M153.5 88.5L153.5 300.5" fill-rule="nonzero"/><path stroke="#cccccc" stroke-width="1.0" stroke-linecap="butt" d="M289.5 88.5L289.5 300.5" fill-rule="nonzero"/><path stroke="#cccccc" stroke-width="1.0" stroke-linecap="butt" d="M425.5 88.5L425.5 300.5" fill-rule="nonzero"/><path stroke="#cccccc" stroke-width="1.0" stroke-linecap="butt" d="M561.5 88.5L561.5 300.5" fill-rule="nonzero"/><path stroke="#333333" stroke-width="1.0" stroke-linecap="butt" d="M45.5 300.5L581.5 300.5" fill-rule="nonzero"/><path stroke="#cccccc" stroke-width="1.0" stroke-linecap="butt" d="M45.5 229.5L581.5 229.5" fill-rule="nonzero"/><path stroke="#cccccc" stroke-width="1.0" stroke-linecap="butt" d="M45.5 159.5L581.5 159.5" fill-rule="nonzero"/><path stroke="#cccccc" stroke-width="1.0" stroke-linecap="butt" d="M45.5 88.5L581.5 88.5" fill-rule="nonzero"/><clipPath id="id_0"><path d="M45.55 88.28333L581.45 88.28333L581.45 300.45L45.55 300.45L45.55 88.28333Z" clip-rule="nonzero"/></clipPath><path stroke="#4285f4" stroke-width="2.0" stroke-linecap="butt" clip-path="url(#id_0)" d="M52.371784 265.7254L87.18888 255.0817L156.82307 253.49045L296.09146 225.73198L574.62823 134.78319" fill-rule="nonzero"/><path stroke="#ea4335" stroke-width="2.0" stroke-linecap="butt" clip-path="url(#id_0)" d="M52.371784 265.65466L87.18888 253.8087L156.82307 252.21744L296.09146 223.64566L574.62823 134.07597" fill-rule="nonzero"/><path stroke="#fbbc04" stroke-width="2.0" stroke-linecap="butt" clip-path="url(#id_0)" d="M52.371784 264.7353L87.18888 252.67714L156.82307 251.2627L296.09146 221.73616L574.62823 133.9699" fill-rule="nonzero"/><path stroke="#34a853" stroke-width="2.0" stroke-linecap="butt" clip-path="url(#id_0)" d="M52.371784 264.7353L87.18888 253.45508L156.82307 251.15662L296.09146 221.66545L574.62823 124.98817" fill-rule="nonzero"/><path stroke="#ff6d01" stroke-width="2.0" stroke-linecap="butt" clip-path="url(#id_0)" d="M52.371784 262.47217L87.18888 250.02505L156.82307 248.00948L296.09146 216.53809L574.62823 117.42089" fill-rule="nonzero"/><path fill="#4285f4" clip-path="url(#id_0)" d="M56.871784 265.7254C56.871784 268.21066 54.857067 270.2254 52.371784 270.2254C49.886505 270.2254 47.871784 268.21066 47.871784 265.7254C47.871784 263.2401 49.886505 261.2254 52.371784 261.2254C54.857067 261.2254 56.871784 263.2401 56.871784 265.7254Z" fill-rule="nonzero"/><path fill="#4285f4" clip-path="url(#id_0)" d="M91.68888 255.0817C91.68888 257.567 89.674164 259.5817 87.18888 259.5817C84.7036 259.5817 82.68888 257.567 82.68888 255.0817C82.68888 252.59642 84.7036 250.5817 87.18888 250.5817C89.674164 250.5817 91.68888 252.59642 91.68888 255.0817Z" fill-rule="nonzero"/><path fill="#4285f4" clip-path="url(#id_0)" d="M161.32307 253.49045C161.32307 255.97572 159.30835 257.99045 156.82307 257.99045C154.33778 257.99045 152.32307 255.97572 152.32307 253.49045C152.32307 251.00516 154.33778 248.99045 156.82307 248.99045C159.30835 248.99045 161.32307 251.00516 161.32307 253.49045Z" fill-rule="nonzero"/><path fill="#4285f4" clip-path="url(#id_0)" d="M300.59146 225.73198C300.59146 228.21725 298.57672 230.23198 296.09146 230.23198C293.60617 230.23198 291.59146 228.21725 291.59146 225.73198C291.59146 223.24669 293.60617 221.23198 296.09146 221.23198C298.57672 221.23198 300.59146 223.24669 300.59146 225.73198Z" fill-rule="nonzero"/><path fill="#4285f4" clip-path="url(#id_0)" d="M579.12823 134.78319C579.12823 137.26848 577.1135 139.28319 574.62823 139.28319C572.14294 139.28319 570.12823 137.26848 570.12823 134.78319C570.12823 132.29791 572.14294 130.28319 574.62823 130.28319C577.1135 130.28319 579.12823 132.29791 579.12823 134.78319Z" fill-rule="nonzero"/><path fill="#ea4335" clip-path="url(#id_0)" d="M56.871784 265.65466C56.871784 268.13995 54.857067 270.15466 52.371784 270.15466C49.886505 270.15466 47.871784 268.13995 47.871784 265.65466C47.871784 263.16937 49.886505 261.15466 52.371784 261.15466C54.857067 261.15466 56.871784 263.16937 56.871784 265.65466Z" fill-rule="nonzero"/><path fill="#ea4335" clip-path="url(#id_0)" d="M91.68888 253.8087C91.68888 256.29398 89.674164 258.3087 87.18888 258.3087C84.7036 258.3087 82.68888 256.29398 82.68888 253.8087C82.68888 251.32341 84.7036 249.3087 87.18888 249.3087C89.674164 249.3087 91.68888 251.32341 91.68888 253.8087Z" fill-rule="nonzero"/><path fill="#ea4335" clip-path="url(#id_0)" d="M161.32307 252.21744C161.32307 254.70273 159.30835 256.71744 156.82307 256.71744C154.33778 256.71744 152.32307 254.70273 152.32307 252.21744C152.32307 249.73216 154.33778 247.71744 156.82307 247.71744C159.30835 247.71744 161.32307 249.73216 161.32307 252.21744Z" fill-rule="nonzero"/><path fill="#ea4335" clip-path="url(#id_0)" d="M300.59146 223.64566C300.59146 226.13095 298.57672 228.14566 296.09146 228.14566C293.60617 228.14566 291.59146 226.13095 291.59146 223.64566C291.59146 221.16039 293.60617 219.14566 296.09146 219.14566C298.57672 219.14566 300.59146 221.16039 300.59146 223.64566Z" fill-rule="nonzero"/><path fill="#ea4335" clip-path="url(#id_0)" d="M579.12823 134.07597C579.12823 136.56125 577.1135 138.57597 574.62823 138.57597C572.14294 138.57597 570.12823 136.56125 570.12823 134.07597C570.12823 131.5907 572.14294 129.57597 574.62823 129.57597C577.1135 129.57597 579.12823 131.5907 579.12823 134.07597Z" fill-rule="nonzero"/><path fill="#fbbc04" clip-path="url(#id_0)" d="M56.871784 264.7353C56.871784 267.22055 54.857067 269.2353 52.371784 269.2353C49.886505 269.2353 47.871784 267.22055 47.871784 264.7353C47.871784 262.25 49.886505 260.2353 52.371784 260.2353C54.857067 260.2353 56.871784 262.25 56.871784 264.7353Z" fill-rule="nonzero"/><path fill="#fbbc04" clip-path="url(#id_0)" d="M91.68888 252.67714C91.68888 255.16241 89.674164 257.17712 87.18888 257.17712C84.7036 257.17712 82.68888 255.16241 82.68888 252.67714C82.68888 250.19186 84.7036 248.17714 87.18888 248.17714C89.674164 248.17714 91.68888 250.19186 91.68888 252.67714Z" fill-rule="nonzero"/><path fill="#fbbc04" clip-path="url(#id_0)" d="M161.32307 251.2627C161.32307 253.74797 159.30835 255.7627 156.82307 255.7627C154.33778 255.7627 152.32307 253.74797 152.32307 251.2627C152.32307 248.77742 154.33778 246.7627 156.82307 246.7627C159.30835 246.7627 161.32307 248.77742 161.32307 251.2627Z" fill-rule="nonzero"/><path fill="#fbbc04" clip-path="url(#id_0)" d="M300.59146 221.73616C300.59146 224.22145 298.57672 226.23616 296.09146 226.23616C293.60617 226.23616 291.59146 224.22145 291.59146 221.73616C291.59146 219.25089 293.60617 217.23616 296.09146 217.23616C298.57672 217.23616 300.59146 219.25089 300.59146 221.73616Z" fill-rule="nonzero"/><path fill="#fbbc04" clip-path="url(#id_0)" d="M579.12823 133.9699C579.12823 136.45517 577.1135 138.4699 574.62823 138.4699C572.14294 138.4699 570.12823 136.45517 570.12823 133.9699C570.12823 131.4846 572.14294 129.4699 574.62823 129.4699C577.1135 129.4699 579.12823 131.4846 579.12823 133.9699Z" fill-rule="nonzero"/><path fill="#34a853" clip-path="url(#id_0)" d="M56.871784 264.7353C56.871784 267.22055 54.857067 269.2353 52.371784 269.2353C49.886505 269.2353 47.871784 267.22055 47.871784 264.7353C47.871784 262.25 49.886505 260.2353 52.371784 260.2353C54.857067 260.2353 56.871784 262.25 56.871784 264.7353Z" fill-rule="nonzero"/><path fill="#34a853" clip-path="url(#id_0)" d="M91.68888 253.45508C91.68888 255.94037 89.674164 257.95508 87.18888 257.95508C84.7036 257.95508 82.68888 255.94037 82.68888 253.45508C82.68888 250.9698 84.7036 248.95508 87.18888 248.95508C89.674164 248.95508 91.68888 250.9698 91.68888 253.45508Z" fill-rule="nonzero"/><path fill="#34a853" clip-path="url(#id_0)" d="M161.32307 251.15662C161.32307 253.64189 159.30835 255.65662 156.82307 255.65662C154.33778 255.65662 152.32307 253.64189 152.32307 251.15662C152.32307 248.67133 154.33778 246.65662 156.82307 246.65662C159.30835 246.65662 161.32307 248.67133 161.32307 251.15662Z" fill-rule="nonzero"/><path fill="#34a853" clip-path="url(#id_0)" d="M300.59146 221.66545C300.59146 224.15073 298.57672 226.16545 296.09146 226.16545C293.60617 226.16545 291.59146 224.15073 291.59146 221.66545C291.59146 219.18016 293.60617 217.16545 296.09146 217.16545C298.57672 217.16545 300.59146 219.18016 300.59146 221.66545Z" fill-rule="nonzero"/><path fill="#34a853" clip-path="url(#id_0)" d="M579.12823 124.98817C579.12823 127.47345 577.1135 129.48816 574.62823 129.48816C572.14294 129.48816 570.12823 127.47345 570.12823 124.98817C570.12823 122.502884 572.14294 120.48817 574.62823 120.48817C577.1135 120.48817 579.12823 122.502884 579.12823 124.98817Z" fill-rule="nonzero"/><path fill="#ff6d01" clip-path="url(#id_0)" d="M56.871784 262.47217C56.871784 264.95746 54.857067 266.97217 52.371784 266.97217C49.886505 266.97217 47.871784 264.95746 47.871784 262.47217C47.871784 259.98688 49.886505 257.97217 52.371784 257.97217C54.857067 257.97217 56.871784 259.98688 56.871784 262.47217Z" fill-rule="nonzero"/><path fill="#ff6d01" clip-path="url(#id_0)" d="M91.68888 250.02505C91.68888 252.51033 89.674164 254.52505 87.18888 254.52505C84.7036 254.52505 82.68888 252.51033 82.68888 250.02505C82.68888 247.53978 84.7036 245.52505 87.18888 245.52505C89.674164 245.52505 91.68888 247.53978 91.68888 250.02505Z" fill-rule="nonzero"/><path fill="#ff6d01" clip-path="url(#id_0)" d="M161.32307 248.00948C161.32307 250.49475 159.30835 252.50948 156.82307 252.50948C154.33778 252.50948 152.32307 250.49475 152.32307 248.00948C152.32307 245.52419 154.33778 243.50948 156.82307 243.50948C159.30835 243.50948 161.32307 245.52419 161.32307 248.00948Z" fill-rule="nonzero"/><path fill="#ff6d01" clip-path="url(#id_0)" d="M300.59146 216.53809C300.59146 219.02336 298.57672 221.03809 296.09146 221.03809C293.60617 221.03809 291.59146 219.02336 291.59146 216.53809C291.59146 214.0528 293.60617 212.03809 296.09146 212.03809C298.57672 212.03809 300.59146 214.0528 300.59146 216.53809Z" fill-rule="nonzero"/><path fill="#ff6d01" clip-path="url(#id_0)" d="M579.12823 117.42089C579.12823 119.90617 577.1135 121.92089 574.62823 121.92089C572.14294 121.92089 570.12823 119.90617 570.12823 117.42089C570.12823 114.93561 572.14294 112.92089 574.62823 112.92089C577.1135 112.92089 579.12823 114.93561 579.12823 117.42089Z" fill-rule="nonzero"/><path fill="#000000" d="M285.89062 349.45L285.89062 340.85626L287.60938 340.85626L289.64062 346.9344Q289.92188 347.79376 290.04688 348.21564Q290.1875 347.7469 290.5 346.84064L292.5625 340.85626L294.09375 340.85626L294.09375 349.45L293.0 349.45L293.0 342.2625L290.5 349.45L289.46875 349.45L286.98438 342.1375L286.98438 349.45L285.89062 349.45ZM298.85938 348.6844Q298.26562 349.1844 297.71875 349.3875Q297.1875 349.59064 296.5625 349.59064Q295.53125 349.59064 294.98438 349.09064Q294.4375 348.59064 294.4375 347.8094Q294.4375 347.35626 294.64062 346.98126Q294.84375 346.59064 295.1875 346.3719Q295.53125 346.1375 295.95312 346.02814Q296.25 345.9344 296.89062 345.85626Q298.15625 345.71564 298.76562 345.4969Q298.76562 345.27814 298.76562 345.23126Q298.76562 344.575 298.46875 344.3094Q298.0625 343.96564 297.26562 343.96564Q296.53125 343.96564 296.17188 344.23126Q295.8125 344.48126 295.64062 345.1375L294.60938 344.9969Q294.75 344.34064 295.07812 343.9344Q295.40625 343.52814 296.01562 343.3094Q296.625 343.09064 297.42188 343.09064Q298.21875 343.09064 298.71875 343.27814Q299.21875 343.46564 299.45312 343.7469Q299.6875 344.02814 299.78125 344.46564Q299.82812 344.73126 299.82812 345.4344L299.82812 346.84064Q299.82812 348.3094 299.89062 348.7Q299.96875 349.09064 300.17188 349.45L299.0625 349.45Q298.90625 349.1219 298.85938 348.6844ZM298.76562 346.325Q298.1875 346.5594 297.04688 346.73126Q296.39062 346.825 296.125 346.95Q295.85938 347.0594 295.70312 347.27814Q295.5625 347.4969 295.5625 347.77814Q295.5625 348.2 295.875 348.48126Q296.20312 348.7625 296.8125 348.7625Q297.42188 348.7625 297.89062 348.4969Q298.375 348.23126 298.59375 347.7625Q298.76562 347.40314 298.76562 346.71564L298.76562 346.325ZM304.09375 348.5125L304.25 349.4344Q303.79688 349.52814 303.45312 349.52814Q302.875 349.52814 302.5625 349.35626Q302.25 349.16876 302.10938 348.8719Q301.98438 348.575 301.98438 347.6219L301.98438 344.04376L301.21875 344.04376L301.21875 343.23126L301.98438 343.23126L301.98438 341.6844L303.03125 341.0594L303.03125 343.23126L304.09375 343.23126L304.09375 344.04376L303.03125 344.04376L303.03125 347.6844Q303.03125 348.1375 303.07812 348.2625Q303.14062 348.3875 303.26562 348.46564Q303.39062 348.54376 303.625 348.54376Q303.8125 348.54376 304.09375 348.5125ZM304.78125 349.45L304.78125 343.23126L305.73438 343.23126L305.73438 344.16876Q306.09375 343.5125 306.39062 343.3094Q306.70312 343.09064 307.07812 343.09064Q307.60938 343.09064 308.15625 343.41876L307.79688 344.40314Q307.40625 344.16876 307.03125 344.16876Q306.67188 344.16876 306.39062 344.3875Q306.125 344.59064 306.01562 344.96564Q305.82812 345.52814 305.82812 346.1844L305.82812 349.45L304.78125 349.45ZM308.79688 342.075L308.79688 340.85626L309.85938 340.85626L309.85938 342.075L308.79688 342.075ZM308.79688 349.45L308.79688 343.23126L309.85938 343.23126L309.85938 349.45L308.79688 349.45ZM311.09375 349.45L313.35938 346.21564L311.26562 343.23126L312.57812 343.23126L313.53125 344.6844Q313.79688 345.10626 313.96875 345.3875Q314.21875 344.9969 314.4375 344.7L315.48438 343.23126L316.75 343.23126L314.59375 346.15314L316.90625 349.45L315.625 349.45L314.34375 347.5125L314.0 346.9969L312.35938 349.45L311.09375 349.45ZM319.54688 346.6844L320.60938 346.59064Q320.6875 347.2469 320.96875 347.65314Q321.25 348.0594 321.82812 348.325Q322.42188 348.575 323.15625 348.575Q323.79688 348.575 324.29688 348.3875Q324.79688 348.1844 325.03125 347.85626Q325.28125 347.5125 325.28125 347.1219Q325.28125 346.71564 325.04688 346.41876Q324.8125 346.10626 324.28125 345.90314Q323.92188 345.7625 322.73438 345.48126Q321.5625 345.2 321.09375 344.95Q320.46875 344.6219 320.17188 344.15314Q319.875 343.66876 319.875 343.075Q319.875 342.4344 320.23438 341.8719Q320.60938 341.29376 321.3125 341.0125Q322.03125 340.71564 322.89062 340.71564Q323.84375 340.71564 324.57812 341.02814Q325.3125 341.325 325.70312 341.9344Q326.09375 342.52814 326.125 343.27814L325.03125 343.35626Q324.9375 342.54376 324.42188 342.1375Q323.92188 341.71564 322.9375 341.71564Q321.90625 341.71564 321.4375 342.09064Q320.96875 342.46564 320.96875 342.9969Q320.96875 343.46564 321.29688 343.7625Q321.625 344.0594 323.0 344.3719Q324.39062 344.6844 324.90625 344.91876Q325.65625 345.27814 326.01562 345.8094Q326.375 346.325 326.375 347.02814Q326.375 347.71564 325.98438 348.325Q325.59375 348.91876 324.85938 349.2625Q324.125 349.59064 323.20312 349.59064Q322.03125 349.59064 321.23438 349.2625Q320.45312 348.91876 320.0 348.23126Q319.5625 347.54376 319.54688 346.6844ZM327.79688 342.075L327.79688 340.85626L328.85938 340.85626L328.85938 342.075L327.79688 342.075ZM327.79688 349.45L327.79688 343.23126L328.85938 343.23126L328.85938 349.45L327.79688 349.45ZM330.23438 349.45L330.23438 348.59064L334.20312 344.04376Q333.51562 344.075 333.0 344.075L330.46875 344.075L330.46875 343.23126L335.5625 343.23126L335.5625 343.91876L332.1875 347.8719L331.53125 348.59064Q332.25 348.54376 332.85938 348.54376L335.75 348.54376L335.75 349.45L330.23438 349.45ZM340.04688 347.45L341.14062 347.575Q340.89062 348.52814 340.1875 349.0594Q339.48438 349.59064 338.40625 349.59064Q337.04688 349.59064 336.23438 348.7469Q335.4375 347.90314 335.4375 346.3875Q335.4375 344.825 336.25 343.96564Q337.0625 343.09064 338.34375 343.09064Q339.59375 343.09064 340.375 343.9344Q341.17188 344.77814 341.17188 346.325Q341.17188 346.41876 341.17188 346.60626L336.53125 346.60626Q336.59375 347.6375 337.10938 348.1844Q337.625 348.71564 338.40625 348.71564Q338.98438 348.71564 339.39062 348.41876Q339.8125 348.10626 340.04688 347.45ZM336.59375 345.7469L340.0625 345.7469Q340.0 344.95 339.67188 344.5594Q339.15625 343.95 338.35938 343.95Q337.625 343.95 337.125 344.4344Q336.64062 344.91876 336.59375 345.7469Z" fill-rule="nonzero"/><path fill="#000000" d="M33.05 300.21564Q33.05 298.6844 33.3625 297.7625Q33.675 296.825 34.284374 296.325Q34.909374 295.825 35.846874 295.825Q36.534374 295.825 37.05 296.10626Q37.58125 296.3875 37.925 296.91876Q38.26875 297.4344 38.45625 298.1844Q38.64375 298.9344 38.64375 300.21564Q38.64375 301.73126 38.33125 302.65314Q38.034374 303.575 37.409374 304.09064Q36.8 304.59064 35.846874 304.59064Q34.6125 304.59064 33.89375 303.7Q33.05 302.6375 33.05 300.21564ZM34.128124 300.21564Q34.128124 302.325 34.628124 303.02814Q35.128124 303.73126 35.846874 303.73126Q36.58125 303.73126 37.065624 303.02814Q37.565624 302.325 37.565624 300.21564Q37.565624 298.09064 37.065624 297.40314Q36.58125 296.7 35.83125 296.7Q35.1125 296.7 34.675 297.3094Q34.128124 298.09064 34.128124 300.21564Z" fill-rule="nonzero"/><path fill="#000000" d="M38.596874 232.71216L38.596874 233.72778L32.909374 233.72778Q32.909374 233.35278 33.034374 232.99341Q33.253124 232.41528 33.721874 231.85278Q34.20625 231.29028 35.1125 230.55591Q36.51875 229.39966 37.003124 228.72778Q37.503124 228.05591 37.503124 227.46216Q37.503124 226.83716 37.05 226.41528Q36.596874 225.97778 35.878124 225.97778Q35.1125 225.97778 34.659374 226.43091Q34.20625 226.88403 34.190624 227.69653L33.1125 227.58716Q33.221874 226.36841 33.940624 225.74341Q34.675 225.10278 35.909374 225.10278Q37.14375 225.10278 37.8625 225.79028Q38.58125 226.47778 38.58125 227.49341Q38.58125 228.00903 38.3625 228.50903Q38.159374 228.99341 37.659374 229.55591Q37.175 230.10278 36.05 231.05591Q35.096874 231.85278 34.815624 232.14966Q34.55 232.43091 34.378124 232.71216L38.596874 232.71216Z" fill-rule="nonzero"/><path fill="#000000" d="M36.425 163.00555L36.425 160.94305L32.70625 160.94305L32.70625 159.9743L36.628124 154.4118L37.4875 154.4118L37.4875 159.9743L38.64375 159.9743L38.64375 160.94305L37.4875 160.94305L37.4875 163.00555L36.425 163.00555ZM36.425 159.9743L36.425 156.11493L33.7375 159.9743L36.425 159.9743Z" fill-rule="nonzero"/><path fill="#000000" d="M38.51875 85.79896L37.471874 85.87708Q37.33125 85.25208 37.08125 84.97083Q36.64375 84.51771 36.01875 84.51771Q35.51875 84.51771 35.128124 84.79896Q34.64375 85.17396 34.346874 85.87708Q34.065624 86.56458 34.05 87.84583Q34.425 87.26771 34.971874 86.98646Q35.534374 86.70521 36.14375 86.70521Q37.190624 86.70521 37.925 87.48646Q38.675 88.26771 38.675 89.48646Q38.675 90.29896 38.315624 91.00208Q37.971874 91.68958 37.3625 92.06458Q36.753124 92.42396 35.9875 92.42396Q34.659374 92.42396 33.83125 91.45521Q33.003124 90.48646 33.003124 88.26771Q33.003124 85.76771 33.925 84.64271Q34.721874 83.65833 36.08125 83.65833Q37.096874 83.65833 37.7375 84.23646Q38.39375 84.79896 38.51875 85.79896ZM34.221874 89.50208Q34.221874 90.04896 34.440624 90.54896Q34.675 91.03333 35.08125 91.29896Q35.503124 91.56458 35.971874 91.56458Q36.628124 91.56458 37.1125 91.03333Q37.596874 90.48646 37.596874 89.56458Q37.596874 88.67396 37.1125 88.15833Q36.64375 87.64271 35.925 87.64271Q35.20625 87.64271 34.70625 88.15833Q34.221874 88.67396 34.221874 89.50208Z" fill-rule="nonzero"/><path fill="#000000" d="M144.02773 317.45L142.98085 317.45L142.98085 310.73126Q142.59023 311.09064 141.96523 311.46564Q141.35585 311.825 140.87148 311.9969L140.87148 310.98126Q141.74648 310.5594 142.40273 309.98126Q143.0746 309.3875 143.35585 308.825L144.02773 308.825L144.02773 317.45ZM147.05898 313.21564Q147.05898 311.6844 147.37148 310.7625Q147.68398 309.825 148.29335 309.325Q148.91835 308.825 149.85585 308.825Q150.54335 308.825 151.05898 309.10626Q151.59023 309.3875 151.93398 309.91876Q152.27773 310.4344 152.46523 311.1844Q152.65273 311.9344 152.65273 313.21564Q152.65273 314.73126 152.34023 315.65314Q152.04335 316.575 151.41835 317.09064Q150.80898 317.59064 149.85585 317.59064Q148.62148 317.59064 147.90273 316.7Q147.05898 315.6375 147.05898 313.21564ZM148.1371 313.21564Q148.1371 315.325 148.6371 316.02814Q149.1371 316.73126 149.85585 316.73126Q150.59023 316.73126 151.0746 316.02814Q151.5746 315.325 151.5746 313.21564Q151.5746 311.09064 151.0746 310.40314Q150.59023 309.7 149.84023 309.7Q149.12148 309.7 148.68398 310.3094Q148.1371 311.09064 148.1371 313.21564ZM154.05898 313.21564Q154.05898 311.6844 154.37148 310.7625Q154.68398 309.825 155.29335 309.325Q155.91835 308.825 156.85585 308.825Q157.54335 308.825 158.05898 309.10626Q158.59023 309.3875 158.93398 309.91876Q159.27773 310.4344 159.46523 311.1844Q159.65273 311.9344 159.65273 313.21564Q159.65273 314.73126 159.34023 315.65314Q159.04335 316.575 158.41835 317.09064Q157.80898 317.59064 156.85585 317.59064Q155.62148 317.59064 154.90273 316.7Q154.05898 315.6375 154.05898 313.21564ZM155.1371 313.21564Q155.1371 315.325 155.6371 316.02814Q156.1371 316.73126 156.85585 316.73126Q157.59023 316.73126 158.0746 316.02814Q158.5746 315.325 158.5746 313.21564Q158.5746 311.09064 158.0746 310.40314Q157.59023 309.7 156.84023 309.7Q156.12148 309.7 155.68398 310.3094Q155.1371 311.09064 155.1371 313.21564ZM161.05898 313.21564Q161.05898 311.6844 161.37148 310.7625Q161.68398 309.825 162.29335 309.325Q162.91835 308.825 163.85585 308.825Q164.54335 308.825 165.05898 309.10626Q165.59023 309.3875 165.93398 309.91876Q166.27773 310.4344 166.46523 311.1844Q166.65273 311.9344 166.65273 313.21564Q166.65273 314.73126 166.34023 315.65314Q166.04335 316.575 165.41835 317.09064Q164.80898 317.59064 163.85585 317.59064Q162.62148 317.59064 161.90273 316.7Q161.05898 315.6375 161.05898 313.21564ZM162.1371 313.21564Q162.1371 315.325 162.6371 316.02814Q163.1371 316.73126 163.85585 316.73126Q164.59023 316.73126 165.0746 316.02814Q165.5746 315.325 165.5746 313.21564Q165.5746 311.09064 165.0746 310.40314Q164.59023 309.7 163.84023 309.7Q163.12148 309.7 162.68398 310.3094Q162.1371 311.09064 162.1371 313.21564Z" fill-rule="nonzero"/><path fill="#000000" d="M281.6101 316.4344L281.6101 317.45L275.9226 317.45Q275.9226 317.075 276.0476 316.71564Q276.26636 316.1375 276.7351 315.575Q277.21948 315.0125 278.12573 314.27814Q279.53198 313.1219 280.01636 312.45Q280.51636 311.77814 280.51636 311.1844Q280.51636 310.5594 280.06323 310.1375Q279.6101 309.7 278.89136 309.7Q278.12573 309.7 277.6726 310.15314Q277.21948 310.60626 277.20386 311.41876L276.12573 311.3094Q276.2351 310.09064 276.95386 309.46564Q277.68823 308.825 278.9226 308.825Q280.15698 308.825 280.87573 309.5125Q281.59448 310.2 281.59448 311.21564Q281.59448 311.73126 281.37573 312.23126Q281.1726 312.71564 280.6726 313.27814Q280.18823 313.825 279.06323 314.77814Q278.1101 315.575 277.82886 315.8719Q277.56323 316.15314 277.39136 316.4344L281.6101 316.4344ZM283.06323 313.21564Q283.06323 311.6844 283.37573 310.7625Q283.68823 309.825 284.2976 309.325Q284.9226 308.825 285.8601 308.825Q286.5476 308.825 287.06323 309.10626Q287.59448 309.3875 287.93823 309.91876Q288.28198 310.4344 288.46948 311.1844Q288.65698 311.9344 288.65698 313.21564Q288.65698 314.73126 288.34448 315.65314Q288.0476 316.575 287.4226 317.09064Q286.81323 317.59064 285.8601 317.59064Q284.62573 317.59064 283.90698 316.7Q283.06323 315.6375 283.06323 313.21564ZM284.14136 313.21564Q284.14136 315.325 284.64136 316.02814Q285.14136 316.73126 285.8601 316.73126Q286.59448 316.73126 287.07886 316.02814Q287.57886 315.325 287.57886 313.21564Q287.57886 311.09064 287.07886 310.40314Q286.59448 309.7 285.84448 309.7Q285.12573 309.7 284.68823 310.3094Q284.14136 311.09064 284.14136 313.21564ZM290.06323 313.21564Q290.06323 311.6844 290.37573 310.7625Q290.68823 309.825 291.2976 309.325Q291.9226 308.825 292.8601 308.825Q293.5476 308.825 294.06323 309.10626Q294.59448 309.3875 294.93823 309.91876Q295.28198 310.4344 295.46948 311.1844Q295.65698 311.9344 295.65698 313.21564Q295.65698 314.73126 295.34448 315.65314Q295.0476 316.575 294.4226 317.09064Q293.81323 317.59064 292.8601 317.59064Q291.62573 317.59064 290.90698 316.7Q290.06323 315.6375 290.06323 313.21564ZM291.14136 313.21564Q291.14136 315.325 291.64136 316.02814Q292.14136 316.73126 292.8601 316.73126Q293.59448 316.73126 294.07886 316.02814Q294.57886 315.325 294.57886 313.21564Q294.57886 311.09064 294.07886 310.40314Q293.59448 309.7 292.84448 309.7Q292.12573 309.7 291.68823 310.3094Q291.14136 311.09064 291.14136 313.21564ZM297.06323 313.21564Q297.06323 311.6844 297.37573 310.7625Q297.68823 309.825 298.2976 309.325Q298.9226 308.825 299.8601 308.825Q300.5476 308.825 301.06323 309.10626Q301.59448 309.3875 301.93823 309.91876Q302.28198 310.4344 302.46948 311.1844Q302.65698 311.9344 302.65698 313.21564Q302.65698 314.73126 302.34448 315.65314Q302.0476 316.575 301.4226 317.09064Q300.81323 317.59064 299.8601 317.59064Q298.62573 317.59064 297.90698 316.7Q297.06323 315.6375 297.06323 313.21564ZM298.14136 313.21564Q298.14136 315.325 298.64136 316.02814Q299.14136 316.73126 299.8601 316.73126Q300.59448 316.73126 301.07886 316.02814Q301.57886 315.325 301.57886 313.21564Q301.57886 311.09064 301.07886 310.40314Q300.59448 309.7 299.84448 309.7Q299.12573 309.7 298.68823 310.3094Q298.14136 311.09064 298.14136 313.21564Z" fill-rule="nonzero"/><path fill="#000000" d="M412.06754 315.1844L413.13004 315.04376Q413.3019 315.9344 413.7394 316.34064Q414.1769 316.73126 414.8019 316.73126Q415.5519 316.73126 416.06754 316.21564Q416.58316 315.7 416.58316 314.9344Q416.58316 314.21564 416.0988 313.7469Q415.63004 313.2625 414.89566 313.2625Q414.5988 313.2625 414.14566 313.3875L414.27066 312.45Q414.38004 312.46564 414.44254 312.46564Q415.1144 312.46564 415.64566 312.1219Q416.19254 311.7625 416.19254 311.02814Q416.19254 310.45 415.8019 310.075Q415.4113 309.6844 414.7863 309.6844Q414.1769 309.6844 413.75504 310.075Q413.3488 310.46564 413.2394 311.23126L412.1769 311.04376Q412.3644 309.9969 413.0519 309.41876Q413.7394 308.825 414.75504 308.825Q415.45816 308.825 416.0519 309.1375Q416.64566 309.4344 416.95816 309.95Q417.27066 310.46564 417.27066 311.0594Q417.27066 311.60626 416.9738 312.075Q416.6769 312.52814 416.0988 312.79376Q416.8488 312.96564 417.27066 313.52814Q417.69254 314.075 417.69254 314.91876Q417.69254 316.04376 416.8644 316.825Q416.0519 317.60626 414.8019 317.60626Q413.6769 317.60626 412.9269 316.9344Q412.1769 316.2469 412.06754 315.1844ZM419.06754 313.21564Q419.06754 311.6844 419.38004 310.7625Q419.69254 309.825 420.3019 309.325Q420.9269 308.825 421.8644 308.825Q422.5519 308.825 423.06754 309.10626Q423.5988 309.3875 423.94254 309.91876Q424.2863 310.4344 424.4738 311.1844Q424.6613 311.9344 424.6613 313.21564Q424.6613 314.73126 424.3488 315.65314Q424.0519 316.575 423.4269 317.09064Q422.81754 317.59064 421.8644 317.59064Q420.63004 317.59064 419.9113 316.7Q419.06754 315.6375 419.06754 313.21564ZM420.14566 313.21564Q420.14566 315.325 420.64566 316.02814Q421.14566 316.73126 421.8644 316.73126Q422.5988 316.73126 423.08316 316.02814Q423.58316 315.325 423.58316 313.21564Q423.58316 311.09064 423.08316 310.40314Q422.5988 309.7 421.8488 309.7Q421.13004 309.7 420.69254 310.3094Q420.14566 311.09064 420.14566 313.21564ZM426.06754 313.21564Q426.06754 311.6844 426.38004 310.7625Q426.69254 309.825 427.3019 309.325Q427.9269 308.825 428.8644 308.825Q429.5519 308.825 430.06754 309.10626Q430.5988 309.3875 430.94254 309.91876Q431.2863 310.4344 431.4738 311.1844Q431.6613 311.9344 431.6613 313.21564Q431.6613 314.73126 431.3488 315.65314Q431.0519 316.575 430.4269 317.09064Q429.81754 317.59064 428.8644 317.59064Q427.63004 317.59064 426.9113 316.7Q426.06754 315.6375 426.06754 313.21564ZM427.14566 313.21564Q427.14566 315.325 427.64566 316.02814Q428.14566 316.73126 428.8644 316.73126Q429.5988 316.73126 430.08316 316.02814Q430.58316 315.325 430.58316 313.21564Q430.58316 311.09064 430.08316 310.40314Q429.5988 309.7 428.8488 309.7Q428.13004 309.7 427.69254 310.3094Q427.14566 311.09064 427.14566 313.21564ZM433.06754 313.21564Q433.06754 311.6844 433.38004 310.7625Q433.69254 309.825 434.3019 309.325Q434.9269 308.825 435.8644 308.825Q436.5519 308.825 437.06754 309.10626Q437.5988 309.3875 437.94254 309.91876Q438.2863 310.4344 438.4738 311.1844Q438.6613 311.9344 438.6613 313.21564Q438.6613 314.73126 438.3488 315.65314Q438.0519 316.575 437.4269 317.09064Q436.81754 317.59064 435.8644 317.59064Q434.63004 317.59064 433.9113 316.7Q433.06754 315.6375 433.06754 313.21564ZM434.14566 313.21564Q434.14566 315.325 434.64566 316.02814Q435.14566 316.73126 435.8644 316.73126Q436.5988 316.73126 437.08316 316.02814Q437.58316 315.325 437.58316 313.21564Q437.58316 311.09064 437.08316 310.40314Q436.5988 309.7 435.8488 309.7Q435.13004 309.7 434.69254 310.3094Q434.14566 311.09064 434.14566 313.21564Z" fill-rule="nonzero"/><path fill="#000000" d="M551.4468 317.45L551.4468 315.3875L547.728 315.3875L547.728 314.41876L551.6499 308.85626L552.5093 308.85626L552.5093 314.41876L553.6655 314.41876L553.6655 315.3875L552.5093 315.3875L552.5093 317.45L551.4468 317.45ZM551.4468 314.41876L551.4468 310.5594L548.7593 314.41876L551.4468 314.41876ZM555.0718 313.21564Q555.0718 311.6844 555.3843 310.7625Q555.6968 309.825 556.30615 309.325Q556.93115 308.825 557.86865 308.825Q558.55615 308.825 559.0718 309.10626Q559.603 309.3875 559.9468 309.91876Q560.2905 310.4344 560.478 311.1844Q560.6655 311.9344 560.6655 313.21564Q560.6655 314.73126 560.353 315.65314Q560.05615 316.575 559.43115 317.09064Q558.8218 317.59064 557.86865 317.59064Q556.6343 317.59064 555.9155 316.7Q555.0718 315.6375 555.0718 313.21564ZM556.1499 313.21564Q556.1499 315.325 556.6499 316.02814Q557.1499 316.73126 557.86865 316.73126Q558.603 316.73126 559.0874 316.02814Q559.5874 315.325 559.5874 313.21564Q559.5874 311.09064 559.0874 310.40314Q558.603 309.7 557.853 309.7Q557.1343 309.7 556.6968 310.3094Q556.1499 311.09064 556.1499 313.21564ZM562.0718 313.21564Q562.0718 311.6844 562.3843 310.7625Q562.6968 309.825 563.30615 309.325Q563.93115 308.825 564.86865 308.825Q565.55615 308.825 566.0718 309.10626Q566.603 309.3875 566.9468 309.91876Q567.2905 310.4344 567.478 311.1844Q567.6655 311.9344 567.6655 313.21564Q567.6655 314.73126 567.353 315.65314Q567.05615 316.575 566.43115 317.09064Q565.8218 317.59064 564.86865 317.59064Q563.6343 317.59064 562.9155 316.7Q562.0718 315.6375 562.0718 313.21564ZM563.1499 313.21564Q563.1499 315.325 563.6499 316.02814Q564.1499 316.73126 564.86865 316.73126Q565.603 316.73126 566.0874 316.02814Q566.5874 315.325 566.5874 313.21564Q566.5874 311.09064 566.0874 310.40314Q565.603 309.7 564.853 309.7Q564.1343 309.7 563.6968 310.3094Q563.1499 311.09064 563.1499 313.21564ZM569.0718 313.21564Q569.0718 311.6844 569.3843 310.7625Q569.6968 309.825 570.30615 309.325Q570.93115 308.825 571.86865 308.825Q572.55615 308.825 573.0718 309.10626Q573.603 309.3875 573.9468 309.91876Q574.2905 310.4344 574.478 311.1844Q574.6655 311.9344 574.6655 313.21564Q574.6655 314.73126 574.353 315.65314Q574.05615 316.575 573.43115 317.09064Q572.8218 317.59064 571.86865 317.59064Q570.6343 317.59064 569.9155 316.7Q569.0718 315.6375 569.0718 313.21564ZM570.1499 313.21564Q570.1499 315.325 570.6499 316.02814Q571.1499 316.73126 571.86865 316.73126Q572.603 316.73126 573.0874 316.02814Q573.5874 315.325 573.5874 313.21564Q573.5874 311.09064 573.0874 310.40314Q572.603 309.7 571.853 309.7Q571.1343 309.7 570.6968 310.3094Q570.1499 311.09064 570.1499 313.21564Z" fill-rule="nonzero"/><path fill="#4285f4" d="M140.5 61.916668C140.5 65.23038 137.8137 67.916664 134.5 67.916664C131.1863 67.916664 128.5 65.23038 128.5 61.916668C128.5 58.60296 131.1863 55.916668 134.5 55.916668C137.8137 55.916668 140.5 58.60296 140.5 61.916668Z" fill-rule="nonzero"/><path fill="#1a1a1a" d="M152.96875 65.916664L151.92188 65.916664L151.92188 59.197914Q151.53125 59.55729 150.90625 59.93229Q150.29688 60.291664 149.8125 60.46354L149.8125 59.447914Q150.6875 59.02604 151.34375 58.447914Q152.01562 57.854164 152.29688 57.291664L152.96875 57.291664L152.96875 65.916664ZM161.46875 59.43229L160.42188 59.510414Q160.28125 58.885414 160.03125 58.604164Q159.59375 58.15104 158.96875 58.15104Q158.46875 58.15104 158.07812 58.43229Q157.59375 58.80729 157.29688 59.510414Q157.01562 60.197914 157.0 61.479164Q157.375 60.90104 157.92188 60.61979Q158.48438 60.33854 159.09375 60.33854Q160.14062 60.33854 160.875 61.11979Q161.625 61.90104 161.625 63.11979Q161.625 63.93229 161.26562 64.635414Q160.92188 65.322914 160.3125 65.697914Q159.70312 66.05729 158.9375 66.05729Q157.60938 66.05729 156.78125 65.08854Q155.95312 64.11979 155.95312 61.90104Q155.95312 59.40104 156.875 58.27604Q157.67188 57.291664 159.03125 57.291664Q160.04688 57.291664 160.6875 57.86979Q161.34375 58.43229 161.46875 59.43229ZM157.17188 63.135414Q157.17188 63.68229 157.39062 64.18229Q157.625 64.666664 158.03125 64.93229Q158.45312 65.197914 158.92188 65.197914Q159.57812 65.197914 160.0625 64.666664Q160.54688 64.11979 160.54688 63.197914Q160.54688 62.30729 160.0625 61.791664Q159.59375 61.27604 158.875 61.27604Q158.15625 61.27604 157.65625 61.791664Q157.17188 62.30729 157.17188 63.135414ZM168.59375 64.979164L168.75 65.90104Q168.29688 65.99479 167.95312 65.99479Q167.375 65.99479 167.0625 65.822914Q166.75 65.635414 166.60938 65.33854Q166.48438 65.041664 166.48438 64.08854L166.48438 60.510414L165.71875 60.510414L165.71875 59.697914L166.48438 59.697914L166.48438 58.15104L167.53125 57.52604L167.53125 59.697914L168.59375 59.697914L168.59375 60.510414L167.53125 60.510414L167.53125 64.15104Q167.53125 64.604164 167.57812 64.729164Q167.64062 64.854164 167.76562 64.93229Q167.89062 65.010414 168.125 65.010414Q168.3125 65.010414 168.59375 64.979164ZM169.29688 58.541664L169.29688 57.322914L170.35938 57.322914L170.35938 58.541664L169.29688 58.541664ZM169.29688 65.916664L169.29688 59.697914L170.35938 59.697914L170.35938 65.916664L169.29688 65.916664ZM172.26562 65.916664L172.26562 57.322914L173.32812 57.322914L173.32812 65.916664L172.26562 65.916664ZM179.54688 63.916664L180.64062 64.041664Q180.39062 64.99479 179.6875 65.52604Q178.98438 66.05729 177.90625 66.05729Q176.54688 66.05729 175.73438 65.21354Q174.9375 64.36979 174.9375 62.854164Q174.9375 61.291664 175.75 60.43229Q176.5625 59.55729 177.84375 59.55729Q179.09375 59.55729 179.875 60.40104Q180.67188 61.24479 180.67188 62.791664Q180.67188 62.885414 180.67188 63.072914L176.03125 63.072914Q176.09375 64.104164 176.60938 64.65104Q177.125 65.18229 177.90625 65.18229Q178.48438 65.18229 178.89062 64.885414Q179.3125 64.572914 179.54688 63.916664ZM176.09375 62.21354L179.5625 62.21354Q179.5 61.416664 179.17188 61.02604Q178.65625 60.416664 177.85938 60.416664Q177.125 60.416664 176.625 60.90104Q176.14062 61.385414 176.09375 62.21354Z" fill-rule="nonzero"/><path fill="#ea4335" d="M209.5 61.916668C209.5 65.23038 206.8137 67.916664 203.5 67.916664C200.1863 67.916664 197.5 65.23038 197.5 61.916668C197.5 58.60296 200.1863 55.916668 203.5 55.916668C206.8137 55.916668 209.5 58.60296 209.5 61.916668Z" fill-rule="nonzero"/><path fill="#1a1a1a" d="M218.0 63.65104L219.0625 63.510414Q219.23438 64.40104 219.67188 64.80729Q220.10938 65.197914 220.73438 65.197914Q221.48438 65.197914 222.0 64.68229Q222.51562 64.166664 222.51562 63.40104Q222.51562 62.68229 222.03125 62.21354Q221.5625 61.729164 220.82812 61.729164Q220.53125 61.729164 220.07812 61.854164L220.20312 60.916664Q220.3125 60.93229 220.375 60.93229Q221.04688 60.93229 221.57812 60.58854Q222.125 60.229164 222.125 59.49479Q222.125 58.916664 221.73438 58.541664Q221.34375 58.15104 220.71875 58.15104Q220.10938 58.15104 219.6875 58.541664Q219.28125 58.93229 219.17188 59.697914L218.10938 59.510414Q218.29688 58.46354 218.98438 57.885414Q219.67188 57.291664 220.6875 57.291664Q221.39062 57.291664 221.98438 57.604164Q222.57812 57.90104 222.89062 58.416664Q223.20312 58.93229 223.20312 59.52604Q223.20312 60.072914 222.90625 60.541664Q222.60938 60.99479 222.03125 61.260414Q222.78125 61.43229 223.20312 61.99479Q223.625 62.541664 223.625 63.385414Q223.625 64.510414 222.79688 65.291664Q221.98438 66.072914 220.73438 66.072914Q219.60938 66.072914 218.85938 65.40104Q218.10938 64.71354 218.0 63.65104ZM230.54688 64.90104L230.54688 65.916664L224.85938 65.916664Q224.85938 65.541664 224.98438 65.18229Q225.20312 64.604164 225.67188 64.041664Q226.15625 63.479164 227.0625 62.74479Q228.46875 61.58854 228.95312 60.916664Q229.45312 60.24479 229.45312 59.65104Q229.45312 59.02604 229.0 58.604164Q228.54688 58.166664 227.82812 58.166664Q227.0625 58.166664 226.60938 58.61979Q226.15625 59.072914 226.14062 59.885414L225.0625 59.77604Q225.17188 58.55729 225.89062 57.93229Q226.625 57.291664 227.85938 57.291664Q229.09375 57.291664 229.8125 57.979164Q230.53125 58.666664 230.53125 59.68229Q230.53125 60.197914 230.3125 60.697914Q230.10938 61.18229 229.60938 61.74479Q229.125 62.291664 228.0 63.24479Q227.04688 64.041664 226.76562 64.33854Q226.5 64.61979 226.32812 64.90104L230.54688 64.90104ZM237.59375 64.979164L237.75 65.90104Q237.29688 65.99479 236.95312 65.99479Q236.375 65.99479 236.0625 65.822914Q235.75 65.635414 235.60938 65.33854Q235.48438 65.041664 235.48438 64.08854L235.48438 60.510414L234.71875 60.510414L234.71875 59.697914L235.48438 59.697914L235.48438 58.15104L236.53125 57.52604L236.53125 59.697914L237.59375 59.697914L237.59375 60.510414L236.53125 60.510414L236.53125 64.15104Q236.53125 64.604164 236.57812 64.729164Q236.64062 64.854164 236.76562 64.93229Q236.89062 65.010414 237.125 65.010414Q237.3125 65.010414 237.59375 64.979164ZM238.29688 58.541664L238.29688 57.322914L239.35938 57.322914L239.35938 58.541664L238.29688 58.541664ZM238.29688 65.916664L238.29688 59.697914L239.35938 59.697914L239.35938 65.916664L238.29688 65.916664ZM241.26562 65.916664L241.26562 57.322914L242.32812 57.322914L242.32812 65.916664L241.26562 65.916664ZM248.54688 63.916664L249.64062 64.041664Q249.39062 64.99479 248.6875 65.52604Q247.98438 66.05729 246.90625 66.05729Q245.54688 66.05729 244.73438 65.21354Q243.9375 64.36979 243.9375 62.854164Q243.9375 61.291664 244.75 60.43229Q245.5625 59.55729 246.84375 59.55729Q248.09375 59.55729 248.875 60.40104Q249.67188 61.24479 249.67188 62.791664Q249.67188 62.885414 249.67188 63.072914L245.03125 63.072914Q245.09375 64.104164 245.60938 64.65104Q246.125 65.18229 246.90625 65.18229Q247.48438 65.18229 247.89062 64.885414Q248.3125 64.572914 248.54688 63.916664ZM245.09375 62.21354L248.5625 62.21354Q248.5 61.416664 248.17188 61.02604Q247.65625 60.416664 246.85938 60.416664Q246.125 60.416664 245.625 60.90104Q245.14062 61.385414 245.09375 62.21354Z" fill-rule="nonzero"/><path fill="#fbbc04" d="M278.5 61.916668C278.5 65.23038 275.81372 67.916664 272.5 67.916664C269.18628 67.916664 266.5 65.23038 266.5 61.916668C266.5 58.60296 269.18628 55.916668 272.5 55.916668C275.81372 55.916668 278.5 58.60296 278.5 61.916668Z" fill-rule="nonzero"/><path fill="#1a1a1a" d="M292.46875 59.43229L291.42188 59.510414Q291.28125 58.885414 291.03125 58.604164Q290.59375 58.15104 289.96875 58.15104Q289.46875 58.15104 289.07812 58.43229Q288.59375 58.80729 288.29688 59.510414Q288.01562 60.197914 288.0 61.479164Q288.375 60.90104 288.92188 60.61979Q289.48438 60.33854 290.09375 60.33854Q291.14062 60.33854 291.875 61.11979Q292.625 61.90104 292.625 63.11979Q292.625 63.93229 292.26562 64.635414Q291.92188 65.322914 291.3125 65.697914Q290.70312 66.05729 289.9375 66.05729Q288.60938 66.05729 287.78125 65.08854Q286.95312 64.11979 286.95312 61.90104Q286.95312 59.40104 287.875 58.27604Q288.67188 57.291664 290.03125 57.291664Q291.04688 57.291664 291.6875 57.86979Q292.34375 58.43229 292.46875 59.43229ZM288.17188 63.135414Q288.17188 63.68229 288.39062 64.18229Q288.625 64.666664 289.03125 64.93229Q289.45312 65.197914 289.92188 65.197914Q290.57812 65.197914 291.0625 64.666664Q291.54688 64.11979 291.54688 63.197914Q291.54688 62.30729 291.0625 61.791664Q290.59375 61.27604 289.875 61.27604Q289.15625 61.27604 288.65625 61.791664Q288.17188 62.30729 288.17188 63.135414ZM297.375 65.916664L297.375 63.854164L293.65625 63.854164L293.65625 62.885414L297.57812 57.322914L298.4375 57.322914L298.4375 62.885414L299.59375 62.885414L299.59375 63.854164L298.4375 63.854164L298.4375 65.916664L297.375 65.916664ZM297.375 62.885414L297.375 59.02604L294.6875 62.885414L297.375 62.885414ZM306.59375 64.979164L306.75 65.90104Q306.29688 65.99479 305.95312 65.99479Q305.375 65.99479 305.0625 65.822914Q304.75 65.635414 304.60938 65.33854Q304.48438 65.041664 304.48438 64.08854L304.48438 60.510414L303.71875 60.510414L303.71875 59.697914L304.48438 59.697914L304.48438 58.15104L305.53125 57.52604L305.53125 59.697914L306.59375 59.697914L306.59375 60.510414L305.53125 60.510414L305.53125 64.15104Q305.53125 64.604164 305.57812 64.729164Q305.64062 64.854164 305.76562 64.93229Q305.89062 65.010414 306.125 65.010414Q306.3125 65.010414 306.59375 64.979164ZM307.29688 58.541664L307.29688 57.322914L308.35938 57.322914L308.35938 58.541664L307.29688 58.541664ZM307.29688 65.916664L307.29688 59.697914L308.35938 59.697914L308.35938 65.916664L307.29688 65.916664ZM310.26562 65.916664L310.26562 57.322914L311.32812 57.322914L311.32812 65.916664L310.26562 65.916664ZM317.54688 63.916664L318.64062 64.041664Q318.39062 64.99479 317.6875 65.52604Q316.98438 66.05729 315.90625 66.05729Q314.54688 66.05729 313.73438 65.21354Q312.9375 64.36979 312.9375 62.854164Q312.9375 61.291664 313.75 60.43229Q314.5625 59.55729 315.84375 59.55729Q317.09375 59.55729 317.875 60.40104Q318.67188 61.24479 318.67188 62.791664Q318.67188 62.885414 318.67188 63.072914L314.03125 63.072914Q314.09375 64.104164 314.60938 64.65104Q315.125 65.18229 315.90625 65.18229Q316.48438 65.18229 316.89062 64.885414Q317.3125 64.572914 317.54688 63.916664ZM314.09375 62.21354L317.5625 62.21354Q317.5 61.416664 317.17188 61.02604Q316.65625 60.416664 315.85938 60.416664Q315.125 60.416664 314.625 60.90104Q314.14062 61.385414 314.09375 62.21354Z" fill-rule="nonzero"/><path fill="#34a853" d="M347.5 61.916668C347.5 65.23038 344.81372 67.916664 341.5 67.916664C338.18628 67.916664 335.5 65.23038 335.5 61.916668C335.5 58.60296 338.18628 55.916668 341.5 55.916668C344.81372 55.916668 347.5 58.60296 347.5 61.916668Z" fill-rule="nonzero"/><path fill="#1a1a1a" d="M359.96875 65.916664L358.92188 65.916664L358.92188 59.197914Q358.53125 59.55729 357.90625 59.93229Q357.29688 60.291664 356.8125 60.46354L356.8125 59.447914Q357.6875 59.02604 358.34375 58.447914Q359.01562 57.854164 359.29688 57.291664L359.96875 57.291664L359.96875 65.916664ZM368.54688 64.90104L368.54688 65.916664L362.85938 65.916664Q362.85938 65.541664 362.98438 65.18229Q363.20312 64.604164 363.67188 64.041664Q364.15625 63.479164 365.0625 62.74479Q366.46875 61.58854 366.95312 60.916664Q367.45312 60.24479 367.45312 59.65104Q367.45312 59.02604 367.0 58.604164Q366.54688 58.166664 365.82812 58.166664Q365.0625 58.166664 364.60938 58.61979Q364.15625 59.072914 364.14062 59.885414L363.0625 59.77604Q363.17188 58.55729 363.89062 57.93229Q364.625 57.291664 365.85938 57.291664Q367.09375 57.291664 367.8125 57.979164Q368.53125 58.666664 368.53125 59.68229Q368.53125 60.197914 368.3125 60.697914Q368.10938 61.18229 367.60938 61.74479Q367.125 62.291664 366.0 63.24479Q365.04688 64.041664 364.76562 64.33854Q364.5 64.61979 364.32812 64.90104L368.54688 64.90104ZM371.625 61.260414Q370.96875 61.010414 370.64062 60.572914Q370.32812 60.11979 370.32812 59.510414Q370.32812 58.572914 371.0 57.93229Q371.6875 57.291664 372.79688 57.291664Q373.92188 57.291664 374.60938 57.947914Q375.29688 58.604164 375.29688 59.541664Q375.29688 60.135414 374.98438 60.572914Q374.67188 61.010414 374.03125 61.260414Q374.82812 61.510414 375.23438 62.08854Q375.64062 62.666664 375.64062 63.46354Q375.64062 64.55729 374.85938 65.30729Q374.09375 66.05729 372.8125 66.05729Q371.54688 66.05729 370.76562 65.30729Q369.98438 64.55729 369.98438 63.43229Q369.98438 62.58854 370.40625 62.02604Q370.84375 61.46354 371.625 61.260414ZM371.40625 59.46354Q371.40625 60.072914 371.79688 60.46354Q372.20312 60.854164 372.82812 60.854164Q373.4375 60.854164 373.82812 60.479164Q374.21875 60.08854 374.21875 59.52604Q374.21875 58.947914 373.8125 58.55729Q373.40625 58.15104 372.8125 58.15104Q372.20312 58.15104 371.79688 58.541664Q371.40625 58.93229 371.40625 59.46354ZM371.07812 63.43229Q371.07812 63.885414 371.28125 64.30729Q371.5 64.729164 371.92188 64.96354Q372.34375 65.197914 372.82812 65.197914Q373.57812 65.197914 374.0625 64.71354Q374.5625 64.229164 374.5625 63.479164Q374.5625 62.71354 374.0625 62.21354Q373.5625 61.71354 372.79688 61.71354Q372.04688 61.71354 371.5625 62.21354Q371.07812 62.697914 371.07812 63.43229ZM382.59375 64.979164L382.75 65.90104Q382.29688 65.99479 381.95312 65.99479Q381.375 65.99479 381.0625 65.822914Q380.75 65.635414 380.60938 65.33854Q380.48438 65.041664 380.48438 64.08854L380.48438 60.510414L379.71875 60.510414L379.71875 59.697914L380.48438 59.697914L380.48438 58.15104L381.53125 57.52604L381.53125 59.697914L382.59375 59.697914L382.59375 60.510414L381.53125 60.510414L381.53125 64.15104Q381.53125 64.604164 381.57812 64.729164Q381.64062 64.854164 381.76562 64.93229Q381.89062 65.010414 382.125 65.010414Q382.3125 65.010414 382.59375 64.979164ZM383.29688 58.541664L383.29688 57.322914L384.35938 57.322914L384.35938 58.541664L383.29688 58.541664ZM383.29688 65.916664L383.29688 59.697914L384.35938 59.697914L384.35938 65.916664L383.29688 65.916664ZM386.26562 65.916664L386.26562 57.322914L387.32812 57.322914L387.32812 65.916664L386.26562 65.916664ZM393.54688 63.916664L394.64062 64.041664Q394.39062 64.99479 393.6875 65.52604Q392.98438 66.05729 391.90625 66.05729Q390.54688 66.05729 389.73438 65.21354Q388.9375 64.36979 388.9375 62.854164Q388.9375 61.291664 389.75 60.43229Q390.5625 59.55729 391.84375 59.55729Q393.09375 59.55729 393.875 60.40104Q394.67188 61.24479 394.67188 62.791664Q394.67188 62.885414 394.67188 63.072914L390.03125 63.072914Q390.09375 64.104164 390.60938 64.65104Q391.125 65.18229 391.90625 65.18229Q392.48438 65.18229 392.89062 64.885414Q393.3125 64.572914 393.54688 63.916664ZM390.09375 62.21354L393.5625 62.21354Q393.5 61.416664 393.17188 61.02604Q392.65625 60.416664 391.85938 60.416664Q391.125 60.416664 390.625 60.90104Q390.14062 61.385414 390.09375 62.21354Z" fill-rule="nonzero"/><path fill="#ff6d01" d="M423.5 61.916668C423.5 65.23038 420.81372 67.916664 417.5 67.916664C414.18628 67.916664 411.5 65.23038 411.5 61.916668C411.5 58.60296 414.18628 55.916668 417.5 55.916668C420.81372 55.916668 423.5 58.60296 423.5 61.916668Z" fill-rule="nonzero"/><path fill="#1a1a1a" d="M437.54688 64.90104L437.54688 65.916664L431.85938 65.916664Q431.85938 65.541664 431.98438 65.18229Q432.20312 64.604164 432.67188 64.041664Q433.15625 63.479164 434.0625 62.74479Q435.46875 61.58854 435.95312 60.916664Q436.45312 60.24479 436.45312 59.65104Q436.45312 59.02604 436.0 58.604164Q435.54688 58.166664 434.82812 58.166664Q434.0625 58.166664 433.60938 58.61979Q433.15625 59.072914 433.14062 59.885414L432.0625 59.77604Q432.17188 58.55729 432.89062 57.93229Q433.625 57.291664 434.85938 57.291664Q436.09375 57.291664 436.8125 57.979164Q437.53125 58.666664 437.53125 59.68229Q437.53125 60.197914 437.3125 60.697914Q437.10938 61.18229 436.60938 61.74479Q436.125 62.291664 435.0 63.24479Q434.04688 64.041664 433.76562 64.33854Q433.5 64.61979 433.32812 64.90104L437.54688 64.90104ZM439.0 63.666664L440.10938 63.572914Q440.23438 64.385414 440.67188 64.791664Q441.125 65.197914 441.76562 65.197914Q442.51562 65.197914 443.04688 64.61979Q443.57812 64.041664 443.57812 63.104164Q443.57812 62.197914 443.0625 61.68229Q442.5625 61.15104 441.73438 61.15104Q441.23438 61.15104 440.8125 61.385414Q440.40625 61.61979 440.17188 61.979164L439.1875 61.854164L440.01562 57.447914L444.29688 57.447914L444.29688 58.447914L440.85938 58.447914L440.40625 60.760414Q441.17188 60.21354 442.01562 60.21354Q443.14062 60.21354 443.90625 60.99479Q444.6875 61.77604 444.6875 63.010414Q444.6875 64.166664 444.01562 65.02604Q443.1875 66.05729 441.76562 66.05729Q440.59375 66.05729 439.84375 65.40104Q439.10938 64.74479 439.0 63.666664ZM451.46875 59.43229L450.42188 59.510414Q450.28125 58.885414 450.03125 58.604164Q449.59375 58.15104 448.96875 58.15104Q448.46875 58.15104 448.07812 58.43229Q447.59375 58.80729 447.29688 59.510414Q447.01562 60.197914 447.0 61.479164Q447.375 60.90104 447.92188 60.61979Q448.48438 60.33854 449.09375 60.33854Q450.14062 60.33854 450.875 61.11979Q451.625 61.90104 451.625 63.11979Q451.625 63.93229 451.26562 64.635414Q450.92188 65.322914 450.3125 65.697914Q449.70312 66.05729 448.9375 66.05729Q447.60938 66.05729 446.78125 65.08854Q445.95312 64.11979 445.95312 61.90104Q445.95312 59.40104 446.875 58.27604Q447.67188 57.291664 449.03125 57.291664Q450.04688 57.291664 450.6875 57.86979Q451.34375 58.43229 451.46875 59.43229ZM447.17188 63.135414Q447.17188 63.68229 447.39062 64.18229Q447.625 64.666664 448.03125 64.93229Q448.45312 65.197914 448.92188 65.197914Q449.57812 65.197914 450.0625 64.666664Q450.54688 64.11979 450.54688 63.197914Q450.54688 62.30729 450.0625 61.791664Q449.59375 61.27604 448.875 61.27604Q448.15625 61.27604 447.65625 61.791664Q447.17188 62.30729 447.17188 63.135414ZM458.59375 64.979164L458.75 65.90104Q458.29688 65.99479 457.95312 65.99479Q457.375 65.99479 457.0625 65.822914Q456.75 65.635414 456.60938 65.33854Q456.48438 65.041664 456.48438 64.08854L456.48438 60.510414L455.71875 60.510414L455.71875 59.697914L456.48438 59.697914L456.48438 58.15104L457.53125 57.52604L457.53125 59.697914L458.59375 59.697914L458.59375 60.510414L457.53125 60.510414L457.53125 64.15104Q457.53125 64.604164 457.57812 64.729164Q457.64062 64.854164 457.76562 64.93229Q457.89062 65.010414 458.125 65.010414Q458.3125 65.010414 458.59375 64.979164ZM459.29688 58.541664L459.29688 57.322914L460.35938 57.322914L460.35938 58.541664L459.29688 58.541664ZM459.29688 65.916664L459.29688 59.697914L460.35938 59.697914L460.35938 65.916664L459.29688 65.916664ZM462.26562 65.916664L462.26562 57.322914L463.32812 57.322914L463.32812 65.916664L462.26562 65.916664ZM469.54688 63.916664L470.64062 64.041664Q470.39062 64.99479 469.6875 65.52604Q468.98438 66.05729 467.90625 66.05729Q466.54688 66.05729 465.73438 65.21354Q464.9375 64.36979 464.9375 62.854164Q464.9375 61.291664 465.75 60.43229Q466.5625 59.55729 467.84375 59.55729Q469.09375 59.55729 469.875 60.40104Q470.67188 61.24479 470.67188 62.791664Q470.67188 62.885414 470.67188 63.072914L466.03125 63.072914Q466.09375 64.104164 466.60938 64.65104Q467.125 65.18229 467.90625 65.18229Q468.48438 65.18229 468.89062 64.885414Q469.3125 64.572914 469.54688 63.916664ZM466.09375 62.21354L469.5625 62.21354Q469.5 61.416664 469.17188 61.02604Q468.65625 60.416664 467.85938 60.416664Q467.125 60.416664 466.625 60.90104Q466.14062 61.385414 466.09375 62.21354Z" fill-rule="nonzero"/><path fill="#757575" d="M19.45625 32.95625L21.2375 32.8Q21.3625 33.8625 21.815624 34.55Q22.284374 35.2375 23.253124 35.675Q24.2375 36.096874 25.471874 36.096874Q26.55 36.096874 27.378124 35.784374Q28.20625 35.45625 28.6125 34.89375Q29.01875 34.33125 29.01875 33.659374Q29.01875 32.9875 28.628124 32.4875Q28.2375 31.9875 27.346874 31.64375Q26.76875 31.409374 24.784374 30.940624Q22.815624 30.471874 22.034374 30.05Q21.003124 29.51875 20.503124 28.721874Q20.003124 27.925 20.003124 26.940624Q20.003124 25.846874 20.6125 24.909374Q21.221874 23.971874 22.409374 23.4875Q23.596874 22.9875 25.034374 22.9875Q26.628124 22.9875 27.846874 23.503124Q29.065624 24.01875 29.70625 25.01875Q30.3625 26.003124 30.409374 27.26875L28.596874 27.409374Q28.45625 26.05 27.6125 25.3625Q26.76875 24.659374 25.1125 24.659374Q23.39375 24.659374 22.596874 25.3Q21.815624 25.925 21.815624 26.8Q21.815624 27.58125 22.378124 28.08125Q22.925 28.58125 25.2375 29.096874Q27.55 29.6125 28.409374 30.003124Q29.659374 30.58125 30.253124 31.471874Q30.846874 32.346874 30.846874 33.503124Q30.846874 34.64375 30.190624 35.659374Q29.534374 36.675 28.3 37.2375Q27.08125 37.8 25.55 37.8Q23.6125 37.8 22.3 37.2375Q20.9875 36.659374 20.2375 35.51875Q19.4875 34.378124 19.45625 32.95625ZM32.8625 41.51875L32.8625 27.175L34.471874 27.175L34.471874 28.51875Q35.034374 27.7375 35.7375 27.346874Q36.45625 26.940624 37.471874 26.940624Q38.8 26.940624 39.815624 27.628124Q40.83125 28.315624 41.346874 29.565624Q41.878124 30.8 41.878124 32.284374Q41.878124 33.878124 41.3 35.159374Q40.7375 36.425 39.64375 37.1125Q38.55 37.784374 37.346874 37.784374Q36.471874 37.784374 35.76875 37.409374Q35.08125 37.034374 34.628124 36.471874L34.628124 41.51875L32.8625 41.51875ZM34.45625 32.425Q34.45625 34.425 35.26875 35.378124Q36.08125 36.33125 37.2375 36.33125Q38.409374 36.33125 39.2375 35.346874Q40.08125 34.3625 40.08125 32.26875Q40.08125 30.3 39.253124 29.315624Q38.440624 28.315624 37.315624 28.315624Q36.190624 28.315624 35.315624 29.378124Q34.45625 30.425 34.45625 32.425ZM50.971874 34.20625L52.784374 34.440624Q52.3625 36.01875 51.190624 36.909374Q50.034374 37.784374 48.221874 37.784374Q45.95625 37.784374 44.6125 36.39375Q43.284374 34.9875 43.284374 32.45625Q43.284374 29.83125 44.628124 28.39375Q45.971874 26.940624 48.128124 26.940624Q50.20625 26.940624 51.51875 28.3625Q52.846874 29.76875 52.846874 32.346874Q52.846874 32.503124 52.83125 32.815624L45.096874 32.815624Q45.190624 34.51875 46.065624 35.425Q46.940624 36.33125 48.2375 36.33125Q49.20625 36.33125 49.878124 35.83125Q50.565624 35.315624 50.971874 34.20625ZM45.190624 31.3625L50.9875 31.3625Q50.878124 30.065624 50.33125 29.409374Q49.4875 28.39375 48.14375 28.39375Q46.940624 28.39375 46.1125 29.20625Q45.284374 30.003124 45.190624 31.3625ZM61.971874 34.20625L63.784374 34.440624Q63.3625 36.01875 62.190624 36.909374Q61.034374 37.784374 59.221874 37.784374Q56.95625 37.784374 55.6125 36.39375Q54.284374 34.9875 54.284374 32.45625Q54.284374 29.83125 55.628124 28.39375Q56.971874 26.940624 59.128124 26.940624Q61.20625 26.940624 62.51875 28.3625Q63.846874 29.76875 63.846874 32.346874Q63.846874 32.503124 63.83125 32.815624L56.096874 32.815624Q56.190624 34.51875 57.065624 35.425Q57.940624 36.33125 59.2375 36.33125Q60.20625 36.33125 60.878124 35.83125Q61.565624 35.315624 61.971874 34.20625ZM56.190624 31.3625L61.9875 31.3625Q61.878124 30.065624 61.33125 29.409374Q60.4875 28.39375 59.14375 28.39375Q57.940624 28.39375 57.1125 29.20625Q56.284374 30.003124 56.190624 31.3625ZM72.59688 37.55L72.59688 36.2375Q71.6125 37.784374 69.69063 37.784374Q68.45625 37.784374 67.40938 37.096874Q66.37813 36.409374 65.8 35.190624Q65.2375 33.971874 65.2375 32.378124Q65.2375 30.815624 65.75313 29.55Q66.26875 28.284374 67.3 27.6125Q68.34688 26.940624 69.6125 26.940624Q70.55 26.940624 71.28438 27.346874Q72.01875 27.7375 72.4875 28.3625L72.4875 23.2375L74.22188 23.2375L74.22188 37.55L72.59688 37.55ZM67.03438 32.378124Q67.03438 34.3625 67.87813 35.346874Q68.72188 36.33125 69.8625 36.33125Q71.01875 36.33125 71.81563 35.39375Q72.62813 34.45625 72.62813 32.51875Q72.62813 30.39375 71.8 29.39375Q70.9875 28.39375 69.78438 28.39375Q68.6125 28.39375 67.81563 29.3625Q67.03438 30.315624 67.03438 32.378124ZM83.65938 37.55L83.65938 36.01875Q82.45625 37.784374 80.37813 37.784374Q79.45625 37.784374 78.65938 37.440624Q77.8625 37.08125 77.47188 36.55Q77.09688 36.01875 76.94063 35.2375Q76.83125 34.721874 76.83125 33.596874L76.83125 27.175L78.58125 27.175L78.58125 32.925Q78.58125 34.3 78.69063 34.784374Q78.8625 35.471874 79.39375 35.878124Q79.94063 36.26875 80.72188 36.26875Q81.51875 36.26875 82.20625 35.8625Q82.90938 35.45625 83.19063 34.76875Q83.4875 34.065624 83.4875 32.7375L83.4875 27.175L85.2375 27.175L85.2375 37.55L83.65938 37.55ZM86.8625 41.51875L86.8625 27.175L88.47188 27.175L88.47188 28.51875Q89.03438 27.7375 89.7375 27.346874Q90.45625 26.940624 91.47188 26.940624Q92.8 26.940624 93.81563 27.628124Q94.83125 28.315624 95.34688 29.565624Q95.87813 30.8 95.87813 32.284374Q95.87813 33.878124 95.3 35.159374Q94.7375 36.425 93.64375 37.1125Q92.55 37.784374 91.34688 37.784374Q90.47188 37.784374 89.76875 37.409374Q89.08125 37.034374 88.62813 36.471874L88.62813 41.51875L86.8625 41.51875ZM88.45625 32.425Q88.45625 34.425 89.26875 35.378124Q90.08125 36.33125 91.2375 36.33125Q92.40938 36.33125 93.2375 35.346874Q94.08125 34.3625 94.08125 32.26875Q94.08125 30.3 93.25313 29.315624Q92.44063 28.315624 91.31563 28.315624Q90.19063 28.315624 89.31563 29.378124Q88.45625 30.425 88.45625 32.425ZM106.75313 37.55L102.8 27.175L104.65938 27.175L106.89375 33.39375Q107.25313 34.39375 107.55 35.471874Q107.78438 34.659374 108.20625 33.503124L110.50313 27.175L112.31563 27.175L108.39375 37.55L106.75313 37.55ZM112.15938 34.45625L113.90938 34.175Q114.05 35.221874 114.72188 35.784374Q115.39375 36.33125 116.59688 36.33125Q117.8 36.33125 118.37813 35.846874Q118.97188 35.346874 118.97188 34.690624Q118.97188 34.096874 118.45625 33.753124Q118.09688 33.51875 116.65938 33.159374Q114.72188 32.659374 113.97188 32.315624Q113.2375 31.95625 112.84688 31.33125Q112.45625 30.690624 112.45625 29.925Q112.45625 29.2375 112.76875 28.64375Q113.09688 28.05 113.64375 27.659374Q114.05 27.3625 114.75313 27.159374Q115.47188 26.940624 116.28438 26.940624Q117.50313 26.940624 118.425 27.3Q119.34688 27.64375 119.78438 28.253124Q120.22188 28.846874 120.39375 29.846874L118.675 30.08125Q118.55 29.284374 117.9875 28.846874Q117.425 28.39375 116.40938 28.39375Q115.19063 28.39375 114.675 28.8Q114.15938 29.190624 114.15938 29.721874Q114.15938 30.065624 114.37813 30.346874Q114.58125 30.628124 115.05 30.815624Q115.31563 30.909374 116.59688 31.253124Q118.47188 31.753124 119.20625 32.08125Q119.94063 32.39375 120.3625 33.003124Q120.78438 33.596874 120.78438 34.503124Q120.78438 35.378124 120.26875 36.159374Q119.75313 36.940624 118.78438 37.3625Q117.81563 37.784374 116.59688 37.784374Q114.58125 37.784374 113.51875 36.940624Q112.45625 36.096874 112.15938 34.45625ZM129.03438 37.55L129.03438 23.2375L131.89375 23.2375L135.26875 33.3625Q135.7375 34.784374 135.95625 35.4875Q136.20625 34.70625 136.72188 33.190624L140.14375 23.2375L142.69063 23.2375L142.69063 37.55L140.87813 37.55L140.87813 25.565624L136.70625 37.55L135.00313 37.55L130.8625 25.3625L130.8625 37.55L129.03438 37.55ZM152.64375 36.26875Q151.65938 37.096874 150.75313 37.440624Q149.84688 37.784374 148.81563 37.784374Q147.1125 37.784374 146.19063 36.95625Q145.26875 36.1125 145.26875 34.815624Q145.26875 34.05 145.6125 33.425Q145.97188 32.8 146.53438 32.425Q147.09688 32.034374 147.8 31.83125Q148.31563 31.70625 149.3625 31.565624Q151.4875 31.315624 152.4875 30.971874Q152.50313 30.6125 152.50313 30.503124Q152.50313 29.440624 152.00313 28.9875Q151.33125 28.39375 150.00313 28.39375Q148.75313 28.39375 148.15938 28.83125Q147.58125 29.26875 147.3 30.378124L145.58125 30.14375Q145.81563 29.034374 146.34688 28.3625Q146.87813 27.675 147.89375 27.315624Q148.90938 26.940624 150.25313 26.940624Q151.58125 26.940624 152.40938 27.253124Q153.2375 27.565624 153.62813 28.05Q154.01875 28.51875 154.175 29.2375Q154.26875 29.690624 154.26875 30.8625L154.26875 33.20625Q154.26875 35.659374 154.37813 36.315624Q154.4875 36.95625 154.83125 37.55L152.9875 37.55Q152.72188 37.003124 152.64375 36.26875ZM152.4875 32.346874Q151.53438 32.7375 149.6125 33.003124Q148.53438 33.159374 148.08125 33.3625Q147.64375 33.55 147.39375 33.925Q147.14375 34.3 147.14375 34.76875Q147.14375 35.471874 147.675 35.940624Q148.20625 36.409374 149.2375 36.409374Q150.25313 36.409374 151.03438 35.971874Q151.83125 35.51875 152.20625 34.753124Q152.4875 34.14375 152.4875 32.9875L152.4875 32.346874ZM160.70625 35.971874L160.95625 37.534374Q160.22188 37.690624 159.62813 37.690624Q158.675 37.690624 158.14375 37.39375Q157.62813 37.08125 157.40938 36.596874Q157.19063 36.096874 157.19063 34.51875L157.19063 28.55L155.90938 28.55L155.90938 27.175L157.19063 27.175L157.19063 24.6125L158.94063 23.55L158.94063 27.175L160.70625 27.175L160.70625 28.55L158.94063 28.55L158.94063 34.6125Q158.94063 35.3625 159.03438 35.58125Q159.12813 35.784374 159.33125 35.925Q159.55 36.05 159.94063 36.05Q160.22188 36.05 160.70625 35.971874ZM162.84688 37.55L162.84688 27.175L164.425 27.175L164.425 28.753124Q165.03438 27.64375 165.55 27.3Q166.06563 26.940624 166.675 26.940624Q167.56563 26.940624 168.4875 27.503124L167.87813 29.14375Q167.2375 28.753124 166.59688 28.753124Q166.01875 28.753124 165.55 29.1125Q165.09688 29.45625 164.89375 30.065624Q164.6125 31.003124 164.6125 32.1125L164.6125 37.55L162.84688 37.55ZM169.87813 25.253124L169.87813 23.2375L171.64375 23.2375L171.64375 25.253124L169.87813 25.253124ZM169.87813 37.55L169.87813 27.175L171.64375 27.175L171.64375 37.55L169.87813 37.55ZM172.69063 37.55L176.4875 32.159374L172.9875 27.175L175.175 27.175L176.76875 29.6125Q177.22188 30.3 177.4875 30.76875Q177.925 30.128124 178.28438 29.628124L180.03438 27.175L182.12813 27.175L178.55 32.065624L182.40938 37.55L180.25313 37.55L178.1125 34.33125L177.55 33.45625L174.83125 37.55L172.69063 37.55ZM188.15938 34.45625L189.90938 34.175Q190.05 35.221874 190.72188 35.784374Q191.39375 36.33125 192.59688 36.33125Q193.8 36.33125 194.37813 35.846874Q194.97188 35.346874 194.97188 34.690624Q194.97188 34.096874 194.45625 33.753124Q194.09688 33.51875 192.65938 33.159374Q190.72188 32.659374 189.97188 32.315624Q189.2375 31.95625 188.84688 31.33125Q188.45625 30.690624 188.45625 29.925Q188.45625 29.2375 188.76875 28.64375Q189.09688 28.05 189.64375 27.659374Q190.05 27.3625 190.75313 27.159374Q191.47188 26.940624 192.28438 26.940624Q193.50313 26.940624 194.425 27.3Q195.34688 27.64375 195.78438 28.253124Q196.22188 28.846874 196.39375 29.846874L194.675 30.08125Q194.55 29.284374 193.9875 28.846874Q193.425 28.39375 192.40938 28.39375Q191.19063 28.39375 190.675 28.8Q190.15938 29.190624 190.15938 29.721874Q190.15938 30.065624 190.37813 30.346874Q190.58125 30.628124 191.05 30.815624Q191.31563 30.909374 192.59688 31.253124Q194.47188 31.753124 195.20625 32.08125Q195.94063 32.39375 196.3625 33.003124Q196.78438 33.596874 196.78438 34.503124Q196.78438 35.378124 196.26875 36.159374Q195.75313 36.940624 194.78438 37.3625Q193.81563 37.784374 192.59688 37.784374Q190.58125 37.784374 189.51875 36.940624Q188.45625 36.096874 188.15938 34.45625ZM198.87813 25.253124L198.87813 23.2375L200.64375 23.2375L200.64375 25.253124L198.87813 25.253124ZM198.87813 37.55L198.87813 27.175L200.64375 27.175L200.64375 37.55L198.87813 37.55ZM201.94063 37.55L201.94063 36.128124L208.55 28.55Q207.425 28.596874 206.56563 28.596874L202.33125 28.596874L202.33125 27.175L210.81563 27.175L210.81563 28.346874L205.19063 34.925L204.1125 36.128124Q205.28438 36.034374 206.33125 36.034374L211.12813 36.034374L211.12813 37.55L201.94063 37.55ZM218.97188 34.20625L220.78438 34.440624Q220.3625 36.01875 219.19063 36.909374Q218.03438 37.784374 216.22188 37.784374Q213.95625 37.784374 212.6125 36.39375Q211.28438 34.9875 211.28438 32.45625Q211.28438 29.83125 212.62813 28.39375Q213.97188 26.940624 216.12813 26.940624Q218.20625 26.940624 219.51875 28.3625Q220.84688 29.76875 220.84688 32.346874Q220.84688 32.503124 220.83125 32.815624L213.09688 32.815624Q213.19063 34.51875 214.06563 35.425Q214.94063 36.33125 216.2375 36.33125Q217.20625 36.33125 217.87813 35.83125Q218.56563 35.315624 218.97188 34.20625ZM213.19063 31.3625L218.9875 31.3625Q218.87813 30.065624 218.33125 29.409374Q217.4875 28.39375 216.14375 28.39375Q214.94063 28.39375 214.1125 29.20625Q213.28438 30.003124 213.19063 31.3625Z" fill-rule="nonzero"/></svg>