<svg version="1.1" viewBox="0.0 0.0 600.0 371.0" fill="none" stroke="none" stroke-linecap="square" stroke-miterlimit="10" width="600" height="371" xmlns:xlink="http://www.w3.org/1999/xlink" xmlns="http://www.w3.org/2000/svg"><path fill="#ffffff" d="M0 0L600.0 0L600.0 371.0L0 371.0L0 0Z" fill-rule="nonzero"/><path stroke="#333333" stroke-width="1.0" stroke-linecap="butt" d="M45.5 300.5L581.5 300.5" fill-rule="nonzero"/><path stroke="#cccccc" stroke-width="1.0" stroke-linecap="butt" d="M45.5 247.5L581.5 247.5" fill-rule="nonzero"/><path stroke="#cccccc" stroke-width="1.0" stroke-linecap="butt" d="M45.5 194.5L581.5 194.5" fill-rule="nonzero"/><path stroke="#cccccc" stroke-width="1.0" stroke-linecap="butt" d="M45.5 141.5L581.5 141.5" fill-rule="nonzero"/><path stroke="#cccccc" stroke-width="1.0" stroke-linecap="butt" d="M45.5 88.5L581.5 88.5" fill-rule="nonzero"/><clipPath id="id_0"><path d="M45.55 88.28333L581.45 88.28333L581.45 300.45L45.55 300.45L45.55 88.28333Z" clip-rule="nonzero"/></clipPath><path stroke="#000000" stroke-width="2.0" stroke-linecap="butt" stroke-opacity="0.0" clip-path="url(#id_0)" d="M128.0 300.0L90.0 300.0L90.0 96.0C90.0 94.89543 90.89543 94.0 92.0 94.0L126.0 94.0C127.10457 94.0 128.0 94.89543 128.0 96.0Z" fill-rule="nonzero"/><path fill="#4285f4" clip-path="url(#id_0)" d="M128.0 300.0L90.0 300.0L90.0 96.0C90.0 94.89543 90.89543 94.0 92.0 94.0L126.0 94.0C127.10457 94.0 128.0 94.89543 128.0 96.0Z" fill-rule="nonzero"/><path stroke="#000000" stroke-width="2.0" stroke-linecap="butt" stroke-opacity="0.0" clip-path="url(#id_0)" d="M251.0 300.0L213.0 300.0L213.0 100.0C213.0 98.89543 213.89543 98.0 215.0 98.0L249.0 98.0C250.10457 98.0 251.0 98.89543 251.0 100.0Z" fill-rule="nonzero"/><path fill="#4285f4" clip-path="url(#id_0)" d="M251.0 300.0L213.0 300.0L213.0 100.0C213.0 98.89543 213.89543 98.0 215.0 98.0L249.0 98.0C250.10457 98.0 251.0 98.89543 251.0 100.0Z" fill-rule="nonzero"/><path stroke="#000000" stroke-width="2.0" stroke-linecap="butt" stroke-opacity="0.0" clip-path="url(#id_0)" d="M374.0 300.0L336.0 300.0L336.0 99.0C336.0 97.89543 336.89542 97.0 338.0 97.0L372.0 97.0C373.10458 97.0 374.0 97.89543 374.0 99.0Z" fill-rule="nonzero"/><path fill="#4285f4" clip-path="url(#id_0)" d="M374.0 300.0L336.0 300.0L336.0 99.0C336.0 97.89543 336.89542 97.0 338.0 97.0L372.0 97.0C373.10458 97.0 374.0 97.89543 374.0 99.0Z" fill-rule="nonzero"/><path stroke="#000000" stroke-width="2.0" stroke-linecap="butt" stroke-opacity="0.0" clip-path="url(#id_0)" d="M497.0 300.0L459.0 300.0L459.0 98.0C459.0 96.89543 459.89542 96.0 461.0 96.0L495.0 96.0C496.10458 96.0 497.0 96.89543 497.0 98.0Z" fill-rule="nonzero"/><path fill="#4285f4" clip-path="url(#id_0)" d="M497.0 300.0L459.0 300.0L459.0 98.0C459.0 96.89543 459.89542 96.0 461.0 96.0L495.0 96.0C496.10458 96.0 497.0 96.89543 497.0 98.0Z" fill-rule="nonzero"/><path stroke="#000000" stroke-width="2.0" stroke-linecap="butt" stroke-opacity="0.0" clip-path="url(#id_0)" d="M168.0 300.0L130.0 300.0L130.0 146.0C130.0 144.89543 130.89543 144.0 132.0 144.0L166.0 144.0C167.10457 144.0 168.0 144.89543 168.0 146.0Z" fill-rule="nonzero"/><path fill="#ea4335" clip-path="url(#id_0)" d="M168.0 300.0L130.0 300.0L130.0 146.0C130.0 144.89543 130.89543 144.0 132.0 144.0L166.0 144.0C167.10457 144.0 168.0 144.89543 168.0 146.0Z" fill-rule="nonzero"/><path stroke="#000000" stroke-width="2.0" stroke-linecap="butt" stroke-opacity="0.0" clip-path="url(#id_0)" d="M291.0 300.0L253.0 300.0L253.0 184.0C253.0 182.89543 253.89543 182.0 255.0 182.0L289.0 182.0C290.10458 182.0 291.0 182.89543 291.0 184.0Z" fill-rule="nonzero"/><path fill="#ea4335" clip-path="url(#id_0)" d="M291.0 300.0L253.0 300.0L253.0 184.0C253.0 182.89543 253.89543 182.0 255.0 182.0L289.0 182.0C290.10458 182.0 291.0 182.89543 291.0 184.0Z" fill-rule="nonzero"/><path stroke="#000000" stroke-width="2.0" stroke-linecap="butt" stroke-opacity="0.0" clip-path="url(#id_0)" d="M414.0 300.0L376.0 300.0L376.0 196.0C376.0 194.89543 376.89542 194.0 378.0 194.0L412.0 194.0C413.10458 194.0 414.0 194.89543 414.0 196.0Z" fill-rule="nonzero"/><path fill="#ea4335" clip-path="url(#id_0)" d="M414.0 300.0L376.0 300.0L376.0 196.0C376.0 194.89543 376.89542 194.0 378.0 194.0L412.0 194.0C413.10458 194.0 414.0 194.89543 414.0 196.0Z" fill-rule="nonzero"/><path stroke="#000000" stroke-width="2.0" stroke-linecap="butt" stroke-opacity="0.0" clip-path="url(#id_0)" d="M537.0 300.0L499.0 300.0L499.0 209.0C499.0 207.89543 499.89542 207.0 501.0 207.0L535.0 207.0C536.10455 207.0 537.0 207.89543 537.0 209.0Z" fill-rule="nonzero"/><path fill="#ea4335" clip-path="url(#id_0)" d="M537.0 300.0L499.0 300.0L499.0 209.0C499.0 207.89543 499.89542 207.0 501.0 207.0L535.0 207.0C536.10455 207.0 537.0 207.89543 537.0 209.0Z" fill-rule="nonzero"/><path fill="#000000" d="M285.89062 349.45L285.89062 340.85626L287.60938 340.85626L289.64062 346.9344Q289.92188 347.79376 290.04688 348.21564Q290.1875 347.7469 290.5 346.84064L292.5625 340.85626L294.09375 340.85626L294.09375 349.45L293.0 349.45L293.0 342.2625L290.5 349.45L289.46875 349.45L286.98438 342.1375L286.98438 349.45L285.89062 349.45ZM298.85938 348.6844Q298.26562 349.1844 297.71875 349.3875Q297.1875 349.59064 296.5625 349.59064Q295.53125 349.59064 294.98438 349.09064Q294.4375 348.59064 294.4375 347.8094Q294.4375 347.35626 294.64062 346.98126Q294.84375 346.59064 295.1875 346.3719Q295.53125 346.1375 295.95312 346.02814Q296.25 345.9344 296.89062 345.85626Q298.15625 345.71564 298.76562 345.4969Q298.76562 345.27814 298.76562 345.23126Q298.76562 344.575 298.46875 344.3094Q298.0625 343.96564 297.26562 343.96564Q296.53125 343.96564 296.17188 344.23126Q295.8125 344.48126 295.64062 345.1375L294.60938 344.9969Q294.75 344.34064 295.07812 343.9344Q295.40625 343.52814 296.01562 343.3094Q296.625 343.09064 297.42188 343.09064Q298.21875 343.09064 298.71875 343.27814Q299.21875 343.46564 299.45312 343.7469Q299.6875 344.02814 299.78125 344.46564Q299.82812 344.73126 299.82812 345.4344L299.82812 346.84064Q299.82812 348.3094 299.89062 348.7Q299.96875 349.09064 300.17188 349.45L299.0625 349.45Q298.90625 349.1219 298.85938 348.6844ZM298.76562 346.325Q298.1875 346.5594 297.04688 346.73126Q296.39062 346.825 296.125 346.95Q295.85938 347.0594 295.70312 347.27814Q295.5625 347.4969 295.5625 347.77814Q295.5625 348.2 295.875 348.48126Q296.20312 348.7625 296.8125 348.7625Q297.42188 348.7625 297.89062 348.4969Q298.375 348.23126 298.59375 347.7625Q298.76562 347.40314 298.76562 346.71564L298.76562 346.325ZM304.09375 348.5125L304.25 349.4344Q303.79688 349.52814 303.45312 349.52814Q302.875 349.52814 302.5625 349.35626Q302.25 349.16876 302.10938 348.8719Q301.98438 348.575 301.98438 347.6219L301.98438 344.04376L301.21875 344.04376L301.21875 343.23126L301.98438 343.23126L301.98438 341.6844L303.03125 341.0594L303.03125 343.23126L304.09375 343.23126L304.09375 344.04376L303.03125 344.04376L303.03125 347.6844Q303.03125 348.1375 303.07812 348.2625Q303.14062 348.3875 303.26562 348.46564Q303.39062 348.54376 303.625 348.54376Q303.8125 348.54376 304.09375 348.5125ZM304.78125 349.45L304.78125 343.23126L305.73438 343.23126L305.73438 344.16876Q306.09375 343.5125 306.39062 343.3094Q306.70312 343.09064 307.07812 343.09064Q307.60938 343.09064 308.15625 343.41876L307.79688 344.40314Q307.40625 344.16876 307.03125 344.16876Q306.67188 344.16876 306.39062 344.3875Q306.125 344.59064 306.01562 344.96564Q305.82812 345.52814 305.82812 346.1844L305.82812 349.45L304.78125 349.45ZM308.79688 342.075L308.79688 340.85626L309.85938 340.85626L309.85938 342.075L308.79688 342.075ZM308.79688 349.45L308.79688 343.23126L309.85938 343.23126L309.85938 349.45L308.79688 349.45ZM311.09375 349.45L313.35938 346.21564L311.26562 343.23126L312.57812 343.23126L313.53125 344.6844Q313.79688 345.10626 313.96875 345.3875Q314.21875 344.9969 314.4375 344.7L315.48438 343.23126L316.75 343.23126L314.59375 346.15314L316.90625 349.45L315.625 349.45L314.34375 347.5125L314.0 346.9969L312.35938 349.45L311.09375 349.45ZM319.54688 346.6844L320.60938 346.59064Q320.6875 347.2469 320.96875 347.65314Q321.25 348.0594 321.82812 348.325Q322.42188 348.575 323.15625 348.575Q323.79688 348.575 324.29688 348.3875Q324.79688 348.1844 325.03125 347.85626Q325.28125 347.5125 325.28125 347.1219Q325.28125 346.71564 325.04688 346.41876Q324.8125 346.10626 324.28125 345.90314Q323.92188 345.7625 322.73438 345.48126Q321.5625 345.2 321.09375 344.95Q320.46875 344.6219 320.17188 344.15314Q319.875 343.66876 319.875 343.075Q319.875 342.4344 320.23438 341.8719Q320.60938 341.29376 321.3125 341.0125Q322.03125 340.71564 322.89062 340.71564Q323.84375 340.71564 324.57812 341.02814Q325.3125 341.325 325.70312 341.9344Q326.09375 342.52814 326.125 343.27814L325.03125 343.35626Q324.9375 342.54376 324.42188 342.1375Q323.92188 341.71564 322.9375 341.71564Q321.90625 341.71564 321.4375 342.09064Q320.96875 342.46564 320.96875 342.9969Q320.96875 343.46564 321.29688 343.7625Q321.625 344.0594 323.0 344.3719Q324.39062 344.6844 324.90625 344.91876Q325.65625 345.27814 326.01562 345.8094Q326.375 346.325 326.375 347.02814Q326.375 347.71564 325.98438 348.325Q325.59375 348.91876 324.85938 349.2625Q324.125 349.59064 323.20312 349.59064Q322.03125 349.59064 321.23438 349.2625Q320.45312 348.91876 320.0 348.23126Q319.5625 347.54376 319.54688 346.6844ZM327.79688 342.075L327.79688 340.85626L328.85938 340.85626L328.85938 342.075L327.79688 342.075ZM327.79688 349.45L327.79688 343.23126L328.85938 343.23126L328.85938 349.45L327.79688 349.45ZM330.23438 349.45L330.23438 348.59064L334.20312 344.04376Q333.51562 344.075 333.0 344.075L330.46875 344.075L330.46875 343.23126L335.5625 343.23126L335.5625 343.91876L332.1875 347.8719L331.53125 348.59064Q332.25 348.54376 332.85938 348.54376L335.75 348.54376L335.75 349.45L330.23438 349.45ZM340.04688 347.45L341.14062 347.575Q340.89062 348.52814 340.1875 349.0594Q339.48438 349.59064 338.40625 349.59064Q337.04688 349.59064 336.23438 348.7469Q335.4375 347.90314 335.4375 346.3875Q335.4375 344.825 336.25 343.96564Q337.0625 343.09064 338.34375 343.09064Q339.59375 343.09064 340.375 343.9344Q341.17188 344.77814 341.17188 346.325Q341.17188 346.41876 341.17188 346.60626L336.53125 346.60626Q336.59375 347.6375 337.10938 348.1844Q337.625 348.71564 338.40625 348.71564Q338.98438 348.71564 339.39062 348.41876Q339.8125 348.10626 340.04688 347.45ZM336.59375 345.7469L340.0625 345.7469Q340.0 344.95 339.67188 344.5594Q339.15625 343.95 338.35938 343.95Q337.625 343.95 337.125 344.4344Q336.64062 344.91876 336.59375 345.7469Z" fill-rule="nonzero"/><path fill="#000000" d="M23.05 300.21564Q23.05 298.6844 23.3625 297.7625Q23.675 296.825 24.284374 296.325Q24.909374 295.825 25.846874 295.825Q26.534374 295.825 27.05 296.10626Q27.58125 296.3875 27.925 296.91876Q28.26875 297.4344 28.45625 298.1844Q28.64375 298.9344 28.64375 300.21564Q28.64375 301.73126 28.33125 302.65314Q28.034374 303.575 27.409374 304.09064Q26.8 304.59064 25.846874 304.59064Q24.6125 304.59064 23.89375 303.7Q23.05 302.6375 23.05 300.21564ZM24.128124 300.21564Q24.128124 302.325 24.628124 303.02814Q25.128124 303.73126 25.846874 303.73126Q26.58125 303.73126 27.065624 303.02814Q27.565624 302.325 27.565624 300.21564Q27.565624 298.09064 27.065624 297.40314Q26.58125 296.7 25.83125 296.7Q25.1125 296.7 24.675 297.3094Q24.128124 298.09064 24.128124 300.21564ZM30.64375 304.45L30.64375 303.2469L31.846874 303.2469L31.846874 304.45L30.64375 304.45ZM33.05 300.21564Q33.05 298.6844 33.3625 297.7625Q33.675 296.825 34.284374 296.325Q34.909374 295.825 35.846874 295.825Q36.534374 295.825 37.05 296.10626Q37.58125 296.3875 37.925 296.91876Q38.26875 297.4344 38.45625 298.1844Q38.64375 298.9344 38.64375 300.21564Q38.64375 301.73126 38.33125 302.65314Q38.034374 303.575 37.409374 304.09064Q36.8 304.59064 35.846874 304.59064Q34.6125 304.59064 33.89375 303.7Q33.05 302.6375 33.05 300.21564ZM34.128124 300.21564Q34.128124 302.325 34.628124 303.02814Q35.128124 303.73126 35.846874 303.73126Q36.58125 303.73126 37.065624 303.02814Q37.565624 302.325 37.565624 300.21564Q37.565624 298.09064 37.065624 297.40314Q36.58125 296.7 35.83125 296.7Q35.1125 296.7 34.675 297.3094Q34.128124 298.09064 34.128124 300.21564Z" fill-rule="nonzero"/><path fill="#000000" d="M23.05 247.17397Q23.05 245.64272 23.3625 244.72084Q23.675 243.78334 24.284374 243.28334Q24.909374 242.78334 25.846874 242.78334Q26.534374 242.78334 27.05 243.06459Q27.58125 243.34584 27.925 243.87709Q28.26875 244.39272 28.45625 245.14272Q28.64375 245.89272 28.64375 247.17397Q28.64375 248.68959 28.33125 249.61147Q28.034374 250.53334 27.409374 251.04897Q26.8 251.54897 25.846874 251.54897Q24.6125 251.54897 23.89375 250.65834Q23.05 249.59584 23.05 247.17397ZM24.128124 247.17397Q24.128124 249.28334 24.628124 249.98647Q25.128124 250.68959 25.846874 250.68959Q26.58125 250.68959 27.065624 249.98647Q27.565624 249.28334 27.565624 247.17397Q27.565624 245.04897 27.065624 244.36147Q26.58125 243.65834 25.83125 243.65834Q25.1125 243.65834 24.675 244.26772Q24.128124 245.04897 24.128124 247.17397ZM30.64375 251.40834L30.64375 250.20522L31.846874 250.20522L31.846874 251.40834L30.64375 251.40834ZM37.01875 251.40834L35.971874 251.40834L35.971874 244.68959Q35.58125 245.04897 34.95625 245.42397Q34.346874 245.78334 33.8625 245.95522L33.8625 244.93959Q34.7375 244.51772 35.39375 243.93959Q36.065624 243.34584 36.346874 242.78334L37.01875 242.78334L37.01875 251.40834Z" fill-rule="nonzero"/><path fill="#000000" d="M23.05 194.1323Q23.05 192.60104 23.3625 191.67917Q23.675 190.74167 24.284374 190.24167Q24.909374 189.74167 25.846874 189.74167Q26.534374 189.74167 27.05 190.02292Q27.58125 190.30417 27.925 190.83542Q28.26875 191.35104 28.45625 192.10104Q28.64375 192.85104 28.64375 194.1323Q28.64375 195.64792 28.33125 196.5698Q28.034374 197.49167 27.409374 198.0073Q26.8 198.5073 25.846874 198.5073Q24.6125 198.5073 23.89375 197.61667Q23.05 196.55417 23.05 194.1323ZM24.128124 194.1323Q24.128124 196.24167 24.628124 196.9448Q25.128124 197.64792 25.846874 197.64792Q26.58125 197.64792 27.065624 196.9448Q27.565624 196.24167 27.565624 194.1323Q27.565624 192.0073 27.065624 191.3198Q26.58125 190.61667 25.83125 190.61667Q25.1125 190.61667 24.675 191.22604Q24.128124 192.0073 24.128124 194.1323ZM30.64375 198.36667L30.64375 197.16354L31.846874 197.16354L31.846874 198.36667L30.64375 198.36667ZM38.596874 197.35104L38.596874 198.36667L32.909374 198.36667Q32.909374 197.99167 33.034374 197.6323Q33.253124 197.05417 33.721874 196.49167Q34.20625 195.92917 35.1125 195.1948Q36.51875 194.03854 37.003124 193.36667Q37.503124 192.6948 37.503124 192.10104Q37.503124 191.47604 37.05 191.05417Q36.596874 190.61667 35.878124 190.61667Q35.1125 190.61667 34.659374 191.0698Q34.20625 191.52292 34.190624 192.33542L33.1125 192.22604Q33.221874 191.0073 33.940624 190.3823Q34.675 189.74167 35.909374 189.74167Q37.14375 189.74167 37.8625 190.42917Q38.58125 191.11667 38.58125 192.1323Q38.58125 192.64792 38.3625 193.14792Q38.159374 193.6323 37.659374 194.1948Q37.175 194.74167 36.05 195.6948Q35.096874 196.49167 34.815624 196.78854Q34.55 197.0698 34.378124 197.35104L38.596874 197.35104Z" fill-rule="nonzero"/><path fill="#000000" d="M23.05 141.09062Q23.05 139.55937 23.3625 138.6375Q23.675 137.7 24.284374 137.2Q24.909374 136.7 25.846874 136.7Q26.534374 136.7 27.05 136.98125Q27.58125 137.2625 27.925 137.79375Q28.26875 138.30937 28.45625 139.05937Q28.64375 139.80937 28.64375 141.09062Q28.64375 142.60625 28.33125 143.52812Q28.034374 144.45 27.409374 144.96562Q26.8 145.46562 25.846874 145.46562Q24.6125 145.46562 23.89375 144.575Q23.05 143.5125 23.05 141.09062ZM24.128124 141.09062Q24.128124 143.2 24.628124 143.90312Q25.128124 144.60625 25.846874 144.60625Q26.58125 144.60625 27.065624 143.90312Q27.565624 143.2 27.565624 141.09062Q27.565624 138.96562 27.065624 138.27812Q26.58125 137.575 25.83125 137.575Q25.1125 137.575 24.675 138.18437Q24.128124 138.96562 24.128124 141.09062ZM30.64375 145.325L30.64375 144.12187L31.846874 144.12187L31.846874 145.325L30.64375 145.325ZM33.05 143.05937L34.1125 142.91875Q34.284374 143.80937 34.721874 144.21562Q35.159374 144.60625 35.784374 144.60625Q36.534374 144.60625 37.05 144.09062Q37.565624 143.575 37.565624 142.80937Q37.565624 142.09062 37.08125 141.62187Q36.6125 141.1375 35.878124 141.1375Q35.58125 141.1375 35.128124 141.2625L35.253124 140.325Q35.3625 140.34062 35.425 140.34062Q36.096874 140.34062 36.628124 139.99687Q37.175 139.6375 37.175 138.90312Q37.175 138.325 36.784374 137.95Q36.39375 137.55937 35.76875 137.55937Q35.159374 137.55937 34.7375 137.95Q34.33125 138.34062 34.221874 139.10625L33.159374 138.91875Q33.346874 137.87187 34.034374 137.29375Q34.721874 136.7 35.7375 136.7Q36.440624 136.7 37.034374 137.0125Q37.628124 137.30937 37.940624 137.825Q38.253124 138.34062 38.253124 138.93437Q38.253124 139.48125 37.95625 139.95Q37.659374 140.40312 37.08125 140.66875Q37.83125 140.84062 38.253124 141.40312Q38.675 141.95 38.675 142.79375Q38.675 143.91875 37.846874 144.7Q37.034374 145.48125 35.784374 145.48125Q34.659374 145.48125 33.909374 144.80937Q33.159374 144.12187 33.05 143.05937Z" fill-rule="nonzero"/><path fill="#000000" d="M23.05 88.04896Q23.05 86.51771 23.3625 85.59583Q23.675 84.65833 24.284374 84.15833Q24.909374 83.65833 25.846874 83.65833Q26.534374 83.65833 27.05 83.93958Q27.58125 84.22083 27.925 84.75208Q28.26875 85.26771 28.45625 86.01771Q28.64375 86.76771 28.64375 88.04896Q28.64375 89.56458 28.33125 90.48646Q28.034374 91.40833 27.409374 91.92396Q26.8 92.42396 25.846874 92.42396Q24.6125 92.42396 23.89375 91.53333Q23.05 90.47083 23.05 88.04896ZM24.128124 88.04896Q24.128124 90.15833 24.628124 90.86146Q25.128124 91.56458 25.846874 91.56458Q26.58125 91.56458 27.065624 90.86146Q27.565624 90.15833 27.565624 88.04896Q27.565624 85.92396 27.065624 85.23646Q26.58125 84.53333 25.83125 84.53333Q25.1125 84.53333 24.675 85.14271Q24.128124 85.92396 24.128124 88.04896ZM30.64375 92.28333L30.64375 91.08021L31.846874 91.08021L31.846874 92.28333L30.64375 92.28333ZM36.425 92.28333L36.425 90.22083L32.70625 90.22083L32.70625 89.25208L36.628124 83.68958L37.4875 83.68958L37.4875 89.25208L38.64375 89.25208L38.64375 90.22083L37.4875 90.22083L37.4875 92.28333L36.425 92.28333ZM36.425 89.25208L36.425 85.39271L33.7375 89.25208L36.425 89.25208Z" fill-rule="nonzero"/><path fill="#000000" d="M118.706894 315.2L119.81627 315.10626Q119.94127 315.91876 120.37877 316.325Q120.831894 316.73126 121.47252 316.73126Q122.22252 316.73126 122.75377 316.15314Q123.28502 315.575 123.28502 314.6375Q123.28502 313.73126 122.769394 313.21564Q122.269394 312.6844 121.44127 312.6844Q120.94127 312.6844 120.519394 312.91876Q120.113144 313.15314 119.87877 313.5125L118.894394 313.3875L119.72252 308.98126L124.00377 308.98126L124.00377 309.98126L120.56627 309.98126L120.113144 312.29376Q120.87877 311.7469 121.72252 311.7469Q122.84752 311.7469 123.613144 312.52814Q124.394394 313.3094 124.394394 314.54376Q124.394394 315.7 123.72252 316.5594Q122.894394 317.59064 121.47252 317.59064Q120.300644 317.59064 119.550644 316.9344Q118.81627 316.27814 118.706894 315.2ZM129.67564 317.45L128.62877 317.45L128.62877 310.73126Q128.23814 311.09064 127.613144 311.46564Q127.00377 311.825 126.519394 311.9969L126.519394 310.98126Q127.394394 310.5594 128.05064 309.98126Q128.72252 309.3875 129.00377 308.825L129.67564 308.825L129.67564 317.45ZM138.25377 316.4344L138.25377 317.45L132.56627 317.45Q132.56627 317.075 132.69127 316.71564Q132.91002 316.1375 133.37877 315.575Q133.86314 315.0125 134.7694 314.27814Q136.17564 313.1219 136.66002 312.45Q137.16002 311.77814 137.16002 311.1844Q137.16002 310.5594 136.7069 310.1375Q136.25377 309.7 135.53502 309.7Q134.7694 309.7 134.31627 310.15314Q133.86314 310.60626 133.84752 311.41876L132.7694 311.3094Q132.87877 310.09064 133.59752 309.46564Q134.3319 308.825 135.56627 308.825Q136.80064 308.825 137.5194 309.5125Q138.23814 310.2 138.23814 311.21564Q138.23814 311.73126 138.0194 312.23126Q137.81627 312.71564 137.31627 313.27814Q136.8319 313.825 135.7069 314.77814Q134.75377 315.575 134.47252 315.8719Q134.2069 316.15314 134.03502 316.4344L138.25377 316.4344Z" fill-rule="nonzero"/><path fill="#000000" d="M242.37105 317.45L241.32417 317.45L241.32417 310.73126Q240.93355 311.09064 240.30855 311.46564Q239.69917 311.825 239.2148 311.9969L239.2148 310.98126Q240.0898 310.5594 240.74605 309.98126Q241.41792 309.3875 241.69917 308.825L242.37105 308.825L242.37105 317.45ZM245.4023 313.21564Q245.4023 311.6844 245.7148 310.7625Q246.0273 309.825 246.63667 309.325Q247.26167 308.825 248.19917 308.825Q248.88667 308.825 249.4023 309.10626Q249.93355 309.3875 250.2773 309.91876Q250.62105 310.4344 250.80855 311.1844Q250.99605 311.9344 250.99605 313.21564Q250.99605 314.73126 250.68355 315.65314Q250.38667 316.575 249.76167 317.09064Q249.1523 317.59064 248.19917 317.59064Q246.9648 317.59064 246.24605 316.7Q245.4023 315.6375 245.4023 313.21564ZM246.48042 313.21564Q246.48042 315.325 246.98042 316.02814Q247.48042 316.73126 248.19917 316.73126Q248.93355 316.73126 249.41792 316.02814Q249.91792 315.325 249.91792 313.21564Q249.91792 311.09064 249.41792 310.40314Q248.93355 309.7 248.18355 309.7Q247.4648 309.7 247.0273 310.3094Q246.48042 311.09064 246.48042 313.21564ZM257.94916 316.4344L257.94916 317.45L252.26167 317.45Q252.26167 317.075 252.38667 316.71564Q252.60542 316.1375 253.07417 315.575Q253.55855 315.0125 254.4648 314.27814Q255.87105 313.1219 256.3554 312.45Q256.8554 311.77814 256.8554 311.1844Q256.8554 310.5594 256.40228 310.1375Q255.94917 309.7 255.23042 309.7Q254.4648 309.7 254.01167 310.15314Q253.55855 310.60626 253.54292 311.41876L252.4648 311.3094Q252.57417 310.09064 253.29292 309.46564Q254.0273 308.825 255.26167 308.825Q256.49603 308.825 257.21478 309.5125Q257.93353 310.2 257.93353 311.21564Q257.93353 311.73126 257.71478 312.23126Q257.51166 312.71564 257.01166 313.27814Q256.52728 313.825 255.4023 314.77814Q254.44917 315.575 254.16792 315.8719Q253.9023 316.15314 253.73042 316.4344L257.94916 316.4344ZM262.77728 317.45L262.77728 315.3875L259.05853 315.3875L259.05853 314.41876L262.9804 308.85626L263.83978 308.85626L263.83978 314.41876L264.99603 314.41876L264.99603 315.3875L263.83978 315.3875L263.83978 317.45L262.77728 317.45ZM262.77728 314.41876L262.77728 310.5594L260.08978 314.41876L262.77728 314.41876Z" fill-rule="nonzero"/><path fill="#000000" d="M367.14456 316.4344L367.14456 317.45L361.45706 317.45Q361.45706 317.075 361.58206 316.71564Q361.8008 316.1375 362.26956 315.575Q362.75394 315.0125 363.6602 314.27814Q365.06644 313.1219 365.5508 312.45Q366.0508 311.77814 366.0508 311.1844Q366.0508 310.5594 365.5977 310.1375Q365.14456 309.7 364.4258 309.7Q363.6602 309.7 363.20706 310.15314Q362.75394 310.60626 362.7383 311.41876L361.6602 311.3094Q361.76956 310.09064 362.4883 309.46564Q363.2227 308.825 364.45706 308.825Q365.69144 308.825 366.4102 309.5125Q367.12894 310.2 367.12894 311.21564Q367.12894 311.73126 366.9102 312.23126Q366.70706 312.71564 366.20706 313.27814Q365.7227 313.825 364.5977 314.77814Q363.64456 315.575 363.3633 315.8719Q363.0977 316.15314 362.9258 316.4344L367.14456 316.4344ZM368.5977 313.21564Q368.5977 311.6844 368.9102 310.7625Q369.2227 309.825 369.83206 309.325Q370.45706 308.825 371.39456 308.825Q372.08206 308.825 372.5977 309.10626Q373.12894 309.3875 373.4727 309.91876Q373.81644 310.4344 374.00394 311.1844Q374.19144 311.9344 374.19144 313.21564Q374.19144 314.73126 373.87894 315.65314Q373.58206 316.575 372.95706 317.09064Q372.3477 317.59064 371.39456 317.59064Q370.1602 317.59064 369.44144 316.7Q368.5977 315.6375 368.5977 313.21564ZM369.6758 313.21564Q369.6758 315.325 370.1758 316.02814Q370.6758 316.73126 371.39456 316.73126Q372.12894 316.73126 372.6133 316.02814Q373.1133 315.325 373.1133 313.21564Q373.1133 311.09064 372.6133 310.40314Q372.12894 309.7 371.37894 309.7Q370.6602 309.7 370.2227 310.3094Q369.6758 311.09064 369.6758 313.21564ZM378.9727 317.45L378.9727 315.3875L375.25394 315.3875L375.25394 314.41876L379.1758 308.85626L380.0352 308.85626L380.0352 314.41876L381.19144 314.41876L381.19144 315.3875L380.0352 315.3875L380.0352 317.45L378.9727 317.45ZM378.9727 314.41876L378.9727 310.5594L376.2852 314.41876L378.9727 314.41876ZM384.2227 312.79376Q383.56644 312.54376 383.2383 312.10626Q382.9258 311.65314 382.9258 311.04376Q382.9258 310.10626 383.5977 309.46564Q384.2852 308.825 385.39456 308.825Q386.51956 308.825 387.20706 309.48126Q387.89456 310.1375 387.89456 311.075Q387.89456 311.66876 387.58206 312.10626Q387.26956 312.54376 386.62894 312.79376Q387.4258 313.04376 387.83206 313.6219Q388.2383 314.2 388.2383 314.9969Q388.2383 316.09064 387.45706 316.84064Q386.69144 317.59064 385.4102 317.59064Q384.14456 317.59064 383.3633 316.84064Q382.58206 316.09064 382.58206 314.96564Q382.58206 314.1219 383.00394 313.5594Q383.44144 312.9969 384.2227 312.79376ZM384.00394 310.9969Q384.00394 311.60626 384.39456 311.9969Q384.8008 312.3875 385.4258 312.3875Q386.0352 312.3875 386.4258 312.0125Q386.81644 311.6219 386.81644 311.0594Q386.81644 310.48126 386.4102 310.09064Q386.00394 309.6844 385.4102 309.6844Q384.8008 309.6844 384.39456 310.075Q384.00394 310.46564 384.00394 310.9969ZM383.6758 314.96564Q383.6758 315.41876 383.87894 315.84064Q384.0977 316.2625 384.51956 316.4969Q384.94144 316.73126 385.4258 316.73126Q386.1758 316.73126 386.6602 316.2469Q387.1602 315.7625 387.1602 315.0125Q387.1602 314.2469 386.6602 313.7469Q386.1602 313.2469 385.39456 313.2469Q384.64456 313.2469 384.1602 313.7469Q383.6758 314.23126 383.6758 314.96564Z" fill-rule="nonzero"/><path fill="#000000" d="M488.1681 317.45L488.1681 315.3875L484.44934 315.3875L484.44934 314.41876L488.37122 308.85626L489.2306 308.85626L489.2306 314.41876L490.38684 314.41876L490.38684 315.3875L489.2306 315.3875L489.2306 317.45L488.1681 317.45ZM488.1681 314.41876L488.1681 310.5594L485.4806 314.41876L488.1681 314.41876ZM491.7931 313.21564Q491.7931 311.6844 492.1056 310.7625Q492.4181 309.825 493.02747 309.325Q493.65247 308.825 494.58997 308.825Q495.27747 308.825 495.7931 309.10626Q496.32434 309.3875 496.6681 309.91876Q497.01184 310.4344 497.19934 311.1844Q497.38684 311.9344 497.38684 313.21564Q497.38684 314.73126 497.07434 315.65314Q496.77747 316.575 496.15247 317.09064Q495.5431 317.59064 494.58997 317.59064Q493.3556 317.59064 492.63684 316.7Q491.7931 315.6375 491.7931 313.21564ZM492.87122 313.21564Q492.87122 315.325 493.37122 316.02814Q493.87122 316.73126 494.58997 316.73126Q495.32434 316.73126 495.80872 316.02814Q496.30872 315.325 496.30872 313.21564Q496.30872 311.09064 495.80872 310.40314Q495.32434 309.7 494.57434 309.7Q493.8556 309.7 493.4181 310.3094Q492.87122 311.09064 492.87122 313.21564ZM498.94934 315.46564L499.96497 315.3719Q500.08997 316.09064 500.44934 316.41876Q500.82434 316.73126 501.38684 316.73126Q501.87122 316.73126 502.2306 316.5125Q502.6056 316.27814 502.83997 315.91876Q503.07434 315.54376 503.2306 314.91876Q503.38684 314.27814 503.38684 313.6219Q503.38684 313.54376 503.38684 313.40314Q503.07434 313.90314 502.52747 314.23126Q501.9806 314.54376 501.33997 314.54376Q500.26184 314.54376 499.52747 313.77814Q498.7931 312.9969 498.7931 311.73126Q498.7931 310.41876 499.55872 309.6219Q500.33997 308.825 501.49622 308.825Q502.32434 308.825 503.01184 309.27814Q503.71497 309.73126 504.07434 310.575Q504.43372 311.40314 504.43372 312.98126Q504.43372 314.6219 504.07434 315.60626Q503.7306 316.575 503.01184 317.09064Q502.30872 317.59064 501.37122 317.59064Q500.3556 317.59064 499.71497 317.04376Q499.07434 316.48126 498.94934 315.46564ZM503.26184 311.66876Q503.26184 310.7625 502.77747 310.23126Q502.30872 309.7 501.62122 309.7Q500.9181 309.7 500.38684 310.27814Q499.87122 310.84064 499.87122 311.7625Q499.87122 312.575 500.37122 313.09064Q500.87122 313.60626 501.58997 313.60626Q502.32434 313.60626 502.7931 313.09064Q503.26184 312.575 503.26184 311.66876ZM511.26184 310.96564L510.21497 311.04376Q510.07434 310.41876 509.82434 310.1375Q509.38684 309.6844 508.76184 309.6844Q508.26184 309.6844 507.87122 309.96564Q507.38684 310.34064 507.08997 311.04376Q506.80872 311.73126 506.7931 313.0125Q507.1681 312.4344 507.71497 312.15314Q508.27747 311.8719 508.88684 311.8719Q509.93372 311.8719 510.6681 312.65314Q511.4181 313.4344 511.4181 314.65314Q511.4181 315.46564 511.05872 316.16876Q510.71497 316.85626 510.1056 317.23126Q509.49622 317.59064 508.7306 317.59064Q507.40247 317.59064 506.57434 316.6219Q505.74622 315.65314 505.74622 313.4344Q505.74622 310.9344 506.6681 309.8094Q507.46497 308.825 508.82434 308.825Q509.83997 308.825 510.4806 309.40314Q511.13684 309.96564 511.26184 310.96564ZM506.96497 314.66876Q506.96497 315.21564 507.18372 315.71564Q507.4181 316.2 507.82434 316.46564Q508.24622 316.73126 508.71497 316.73126Q509.37122 316.73126 509.8556 316.2Q510.33997 315.65314 510.33997 314.73126Q510.33997 313.84064 509.8556 313.325Q509.38684 312.8094 508.6681 312.8094Q507.94934 312.8094 507.44934 313.325Q506.96497 313.84064 506.96497 314.66876Z" fill-rule="nonzero"/><path fill="#4285f4" d="M195.5 56.916668C195.5 56.364384 195.94771 55.916668 196.5 55.916668L206.5 55.916668C207.05229 55.916668 207.5 56.364384 207.5 56.916668L207.5 66.916664C207.5 67.46895 207.05229 67.916664 206.5 67.916664L196.5 67.916664C195.94771 67.916664 195.5 67.46895 195.5 66.916664Z" fill-rule="nonzero"/><path fill="#1a1a1a" d="M218.60938 65.916664L218.60938 58.33854L215.78125 58.33854L215.78125 57.322914L222.59375 57.322914L222.59375 58.33854L219.75 58.33854L219.75 65.916664L218.60938 65.916664ZM223.29688 58.541664L223.29688 57.322914L224.35938 57.322914L224.35938 58.541664L223.29688 58.541664ZM223.29688 65.916664L223.29688 59.697914L224.35938 59.697914L224.35938 65.916664L223.29688 65.916664ZM226.26562 65.916664L226.26562 57.322914L227.32812 57.322914L227.32812 65.916664L226.26562 65.916664ZM229.29688 58.541664L229.29688 57.322914L230.35938 57.322914L230.35938 58.541664L229.29688 58.541664ZM229.29688 65.916664L229.29688 59.697914L230.35938 59.697914L230.35938 65.916664L229.29688 65.916664ZM232.29688 65.916664L232.29688 59.697914L233.23438 59.697914L233.23438 60.572914Q233.92188 59.55729 235.21875 59.55729Q235.78125 59.55729 236.25 59.760414Q236.73438 59.96354 236.96875 60.291664Q237.20312 60.61979 237.29688 61.05729Q237.34375 61.354164 237.34375 62.08854L237.34375 65.916664L236.29688 65.916664L236.29688 62.135414Q236.29688 61.479164 236.17188 61.166664Q236.04688 60.854164 235.73438 60.666664Q235.42188 60.46354 235.0 60.46354Q234.32812 60.46354 233.82812 60.90104Q233.34375 61.322914 233.34375 62.510414L233.34375 65.916664L232.29688 65.916664ZM239.09375 66.43229L240.125 66.58854Q240.1875 67.05729 240.48438 67.27604Q240.875 67.572914 241.54688 67.572914Q242.28125 67.572914 242.67188 67.27604Q243.07812 66.979164 243.21875 66.46354Q243.3125 66.135414 243.29688 65.104164Q242.60938 65.916664 241.57812 65.916664Q240.29688 65.916664 239.59375 64.99479Q238.89062 64.05729 238.89062 62.77604Q238.89062 61.885414 239.20312 61.135414Q239.53125 60.36979 240.14062 59.96354Q240.75 59.55729 241.57812 59.55729Q242.6875 59.55729 243.40625 60.447914L243.40625 59.697914L244.375 59.697914L244.375 65.072914Q244.375 66.52604 244.07812 67.135414Q243.78125 67.74479 243.14062 68.08854Q242.5 68.447914 241.5625 68.447914Q240.45312 68.447914 239.76562 67.947914Q239.07812 67.447914 239.09375 66.43229ZM239.96875 62.697914Q239.96875 63.916664 240.45312 64.479164Q240.9375 65.041664 241.67188 65.041664Q242.40625 65.041664 242.89062 64.479164Q243.39062 63.916664 243.39062 62.729164Q243.39062 61.58854 242.875 61.010414Q242.375 60.43229 241.65625 60.43229Q240.95312 60.43229 240.45312 61.010414Q239.96875 61.572914 239.96875 62.697914Z" fill-rule="nonzero"/><path fill="#ea4335" d="M261.5 56.916668C261.5 56.364384 261.94772 55.916668 262.5 55.916668L272.5 55.916668C273.05228 55.916668 273.5 56.364384 273.5 56.916668L273.5 66.916664C273.5 67.46895 273.05228 67.916664 272.5 67.916664L262.5 67.916664C261.94772 67.916664 261.5 67.46895 261.5 66.916664Z" fill-rule="nonzero"/><path fill="#1a1a1a" d="M282.4375 65.916664L282.4375 57.322914L286.25 57.322914Q287.40625 57.322914 288.0 57.55729Q288.59375 57.791664 288.95312 58.385414Q289.3125 58.96354 289.3125 59.666664Q289.3125 60.58854 288.71875 61.21354Q288.125 61.83854 286.89062 62.010414Q287.34375 62.229164 287.57812 62.43229Q288.07812 62.885414 288.51562 63.572914L290.01562 65.916664L288.57812 65.916664L287.45312 64.135414Q286.95312 63.354164 286.625 62.947914Q286.3125 62.541664 286.04688 62.385414Q285.79688 62.21354 285.53125 62.135414Q285.34375 62.104164 284.90625 62.104164L283.57812 62.104164L283.57812 65.916664L282.4375 65.916664ZM283.57812 61.11979L286.03125 61.11979Q286.79688 61.11979 287.23438 60.96354Q287.6875 60.791664 287.90625 60.447914Q288.14062 60.08854 288.14062 59.666664Q288.14062 59.05729 287.6875 58.666664Q287.25 58.27604 286.29688 58.27604L283.57812 58.27604L283.57812 61.11979ZM295.54688 63.916664L296.64062 64.041664Q296.39062 64.99479 295.6875 65.52604Q294.98438 66.05729 293.90625 66.05729Q292.54688 66.05729 291.73438 65.21354Q290.9375 64.36979 290.9375 62.854164Q290.9375 61.291664 291.75 60.43229Q292.5625 59.55729 293.84375 59.55729Q295.09375 59.55729 295.875 60.40104Q296.67188 61.24479 296.67188 62.791664Q296.67188 62.885414 296.67188 63.072914L292.03125 63.072914Q292.09375 64.104164 292.60938 64.65104Q293.125 65.18229 293.90625 65.18229Q294.48438 65.18229 294.89062 64.885414Q295.3125 64.572914 295.54688 63.916664ZM292.09375 62.21354L295.5625 62.21354Q295.5 61.416664 295.17188 61.02604Q294.65625 60.416664 293.85938 60.416664Q293.125 60.416664 292.625 60.90104Q292.14062 61.385414 292.09375 62.21354ZM297.90625 62.80729Q297.90625 61.072914 298.85938 60.24479Q299.65625 59.55729 300.8125 59.55729Q302.09375 59.55729 302.90625 60.40104Q303.73438 61.229164 303.73438 62.71354Q303.73438 63.916664 303.375 64.604164Q303.01562 65.291664 302.3125 65.68229Q301.625 66.05729 300.8125 66.05729Q299.51562 66.05729 298.70312 65.229164Q297.90625 64.385414 297.90625 62.80729ZM298.98438 62.80729Q298.98438 63.99479 299.5 64.58854Q300.03125 65.18229 300.8125 65.18229Q301.60938 65.18229 302.125 64.58854Q302.64062 63.99479 302.64062 62.77604Q302.64062 61.61979 302.10938 61.02604Q301.59375 60.43229 300.8125 60.43229Q300.03125 60.43229 299.5 61.02604Q298.98438 61.604164 298.98438 62.80729ZM305.28125 65.916664L305.28125 59.697914L306.23438 59.697914L306.23438 60.635414Q306.59375 59.979164 306.89062 59.77604Q307.20312 59.55729 307.57812 59.55729Q308.10938 59.55729 308.65625 59.885414L308.29688 60.86979Q307.90625 60.635414 307.53125 60.635414Q307.17188 60.635414 306.89062 60.854164Q306.625 61.05729 306.51562 61.43229Q306.32812 61.99479 306.32812 62.65104L306.32812 65.916664L305.28125 65.916664ZM313.32812 65.916664L313.32812 65.135414Q312.73438 66.05729 311.59375 66.05729Q310.84375 66.05729 310.21875 65.65104Q309.59375 65.229164 309.25 64.49479Q308.90625 63.760414 308.90625 62.80729Q308.90625 61.885414 309.21875 61.11979Q309.53125 60.354164 310.15625 59.96354Q310.78125 59.55729 311.54688 59.55729Q312.10938 59.55729 312.54688 59.791664Q312.98438 60.02604 313.26562 60.40104L313.26562 57.322914L314.3125 57.322914L314.3125 65.916664L313.32812 65.916664ZM310.0 62.80729Q310.0 64.010414 310.5 64.604164Q311.0 65.18229 311.6875 65.18229Q312.375 65.18229 312.85938 64.61979Q313.34375 64.05729 313.34375 62.90104Q313.34375 61.61979 312.84375 61.02604Q312.35938 60.43229 311.64062 60.43229Q310.9375 60.43229 310.46875 61.010414Q310.0 61.572914 310.0 62.80729ZM320.54688 63.916664L321.64062 64.041664Q321.39062 64.99479 320.6875 65.52604Q319.98438 66.05729 318.90625 66.05729Q317.54688 66.05729 316.73438 65.21354Q315.9375 64.36979 315.9375 62.854164Q315.9375 61.291664 316.75 60.43229Q317.5625 59.55729 318.84375 59.55729Q320.09375 59.55729 320.875 60.40104Q321.67188 61.24479 321.67188 62.791664Q321.67188 62.885414 321.67188 63.072914L317.03125 63.072914Q317.09375 64.104164 317.60938 64.65104Q318.125 65.18229 318.90625 65.18229Q319.48438 65.18229 319.89062 64.885414Q320.3125 64.572914 320.54688 63.916664ZM317.09375 62.21354L320.5625 62.21354Q320.5 61.416664 320.17188 61.02604Q319.65625 60.416664 318.85938 60.416664Q318.125 60.416664 317.625 60.90104Q317.14062 61.385414 317.09375 62.21354ZM323.28125 65.916664L323.28125 59.697914L324.23438 59.697914L324.23438 60.635414Q324.59375 59.979164 324.89062 59.77604Q325.20312 59.55729 325.57812 59.55729Q326.10938 59.55729 326.65625 59.885414L326.29688 60.86979Q325.90625 60.635414 325.53125 60.635414Q325.17188 60.635414 324.89062 60.854164Q324.625 61.05729 324.51562 61.43229Q324.32812 61.99479 324.32812 62.65104L324.32812 65.916664L323.28125 65.916664ZM327.29688 58.541664L327.29688 57.322914L328.35938 57.322914L328.35938 58.541664L327.29688 58.541664ZM327.29688 65.916664L327.29688 59.697914L328.35938 59.697914L328.35938 65.916664L327.29688 65.916664ZM330.29688 65.916664L330.29688 59.697914L331.23438 59.697914L331.23438 60.572914Q331.92188 59.55729 333.21875 59.55729Q333.78125 59.55729 334.25 59.760414Q334.73438 59.96354 334.96875 60.291664Q335.20312 60.61979 335.29688 61.05729Q335.34375 61.354164 335.34375 62.08854L335.34375 65.916664L334.29688 65.916664L334.29688 62.135414Q334.29688 61.479164 334.17188 61.166664Q334.04688 60.854164 333.73438 60.666664Q333.42188 60.46354 333.0 60.46354Q332.32812 60.46354 331.82812 60.90104Q331.34375 61.322914 331.34375 62.510414L331.34375 65.916664L330.29688 65.916664ZM337.09375 66.43229L338.125 66.58854Q338.1875 67.05729 338.48438 67.27604Q338.875 67.572914 339.54688 67.572914Q340.28125 67.572914 340.67188 67.27604Q341.07812 66.979164 341.21875 66.46354Q341.3125 66.135414 341.29688 65.104164Q340.60938 65.916664 339.57812 65.916664Q338.29688 65.916664 337.59375 64.99479Q336.89062 64.05729 336.89062 62.77604Q336.89062 61.885414 337.20312 61.135414Q337.53125 60.36979 338.14062 59.96354Q338.75 59.55729 339.57812 59.55729Q340.6875 59.55729 341.40625 60.447914L341.40625 59.697914L342.375 59.697914L342.375 65.072914Q342.375 66.52604 342.07812 67.135414Q341.78125 67.74479 341.14062 68.08854Q340.5 68.447914 339.5625 68.447914Q338.45312 68.447914 337.76562 67.947914Q337.07812 67.447914 337.09375 66.43229ZM337.96875 62.697914Q337.96875 63.916664 338.45312 64.479164Q338.9375 65.041664 339.67188 65.041664Q340.40625 65.041664 340.89062 64.479164Q341.39062 63.916664 341.39062 62.729164Q341.39062 61.58854 340.875 61.010414Q340.375 60.43229 339.65625 60.43229Q338.95312 60.43229 338.45312 61.010414Q337.96875 61.572914 337.96875 62.697914ZM349.5 64.52604L349.5 62.166664L347.17188 62.166664L347.17188 61.18229L349.5 61.18229L349.5 58.854164L350.5 58.854164L350.5 61.18229L352.84375 61.18229L352.84375 62.166664L350.5 62.166664L350.5 64.52604L349.5 64.52604ZM361.375 65.916664L361.375 64.99479Q360.64062 66.05729 359.39062 66.05729Q358.84375 66.05729 358.35938 65.854164Q357.89062 65.635414 357.65625 65.322914Q357.42188 64.99479 357.32812 64.52604Q357.26562 64.229164 357.26562 63.541664L357.26562 59.697914L358.32812 59.697914L358.32812 63.15104Q358.32812 63.96354 358.39062 64.260414Q358.48438 64.666664 358.79688 64.916664Q359.125 65.15104 359.60938 65.15104Q360.07812 65.15104 360.48438 64.916664Q360.90625 64.666664 361.07812 64.24479Q361.26562 63.822914 361.26562 63.02604L361.26562 59.697914L362.3125 59.697914L362.3125 65.916664L361.375 65.916664ZM364.29688 65.916664L364.29688 59.697914L365.23438 59.697914L365.23438 60.572914Q365.92188 59.55729 367.21875 59.55729Q367.78125 59.55729 368.25 59.760414Q368.73438 59.96354 368.96875 60.291664Q369.20312 60.61979 369.29688 61.05729Q369.34375 61.354164 369.34375 62.08854L369.34375 65.916664L368.29688 65.916664L368.29688 62.135414Q368.29688 61.479164 368.17188 61.166664Q368.04688 60.854164 367.73438 60.666664Q367.42188 60.46354 367.0 60.46354Q366.32812 60.46354 365.82812 60.90104Q365.34375 61.322914 365.34375 62.510414L365.34375 65.916664L364.29688 65.916664ZM371.28125 65.916664L371.28125 59.697914L372.23438 59.697914L372.23438 60.635414Q372.59375 59.979164 372.89062 59.77604Q373.20312 59.55729 373.57812 59.55729Q374.10938 59.55729 374.65625 59.885414L374.29688 60.86979Q373.90625 60.635414 373.53125 60.635414Q373.17188 60.635414 372.89062 60.854164Q372.625 61.05729 372.51562 61.43229Q372.32812 61.99479 372.32812 62.65104L372.32812 65.916664L371.28125 65.916664ZM374.90625 62.80729Q374.90625 61.072914 375.85938 60.24479Q376.65625 59.55729 377.8125 59.55729Q379.09375 59.55729 379.90625 60.40104Q380.73438 61.229164 380.73438 62.71354Q380.73438 63.916664 380.375 64.604164Q380.01562 65.291664 379.3125 65.68229Q378.625 66.05729 377.8125 66.05729Q376.51562 66.05729 375.70312 65.229164Q374.90625 64.385414 374.90625 62.80729ZM375.98438 62.80729Q375.98438 63.99479 376.5 64.58854Q377.03125 65.18229 377.8125 65.18229Q378.60938 65.18229 379.125 64.58854Q379.64062 63.99479 379.64062 62.77604Q379.64062 61.61979 379.10938 61.02604Q378.59375 60.43229 377.8125 60.43229Q377.03125 60.43229 376.5 61.02604Q375.98438 61.604164 375.98438 62.80729ZM382.26562 65.916664L382.26562 57.322914L383.32812 57.322914L383.32812 65.916664L382.26562 65.916664ZM385.26562 65.916664L385.26562 57.322914L386.32812 57.322914L386.32812 65.916664L385.26562 65.916664ZM388.29688 58.541664L388.29688 57.322914L389.35938 57.322914L389.35938 58.541664L388.29688 58.541664ZM388.29688 65.916664L388.29688 59.697914L389.35938 59.697914L389.35938 65.916664L388.29688 65.916664ZM391.29688 65.916664L391.29688 59.697914L392.23438 59.697914L392.23438 60.572914Q392.92188 59.55729 394.21875 59.55729Q394.78125 59.55729 395.25 59.760414Q395.73438 59.96354 395.96875 60.291664Q396.20312 60.61979 396.29688 61.05729Q396.34375 61.354164 396.34375 62.08854L396.34375 65.916664L395.29688 65.916664L395.29688 62.135414Q395.29688 61.479164 395.17188 61.166664Q395.04688 60.854164 394.73438 60.666664Q394.42188 60.46354 394.0 60.46354Q393.32812 60.46354 392.82812 60.90104Q392.34375 61.322914 392.34375 62.510414L392.34375 65.916664L391.29688 65.916664ZM398.09375 66.43229L399.125 66.58854Q399.1875 67.05729 399.48438 67.27604Q399.875 67.572914 400.54688 67.572914Q401.28125 67.572914 401.67188 67.27604Q402.07812 66.979164 402.21875 66.46354Q402.3125 66.135414 402.29688 65.104164Q401.60938 65.916664 400.57812 65.916664Q399.29688 65.916664 398.59375 64.99479Q397.89062 64.05729 397.89062 62.77604Q397.89062 61.885414 398.20312 61.135414Q398.53125 60.36979 399.14062 59.96354Q399.75 59.55729 400.57812 59.55729Q401.6875 59.55729 402.40625 60.447914L402.40625 59.697914L403.375 59.697914L403.375 65.072914Q403.375 66.52604 403.07812 67.135414Q402.78125 67.74479 402.14062 68.08854Q401.5 68.447914 400.5625 68.447914Q399.45312 68.447914 398.76562 67.947914Q398.07812 67.447914 398.09375 66.43229ZM398.96875 62.697914Q398.96875 63.916664 399.45312 64.479164Q399.9375 65.041664 400.67188 65.041664Q401.40625 65.041664 401.89062 64.479164Q402.39062 63.916664 402.39062 62.729164Q402.39062 61.58854 401.875 61.010414Q401.375 60.43229 400.65625 60.43229Q399.95312 60.43229 399.45312 61.010414Q398.96875 61.572914 398.96875 62.697914Z" fill-rule="nonzero"/><path fill="#757575" d="M23.7375 37.55L23.7375 24.925L19.01875 24.925L19.01875 23.2375L30.3625 23.2375L30.3625 24.925L25.628124 24.925L25.628124 37.55L23.7375 37.55ZM31.878124 25.253124L31.878124 23.2375L33.64375 23.2375L33.64375 25.253124L31.878124 25.253124ZM31.878124 37.55L31.878124 27.175L33.64375 27.175L33.64375 37.55L31.878124 37.55ZM35.83125 37.55L35.83125 23.2375L37.58125 23.2375L37.58125 37.55L35.83125 37.55ZM39.878124 25.253124L39.878124 23.2375L41.64375 23.2375L41.64375 25.253124L39.878124 25.253124ZM39.878124 37.55L39.878124 27.175L41.64375 27.175L41.64375 37.55L39.878124 37.55ZM43.8625 37.55L43.8625 27.175L45.45625 27.175L45.45625 28.659374Q46.596874 26.940624 48.753124 26.940624Q49.690624 26.940624 50.471874 27.284374Q51.26875 27.6125 51.659374 28.159374Q52.05 28.70625 52.20625 29.45625Q52.3 29.95625 52.3 31.175L52.3 37.55L50.534374 37.55L50.534374 31.2375Q50.534374 30.159374 50.33125 29.628124Q50.128124 29.096874 49.596874 28.784374Q49.08125 28.471874 48.378124 28.471874Q47.253124 28.471874 46.440624 29.190624Q45.628124 29.89375 45.628124 31.878124L45.628124 37.55L43.8625 37.55ZM53.55 38.409374L55.253124 38.659374Q55.3625 39.45625 55.846874 39.815624Q56.503124 40.3 57.64375 40.3Q58.8625 40.3 59.51875 39.815624Q60.190624 39.33125 60.425 38.45625Q60.565624 37.909374 60.55 36.190624Q59.39375 37.55 57.675 37.55Q55.534374 37.55 54.3625 36.003124Q53.190624 34.45625 53.190624 32.3Q53.190624 30.815624 53.721874 29.565624Q54.26875 28.315624 55.284374 27.628124Q56.315624 26.940624 57.690624 26.940624Q59.51875 26.940624 60.721874 28.425L60.721874 27.175L62.33125 27.175L62.33125 36.14375Q62.33125 38.565624 61.83125 39.565624Q61.346874 40.58125 60.26875 41.159374Q59.20625 41.753124 57.64375 41.753124Q55.8 41.753124 54.64375 40.925Q53.503124 40.096874 53.55 38.409374ZM55.003124 32.175Q55.003124 34.221874 55.815624 35.159374Q56.628124 36.096874 57.846874 36.096874Q59.05 36.096874 59.8625 35.159374Q60.690624 34.221874 60.690624 32.2375Q60.690624 30.33125 59.846874 29.3625Q59.003124 28.39375 57.815624 28.39375Q56.64375 28.39375 55.815624 29.346874Q55.003124 30.3 55.003124 32.175ZM73.75313 37.55L69.8 27.175L71.65938 27.175L73.89375 33.39375Q74.25313 34.39375 74.55 35.471874Q74.78438 34.659374 75.20625 33.503124L77.50313 27.175L79.31563 27.175L75.39375 37.55L73.75313 37.55ZM79.15938 34.45625L80.90938 34.175Q81.05 35.221874 81.72188 35.784374Q82.39375 36.33125 83.59688 36.33125Q84.8 36.33125 85.37813 35.846874Q85.97188 35.346874 85.97188 34.690624Q85.97188 34.096874 85.45625 33.753124Q85.09688 33.51875 83.65938 33.159374Q81.72188 32.659374 80.97188 32.315624Q80.2375 31.95625 79.84688 31.33125Q79.45625 30.690624 79.45625 29.925Q79.45625 29.2375 79.76875 28.64375Q80.09688 28.05 80.64375 27.659374Q81.05 27.3625 81.75313 27.159374Q82.47188 26.940624 83.28438 26.940624Q84.50313 26.940624 85.425 27.3Q86.34688 27.64375 86.78438 28.253124Q87.22188 28.846874 87.39375 29.846874L85.675 30.08125Q85.55 29.284374 84.9875 28.846874Q84.425 28.39375 83.40938 28.39375Q82.19063 28.39375 81.675 28.8Q81.15938 29.190624 81.15938 29.721874Q81.15938 30.065624 81.37813 30.346874Q81.58125 30.628124 82.05 30.815624Q82.31563 30.909374 83.59688 31.253124Q85.47188 31.753124 86.20625 32.08125Q86.94063 32.39375 87.3625 33.003124Q87.78438 33.596874 87.78438 34.503124Q87.78438 35.378124 87.26875 36.159374Q86.75313 36.940624 85.78438 37.3625Q84.81563 37.784374 83.59688 37.784374Q81.58125 37.784374 80.51875 36.940624Q79.45625 36.096874 79.15938 34.45625ZM96.12813 37.55L96.12813 23.2375L102.47188 23.2375Q104.37813 23.2375 105.37813 23.628124Q106.37813 24.003124 106.97188 24.9875Q107.56563 25.95625 107.56563 27.14375Q107.56563 28.659374 106.58125 29.70625Q105.59688 30.753124 103.53438 31.034374Q104.28438 31.39375 104.675 31.753124Q105.50313 32.503124 106.25313 33.659374L108.7375 37.55L106.3625 37.55L104.45625 34.565624Q103.62813 33.284374 103.09688 32.596874Q102.56563 31.909374 102.12813 31.64375Q101.70625 31.3625 101.26875 31.253124Q100.94063 31.190624 100.22188 31.190624L98.01875 31.190624L98.01875 37.55L96.12813 37.55ZM98.01875 29.55L102.09688 29.55Q103.39375 29.55 104.1125 29.284374Q104.84688 29.01875 105.22188 28.425Q105.6125 27.83125 105.6125 27.14375Q105.6125 26.128124 104.87813 25.471874Q104.14375 24.815624 102.55 24.815624L98.01875 24.815624L98.01875 29.55ZM116.97188 34.20625L118.78438 34.440624Q118.3625 36.01875 117.19063 36.909374Q116.03438 37.784374 114.22188 37.784374Q111.95625 37.784374 110.6125 36.39375Q109.28438 34.9875 109.28438 32.45625Q109.28438 29.83125 110.62813 28.39375Q111.97188 26.940624 114.12813 26.940624Q116.20625 26.940624 117.51875 28.3625Q118.84688 29.76875 118.84688 32.346874Q118.84688 32.503124 118.83125 32.815624L111.09688 32.815624Q111.19063 34.51875 112.06563 35.425Q112.94063 36.33125 114.2375 36.33125Q115.20625 36.33125 115.87813 35.83125Q116.56563 35.315624 116.97188 34.20625ZM111.19063 31.3625L116.9875 31.3625Q116.87813 30.065624 116.33125 29.409374Q115.4875 28.39375 114.14375 28.39375Q112.94063 28.39375 112.1125 29.20625Q111.28438 30.003124 111.19063 31.3625ZM120.22188 32.3625Q120.22188 29.4875 121.81563 28.096874Q123.15938 26.940624 125.08125 26.940624Q127.22188 26.940624 128.56563 28.346874Q129.925 29.753124 129.925 32.221874Q129.925 34.221874 129.33125 35.378124Q128.7375 36.51875 127.58125 37.159374Q126.44063 37.784374 125.08125 37.784374Q122.89375 37.784374 121.55 36.39375Q120.22188 34.9875 120.22188 32.3625ZM122.01875 32.3625Q122.01875 34.3625 122.87813 35.346874Q123.75313 36.33125 125.08125 36.33125Q126.39375 36.33125 127.25313 35.346874Q128.12813 34.346874 128.12813 32.3Q128.12813 30.378124 127.25313 29.39375Q126.37813 28.39375 125.08125 28.39375Q123.75313 28.39375 122.87813 29.39375Q122.01875 30.378124 122.01875 32.3625ZM131.84688 37.55L131.84688 27.175L133.425 27.175L133.425 28.753124Q134.03438 27.64375 134.55 27.3Q135.06563 26.940624 135.675 26.940624Q136.56563 26.940624 137.4875 27.503124L136.87813 29.14375Q136.2375 28.753124 135.59688 28.753124Q135.01875 28.753124 134.55 29.1125Q134.09688 29.45625 133.89375 30.065624Q133.6125 31.003124 133.6125 32.1125L133.6125 37.55L131.84688 37.55ZM145.59688 37.55L145.59688 36.2375Q144.6125 37.784374 142.69063 37.784374Q141.45625 37.784374 140.40938 37.096874Q139.37813 36.409374 138.8 35.190624Q138.2375 33.971874 138.2375 32.378124Q138.2375 30.815624 138.75313 29.55Q139.26875 28.284374 140.3 27.6125Q141.34688 26.940624 142.6125 26.940624Q143.55 26.940624 144.28438 27.346874Q145.01875 27.7375 145.4875 28.3625L145.4875 23.2375L147.22188 23.2375L147.22188 37.55L145.59688 37.55ZM140.03438 32.378124Q140.03438 34.3625 140.87813 35.346874Q141.72188 36.33125 142.8625 36.33125Q144.01875 36.33125 144.81563 35.39375Q145.62813 34.45625 145.62813 32.51875Q145.62813 30.39375 144.8 29.39375Q143.9875 28.39375 142.78438 28.39375Q141.6125 28.39375 140.81563 29.3625Q140.03438 30.315624 140.03438 32.378124ZM156.97188 34.20625L158.78438 34.440624Q158.3625 36.01875 157.19063 36.909374Q156.03438 37.784374 154.22188 37.784374Q151.95625 37.784374 150.6125 36.39375Q149.28438 34.9875 149.28438 32.45625Q149.28438 29.83125 150.62813 28.39375Q151.97188 26.940624 154.12813 26.940624Q156.20625 26.940624 157.51875 28.3625Q158.84688 29.76875 158.84688 32.346874Q158.84688 32.503124 158.83125 32.815624L151.09688 32.815624Q151.19063 34.51875 152.06563 35.425Q152.94063 36.33125 154.2375 36.33125Q155.20625 36.33125 155.87813 35.83125Q156.56563 35.315624 156.97188 34.20625ZM151.19063 31.3625L156.9875 31.3625Q156.87813 30.065624 156.33125 29.409374Q155.4875 28.39375 154.14375 28.39375Q152.94063 28.39375 152.1125 29.20625Q151.28438 30.003124 151.19063 31.3625ZM160.84688 37.55L160.84688 27.175L162.425 27.175L162.425 28.753124Q163.03438 27.64375 163.55 27.3Q164.06563 26.940624 164.675 26.940624Q165.56563 26.940624 166.4875 27.503124L165.87813 29.14375Q165.2375 28.753124 164.59688 28.753124Q164.01875 28.753124 163.55 29.1125Q163.09688 29.45625 162.89375 30.065624Q162.6125 31.003124 162.6125 32.1125L162.6125 37.55L160.84688 37.55ZM167.87813 25.253124L167.87813 23.2375L169.64375 23.2375L169.64375 25.253124L167.87813 25.253124ZM167.87813 37.55L167.87813 27.175L169.64375 27.175L169.64375 37.55L167.87813 37.55ZM171.8625 37.55L171.8625 27.175L173.45625 27.175L173.45625 28.659374Q174.59688 26.940624 176.75313 26.940624Q177.69063 26.940624 178.47188 27.284374Q179.26875 27.6125 179.65938 28.159374Q180.05 28.70625 180.20625 29.45625Q180.3 29.95625 180.3 31.175L180.3 37.55L178.53438 37.55L178.53438 31.2375Q178.53438 30.159374 178.33125 29.628124Q178.12813 29.096874 177.59688 28.784374Q177.08125 28.471874 176.37813 28.471874Q175.25313 28.471874 174.44063 29.190624Q173.62813 29.89375 173.62813 31.878124L173.62813 37.55L171.8625 37.55ZM181.55 38.409374L183.25313 38.659374Q183.3625 39.45625 183.84688 39.815624Q184.50313 40.3 185.64375 40.3Q186.8625 40.3 187.51875 39.815624Q188.19063 39.33125 188.425 38.45625Q188.56563 37.909374 188.55 36.190624Q187.39375 37.55 185.675 37.55Q183.53438 37.55 182.3625 36.003124Q181.19063 34.45625 181.19063 32.3Q181.19063 30.815624 181.72188 29.565624Q182.26875 28.315624 183.28438 27.628124Q184.31563 26.940624 185.69063 26.940624Q187.51875 26.940624 188.72188 28.425L188.72188 27.175L190.33125 27.175L190.33125 36.14375Q190.33125 38.565624 189.83125 39.565624Q189.34688 40.58125 188.26875 41.159374Q187.20625 41.753124 185.64375 41.753124Q183.8 41.753124 182.64375 40.925Q181.50313 40.096874 181.55 38.409374ZM183.00313 32.175Q183.00313 34.221874 183.81563 35.159374Q184.62813 36.096874 185.84688 36.096874Q187.05 36.096874 187.8625 35.159374Q188.69063 34.221874 188.69063 32.2375Q188.69063 30.33125 187.84688 29.3625Q187.00313 28.39375 185.81563 28.39375Q184.64375 28.39375 183.81563 29.346874Q183.00313 30.3 183.00313 32.175ZM199.03438 37.55L199.03438 23.2375L201.89375 23.2375L205.26875 33.3625Q205.7375 34.784374 205.95625 35.4875Q206.20625 34.70625 206.72188 33.190624L210.14375 23.2375L212.69063 23.2375L212.69063 37.55L210.87813 37.55L210.87813 25.565624L206.70625 37.55L205.00313 37.55L200.8625 25.3625L200.8625 37.55L199.03438 37.55ZM216.09688 37.55L216.09688 23.2375L221.4875 23.2375Q222.925 23.2375 223.675 23.3625Q224.72188 23.55 225.44063 24.05Q226.15938 24.534374 226.58125 25.425Q227.01875 26.315624 227.01875 27.378124Q227.01875 29.20625 225.84688 30.471874Q224.69063 31.721874 221.65938 31.721874L217.9875 31.721874L217.9875 37.55L216.09688 37.55ZM217.9875 30.034374L221.69063 30.034374Q223.51875 30.034374 224.28438 29.3625Q225.06563 28.675 225.06563 27.425Q225.06563 26.534374 224.6125 25.89375Q224.15938 25.253124 223.425 25.05Q222.94063 24.925 221.64375 24.925L217.9875 24.925L217.9875 30.034374ZM229.01875 37.55L229.01875 23.2375L230.90938 23.2375L230.90938 30.33125L238.01875 23.2375L240.58125 23.2375L234.58125 29.034374L240.84688 37.55L238.34688 37.55L233.25313 30.3L230.90938 32.58125L230.90938 37.55L229.01875 37.55ZM242.40938 37.55L242.40938 23.2375L244.31563 23.2375L244.31563 37.55L242.40938 37.55Z" fill-rule="nonzero"/></svg>